<?xml version="1.0" encoding="utf-8"?>
<!-- Generator: Adobe Illustrator 16.0.3, SVG Export Plug-In . SVG Version: 6.00 Build 0)  -->
<!DOCTYPE svg PUBLIC "-//W3C//DTD SVG 1.1//EN" "http://www.w3.org/Graphics/SVG/1.1/DTD/svg11.dtd">
<svg version="1.1" id="Layer_1" xmlns="http://www.w3.org/2000/svg" xmlns:xlink="http://www.w3.org/1999/xlink" x="0px" y="0px"
	 width="300px" height="300px" viewBox="156 246 300 300" enable-background="new 156 246 300 300" xml:space="preserve">
<path d="M198.911,346.685l30.749,17.671c-7.776,13.077-12.017,28.274-12.017,44.179c0,48.773,39.584,88.357,88.357,88.357
	s88.357-39.584,88.357-88.357c0-47.006-36.757-85.53-83.057-88.358c0,3.535,0,7.069,0,10.604v9.542
	c0,7.775-5.654,10.956-12.369,7.068l-19.085-10.956c-6.715-3.888-17.671-10.25-24.387-14.138l-19.085-10.956
	c-6.715-3.888-6.715-10.25,0-14.137l19.085-10.956c6.715-3.888,17.672-10.25,24.387-14.137l19.085-10.603
	c6.715-3.888,12.369-1.06,12.369,6.362c0,4.948,0,11.31,0,16.964C377.039,287.662,429.7,342.09,429.7,408.535
	c0,68.212-55.488,123.7-123.7,123.7s-123.7-55.488-123.7-123.7C182.3,385.916,188.308,365.063,198.911,346.685z"/>
</svg>
