<?xml version="1.0" encoding="utf-8"?>
<!-- Generator: Adobe Illustrator 16.0.3, SVG Export Plug-In . SVG Version: 6.00 Build 0)  -->
<!DOCTYPE svg PUBLIC "-//W3C//DTD SVG 1.1//EN" "http://www.w3.org/Graphics/SVG/1.1/DTD/svg11.dtd">
<svg version="1.1" id="Layer_1" xmlns="http://www.w3.org/2000/svg" xmlns:xlink="http://www.w3.org/1999/xlink" x="0px" y="0px"
	 width="100px" height="100px" viewBox="0 0 100 100" enable-background="new 0 0 100 100" xml:space="preserve">
<g id="Captions">
</g>
<g id="Your_Icon">
	<g>
		<path d="M80.764,73.631c0,0.002,0,0.607,0,1.587s0,2.327,0,3.813c0,0.287-0.062,0.549-0.187,0.814
			c-0.187,0.398-0.536,0.801-1.026,1.098c-0.488,0.299-1.104,0.486-1.787,0.486h-24c-0.91,0.004-1.703-0.338-2.23-0.813
			c-0.264-0.239-0.459-0.504-0.584-0.769c-0.123-0.268-0.184-0.529-0.186-0.816c0-1.486,0-2.836,0-3.813c0-0.979,0-1.585,0-1.587h-6
			c0,0.002,0,0.607,0,1.587s0,2.327,0,3.813c-0.001,1.198,0.275,2.354,0.761,3.377c0.729,1.539,1.905,2.791,3.33,3.658
			c1.425,0.869,3.118,1.365,4.909,1.365h24c2.391-0.002,4.598-0.877,6.245-2.355c0.823-0.742,1.51-1.642,1.994-2.668
			c0.485-1.023,0.762-2.179,0.761-3.377c0-1.486,0-2.836,0-3.813c0-0.979,0-1.585,0-1.587H80.764z"/>
		<path d="M62.305,51.891c0.659,0.663,1.059,1.551,1.059,2.541v14.006l-4.302-4.303l-3.394,3.394l10.096,10.098l10.098-10.098
			l-3.394-3.394l-4.304,4.303V54.432c0-2.313-0.951-4.424-2.466-5.936c-1.511-1.515-3.622-2.465-5.935-2.465h-7.199v4.8h7.199
			C60.753,50.832,61.641,51.23,62.305,51.891z"/>
	</g>
</g>
<text transform="matrix(1 0 0 1 10.6074 39.4019)" stroke="#000000" stroke-width="2" stroke-linecap="round" stroke-linejoin="round" stroke-miterlimit="10" font-family="'MyriadPro-Regular'" font-size="32.4">ØMQ</text>
<g>
	<circle fill="none" cx="50" cy="50" r="50"/>
</g>
</svg>
