<?xml version="1.0" encoding="utf-8"?>
<!-- Generator: Adobe Illustrator 16.0.3, SVG Export Plug-In . SVG Version: 6.00 Build 0)  -->
<!DOCTYPE svg PUBLIC "-//W3C//DTD SVG 1.1//EN" "http://www.w3.org/Graphics/SVG/1.1/DTD/svg11.dtd">
<svg version="1.1" id="Layer_1" xmlns="http://www.w3.org/2000/svg" xmlns:xlink="http://www.w3.org/1999/xlink" x="0px" y="0px"
	 width="100px" height="100px" viewBox="0 0 100 100" enable-background="new 0 0 100 100" xml:space="preserve">
<g id="Captions">
</g>
<path d="M87.502,26.415H49.726c-1.02,0-1.909,0.694-2.156,1.684L36.434,72.643l-9.907-19.814c-0.376-0.753-1.146-1.228-1.987-1.228
	H11.947c-1.228,0-2.223,0.994-2.223,2.222c0,1.227,0.995,2.223,2.223,2.223h11.219l11.979,23.957
	c0.379,0.757,1.152,1.229,1.987,1.229c0.08,0,0.162-0.005,0.244-0.015c0.924-0.101,1.687-0.769,1.912-1.669L51.46,30.86h36.042
	c1.228,0,2.222-0.994,2.222-2.222C89.724,27.41,88.729,26.415,87.502,26.415z"/>
<circle fill="none" cx="50" cy="50" r="50"/>
<text transform="matrix(1 0 0 1 53.1719 73.624)" stroke="#000000" stroke-width="2" stroke-linecap="round" stroke-linejoin="round" stroke-miterlimit="10" font-family="'MyriadPro-Regular'" font-size="48">x</text>
</svg>
