<?xml version="1.0" encoding="UTF-8" standalone="no"?>
<!-- Created with Inkscape (http://www.inkscape.org/) -->

<svg
   xmlns:dc="http://purl.org/dc/elements/1.1/"
   xmlns:cc="http://creativecommons.org/ns#"
   xmlns:rdf="http://www.w3.org/1999/02/22-rdf-syntax-ns#"
   xmlns:svg="http://www.w3.org/2000/svg"
   xmlns="http://www.w3.org/2000/svg"
   xmlns:sodipodi="http://sodipodi.sourceforge.net/DTD/sodipodi-0.dtd"
   xmlns:inkscape="http://www.inkscape.org/namespaces/inkscape"
   width="40.200001"
   height="53.240002"
   id="svg2"
   version="1.1"
   inkscape:version="0.48.4 r9939"
   sodipodi:docname="bug.svg">
  <defs
     id="defs4" />
  <sodipodi:namedview
     id="base"
     pagecolor="#ffffff"
     bordercolor="#666666"
     borderopacity="1.0"
     inkscape:pageopacity="0.0"
     inkscape:pageshadow="2"
     inkscape:zoom="7.9195959"
     inkscape:cx="29.482009"
     inkscape:cy="17.955843"
     inkscape:document-units="px"
     inkscape:current-layer="g3007"
     showgrid="false"
     inkscape:window-width="1205"
     inkscape:window-height="800"
     inkscape:window-x="2"
     inkscape:window-y="89"
     inkscape:window-maximized="0"
     fit-margin-top="3"
     fit-margin-left="3"
     fit-margin-right="3"
     fit-margin-bottom="3" />
  <metadata
     id="metadata7">
    <rdf:RDF>
      <cc:Work
         rdf:about="">
        <dc:format>image/svg+xml</dc:format>
        <dc:type
           rdf:resource="http://purl.org/dc/dcmitype/StillImage" />
        <dc:title></dc:title>
      </cc:Work>
    </rdf:RDF>
  </metadata>
  <g
     inkscape:label="Layer 1"
     inkscape:groupmode="layer"
     id="layer1"
     transform="translate(-331.71106,-517.85433)">
    <g
       id="g3007"
       transform="translate(327.81106,520.49433)">
      <g
         id="g2987">
        <g
           id="g2989">
          <path
             id="path2991"
             d="M 17.6,6.6 C 16,7.8 15,9.4 15,11.2 c 0,3.6 4,6.5 9,6.5 5,0 9,-2.9 9,-6.5 0,-1.8 -1,-3.4 -2.6,-4.6 l 3,-4.3 C 33.8,1.7 33.7,1 33.1,0.6 32.5,0.2 31.8,0.3 31.4,0.9 L 28.3,5.4 C 27,4.9 25.5,4.6 24,4.6 22.5,4.6 21,4.9 19.8,5.4 L 16.7,0.9 C 16.3,0.3 15.5,0.2 15,0.6 14.4,1 14.3,1.8 14.7,2.3 l 2.9,4.3 z"
             inkscape:connector-curvature="0" />
        </g>
        <g
           id="g2993">
          <path
             id="path2995"
             d="m 34.7,13.1 c -1.1,3.8 -5.4,6.6 -10.7,6.6 -5.3,0 -9.6,-2.8 -10.7,-6.6 -3.9,3.6 -6.4,9 -6.4,15.1 0,10.7 7.7,19.4 17.1,19.4 9.5,0 17.1,-8.7 17.1,-19.4 0,-6.1 -2.5,-11.5 -6.4,-15.1 z M 16,29.6 c -1.6,0 -2.9,-1.3 -2.9,-2.9 0,-1.6 1.3,-2.9 2.9,-2.9 1.6,0 2.9,1.3 2.9,2.9 0,1.6 -1.3,2.9 -2.9,2.9 z m 6.5,10 c -1.4,0 -2.6,-1.2 -2.6,-2.6 0,-1.4 1.2,-2.6 2.6,-2.6 1.4,0 2.6,1.2 2.6,2.6 0,1.4 -1.2,2.6 -2.6,2.6 z m 10,-8.9 c -1.5,0 -2.8,-1.2 -2.8,-2.8 0,-1.6 1.2,-2.8 2.8,-2.8 1.6,0 2.8,1.2 2.8,2.8 0,1.6 -1.3,2.8 -2.8,2.8 z"
             inkscape:connector-curvature="0" />
        </g>
      </g>
    </g>
  </g>
</svg>
