<?xml version="1.0" encoding="utf-8"?>
<!-- Generator: Adobe Illustrator 16.0.3, SVG Export Plug-In . SVG Version: 6.00 Build 0)  -->
<!DOCTYPE svg PUBLIC "-//W3C//DTD SVG 1.1//EN" "http://www.w3.org/Graphics/SVG/1.1/DTD/svg11.dtd">
<svg version="1.1" id="Layer_1" xmlns="http://www.w3.org/2000/svg" xmlns:xlink="http://www.w3.org/1999/xlink" x="0px" y="0px"
	 width="96px" height="96px" viewBox="0 0 96 96" enable-background="new 0 0 96 96" xml:space="preserve">
<rect x="30.2" y="61.52" fill="#CCCCCC" width="13.813" height="30.813"/>
<rect x="62.025" y="31.976" fill="#CCCCCC" width="30.813" height="13.813"/>
<rect x="28.875" y="22.543" fill="#999999" width="32.25" height="32.283"/>
<g id="Layer_1_1_">
</g>
<path fill="none" d="M96.1,48.098c0,26.498-21.49,47.988-47.994,47.988c-26.51,0-48-21.49-48-47.988
	c0-26.507,21.49-47.998,48-47.998C74.609,0.1,96.1,21.59,96.1,48.098z"/>
<rect x="2.98" y="34.805" width="8.569" height="8.034"/>
<rect x="16.137" y="34.805" width="8.568" height="8.034"/>
<rect x="32.991" y="41.913" width="8.033" height="8.561"/>
<rect x="32.991" y="63.136" width="8.033" height="8.57"/>
<rect x="32.991" y="72.981" width="8.033" height="8.572"/>
<rect x="32.991" y="82.638" width="8.033" height="8.57"/>
<path d="M35.397,46.198v10.162l-2.881-2.881l-2.273,2.271l6.763,6.762l6.764-6.762l-2.273-2.271l-2.881,2.879v-10.16"/>
<line fill="none" x1="29.249" y1="22.36" x2="29.249" y2="54.705"/>
<line fill="none" stroke="#000000" stroke-miterlimit="10" x1="60.544" y1="22.485" x2="60.544" y2="54.83"/>
<rect x="63.25" y="34.827" width="8.57" height="8.032"/>
<rect x="73.096" y="34.827" width="8.572" height="8.032"/>
<rect x="82.951" y="34.827" width="8.57" height="8.032"/>
<path d="M48.742,78.596c0,0.687,0.609,1.243,1.361,1.243h8.506c4.504,0,8.168-3.346,8.168-7.454v-9.237h2.721l-4.082-7.453
	l-4.084,7.453h2.723v9.237c0,2.739-2.443,4.969-5.443,4.969h-8.508C49.352,77.354,48.742,77.909,48.742,78.596z"/>
<path fill="#999999" stroke="#333333" stroke-width="0.4" stroke-miterlimit="10" d="M35.241,19.66l-0.088-10.8
	c-0.002-0.256-0.106-0.497-0.288-0.675l-3.716-3.661c-0.514-0.505-1.34-0.5-1.847,0.016l-3.658,3.718
	c-0.18,0.184-0.278,0.427-0.276,0.681l0.087,10.801c0.005,0.271,0.113,0.515,0.292,0.691c0.178,0.175,0.425,0.282,0.695,0.281
	l7.828-0.064C34.811,20.642,35.246,20.2,35.241,19.66z M29.703,8.164c-0.402-0.396-0.41-1.039-0.012-1.444
	c0.396-0.401,1.043-0.406,1.444-0.012c0.402,0.396,0.407,1.043,0.013,1.444C30.75,8.556,30.104,8.56,29.703,8.164z"/>
<path d="M65.373,19.675l-0.087-10.8C65.282,8.62,65.179,8.378,64.999,8.2l-3.697-3.661c-0.513-0.506-1.336-0.5-1.839,0.016
	l-3.641,3.718c-0.18,0.183-0.276,0.426-0.273,0.681l0.085,10.801c0.004,0.271,0.113,0.515,0.293,0.69
	c0.177,0.176,0.423,0.283,0.689,0.282l7.791-0.065C64.943,20.656,65.377,20.215,65.373,19.675z M59.861,8.179
	c-0.399-0.396-0.408-1.04-0.012-1.444c0.394-0.4,1.038-0.406,1.437-0.012c0.401,0.396,0.405,1.043,0.014,1.444
	C60.904,8.572,60.261,8.574,59.861,8.179z"/>
</svg>
