<?xml version="1.0" encoding="utf-8"?>
<!-- Generator: Adobe Illustrator 16.0.3, SVG Export Plug-In . SVG Version: 6.00 Build 0)  -->
<!DOCTYPE svg PUBLIC "-//W3C//DTD SVG 1.1//EN" "http://www.w3.org/Graphics/SVG/1.1/DTD/svg11.dtd">
<svg version="1.1" id="Layer_1" xmlns="http://www.w3.org/2000/svg" xmlns:xlink="http://www.w3.org/1999/xlink" x="0px" y="0px"
	 width="96px" height="96px" viewBox="0 0 96 96" enable-background="new 0 0 96 96" xml:space="preserve">
<g id="Layer_1_1_">
</g>
<circle fill="none" cx="48" cy="47.8" r="48"/>
<g>
	<path stroke="#000000" stroke-width="1.8657" stroke-linecap="round" stroke-linejoin="round" stroke-miterlimit="10" d="
		M49.768,35.432v10.26h9.852v3.535h-9.852v10.353h-3.719V49.227h-9.852v-3.535h9.852v-10.26H49.768z"/>
</g>
<g>
	<polygon points="8.386,59.521 1.869,56.52 1.869,49.018 8.386,52.02 	"/>
	<polygon points="15.905,63.27 9.889,60.268 9.889,52.77 15.905,55.77 	"/>
	<polygon points="8.386,50.52 1.869,47.518 1.869,40.017 8.386,43.018 	"/>
	<polygon points="15.905,54.27 9.889,51.27 9.889,43.767 15.905,46.768 	"/>
	<polygon points="24.184,59.521 30.702,56.52 30.702,49.018 24.184,52.02 	"/>
	<polygon points="17.41,63.27 22.924,60.268 22.924,52.77 17.41,55.77 	"/>
	<polygon points="24.184,50.52 30.702,47.518 30.702,40.017 24.184,43.018 	"/>
	<polygon points="17.41,54.27 22.924,51.27 22.924,43.767 17.41,46.768 	"/>
	<polygon points="22.694,42.173 16.576,45.172 10.392,42.173 16.576,39.243 	"/>
	<polygon points="30.423,38.423 24.305,41.424 18.121,38.423 24.305,35.494 	"/>
	<polygon points="14.966,38.423 8.847,41.424 2.662,38.423 8.847,35.494 	"/>
	<polygon points="22.694,34.671 16.576,37.672 10.392,34.671 16.576,31.743 	"/>
</g>
<g>
	<polygon fill="#666666" points="71.553,59.521 65.036,56.52 65.036,49.018 71.553,52.02 	"/>
	<polygon fill="#666666" points="79.072,63.27 73.057,60.268 73.057,52.77 79.072,55.77 	"/>
	<polygon fill="#666666" points="71.553,50.52 65.036,47.518 65.036,40.017 71.553,43.018 	"/>
	<polygon fill="#666666" points="79.072,54.27 73.057,51.27 73.057,43.767 79.072,46.768 	"/>
	<polygon fill="#666666" points="87.352,59.521 93.869,56.52 93.869,49.018 87.352,52.02 	"/>
	<polygon fill="#666666" points="80.576,63.27 86.091,60.268 86.091,52.77 80.576,55.77 	"/>
	<polygon fill="#666666" points="87.352,50.52 93.869,47.518 93.869,40.017 87.352,43.018 	"/>
	<polygon fill="#666666" points="80.576,54.27 86.091,51.27 86.091,43.767 80.576,46.768 	"/>
	<polygon fill="#666666" points="85.861,42.173 79.743,45.172 73.559,42.173 79.743,39.243 	"/>
	<polygon fill="#666666" points="93.59,38.423 87.473,41.424 81.288,38.423 87.473,35.494 	"/>
	<polygon fill="#666666" points="78.133,38.423 72.014,41.424 65.829,38.423 72.014,35.494 	"/>
	<polygon fill="#666666" points="85.861,34.671 79.743,37.672 73.559,34.671 79.743,31.743 	"/>
</g>
</svg>
