<?xml version="1.0" encoding="utf-8"?>
<!-- Generator: Adobe Illustrator 16.0.3, SVG Export Plug-In . SVG Version: 6.00 Build 0)  -->
<!DOCTYPE svg PUBLIC "-//W3C//DTD SVG 1.1//EN" "http://www.w3.org/Graphics/SVG/1.1/DTD/svg11.dtd">
<svg version="1.1" xmlns="http://www.w3.org/2000/svg" xmlns:xlink="http://www.w3.org/1999/xlink" x="0px" y="0px" width="96px"
	 height="96px" viewBox="0 0 96 96" enable-background="new 0 0 96 96" xml:space="preserve">
<g id="circular_mask">
	<g>
		<defs>
			<circle id="SVGID_1_" cx="48" cy="48.034" r="48"/>
		</defs>
		<clipPath id="SVGID_2_">
			<use xlink:href="#SVGID_1_"  overflow="visible"/>
		</clipPath>
		<path clip-path="url(#SVGID_2_)" fill="#EEEEEE" d="M101.771,97.191c-3.476,0-6.951-0.004-10.428-0.004
			c0.002-3.217,0.002-6.432,0.004-9.648c0.07-0.109,0.143-0.223,0.213-0.332c2.317-1.109,8.571-0.92,10.223,0.314l-0.021,0.043
			C101.766,90.773,101.77,93.982,101.771,97.191z"/>
		<path clip-path="url(#SVGID_2_)" fill="none" stroke="#000000" stroke-width="0.1" stroke-miterlimit="10" d="M95.801,48.132
			c0,26.495-21.49,47.985-47.996,47.985c-26.509,0-48-21.49-48-47.985c0-26.507,21.49-47.998,48-47.998
			C74.311,0.134,95.801,21.624,95.801,48.132z"/>
		<path clip-path="url(#SVGID_2_)" fill="#C3C3C3" d="M101.786-0.335c-0.002,3.193-0.004,6.386-0.007,9.58
			c-0.071,0.111-0.146,0.223-0.219,0.334c-2.324,1.237-4.83,0.472-7.248,0.632c-1.125,0.074-2.277,0.008-3.217-0.796
			c-1.021-3.292-1.449-6.567,0.229-9.795c0,0,0.032-0.015,0.032-0.016C94.834-0.377,98.311-0.356,101.786-0.335z"/>
		<path clip-path="url(#SVGID_2_)" fill="#D7D7D7" d="M91.365,97.186c-3.621-0.006-7.242-0.01-10.863-0.016l-0.011,0.01
			c-0.269-0.287-0.677-0.551-0.707-0.928c-0.244-2.982-0.843-5.99,0.487-8.889c0.477-0.367,0.996-0.68,1.604-0.684
			c3.2-0.008,6.44-0.721,9.569,0.543c0.797,0.832,0.9,1.9,0.849,2.949c-0.116,2.266,0.546,4.604-0.604,6.775
			C91.581,97.027,91.475,97.105,91.365,97.186z"/>
		<path clip-path="url(#SVGID_2_)" fill="#FEFEFE" d="M16.232,97.139c-3.469,0.016-6.937,0.031-10.405,0.047l0.01-0.035
			c-0.388-0.359-0.805-0.713-0.835-1.287c-0.147-2.742-0.529-5.496,0.334-8.199c0.126-0.24,0.306-0.43,0.539-0.57
			c3.558-0.746,7.106-1.121,10.611,0.266c1.094,3.299,1.439,6.578-0.214,9.814L16.232,97.139z"/>
		<path clip-path="url(#SVGID_2_)" fill="#D2D2D2" d="M80.512,87.527c-0.007,3.217-0.013,6.436-0.021,9.652
			c-3.616,0-7.233,0.002-10.853,0.002c-0.106-0.074-0.215-0.15-0.324-0.227c-0.99-3.217-1.098-6.42,0.131-9.607
			c0.589-0.479,1.277-0.752,2.021-0.727c2.945,0.102,5.95-0.666,8.82,0.576C80.361,87.309,80.438,87.418,80.512,87.527z"/>
		<path clip-path="url(#SVGID_2_)" fill="#D2D2D2" d="M-5.003,87.539c-0.002-3.35-0.005-6.697-0.008-10.047h-0.013
			c0.244-0.219,0.45-0.576,0.757-0.613c3.443-0.436,6.896-0.943,10.27,0.398c1.264,2.412,1.154,8.52-0.185,10.248l0.012,0.014
			c-0.421,0.441-0.87,0.818-1.524,0.865c-2.602,0.188-5.202,0.189-7.803-0.002c-0.656-0.049-1.103-0.426-1.517-0.877L-5.003,87.539z
			"/>
		<path clip-path="url(#SVGID_2_)" fill="#CACACA" d="M-4.996,19.28c-0.005-3.341-0.011-6.682-0.016-10.022l-0.014-0.026
			c0.385-0.357,0.744-0.784,1.315-0.809c3.14-0.133,6.292-0.56,9.397,0.328c0.243,0.124,0.435,0.302,0.579,0.533
			c0.762,3.429,1.112,6.847-0.26,10.221c-1.533,1.086-3.298,0.702-4.984,0.762c-1.381,0.049-2.767,0.033-4.15-0.063
			c-0.767-0.053-1.4-0.323-1.877-0.936L-4.996,19.28z"/>
		<path clip-path="url(#SVGID_2_)" fill="#C9C9C9" d="M-5.041,48.589c0.01-3.348,0.02-6.694,0.03-10.041
			c0.001,0-0.012,0.013-0.012,0.013c0.243-0.222,0.444-0.582,0.753-0.622c3.444-0.439,6.897-0.947,10.273,0.399
			c1.315,3.464,1.187,6.937,0.069,10.416c-0.75,0.639-1.66,0.77-2.598,0.797c-1.987,0.055-3.975,0.057-5.962,0
			c-0.94-0.027-1.867-0.105-2.498-0.949L-5.041,48.589z"/>
		<path clip-path="url(#SVGID_2_)" fill="#C2C2C2" d="M101.805,58.213c-0.006,3.219-0.011,6.438-0.017,9.656l-0.015-0.008
			c-0.238,0.225-0.437,0.588-0.746,0.627c-3.309,0.408-6.629,0.963-9.863-0.41c-1.286-3.33-1.201-6.668-0.063-10.012
			c1.057-0.887,2.344-0.801,3.594-0.818c1.658-0.023,3.316-0.041,4.974,0.043c0.827,0.041,1.569,0.246,2.101,0.938L101.805,58.213z"
			/>
		<path clip-path="url(#SVGID_2_)" fill="#CFCFCF" d="M5.825,9.244C2.208,9.24-1.408,9.236-5.025,9.231
			c0.012-3.213,0.024-6.426,0.036-9.64C-1.383-0.412,2.222-0.416,5.828-0.42L5.823-0.35c0.399,0.361,0.785,0.73,0.842,1.312
			C6.893,3.293,6.91,5.624,6.657,7.953C6.596,8.511,6.318,8.953,5.825,9.244z"/>
		<path clip-path="url(#SVGID_2_)" fill="#CACACA" d="M16.276-0.383c3.606-0.019,7.212-0.036,10.818-0.055l0.024,0.101
			c0.286,0.275,0.689,0.534,0.721,0.925c0.238,2.948,0.791,5.919-0.442,8.794c-0.348,0.329-0.763,0.602-1.225,0.637
			c-3.252,0.249-6.51,0.593-9.734-0.254c-0.246-0.12-0.442-0.295-0.59-0.523c-0.688-3.249-1.304-6.495,0.392-9.646L16.276-0.383z"/>
		<path clip-path="url(#SVGID_2_)" fill="#E3E3E3" d="M27.1,9.232c0.006-3.19,0.012-6.38,0.019-9.569
			c3.614-0.017,7.229-0.034,10.843-0.051l-0.01-0.019c0.268,0.295,0.68,0.559,0.714,0.943c0.263,2.963,0.8,5.948-0.426,8.841
			c-0.505,0.464-1.115,0.709-1.785,0.755c-2.565,0.178-5.132,0.161-7.699,0.012c-0.538-0.031-1.031-0.203-1.44-0.573
			C27.244,9.457,27.171,9.345,27.1,9.232z"/>
		<path clip-path="url(#SVGID_2_)" fill="#C7C7C7" d="M48.365-0.406c3.617-0.005,7.238-0.011,10.857-0.016l0.008,0.069
			c0.229,0.24,0.59,0.438,0.633,0.76c0.404,3.032,0.904,6.075-0.432,9.024c-0.479,0.371-1.008,0.681-1.619,0.675
			c-3.209-0.027-6.477,0.793-9.593-0.621c-1.263-2.388-1.167-8.11,0.167-9.867L48.365-0.406z"/>
		<path clip-path="url(#SVGID_2_)" fill="#C9C9C9" d="M69.68-0.451c3.602,0.02,7.202,0.04,10.805,0.059
			c-0.002,0,0.037,0.005,0.037,0.005c0.217,0.246,0.567,0.447,0.609,0.757c0.412,3.041,0.924,6.093-0.412,9.056
			c-0.479,0.37-1.006,0.683-1.615,0.679c-3.211-0.019-6.476,0.779-9.599-0.605c-1.257-2.334-1.179-8.062,0.136-9.826L69.68-0.451z"
			/>
		<path clip-path="url(#SVGID_2_)" fill="#C5C5C5" d="M80.501,9.249c0.006-3.212,0.015-6.424,0.021-9.636
			c3.603,0.002,7.203,0.004,10.805,0.005c0.005,3.212,0.011,6.422,0.017,9.634c-0.067,0.107-0.138,0.215-0.206,0.323
			c-0.576,0.543-1.314,0.655-2.037,0.613c-2.801-0.165-5.677,0.674-8.393-0.615C80.639,9.465,80.568,9.357,80.501,9.249z"/>
		<path clip-path="url(#SVGID_2_)" fill="#FBFBFB" d="M-5.006,19.268c3.612,0.005,7.225,0.01,10.838,0.015
			c0.11,0.075,0.222,0.15,0.333,0.225c0.994,3.259,1.12,6.51-0.084,9.75C2.8,30.425-0.559,29.88-3.899,29.7
			c-0.484-0.026-0.778-0.464-1.119-0.771l0.003-0.001C-5.013,25.708-5.01,22.488-5.006,19.268z"/>
		<path clip-path="url(#SVGID_2_)" fill="#E6E6E6" d="M-5.02,28.929c3.611-0.006,7.223-0.014,10.835-0.021
			c0.307,0.146,0.64,0.338,0.681,0.674c0.357,2.936,0.836,5.882-0.334,8.761c-0.11,0.074-0.221,0.147-0.33,0.221
			c-3.619-0.001-7.237-0.002-10.855-0.003C-5.021,35.35-5.021,32.139-5.02,28.929z"/>
		<path clip-path="url(#SVGID_2_)" fill="#B8B8B8" d="M-4.985,48.602C-1.381,48.6,2.222,48.6,5.827,48.6
			c0.112,0.074,0.223,0.146,0.335,0.22c0.98,3.255,1.138,6.505-0.081,9.745c-3.281,1.166-6.64,0.621-9.98,0.439
			c-0.489-0.027-0.775-0.467-1.106-0.783l-0.004,0.006C-5.001,55.018-4.993,51.809-4.985,48.602z"/>
		<path clip-path="url(#SVGID_2_)" fill="#CDCDCD" d="M-5.005,58.221c3.61-0.002,7.219-0.002,10.829-0.002
			c0.301,0.154,0.629,0.359,0.666,0.689c0.342,3.063,0.901,6.141-0.434,9.123c-0.754,0.639-1.665,0.764-2.602,0.789
			c-1.988,0.055-3.977,0.055-5.966-0.002c-0.943-0.025-1.864-0.119-2.499-0.955c0,0-0.006,0.002-0.006,0.004
			C-5.013,64.652-5.009,61.436-5.005,58.221z"/>
		<path clip-path="url(#SVGID_2_)" fill="#E3E3E3" d="M-5.011,67.863c3.611,0.002,7.221,0.006,10.832,0.01
			c0.108,0.066,0.216,0.133,0.324,0.199c1.057,3.072,1.038,6.146,0.009,9.223c-0.107,0.068-0.214,0.137-0.322,0.203
			c-3.619-0.002-7.238-0.002-10.857-0.006C-5.019,74.283-5.015,71.074-5.011,67.863z"/>
		<path clip-path="url(#SVGID_2_)" fill="#F5F5F5" d="M-5.013,87.525c3.615,0.004,7.229,0.01,10.844,0.014
			c0.002,3.205,0.004,6.408,0.006,9.611c-3.607,0.004-7.214,0.008-10.821,0.014C-4.993,93.951-5.003,90.738-5.013,87.525z"/>
		<path clip-path="url(#SVGID_2_)" fill="#CACACA" d="M48.387-0.383c-0.001,3.211-0.002,6.422-0.002,9.633
			c-0.067,0.108-0.136,0.216-0.205,0.323c-0.826,0.73-1.862,0.697-2.834,0.635c-2.408-0.154-4.901,0.599-7.216-0.624
			c-0.071-0.105-0.143-0.211-0.215-0.317c0.013-3.224,0.025-6.449,0.038-9.673C41.431-0.399,44.909-0.391,48.387-0.383z"/>
		<path clip-path="url(#SVGID_2_)" fill="#CDCDCD" d="M16.241-0.404c0.003,3.223,0.006,6.446,0.01,9.669
			c-0.25,0.427-0.642,0.723-1.103,0.775c-2.726,0.312-5.458,0.318-8.186-0.001c-0.499-0.059-0.789-0.47-1.13-0.784L5.825,9.244
			c0-3.198-0.001-6.397-0.002-9.595C9.295-0.368,12.768-0.386,16.241-0.404z"/>
		<path clip-path="url(#SVGID_2_)" fill="#A7A7A7" d="M69.641-0.326c0,3.188,0,6.374,0,9.561c-0.065,0.11-0.131,0.219-0.197,0.328
			c-2.094,1.213-4.389,0.528-6.592,0.646c-1.156,0.062-2.403,0.219-3.412-0.655c-0.063-0.111-0.127-0.222-0.189-0.332
			c-0.007-3.192-0.014-6.385-0.02-9.577C62.701-0.344,66.17-0.335,69.641-0.326z"/>
		<path clip-path="url(#SVGID_2_)" fill="#D0D0D0" d="M101.779,9.255c0,3.344,0,6.688,0,10.031l0,0
			c-0.24,0.223-0.44,0.584-0.75,0.623c-3.309,0.413-6.629,0.962-9.865-0.405c-1.254-2.396-1.148-8.506,0.179-10.254l-0.001,0.002
			C94.82,9.253,98.3,9.254,101.779,9.255z"/>
		<path clip-path="url(#SVGID_2_)" fill="#E6E6E6" d="M91.348,87.539c-3.613-0.004-7.225-0.008-10.836-0.012l-0.013,0.008
			c-0.224-0.24-0.58-0.439-0.622-0.75c-0.438-3.178-0.923-6.363,0.415-9.467c0.479-0.371,1.013-0.674,1.625-0.678
			c3.239-0.023,6.515-0.666,9.685,0.539c0.73,0.666,0.652,1.576,0.688,2.428c0.078,1.869,0.065,3.74-0.001,5.611
			c-0.032,0.893-0.186,1.729-0.949,2.318h0.008V87.539z"/>
		<path clip-path="url(#SVGID_2_)" fill="#B5B5B5" d="M16.271,97.174c-0.013-3.217-0.025-6.434-0.038-9.648
			c0.076-0.109,0.152-0.219,0.229-0.328c2.06-1.164,4.305-0.533,6.466-0.623c1.502-0.063,3.094-0.27,4.42,0.797
			c1.032,3.301,1.431,6.584-0.208,9.826l-0.052-0.035C23.482,97.164,19.876,97.17,16.271,97.174z"/>
		<path clip-path="url(#SVGID_2_)" fill="#E8E8E8" d="M5.818,87.525c0.004-3.344,0.01-6.686,0.015-10.027l-0.008,0.006
			c0.241-0.225,0.439-0.586,0.749-0.625c3.31-0.418,6.631-0.965,9.869,0.402c1.166,3.441,1.46,6.875-0.125,10.283l-0.085-0.039
			C12.761,87.525,9.29,87.525,5.818,87.525z"/>
		<path clip-path="url(#SVGID_2_)" fill="#C5C5C5" d="M80.533,77.533c-0.012,3.334-0.021,6.668-0.034,10.002
			c-3.61,0.002-7.22,0.002-10.828,0.004c-0.11-0.07-0.223-0.145-0.334-0.215c-1.017-3.35-1.128-6.689,0.114-10.014
			c0.59-0.482,1.283-0.754,2.027-0.725c2.953,0.111,5.974-0.695,8.844,0.605C80.395,77.307,80.463,77.42,80.533,77.533z"/>
		<path clip-path="url(#SVGID_2_)" fill="#BDBDBD" d="M69.656,97.189c-3.477-0.008-6.953-0.018-10.432-0.023l0.02-0.014
			c-0.278-0.273-0.7-0.512-0.732-0.902c-0.25-2.982-0.855-5.994,0.492-8.891c2.258-1.414,4.766-0.654,7.164-0.781
			c1.219-0.063,2.559-0.211,3.482,0.955l0.021,0.006C69.666,90.756,69.661,93.973,69.656,97.189z"/>
		<path clip-path="url(#SVGID_2_)" fill="#B5B5B5" d="M5.832,9.255c3.473,0.003,6.946,0.006,10.419,0.01l0.017-0.015
			c0.223,0.241,0.579,0.44,0.622,0.75c0.442,3.177,0.917,6.362-0.407,9.464c-2.26,1.414-4.77,0.65-7.169,0.782
			c-1.227,0.068-2.556,0.185-3.498-0.945l0.016-0.018C5.832,15.94,5.832,12.598,5.832,9.255z"/>
		<path clip-path="url(#SVGID_2_)" fill="#C1C1C1" d="M5.827,48.6c0.001-3.346,0.003-6.69,0.005-10.035l-0.011-0.016
			c0.342-0.307,0.639-0.744,1.123-0.77c3.213-0.174,6.45-0.726,9.597,0.473c0.378,0.325,0.572,0.756,0.573,1.235
			c0.012,3.102,0.75,6.252-0.6,9.264c-1.187,0.979-2.62,0.799-3.998,0.822c-1.594,0.027-3.188,0.043-4.782-0.061
			c-0.773-0.049-1.414-0.319-1.909-0.917L5.827,48.6z"/>
		<path clip-path="url(#SVGID_2_)" fill="#BCBCBC" d="M91.34,87.539c-0.004-3.34-0.008-6.68-0.011-10.02
			c-0.21-0.252-0.563-0.445-0.611-0.76c-0.44-2.908-0.87-5.824,0.294-8.682c0.108-0.07,0.219-0.145,0.329-0.215
			c3.478-0.002,6.956-0.002,10.435-0.004c0.004,3.211,0.009,6.42,0.012,9.629c-0.001,3.344-0.002,6.689-0.003,10.033
			C98.302,87.527,94.82,87.533,91.34,87.539z"/>
		<path clip-path="url(#SVGID_2_)" fill="#A9A9A9" d="M101.768,58.227c-3.472-0.004-6.942-0.008-10.414-0.012
			c-0.112-0.072-0.225-0.143-0.336-0.215c-1.016-3.238-1.164-6.465,0.168-9.662c2.563-1.191,8.904-1.028,10.602,0.271l-0.02-0.017
			C101.768,51.803,101.768,55.016,101.768,58.227z"/>
		<path clip-path="url(#SVGID_2_)" fill="#CDCDCD" d="M91.354,58.217c-0.004,3.215-0.008,6.432-0.013,9.646H91.34
			c-0.371,0.371-0.727,0.799-1.301,0.824c-3.139,0.141-6.29,0.563-9.396-0.324c-0.242-0.125-0.435-0.303-0.578-0.535
			c-0.746-3.295-1.117-6.582,0.261-9.82c2.336-1.354,4.896-0.617,7.353-0.738c1.274-0.063,2.68-0.254,3.663,0.959L91.354,58.217z"/>
		<path clip-path="url(#SVGID_2_)" fill="#ECECEC" d="M16.271,19.286c-0.001-3.345-0.002-6.69-0.003-10.036
			c3.61-0.005,7.221-0.011,10.832-0.018l0.011,0.035c0.276,0.286,0.692,0.535,0.724,0.929c0.242,3.089,0.805,6.2-0.437,9.221
			c-0.514,0.471-1.135,0.713-1.816,0.759c-2.539,0.169-5.08,0.151-7.619,0.012c-0.546-0.029-1.051-0.191-1.469-0.566
			C16.419,19.509,16.346,19.398,16.271,19.286z"/>
		<path clip-path="url(#SVGID_2_)" fill="#F2F2F2" d="M27.108,19.283c0-3.338,0.002-6.677,0.002-10.016c3.601,0,7.203,0,10.804,0
			l0.051-0.022c0.273,0.291,0.682,0.566,0.71,0.943c0.239,3.091,0.804,6.205-0.436,9.227c-0.559,0.514-1.241,0.736-1.979,0.778
			c-2.431,0.139-4.863,0.125-7.294,0.01c-0.601-0.029-1.173-0.162-1.638-0.584C27.256,19.507,27.182,19.395,27.108,19.283z"/>
		<path clip-path="url(#SVGID_2_)" fill="#CCCCCC" d="M48.385,9.25c3.62-0.009,7.241-0.018,10.864-0.027l-0.026,0.03
			c0.223,0.24,0.582,0.438,0.625,0.748c0.439,3.177,0.916,6.361-0.408,9.463c-0.479,0.37-1.006,0.683-1.616,0.678
			c-3.214-0.024-6.481,0.793-9.602-0.619C46.955,17.135,47.052,11.011,48.385,9.25L48.385,9.25z"/>
		<path clip-path="url(#SVGID_2_)" fill="#C0C0C0" d="M69.641,9.235c3.618,0.005,7.24,0.01,10.86,0.015v0.001
			c0.91,0.686,0.942,1.693,0.964,2.693c0.053,2.449,0.053,4.898-0.043,7.347c0.092,2.337,0.092,4.674,0.047,7.012
			c-0.02,1.009-0.094,2.008-0.787,2.833c-0.594,0.471-1.287,0.715-2.022,0.701c-3.079-0.057-6.203,0.591-9.216-0.556
			c-0.807-0.702-0.709-1.682-0.736-2.589c-0.075-2.453-0.066-4.909,0.036-7.361c-0.095-2.458-0.101-4.918-0.046-7.378
			c0.021-1.004,0.056-2.014,0.965-2.706L69.641,9.235z"/>
		<path clip-path="url(#SVGID_2_)" fill="#C1C1C1" d="M80.505,19.295c-0.001-3.348-0.003-6.696-0.004-10.044
			c3.612,0,7.228,0,10.841,0c-0.001,3.345-0.002,6.691-0.005,10.036c-0.071,0.11-0.144,0.22-0.215,0.33
			c-2.226,1.221-4.634,0.513-6.959,0.628C82.891,20.308,81.488,20.504,80.505,19.295z"/>
		<path clip-path="url(#SVGID_2_)" fill="#D7D7D7" d="M16.258,38.545c-3.479,0.001-6.958,0.002-10.437,0.003
			c-0.001-3.213-0.003-6.426-0.005-9.64c0-3.203,0-6.405,0-9.608c3.485-0.005,6.971-0.01,10.456-0.015l0.005-0.014
			c0.815,0.645,0.926,1.559,0.949,2.503c0.06,2.383,0.055,4.765-0.038,7.146c0.089,2.46,0.121,4.921,0.022,7.379
			C17.176,37.147,17.231,38.077,16.258,38.545z"/>
		<path clip-path="url(#SVGID_2_)" fill="#D0D0D0" d="M5.825,48.597c3.485-0.015,6.969-0.026,10.453-0.041
			c0.106,0.072,0.213,0.145,0.32,0.218c0.82,1.021,0.618,2.248,0.646,3.414c0.05,2.041,0.024,4.084-0.068,6.125
			c0.113,2.32,0.099,4.641,0.058,6.963c-0.019,1.002-0.099,1.992-0.792,2.811c-2.474,1.217-8.897,1.082-10.616-0.223
			c0,0-0.005,0.01-0.005,0.012c0-3.219,0.001-6.438,0.002-9.654C5.824,55.01,5.825,51.801,5.825,48.597z"/>
		<path clip-path="url(#SVGID_2_)" fill="#BEBEBE" d="M5.827,67.863c3.483-0.004,6.966-0.006,10.45-0.01
			c0.106,0.068,0.213,0.139,0.319,0.207c1.025,3.084,1.042,6.166-0.01,9.246c-0.108,0.066-0.215,0.135-0.323,0.201
			c-3.479-0.002-6.958-0.004-10.438-0.006C5.826,74.289,5.826,71.076,5.827,67.863z"/>
		<path clip-path="url(#SVGID_2_)" fill="#BFBFBF" d="M48.385,9.25c0.004,3.35,0.008,6.7,0.011,10.05
			c-0.07,0.106-0.14,0.213-0.211,0.319c-2.385,1.217-4.942,0.472-7.418,0.625c-0.912,0.056-1.873,0.045-2.641-0.632
			c-0.07-0.106-0.14-0.213-0.21-0.32c0.017-3.349,0.034-6.698,0.05-10.047C41.438,9.246,44.912,9.248,48.385,9.25z"/>
		<path clip-path="url(#SVGID_2_)" fill="#EAEAEA" d="M69.661,9.246c-0.003,3.341-0.007,6.682-0.011,10.022
			c-0.239,0.223-0.42,0.592-0.734,0.637c-3.171,0.448-6.348,0.887-9.473-0.282c-0.072-0.109-0.146-0.219-0.217-0.328
			c-0.004-3.348-0.004-6.695-0.006-10.042C62.702,9.251,66.184,9.248,69.661,9.246z"/>
		<path clip-path="url(#SVGID_2_)" fill="#E3E3E3" d="M59.287,87.516c-0.014,3.211-0.028,6.424-0.043,9.637
			c-3.613,0.004-7.229,0.006-10.839,0.01c0-0.002-0.055,0.033-0.055,0.033c-0.268-0.297-0.666-0.59-0.696-0.957
			c-0.238-2.961-0.801-5.949,0.443-8.836c0.398-0.367,0.874-0.666,1.398-0.68c3.194-0.078,6.422-0.748,9.553,0.467
			C59.128,87.299,59.207,87.406,59.287,87.516z"/>
		<path clip-path="url(#SVGID_2_)" fill="#C3C3C3" d="M48.426,87.508c-0.027,3.229-0.051,6.459-0.077,9.688
			c-3.459-0.01-6.919-0.021-10.379-0.035l-0.075,0.047c-0.262-0.303-0.652-0.607-0.681-0.969c-0.236-2.959-0.796-5.941,0.438-8.83
			c0.505-0.463,1.117-0.754,1.783-0.746c2.925,0.023,5.896-0.674,8.751,0.521C48.267,87.293,48.347,87.4,48.426,87.508z"/>
		<path clip-path="url(#SVGID_2_)" fill="#DEDEDE" d="M37.96,87.527c-0.021,3.229-0.043,6.453-0.064,9.68
			c-3.585-0.004-7.171-0.006-10.756-0.01c-0.017-3.221-0.033-6.441-0.05-9.662c0.069-0.107,0.138-0.215,0.208-0.322
			c0.58-0.539,1.318-0.656,2.042-0.613c2.807,0.16,5.687-0.67,8.411,0.607C37.82,87.314,37.89,87.422,37.96,87.527z"/>
		<path clip-path="url(#SVGID_2_)" fill="#EBEBEB" d="M101.786,48.61c-3.481-0.009-6.962-0.016-10.443-0.021
			c-0.11-0.075-0.223-0.146-0.334-0.22c-0.979-3.369-1.167-6.725,0.168-10.056c2.55-1.204,8.919-1.045,10.562,0.263l0.076-0.027
			C101.805,41.902,101.796,45.256,101.786,48.61z"/>
		<path clip-path="url(#SVGID_2_)" fill="#C6C6C6" d="M91.337,19.286c3.481,0,6.962,0,10.442,0c0,3.213,0,6.426,0.003,9.639
			l-0.003-0.004c-0.24,0.223-0.439,0.584-0.748,0.623c-3.311,0.413-6.631,0.963-9.867-0.406c-1.18-3.307-1.465-6.598,0.178-9.854
			L91.337,19.286z"/>
		<path clip-path="url(#SVGID_2_)" fill="#E3E3E3" d="M91.35,28.903c3.478,0.007,6.953,0.013,10.43,0.019
			c-0.012,3.218-0.025,6.436-0.041,9.653c-3.471-0.003-6.94-0.006-10.41-0.009c-0.105-0.07-0.213-0.14-0.319-0.21
			c-1.018-3.085-1.041-6.168,0.019-9.25C91.134,29.037,91.241,28.971,91.35,28.903z"/>
		<path clip-path="url(#SVGID_2_)" fill="#C5C5C5" d="M80.486,67.875c3.617-0.004,7.236-0.008,10.854-0.012
			c-0.004,3.217-0.008,6.438-0.011,9.656c-3.601,0.004-7.198,0.008-10.796,0.014l-0.063-0.064c-0.445-0.42-0.796-0.881-0.846-1.529
			c-0.168-2.191-0.186-4.381,0.012-6.572C79.691,68.742,79.939,68.223,80.486,67.875z"/>
		<path clip-path="url(#SVGID_2_)" fill="#C9C9C9" d="M16.318,87.564c-0.018-3.352-0.037-6.703-0.055-10.057l0.001-0.023
			c0.243-0.221,0.451-0.576,0.758-0.613c3.44-0.42,6.891-0.941,10.261,0.41c1.242,2.373,1.15,8.469-0.156,10.262l-0.037-0.008
			C23.5,87.545,19.908,87.555,16.318,87.564z"/>
		<path clip-path="url(#SVGID_2_)" fill="#B5B5B5" d="M69.65,87.533c-3.455-0.006-6.909-0.012-10.364-0.018
			c0.001,0-0.11,0.023-0.11,0.023c-0.261-0.301-0.662-0.576-0.689-0.957c-0.228-3.088-0.799-6.195,0.443-9.213
			c0.459-0.42,1.01-0.719,1.617-0.721c2.973-0.014,5.988-0.707,8.891,0.508c0.078,0.109,0.152,0.221,0.229,0.33
			C69.66,80.836,69.654,84.184,69.65,87.533z"/>
		<path clip-path="url(#SVGID_2_)" fill="#A7A7A7" d="M80.486,67.875c-0.006,3.199-0.01,6.396-0.016,9.596
			c-3.603,0.006-7.203,0.012-10.806,0.018l0.002,0.014c-0.272-0.283-0.688-0.535-0.72-0.918c-0.249-2.984-0.854-5.998,0.492-8.895
			c0.754-0.635,1.666-0.758,2.603-0.783c1.987-0.057,3.976-0.057,5.962,0.002c0.943,0.025,1.863,0.119,2.494,0.959L80.486,67.875z"
			/>
		<path clip-path="url(#SVGID_2_)" fill="#B8B8B8" d="M16.258,38.545c0.005-3.204,0.012-6.408,0.018-9.611
			c0.368-0.39,0.734-0.812,1.315-0.838c3.123-0.143,6.254-0.537,9.344,0.306c0.241,0.117,0.436,0.286,0.584,0.508
			c1.016,2.371,0.43,4.868,0.567,7.307c0.044,0.798-0.061,1.597-0.065,2.397c0.111,2.458,0.096,4.915,0.055,7.373
			c-0.017,1.004-0.097,1.997-0.787,2.816c-1.07,0.839-2.345,0.753-3.586,0.767c-1.775,0.025-3.551,0.045-5.326-0.041
			c-0.821-0.039-1.552-0.252-2.101-0.902c0,0,0.002-0.069,0.002-0.071C16.271,45.219,16.265,41.882,16.258,38.545z"/>
		<path clip-path="url(#SVGID_2_)" fill="#CFCFCF" d="M91.341,58.227c-3.61,0.004-7.223,0.006-10.835,0.01
			c-0.109-0.072-0.222-0.145-0.333-0.221c-1.008-3.242-1.157-6.473,0.169-9.673c2.735-1.352,5.651-0.543,8.483-0.695
			c0.95-0.051,1.876,0.121,2.536,0.935l-0.02,0.007C91.343,51.799,91.342,55.014,91.341,58.227z"/>
		<path clip-path="url(#SVGID_2_)" fill="#D1D1D1" d="M80.499,67.865c-3.599,0.006-7.194,0.012-10.794,0.018
			c-0.114-0.07-0.229-0.139-0.344-0.207c-1.064-3.244-1.172-6.477,0.134-9.688c2.45-1.342,5.106-0.582,7.671-0.721
			c1.172-0.063,2.445-0.162,3.324,0.949l0.016,0.02C80.504,61.447,80.501,64.656,80.499,67.865z"/>
		<path clip-path="url(#SVGID_2_)" fill="#CDCDCD" d="M27.107,28.921c-3.61,0.004-7.222,0.008-10.833,0.013
			c0-3.221,0.001-6.441,0.001-9.662c3.611,0.004,7.222,0.008,10.832,0.012l-0.01,0.013c0.384,0.374,0.784,0.735,0.843,1.319
			c0.232,2.336,0.246,4.672-0.005,7.007C27.876,28.182,27.598,28.625,27.107,28.921z"/>
		<path clip-path="url(#SVGID_2_)" fill="#E0E0E0" d="M27.107,28.921c-0.003-3.208-0.006-6.417-0.009-9.625
			c3.605-0.001,7.211-0.003,10.817-0.004l0.068-0.019c0.209,0.251,0.554,0.461,0.596,0.77c0.408,3.042,0.922,6.094-0.416,9.056
			c-0.754,0.635-1.666,0.756-2.601,0.782c-1.987,0.054-3.974,0.054-5.96-0.001c-0.943-0.026-1.861-0.124-2.497-0.956L27.107,28.921z
			"/>
		<path clip-path="url(#SVGID_2_)" fill="#F0F0F0" d="M48.396,19.3c3.609-0.001,7.22-0.003,10.831-0.005l-0.012-0.013
			c0.225,0.241,0.584,0.44,0.628,0.753c0.438,3.064,0.871,6.133-0.3,9.147c-3.775,1.105-7.549,1.198-11.318-0.018
			c-1.272-2.388-1.177-8.119,0.165-9.874L48.396,19.3z"/>
		<path clip-path="url(#SVGID_2_)" fill="#CACACA" d="M59.202,28.914c0.004-3.21,0.008-6.421,0.013-9.632
			c3.479-0.004,6.957-0.009,10.436-0.014c0.004,3.217,0.009,6.435,0.012,9.652c0.271,0.286,0.684,0.54,0.715,0.92
			c0.243,2.985,0.855,5.997-0.498,8.893c-0.584,0.48-1.271,0.76-2.01,0.733c-2.944-0.111-5.965,0.724-8.811-0.673
			C57.842,35.482,57.615,32.185,59.202,28.914z"/>
		<path clip-path="url(#SVGID_2_)" fill="#DADADA" d="M91.342,19.285c0.004,3.206,0.006,6.412,0.008,9.618l-0.015,0.039
			c-0.249,0.213-0.438,0.579-0.755,0.618c-3.311,0.41-6.629,0.881-9.889-0.319c-0.071-0.111-0.144-0.222-0.213-0.333
			c0.008-3.204,0.017-6.408,0.025-9.612C84.117,19.291,87.729,19.288,91.342,19.285z"/>
		<path clip-path="url(#SVGID_2_)" fill="#D5D5D5" d="M69.66,38.556c0-3.211,0.001-6.423,0.001-9.635
			c3.604-0.004,7.211-0.008,10.817-0.013l0.043,0.027c0.379,0.376,0.789,0.747,0.815,1.326c0.134,2.715,0.502,5.44-0.313,8.12
			c-0.112,0.24-0.279,0.435-0.498,0.584c-3.561,0.848-7.112,1.051-10.655-0.081C69.801,38.774,69.73,38.665,69.66,38.556z"/>
		<path clip-path="url(#SVGID_2_)" fill="#E9E9E9" d="M16.276,67.854c0.004-3.215,0.008-6.428,0.012-9.643
			c0.245-0.227,0.448-0.592,0.767-0.625c3.431-0.379,6.876-0.965,10.233,0.432c1.277,3.33,1.2,6.666,0.057,10.008
			c-0.753,0.639-1.664,0.771-2.603,0.797c-1.991,0.053-3.982,0.053-5.973-0.002c-0.945-0.025-1.866-0.123-2.504-0.955L16.276,67.854
			z"/>
		<path clip-path="url(#SVGID_2_)" fill="#FEFEFE" d="M27.116,58.236c-3.61-0.01-7.219-0.018-10.828-0.025
			c-0.004-3.195-0.009-6.391-0.013-9.584c3.609-0.013,7.219-0.023,10.828-0.034c0.108,0.066,0.215,0.134,0.323,0.201
			c1.052,3.075,1.034,6.153,0.01,9.235C27.329,58.098,27.223,58.166,27.116,58.236z"/>
		<path clip-path="url(#SVGID_2_)" fill="#C5C5C5" d="M16.265,67.865c3.614,0,7.229,0,10.843-0.002
			c0.107,0.068,0.215,0.135,0.322,0.203c1.038,3.078,1.044,6.152-0.003,9.23c-0.107,0.066-0.215,0.133-0.323,0.199
			c-3.613-0.004-7.226-0.006-10.84-0.01C16.265,74.279,16.265,71.072,16.265,67.865z"/>
		<path clip-path="url(#SVGID_2_)" fill="#C5C5C5" d="M48.39,19.29c-0.008,3.207-0.017,6.414-0.026,9.62
			c-0.066,0.109-0.13,0.219-0.196,0.328c-0.691,0.655-1.582,0.687-2.426,0.636c-2.532-0.155-5.146,0.625-7.586-0.628
			c-0.068-0.108-0.135-0.216-0.203-0.324c0.01-3.216,0.02-6.431,0.03-9.647C41.452,19.279,44.921,19.285,48.39,19.29z"/>
		<path clip-path="url(#SVGID_2_)" fill="#FEFEFE" d="M59.229,77.498c-0.018,3.348-0.033,6.695-0.053,10.041
			c-3.584-0.01-7.169-0.021-10.75-0.031c0.001,0-0.061,0.035-0.061,0.035c-0.273-0.291-0.68-0.568-0.709-0.943
			c-0.238-3.092-0.804-6.207,0.437-9.229c0.56-0.514,1.24-0.736,1.978-0.777c2.431-0.141,4.863-0.125,7.295-0.012
			c0.602,0.029,1.174,0.164,1.641,0.582C59.078,77.275,59.152,77.387,59.229,77.498z"/>
		<path clip-path="url(#SVGID_2_)" fill="#BBBBBB" d="M48.464,77.508c-0.033,3.344-0.067,6.688-0.1,10.035
			c-3.468-0.006-6.937-0.01-10.404-0.016l-0.026,0.016c-0.438-0.42-0.831-0.873-0.852-1.521c-0.09-2.775-0.467-5.563,0.317-8.305
			c0.101-0.242,0.254-0.443,0.461-0.605c3.351-0.977,6.718-0.816,10.093-0.148C48.177,77.094,48.348,77.273,48.464,77.508z"/>
		<path clip-path="url(#SVGID_2_)" fill="#D8D8D8" d="M37.902,77.498c0.011,3.35,0.021,6.695,0.032,10.045
			c-3.602,0-7.204,0-10.806,0c-0.008-3.35-0.016-6.697-0.023-10.047L27.11,77.5C28.998,76.066,36.083,76.064,37.902,77.498z"/>
		<path clip-path="url(#SVGID_2_)" fill="#C5C5C5" d="M91.361,48.582c-3.629,0.009-7.256,0.018-10.883,0.025
			c-0.106-0.075-0.215-0.149-0.322-0.225c-0.871-3.308-1.357-6.602,0.354-9.816l-0.009-0.009c0.418-0.446,0.866-0.822,1.521-0.869
			c2.602-0.188,5.201-0.189,7.803,0.001c0.654,0.048,1.103,0.424,1.513,0.878l-0.01-0.003C91.338,41.904,91.35,45.242,91.361,48.582
			z"/>
		<path clip-path="url(#SVGID_2_)" fill="#EFEFEF" d="M91.337,38.569c-3.61-0.003-7.224-0.008-10.836-0.011
			c0.006-3.208,0.015-6.416,0.021-9.623c3.604,0.002,7.209,0.004,10.813,0.006C91.336,32.151,91.336,35.36,91.337,38.569z"/>
		<path clip-path="url(#SVGID_2_)" fill="#DDDDDD" d="M69.705,67.883c-0.014,3.205-0.025,6.412-0.037,9.617
			c-3.48-0.002-6.961-0.002-10.439-0.002l-0.03,0.021c-0.267-0.289-0.664-0.572-0.692-0.938c-0.24-2.982-0.843-5.992,0.488-8.889
			c2.251-1.424,4.755-0.662,7.148-0.787c1.215-0.063,2.553-0.223,3.478,0.943L69.705,67.883z"/>
		<path clip-path="url(#SVGID_2_)" fill="#FEFEFE" d="M27.104,48.593c0.01-3.332,0.019-6.664,0.028-9.995
			c0.347-0.402,0.697-0.828,1.273-0.856c3.142-0.155,6.293-0.568,9.401,0.317c0.242,0.125,0.435,0.303,0.578,0.535
			c0.762,3.428,1.111,6.846-0.26,10.218c-2.334,1.357-4.893,0.617-7.351,0.738c-1.274,0.063-2.679,0.258-3.664-0.952L27.104,48.593z
			"/>
		<path clip-path="url(#SVGID_2_)" fill="#CBCBCB" d="M37.955,38.567c-3.608,0.01-7.215,0.021-10.823,0.031
			c-0.009-3.225-0.018-6.45-0.026-9.674c3.616-0.001,7.231-0.002,10.847-0.002l-0.009-0.003c0.364,0.376,0.769,0.727,0.829,1.298
			c0.246,2.359,0.259,4.718-0.005,7.076C38.707,37.836,38.425,38.269,37.955,38.567z"/>
		<path clip-path="url(#SVGID_2_)" fill="#9F9F9F" d="M80.49,58.217c-3.609,0.004-7.219,0.008-10.829,0.01
			c-0.106-0.066-0.216-0.135-0.323-0.203c-1.14-3.105-0.872-6.229-0.135-9.361c0.133-0.231,0.316-0.411,0.551-0.54
			c3.117-0.937,6.286-0.484,9.441-0.348c0.578,0.025,0.935,0.455,1.301,0.837l-0.018-0.003
			C80.482,51.809,80.486,55.012,80.49,58.217z"/>
		<path clip-path="url(#SVGID_2_)" fill="#E8E8E8" d="M69.619,67.85c-3.461,0.004-6.922,0.008-10.385,0.01
			c-0.112-0.07-0.225-0.143-0.336-0.215c-1.017-3.242-1.162-6.467,0.164-9.67c2.531-1.184,8.867-1.037,10.608,0.242l-0.011,0.01
			C69.648,61.434,69.634,64.643,69.619,67.85z"/>
		<path clip-path="url(#SVGID_2_)" fill="#E6E6E6" d="M59.202,28.914c0.005,3.215,0.009,6.43,0.014,9.644
			c-0.067,0.108-0.137,0.216-0.206,0.324c-0.463,0.439-1.045,0.6-1.648,0.59c-2.971-0.048-5.971,0.527-8.892-0.445
			c-0.233-0.131-0.415-0.313-0.547-0.546c-0.917-2.717-0.501-5.494-0.361-8.256c0.029-0.575,0.457-0.934,0.823-1.315
			c0,0-0.019,0.001-0.02,0C51.977,28.912,55.589,28.913,59.202,28.914z"/>
		<path clip-path="url(#SVGID_2_)" fill="#DDDDDD" d="M59.216,38.558c3.481,0,6.964-0.001,10.444-0.002l-0.001,0.005
			c0.446,0.415,0.819,0.863,0.87,1.518c0.183,2.333,0.183,4.664,0,6.996c-0.051,0.655-0.426,1.102-0.866,1.521l0.019,0.017
			c-0.246,0.217-0.463,0.563-0.768,0.602c-3.309,0.414-6.631,0.963-9.868-0.402c-1.254-2.396-1.147-8.502,0.179-10.26L59.216,38.558
			z"/>
		<path clip-path="url(#SVGID_2_)" fill="#D8D8D8" d="M69.663,48.597c-0.002-3.345-0.003-6.689-0.004-10.036
			c3.616,0.002,7.233,0.003,10.851,0.005c-0.004,3.348-0.009,6.695-0.014,10.043C76.887,48.606,73.273,48.602,69.663,48.597z"/>
		<path clip-path="url(#SVGID_2_)" fill="#BEBEBE" d="M27.108,67.863c0.003-3.209,0.005-6.418,0.008-9.627l-0.004-0.002
			c0.285-0.277,0.538-0.699,0.926-0.729c3.356-0.258,6.73-0.822,10.025,0.418c0.85,0.918,0.876,2.078,0.848,3.213
			c-0.055,2.191,0.357,4.42-0.453,6.561c-0.122,0.244-0.297,0.441-0.527,0.59c-3.198,1.025-6.455,0.549-9.698,0.355
			c-0.503-0.031-0.786-0.469-1.124-0.785L27.108,67.863z"/>
		<path clip-path="url(#SVGID_2_)" fill="#EBEBEB" d="M37.939,58.213c-3.609,0.008-7.218,0.016-10.828,0.021
			c-0.001-3.213-0.001-6.426-0.003-9.638c3.592,0,7.185,0,10.777,0c0.113,0.059,0.225,0.118,0.338,0.178
			c1.13,3.073,1.067,6.153,0.041,9.239C38.157,58.078,38.048,58.146,37.939,58.213z"/>
		<path clip-path="url(#SVGID_2_)" fill="#D1D1D1" d="M27.109,67.857c3.618,0.004,7.235,0.008,10.853,0.014
			c0.472,0.307,0.753,0.742,0.813,1.299c0.253,2.324,0.234,4.652,0.011,6.979c-0.056,0.58-0.445,0.951-0.802,1.344
			c0,0-0.081,0.008-0.082,0.008c-3.598,0-7.195,0.002-10.793,0.002C27.109,74.287,27.109,71.072,27.109,67.857z"/>
		<path clip-path="url(#SVGID_2_)" fill="#FEFEFE" d="M48.383,28.91c0.001,3.201,0.001,6.402,0.002,9.603
			c-0.204,0.173,0.111,0.008-0.103,0.169c-1.753,1.317-8.561,1.228-10.346-0.135l0.02,0.02c-0.004-3.216-0.008-6.433-0.012-9.649
			C41.423,28.915,44.903,28.912,48.383,28.91z"/>
		<path clip-path="url(#SVGID_2_)" fill="#DEDEDE" d="M59.234,67.859c-0.012,3.221-0.024,6.441-0.037,9.66
			c-3.578-0.004-7.156-0.008-10.733-0.014l-0.161-0.014c-0.319-0.42-0.743-0.793-0.751-1.373c-0.038-2.83-0.758-5.713,0.621-8.438
			c0.753-0.633,1.664-0.752,2.597-0.777c1.983-0.055,3.969-0.055,5.951,0.002c0.94,0.027,1.86,0.115,2.493,0.953H59.234z"/>
		<path clip-path="url(#SVGID_2_)" fill="#A0A0A0" d="M48.371,67.865c-0.022,3.209-0.045,6.418-0.067,9.627c-3.44,0-6.88,0-10.32,0
			c-0.007-3.207-0.015-6.416-0.022-9.623c0,0.002-0.01,0.012-0.01,0.012c0.24-0.223,0.421-0.59,0.737-0.635
			c3.17-0.447,6.347-0.896,9.469,0.287C48.228,67.643,48.299,67.756,48.371,67.865z"/>
		<path clip-path="url(#SVGID_2_)" fill="#CBCBCB" d="M37.936,38.547c3.483-0.011,6.966-0.022,10.449-0.034l-0.006,0.09
			c0.236,0.234,0.604,0.424,0.643,0.747c0.393,3.161,0.929,6.335-0.416,9.419c-2.25,1.412-4.75,0.656-7.141,0.777
			c-1.209,0.061-2.555,0.242-3.46-0.954l-0.117,0.004C37.903,45.246,37.919,41.897,37.936,38.547z"/>
		<path clip-path="url(#SVGID_2_)" fill="#C9C9C9" d="M59.225,48.595c3.485,0.007,6.971,0.013,10.457,0.02
			c-0.002,3.2-0.006,6.401-0.01,9.603c-3.48,0.004-6.964,0.008-10.445,0.012c-0.106-0.068-0.215-0.135-0.322-0.201
			c-1.047-3.078-1.045-6.154-0.002-9.23C59.01,48.729,59.116,48.66,59.225,48.595z"/>
		<path clip-path="url(#SVGID_2_)" fill="#B7B7B7" d="M59.215,67.859c-3.615,0.002-7.23,0.004-10.844,0.006l0.01,0.018
			c-0.361-0.383-0.786-0.738-0.818-1.309c-0.159-2.746-0.526-5.502,0.324-8.209c0.124-0.24,0.301-0.432,0.53-0.574
			c3.192-0.998,6.44-0.541,9.679-0.342c0.502,0.031,0.782,0.467,1.114,0.789l0.017-0.01C59.223,61.438,59.218,64.648,59.215,67.859z
			"/>
		<path clip-path="url(#SVGID_2_)" fill="#C6C6C6" d="M48.384,48.597c-0.001-3.333-0.003-6.664-0.004-9.995
			c3.613-0.017,7.229-0.034,10.845-0.052c0,3.348,0,6.695,0,10.042l-0.004,0.002c-0.246,0.215-0.432,0.581-0.746,0.622
			c-3.307,0.436-6.617,0.877-9.873-0.294C48.529,48.814,48.457,48.707,48.384,48.597z"/>
		<path clip-path="url(#SVGID_2_)" fill="#CFCFCF" d="M48.389,58.227c-0.004,3.219-0.006,6.438-0.008,9.654
			c-3.477,0-6.953,0-10.429,0c-0.004-3.225-0.008-6.447-0.012-9.668c0-0.002-0.008,0.01-0.008,0.01
			c0.384-0.355,0.736-0.766,1.308-0.82c2.625-0.256,5.252-0.264,7.876,0.002C47.662,57.461,48.097,57.746,48.389,58.227z"/>
		<path clip-path="url(#SVGID_2_)" fill="#BCBCBC" d="M48.389,58.227c-3.486,0-6.972-0.002-10.458-0.004
			c0.024-3.211,0.048-6.422,0.073-9.63c3.46,0,6.92,0.002,10.38,0.004h-0.001c0.445,0.411,0.815,0.86,0.868,1.517
			c0.179,2.199,0.181,4.396,0,6.598c-0.053,0.652-0.425,1.102-0.867,1.521L48.389,58.227z"/>
		<path clip-path="url(#SVGID_2_)" fill="#CACACA" d="M48.384,58.232c0-3.213-0.001-6.428-0.001-9.636
			c3.611,0,7.225-0.002,10.838-0.002c-0.004,3.214-0.008,6.427-0.011,9.644C55.6,58.236,51.991,58.232,48.384,58.232z"/>
	</g>
</g>
<g id="Layer_1">
	<g id="Layer_1_1_">
	</g>
</g>
<g id="Cross">
	<g>
		<path d="M52.229,25.041v18.815h18.039v8.113H52.229v18.989h-8.459V51.97H25.731v-8.113h18.039V25.041H52.229z"/>
	</g>
</g>
</svg>
