<?xml version="1.0" encoding="utf-8"?>
<!-- Generator: Adobe Illustrator 16.0.3, SVG Export Plug-In . SVG Version: 6.00 Build 0)  -->
<!DOCTYPE svg PUBLIC "-//W3C//DTD SVG 1.1//EN" "http://www.w3.org/Graphics/SVG/1.1/DTD/svg11.dtd">
<svg version="1.1" id="Layer_1" xmlns="http://www.w3.org/2000/svg" xmlns:xlink="http://www.w3.org/1999/xlink" x="0px" y="0px"
	 width="96px" height="96px" viewBox="0 0 96 96" enable-background="new 0 0 96 96" xml:space="preserve">
<g id="Layer_1_1_">
</g>
<path fill="none" stroke="#000000" stroke-width="0.1" stroke-miterlimit="10" d="M95.801,48.098
	c0,26.498-21.49,47.988-47.996,47.988c-26.509,0-48-21.49-48-47.988c0-26.507,21.49-47.998,48-47.998
	C74.311,0.1,95.801,21.59,95.801,48.098z"/>
<path fill-rule="evenodd" clip-rule="evenodd" fill="#C3C3C3" d="M101.786-0.369c-0.002,3.193-0.004,6.386-0.007,9.58
	c-0.071,0.111-0.145,0.223-0.218,0.334c-2.324,1.237-4.83,0.472-7.249,0.632c-1.124,0.074-2.277,0.008-3.216-0.796
	c-1.021-3.292-1.45-6.567,0.229-9.795c0,0,0.033-0.015,0.033-0.016C94.834-0.411,98.311-0.39,101.786-0.369z"/>
<path fill-rule="evenodd" clip-rule="evenodd" fill="#D7D7D7" d="M91.365,97.154c-3.621-0.005-7.242-0.01-10.863-0.015l-0.011,0.009
	c-0.269-0.286-0.676-0.551-0.707-0.927c-0.244-2.982-0.843-5.991,0.488-8.888c0.476-0.367,0.995-0.681,1.604-0.684
	c3.2-0.009,6.441-0.721,9.569,0.542c0.797,0.833,0.901,1.902,0.849,2.949c-0.116,2.266,0.546,4.604-0.604,6.776
	C91.581,96.996,91.474,97.075,91.365,97.154z"/>
<path fill-rule="evenodd" clip-rule="evenodd" fill="#FEFEFE" d="M16.232,97.107c-3.469,0.016-6.937,0.031-10.405,0.048l0.01-0.036
	c-0.388-0.359-0.805-0.713-0.835-1.287c-0.147-2.741-0.529-5.496,0.334-8.198c0.126-0.241,0.306-0.431,0.539-0.572
	c3.558-0.746,7.106-1.121,10.611,0.267c1.094,3.298,1.439,6.578-0.214,9.813L16.232,97.107z"/>
<path fill-rule="evenodd" clip-rule="evenodd" fill="#D2D2D2" d="M80.511,87.496c-0.006,3.218-0.012,6.435-0.02,9.652
	c-3.616,0.001-7.233,0.002-10.852,0.003c-0.107-0.075-0.215-0.15-0.324-0.226c-0.991-3.218-1.098-6.421,0.131-9.608
	c0.588-0.479,1.277-0.752,2.021-0.726c2.945,0.101,5.95-0.667,8.82,0.575C80.361,87.277,80.437,87.387,80.511,87.496z"/>
<path fill-rule="evenodd" clip-rule="evenodd" fill="#D2D2D2" d="M-5.003,87.508c-0.002-3.349-0.005-6.698-0.008-10.046
	c0-0.001-0.013,0-0.013,0c0.244-0.22,0.45-0.577,0.757-0.615c3.443-0.435,6.896-0.943,10.27,0.4
	c1.264,2.411,1.154,8.518-0.185,10.247l0.012,0.015c-0.421,0.441-0.87,0.818-1.524,0.865c-2.602,0.186-5.202,0.188-7.803-0.003
	c-0.656-0.049-1.103-0.426-1.517-0.877L-5.003,87.508z"/>
<path fill-rule="evenodd" clip-rule="evenodd" fill="#CACACA" d="M-4.996,19.246c-0.005-3.341-0.011-6.682-0.016-10.022
	l-0.014-0.026c0.385-0.357,0.744-0.784,1.315-0.809c3.14-0.133,6.292-0.56,9.397,0.328C5.929,8.841,6.121,9.019,6.265,9.25
	c0.762,3.429,1.112,6.847-0.26,10.221c-1.533,1.086-3.298,0.702-4.984,0.762c-1.381,0.049-2.767,0.033-4.15-0.063
	c-0.767-0.053-1.4-0.323-1.877-0.936L-4.996,19.246z"/>
<path fill-rule="evenodd" clip-rule="evenodd" fill="#C9C9C9" d="M-5.041,48.554c0.01-3.347,0.02-6.693,0.03-10.04
	c0.001,0-0.012,0.013-0.012,0.013c0.243-0.222,0.444-0.582,0.753-0.622c3.444-0.439,6.897-0.947,10.273,0.399
	c1.315,3.464,1.187,6.937,0.069,10.417c-0.75,0.641-1.66,0.771-2.598,0.798c-1.987,0.056-3.975,0.057-5.962,0
	c-0.94-0.027-1.867-0.104-2.498-0.95L-5.041,48.554z"/>
<path fill-rule="evenodd" clip-rule="evenodd" fill="#EEEEEE" d="M101.772,97.161c-3.476-0.001-6.951-0.004-10.428-0.005
	c0.001-3.216,0.002-6.432,0.003-9.648c0.071-0.11,0.143-0.222,0.214-0.331c2.317-1.111,8.571-0.92,10.222,0.313
	c0,0-0.021,0.043-0.021,0.044C101.765,90.743,101.769,93.951,101.772,97.161z"/>
<path fill-rule="evenodd" clip-rule="evenodd" fill="#C2C2C2" d="M101.805,58.182c-0.006,3.219-0.011,6.437-0.017,9.656
	l-0.014-0.008c-0.239,0.225-0.437,0.588-0.747,0.627c-3.308,0.409-6.629,0.963-9.863-0.41c-1.286-3.329-1.201-6.667-0.063-10.011
	c1.057-0.888,2.344-0.801,3.595-0.819c1.657-0.023,3.315-0.04,4.973,0.043c0.827,0.042,1.569,0.246,2.1,0.937L101.805,58.182z"/>
<path fill-rule="evenodd" clip-rule="evenodd" fill="#CFCFCF" d="M5.825,9.21C2.208,9.206-1.408,9.202-5.025,9.197
	c0.012-3.213,0.024-6.426,0.036-9.64C-1.383-0.446,2.222-0.45,5.828-0.454c0,0-0.005,0.07-0.005,0.07
	c0.399,0.361,0.785,0.73,0.842,1.312C6.893,3.259,6.91,5.59,6.657,7.919C6.596,8.477,6.318,8.919,5.825,9.21z"/>
<path fill-rule="evenodd" clip-rule="evenodd" fill="#CACACA" d="M16.276-0.417c3.606-0.019,7.212-0.036,10.818-0.055
	c0,0,0.024,0.101,0.024,0.101c0.286,0.275,0.689,0.534,0.721,0.925c0.238,2.948,0.791,5.919-0.442,8.794
	c-0.348,0.329-0.763,0.602-1.225,0.637c-3.252,0.249-6.51,0.593-9.734-0.254c-0.246-0.12-0.442-0.295-0.59-0.523
	c-0.688-3.249-1.304-6.495,0.392-9.646L16.276-0.417z"/>
<path fill-rule="evenodd" clip-rule="evenodd" fill="#E3E3E3" d="M27.1,9.198c0.006-3.19,0.012-6.38,0.019-9.569
	c3.614-0.017,7.229-0.034,10.843-0.051l-0.01-0.019c0.268,0.295,0.68,0.559,0.714,0.943c0.263,2.963,0.8,5.948-0.426,8.841
	c-0.505,0.464-1.115,0.709-1.785,0.755c-2.565,0.178-5.132,0.161-7.699,0.012c-0.538-0.031-1.031-0.203-1.44-0.573
	C27.244,9.423,27.171,9.311,27.1,9.198z"/>
<path fill-rule="evenodd" clip-rule="evenodd" fill="#C7C7C7" d="M48.365-0.44c3.618-0.005,7.238-0.011,10.858-0.016
	c0,0,0.007,0.069,0.007,0.069c0.23,0.24,0.591,0.438,0.633,0.76c0.404,3.032,0.905,6.075-0.431,9.024
	c-0.48,0.371-1.008,0.681-1.619,0.675c-3.21-0.027-6.477,0.793-9.594-0.621c-1.263-2.388-1.167-8.11,0.167-9.867L48.365-0.44z"/>
<path fill-rule="evenodd" clip-rule="evenodd" fill="#C9C9C9" d="M69.68-0.485c3.601,0.02,7.202,0.04,10.804,0.059
	c-0.001,0,0.038,0.005,0.038,0.005c0.216,0.246,0.567,0.447,0.609,0.757c0.412,3.041,0.923,6.093-0.412,9.056
	c-0.479,0.37-1.006,0.683-1.616,0.679c-3.21-0.019-6.475,0.779-9.598-0.605c-1.257-2.334-1.179-8.062,0.135-9.826L69.68-0.485z"/>
<path fill-rule="evenodd" clip-rule="evenodd" fill="#C5C5C5" d="M80.501,9.215c0.006-3.212,0.014-6.424,0.021-9.636
	c3.602,0.002,7.202,0.004,10.804,0.005c0.005,3.212,0.011,6.422,0.017,9.634c-0.068,0.107-0.138,0.215-0.206,0.323
	c-0.577,0.543-1.315,0.655-2.038,0.613c-2.8-0.165-5.676,0.674-8.392-0.615C80.638,9.431,80.569,9.323,80.501,9.215z"/>
<path fill-rule="evenodd" clip-rule="evenodd" fill="#FBFBFB" d="M-5.006,19.234c3.612,0.005,7.225,0.01,10.838,0.015
	c0.11,0.075,0.222,0.15,0.333,0.225c0.994,3.259,1.12,6.51-0.084,9.75c-3.281,1.167-6.64,0.622-9.98,0.442
	c-0.484-0.026-0.778-0.464-1.119-0.771l0.003-0.001C-5.013,25.674-5.01,22.454-5.006,19.234z"/>
<path fill-rule="evenodd" clip-rule="evenodd" fill="#E6E6E6" d="M-5.02,28.895c3.611-0.006,7.223-0.014,10.835-0.021
	c0.307,0.146,0.64,0.338,0.681,0.674c0.357,2.936,0.836,5.882-0.334,8.761c-0.11,0.074-0.221,0.147-0.33,0.221
	c-3.619-0.001-7.237-0.002-10.855-0.003C-5.021,35.316-5.021,32.105-5.02,28.895z"/>
<path fill-rule="evenodd" clip-rule="evenodd" fill="#B8B8B8" d="M-4.985,48.568c3.604-0.001,7.207-0.002,10.812-0.002
	c0.112,0.074,0.223,0.146,0.335,0.221c0.98,3.257,1.138,6.507-0.081,9.746c-3.281,1.166-6.64,0.622-9.98,0.44
	c-0.489-0.027-0.775-0.467-1.106-0.784l-0.004,0.007C-5.001,54.986-4.993,51.777-4.985,48.568z"/>
<path fill-rule="evenodd" clip-rule="evenodd" fill="#CDCDCD" d="M-5.005,58.189c3.61-0.001,7.219-0.001,10.829-0.001
	c0.301,0.155,0.629,0.36,0.666,0.689c0.342,3.063,0.901,6.141-0.434,9.124c-0.754,0.637-1.665,0.763-2.602,0.789
	c-1.988,0.054-3.977,0.054-5.966-0.002c-0.943-0.026-1.864-0.119-2.499-0.956c0,0-0.006,0.002-0.006,0.004
	C-5.013,64.621-5.009,61.405-5.005,58.189z"/>
<path fill-rule="evenodd" clip-rule="evenodd" fill="#E3E3E3" d="M-5.011,67.833c3.611,0.002,7.221,0.006,10.832,0.01
	c0.108,0.065,0.216,0.132,0.324,0.198c1.057,3.073,1.038,6.146,0.009,9.223c-0.107,0.068-0.214,0.136-0.322,0.204
	c-3.619-0.002-7.238-0.003-10.857-0.006C-5.019,74.252-5.015,71.043-5.011,67.833z"/>
<path fill-rule="evenodd" clip-rule="evenodd" fill="#F5F5F5" d="M-5.013,87.494c3.615,0.004,7.229,0.011,10.844,0.015
	c0.002,3.204,0.004,6.408,0.006,9.611c-3.607,0.004-7.214,0.008-10.821,0.013C-4.993,93.92-5.003,90.707-5.013,87.494z"/>
<path fill-rule="evenodd" clip-rule="evenodd" fill="#CACACA" d="M48.387-0.417c-0.001,3.211-0.002,6.422-0.002,9.633
	c-0.067,0.108-0.136,0.216-0.205,0.323c-0.826,0.73-1.862,0.697-2.834,0.635c-2.408-0.154-4.901,0.599-7.216-0.624
	c-0.071-0.105-0.143-0.211-0.215-0.317c0.013-3.224,0.025-6.449,0.038-9.673C41.431-0.433,44.909-0.425,48.387-0.417z"/>
<path fill-rule="evenodd" clip-rule="evenodd" fill="#CDCDCD" d="M16.241-0.438c0.003,3.223,0.006,6.446,0.01,9.669
	c-0.25,0.427-0.642,0.723-1.103,0.775c-2.726,0.312-5.458,0.318-8.186-0.001c-0.499-0.059-0.789-0.47-1.13-0.784L5.825,9.21
	c0-3.198-0.001-6.397-0.002-9.595C9.295-0.402,12.768-0.42,16.241-0.438z"/>
<path fill-rule="evenodd" clip-rule="evenodd" fill="#A7A7A7" d="M69.64-0.36c0,3.188,0,6.374,0,9.561
	c-0.065,0.11-0.13,0.219-0.196,0.328c-2.095,1.213-4.389,0.528-6.592,0.646c-1.156,0.062-2.404,0.219-3.412-0.655
	c-0.064-0.111-0.127-0.222-0.19-0.332c-0.007-3.192-0.013-6.385-0.019-9.577C62.701-0.378,66.17-0.369,69.64-0.36z"/>
<path fill-rule="evenodd" clip-rule="evenodd" fill="#D0D0D0" d="M101.779,9.221c0,3.344,0,6.688,0,10.031l0,0
	c-0.24,0.223-0.44,0.584-0.749,0.623c-3.309,0.413-6.63,0.962-9.866-0.405c-1.254-2.397-1.148-8.506,0.179-10.254l-0.001,0.002
	C94.821,9.219,98.3,9.22,101.779,9.221z"/>
<path fill-rule="evenodd" clip-rule="evenodd" fill="#E6E6E6" d="M91.348,87.508c-3.613-0.003-7.225-0.007-10.837-0.012
	l-0.012,0.009c-0.223-0.241-0.58-0.441-0.622-0.751c-0.438-3.178-0.923-6.364,0.415-9.467c0.48-0.371,1.012-0.673,1.625-0.678
	c3.239-0.023,6.514-0.665,9.684,0.539c0.731,0.666,0.653,1.577,0.689,2.428c0.078,1.869,0.066,3.74-0.001,5.611
	c-0.032,0.893-0.185,1.73-0.949,2.32H91.348z"/>
<path fill-rule="evenodd" clip-rule="evenodd" fill="#B5B5B5" d="M16.271,97.142c-0.013-3.215-0.025-6.433-0.038-9.647
	c0.076-0.109,0.152-0.219,0.229-0.328c2.06-1.164,4.305-0.533,6.466-0.623c1.502-0.063,3.094-0.271,4.42,0.796
	c1.032,3.3,1.431,6.585-0.208,9.827l-0.052-0.036C23.482,97.134,19.876,97.139,16.271,97.142z"/>
<path fill-rule="evenodd" clip-rule="evenodd" fill="#E8E8E8" d="M5.818,87.494c0.004-3.343,0.01-6.685,0.015-10.026l-0.008,0.004
	c0.241-0.223,0.439-0.585,0.749-0.625c3.31-0.417,6.631-0.963,9.869,0.403c1.166,3.442,1.46,6.875-0.125,10.283l-0.085-0.039
	C12.761,87.494,9.29,87.494,5.818,87.494z"/>
<path fill-rule="evenodd" clip-rule="evenodd" fill="#C5C5C5" d="M80.533,77.502c-0.011,3.334-0.022,6.668-0.034,10.003
	c-3.61,0.001-7.219,0.002-10.828,0.003c-0.111-0.071-0.223-0.144-0.334-0.214c-1.017-3.35-1.128-6.69,0.114-10.015
	c0.59-0.481,1.283-0.754,2.027-0.725c2.954,0.113,5.974-0.694,8.844,0.607C80.394,77.275,80.463,77.389,80.533,77.502z"/>
<path fill-rule="evenodd" clip-rule="evenodd" fill="#BDBDBD" d="M69.656,97.159c-3.477-0.009-6.953-0.018-10.431-0.024l0.019-0.013
	c-0.278-0.275-0.7-0.513-0.733-0.902c-0.25-2.984-0.855-5.995,0.493-8.892c2.258-1.414,4.766-0.653,7.164-0.781
	c1.219-0.063,2.558-0.211,3.482,0.955l0.021,0.006C69.666,90.725,69.661,93.941,69.656,97.159z"/>
<path fill-rule="evenodd" clip-rule="evenodd" fill="#B5B5B5" d="M5.832,9.221c3.473,0.003,6.946,0.006,10.419,0.01l0.017-0.015
	c0.223,0.241,0.579,0.44,0.622,0.75c0.442,3.177,0.917,6.362-0.407,9.464c-2.26,1.414-4.77,0.65-7.169,0.782
	c-1.227,0.068-2.556,0.185-3.498-0.945l0.016-0.018C5.832,15.906,5.832,12.564,5.832,9.221z"/>
<path fill-rule="evenodd" clip-rule="evenodd" fill="#C1C1C1" d="M5.827,48.566C5.828,45.22,5.83,41.875,5.832,38.53
	c0,0-0.011-0.016-0.011-0.016c0.342-0.307,0.639-0.744,1.123-0.77c3.213-0.174,6.45-0.726,9.597,0.473
	c0.378,0.325,0.572,0.756,0.573,1.235c0.012,3.102,0.75,6.252-0.6,9.265c-1.187,0.98-2.62,0.8-3.998,0.825
	c-1.594,0.027-3.188,0.042-4.782-0.061c-0.773-0.049-1.414-0.32-1.909-0.92L5.827,48.566z"/>
<path fill-rule="evenodd" clip-rule="evenodd" fill="#BCBCBC" d="M91.34,87.508c-0.004-3.339-0.008-6.679-0.011-10.019
	c-0.21-0.252-0.564-0.445-0.611-0.76c-0.44-2.909-0.871-5.824,0.294-8.681c0.108-0.072,0.219-0.145,0.329-0.216
	c3.478-0.001,6.956-0.001,10.434-0.003c0.004,3.21,0.009,6.42,0.012,9.629c-0.001,3.344-0.002,6.688-0.003,10.032
	C98.302,87.496,94.821,87.502,91.34,87.508z"/>
<path fill-rule="evenodd" clip-rule="evenodd" fill="#A9A9A9" d="M101.768,58.196c-3.472-0.004-6.943-0.008-10.415-0.012
	c-0.112-0.072-0.224-0.143-0.336-0.215c-1.015-3.239-1.164-6.465,0.169-9.665c2.562-1.191,8.904-1.028,10.601,0.272l-0.019-0.018
	C101.768,51.772,101.768,54.984,101.768,58.196z"/>
<path fill-rule="evenodd" clip-rule="evenodd" fill="#CDCDCD" d="M91.353,58.185c-0.003,3.216-0.007,6.433-0.012,9.648l-0.001-0.001
	c-0.371,0.372-0.727,0.8-1.301,0.824c-3.139,0.141-6.29,0.563-9.396-0.324c-0.243-0.124-0.435-0.302-0.578-0.534
	c-0.746-3.296-1.118-6.582,0.26-9.821c2.336-1.354,4.895-0.617,7.353-0.738c1.274-0.062,2.68-0.254,3.663,0.958L91.353,58.185z"/>
<path fill-rule="evenodd" clip-rule="evenodd" fill="#ECECEC" d="M16.271,19.252c-0.001-3.345-0.002-6.69-0.003-10.036
	c3.61-0.005,7.221-0.011,10.832-0.018c0,0,0.011,0.035,0.011,0.035c0.276,0.286,0.692,0.535,0.724,0.929
	c0.242,3.089,0.805,6.2-0.437,9.221c-0.514,0.471-1.135,0.713-1.816,0.759c-2.539,0.169-5.08,0.151-7.619,0.012
	c-0.546-0.029-1.051-0.191-1.469-0.566C16.419,19.475,16.346,19.364,16.271,19.252z"/>
<path fill-rule="evenodd" clip-rule="evenodd" fill="#F2F2F2" d="M27.108,19.249c0-3.338,0.002-6.677,0.002-10.016
	c3.601,0,7.203,0,10.804,0c0,0,0.051-0.022,0.051-0.022c0.273,0.291,0.682,0.566,0.71,0.943c0.239,3.091,0.804,6.205-0.436,9.227
	c-0.559,0.514-1.241,0.736-1.979,0.778c-2.431,0.139-4.863,0.125-7.294,0.01c-0.601-0.029-1.173-0.162-1.638-0.584
	C27.256,19.473,27.182,19.361,27.108,19.249z"/>
<path fill-rule="evenodd" clip-rule="evenodd" fill="#CCCCCC" d="M48.385,9.216c3.62-0.009,7.241-0.018,10.864-0.027l-0.027,0.03
	c0.224,0.24,0.582,0.438,0.625,0.748c0.44,3.177,0.916,6.361-0.407,9.463c-0.479,0.37-1.006,0.683-1.617,0.678
	c-3.214-0.024-6.481,0.793-9.602-0.619C46.955,17.101,47.052,10.977,48.385,9.216L48.385,9.216z"/>
<path fill-rule="evenodd" clip-rule="evenodd" fill="#C0C0C0" d="M69.64,9.201c3.619,0.005,7.241,0.01,10.861,0.015v0.001
	c0.91,0.686,0.942,1.693,0.964,2.693c0.053,2.449,0.053,4.898-0.043,7.347c0.092,2.337,0.092,4.674,0.047,7.012
	c-0.02,1.009-0.094,2.008-0.788,2.833c-0.593,0.471-1.287,0.715-2.022,0.701c-3.079-0.057-6.203,0.591-9.216-0.556
	c-0.807-0.702-0.709-1.682-0.736-2.589c-0.075-2.453-0.067-4.909,0.036-7.361c-0.094-2.458-0.1-4.918-0.046-7.378
	c0.021-1.004,0.056-2.014,0.965-2.706L69.64,9.201z"/>
<path fill-rule="evenodd" clip-rule="evenodd" fill="#C1C1C1" d="M80.505,19.261c-0.001-3.348-0.003-6.696-0.004-10.044
	c3.613,0,7.228,0,10.841,0c-0.001,3.345-0.002,6.691-0.005,10.036c-0.071,0.11-0.144,0.22-0.215,0.33
	c-2.225,1.221-4.634,0.513-6.959,0.628C82.891,20.274,81.489,20.47,80.505,19.261z"/>
<path fill-rule="evenodd" clip-rule="evenodd" fill="#D7D7D7" d="M16.258,38.511c-3.479,0.001-6.958,0.002-10.437,0.003
	c-0.001-3.213-0.003-6.426-0.005-9.64c0-3.203,0-6.405,0-9.608c3.485-0.005,6.971-0.01,10.456-0.015l0.005-0.014
	c0.815,0.645,0.926,1.559,0.949,2.503c0.06,2.383,0.055,4.765-0.038,7.146c0.089,2.46,0.121,4.921,0.022,7.379
	C17.176,37.113,17.231,38.043,16.258,38.511z"/>
<path fill-rule="evenodd" clip-rule="evenodd" fill="#D0D0D0" d="M5.825,48.562c3.485-0.014,6.969-0.026,10.453-0.04
	c0.106,0.073,0.213,0.145,0.32,0.218c0.82,1.024,0.618,2.251,0.646,3.417c0.05,2.041,0.024,4.084-0.068,6.125
	c0.113,2.32,0.099,4.641,0.058,6.962c-0.019,1.002-0.099,1.993-0.792,2.81c-2.474,1.217-8.897,1.083-10.616-0.221
	c0,0-0.005,0.009-0.005,0.011c0-3.219,0.001-6.437,0.002-9.654C5.824,54.979,5.825,51.77,5.825,48.562z"/>
<path fill-rule="evenodd" clip-rule="evenodd" fill="#BEBEBE" d="M5.827,67.832c3.483-0.003,6.966-0.006,10.45-0.01
	c0.106,0.069,0.213,0.139,0.319,0.208c1.025,3.083,1.042,6.165-0.01,9.245c-0.108,0.067-0.215,0.135-0.323,0.202
	c-3.479-0.002-6.958-0.004-10.438-0.006C5.826,74.259,5.826,71.045,5.827,67.832z"/>
<path fill-rule="evenodd" clip-rule="evenodd" fill="#BFBFBF" d="M48.385,9.216c0.004,3.35,0.008,6.7,0.011,10.05
	c-0.07,0.106-0.14,0.213-0.211,0.319c-2.385,1.217-4.942,0.472-7.418,0.625c-0.912,0.056-1.873,0.045-2.641-0.632
	c-0.07-0.106-0.14-0.213-0.21-0.32c0.017-3.349,0.034-6.698,0.05-10.047C41.438,9.212,44.912,9.214,48.385,9.216z"/>
<path fill-rule="evenodd" clip-rule="evenodd" fill="#EAEAEA" d="M69.661,9.212c-0.003,3.341-0.007,6.682-0.011,10.022
	c-0.239,0.223-0.419,0.592-0.734,0.637c-3.171,0.448-6.347,0.887-9.472-0.282c-0.073-0.109-0.146-0.219-0.218-0.328
	c-0.003-3.348-0.004-6.695-0.005-10.042C62.702,9.217,66.183,9.214,69.661,9.212z"/>
<path fill-rule="evenodd" clip-rule="evenodd" fill="#E3E3E3" d="M59.287,87.484c-0.014,3.212-0.028,6.425-0.043,9.638
	c-3.613,0.003-7.228,0.006-10.839,0.009c0-0.001-0.055,0.034-0.055,0.034c-0.268-0.297-0.666-0.591-0.696-0.958
	c-0.238-2.961-0.801-5.948,0.443-8.836c0.398-0.366,0.874-0.666,1.398-0.679c3.194-0.079,6.422-0.748,9.553,0.467
	C59.128,87.268,59.207,87.376,59.287,87.484z"/>
<path fill-rule="evenodd" clip-rule="evenodd" fill="#C3C3C3" d="M48.426,87.477c-0.027,3.229-0.051,6.459-0.077,9.688
	c-3.459-0.011-6.919-0.023-10.379-0.035l-0.075,0.047c-0.262-0.303-0.652-0.608-0.681-0.969c-0.236-2.959-0.796-5.942,0.438-8.83
	c0.505-0.464,1.117-0.754,1.783-0.747c2.925,0.023,5.896-0.673,8.751,0.521C48.267,87.262,48.347,87.369,48.426,87.477z"/>
<path fill-rule="evenodd" clip-rule="evenodd" fill="#DEDEDE" d="M37.96,87.497c-0.021,3.227-0.043,6.452-0.064,9.68
	c-3.585-0.004-7.171-0.007-10.756-0.011c-0.017-3.221-0.033-6.441-0.05-9.661c0.069-0.108,0.138-0.216,0.208-0.323
	c0.58-0.54,1.318-0.656,2.042-0.614c2.807,0.16,5.687-0.669,8.411,0.609C37.82,87.283,37.89,87.39,37.96,87.497z"/>
<path fill-rule="evenodd" clip-rule="evenodd" fill="#EBEBEB" d="M101.786,48.577c-3.481-0.008-6.962-0.016-10.443-0.023
	c-0.111-0.074-0.223-0.146-0.334-0.219c-0.98-3.369-1.167-6.725,0.168-10.056c2.549-1.204,8.918-1.045,10.561,0.263l0.077-0.027
	C101.805,41.868,101.796,45.222,101.786,48.577z"/>
<path fill-rule="evenodd" clip-rule="evenodd" fill="#C6C6C6" d="M91.337,19.252c3.481,0,6.962,0,10.442,0
	c0.001,3.213,0.001,6.426,0.003,9.639l-0.003-0.004c-0.24,0.223-0.439,0.584-0.748,0.623c-3.31,0.413-6.631,0.963-9.867-0.406
	c-1.18-3.307-1.465-6.598,0.178-9.854L91.337,19.252z"/>
<path fill-rule="evenodd" clip-rule="evenodd" fill="#E3E3E3" d="M91.35,28.869c3.477,0.007,6.953,0.013,10.43,0.019
	c-0.013,3.218-0.026,6.436-0.041,9.653c-3.471-0.003-6.941-0.006-10.411-0.009c-0.106-0.07-0.213-0.14-0.319-0.21
	c-1.018-3.085-1.041-6.168,0.019-9.25C91.134,29.003,91.241,28.937,91.35,28.869z"/>
<path fill-rule="evenodd" clip-rule="evenodd" fill="#C5C5C5" d="M80.486,67.845c3.617-0.005,7.236-0.008,10.854-0.013
	c-0.004,3.218-0.008,6.438-0.011,9.656c-3.6,0.005-7.198,0.009-10.796,0.014l-0.063-0.065c-0.445-0.419-0.795-0.88-0.845-1.528
	c-0.168-2.191-0.186-4.382,0.011-6.573C79.691,68.712,79.94,68.192,80.486,67.845z"/>
<path fill-rule="evenodd" clip-rule="evenodd" fill="#C9C9C9" d="M16.318,87.533c-0.018-3.352-0.037-6.703-0.055-10.056l0.001-0.023
	c0.243-0.222,0.451-0.576,0.758-0.613c3.44-0.42,6.891-0.943,10.261,0.409c1.242,2.373,1.15,8.47-0.156,10.262l-0.037-0.007
	C23.5,87.514,19.908,87.523,16.318,87.533z"/>
<path fill-rule="evenodd" clip-rule="evenodd" fill="#B5B5B5" d="M69.65,87.502c-3.455-0.006-6.909-0.012-10.364-0.018
	c0.001,0-0.11,0.024-0.11,0.024c-0.261-0.3-0.662-0.577-0.69-0.957c-0.227-3.087-0.799-6.196,0.444-9.213
	c0.458-0.42,1.009-0.719,1.617-0.721c2.973-0.014,5.988-0.706,8.891,0.508c0.077,0.11,0.152,0.22,0.229,0.33
	C69.66,80.805,69.655,84.153,69.65,87.502z"/>
<path fill-rule="evenodd" clip-rule="evenodd" fill="#A7A7A7" d="M80.486,67.845c-0.006,3.198-0.009,6.396-0.016,9.594
	c-3.602,0.006-7.203,0.012-10.805,0.018l0.002,0.014c-0.273-0.284-0.688-0.535-0.72-0.918c-0.249-2.985-0.854-5.998,0.493-8.895
	c0.754-0.635,1.666-0.758,2.602-0.783c1.987-0.056,3.975-0.056,5.962,0.002c0.943,0.026,1.863,0.12,2.494,0.959L80.486,67.845z"/>
<path fill-rule="evenodd" clip-rule="evenodd" fill="#B8B8B8" d="M16.258,38.511c0.005-3.204,0.012-6.408,0.018-9.611
	c0.368-0.39,0.734-0.812,1.315-0.838c3.123-0.143,6.254-0.537,9.344,0.306c0.241,0.117,0.436,0.286,0.584,0.508
	c1.016,2.371,0.43,4.868,0.567,7.307c0.044,0.798-0.061,1.597-0.065,2.397c0.111,2.458,0.096,4.915,0.055,7.373
	c-0.017,1.004-0.097,1.997-0.787,2.818c-1.07,0.841-2.345,0.754-3.586,0.769c-1.775,0.024-3.551,0.044-5.326-0.041
	c-0.821-0.04-1.552-0.253-2.101-0.905c0,0,0.002-0.071,0.002-0.072C16.271,45.185,16.265,41.848,16.258,38.511z"/>
<path fill-rule="evenodd" clip-rule="evenodd" fill="#CFCFCF" d="M91.341,58.196c-3.611,0.004-7.223,0.006-10.835,0.01
	c-0.11-0.073-0.222-0.146-0.333-0.221c-1.008-3.243-1.158-6.473,0.169-9.677c2.735-1.352,5.651-0.543,8.483-0.695
	c0.951-0.051,1.876,0.121,2.536,0.935l-0.019,0.006C91.343,51.768,91.342,54.983,91.341,58.196z"/>
<path fill-rule="evenodd" clip-rule="evenodd" fill="#D1D1D1" d="M80.499,67.835c-3.598,0.005-7.195,0.011-10.794,0.016
	c-0.114-0.069-0.229-0.138-0.343-0.206c-1.065-3.244-1.172-6.476,0.133-9.688c2.45-1.341,5.107-0.581,7.671-0.72
	c1.172-0.063,2.445-0.163,3.324,0.948l0.016,0.021C80.504,61.416,80.501,64.625,80.499,67.835z"/>
<path fill-rule="evenodd" clip-rule="evenodd" fill="#CDCDCD" d="M27.107,28.887c-3.61,0.004-7.222,0.008-10.833,0.013
	c0-3.221,0.001-6.441,0.001-9.662c3.611,0.004,7.222,0.008,10.832,0.012c0,0-0.01,0.013-0.01,0.013
	c0.384,0.374,0.784,0.735,0.843,1.319c0.232,2.336,0.246,4.672-0.005,7.007C27.876,28.148,27.598,28.591,27.107,28.887z"/>
<path fill-rule="evenodd" clip-rule="evenodd" fill="#E0E0E0" d="M27.107,28.887c-0.003-3.208-0.006-6.417-0.009-9.625
	c3.605-0.001,7.211-0.003,10.817-0.004l0.068-0.019c0.209,0.251,0.554,0.461,0.596,0.77c0.408,3.042,0.922,6.094-0.416,9.056
	c-0.754,0.635-1.666,0.756-2.601,0.782c-1.987,0.054-3.974,0.054-5.96-0.001c-0.943-0.026-1.861-0.124-2.497-0.956L27.107,28.887z"
	/>
<path fill-rule="evenodd" clip-rule="evenodd" fill="#F0F0F0" d="M48.396,19.266c3.609-0.001,7.22-0.003,10.83-0.005
	c0.001,0-0.011-0.013-0.011-0.013c0.225,0.241,0.584,0.44,0.628,0.753c0.438,3.064,0.871,6.133-0.3,9.147
	c-3.775,1.105-7.549,1.198-11.318-0.018c-1.272-2.388-1.177-8.119,0.165-9.874L48.396,19.266z"/>
<path fill-rule="evenodd" clip-rule="evenodd" fill="#CACACA" d="M59.202,28.88c0.004-3.21,0.008-6.421,0.013-9.632
	c3.478-0.004,6.957-0.009,10.436-0.014c0.004,3.217,0.008,6.435,0.011,9.652c0.271,0.286,0.684,0.54,0.715,0.92
	c0.243,2.985,0.855,5.997-0.498,8.893c-0.584,0.48-1.272,0.76-2.01,0.733c-2.944-0.111-5.965,0.724-8.81-0.673
	C57.842,35.448,57.615,32.151,59.202,28.88z"/>
<path fill-rule="evenodd" clip-rule="evenodd" fill="#DADADA" d="M91.342,19.251c0.003,3.206,0.005,6.412,0.008,9.618l-0.015,0.039
	c-0.249,0.213-0.438,0.579-0.755,0.618c-3.31,0.41-6.629,0.881-9.889-0.319c-0.071-0.111-0.143-0.222-0.213-0.333
	c0.008-3.204,0.017-6.408,0.026-9.612C84.117,19.257,87.729,19.254,91.342,19.251z"/>
<path fill-rule="evenodd" clip-rule="evenodd" fill="#D5D5D5" d="M69.66,38.522c0-3.211,0.001-6.423,0.001-9.635
	c3.605-0.004,7.211-0.008,10.817-0.013l0.043,0.027c0.38,0.376,0.789,0.747,0.816,1.326c0.133,2.715,0.502,5.44-0.313,8.12
	c-0.113,0.24-0.28,0.435-0.499,0.584c-3.56,0.848-7.112,1.051-10.655-0.081C69.801,38.74,69.73,38.631,69.66,38.522z"/>
<path fill-rule="evenodd" clip-rule="evenodd" fill="#E9E9E9" d="M16.276,67.822c0.004-3.214,0.008-6.428,0.012-9.643
	c0.245-0.226,0.448-0.59,0.767-0.625c3.431-0.377,6.876-0.964,10.233,0.433c1.277,3.329,1.2,6.666,0.057,10.007
	c-0.753,0.64-1.664,0.771-2.603,0.797c-1.991,0.054-3.982,0.054-5.973-0.002c-0.945-0.026-1.866-0.122-2.504-0.955L16.276,67.822z"
	/>
<path fill-rule="evenodd" clip-rule="evenodd" fill="#FEFEFE" d="M27.116,58.205c-3.61-0.009-7.219-0.017-10.828-0.025
	c-0.004-3.195-0.009-6.391-0.013-9.586c3.609-0.013,7.219-0.024,10.828-0.035c0.108,0.067,0.215,0.135,0.323,0.202
	c1.052,3.077,1.034,6.156,0.01,9.237C27.329,58.067,27.223,58.136,27.116,58.205z"/>
<path fill-rule="evenodd" clip-rule="evenodd" fill="#C5C5C5" d="M16.265,67.834c3.614,0,7.229,0,10.843-0.001
	c0.107,0.068,0.215,0.135,0.322,0.203c1.038,3.077,1.044,6.152-0.003,9.229c-0.107,0.067-0.215,0.134-0.323,0.201
	c-3.613-0.004-7.226-0.007-10.84-0.011C16.265,74.248,16.265,71.041,16.265,67.834z"/>
<path fill-rule="evenodd" clip-rule="evenodd" fill="#C5C5C5" d="M48.39,19.256c-0.008,3.207-0.017,6.414-0.026,9.62
	c-0.066,0.109-0.13,0.219-0.196,0.328c-0.691,0.655-1.582,0.687-2.426,0.636c-2.532-0.155-5.146,0.625-7.586-0.628
	c-0.068-0.108-0.135-0.216-0.203-0.324c0.01-3.216,0.02-6.431,0.03-9.647C41.452,19.245,44.921,19.251,48.39,19.256z"/>
<path fill-rule="evenodd" clip-rule="evenodd" fill="#FEFEFE" d="M59.228,77.467c-0.017,3.347-0.033,6.695-0.052,10.041
	c-3.584-0.01-7.169-0.021-10.75-0.031c0.001,0-0.061,0.035-0.061,0.035c-0.273-0.291-0.68-0.568-0.709-0.943
	c-0.238-3.092-0.804-6.207,0.437-9.229c0.559-0.514,1.24-0.736,1.978-0.778c2.43-0.14,4.862-0.125,7.294-0.011
	c0.602,0.029,1.174,0.164,1.641,0.582C59.078,77.244,59.152,77.355,59.228,77.467z"/>
<path fill-rule="evenodd" clip-rule="evenodd" fill="#BBBBBB" d="M48.464,77.476c-0.033,3.345-0.067,6.689-0.1,10.036
	c-3.468-0.005-6.937-0.01-10.404-0.015l-0.026,0.015c-0.438-0.42-0.831-0.873-0.852-1.521c-0.09-2.775-0.467-5.563,0.317-8.306
	c0.101-0.241,0.254-0.442,0.461-0.604c3.351-0.978,6.718-0.818,10.093-0.149C48.177,77.063,48.348,77.243,48.464,77.476z"/>
<path fill-rule="evenodd" clip-rule="evenodd" fill="#D8D8D8" d="M37.902,77.468c0.011,3.348,0.021,6.695,0.032,10.044
	c-3.602,0-7.204,0-10.806,0c-0.008-3.349-0.016-6.697-0.023-10.046l0.005,0.004C28.998,76.035,36.083,76.034,37.902,77.468z"/>
<path fill-rule="evenodd" clip-rule="evenodd" fill="#C5C5C5" d="M91.361,48.548c-3.628,0.009-7.255,0.019-10.882,0.026
	c-0.107-0.076-0.216-0.15-0.323-0.226c-0.871-3.308-1.357-6.602,0.354-9.816l-0.009-0.009c0.418-0.446,0.866-0.822,1.521-0.869
	c2.601-0.188,5.2-0.189,7.802,0.001c0.654,0.048,1.103,0.424,1.513,0.878l-0.01-0.003C91.338,41.87,91.35,45.208,91.361,48.548z"/>
<path fill-rule="evenodd" clip-rule="evenodd" fill="#EFEFEF" d="M91.337,38.535c-3.611-0.003-7.224-0.008-10.836-0.011
	c0.006-3.208,0.014-6.416,0.021-9.623c3.604,0.002,7.208,0.004,10.813,0.006C91.336,32.117,91.336,35.326,91.337,38.535z"/>
<path fill-rule="evenodd" clip-rule="evenodd" fill="#DDDDDD" d="M69.705,67.851c-0.013,3.206-0.025,6.412-0.037,9.619
	c-3.48-0.002-6.961-0.002-10.44-0.003l-0.03,0.022c-0.266-0.29-0.664-0.573-0.692-0.938c-0.241-2.982-0.843-5.992,0.488-8.888
	c2.251-1.424,4.755-0.662,7.148-0.788c1.215-0.063,2.554-0.223,3.478,0.944L69.705,67.851z"/>
<path fill-rule="evenodd" clip-rule="evenodd" fill="#FEFEFE" d="M27.104,48.559c0.01-3.332,0.019-6.664,0.028-9.995
	c0.347-0.402,0.697-0.828,1.273-0.856c3.142-0.155,6.293-0.568,9.401,0.317c0.242,0.125,0.435,0.303,0.578,0.535
	c0.762,3.428,1.111,6.846-0.26,10.22c-2.334,1.358-4.893,0.619-7.351,0.739c-1.274,0.063-2.679,0.258-3.664-0.955L27.104,48.559z"/>
<path fill-rule="evenodd" clip-rule="evenodd" fill="#CBCBCB" d="M37.955,38.533c-3.608,0.01-7.215,0.021-10.823,0.031
	c-0.009-3.225-0.018-6.45-0.026-9.674c3.616-0.001,7.231-0.002,10.847-0.002c0,0-0.009-0.003-0.009-0.003
	c0.364,0.376,0.769,0.727,0.829,1.298c0.246,2.359,0.259,4.718-0.005,7.076C38.707,37.802,38.425,38.235,37.955,38.533z"/>
<path fill-rule="evenodd" clip-rule="evenodd" fill="#9F9F9F" d="M80.49,58.186c-3.609,0.004-7.219,0.007-10.829,0.01
	c-0.107-0.067-0.215-0.136-0.323-0.204c-1.14-3.105-0.872-6.229-0.135-9.363c0.133-0.232,0.317-0.412,0.551-0.541
	c3.117-0.937,6.286-0.484,9.442-0.348c0.577,0.025,0.934,0.455,1.3,0.838l-0.017-0.003C80.483,51.778,80.486,54.981,80.49,58.186z"
	/>
<path fill-rule="evenodd" clip-rule="evenodd" fill="#E8E8E8" d="M69.619,67.819c-3.461,0.004-6.922,0.007-10.385,0.01
	c-0.112-0.071-0.224-0.144-0.336-0.216c-1.016-3.241-1.162-6.467,0.165-9.67c2.531-1.182,8.867-1.037,10.608,0.242l-0.011,0.01
	C69.648,61.403,69.634,64.611,69.619,67.819z"/>
<path fill-rule="evenodd" clip-rule="evenodd" fill="#E6E6E6" d="M59.202,28.88c0.005,3.215,0.009,6.43,0.014,9.644
	c-0.068,0.108-0.137,0.216-0.206,0.324c-0.463,0.439-1.045,0.6-1.649,0.59c-2.97-0.048-5.971,0.527-8.892-0.445
	c-0.233-0.131-0.415-0.313-0.547-0.546c-0.917-2.717-0.501-5.494-0.361-8.256c0.029-0.575,0.457-0.934,0.823-1.315
	c0,0-0.019,0.001-0.02,0C51.977,28.878,55.589,28.879,59.202,28.88z"/>
<path fill-rule="evenodd" clip-rule="evenodd" fill="#DDDDDD" d="M59.216,38.524c3.481,0,6.963-0.001,10.444-0.002l-0.001,0.005
	c0.447,0.415,0.82,0.863,0.871,1.518c0.182,2.333,0.182,4.664,0,6.996c-0.051,0.655-0.426,1.102-0.867,1.522l0.019,0.017
	c-0.246,0.218-0.463,0.565-0.768,0.604c-3.309,0.414-6.631,0.962-9.868-0.404c-1.254-2.397-1.148-8.504,0.178-10.262L59.216,38.524z
	"/>
<path fill-rule="evenodd" clip-rule="evenodd" fill="#D8D8D8" d="M69.663,48.563c-0.002-3.345-0.003-6.69-0.004-10.036
	c3.617,0.002,7.233,0.003,10.851,0.005c-0.004,3.348-0.009,6.695-0.014,10.044C76.886,48.573,73.273,48.568,69.663,48.563z"/>
<path fill-rule="evenodd" clip-rule="evenodd" fill="#BEBEBE" d="M27.108,67.833c0.003-3.209,0.005-6.419,0.008-9.628
	c0,0-0.004-0.002-0.004-0.002c0.285-0.277,0.538-0.698,0.926-0.729c3.356-0.256,6.73-0.821,10.025,0.418
	c0.85,0.919,0.876,2.079,0.848,3.213c-0.055,2.192,0.357,4.42-0.453,6.561c-0.122,0.245-0.297,0.441-0.527,0.59
	c-3.198,1.025-6.455,0.549-9.698,0.355c-0.503-0.03-0.786-0.469-1.124-0.784L27.108,67.833z"/>
<path fill-rule="evenodd" clip-rule="evenodd" fill="#EBEBEB" d="M37.939,58.181c-3.609,0.009-7.218,0.016-10.828,0.022
	c-0.001-3.213-0.001-6.426-0.003-9.64c3.592,0,7.185,0,10.777-0.001c0.113,0.06,0.225,0.119,0.338,0.179
	c1.13,3.075,1.067,6.155,0.041,9.241C38.157,58.048,38.048,58.115,37.939,58.181z"/>
<path fill-rule="evenodd" clip-rule="evenodd" fill="#D1D1D1" d="M27.109,67.827c3.618,0.003,7.235,0.008,10.853,0.013
	c0.472,0.307,0.753,0.742,0.813,1.299c0.253,2.325,0.234,4.652,0.011,6.979c-0.056,0.58-0.445,0.95-0.802,1.344
	c0,0-0.081,0.007-0.082,0.007c-3.598,0-7.195,0.002-10.793,0.002C27.109,74.256,27.109,71.041,27.109,67.827z"/>
<path fill-rule="evenodd" clip-rule="evenodd" fill="#FEFEFE" d="M48.383,28.876c0.001,3.201,0.001,6.402,0.002,9.603
	c-0.204,0.173,0.111,0.008-0.103,0.169c-1.753,1.317-8.561,1.228-10.346-0.135l0.02,0.02c-0.004-3.216-0.008-6.433-0.012-9.649
	C41.423,28.881,44.903,28.878,48.383,28.876z"/>
<path fill-rule="evenodd" clip-rule="evenodd" fill="#DEDEDE" d="M59.234,67.829c-0.012,3.22-0.024,6.44-0.037,9.66
	c-3.578-0.005-7.156-0.009-10.733-0.014l-0.161-0.014c-0.319-0.42-0.743-0.792-0.751-1.373c-0.038-2.83-0.758-5.712,0.621-8.438
	c0.753-0.632,1.664-0.751,2.597-0.776c1.983-0.056,3.968-0.056,5.951,0.001c0.94,0.027,1.86,0.116,2.493,0.953L59.234,67.829z"/>
<path fill-rule="evenodd" clip-rule="evenodd" fill="#A0A0A0" d="M48.371,67.834c-0.022,3.21-0.045,6.418-0.067,9.628
	c-3.44,0-6.88-0.001-10.32-0.001c-0.007-3.207-0.015-6.415-0.022-9.622c0,0.001-0.01,0.011-0.01,0.011
	c0.24-0.222,0.421-0.59,0.737-0.635c3.17-0.447,6.347-0.896,9.469,0.287C48.228,67.612,48.299,67.724,48.371,67.834z"/>
<path fill-rule="evenodd" clip-rule="evenodd" fill="#CBCBCB" d="M37.936,38.513c3.483-0.011,6.966-0.022,10.449-0.034
	c0,0-0.006,0.09-0.006,0.09c0.236,0.234,0.603,0.424,0.643,0.747c0.392,3.161,0.928,6.335-0.417,9.421
	c-2.249,1.414-4.75,0.658-7.14,0.779c-1.209,0.061-2.555,0.243-3.46-0.958l-0.117,0.004C37.903,45.212,37.919,41.863,37.936,38.513z
	"/>
<path fill-rule="evenodd" clip-rule="evenodd" fill="#C9C9C9" d="M59.224,48.56c3.486,0.008,6.972,0.014,10.458,0.021
	c-0.003,3.203-0.006,6.404-0.01,9.605c-3.481,0.004-6.964,0.007-10.445,0.012c-0.107-0.068-0.216-0.135-0.323-0.202
	c-1.047-3.078-1.045-6.154-0.001-9.232C59.01,48.695,59.116,48.627,59.224,48.56z"/>
<path fill-rule="evenodd" clip-rule="evenodd" fill="#B7B7B7" d="M59.215,67.828c-3.616,0.002-7.23,0.004-10.844,0.006l0.01,0.017
	c-0.361-0.381-0.786-0.738-0.818-1.308c-0.159-2.746-0.526-5.501,0.324-8.208c0.124-0.241,0.301-0.432,0.53-0.575
	c3.193-0.998,6.441-0.541,9.678-0.342c0.503,0.031,0.783,0.467,1.115,0.789l0.017-0.01C59.222,61.407,59.218,64.617,59.215,67.828z"
	/>
<path fill-rule="evenodd" clip-rule="evenodd" fill="#C6C6C6" d="M48.384,48.563c-0.001-3.333-0.003-6.664-0.004-9.995
	c3.613-0.017,7.229-0.034,10.844-0.052c0,3.348,0,6.695,0,10.042l-0.004,0.002c-0.245,0.218-0.431,0.584-0.745,0.625
	c-3.307,0.437-6.617,0.877-9.874-0.294C48.529,48.782,48.457,48.674,48.384,48.563z"/>
<path fill-rule="evenodd" clip-rule="evenodd" fill="#CFCFCF" d="M48.389,58.195c-0.004,3.219-0.006,6.438-0.008,9.655
	c-3.477,0-6.953-0.001-10.429-0.001c-0.004-3.223-0.008-6.446-0.012-9.668c0-0.001-0.008,0.011-0.008,0.011
	c0.384-0.355,0.736-0.766,1.308-0.821c2.625-0.255,5.252-0.263,7.876,0.003C47.662,57.429,48.097,57.715,48.389,58.195z"/>
<path fill-rule="evenodd" clip-rule="evenodd" fill="#BCBCBC" d="M48.389,58.195c-3.486,0-6.972-0.001-10.458-0.003
	c0.024-3.211,0.048-6.423,0.073-9.634c3.46,0.001,6.92,0.003,10.38,0.005l-0.001-0.001c0.445,0.415,0.815,0.864,0.868,1.52
	c0.179,2.199,0.18,4.397,0,6.598c-0.053,0.653-0.425,1.102-0.867,1.521L48.389,58.195z"/>
<path fill-rule="evenodd" clip-rule="evenodd" fill="#CACACA" d="M48.384,58.201c0-3.213-0.001-6.427-0.001-9.639
	c3.611,0,7.225-0.001,10.837-0.001c-0.003,3.216-0.007,6.43-0.01,9.646C55.6,58.205,51.991,58.202,48.384,58.201z"/>
<text transform="matrix(0.7071 0.7071 -0.7071 0.7071 25.9048 45.0596)" font-family="'MyriadPro-Bold'" font-size="60">×</text>
<text transform="matrix(0.7071 0.7071 -0.7071 0.7071 25.9048 45.0596)" fill="none" stroke="#000000" stroke-width="2" stroke-linecap="round" stroke-linejoin="round" stroke-miterlimit="10" font-family="'MyriadPro-Bold'" font-size="60">×</text>
</svg>
