<?xml version="1.0" encoding="utf-8"?>
<!-- Generator: Adobe Illustrator 16.0.3, SVG Export Plug-In . SVG Version: 6.00 Build 0)  -->
<!DOCTYPE svg PUBLIC "-//W3C//DTD SVG 1.1//EN" "http://www.w3.org/Graphics/SVG/1.1/DTD/svg11.dtd">
<svg version="1.1" xmlns="http://www.w3.org/2000/svg" xmlns:xlink="http://www.w3.org/1999/xlink" x="0px" y="0px" width="96px"
	 height="96px" viewBox="0 0 96 96" enable-background="new 0 0 96 96" xml:space="preserve">
<g id="circular_mask">
	<path fill="#C1C1C1" d="M6.66,48.6c0.001-3.346,0.003-6.69,0.005-10.035l-0.011-0.016c0.342-0.307,0.639-0.744,1.123-0.77
		c3.213-0.174,6.45-0.726,9.597,0.473c0.378,0.325,0.572,0.756,0.573,1.235c0.012,3.102,0.75,6.252-0.6,9.264
		c-1.187,0.979-2.62,0.799-3.998,0.822c-1.594,0.027-3.188,0.043-4.782-0.061c-0.773-0.049-1.414-0.319-1.909-0.917L6.66,48.6z"/>
	<path fill="#CDCDCD" d="M92.187,58.217c-0.004,3.215,0.007,5.131,0.002,8.346l-0.417,1.063c-0.371,0.371-0.325,1.037-0.899,1.063
		c-3.139,0.141-6.29,0.563-9.396-0.324c-0.242-0.125-0.435-0.303-0.578-0.535c-0.746-3.295-1.117-6.582,0.261-9.82
		c2.336-1.354,4.896-0.617,7.353-0.738c1.274-0.063,2.68-0.254,3.663,0.959L92.187,58.217z"/>
	<path fill="#F2F2F2" d="M27.941,19.283c0-3.338,0.002-6.677,0.002-10.016c3.601,0,7.203,0,10.804,0l0.051-0.022
		c0.273,0.291,0.682,0.566,0.71,0.943c0.239,3.091,0.804,6.205-0.436,9.227c-0.559,0.514-1.241,0.736-1.979,0.778
		c-2.431,0.139-4.863,0.125-7.294,0.01c-0.601-0.029-1.173-0.162-1.638-0.584C28.089,19.507,28.015,19.395,27.941,19.283z"/>
	<path fill="#CCCCCC" d="M49.218,9.25c3.62-0.009,7.241-0.018,10.864-0.027l-0.026,0.03c0.223,0.24,0.582,0.438,0.625,0.748
		c0.439,3.177,0.916,6.361-0.408,9.463c-0.479,0.37-1.006,0.683-1.616,0.678c-3.214-0.024-6.481,0.793-9.602-0.619
		C47.788,17.135,47.885,11.011,49.218,9.25L49.218,9.25z"/>
	<path fill="#D0D0D0" d="M6.658,48.597c3.485-0.015,6.969-0.026,10.453-0.041c0.106,0.072,0.213,0.145,0.32,0.218
		c0.82,1.021,0.618,2.248,0.646,3.414c0.05,2.041,0.024,4.084-0.068,6.125c0.113,2.32,0.099,4.641,0.058,6.963
		c-0.019,1.002-0.099,1.992-0.792,2.811c-2.474,1.217-8.897,1.082-10.616-0.223c0,0-0.005,0.01-0.005,0.012
		c0-3.219,0.001-6.438,0.002-9.654C6.657,55.01,6.658,51.801,6.658,48.597z"/>
	<path fill="#BFBFBF" d="M49.218,9.25c0.005,3.35,0.009,6.7,0.011,10.05c-0.069,0.106-0.14,0.213-0.211,0.319
		c-2.385,1.217-4.941,0.472-7.417,0.625c-0.912,0.056-1.873,0.045-2.641-0.632c-0.07-0.106-0.14-0.213-0.21-0.32
		c0.017-3.349,0.034-6.698,0.05-10.047C42.271,9.246,45.745,9.248,49.218,9.25z"/>
	<path fill="#EAEAEA" d="M70.494,9.246c-0.003,3.341-0.007,6.682-0.011,10.022c-0.239,0.223-0.42,0.592-0.734,0.637
		c-3.171,0.448-6.348,0.887-9.473-0.282c-0.072-0.109-0.146-0.219-0.217-0.328c-0.004-3.348-0.004-6.695-0.006-10.042
		C63.535,9.251,67.017,9.248,70.494,9.246z"/>
	<path fill="#B5B5B5" d="M70.483,87.533c-3.455-0.006-6.909-0.012-10.364-0.018c0.001,0-0.11,0.023-0.11,0.023
		c-0.261-0.301-0.662-0.576-0.689-0.957c-0.228-3.088-0.799-6.195,0.443-9.213c0.459-0.42,1.01-0.719,1.617-0.721
		c2.973-0.014,5.988-0.707,8.891,0.508c0.078,0.109,0.152,0.221,0.229,0.33C70.493,80.836,70.487,84.184,70.483,87.533z"/>
	<path fill="#A7A7A7" d="M81.319,67.875c-0.006,3.199-0.01,6.396-0.016,9.596c-3.603,0.006-7.203,0.012-10.806,0.018l0.002,0.014
		c-0.272-0.283-0.688-0.535-0.72-0.918c-0.249-2.984-0.854-5.998,0.492-8.895c0.754-0.635,1.666-0.758,2.603-0.783
		c1.987-0.057,3.976-0.057,5.962,0.002c0.943,0.025,1.863,0.119,2.494,0.959L81.319,67.875z"/>
	<path fill="#B8B8B8" d="M17.091,38.545c0.005-3.204,0.012-6.408,0.018-9.611c0.368-0.39,0.734-0.812,1.315-0.838
		c3.123-0.143,6.254-0.537,9.344,0.306c0.241,0.117,0.436,0.286,0.584,0.508c1.016,2.371,0.43,4.868,0.567,7.307
		c0.044,0.798-0.061,1.597-0.065,2.397c0.111,2.458,0.096,4.915,0.055,7.373c-0.017,1.004-0.097,1.997-0.787,2.816
		c-1.07,0.839-2.345,0.753-3.586,0.767c-1.775,0.025-3.551,0.045-5.326-0.041c-0.821-0.039-1.552-0.252-2.101-0.902
		c0,0,0.002-0.069,0.002-0.071C17.104,45.219,17.098,41.882,17.091,38.545z"/>
	<path fill="#CFCFCF" d="M92.174,58.227c-3.61,0.004-7.223,0.006-10.835,0.01c-0.109-0.072-0.222-0.145-0.333-0.221
		c-1.008-3.242-1.157-6.473,0.169-9.673c2.735-1.352,5.651-0.543,8.483-0.695c0.95-0.051,1.876,0.121,2.536,0.935l-0.02,0.007
		C92.176,51.799,92.175,55.014,92.174,58.227z"/>
	<path fill="#D1D1D1" d="M81.332,67.865c-3.599,0.006-7.194,0.012-10.794,0.018c-0.114-0.07-0.229-0.139-0.344-0.207
		c-1.064-3.244-1.172-6.477,0.134-9.688c2.45-1.342,5.106-0.582,7.671-0.721c1.172-0.063,2.445-0.162,3.324,0.949l0.016,0.02
		C81.337,61.447,81.334,64.656,81.332,67.865z"/>
	<path fill="#CDCDCD" d="M27.94,28.921c-3.61,0.004-7.222,0.008-10.833,0.013c0-3.221,0.001-6.441,0.001-9.662
		c3.611,0.004,7.222,0.008,10.832,0.012l-0.01,0.013c0.384,0.374,0.784,0.735,0.843,1.319c0.232,2.336,0.246,4.672-0.005,7.007
		C28.709,28.182,28.431,28.625,27.94,28.921z"/>
	<path fill="#E0E0E0" d="M27.94,28.921c-0.003-3.208-0.006-6.417-0.009-9.625c3.605-0.001,7.211-0.003,10.817-0.004l0.068-0.019
		c0.209,0.251,0.554,0.461,0.596,0.77c0.408,3.042,0.922,6.094-0.416,9.056c-0.754,0.635-1.666,0.756-2.601,0.782
		c-1.987,0.054-3.974,0.054-5.96-0.001c-0.943-0.026-1.861-0.124-2.497-0.956L27.94,28.921z"/>
	<path fill="#F0F0F0" d="M49.229,19.3c3.609-0.001,7.221-0.003,10.831-0.005l-0.012-0.013c0.225,0.241,0.584,0.44,0.628,0.753
		c0.438,3.064,0.871,6.133-0.3,9.147c-3.775,1.105-7.549,1.198-11.317-0.018c-1.272-2.388-1.178-8.119,0.164-9.874L49.229,19.3z"/>
	<path fill="#CACACA" d="M60.035,28.914c0.004-3.21,0.008-6.421,0.013-9.632c3.479-0.004,6.957-0.009,10.436-0.014
		c0.004,3.217,0.009,6.435,0.012,9.652c0.271,0.286,0.684,0.54,0.715,0.92c0.243,2.985,0.855,5.997-0.498,8.893
		c-0.584,0.48-1.271,0.76-2.01,0.733c-2.944-0.111-5.965,0.724-8.811-0.673C58.675,35.482,58.448,32.185,60.035,28.914z"/>
	<path fill="#D5D5D5" d="M70.493,38.556c0-3.211,0.001-6.423,0.001-9.635c3.604-0.004,7.211-0.008,10.817-0.013l0.043,0.027
		c0.379,0.376,0.789,0.747,0.815,1.326c0.134,2.715,0.502,5.44-0.313,8.12c-0.112,0.24-0.279,0.435-0.498,0.584
		c-3.561,0.848-7.112,1.051-10.655-0.081C70.634,38.774,70.563,38.665,70.493,38.556z"/>
	<path fill="#E9E9E9" d="M17.109,67.854c0.004-3.215,0.008-6.428,0.012-9.643c0.245-0.227,0.448-0.592,0.767-0.625
		c3.431-0.379,6.876-0.965,10.233,0.432c1.277,3.33,1.2,6.666,0.057,10.008c-0.753,0.639-1.664,0.771-2.603,0.797
		c-1.991,0.053-3.982,0.053-5.973-0.002c-0.945-0.025-1.866-0.123-2.504-0.955L17.109,67.854z"/>
	<path fill="#FEFEFE" d="M27.949,58.236c-3.61-0.01-7.219-0.018-10.828-0.025c-0.004-3.195-0.009-6.391-0.013-9.584
		c3.609-0.013,7.219-0.023,10.828-0.034c0.108,0.066,0.215,0.134,0.323,0.201c1.052,3.075,1.034,6.153,0.01,9.235
		C28.162,58.098,28.056,58.166,27.949,58.236z"/>
	<path fill="#C5C5C5" d="M17.098,67.865c3.614,0,7.229,0,10.843-0.002c0.107,0.068,0.215,0.135,0.322,0.203
		c1.038,3.078,1.044,6.152-0.003,9.23c-0.107,0.066-0.215,0.133-0.323,0.199c-3.613-0.004-7.226-0.006-10.84-0.01
		C17.098,74.279,17.098,71.072,17.098,67.865z"/>
	<path fill="#C5C5C5" d="M49.223,19.29c-0.008,3.207-0.017,6.414-0.025,9.62c-0.066,0.109-0.131,0.219-0.196,0.328
		c-0.691,0.655-1.582,0.687-2.426,0.636c-2.532-0.155-5.146,0.625-7.586-0.628c-0.068-0.108-0.135-0.216-0.203-0.324
		c0.01-3.216,0.02-6.431,0.03-9.647C42.285,19.279,45.754,19.285,49.223,19.29z"/>
	<path fill="#FEFEFE" d="M60.062,77.498c-0.018,3.348-0.033,6.695-0.053,10.041c-3.584-0.01-7.169-0.021-10.75-0.031
		c0.001,0-0.061,0.035-0.061,0.035c-0.273-0.291-0.681-0.568-0.709-0.943c-0.238-3.092-0.804-6.207,0.437-9.229
		c0.56-0.514,1.24-0.736,1.978-0.777c2.431-0.141,4.863-0.125,7.295-0.012c0.602,0.029,1.174,0.164,1.641,0.582
		C59.911,77.275,59.985,77.387,60.062,77.498z"/>
	<path fill="#BBBBBB" d="M49.297,77.508c-0.033,3.344-0.066,6.688-0.1,10.035c-3.468-0.006-6.938-0.01-10.404-0.016l-0.026,0.016
		c-0.438-0.42-0.831-0.873-0.852-1.521c-0.09-2.775-0.467-5.563,0.317-8.305c0.101-0.242,0.254-0.443,0.461-0.605
		c3.351-0.977,6.718-0.816,10.093-0.148C49.01,77.094,49.182,77.273,49.297,77.508z"/>
	<path fill="#D8D8D8" d="M38.735,77.498c0.011,3.35,0.021,6.695,0.032,10.045c-3.602,0-7.204,0-10.806,0
		c-0.008-3.35-0.016-6.697-0.023-10.047l0.005,0.004C29.831,76.066,36.916,76.064,38.735,77.498z"/>
	<path fill="#C5C5C5" d="M92.194,48.582c-3.629,0.009-7.256,0.018-10.883,0.025c-0.106-0.075-0.215-0.149-0.322-0.225
		c-0.871-3.308-1.357-6.602,0.354-9.816l-0.009-0.009c0.418-0.446,0.866-0.822,1.521-0.869c2.602-0.188,5.201-0.189,7.803,0.001
		c0.654,0.048,1.103,0.424,1.513,0.878l-0.01-0.003C92.171,41.904,92.183,45.242,92.194,48.582z"/>
	<path fill="#EFEFEF" d="M92.17,38.569c-3.61-0.003-7.224-0.008-10.836-0.011c0.006-3.208,0.015-6.416,0.021-9.623
		c3.604,0.002,7.209,0.004,10.813,0.006C92.169,32.151,92.169,35.36,92.17,38.569z"/>
	<path fill="#DDDDDD" d="M70.538,67.883c-0.014,3.205-0.025,6.412-0.037,9.617c-3.48-0.002-6.961-0.002-10.439-0.002l-0.03,0.021
		c-0.267-0.289-0.664-0.572-0.692-0.938c-0.24-2.982-0.843-5.992,0.488-8.889c2.251-1.424,4.755-0.662,7.148-0.787
		c1.215-0.063,2.553-0.223,3.478,0.943L70.538,67.883z"/>
	<path fill="#FEFEFE" d="M27.937,48.593c0.01-3.332,0.019-6.664,0.028-9.995c0.347-0.402,0.697-0.828,1.273-0.856
		c3.142-0.155,6.293-0.568,9.401,0.317c0.242,0.125,0.435,0.303,0.578,0.535c0.762,3.428,1.111,6.846-0.26,10.218
		c-2.334,1.357-4.893,0.617-7.351,0.738c-1.274,0.063-2.679,0.258-3.664-0.952L27.937,48.593z"/>
	<path fill="#CBCBCB" d="M38.788,38.567c-3.608,0.01-7.215,0.021-10.823,0.031c-0.009-3.225-0.018-6.45-0.026-9.674
		c3.616-0.001,7.231-0.002,10.847-0.002l-0.009-0.003c0.364,0.376,0.769,0.727,0.829,1.298c0.246,2.359,0.259,4.718-0.005,7.076
		C39.54,37.836,39.258,38.269,38.788,38.567z"/>
	<path fill="#9F9F9F" d="M81.323,58.217c-3.609,0.004-7.219,0.008-10.829,0.01c-0.106-0.066-0.216-0.135-0.323-0.203
		c-1.14-3.105-0.872-6.229-0.135-9.361c0.133-0.231,0.316-0.411,0.551-0.54c3.117-0.937,6.286-0.484,9.441-0.348
		c0.578,0.025,0.935,0.455,1.301,0.837l-0.018-0.003C81.315,51.809,81.319,55.012,81.323,58.217z"/>
	<path fill="#E8E8E8" d="M70.452,67.85c-3.461,0.004-6.922,0.008-10.385,0.01c-0.112-0.07-0.225-0.143-0.336-0.215
		c-1.017-3.242-1.162-6.467,0.164-9.67c2.531-1.184,8.867-1.037,10.608,0.242l-0.011,0.01C70.481,61.434,70.467,64.643,70.452,67.85
		z"/>
	<path fill="#E6E6E6" d="M60.035,28.914c0.005,3.215,0.009,6.43,0.014,9.644c-0.067,0.108-0.137,0.216-0.206,0.324
		c-0.463,0.439-1.045,0.6-1.648,0.59c-2.971-0.048-5.971,0.527-8.892-0.445c-0.234-0.131-0.416-0.313-0.548-0.546
		c-0.917-2.717-0.501-5.494-0.361-8.256c0.029-0.575,0.458-0.934,0.823-1.315c0,0-0.019,0.001-0.02,0
		C52.81,28.912,56.422,28.913,60.035,28.914z"/>
	<path fill="#DDDDDD" d="M60.049,38.558c3.481,0,6.964-0.001,10.444-0.002l-0.001,0.005c0.446,0.415,0.819,0.863,0.87,1.518
		c0.183,2.333,0.183,4.664,0,6.996c-0.051,0.655-0.426,1.102-0.866,1.521l0.019,0.017c-0.246,0.217-0.463,0.563-0.768,0.602
		c-3.309,0.414-6.631,0.963-9.868-0.402c-1.254-2.396-1.147-8.502,0.179-10.26L60.049,38.558z"/>
	<path fill="#D8D8D8" d="M70.496,48.597c-0.002-3.345-0.003-6.689-0.004-10.036c3.616,0.002,7.233,0.003,10.851,0.005
		c-0.004,3.348-0.009,6.695-0.014,10.043C77.72,48.606,74.106,48.602,70.496,48.597z"/>
	<path fill="#BEBEBE" d="M27.941,67.863c0.003-3.209,0.005-6.418,0.008-9.627l-0.004-0.002c0.285-0.277,0.538-0.699,0.926-0.729
		c3.356-0.258,6.73-0.822,10.025,0.418c0.85,0.918,0.876,2.078,0.848,3.213c-0.055,2.191,0.357,4.42-0.453,6.561
		c-0.122,0.244-0.297,0.441-0.527,0.59c-3.198,1.025-6.455,0.549-9.698,0.355c-0.503-0.031-0.786-0.469-1.124-0.785L27.941,67.863z"
		/>
	<path fill="#EBEBEB" d="M38.772,58.213c-3.609,0.008-7.218,0.016-10.828,0.021c-0.001-3.213-0.001-6.426-0.003-9.638
		c3.592,0,7.185,0,10.777,0c0.113,0.059,0.225,0.118,0.338,0.178c1.13,3.073,1.067,6.153,0.041,9.239
		C38.99,58.078,38.881,58.146,38.772,58.213z"/>
	<path fill="#D1D1D1" d="M27.942,67.857c3.618,0.004,7.235,0.008,10.853,0.014c0.472,0.307,0.753,0.742,0.813,1.299
		c0.253,2.324,0.234,4.652,0.011,6.979c-0.056,0.58-0.445,0.951-0.802,1.344c0,0-0.081,0.008-0.082,0.008
		c-3.598,0-7.195,0.002-10.793,0.002C27.942,74.287,27.942,71.072,27.942,67.857z"/>
	<path fill="#FEFEFE" d="M49.216,28.91c0.001,3.201,0.001,6.402,0.002,9.603c-0.204,0.173,0.111,0.008-0.103,0.169
		c-1.753,1.317-8.561,1.228-10.346-0.135l0.02,0.02c-0.004-3.216-0.008-6.433-0.012-9.649C42.256,28.915,45.736,28.912,49.216,28.91
		z"/>
	<path fill="#DEDEDE" d="M60.067,67.859c-0.012,3.221-0.024,6.441-0.037,9.66c-3.578-0.004-7.156-0.008-10.733-0.014l-0.16-0.014
		c-0.32-0.42-0.744-0.793-0.751-1.373c-0.038-2.83-0.758-5.713,0.621-8.438c0.753-0.633,1.664-0.752,2.597-0.777
		c1.983-0.055,3.969-0.055,5.951,0.002c0.94,0.027,1.86,0.115,2.493,0.953H60.067z"/>
	<path fill="#A0A0A0" d="M49.204,67.865c-0.022,3.209-0.045,6.418-0.067,9.627c-3.44,0-6.88,0-10.32,0
		c-0.007-3.207-0.015-6.416-0.022-9.623c0,0.002-0.01,0.012-0.01,0.012c0.24-0.223,0.421-0.59,0.737-0.635
		c3.17-0.447,6.347-0.896,9.469,0.287C49.061,67.643,49.132,67.756,49.204,67.865z"/>
	<path fill="#CBCBCB" d="M38.769,38.547c3.483-0.011,6.966-0.022,10.449-0.034l-0.006,0.09c0.236,0.234,0.604,0.424,0.643,0.747
		c0.393,3.161,0.929,6.335-0.416,9.419c-2.25,1.412-4.75,0.656-7.141,0.777c-1.209,0.061-2.555,0.242-3.46-0.954l-0.117,0.004
		C38.736,45.246,38.752,41.897,38.769,38.547z"/>
	<path fill="#C9C9C9" d="M60.058,48.595c3.485,0.007,6.971,0.013,10.457,0.02c-0.002,3.2-0.006,6.401-0.01,9.603
		c-3.48,0.004-6.964,0.008-10.445,0.012c-0.106-0.068-0.215-0.135-0.322-0.201c-1.047-3.078-1.045-6.154-0.002-9.23
		C59.843,48.729,59.949,48.66,60.058,48.595z"/>
	<path fill="#B7B7B7" d="M60.048,67.859c-3.615,0.002-7.23,0.004-10.844,0.006l0.01,0.018c-0.36-0.383-0.786-0.738-0.818-1.309
		c-0.159-2.746-0.526-5.502,0.325-8.209c0.123-0.24,0.301-0.432,0.529-0.574c3.192-0.998,6.44-0.541,9.679-0.342
		c0.502,0.031,0.782,0.467,1.114,0.789l0.017-0.01C60.056,61.438,60.051,64.648,60.048,67.859z"/>
	<path fill="#C6C6C6" d="M49.217,48.597c-0.001-3.333-0.003-6.664-0.004-9.995c3.613-0.017,7.229-0.034,10.845-0.052
		c0,3.348,0,6.695,0,10.042l-0.004,0.002c-0.246,0.215-0.432,0.581-0.746,0.622c-3.307,0.436-6.617,0.877-9.873-0.294
		C49.362,48.814,49.29,48.707,49.217,48.597z"/>
	<path fill="#CFCFCF" d="M49.223,58.227c-0.005,3.219-0.007,6.438-0.009,9.654c-3.477,0-6.953,0-10.429,0
		c-0.004-3.225-0.008-6.447-0.012-9.668c0-0.002-0.008,0.01-0.008,0.01c0.384-0.355,0.736-0.766,1.308-0.82
		c2.625-0.256,5.252-0.264,7.876,0.002C48.495,57.461,48.93,57.746,49.223,58.227z"/>
	<path fill="#BCBCBC" d="M49.223,58.227c-3.487,0-6.973-0.002-10.458-0.004c0.024-3.211,0.048-6.422,0.073-9.63
		c3.46,0,6.92,0.002,10.38,0.004h-0.001c0.445,0.411,0.815,0.86,0.868,1.517c0.179,2.199,0.181,4.396,0,6.598
		c-0.053,0.652-0.425,1.102-0.867,1.521L49.223,58.227z"/>
	<path fill="#CACACA" d="M49.217,58.232c0-3.213-0.001-6.428-0.001-9.636c3.611,0,7.225-0.002,10.838-0.002
		c-0.004,3.214-0.008,6.427-0.011,9.644C56.433,58.236,52.824,58.232,49.217,58.232z"/>
	<path fill="#B5B5B5" d="M8.713,20.271c0.474,0.033,0.961,0.001,1.434-0.025c2.399-0.132,4.909,0.632,7.169-0.782
		c1.246-2.919,0.898-5.913,0.484-8.903C14.342,13.359,11.281,16.628,8.713,20.271z"/>
	<g>
		<path fill="#E3E3E3" d="M60.09,94.341c0.01-2.275,0.021-4.551,0.03-6.825c-0.08-0.109-0.159-0.217-0.239-0.326
			c-3.131-1.215-6.358-0.545-9.553-0.467c-0.524,0.014-1,0.313-1.398,0.68c-1.191,2.766-0.727,5.625-0.477,8.464
			C52.469,95.83,56.367,95.306,60.09,94.341z"/>
	</g>
	<g>
		<path fill="#BDBDBD" d="M70.504,87.539l-0.021-0.006c-0.924-1.166-2.264-1.018-3.482-0.955c-2.398,0.127-4.906-0.633-7.164,0.781
			c-1.093,2.35-0.9,4.774-0.655,7.198c3.988-0.951,7.785-2.394,11.318-4.271C70.501,89.371,70.503,88.455,70.504,87.539z"/>
	</g>
	<g>
		<path fill="#D2D2D2" d="M76.528,86.489c-1.409,0.034-2.825,0.181-4.229,0.132c-0.744-0.025-1.433,0.248-2.021,0.727
			c-0.445,1.155-0.71,2.313-0.825,3.471C71.94,89.574,74.311,88.13,76.528,86.489z"/>
	</g>
	<path fill="#C5C5C5" d="M81.365,77.533c-0.07-0.113-0.139-0.227-0.211-0.342c-2.87-1.301-5.891-0.494-8.844-0.605
		c-0.744-0.029-1.438,0.242-2.027,0.725c-1.242,3.324-1.131,6.664-0.114,10.014c0.111,0.07,0.224,0.145,0.334,0.215
		c1.512-0.001,3.024-0.001,4.536-0.002c2.249-1.535,4.358-3.258,6.31-5.144C81.354,80.773,81.359,79.153,81.365,77.533z"/>
	<path fill="#E6E6E6" d="M81.125,77.318c-0.859,1.992-0.963,4.019-0.814,6.055c2.295-2.089,4.383-4.398,6.237-6.894
		c-1.266,0.051-2.534,0.152-3.798,0.161C82.138,76.645,81.604,76.947,81.125,77.318z"/>
	<path fill="#C5C5C5" d="M80.47,69.367c-0.197,2.191-0.18,4.381-0.012,6.572c0.05,0.648,0.4,1.109,0.846,1.529l0.063,0.064
		c1.458-0.002,2.917-0.004,4.376-0.006c2.329-2.961,4.315-6.2,5.903-9.663c-3.441,0.003-6.885,0.007-10.326,0.011
		C80.772,68.223,80.524,68.742,80.47,69.367z"/>
	<g>
		<path fill="#C2C2C2" d="M91.808,67.514c1.457-3.246,2.561-6.682,3.27-10.262c-1.104,0.007-2.213,0.034-3.143,0.814
			C90.86,61.221,90.739,64.371,91.808,67.514z"/>
	</g>
	<g>
		<path fill="#A9A9A9" d="M96,48.417c-1.722-1.288-1.095-1.266-3.648-0.078c-1.332,3.197-1.184,6.423-0.168,9.662
			c0.111,0.072,0.224,0.143,0.336,0.215c0.788,0.001,1.576,0.002,2.364,0.003c0.689-3.144,1.074-6.4,1.114-9.741"/>
		<path fill="#A9A9A9" d="M102.934,48.593c0,0.001,0,0.003,0,0.005c0.006,0.004,0.014,0.008,0.02,0.012L102.934,48.593z"/>
	</g>
	<path fill="#C0C0C0" d="M76.444,9.243c-1.99-0.002-3.981-0.005-5.971-0.008l0.021,0.012c-0.909,0.692-0.944,1.702-0.965,2.706
		c-0.055,2.46-0.049,4.92,0.046,7.378c-0.103,2.452-0.111,4.908-0.036,7.361c0.027,0.907-0.07,1.887,0.736,2.589
		c3.013,1.147,6.137,0.499,9.216,0.556c0.735,0.014,1.429-0.229,2.022-0.701c0.693-0.825,0.768-1.824,0.787-2.833
		c0.045-2.338,0.045-4.675-0.047-7.012c0.064-1.645,0.074-3.29,0.065-4.935C80.504,12.499,78.54,10.788,76.444,9.243z"/>
	<path fill="#CACACA" d="M45.034,0c-2.126,0.131-4.21,0.411-6.253,0.811C38.77,3.63,38.76,6.449,38.748,9.267
		c0.072,0.106,0.144,0.212,0.215,0.317c2.315,1.223,4.808,0.47,7.216,0.624c0.972,0.062,2.008,0.095,2.834-0.635
		c0.068-0.107,0.137-0.215,0.204-0.323c0-3.211-0.282-6.039-0.28-9.25"/>
	<path fill="#C7C7C7" d="M49,0c-1.334,1.757-1.211,7.097,0.053,9.485c3.116,1.414,6.384,0.594,9.593,0.621
		c0.611,0.006,1.14-0.304,1.619-0.675c1.151-2.542,0.938-5.154,0.599-7.769C57.692,0.783,54.396,0.209,50.997,0"/>
	<g>
		<path fill="#A7A7A7" d="M63.685,10.209c2.203-0.118,4.498,0.567,6.592-0.646c0.066-0.109,0.132-0.218,0.197-0.328
			c0-1.252,0-2.504,0-3.756c-3.264-1.731-6.75-3.097-10.406-4.043c0.005,2.595,0.01,5.191,0.016,7.786
			c0.063,0.11,0.126,0.221,0.189,0.332C61.281,10.428,62.528,10.271,63.685,10.209z"/>
	</g>
	<path fill="#EBEBEB" d="M95.998,37.525v9.793c-0.039-3.327-0.426-6.568-1.109-9.699c-1.134,0.127-2.16,0.354-2.879,0.694
		c-1.335,3.331-1.147,6.687-0.168,10.056c0.111,0.073,0.224,0.145,0.334,0.22c1.272,0.002,2.545,0.006,3.817,0.008
		c0.001-0.04,0.005-0.08,0.005-0.12v0.12"/>
	<g>
		<path fill="#E3E3E3" d="M92.105,28.952c-0.082,0.051-0.164,0.102-0.245,0.155c-1.06,3.082-1.036,6.165-0.019,9.25
			c0.106,0.07,0.214,0.14,0.319,0.21c0.975,0.001,1.95,0.001,2.925,0.002C94.427,35.225,93.42,32.007,92.105,28.952z"/>
	</g>
	<path fill="#DADADA" d="M86.534,19.291c-1.732,0.002-3.465,0.003-5.197,0.005c-0.009,3.204-0.018,6.408-0.025,9.612
		c0.069,0.111,0.142,0.222,0.213,0.333c3.26,1.2,6.578,0.729,9.889,0.319c0.296-0.037,0.482-0.355,0.709-0.571
		C90.636,25.526,88.754,22.276,86.534,19.291z"/>
	<path fill="#C1C1C1" d="M81.336,13.375c0,1.973,0.001,3.946,0.002,5.919c0.983,1.209,2.386,1.013,3.658,0.95
		c0.749-0.037,1.506,0.011,2.264,0.053C85.504,17.806,83.522,15.486,81.336,13.375z"/>
	<g>
		<path fill="#C9C9C9" d="M69.445,4.964c0.035,1.752,0.328,3.487,0.893,4.536c2.396,1.063,4.876,0.84,7.352,0.688
			C75.139,8.178,72.376,6.429,69.445,4.964z"/>
	</g>
	<g>
		<path fill="#E3E3E3" d="M27.933,9.232c0.071,0.113,0.144,0.225,0.216,0.339c0.409,0.37,0.902,0.542,1.44,0.573
			c2.567,0.149,5.134,0.166,7.699-0.012c0.67-0.046,1.28-0.291,1.785-0.755c1.206-2.847,0.706-5.784,0.439-8.701
			c-4.056,0.728-7.935,1.963-11.57,3.645C27.939,5.958,27.936,7.595,27.933,9.232z"/>
	</g>
	<path fill="#ECECEC" d="M17.104,19.286c0.075,0.112,0.148,0.223,0.223,0.336c0.418,0.375,0.923,0.537,1.469,0.566
		c2.539,0.139,5.08,0.157,7.619-0.012c0.681-0.046,1.302-0.288,1.816-0.759c1.242-3.021,0.679-6.132,0.437-9.221
		c-0.032-0.394-0.448-0.643-0.724-0.929l-0.011-0.035c-2.773,0.005-5.546,0.009-8.319,0.014c-0.862,0.635-1.696,1.305-2.513,1.996
		C17.103,13.923,17.103,16.605,17.104,19.286z"/>
	<g>
		<path fill="#CACACA" d="M27.005,10.019c0.462-0.035,0.877-0.308,1.225-0.637c0.776-1.811,0.844-3.659,0.729-5.516
			c-3.731,1.622-7.214,3.704-10.382,6.176C21.373,10.518,24.191,10.234,27.005,10.019z"/>
	</g>
	<path fill="#D7D7D7" d="M18.059,21.774c-0.023-0.944-0.134-1.858-0.949-2.503l-0.005,0.014c-2.524,0.003-5.048,0.007-7.573,0.011
		c-1.035,1.392-2.001,2.836-2.883,4.338c0,1.758,0,3.516,0,5.274c0.002,3.214,0.004,6.427,0.005,9.64
		c3.479-0.001,6.958-0.002,10.437-0.003c0.973-0.468,0.918-1.398,0.952-2.246c0.099-2.458,0.067-4.919-0.022-7.379
		C18.114,26.539,18.119,24.157,18.059,21.774z"/>
	<g>
		<path fill="#FBFBFB" d="M6.914,29.258c0.885-2.383,1.047-4.771,0.677-7.165c-1.576,2.467-2.935,5.086-4.044,7.833
			C4.676,29.844,5.799,29.655,6.914,29.258z"/>
	</g>
	<g>
		<path fill="#E6E6E6" d="M6.665,38.564c0.109-0.074,0.22-0.147,0.33-0.221c1.17-2.879,0.691-5.825,0.334-8.761
			c-0.041-0.336-0.374-0.528-0.681-0.674c-0.888,0.002-1.777,0.003-2.665,0.005c-1.323,3.066-2.346,6.292-3.008,9.649
			C2.872,38.563,4.768,38.563,6.665,38.564z"/>
	</g>
	<g>
		<path fill="#C9C9C9" d="M4.307,49.551c0.938-0.027,1.848-0.158,2.598-0.797c1.118-3.479,1.246-6.952-0.069-10.416
			c-1.855-0.74-3.734-0.911-5.623-0.85c-0.742,3.354-1.146,6.833-1.146,10.41c0,0.563,0.023,1.119,0.042,1.677
			C1.509,49.592,2.908,49.589,4.307,49.551z"/>
		<polygon fill="#C9C9C9" points="-4.19,38.561 -4.178,38.549 -4.178,38.548 		"/>
	</g>
	<g>
		<path fill="#B8B8B8" d="M6.914,58.564c1.219-3.24,1.061-6.49,0.081-9.745c-0.112-0.074-0.223-0.146-0.335-0.22
			c-2.192,0-4.384,0.001-6.575,0.001c0.053,3.673,0.518,7.245,1.352,10.674C3.275,59.323,5.106,59.207,6.914,58.564z"/>
	</g>
	<g>
		<path fill="#CDCDCD" d="M6.889,68.031c1.335-2.982,0.776-6.061,0.434-9.123c-0.037-0.33-0.365-0.535-0.666-0.689
			c-1.822,0-3.643,0.001-5.464,0.001c0.812,3.698,2.041,7.24,3.651,10.565C5.581,68.72,6.286,68.542,6.889,68.031z"/>
	</g>
	<path fill="#BEBEBE" d="M17.11,67.854c-3.484,0.004-6.967,0.006-10.45,0.01c0,1.432,0,2.863-0.001,4.295
		c1.097,1.867,2.317,3.651,3.648,5.346c2.263,0.001,4.526,0.003,6.789,0.004c0.108-0.066,0.215-0.135,0.323-0.201
		c1.052-3.08,1.035-6.162,0.01-9.246C17.323,67.992,17.216,67.922,17.11,67.854z"/>
	<g>
		<path fill="#E3E3E3" d="M6.978,68.072c-0.108-0.066-0.216-0.133-0.324-0.199c-0.743-0.001-1.485-0.001-2.228-0.002
			c0.955,2.082,2.054,4.083,3.286,5.992C7.88,71.932,7.642,70.002,6.978,68.072z"/>
	</g>
	<path fill="#C9C9C9" d="M17.855,76.871c-0.307,0.037-0.515,0.393-0.758,0.613l-0.001,0.023c0.012,2.359,0.025,4.717,0.039,7.074
		c1.248,1.054,2.548,2.049,3.9,2.972c2.296-0.006,4.593-0.013,6.888-0.019l0.037,0.008c1.306-1.793,1.398-7.889,0.156-10.262
		C24.746,75.93,21.295,76.451,17.855,76.871z"/>
	<path fill="#E8E8E8" d="M9.603,76.607c2.406,3.218,5.213,6.116,8.335,8.639c0.608-2.646,0.24-5.303-0.662-7.965
		C14.754,76.216,12.181,76.315,9.603,76.607z"/>
	<g>
		<path fill="#B5B5B5" d="M28.181,87.371c-1.326-1.066-2.918-0.859-4.42-0.797c-1.38,0.058-2.794-0.175-4.173-0.05
			c2.921,2.157,6.095,3.99,9.47,5.446C28.994,90.443,28.662,88.909,28.181,87.371z"/>
	</g>
	<g>
		<path fill="#DEDEDE" d="M38.793,87.527c-0.07-0.105-0.14-0.213-0.209-0.32C35.86,85.93,32.98,86.76,30.173,86.6
			c-0.724-0.043-1.462,0.074-2.042,0.613c-0.07,0.107-0.139,0.215-0.208,0.322c0.007,1.311,0.014,2.621,0.021,3.932
			c3.405,1.575,7.022,2.766,10.8,3.508C38.76,92.492,38.777,90.011,38.793,87.527z"/>
	</g>
	<path fill="#C3C3C3" d="M40.268,86.662c-0.666-0.008-1.278,0.283-1.783,0.746c-1.034,2.421-0.808,4.908-0.568,7.392
		c3.257,0.7,6.633,1.077,10.097,1.077c0.396,0,0.786-0.021,1.179-0.029c0.022-2.78,0.044-5.561,0.066-8.34
		C49.18,87.4,49.1,87.293,49.02,87.184C46.164,85.988,43.193,86.686,40.268,86.662z"/>
</g>
<g id="Layer_1">
	<g id="Layer_1_1_">
	</g>
</g>
<g id="Cross">
	<g>
		<path d="M52.229,25.041v18.815h18.039v8.113H52.229v18.989h-8.459V51.97H25.731v-8.113h18.039V25.041H52.229z"/>
	</g>
</g>
</svg>
