<?xml version="1.0" encoding="utf-8"?>
<!-- Generator: Adobe Illustrator 16.0.3, SVG Export Plug-In . SVG Version: 6.00 Build 0)  -->
<!DOCTYPE svg PUBLIC "-//W3C//DTD SVG 1.1//EN" "http://www.w3.org/Graphics/SVG/1.1/DTD/svg11.dtd">
<svg version="1.1" id="Layer_1" xmlns="http://www.w3.org/2000/svg" xmlns:xlink="http://www.w3.org/1999/xlink" x="0px" y="0px"
	 width="96px" height="96px" viewBox="0 0 96 96" enable-background="new 0 0 96 96" xml:space="preserve">
<circle fill="none" cx="48" cy="48" r="48"/>
<rect x="16.467" y="14.421" width="17.985" height="17.671"/>
<g>
	<path fill="#FFFFFF" d="M25.308,19.365h-0.034l-1.91,1.031l-0.288-1.133l2.401-1.285h1.268v10.989h-1.437V19.365z"/>
</g>
<rect x="16.467" y="38.68" width="17.985" height="17.669"/>
<g>
	<path fill="#FFFFFF" d="M22.433,51.52c0.423,0.27,1.403,0.692,2.435,0.692c1.911,0,2.502-1.217,2.485-2.13
		c-0.017-1.539-1.403-2.198-2.84-2.198h-0.828v-1.116h0.828c1.082,0,2.452-0.558,2.452-1.86c0-0.879-0.558-1.657-1.927-1.657
		c-0.879,0-1.725,0.389-2.198,0.727l-0.389-1.082c0.575-0.423,1.69-0.845,2.874-0.845c2.164,0,3.145,1.285,3.145,2.621
		c0,1.133-0.676,2.096-2.029,2.586v0.034c1.353,0.271,2.452,1.285,2.452,2.823c0,1.759-1.37,3.297-4.007,3.297
		c-1.234,0-2.316-0.389-2.857-0.744L22.433,51.52z"/>
</g>
<rect x="16.467" y="64.238" width="17.985" height="17.67"/>
<g>
	<path fill="#FFFFFF" d="M22.078,78.784v-0.913l1.167-1.133c2.807-2.671,4.075-4.091,4.091-5.748c0-1.116-0.541-2.147-2.181-2.147
		c-0.998,0-1.826,0.508-2.333,0.93l-0.474-1.048c0.761-0.643,1.843-1.116,3.111-1.116c2.367,0,3.365,1.623,3.365,3.196
		c0,2.028-1.471,3.668-3.787,5.9l-0.879,0.812v0.033h4.937v1.234H22.078z"/>
</g>
<rect x="63.354" y="14.421" width="17.985" height="17.671"/>
<g>
	<path fill="#FFFFFF" d="M72.195,19.365h-0.034l-1.91,1.031l-0.288-1.133l2.401-1.285h1.268v10.989h-1.437V19.365z"/>
</g>
<rect x="63.354" y="38.68" width="17.985" height="17.669"/>
<g>
	<path fill="#FFFFFF" d="M68.966,53.227v-0.913l1.167-1.133c2.807-2.671,4.074-4.091,4.091-5.748c0-1.116-0.541-2.147-2.181-2.147
		c-0.998,0-1.826,0.507-2.333,0.93l-0.474-1.048c0.761-0.643,1.843-1.116,3.111-1.116c2.366,0,3.364,1.623,3.364,3.195
		c0,2.029-1.471,3.669-3.787,5.9l-0.88,0.813v0.033h4.938v1.234H68.966z"/>
</g>
<rect x="63.354" y="64.238" width="17.985" height="17.67"/>
<g>
	<path fill="#FFFFFF" d="M69.321,77.076c0.422,0.271,1.403,0.693,2.435,0.693c1.91,0,2.502-1.217,2.485-2.13
		c-0.018-1.539-1.403-2.198-2.841-2.198h-0.828v-1.115H71.4c1.082,0,2.451-0.559,2.451-1.86c0-0.879-0.558-1.656-1.927-1.656
		c-0.88,0-1.725,0.389-2.198,0.727l-0.389-1.082c0.575-0.423,1.69-0.846,2.874-0.846c2.164,0,3.145,1.285,3.145,2.621
		c0,1.133-0.676,2.097-2.028,2.587v0.033c1.353,0.271,2.451,1.285,2.451,2.824c0,1.758-1.369,3.296-4.007,3.296
		c-1.234,0-2.316-0.389-2.857-0.743L69.321,77.076z"/>
</g>
<path d="M36.936,51.178h15.207L47.84,55.48l3.393,3.395l10.099-10.098L51.232,38.68l-3.393,3.395l4.301,4.303H36.936"/>
</svg>
