<?xml version="1.0" encoding="utf-8"?>
<!-- Generator: Adobe Illustrator 16.0.3, SVG Export Plug-In . SVG Version: 6.00 Build 0)  -->
<!DOCTYPE svg PUBLIC "-//W3C//DTD SVG 1.1//EN" "http://www.w3.org/Graphics/SVG/1.1/DTD/svg11.dtd">
<svg version="1.1" id="Layer_1" xmlns="http://www.w3.org/2000/svg" xmlns:xlink="http://www.w3.org/1999/xlink" x="0px" y="0px"
	 width="96px" height="96px" viewBox="0 0 96 96" enable-background="new 0 0 96 96" xml:space="preserve">
<path fill-rule="evenodd" clip-rule="evenodd" fill="none" stroke="#000000" stroke-width="0.5" stroke-linecap="round" stroke-linejoin="round" stroke-miterlimit="10" d="
	M9.51,51.096c1.039,0,2.077,0,3.116,0"/>
<path fill-rule="evenodd" clip-rule="evenodd" fill="none" stroke="#000000" stroke-width="0.5" stroke-linecap="round" stroke-linejoin="round" stroke-miterlimit="10" d="
	M83.429,51.096c1.041,0,2.078,0,3.116,0"/>
<path fill-rule="evenodd" clip-rule="evenodd" fill="none" stroke="#000000" stroke-width="2" stroke-linecap="round" stroke-linejoin="round" stroke-miterlimit="10" d="
	M47.903,86.619c0,1.039,0,2.08,0,3.117"/>
<g id="Layer_1_1_">
</g>
<g id="Layer_2">
	<path fill="none" d="M96.1,48.098c0,26.498-21.49,47.988-47.994,47.988c-26.51,0-48-21.49-48-47.988
		c0-26.507,21.49-47.998,48-47.998C74.609,0.1,96.1,21.59,96.1,48.098z"/>
</g>
<path fill-rule="evenodd" clip-rule="evenodd" fill="none" stroke="#666666" stroke-width="3" stroke-linecap="round" stroke-linejoin="round" stroke-miterlimit="10" d="
	M86.296,57.703c-0.58,2.283-0.974,4.641-1.786,6.84c-1.468,3.973-3.487,7.688-6.195,10.98c-3.809,4.631-8.36,8.334-13.834,10.844
	c-3.338,1.533-6.819,2.566-10.462,3.154c-2.702,0.436-5.406,0.6-8.11,0.432c-4.387-0.275-8.62-1.246-12.732-2.92
	c-5.306-2.16-9.829-5.361-13.679-9.525c-2.977-3.221-5.31-6.85-7.059-10.93c-1.443-3.363-2.371-6.818-2.875-10.379
	c-0.36-2.537-0.459-5.164-0.257-7.717c0.543-6.835,2.647-13.199,6.553-18.932c4.084-5.994,9.383-10.547,15.968-13.567
	c3.289-1.51,6.736-2.483,10.333-3.049c2.789-0.438,5.582-0.609,8.36-0.413c4.293,0.304,8.462,1.267,12.477,2.927
	c5.414,2.24,10.047,5.559,13.927,9.889c2.804,3.126,5.033,6.625,6.694,10.548c1.375,3.247,2.434,6.565,2.854,9.997
	c0.354,2.895,0.092,5.879,0.062,8.829c-0.009,0.914-0.154,1.828-0.238,2.742"/>
<path fill-rule="evenodd" clip-rule="evenodd" fill="none" stroke="#000000" stroke-linecap="round" stroke-linejoin="round" stroke-miterlimit="10" d="
	M36.558,80.887c0.616-1.584,0.094-3.063-1.496-4.238c-1.023-0.756-2.723-0.645-3.739,0.25c-1.826,1.604-2.025,3.707-0.498,5.234
	c1.545,1.545,3.964,1.326,5.48-0.502c0.153-0.184,0.253-0.412,0.378-0.621"/>
<path fill-rule="evenodd" clip-rule="evenodd" fill="none" stroke="#000000" stroke-linecap="round" stroke-linejoin="round" stroke-miterlimit="10" d="
	M59.498,81.137c1.369,1.912,2.744,2.432,4.611,1.744c2.087-0.77,2.824-3.582,1.372-5.234c-1.224-1.393-2.836-1.881-4.113-1.246
	c-1.633,0.809-2.424,2.639-1.995,4.609"/>
<path fill-rule="evenodd" clip-rule="evenodd" fill="none" stroke="#000000" stroke-miterlimit="10" d="M33.317,23.322
	c0.931,2.425,2.652,3.308,4.862,2.493c2.086-0.769,2.823-3.582,1.37-5.235c-1.295-1.475-2.2-1.777-3.739-1.247
	c-1.524,0.526-2.429,1.795-2.498,3.49c-0.006,0.126-0.079,0.25-0.12,0.375"/>
<path fill-rule="evenodd" clip-rule="evenodd" fill="none" stroke="#000000" stroke-linecap="round" stroke-linejoin="round" stroke-miterlimit="10" d="
	M62.737,23.074c0-1.891-0.873-3.125-2.486-3.755c-1.385-0.542-2.404-0.049-3.375,0.883c-1.113,1.07-1.415,2.301-0.869,3.745
	c0.48,1.27,1.452,1.946,2.745,2.106c1.959,0.242,3.131-0.577,3.748-2.478c0.048-0.148,0.237-0.252,0.363-0.376"/>
<path fill-rule="evenodd" clip-rule="evenodd" fill="none" stroke="#000000" stroke-miterlimit="10" d="M18.734,64.434
	c-1.011,0.781-1.974,1.6-2.118,2.99c-0.166,1.611,0.707,2.961,2.243,3.492c1.787,0.615,3.237,0.146,4.237-1.371
	c0.837-1.27,0.609-2.918-0.491-4.121c-1.054-1.152-2.265-1.541-3.747-0.99"/>
<path fill-rule="evenodd" clip-rule="evenodd" fill="none" stroke="#000000" stroke-linecap="round" stroke-linejoin="round" stroke-miterlimit="10" d="
	M77.072,64.434c-1.628-0.586-3.28,0.094-4.237,1.744c-0.735,1.268-0.394,2.986,0.741,4.121c0.881,0.883,2.84,1.271,4.244,0.363
	c1.488-0.963,2.133-2.723,1.329-4.211c-0.428-0.793-1.287-1.354-1.952-2.018"/>
<path fill-rule="evenodd" clip-rule="evenodd" fill="none" stroke="#000000" stroke-linecap="round" stroke-linejoin="round" stroke-miterlimit="10" d="
	M19.482,37.034c2.783,1.489,5.197-0.446,5.368-2.617c0.125-1.58-1.043-3.229-2.75-3.744c-1.337-0.404-2.753,0.233-3.737,1.751
	c-0.86,1.326-0.617,3.103,0.495,4.111c0.174,0.159,0.333,0.332,0.5,0.498"/>
<path fill-rule="evenodd" clip-rule="evenodd" fill="none" stroke="#000000" stroke-linecap="round" stroke-linejoin="round" stroke-miterlimit="10" d="
	M76.823,36.909c2.248-2.316,1.677-5.12-1.245-6.107c-1.55-0.524-2.798,0-3.865,1.62c-0.719,1.089-0.661,2.778,0.125,3.739
	c1.217,1.487,2.78,1.768,4.86,0.873"/>
<path fill-rule="evenodd" clip-rule="evenodd" fill="none" stroke="#666666" stroke-width="3" stroke-linecap="round" stroke-linejoin="round" stroke-miterlimit="10" d="
	M51.894,12.603c-0.301-2.244-0.848-4.381-2.618-5.983c-0.939-0.849-1.805-0.849-2.745,0c-1.768,1.602-2.315,3.739-2.618,5.983"/>
<path fill-rule="evenodd" clip-rule="evenodd" fill="none" stroke="#666666" stroke-width="3" stroke-linecap="round" stroke-linejoin="round" stroke-miterlimit="10" d="
	M92.528,50.225c0.092,2.102-0.38,4.049-1.486,5.863c-1.197,1.961-2.757,2.496-4.621,1.488"/>
<path fill-rule="evenodd" clip-rule="evenodd" fill="none" stroke="#666666" stroke-width="3" stroke-linecap="square" stroke-linejoin="round" stroke-miterlimit="10" d="
	M3.527,50.225c-0.09,2.102,0.38,4.049,1.487,5.863c1.197,1.961,2.757,2.496,4.621,1.488"/>
<path fill-rule="evenodd" clip-rule="evenodd" fill="none" stroke="#000000" stroke-width="2" stroke-linecap="round" stroke-linejoin="round" stroke-miterlimit="10" d="
	M76.698,37.159c1.792,3.265,2.789,6.767,3.117,10.452"/>
<path fill-rule="evenodd" clip-rule="evenodd" fill="none" stroke="#000000" stroke-width="2" stroke-linecap="round" stroke-linejoin="round" stroke-miterlimit="10" d="
	M19.357,37.159c-1.792,3.265-2.789,6.767-3.116,10.452"/>
<path fill-rule="evenodd" clip-rule="evenodd" fill="none" stroke="#000000" stroke-width="2" stroke-linecap="round" stroke-linejoin="round" stroke-miterlimit="10" d="
	M47.903,20.581c0,3.448,0,6.897,0,10.345"/>
<path fill-rule="evenodd" clip-rule="evenodd" fill="none" stroke="#000000" stroke-linecap="round" stroke-linejoin="round" stroke-miterlimit="10" d="
	M48.028,31.051c1.679-0.054,2.805,0.886,3.457,2.26c0.583,1.231,0.446,2.529-0.585,3.601c-1.06,1.1-3.396,1.538-4.744,0.871
	c-1.191-0.591-2.105-2.291-1.859-3.613c0.273-1.475,1.526-3.01,3.482-3.118"/>
<path fill-rule="evenodd" clip-rule="evenodd" fill="none" stroke="#000000" stroke-linecap="round" stroke-linejoin="round" stroke-miterlimit="10" d="
	M48.028,63.686c1.679-0.053,2.805,0.887,3.457,2.262c0.583,1.23,0.446,2.527-0.585,3.598c-1.06,1.102-3.396,1.539-4.744,0.871
	c-1.191-0.59-2.105-2.289-1.859-3.611c0.273-1.477,1.526-3.012,3.482-3.119"/>
<path fill-rule="evenodd" clip-rule="evenodd" fill="none" stroke="#000000" stroke-miterlimit="10" d="M27.833,51.221
	c0.089,2.016,1.046,3.105,2.871,3.471c1.862,0.369,3.252-0.547,3.86-2.35c0.637-1.885-0.291-3.688-2.244-4.36
	c-1.731-0.594-3.564,0.319-4.237,2.118c-0.125,0.332-0.25,0.664-0.374,0.996"/>
<path fill-rule="evenodd" clip-rule="evenodd" fill="none" stroke="#000000" stroke-linecap="round" stroke-linejoin="round" stroke-miterlimit="10" d="
	M61.242,51.221c0.09,2.016,1.048,3.105,2.872,3.471c1.861,0.369,3.252-0.547,3.859-2.35c0.637-1.885-0.292-3.688-2.244-4.36
	c-1.73-0.594-3.563,0.319-4.237,2.118c-0.124,0.332-0.25,0.664-0.374,0.996"/>
<path fill-rule="evenodd" clip-rule="evenodd" fill="none" stroke="#000000" stroke-width="2" stroke-linecap="round" stroke-linejoin="round" stroke-miterlimit="10" d="
	M33.068,23.198c-2.354,0.731-4.139,2.363-5.963,3.887c-1.348,1.127-2.513,2.47-3.759,3.716"/>
<path fill-rule="evenodd" clip-rule="evenodd" fill="none" stroke="#000000" stroke-width="2" stroke-linecap="round" stroke-linejoin="round" stroke-miterlimit="10" d="
	M62.987,23.198c2.354,0.731,4.139,2.363,5.963,3.887c1.348,1.127,2.513,2.47,3.761,3.716"/>
<path fill-rule="evenodd" clip-rule="evenodd" fill="none" stroke="#000000" stroke-linecap="round" stroke-linejoin="round" stroke-miterlimit="10" d="
	M48.028,13.352c2.358,0.077,4.183,2.664,3.255,4.865c-0.518,1.225-1.662,2.025-3.128,2.122c-1.549,0.103-2.606-0.688-3.35-1.89
	c-0.637-1.027-0.264-2.771,0.599-3.73c0.647-0.719,1.371-1.277,2.375-1.368"/>
<path fill-rule="evenodd" clip-rule="evenodd" fill="none" stroke="#000000" stroke-width="2" stroke-linecap="round" stroke-linejoin="round" stroke-miterlimit="10" d="
	M47.903,38.28c0,3.116,0,6.23,0,9.331"/>
<path fill-rule="evenodd" clip-rule="evenodd" fill="none" stroke="#000000" stroke-width="2" stroke-linecap="round" stroke-linejoin="round" stroke-miterlimit="10" d="
	M16.241,54.961c0.298,3.275,1.159,6.395,2.618,9.348"/>
<path fill-rule="evenodd" clip-rule="evenodd" fill="none" stroke="#000000" stroke-width="2" stroke-linecap="round" stroke-linejoin="round" stroke-miterlimit="10" d="
	M79.815,54.961c-0.297,3.275-1.159,6.395-2.618,9.348"/>
<path fill-rule="evenodd" clip-rule="evenodd" fill="none" stroke="#000000" stroke-width="2" stroke-linecap="round" stroke-linejoin="round" stroke-miterlimit="10" d="
	M35.062,51.096c2.992,0,5.983,0,8.975,0"/>
<path fill-rule="evenodd" clip-rule="evenodd" fill="none" stroke="#000000" stroke-width="2" stroke-linecap="round" stroke-linejoin="round" stroke-miterlimit="10" d="
	M52.019,51.096c2.992,0,5.984,0,8.975,0"/>
<path fill-rule="evenodd" clip-rule="evenodd" fill="none" stroke="#000000" stroke-width="2" stroke-linecap="round" stroke-linejoin="round" stroke-miterlimit="10" d="
	M47.903,54.961c0,2.867,0,5.734,0,8.6"/>
<path fill-rule="evenodd" clip-rule="evenodd" fill="none" stroke="#000000" stroke-width="2" stroke-linecap="round" stroke-linejoin="round" stroke-miterlimit="10" d="
	M47.903,70.916c0,2.783,0,5.566,0,8.352"/>
<path fill-rule="evenodd" clip-rule="evenodd" fill="none" stroke="#000000" stroke-width="2" stroke-linecap="round" stroke-linejoin="round" stroke-miterlimit="10" d="
	M22.598,70.666c2.053,2.795,4.598,5.068,7.478,6.98"/>
<path fill-rule="evenodd" clip-rule="evenodd" fill="none" stroke="#000000" stroke-width="2" stroke-linecap="round" stroke-linejoin="round" stroke-miterlimit="10" d="
	M73.457,70.666c-2.053,2.795-4.598,5.068-7.478,6.98"/>
<path fill-rule="evenodd" clip-rule="evenodd" fill="none" stroke="#000000" stroke-width="2" stroke-linecap="round" stroke-linejoin="round" stroke-miterlimit="10" d="
	M36.808,81.01c2.404,0.963,4.877,1.629,7.479,1.746"/>
<path fill-rule="evenodd" clip-rule="evenodd" fill="none" stroke="#000000" stroke-width="2" stroke-linecap="round" stroke-linejoin="round" stroke-miterlimit="10" d="
	M59.25,81.01c-2.405,0.963-4.88,1.629-7.48,1.746"/>
<path fill-rule="evenodd" clip-rule="evenodd" fill="none" stroke="#000000" stroke-width="2" stroke-linecap="round" stroke-linejoin="round" stroke-miterlimit="10" d="
	M20.105,51.096c2.493,0,4.986,0,7.479,0"/>
<path fill-rule="evenodd" clip-rule="evenodd" fill="none" stroke="#000000" stroke-width="2" stroke-linecap="round" stroke-linejoin="round" stroke-miterlimit="10" d="
	M68.473,51.096c2.492,0,4.984,0,7.479,0"/>
<path fill-rule="evenodd" clip-rule="evenodd" fill="none" stroke="#000000" stroke-width="2" stroke-linecap="round" stroke-linejoin="round" stroke-miterlimit="10" d="
	M45.158,19.333c-1.038,0.208-2.083,0.393-3.114,0.632c-0.715,0.166-1.414,0.407-2.121,0.615"/>
<path fill-rule="evenodd" clip-rule="evenodd" fill="none" stroke="#000000" stroke-width="2" stroke-linecap="round" stroke-linejoin="round" stroke-miterlimit="10" d="
	M56.132,20.581c-1.286-0.291-2.577-0.576-3.862-0.875c-0.462-0.107-0.916-0.246-1.372-0.372"/>
<path fill-rule="evenodd" clip-rule="evenodd" fill="none" stroke="#000000" stroke-linecap="round" stroke-linejoin="round" stroke-miterlimit="10" d="
	M51.77,51.221c-0.055,2.1-1.247,3.598-3.866,3.568c-2.314-0.027-3.503-1.418-3.617-3.443c-0.091-1.623,0.979-2.564,2.136-3.337
	c0.959-0.641,2.957-0.259,3.858,0.462c0.865,0.692,1.293,1.618,1.613,2.625"/>
<path fill-rule="evenodd" clip-rule="evenodd" fill="none" stroke="#000000" stroke-linecap="round" stroke-linejoin="round" stroke-miterlimit="10" d="
	M76.199,51.221c0.087,1.959,0.992,3.076,2.871,3.473c1.826,0.387,3.249-0.541,3.86-2.352c0.609-1.805-0.31-3.701-2.119-4.36
	c-1.752-0.637-3.68,0.295-4.362,2.118c-0.124,0.332-0.25,0.664-0.374,0.996"/>
<path fill-rule="evenodd" clip-rule="evenodd" fill="none" stroke="#000000" stroke-linecap="round" stroke-linejoin="round" stroke-miterlimit="10" d="
	M19.856,51.221c-0.085,1.959-0.99,3.076-2.871,3.473c-1.825,0.387-3.25-0.541-3.86-2.352c-0.61-1.805,0.31-3.701,2.119-4.36
	c1.753-0.637,3.68,0.295,4.363,2.118c0.124,0.332,0.25,0.664,0.374,0.996"/>
<path fill-rule="evenodd" clip-rule="evenodd" fill="none" stroke="#000000" stroke-linecap="round" stroke-linejoin="round" stroke-miterlimit="10" d="
	M51.521,82.881c-0.085,1.959-0.991,3.076-2.871,3.473c-1.829,0.385-3.253-0.543-3.865-2.352c-0.61-1.807,0.311-3.699,2.119-4.361
	c1.758-0.643,3.686,0.295,4.369,2.117c0.122,0.332,0.248,0.666,0.373,0.998"/>
<path fill-rule="evenodd" clip-rule="evenodd" fill="none" stroke="#000000" stroke-width="0.5" stroke-linecap="round" stroke-linejoin="round" stroke-miterlimit="10" d="
	M47.903,50.598c-0.434-0.484-1.023-0.898-1.449-0.219c-0.263,0.418-0.263,1.268,0,1.686c0.426,0.68,1.015,0.264,1.449-0.221"/>
<path fill-rule="evenodd" clip-rule="evenodd" fill="none" stroke="#000000" stroke-width="0.5" stroke-linecap="round" stroke-linejoin="round" stroke-miterlimit="10" d="
	M64.857,50.598c-0.432-0.484-1.019-0.898-1.446-0.219c-0.264,0.418-0.264,1.268,0,1.686c0.428,0.68,1.015,0.264,1.446-0.221"/>
<path fill-rule="evenodd" clip-rule="evenodd" fill="none" stroke="#000000" stroke-width="0.5" stroke-linecap="round" stroke-linejoin="round" stroke-miterlimit="10" d="
	M31.448,50.598c-0.432-0.484-1.019-0.898-1.447-0.219c-0.262,0.418-0.262,1.268,0,1.686c0.428,0.68,1.015,0.264,1.447-0.221"/>
<path fill-rule="evenodd" clip-rule="evenodd" fill="none" stroke="#000000" stroke-width="0.5" stroke-linecap="round" stroke-linejoin="round" stroke-miterlimit="10" d="
	M62.863,66.801c0.58-0.014,1.241,0.172,1.575-0.871c-0.554-0.172-1.105-0.342-1.824-0.564c0,0.934,0,1.684,0,2.434"/>
<path fill-rule="evenodd" clip-rule="evenodd" fill="none" stroke="#000000" stroke-width="0.5" stroke-linecap="round" stroke-linejoin="round" stroke-miterlimit="10" d="
	M30.45,66.801c0.58-0.014,1.242,0.172,1.575-0.871c-0.554-0.172-1.105-0.342-1.824-0.564c0,0.934,0,1.684,0,2.434"/>
<path fill-rule="evenodd" clip-rule="evenodd" fill="none" stroke="#000000" stroke-width="0.5" stroke-linecap="round" stroke-linejoin="round" stroke-miterlimit="10" d="
	M36.683,22.7c0.579-0.013,1.242,0.171,1.575-0.874c-0.554-0.171-1.105-0.342-1.824-0.563c0,0.933,0,1.684,0,2.433"/>
<path fill-rule="evenodd" clip-rule="evenodd" fill="none" stroke="#000000" stroke-width="0.5" stroke-linecap="round" stroke-linejoin="round" stroke-miterlimit="10" d="
	M46.654,67.301c0.581-0.014,1.245,0.172,1.579-0.875c-0.555-0.17-1.109-0.34-1.828-0.563c0,0.934,0,1.684,0,2.434"/>
<path fill-rule="evenodd" clip-rule="evenodd" fill="none" stroke="#000000" stroke-width="0.5" stroke-linecap="round" stroke-linejoin="round" stroke-miterlimit="10" d="
	M48.903,16.218c-0.583-0.723-1.302-0.788-1.699,0.024c-0.234,0.482-0.306,1.383,0.465,1.679c0.322,0.124,0.82-0.208,1.234-0.332
	c-0.166-0.208-0.332-0.416-0.499-0.624"/>
<path fill-rule="evenodd" clip-rule="evenodd" fill="none" stroke="#000000" stroke-width="0.5" stroke-linecap="round" stroke-linejoin="round" stroke-miterlimit="10" d="
	M58.875,22.948c0.579-0.012,1.241,0.173,1.574-0.873c-0.553-0.171-1.105-0.341-1.824-0.564c0,0.934,0,1.684,0,2.435"/>
<path fill-rule="evenodd" clip-rule="evenodd" fill="none" stroke="#000000" stroke-width="0.5" stroke-linecap="round" stroke-linejoin="round" stroke-miterlimit="10" d="
	M49.9,84.002c-0.42,0-0.839,0-1.399,0c0.554-0.799,0.998-1.443,1.552-2.244c-0.565,0-0.982,0-1.397,0"/>
<path fill-rule="evenodd" clip-rule="evenodd" fill="none" stroke="#000000" stroke-width="0.5" stroke-linecap="round" stroke-linejoin="round" stroke-miterlimit="10" d="
	M49.9,68.297c-0.42,0-0.839,0-1.399,0c0.554-0.799,0.998-1.443,1.552-2.244c-0.565,0-0.982,0-1.397,0"/>
<path fill-rule="evenodd" clip-rule="evenodd" fill="none" stroke="#000000" stroke-width="0.5" stroke-linecap="round" stroke-linejoin="round" stroke-miterlimit="10" d="
	M49.651,35.664c-0.421,0-0.84,0-1.401,0c0.555-0.8,1-1.445,1.553-2.246c-0.566,0-0.982,0-1.399,0"/>
<path fill-rule="evenodd" clip-rule="evenodd" fill="none" stroke="#000000" stroke-width="0.5" stroke-linecap="round" stroke-linejoin="round" stroke-miterlimit="10" d="
	M49.651,52.342c-0.421,0-0.84,0-1.401,0c0.555-0.799,1-1.443,1.553-2.242c-0.566,0-0.982,0-1.399,0"/>
<path fill-rule="evenodd" clip-rule="evenodd" fill="none" stroke="#000000" stroke-width="0.5" stroke-linecap="round" stroke-linejoin="round" stroke-miterlimit="10" d="
	M93.776,47.611c-0.339,0-0.677,0-1.28,0c0.559-0.706,0.95-1.198,1.376-1.734c-0.429-0.563-0.761-0.856-1.094-0.003"/>
<path fill-rule="evenodd" clip-rule="evenodd" fill="none" stroke="#000000" stroke-width="0.5" stroke-linecap="round" stroke-linejoin="round" stroke-miterlimit="10" d="
	M64.608,80.762c-0.338,0-0.676,0-1.279,0c0.559-0.709,0.95-1.205,1.376-1.742c-0.43-0.564-0.762-0.859-1.094-0.002"/>
<path fill-rule="evenodd" clip-rule="evenodd" fill="none" stroke="#000000" stroke-width="0.5" stroke-linecap="round" stroke-linejoin="round" stroke-miterlimit="10" d="
	M61.866,23.946c-0.337,0-0.676,0-1.28,0c0.561-0.708,0.95-1.205,1.377-1.742c-0.43-0.565-0.762-0.861-1.094-0.004"/>
<path fill-rule="evenodd" clip-rule="evenodd" fill="none" stroke="#000000" stroke-width="0.5" stroke-linecap="round" stroke-linejoin="round" stroke-miterlimit="10" d="
	M77.571,66.801c-0.273-0.096-0.545-0.191-0.935-0.328c0,0.871,0,1.533,0,2.26c0.312,0,0.561,0,0.803,0
	c0.107-1.074,0.107-1.074-0.616-0.934"/>
<path fill-rule="evenodd" clip-rule="evenodd" fill="none" stroke="#000000" stroke-width="0.5" stroke-linecap="round" stroke-linejoin="round" stroke-miterlimit="10" d="
	M22.224,35.413c0.256-0.704,0.511-1.408,0.815-2.243c-0.398,0-0.731,0-1.063,0"/>
<path fill-rule="evenodd" clip-rule="evenodd" fill="none" stroke="#666666" stroke-width="3" stroke-linecap="square" stroke-linejoin="round" stroke-miterlimit="10" d="
	M9.76,43.641c-1.021-0.495-2.048-0.828-3.118-0.125"/>
<path fill-rule="evenodd" clip-rule="evenodd" fill="none" stroke="#666666" stroke-width="3" stroke-linecap="square" stroke-linejoin="round" stroke-miterlimit="10" d="
	M89.413,43.515c-1.07-0.703-2.098-0.369-3.117,0.125"/>
<path fill-rule="evenodd" clip-rule="evenodd" fill="none" stroke="#000000" stroke-width="0.5" stroke-linecap="round" stroke-linejoin="round" stroke-miterlimit="10" d="
	M75.452,34.043c-0.222,0.611-0.363,1.18,0.866,1.108c-0.039-0.377-0.079-0.743-0.119-1.108"/>
<path fill-rule="evenodd" clip-rule="evenodd" fill="none" stroke="#000000" stroke-width="0.5" stroke-linecap="round" stroke-linejoin="round" stroke-miterlimit="10" d="
	M76.075,33.917c0.512-0.803,0.297-1.09-0.639-0.94c-0.174,0.563-0.255,0.995,0.515,0.94"/>
<path fill-rule="evenodd" clip-rule="evenodd" fill="none" stroke="#000000" stroke-width="0.5" stroke-linecap="round" stroke-linejoin="round" stroke-miterlimit="10" d="
	M21.726,66.553c-0.291,0-0.582,0-0.935,0c0,0.289,0,0.58,0,0.951c0.226,0.027,0.522,0.064,0.873,0.105c0,0.396,0,0.729,0,1.266
	c-0.39-0.137-0.663-0.232-0.935-0.328"/>
<path fill-rule="evenodd" clip-rule="evenodd" fill="none" stroke="#000000" stroke-width="0.5" stroke-linecap="round" stroke-linejoin="round" stroke-miterlimit="10" d="
	M74.829,32.92c-0.458,0-0.914,0-1.496,0c0,0.743,0,1.493,0,2.244"/>
<path fill-rule="evenodd" clip-rule="evenodd" fill="none" stroke="#000000" stroke-width="0.5" stroke-linecap="round" stroke-linejoin="round" stroke-miterlimit="10" d="
	M35.935,21.453c-0.457,0-0.914,0-1.496,0c0,0.743,0,1.493,0,2.243"/>
<path fill-rule="evenodd" clip-rule="evenodd" fill="none" stroke="#000000" stroke-width="0.5" stroke-linecap="round" stroke-linejoin="round" stroke-miterlimit="10" d="
	M58.125,21.702c-0.456,0-0.912,0-1.493,0c0,0.744,0,1.494,0,2.244"/>
<path fill-rule="evenodd" clip-rule="evenodd" fill="none" stroke="#000000" stroke-width="0.5" stroke-linecap="round" stroke-linejoin="round" stroke-miterlimit="10" d="
	M21.477,33.17c-0.458,0-0.915,0-1.496,0c0,0.743,0,1.493,0,2.243"/>
<path fill-rule="evenodd" clip-rule="evenodd" fill="none" stroke="#000000" stroke-width="0.5" stroke-linecap="round" stroke-linejoin="round" stroke-miterlimit="10" d="
	M34.688,33.418c-0.457,0-0.914,0-1.496,0c0,0.745,0,1.495,0,2.246"/>
<path fill-rule="evenodd" clip-rule="evenodd" fill="none" stroke="#000000" stroke-width="0.5" stroke-linecap="round" stroke-linejoin="round" stroke-miterlimit="10" d="
	M47.903,33.418c-0.459,0-0.916,0-1.498,0c0,0.745,0,1.495,0,2.246"/>
<path fill-rule="evenodd" clip-rule="evenodd" fill="none" stroke="#000000" stroke-width="0.5" stroke-linecap="round" stroke-linejoin="round" stroke-miterlimit="10" d="
	M61.616,33.418c-0.456,0-0.912,0-1.496,0c0,0.745,0,1.495,0,2.246"/>
<path fill-rule="evenodd" clip-rule="evenodd" fill="none" stroke="#000000" stroke-width="0.5" stroke-linecap="round" stroke-linejoin="round" stroke-miterlimit="10" d="
	M63.112,35.664c0-0.625,0-1.247,0-2.195c-0.437,0.543-0.732,0.912-1.163,1.447c0.456,0,0.746,0,1.038,0"/>
<path fill-rule="evenodd" clip-rule="evenodd" fill="none" stroke="#000000" stroke-width="0.5" stroke-linecap="round" stroke-linejoin="round" stroke-miterlimit="10" d="
	M75.078,66.801c0,0.666,0,1.332,0,1.996"/>
<path fill-rule="evenodd" clip-rule="evenodd" fill="none" stroke="#000000" stroke-width="0.5" stroke-linecap="round" stroke-linejoin="round" stroke-miterlimit="10" d="
	M19.232,66.801c0,0.666,0,1.332,0,1.996"/>
<path fill-rule="evenodd" clip-rule="evenodd" fill="none" stroke="#000000" stroke-width="0.5" stroke-linecap="round" stroke-linejoin="round" stroke-miterlimit="10" d="
	M66.354,52.342c0-0.623,0-1.246,0-2.193c-0.438,0.543-0.734,0.912-1.164,1.447c0.455,0,0.747,0,1.037,0"/>
<path fill-rule="evenodd" clip-rule="evenodd" fill="none" stroke="#000000" stroke-width="0.5" stroke-linecap="round" stroke-linejoin="round" stroke-miterlimit="10" d="
	M78.817,50.348c0,0.666,0,1.33,0,1.994"/>
<path fill-rule="evenodd" clip-rule="evenodd" fill="none" stroke="#000000" stroke-width="0.5" stroke-linecap="round" stroke-linejoin="round" stroke-miterlimit="10" d="
	M81.31,52.342c0-0.623,0-1.246,0-2.193c-0.436,0.543-0.732,0.912-1.162,1.447c0.456,0,0.747,0,1.039,0"/>
<path fill-rule="evenodd" clip-rule="evenodd" fill="none" stroke="#000000" stroke-width="0.5" stroke-linecap="round" stroke-linejoin="round" stroke-miterlimit="10" d="
	M15.493,50.598c0,0.666,0,1.33,0,1.994"/>
<path fill-rule="evenodd" clip-rule="evenodd" fill="none" stroke="#000000" stroke-width="0.5" stroke-linecap="round" stroke-linejoin="round" stroke-miterlimit="10" d="
	M65.854,67.799c0-0.623,0-1.246,0-2.193c-0.436,0.543-0.733,0.912-1.163,1.445c0.456,0,0.747,0,1.038,0"/>
<path fill-rule="evenodd" clip-rule="evenodd" fill="none" stroke="#000000" stroke-width="0.5" stroke-linecap="round" stroke-linejoin="round" stroke-miterlimit="10" d="
	M34.19,78.768c0.166,0.166,0.451,0.316,0.476,0.502c0.067,0.49,0.023,0.992,0.023,1.492"/>
<path fill-rule="evenodd" clip-rule="evenodd" fill="none" stroke="#000000" stroke-width="0.5" stroke-linecap="round" stroke-linejoin="round" stroke-miterlimit="10" d="
	M38.677,21.702c0.166,0.167,0.45,0.317,0.476,0.503c0.068,0.488,0.022,0.993,0.022,1.491"/>
<path fill-rule="evenodd" clip-rule="evenodd" fill="none" stroke="#000000" stroke-width="0.5" stroke-linecap="round" stroke-linejoin="round" stroke-miterlimit="10" d="
	M5.022,45.625c0.167,0.165,0.45,0.315,0.477,0.5c0.067,0.485,0.022,0.988,0.022,1.485"/>
<path fill-rule="evenodd" clip-rule="evenodd" fill="none" stroke="#000000" stroke-width="0.5" stroke-linecap="round" stroke-linejoin="round" stroke-miterlimit="10" d="
	M32.445,65.805c0.272-0.096,0.545-0.191,0.873-0.307c0,0.846,0,1.51,0,2.357c-0.328-0.115-0.601-0.211-0.873-0.307"/>
<path fill-rule="evenodd" clip-rule="evenodd" fill="none" stroke="#000000" stroke-width="0.5" stroke-linecap="round" stroke-linejoin="round" stroke-miterlimit="10" d="
	M16.989,50.598c0.273-0.096,0.544-0.191,0.872-0.305c0,0.844,0,1.508,0,2.355c-0.328-0.113-0.599-0.209-0.872-0.307"/>
<path fill-rule="evenodd" clip-rule="evenodd" fill="none" stroke="#000000" stroke-width="0.5" stroke-linecap="round" stroke-linejoin="round" stroke-miterlimit="10" d="
	M35.188,33.668c0.272-0.096,0.544-0.191,0.872-0.307c0,0.846,0,1.511,0,2.358c-0.328-0.115-0.6-0.211-0.872-0.307"/>
<path fill-rule="evenodd" clip-rule="evenodd" fill="none" stroke="#000000" stroke-width="0.5" stroke-linecap="round" stroke-linejoin="round" stroke-miterlimit="10" d="
	M31.946,50.348c0.273-0.096,0.545-0.189,0.873-0.307c0,0.848,0,1.512,0,2.359c-0.328-0.115-0.6-0.211-0.873-0.307"/>
<path fill-rule="evenodd" clip-rule="evenodd" fill="none" stroke="#000000" stroke-width="0.5" stroke-linecap="round" stroke-linejoin="round" stroke-miterlimit="10" d="
	M73.583,33.917c0.332,0,0.665,0,0.997,0"/>
<path fill-rule="evenodd" clip-rule="evenodd" fill="none" stroke="#000000" stroke-width="0.5" stroke-linecap="round" stroke-linejoin="round" stroke-miterlimit="10" d="
	M33.442,34.417c0.333,0,0.665,0,0.997,0"/>
<path fill-rule="evenodd" clip-rule="evenodd" fill="none" stroke="#000000" stroke-width="0.5" stroke-linecap="round" stroke-linejoin="round" stroke-miterlimit="10" d="
	M34.688,22.451c0.333,0,0.665,0,0.997,0"/>
<path fill-rule="evenodd" clip-rule="evenodd" fill="none" stroke="#000000" stroke-width="0.5" stroke-linecap="round" stroke-linejoin="round" stroke-miterlimit="10" d="
	M3.527,45.378c0.333,0.743,0.665,1.488,0.998,2.232"/>
<path fill-rule="evenodd" clip-rule="evenodd" fill="none" stroke="#000000" stroke-width="0.5" stroke-linecap="round" stroke-linejoin="round" stroke-miterlimit="10" d="
	M3.403,45.75c-0.291,0.619-0.582,1.239-0.873,1.86"/>
<path fill-rule="evenodd" clip-rule="evenodd" fill="none" stroke="#000000" stroke-width="0.5" stroke-linecap="round" stroke-linejoin="round" stroke-miterlimit="10" d="
	M46.654,34.417c0.333,0,0.665,0,0.999,0"/>
<path fill-rule="evenodd" clip-rule="evenodd" fill="none" stroke="#000000" stroke-width="0.5" stroke-linecap="round" stroke-linejoin="round" stroke-miterlimit="10" d="
	M20.229,66.553c-0.665,0-1.33,0-1.995,0"/>
<path fill-rule="evenodd" clip-rule="evenodd" fill="none" stroke="#000000" stroke-width="0.5" stroke-linecap="round" stroke-linejoin="round" stroke-miterlimit="10" d="
	M20.229,34.167c0.333,0,0.665,0,0.997,0"/>
<path fill-rule="evenodd" clip-rule="evenodd" fill="none" stroke="#000000" stroke-width="0.5" stroke-linecap="round" stroke-linejoin="round" stroke-miterlimit="10" d="
	M16.491,50.348c-0.666,0-1.33,0-1.995,0"/>
<path fill-rule="evenodd" clip-rule="evenodd" fill="none" stroke="#000000" stroke-width="0.5" stroke-linecap="round" stroke-linejoin="round" stroke-miterlimit="10" d="
	M60.37,34.417c0.334,0,0.665,0,0.998,0"/>
<path fill-rule="evenodd" clip-rule="evenodd" fill="none" stroke="#000000" stroke-width="0.5" stroke-linecap="round" stroke-linejoin="round" stroke-miterlimit="10" d="
	M91.158,45.75c-0.291,0.619-0.581,1.239-0.873,1.86"/>
<path fill-rule="evenodd" clip-rule="evenodd" fill="none" stroke="#000000" stroke-width="0.5" stroke-linecap="round" stroke-linejoin="round" stroke-miterlimit="10" d="
	M79.815,50.1c-0.665,0-1.33,0-1.995,0"/>
<path fill-rule="evenodd" clip-rule="evenodd" fill="none" stroke="#000000" stroke-width="0.5" stroke-linecap="round" stroke-linejoin="round" stroke-miterlimit="10" d="
	M56.88,22.7c0.333,0,0.664,0,0.997,0"/>
<path fill-rule="evenodd" clip-rule="evenodd" fill="none" stroke="#000000" stroke-width="0.5" stroke-linecap="round" stroke-linejoin="round" stroke-miterlimit="10" d="
	M76.075,66.553c-0.664,0-1.329,0-1.994,0"/>
<path fill-rule="evenodd" clip-rule="evenodd" fill="none" stroke="#000000" stroke-width="0.5" stroke-linecap="round" stroke-linejoin="round" stroke-miterlimit="10" d="
	M91.282,45.378c0.332,0.743,0.665,1.488,0.997,2.232"/>
<path fill-rule="evenodd" clip-rule="evenodd" fill="none" stroke="#000000" stroke-miterlimit="10" d="M31.323,63.188
	c-1.286,0.482-2.363,1.113-2.766,2.609c-0.45,1.674-0.1,2.908,1.398,3.867c1.351,0.865,3.046,0.6,3.979-0.127
	c1.35-1.055,1.677-2.266,1.128-3.857c-0.552-1.604-1.816-2.475-3.614-2.492"/>
<path fill-rule="evenodd" clip-rule="evenodd" fill="none" stroke="#000000" stroke-linecap="round" stroke-linejoin="round" stroke-miterlimit="10" d="
	M63.736,63.188c-1.288,0.482-2.363,1.113-2.768,2.609c-0.449,1.674-0.1,2.908,1.398,3.867c1.351,0.865,3.047,0.6,3.979-0.127
	c1.351-1.055,1.677-2.266,1.129-3.857c-0.552-1.604-1.817-2.475-3.615-2.492"/>
<path fill-rule="evenodd" clip-rule="evenodd" fill="none" stroke="#000000" stroke-width="0.5" stroke-linecap="round" stroke-linejoin="round" stroke-miterlimit="10" d="
	M32.32,78.52c-0.124,0.082-0.292,0.137-0.367,0.252c-0.452,0.697-0.343,1.781,0.25,1.967c0.506,0.156,1.029,0.021,1.24-0.6
	c0.246-0.725-0.143-1.357-0.998-1.619"/>
<path fill-rule="evenodd" clip-rule="evenodd" fill="none" stroke="#000000" stroke-linecap="round" stroke-linejoin="round" stroke-miterlimit="10" d="
	M60.993,31.051c-1.285,0.482-2.364,1.113-2.766,2.61c-0.449,1.672-0.101,2.907,1.398,3.867c1.351,0.863,3.047,0.598,3.978-0.129
	c1.352-1.053,1.678-2.265,1.13-3.855c-0.554-1.604-1.817-2.474-3.615-2.493"/>
<path fill-rule="evenodd" clip-rule="evenodd" fill="none" stroke="#000000" stroke-miterlimit="10" d="M34.065,31.051
	c-1.286,0.482-2.364,1.113-2.766,2.61c-0.45,1.672-0.1,2.907,1.398,3.867c1.351,0.863,3.046,0.598,3.98-0.129
	c1.349-1.053,1.676-2.265,1.127-3.855c-0.553-1.604-1.816-2.474-3.615-2.493"/>
<path fill-rule="evenodd" clip-rule="evenodd" fill="none" stroke="#000000" stroke-width="0.5" stroke-linecap="round" stroke-linejoin="round" stroke-miterlimit="10" d="
	M46.78,81.758c-0.126,0.084-0.293,0.139-0.367,0.254c-0.452,0.699-0.344,1.783,0.249,1.967c0.506,0.158,1.031,0.023,1.242-0.598
	c0.248-0.725-0.142-1.359-1-1.623"/>
<path fill-rule="evenodd" clip-rule="evenodd" fill="none" stroke="#000000" stroke-width="0.5" stroke-linecap="round" stroke-linejoin="round" stroke-miterlimit="10" d="
	M61.742,78.52c-0.126,0.082-0.293,0.137-0.368,0.252c-0.451,0.697-0.343,1.781,0.249,1.967c0.508,0.156,1.029,0.021,1.241-0.6
	c0.245-0.725-0.143-1.357-0.998-1.619"/>
<path fill-rule="evenodd" clip-rule="evenodd" fill="none" stroke="#000000" stroke-width="0.5" stroke-linecap="round" stroke-linejoin="round" stroke-miterlimit="10" d="
	M2.875,46.875c0.431,0.072,0.9,0.102,1.313,0"/>
<path fill-rule="evenodd" clip-rule="evenodd" fill="none" stroke="#000000" stroke-width="0.5" stroke-linecap="round" stroke-linejoin="round" stroke-miterlimit="10" d="
	M90.813,46.813c0.178,0,0.818-0.042,1.063,0.063"/>
<path fill-rule="evenodd" clip-rule="evenodd" fill="none" stroke="#000000" stroke-width="0.5" stroke-linecap="round" stroke-linejoin="round" stroke-miterlimit="10" d="
	M3.652,49.973c2.744,0.307,4.174-1.925,3.992-3.603c-0.187-1.713-1.532-3.13-3.246-3.34c-1.58-0.193-3.269,1.142-3.725,2.972
	c-0.39,1.559,0.594,3.116,2.228,3.729c0.223,0.084,0.418,0.242,0.625,0.369"/>
<path fill-rule="evenodd" clip-rule="evenodd" fill="none" stroke="#000000" stroke-linecap="round" stroke-linejoin="round" stroke-miterlimit="10" d="
	M92.652,49.973c1.53-0.496,2.586-1.4,2.746-3.106c0.181-1.933-1.589-3.731-3.367-3.849c-1.688-0.109-3.538,1.603-3.627,3.476
	c-0.08,1.726,1.342,3.543,3.501,3.487c0.207-0.006,0.416,0.078,0.623,0.119"/>
</svg>
