<?xml version="1.0" encoding="utf-8"?>
<!-- Generator: Adobe Illustrator 16.0.3, SVG Export Plug-In . SVG Version: 6.00 Build 0)  -->
<!DOCTYPE svg PUBLIC "-//W3C//DTD SVG 1.1//EN" "http://www.w3.org/Graphics/SVG/1.1/DTD/svg11.dtd">
<svg version="1.1" id="Layer_1" xmlns="http://www.w3.org/2000/svg" xmlns:xlink="http://www.w3.org/1999/xlink" x="0px" y="0px"
	 width="96px" height="96px" viewBox="0 0 96 96" enable-background="new 0 0 96 96" xml:space="preserve">
<circle fill="none" cx="48" cy="49" r="48"/>
<path fill="none" stroke="#000000" stroke-width="2" stroke-miterlimit="10" d="M9.842,60.957c2.348-36.102,7.053,5.347,9.567-1.012
	c3.155-19.896,6.076,12.685,9.198-1.773c1.436-17.23,3.748-43.331,5.199-43.783c2.122-0.661,6.514,29.577,8.617,41.747
	c7.906,39.6,12.693-5.841,20.576,2.279c9.14,16.844,18.303-24.484,27.377,2.461"/>
<line fill="none" stroke="#999999" stroke-miterlimit="10" x1="6.292" y1="62.655" x2="93.67" y2="62.534"/>
<rect x="29.5" y="32.835" opacity="0.7" fill="#999999" width="32.282" height="29.699"/>
<path fill="#663333" d="M89.059,59.461"/>
<line fill="none" stroke="#666666" stroke-miterlimit="10" stroke-dasharray="4" x1="62.175" y1="10.383" x2="62.054" y2="87.213"/>
<line fill="none" stroke="#666666" stroke-miterlimit="10" stroke-dasharray="4" x1="29.175" y1="10.383" x2="29.054" y2="87.213"/>
</svg>
