<?xml version="1.0" encoding="utf-8"?>
<!-- Generator: Adobe Illustrator 16.0.3, SVG Export Plug-In . SVG Version: 6.00 Build 0)  -->
<!DOCTYPE svg PUBLIC "-//W3C//DTD SVG 1.1//EN" "http://www.w3.org/Graphics/SVG/1.1/DTD/svg11.dtd">
<svg version="1.1" xmlns="http://www.w3.org/2000/svg" xmlns:xlink="http://www.w3.org/1999/xlink" x="0px" y="0px" width="96px"
	 height="96px" viewBox="0 0 96 96" enable-background="new 0 0 96 96" xml:space="preserve">
<g id="Layer_1">
	<rect x="18.438" y="64.525" width="59.187" height="19.453"/>
	<rect x="22.369" y="67.405" fill="#666666" stroke="#666666" stroke-miterlimit="10" width="14.173" height="13.922"/>
	<rect x="41.102" y="67.405" fill="#666666" stroke="#666666" stroke-miterlimit="10" width="14.174" height="13.922"/>
	<rect x="59.832" y="67.405" fill="#666666" stroke="#666666" stroke-miterlimit="10" width="14.171" height="13.922"/>
	<g>
		<rect x="22.186" y="12.033" width="14.173" height="13.922"/>
		<rect x="40.914" y="12.033" width="14.173" height="13.922"/>
		<rect x="59.644" y="12.033" width="14.171" height="13.922"/>
	</g>
	<path d="M45.4,31.997v16.499l-4.664-4.679l-3.679,3.693L48,58.452L58.941,47.51l-3.678-3.693l-4.663,4.677V31.997"/>
	<circle fill="none" cx="48" cy="48" r="48"/>
</g>
<g id="Layer_2" display="none">
	<path display="inline" fill="none" stroke="#000000" stroke-width="0.1" stroke-miterlimit="10" d="M96.1,48.098
		c0,26.498-21.49,47.988-47.994,47.988c-26.51,0-48-21.49-48-47.988c0-26.507,21.49-47.998,48-47.998
		C74.609,0.1,96.1,21.59,96.1,48.098z"/>
</g>
</svg>
