<?xml version="1.0" encoding="utf-8"?>
<!-- Generator: Adobe Illustrator 16.0.3, SVG Export Plug-In . SVG Version: 6.00 Build 0)  -->
<!DOCTYPE svg PUBLIC "-//W3C//DTD SVG 1.1//EN" "http://www.w3.org/Graphics/SVG/1.1/DTD/svg11.dtd">
<svg version="1.1" id="Layer_1" xmlns="http://www.w3.org/2000/svg" xmlns:xlink="http://www.w3.org/1999/xlink" x="0px" y="0px"
	 width="96px" height="96px" viewBox="0 0 96 96" enable-background="new 0 0 96 96" xml:space="preserve">
<g id="Layer_1_1_">
</g>
<circle fill="none" cx="48" cy="47.8" r="48"/>
<g>
	<polygon points="39.513,84.059 32.511,80.834 32.511,72.773 39.513,75.998 	"/>
	<polygon points="47.591,88.086 41.128,84.859 41.128,76.805 47.591,80.027 	"/>
	<polygon points="39.513,74.387 32.511,71.162 32.511,63.104 39.513,66.326 	"/>
	<polygon points="47.591,78.416 41.128,75.193 41.128,67.133 47.591,70.355 	"/>
	<polygon points="56.486,84.059 63.488,80.834 63.488,72.773 56.486,75.998 	"/>
	<polygon points="49.209,88.086 55.133,84.859 55.133,76.805 49.209,80.027 	"/>
	<polygon points="56.486,74.387 63.488,71.162 63.488,63.104 56.486,66.326 	"/>
	<polygon points="49.209,78.416 55.133,75.193 55.133,67.133 49.209,70.355 	"/>
	<polygon points="54.887,65.42 48.313,68.641 41.668,65.42 48.313,62.271 	"/>
	<polygon points="63.189,61.391 56.617,64.615 49.973,61.391 56.617,58.244 	"/>
	<polygon points="46.582,61.391 40.008,64.615 33.363,61.391 40.008,58.244 	"/>
	<polygon points="54.887,57.359 48.313,60.584 41.668,57.359 48.313,54.213 	"/>
</g>
<g>
	<polygon fill="#666666" points="39.513,38.457 32.511,35.232 32.511,27.171 39.513,30.397 	"/>
	<polygon fill="#666666" points="47.592,42.484 41.128,39.259 41.128,31.203 47.592,34.426 	"/>
	<polygon fill="#666666" points="39.513,28.785 32.511,25.56 32.511,17.502 39.513,20.725 	"/>
	<polygon fill="#666666" points="47.592,32.814 41.128,29.591 41.128,21.531 47.592,24.754 	"/>
	<polygon fill="#666666" points="56.486,38.457 63.488,35.232 63.488,27.171 56.486,30.397 	"/>
	<polygon fill="#666666" points="49.207,42.484 55.133,39.259 55.133,31.203 49.207,34.426 	"/>
	<polygon fill="#666666" points="56.486,28.785 63.488,25.56 63.488,17.502 56.486,20.725 	"/>
	<polygon fill="#666666" points="49.207,32.814 55.133,29.591 55.133,21.531 49.207,24.754 	"/>
	<polygon fill="#666666" points="54.887,19.817 48.313,23.04 41.668,19.817 48.313,16.67 	"/>
	<polygon fill="#666666" points="63.189,15.789 56.617,19.013 49.973,15.789 56.617,12.642 	"/>
	<polygon fill="#666666" points="46.582,15.789 40.008,19.013 33.363,15.789 40.008,12.642 	"/>
	<polygon fill="#666666" points="54.887,11.757 48.313,14.981 41.668,11.757 48.313,8.612 	"/>
</g>
<line fill="none" stroke="#000000" stroke-width="6" stroke-linecap="round" stroke-linejoin="round" stroke-miterlimit="10" x1="17.625" y1="48.119" x2="78.375" y2="48.119"/>
</svg>
