<?xml version="1.0" encoding="utf-8"?>
<!-- Generator: Adobe Illustrator 16.0.3, SVG Export Plug-In . SVG Version: 6.00 Build 0)  -->
<!DOCTYPE svg PUBLIC "-//W3C//DTD SVG 1.1//EN" "http://www.w3.org/Graphics/SVG/1.1/DTD/svg11.dtd">
<svg version="1.1" id="Layer_1" xmlns="http://www.w3.org/2000/svg" xmlns:xlink="http://www.w3.org/1999/xlink" x="0px" y="0px"
	 width="96px" height="96px" viewBox="0 0 96 96" enable-background="new 0 0 96 96" xml:space="preserve">
<g id="Layer_1_1_">
</g>
<path fill="none" d="M96.1,48.098c0,26.498-21.49,47.988-47.994,47.988c-26.51,0-48-21.49-48-47.988
	c0-26.507,21.49-47.998,48-47.998C74.609,0.1,96.1,21.59,96.1,48.098z"/>
<g>
	<path d="M48,7.566L11.204,30.343v35.313L48,88.434l36.797-22.777V30.343L48,7.566z M79.945,31.274l-11.709,7.247L36.15,18.833
		L48,11.5L79.945,31.274z M48,51.051L16.055,31.274l13.887-8.597l31.945,19.775L48,51.051z M14.551,34.276l31.776,19.673v29.516
		L14.551,63.793V34.276z M49.674,83.465V53.949l13.379-8.284v9.024l6.689-5.016v-8.147l11.707-7.249v29.517L49.674,83.465z"/>
</g>
</svg>
