<?xml version="1.0" encoding="utf-8"?>
<!-- Generator: Adobe Illustrator 16.0.3, SVG Export Plug-In . SVG Version: 6.00 Build 0)  -->
<!DOCTYPE svg PUBLIC "-//W3C//DTD SVG 1.1//EN" "http://www.w3.org/Graphics/SVG/1.1/DTD/svg11.dtd">
<svg version="1.1" id="Layer_1" xmlns="http://www.w3.org/2000/svg" xmlns:xlink="http://www.w3.org/1999/xlink" x="0px" y="0px"
	 width="96px" height="96px" viewBox="0 0 96 96" enable-background="new 0 0 96 96" xml:space="preserve">
<g id="Layer_1_1_">
</g>
<path fill="#FFFFFF" d="M96.1,48.098c0,26.498-21.49,47.988-47.994,47.988c-26.51,0-48-21.49-48-47.988
	c0-26.507,21.49-47.998,48-47.998C74.609,0.1,96.1,21.59,96.1,48.098z"/>
<path fill="none" stroke="#999999" stroke-width="6" stroke-linecap="round" stroke-linejoin="round" stroke-miterlimit="10" d="
	M6.25,75.75c0,0,10.424-57.92,71.25-69.25"/>
<path fill="none" stroke="#000000" stroke-width="3" stroke-linecap="round" stroke-linejoin="round" stroke-miterlimit="10" d="
	M83.628,24.584"/>
<path fill="#949494" d="M28.733,84.479c0.041,0.129,0.125,0.258-0.004,0.387c-0.045-0.092-0.09-0.184-0.137-0.274
	C28.64,84.551,28.687,84.516,28.733,84.479z"/>
<path fill="#CCCCCC" stroke="#231F20" stroke-width="3" stroke-linecap="round" stroke-linejoin="round" stroke-miterlimit="10" d="
	M17.255,98.422l-4.914-13.164c3.301-10.133,8.064-23.763,20.167-22.539c5.412,0.545,8.503,8.133,12.202,12.569
	c0.847,1.015,9.435,14.36,10.995,11.851c0.646-1.055-3.979-9.973-4.653-11.094c-2.542-4.254-3.74-6.895-6.752-10.84
	c-5.6-7.339-11.329-9.969-8.55-20.867c0,0,3.088-8.272,10.319-8.963c8.527-0.818,13.306,3.051,18.766,9.756
	c3.106,3.813,5.069,5.743,8.367,9.258c0.868,0.926,7.883,7.485,8.882,6.896c2.383-1.427-7.119-11.785-7.873-12.901
	c-3.285-4.847-10.139-10.79-9.838-17.028c0.67-13.954,13.074-17.44,22.266-19.756l17.887,12.652l-6.235,77.717L17.255,98.422z"/>
<path fill="#666666" d="M50.529,12.686L50.529,12.686c-1.334-3.279-0.729-6.631,1.354-7.486l5.192-2.137
	c2.091-0.856,4.872,1.108,6.217,4.386l0,0"/>
<path fill="#666666" d="M23.229,34.306L23.229,34.306c-2.517-2.496-3.264-5.818-1.672-7.422l3.977-4.002
	c1.595-1.606,4.924-0.881,7.438,1.613l0,0"/>
<path fill="#666666" d="M6.759,63.795L6.759,63.795c-3.245-1.423-5.138-4.254-4.229-6.324l2.265-5.164
	c0.91-2.07,4.274-2.594,7.521-1.172l0,0"/>
<path d="M54.699,19.616v7.556l-2.129-2.138l-1.684,1.686l4.998,5.012l5.01-5.012l-1.688-1.686l-2.135,2.139v-7.557"/>
<path d="M20.192,55.309h7.557l-2.137,2.139l1.686,1.687l5.012-5.018l-5.012-5.021l-1.686,1.688l2.139,2.139h-7.559"/>
<g>
	
		<path fill="#CCCCCC" stroke="#999999" stroke-width="3" stroke-linecap="round" stroke-linejoin="round" stroke-miterlimit="10" d="
		M98.273,101.98l6.236-77.669L86.623,11.659c-9.19,2.316-21.599,5.802-22.269,19.756c-0.301,6.239,6.556,12.158,9.839,16.983
		c0.758,1.114,10.26,11.473,7.873,12.9c-0.999,0.59-8.015-5.97-8.882-6.897c-3.299-3.514-5.263-5.443-8.367-9.238
		c-5.438-6.673-10.215-10.542-18.741-9.728c-7.213,0.691-10.291,8.937-10.291,8.937c-2.778,10.876,2.939,13.509,8.519,20.848
		c3.011,3.944,4.209,6.586,6.756,10.84c0.675,1.12,5.3,10.039,4.65,11.093c-1.56,2.512-10.148-10.835-10.996-11.85
		c-3.691-4.438-6.768-12.025-12.17-12.57c-12.102-1.223-16.866,12.406-20.167,22.54l4.914,13.164L98.273,101.98z"/>
	
		<path fill="#CCCCCC" stroke="#231F20" stroke-width="3" stroke-linecap="round" stroke-linejoin="round" stroke-miterlimit="10" d="
		M64.61,45.151c-5.438-6.659-10.215-10.528-18.741-9.713c-7.213,0.691-10.282,8.922-10.282,8.922
		c-2.778,10.876,2.93,13.509,8.51,20.848"/>
</g>
</svg>
