<?xml version="1.0" encoding="utf-8"?>
<!-- Generator: Adobe Illustrator 16.0.3, SVG Export Plug-In . SVG Version: 6.00 Build 0)  -->
<!DOCTYPE svg PUBLIC "-//W3C//DTD SVG 1.1//EN" "http://www.w3.org/Graphics/SVG/1.1/DTD/svg11.dtd">
<svg version="1.1" xmlns="http://www.w3.org/2000/svg" xmlns:xlink="http://www.w3.org/1999/xlink" x="0px" y="0px" width="96px"
	 height="96px" viewBox="0 0 96 96" enable-background="new 0 0 96 96" xml:space="preserve">
<g id="Layer_1">
</g>
<g id="Layer_2">
	<path fill="none" d="M96.1,48.098c0,26.498-21.49,47.988-47.994,47.988c-26.51,0-48-21.49-48-47.988
		c0-26.507,21.49-47.998,48-47.998C74.609,0.1,96.1,21.59,96.1,48.098z"/>
	<g>
		<path d="M49.094,34.092c12.275,0,21.897-6.652,21.897-15.144c0-8.493-9.622-15.145-21.897-15.145
			c-12.292,0-21.912,6.651-21.912,15.145C27.182,27.44,36.801,34.092,49.094,34.092z M49.094,8.6c9.268,0,17.102,4.74,17.102,10.349
			c0,5.608-7.834,10.348-17.102,10.348c-9.283,0-17.116-4.74-17.116-10.348C31.978,13.339,39.811,8.6,49.094,8.6z"/>
		<path d="M33.219,77.243l15.875,15.862L64.95,77.243L49.094,61.378L33.219,77.243z M49.094,86.325l-9.09-9.082l9.09-9.083
			l9.075,9.083L49.094,86.325z"/>
		<path d="M69.122,36.271h-40.07v22.688h40.07V36.271z M64.325,54.162H33.847V41.066h30.478V54.162z"/>
		<path d="M18.503,43.3l2.278,2.279h-1.899c-2.376-0.006-4.307-1.94-4.307-4.315v-15.98c0-2.38,1.937-4.314,4.316-4.314h7.194
			v-4.796h-7.356v0.008c-4.95,0.088-8.95,4.134-8.95,9.103v15.98c0,4.595,3.425,8.406,7.855,9.021v0.099h1.239
			c0.007,0,0.014,0,0.02,0l0,0h1.889l-2.279,2.276l2.333,2.335l7.008-7.014l-7.008-7.014L18.503,43.3z"/>
		<path d="M76.898,45.586v-0.007h-6.393v4.805h6.23c3.116,0,3.357,3.302,3.357,4.318v15.977c0,1.012-0.241,4.304-3.341,4.315h-2.865
			l2.278-2.279l-2.333-2.329l-7.008,7.007l7.008,7.007l2.333-2.331l-2.278-2.28h2.852v0.002c0.006,0,0.012-0.002,0.018-0.002h0.283
			v-0.014c4.635-0.151,7.853-3.844,7.853-9.096V54.699C84.89,49.396,81.612,45.668,76.898,45.586z"/>
	</g>
</g>
</svg>
