<?xml version="1.0" encoding="utf-8"?>
<!-- Generator: Adobe Illustrator 16.0.3, SVG Export Plug-In . SVG Version: 6.00 Build 0)  -->
<!DOCTYPE svg PUBLIC "-//W3C//DTD SVG 1.1//EN" "http://www.w3.org/Graphics/SVG/1.1/DTD/svg11.dtd">
<svg version="1.1" id="Layer_1" xmlns="http://www.w3.org/2000/svg" xmlns:xlink="http://www.w3.org/1999/xlink" x="0px" y="0px"
	 width="96px" height="96px" viewBox="0 0 96 96" enable-background="new 0 0 96 96" xml:space="preserve">
<g id="Layer_1_1_">
</g>
<circle fill="none" cx="48" cy="47.8" r="48"/>
<g>
	<g>
		<g>
			<g>
				<g>
					<g>
						<g>
							<g>
								<g>
									<path fill="none" stroke="#000000" stroke-width="3" stroke-miterlimit="10" d="M40.171,41.903
										c5.63,2.041,11.252,4.079,15.981,6.413c4.733,2.337,9.688,4.349,12.413,7.618c2.727,3.251,5.311,8.405,3.94,11.932
										c-1.367,3.531-7.121,9.073-12.151,9.232c-5.029,0.154-12.355-6.414-18.027-8.297c-5.649-1.882-10.69-2.251-15.862-3.001
										c-5.172-0.752-11.492-0.364-15.173-1.498c-3.678-1.135-5.759-2.529-6.896-5.293c-1.14-2.764-1.534-5.976,0.076-11.353
										c1.606-5.351,4.13-15.15,9.569-20.793c5.439-5.643,14.689-10.911,23.055-13.056c8.372-2.144,18.813-2.543,27.143,0.187
										c8.332,2.729,18.077,10.79,22.838,16.192c4.76,5.402,5.444,11.648,5.726,16.223c0.286,4.582-1.646,8.63-4.028,11.263
										c-2.394,2.62-7.531,3.71-10.3,4.542c-2.761,0.826-6.271,0.42-6.271,0.42"/>
								</g>
							</g>
						</g>
					</g>
				</g>
			</g>
		</g>
	</g>
</g>
<g>
	<g>
		<g>
			<g>
				<g>
					<g>
						<g>
							<g>
								<g>
									<path fill="#E7E6E6" d="M8.612,51.391c-0.196-1.784,1.088-3.385,2.87-3.582c1.776-0.193,3.377,1.087,3.571,2.873
										c0.196,1.786-1.089,3.395-2.866,3.591C10.406,54.469,8.808,53.177,8.612,51.391z"/>
								</g>
							</g>
						</g>
					</g>
				</g>
			</g>
		</g>
	</g>
</g>
<g>
	<g>
		<g>
			<g>
				<g>
					<g>
						<g>
							<g>
								<g>
									<path fill="none" stroke="#000000" stroke-miterlimit="10" d="M8.612,51.391c-0.196-1.784,1.088-3.385,2.87-3.582
										c1.776-0.193,3.377,1.087,3.571,2.873c0.196,1.786-1.089,3.395-2.866,3.591C10.406,54.469,8.808,53.177,8.612,51.391z"/>
								</g>
							</g>
						</g>
					</g>
				</g>
			</g>
		</g>
	</g>
</g>
<g>
	<g>
		<g>
			<g>
				<g>
					<g>
						<g>
							<g>
								<g>
									<path fill="#E7E6E6" d="M43.216,20.466c-0.196-1.776,1.087-3.378,2.876-3.572c1.791-0.194,3.392,1.089,3.583,2.867
										c0.194,1.78-1.08,3.382-2.875,3.575C45.012,23.531,43.412,22.248,43.216,20.466z"/>
								</g>
							</g>
						</g>
					</g>
				</g>
			</g>
		</g>
	</g>
</g>
<g>
	<g>
		<g>
			<g>
				<g>
					<g>
						<g>
							<g>
								<g>
									<path fill="none" stroke="#000000" stroke-miterlimit="10" d="M43.216,20.466c-0.196-1.776,1.087-3.378,2.876-3.572
										c1.791-0.194,3.392,1.089,3.583,2.867c0.194,1.78-1.08,3.382-2.875,3.575C45.012,23.531,43.412,22.248,43.216,20.466z"/>
								</g>
							</g>
						</g>
					</g>
				</g>
			</g>
		</g>
	</g>
</g>
<g>
	<g>
		<g>
			<g>
				<g>
					<g>
						<g>
							<g>
								<g>
									<path fill="#E7E6E6" d="M73.688,39.926c-0.198-1.781,1.092-3.379,2.87-3.577c1.779-0.194,3.379,1.09,3.572,2.87
										c0.196,1.778-1.085,3.379-2.867,3.572C75.487,42.988,73.886,41.705,73.688,39.926z"/>
								</g>
							</g>
						</g>
					</g>
				</g>
			</g>
		</g>
	</g>
</g>
<g>
	<g>
		<g>
			<g>
				<g>
					<g>
						<g>
							<g>
								<g>
									<path fill="none" stroke="#000000" stroke-miterlimit="10" d="M73.688,39.926c-0.198-1.781,1.092-3.379,2.87-3.577
										c1.779-0.194,3.379,1.09,3.572,2.87c0.196,1.778-1.085,3.379-2.867,3.572C75.487,42.988,73.886,41.705,73.688,39.926z"/>
								</g>
							</g>
						</g>
					</g>
				</g>
			</g>
		</g>
	</g>
</g>
<g>
	<g>
		<g>
			<g>
				<g>
					<g>
						<g>
							<g>
								<g>
									<path fill="#E7E6E6" d="M33.494,47.758c-0.193-1.778,1.092-3.38,2.869-3.573c1.78-0.194,3.379,1.089,3.574,2.865
										c0.193,1.781-1.087,3.386-2.868,3.58C35.291,50.824,33.69,49.538,33.494,47.758z"/>
								</g>
							</g>
						</g>
					</g>
				</g>
			</g>
		</g>
	</g>
</g>
<g>
	<g>
		<g>
			<g>
				<g>
					<g>
						<g>
							<g>
								<g>
									<path fill="none" stroke="#000000" stroke-miterlimit="10" d="M33.494,47.758c-0.193-1.778,1.092-3.38,2.869-3.573
										c1.78-0.194,3.379,1.089,3.574,2.865c0.193,1.781-1.087,3.386-2.868,3.58C35.291,50.824,33.69,49.538,33.494,47.758z"/>
								</g>
							</g>
						</g>
					</g>
				</g>
			</g>
		</g>
	</g>
</g>
<g>
	<g>
		<g>
			<g>
				<g>
					<g>
						<g>
							<g>
								<g>
									<path fill="#E7E6E6" d="M59.344,65.83c-0.195-1.779,1.089-3.378,2.864-3.576c1.783-0.197,3.384,1.081,3.578,2.872
										c0.198,1.777-1.082,3.377-2.865,3.57C61.139,68.89,59.537,67.608,59.344,65.83z"/>
								</g>
							</g>
						</g>
					</g>
				</g>
			</g>
		</g>
	</g>
</g>
<g>
	<g>
		<g>
			<g>
				<g>
					<g>
						<g>
							<g>
								<g>
									<path fill="none" stroke="#000000" stroke-miterlimit="10" d="M59.344,65.83c-0.195-1.779,1.089-3.378,2.864-3.576
										c1.783-0.197,3.384,1.081,3.578,2.872c0.198,1.777-1.082,3.377-2.865,3.57C61.139,68.89,59.537,67.608,59.344,65.83z"/>
								</g>
							</g>
						</g>
					</g>
				</g>
			</g>
		</g>
	</g>
</g>
<g>
	<g>
		<g>
			<g>
				<g>
					<g>
						<g>
							<g>
								<g>
									<path d="M41.451,29.547l2.956-6.905l-7.298,1.777L41.451,29.547z M14.584,49.359l26.274-22.243l-1.449-1.711L13.138,47.652
										L14.584,49.359z"/>
								</g>
							</g>
						</g>
					</g>
				</g>
			</g>
		</g>
	</g>
</g>
<g>
	<g>
		<g>
			<g>
				<g>
					<g>
						<g>
							<g>
								<g>
									<path d="M27.386,52.135l6.107-4.377l-7.159-2.265L27.386,52.135z M15.228,51.793l12.914-2.054l-0.35-2.214l-12.914,2.047
										L15.228,51.793z"/>
								</g>
							</g>
						</g>
					</g>
				</g>
			</g>
		</g>
	</g>
</g>
<g>
	<g>
		<g>
			<g>
				<g>
					<g>
						<g>
							<g>
								<g>
									<path d="M62.858,54.782l-0.65,7.472l-5.594-4.989L62.858,54.782z M47.854,22.925l13.335,33.729l-2.078,0.824L45.755,23.751
										L47.854,22.925z"/>
								</g>
							</g>
						</g>
					</g>
				</g>
			</g>
		</g>
	</g>
</g>
<g>
	<g>
		<g>
			<g>
				<g>
					<g>
						<g>
							<g>
								<g>
									<path d="M70.38,31.19l4.005,6.354l-7.486-0.608L70.38,31.19z M52.972,28.497l-3.985-6.354l7.466,0.607L52.972,28.497z
										 M54.334,24.086l15.84,9.6l-1.164,1.914l-15.834-9.597L54.334,24.086z"/>
								</g>
							</g>
						</g>
					</g>
				</g>
			</g>
		</g>
	</g>
</g>
</svg>
