<?xml version="1.0" encoding="utf-8"?>
<!-- Generator: Adobe Illustrator 16.0.3, SVG Export Plug-In . SVG Version: 6.00 Build 0)  -->
<!DOCTYPE svg PUBLIC "-//W3C//DTD SVG 1.1//EN" "http://www.w3.org/Graphics/SVG/1.1/DTD/svg11.dtd">
<svg version="1.1" id="Layer_1" xmlns="http://www.w3.org/2000/svg" xmlns:xlink="http://www.w3.org/1999/xlink" x="0px" y="0px"
	 width="96px" height="96px" viewBox="0 0 96 96" enable-background="new 0 0 96 96" xml:space="preserve">
<g id="Layer_1_1_">
</g>
<path d="M79.052,76.461L58.118,55.527c3.855-4.958,6.061-11.024,6.061-17.635c0-15.976-12.855-28.831-28.822-28.831
	c-15.976,0-28.831,12.854-28.831,28.831c0,15.982,12.854,28.837,28.831,28.837c6.611,0,12.855-2.204,17.62-6.061L73.91,81.604
	c1.47,1.469,3.674,1.469,5.142,0C80.338,80.135,80.338,77.931,79.052,76.461z M13.871,38.076c0-11.937,9.733-21.485,21.485-21.485
	c11.936,0,21.477,9.732,21.477,21.485c0,11.942-9.725,21.492-21.477,21.492C23.604,59.568,13.871,50.019,13.871,38.076z"/>
<g>
	<path d="M28.022,25.509c0.217,0,0.423-0.042,0.622-0.1l1.691,1.345c-1.452,0.83-2.836,2.103-4.139,3.819
		c-0.047,0.063-0.064,0.144-0.046,0.221c0.018,0.076,0.07,0.142,0.14,0.176c0.144,0.07,3.577,1.729,8.627,1.729c0,0,0,0,0,0
		c2.965,0,5.867-0.58,8.625-1.722c0.076-0.032,0.133-0.097,0.154-0.178c0.021-0.08,0.002-0.165-0.049-0.23
		c-0.107-0.135-1.865-2.301-4.54-3.729l1.845-1.467c0.231,0.082,0.477,0.135,0.736,0.135c1.225,0,2.219-0.994,2.219-2.218
		c0-1.225-0.994-2.219-2.219-2.219c-1.19,0-2.153,0.94-2.208,2.117c-0.041,0.025-0.083,0.047-0.122,0.078l-3.155,2.508
		c-0.543-0.109-1.104-0.177-1.684-0.177c-0.426,0-0.848,0.038-1.265,0.104l-3.017-2.399c0-0.004,0.001-0.009,0.001-0.013
		c0-1.225-0.993-2.219-2.219-2.219c-1.225,0-2.218,0.994-2.218,2.219C25.804,24.516,26.797,25.509,28.022,25.509z"/>
	<path d="M49.646,41.629c0.876,0,1.585-0.71,1.585-1.585c0-0.875-0.709-1.584-1.585-1.584H45.4
		c-0.146-0.693-0.344-1.364-0.593-2.006l4.351-2.441c0.763-0.428,1.034-1.394,0.607-2.157c-0.429-0.763-1.389-1.036-2.153-0.608
		l-4.378,2.455c-0.05,0.028-0.093,0.064-0.139,0.098c-6.884,2.807-12.876,1.614-16.739,0.072c-0.074-0.063-0.155-0.12-0.243-0.17
		l-4.377-2.454c-0.763-0.428-1.729-0.156-2.157,0.607c-0.428,0.764-0.156,1.729,0.607,2.157l4.377,2.455
		c0.059,0.032,0.121,0.047,0.181,0.072c-0.234,0.616-0.421,1.258-0.561,1.921h-4.38c-0.875,0-1.585,0.709-1.585,1.584
		s0.709,1.584,1.585,1.584h4.104c0.03,0.874,0.142,1.725,0.333,2.542c-0.136,0.054-0.269,0.12-0.391,0.215l-3.963,3.076
		c-0.691,0.536-0.816,1.535-0.28,2.226c0.313,0.402,0.78,0.613,1.253,0.613c0.339,0,0.682-0.108,0.971-0.333l3.548-2.756
		c1.889,3.574,5.396,5.974,9.415,5.974c3.948,0,7.406-2.315,9.316-5.787l3.307,2.568c0.289,0.226,0.63,0.333,0.971,0.333
		c0.471,0,0.936-0.21,1.249-0.612c0.536-0.692,0.411-1.69-0.28-2.227l-3.96-3.076c-0.029-0.023-0.062-0.037-0.091-0.057
		c0.213-0.864,0.341-1.768,0.373-2.699L49.646,41.629L49.646,41.629z M27.304,39.669c0-1.215,0.985-2.2,2.2-2.2s2.2,0.985,2.2,2.2
		c0,1.215-0.984,2.2-2.2,2.2C28.289,41.869,27.304,40.885,27.304,39.669z M32.725,48.716c-1.215,0-2.2-0.987-2.2-2.203
		c0-1.215,0.985-2.2,2.2-2.2c1.215,0,2.2,0.985,2.2,2.2C34.925,47.729,33.94,48.716,32.725,48.716z M40.182,43.445
		c-1.215,0-2.2-0.985-2.2-2.2c0-1.215,0.985-2.201,2.2-2.201c1.215,0,2.2,0.985,2.2,2.201C42.382,42.46,41.397,43.445,40.182,43.445
		z"/>
</g>
</svg>
