<?xml version="1.0" encoding="utf-8"?>
<!-- Generator: Adobe Illustrator 16.0.3, SVG Export Plug-In . SVG Version: 6.00 Build 0)  -->
<!DOCTYPE svg PUBLIC "-//W3C//DTD SVG 1.1//EN" "http://www.w3.org/Graphics/SVG/1.1/DTD/svg11.dtd">
<svg version="1.1" id="Layer_1" xmlns="http://www.w3.org/2000/svg" xmlns:xlink="http://www.w3.org/1999/xlink" x="0px" y="0px"
	 width="96px" height="96px" viewBox="0 0 96 96" enable-background="new 0 0 96 96" xml:space="preserve">
<g opacity="0.7">
	<rect x="8.853" y="21.269" opacity="0.5" fill="#333333" width="39.201" height="38.522"/>
	<rect x="8.853" y="21.269" fill="none" width="39.201" height="38.522"/>
</g>
<g id="Layer_1_1_">
</g>
<circle fill="none" cx="48" cy="47.8" r="48"/>
<path fill="none" stroke="#666666" stroke-width="2.0245" stroke-linecap="round" stroke-linejoin="round" d="M9.789,29.387
	l1.05-4.473l1.048-2.365l1.05,1.108l1.049,1.116l1.05,2.813l1.049,5.079l1.049,4.046l1.049-1.599l1.049-1.312l1.05,1.203
	l1.049,0.786l1.05,0.427l1.049,3.608l1.05,1.542l1.05,0.73l1.049,0.465l1.049,0.021l1.049-1.557l1.05-5.172l1.049-4.332l1.049,0.526
	l1.05,1.335l1.049-4.956l1.049-4.971l1.05,0.513l1.049,5.171l1.049,2.377l1.05-1.896l1.048-1.854l1.05,0.649l1.049,1.923
	l1.049,2.745l1.05,3.401l1.049,1.609l1.049-3.863l1.049-5.03l1.05,0.108l1.049,8.029l1.05,8.28l1.05,0.246l1.049-6.492l1.05-2.846
	l1.049-1.003l1.049,1.767l1.05,7.874l1.05,5.659l1.049-0.395l1.05-4l1.049-7.937l1.05-9.609l1.049-2.974l1.049,1.231l1.05-0.431
	l1.049,2.786l1.049,3.367l1.05,1.693l1.049-2.808l1.05-0.379l1.048,4.911l1.051,5.187l1.05-0.813l1.048-6.074l1.052-2.166
	l1.048,1.231l1.05,2.305l1.05,1.726l1.049,1.354l1.049,1.689l1.049,4.217l1.05,3.588l1.05-2.974l1.049-3.632l1.05,0.063l1.049-1.348
	l1.049-4.538l1.049,0.21l1.05,1.664l1.049-0.346l1.05-3.139"/>
<g id="matplotlib.axis2">
</g>
<line fill="none" stroke="#666666" stroke-width="1.6896" stroke-linecap="square" x1="1.167" y1="59.537" x2="96" y2="59.537"/>
<path fill="none" stroke="#231F20" stroke-width="2.0245" stroke-linecap="round" stroke-linejoin="round" d="M9.789,55.745
	l1.05-4.451l1.048-2.353l1.05,1.103l1.049,1.11l1.05,2.799l1.049,5.055l1.049,4.027l1.049-1.592l1.049-1.306l1.05,1.197l1.049,0.781
	l1.05,0.425l1.049,3.59l1.05,1.536l1.05,0.727l1.049,0.463l1.049,0.021l1.049-1.551l1.05-5.146l1.049-4.311l1.049,0.523l1.05,1.329
	l1.049-4.932l1.049-4.947l1.05,0.511l1.049,5.146l1.049,2.365l1.05-1.887l1.048-1.846l1.05,0.646l1.049,1.914l1.049,2.731
	l1.05,3.384l1.049,1.602l1.049-3.845l1.049-5.005l1.05,0.107l1.049,7.99l1.05,8.24l1.05,0.245l1.049-6.46l1.05-2.832l1.049-0.999
	l1.049,1.759l1.05,7.835l1.05,5.644l1.049-0.396l1.05-3.989l1.049-7.898l1.05-9.563l1.049-2.959l1.049,1.225l1.05-0.429l1.049,2.772
	l1.049,3.351l1.05,1.685l1.049-2.794l1.05-0.377l1.048,4.886l1.051,5.161l1.05-0.809l1.048-6.044l1.052-2.154l1.048,1.226
	l1.05,2.293l1.05,1.719l1.049,1.347l1.049,1.681l1.049,4.196l1.05,3.572l1.05-2.96l1.049-3.614l1.05,0.063l1.049-1.342l1.049-4.516
	l1.049,0.211l1.05,1.653l1.049-0.344l1.05-3.123l1.052-2.685l1.049,2.364"/>
<line fill="none" stroke="#231F20" stroke-width="5.0372" stroke-miterlimit="10" x1="8.834" y1="31.954" x2="48" y2="31.954"/>
<path d="M21.848,43.229v7.199l-2.038-2.036l-1.607,1.605l4.781,4.781l4.78-4.781l-1.607-1.605l-2.037,2.035v-7.198"/>
<path d="M74.756,43.639v7.112l-2.014-2.012l-1.587,1.586l4.723,4.724l4.722-4.724l-1.588-1.586L77,50.75v-7.111"/>
</svg>
