<?xml version="1.0" encoding="utf-8"?>
<!-- Generator: Adobe Illustrator 16.0.3, SVG Export Plug-In . SVG Version: 6.00 Build 0)  -->
<!DOCTYPE svg PUBLIC "-//W3C//DTD SVG 1.1//EN" "http://www.w3.org/Graphics/SVG/1.1/DTD/svg11.dtd">
<svg version="1.1" id="Layer_1" xmlns="http://www.w3.org/2000/svg" xmlns:xlink="http://www.w3.org/1999/xlink" x="0px" y="0px"
	 width="96px" height="96px" viewBox="0 0 96 96" enable-background="new 0 0 96 96" xml:space="preserve">
<path d="M47.808,8.949c-0.247-0.247-0.651-0.247-0.898,0l-3.432,3.432c-0.247,0.246-0.247,0.648,0,0.895l0.895,0.895
	c0.247,0.247,0.649,0.247,0.896,0l3.435-3.431c0.247-0.247,0.247-0.649,0-0.895L47.808,8.949z M63.749,23.747L53.734,13.732
	c-0.092-0.091-0.186-0.18-0.272-0.274c-0.625-0.676-1.211-1.392-1.73-2.152c-0.562-0.821-1.062-1.708-1.347-2.664
	C50.253,8.2,50.169,7.74,50.168,7.278c0-0.222,0.02-0.443,0.062-0.661c0.021-0.109,0.046-0.215,0.078-0.323
	c0.016-0.051,0.033-0.102,0.05-0.151c0.021-0.059,0.061-0.111,0.08-0.171c0.092-0.257,0.026-0.552-0.166-0.744
	c-0.053-0.053-0.105-0.106-0.16-0.159l-1.056-1.058c-0.017-0.015-0.034-0.053-0.054-0.034l-1.762,1.76
	c-0.409-0.466-0.86-0.899-1.345-1.281c-0.549-0.431-1.135-0.8-1.728-1.081c-0.377-0.178-0.762-0.321-1.134-0.424
	c-0.444-0.121-0.88-0.181-1.288-0.175C41.54,2.779,41.34,2.799,41.15,2.834c-0.096,0.018-0.189,0.04-0.28,0.066
	c-0.048,0.014-0.095,0.028-0.146,0.039c-0.05,0.009-0.083,0.037-0.126,0.054c-0.066,0.051-0.125,0.124-0.186,0.185
	c-0.09,0.09-0.128,0.218-0.082,0.384c0.043,0.155,0.148,0.287,0.273,0.41l4.199,4.2l-3.13,3.129l-0.02-0.017
	c-0.399,0.399-0.714,0.298-0.895,0.168l-5.527-5.527c-0.146-0.145-0.306-0.26-0.521-0.276c-0.229-0.017-0.429,0.079-0.588,0.238
	c-0.108,0.108-0.234,0.216-0.33,0.33c-0.039,0.068-0.086,0.125-0.117,0.202c-0.031,0.077-0.067,0.15-0.102,0.226
	c-0.066,0.142-0.128,0.286-0.183,0.433c-0.111,0.291-0.201,0.59-0.268,0.893c-0.134,0.604-0.181,1.227-0.138,1.841
	c0.036,0.518,0.128,1.041,0.275,1.54c0.231,0.786,0.593,1.537,1.059,2.211c0.691,1,1.62,1.818,2.691,2.39
	c1.232,0.657,2.631,1.027,4.03,0.996c0.679-0.016,1.351-0.125,2.027-0.178c0.618-0.046,1.238-0.019,1.837,0.146
	c0.62,0.165,1.201,0.465,1.738,0.81c0.573,0.366,1.107,0.792,1.615,1.24c0.405,0.359,0.794,0.736,1.176,1.119l9.007,9.006
	c0.282,0.282,0.74,0.275,1.019-0.005l4.139-4.141c0.158-0.157,0.317-0.299,0.365-0.528C64.014,24.168,63.927,23.925,63.749,23.747z"
	/>
<path fill="none" d="M48,0.157c26.51,0,48,21.49,48,47.998C96,74.609,74.51,96.1,48,96.1S0,74.609,0,48.155
	C0,21.647,21.49,0.157,48,0.157z"/>
<path fill="#333333" d="M24.216,49.822l1.977-4.495l2.712,15.813L33.4,43.386l4.8,16.264l4.525-14.206l3.937,14.626l5.377-19.539
	l6.48,19.633l3.742-18.553l4.229,16.404l4.36-11.011l5.695,7.89l-6.253-12.113l-3.371,8.534L62.014,32.24l-3.986,19.801
	l-6.17-18.722l-5.172,18.813l-3.792-14.106L38.281,52.56l-5.037-17.088l-3.938,15.586l-2.21-12.913l-4.349,9.89"/>
<path fill="#333333" d="M24.216,66.795l3.422,4.168l4.456-5.004l3.105,5.453l3.834-3.383l1.168,1.154l3.632-1.469l4.424,3.48
	l5.247-3.303l4.546,4.498l5.554-6.547l1.867,2.514h11.02v-1.299h-9.639l-3.119-4.197l-5.852,6.887l-4.005-3.963l-5.444,3.426
	l-4.13-3.248l-3.445,1.395l-1.731-1.707l-3.29,2.91l-3.31-5.811l-4.813,5.398l-3.699-4.502"/>
<path fill="#333333" d="M24.039,85.855l2.992-2.6l2.208,6.311l3.403-6.188l2.85,4.221l3.704-5.063l2.575,5.516l3.078-3.307
	l1.049,1.262l2.959-1.457l3.58,3.434l4.336-3.322l3.65,4.398l4.604-6.604l1.729,2.836h8.839v-1.301h-8.129v0.002L65.1,80.113
	l-4.759,6.832l-3.37-4.061l-4.438,3.402l-3.439-3.293l-2.858,1.404l-1.33-1.598l-2.776,2.984l-2.687-5.754l-3.905,5.338
	l-3.001-4.447l-3.035,5.516l-1.888-5.393l-4.029,3.504"/>
<path d="M41.286,19.993v10.045l-2.835-2.842l-2.243,2.24l6.655,6.683l6.671-6.683l-2.25-2.24l-2.842,2.841V19.993"/>
</svg>
