<?xml version="1.0" encoding="utf-8"?>
<!-- Generator: Adobe Illustrator 16.0.3, SVG Export Plug-In . SVG Version: 6.00 Build 0)  -->
<!DOCTYPE svg PUBLIC "-//W3C//DTD SVG 1.1//EN" "http://www.w3.org/Graphics/SVG/1.1/DTD/svg11.dtd">
<svg version="1.1" id="Layer_1" xmlns="http://www.w3.org/2000/svg" xmlns:xlink="http://www.w3.org/1999/xlink" x="0px" y="0px"
	 width="96px" height="96px" viewBox="0 0 96 96" enable-background="new 0 0 96 96" xml:space="preserve">
<path fill="none" d="M96.1,48.098c0,26.498-21.49,47.988-47.994,47.988c-26.51,0-48-21.49-48-47.988
	c0-26.507,21.49-47.998,48-47.998C74.609,0.1,96.1,21.59,96.1,48.098z"/>
<g>
	<g>
		<line fill="none" stroke="#666666" stroke-miterlimit="10" x1="21.083" y1="15.957" x2="21.083" y2="82.223"/>
		<g>
			<polygon fill="#666666" points="17.094,17.124 21.083,10.216 25.072,17.124 			"/>
		</g>
	</g>
</g>
<g>
	<g>
		<line fill="none" stroke="#666666" stroke-miterlimit="10" x1="10.366" y1="74.689" x2="76.607" y2="74.689"/>
		<g>
			<polygon fill="#666666" points="75.441,78.68 82.35,74.689 75.441,70.699 			"/>
		</g>
	</g>
</g>
<g>
	<g>
		<path fill="none" stroke="#000000" stroke-width="5" stroke-miterlimit="10" d="M10,71.5c15.097-6.678,16.467-27.112,30.531-33
			c19.093-7.989,24.632,3.646,30.643-22"/>
		<g>
			<polygon points="75.922,19.186 72.895,9.164 65.727,16.797 			"/>
		</g>
	</g>
</g>
<g>
	<g>
		<path d="M81.525,60.199c-0.77,0-1.394,0.265-1.873,0.793c-0.479,0.527-0.719,1.128-0.719,1.8s0.238,1.272,0.719,1.8
			c0.48,0.528,1.104,0.793,1.873,0.793c0.768,0,1.393-0.265,1.871-0.793c0.48-0.527,0.722-1.128,0.722-1.8s-0.24-1.271-0.722-1.8
			C82.918,60.464,82.293,60.199,81.525,60.199z"/>
		<path d="M90.189,35.37c-0.496-1.056-1.16-1.944-1.991-2.664c-0.833-0.721-1.817-1.264-2.953-1.633
			c-1.136-0.367-2.345-0.552-3.624-0.552c-2.496,0-4.602,0.713-6.313,2.137c-1.713,1.425-2.809,3.384-3.289,5.88l3.266,0.576
			c0.256-1.632,0.919-2.977,1.992-4.032c1.072-1.056,2.473-1.584,4.201-1.584c0.832,0,1.607,0.128,2.328,0.384
			c0.719,0.257,1.353,0.624,1.896,1.104c0.544,0.48,0.978,1.073,1.296,1.776c0.32,0.704,0.48,1.505,0.48,2.4
			c0,1.248-0.264,2.289-0.793,3.121c-0.526,0.832-1.19,1.568-1.992,2.208l-1.344,1.2c-0.479,0.449-0.951,0.905-1.416,1.371
			c-0.463,0.467-0.881,0.989-1.248,1.567c-0.369,0.576-0.656,1.225-0.865,1.944c-0.207,0.721-0.312,1.528-0.312,2.425v2.88h3.36
			V53.67c0-0.863,0.063-1.6,0.193-2.208c0.125-0.606,0.334-1.159,0.623-1.655c0.287-0.496,0.664-0.969,1.127-1.417
			c0.465-0.45,1.033-0.949,1.705-1.496c0.606-0.514,1.184-1.019,1.729-1.515c0.544-0.496,1.016-1.048,1.417-1.656
			c0.399-0.607,0.711-1.296,0.937-2.064c0.224-0.768,0.336-1.663,0.336-2.688C90.936,37.626,90.688,36.426,90.189,35.37z"/>
	</g>
	<ellipse cx="73.65" cy="38.919" rx="1.613" ry="1.5"/>
	<ellipse cx="81.186" cy="55.944" rx="1.681" ry="1.564"/>
</g>
</svg>
