<?xml version="1.0" encoding="utf-8"?>
<!-- Generator: Adobe Illustrator 16.0.3, SVG Export Plug-In . SVG Version: 6.00 Build 0)  -->
<!DOCTYPE svg PUBLIC "-//W3C//DTD SVG 1.1//EN" "http://www.w3.org/Graphics/SVG/1.1/DTD/svg11.dtd">
<svg version="1.1" id="Layer_1" xmlns="http://www.w3.org/2000/svg" xmlns:xlink="http://www.w3.org/1999/xlink" x="0px" y="0px"
	 width="100px" height="100px" viewBox="0 0 100 100" enable-background="new 0 0 100 100" xml:space="preserve">
<g>
	<path d="M28.494,87.497c-0.394,1.501,0.493,3.037,1.986,3.438l9.237,2.481l-6.403-23.892L28.494,87.497z"/>
	<path d="M43.949,94.767c0.402,1.498,1.938,2.389,3.438,1.984l10.314-2.765l-19.072-19.07L43.949,94.767z"/>
	<path d="M80.305,71.635L58.416,49.746c-0.52-0.517-1.218-0.801-1.947-0.801l-14.952-0.007c-2.067,0-3.741,1.673-3.741,3.743v14.952
		c0,0.734,0.287,1.431,0.806,1.947l21.889,21.892c0.554,0.546,1.266,0.824,1.986,0.824c0.715,0,1.435-0.278,1.983-0.824
		l15.864-15.868C81.401,74.507,81.401,72.729,80.305,71.635z M45.879,59.282c-1.616,0-2.927-1.304-2.927-2.927
		c0-1.614,1.312-2.927,2.927-2.927c1.615,0,2.928,1.313,2.928,2.927C48.807,57.979,47.494,59.282,45.879,59.282z"/>
</g>
<ellipse fill="none" cx="51.283" cy="49.9" rx="50.283" ry="50"/>
<path d="M68.449,5.977c-0.243-0.317-0.624-0.505-1.024-0.505H41.698c-0.23,0-0.455,0.066-0.653,0.186L41.001,5.62l-13.03,13.698
	c0.828,0.322,2.024,0.718,2.716,0.889L42.256,8.056h22.369L45.638,28.161H23.236l7.451-7.954c-0.702-0.196-1.854-0.574-2.716-0.889
	l-8.672,9.248l-0.233,0.259l0.03,0.03c-0.049,0.086-0.085,0.172-0.109,0.265L14.96,44.145c-0.102,0.385-0.017,0.806,0.224,1.122
	c0.244,0.315,0.626,0.504,1.026,0.504h25.757c0.413,0,0.776-0.173,1.157-0.552l21.15-22.438c0.07-0.075,0.309-0.414,0.373-0.656
	l4.027-15.026C68.775,6.714,68.691,6.295,68.449,5.977z M40.973,43.185h-23.08l3.333-12.438h23.081L40.973,43.185z"/>
</svg>
