<?xml version="1.0" encoding="utf-8"?>
<!-- Generator: Adobe Illustrator 16.0.3, SVG Export Plug-In . SVG Version: 6.00 Build 0)  -->
<!DOCTYPE svg PUBLIC "-//W3C//DTD SVG 1.1//EN" "http://www.w3.org/Graphics/SVG/1.1/DTD/svg11.dtd">
<svg version="1.1" id="Layer_1" xmlns="http://www.w3.org/2000/svg" xmlns:xlink="http://www.w3.org/1999/xlink" x="0px" y="0px"
	 width="96px" height="96px" viewBox="0 0 96 96" enable-background="new 0 0 96 96" xml:space="preserve">
<g>
	<g>
		<line fill="#CCCCCC" stroke="#CCCCCC" stroke-miterlimit="10" x1="46.676" y1="1.688" x2="46.676" y2="53.166"/>
	</g>
</g>
<circle fill="none" stroke="#000000" stroke-width="0.1" stroke-miterlimit="10" cx="48" cy="48" r="48"/>
<g>
	<g>
		<line fill="#CCCCCC" stroke="#CCCCCC" stroke-miterlimit="10" x1="17.881" y1="44.737" x2="76.341" y2="44.737"/>
	</g>
</g>
<g>
	<g>
		<line fill="none" stroke="#000000" stroke-width="2" stroke-miterlimit="10" x1="47.467" y1="44.818" x2="8.352" y2="35.587"/>
		<g>
			<polygon points="10.376,32.016 2.838,34.283 8.568,39.679 			"/>
		</g>
	</g>
</g>
<path fill="none" stroke="#000000" stroke-width="2" stroke-miterlimit="10" d="M22.982,39.19
	c2.216-9.143,1.729-9.168,10.226-13.808"/>
<g>
	<g>
		<line fill="#666666" stroke="#666666" stroke-miterlimit="10" x1="47.45" y1="44.785" x2="28.95" y2="20.264"/>
		<g>
			<polygon fill="#666666" stroke="#666666" stroke-miterlimit="10" points="31.895,19.188 26.344,16.811 27.064,22.742 			"/>
		</g>
	</g>
</g>
<g>
	<g>
		<line fill="none" stroke="#000000" stroke-width="2" stroke-miterlimit="10" x1="47.11" y1="44.743" x2="68.655" y2="10.815"/>
		<g>
			<polygon points="71.364,13.899 71.694,6.034 64.718,9.679 			"/>
		</g>
	</g>
</g>
<path fill="none" stroke="#000000" stroke-width="2" stroke-miterlimit="10" d="M60.455,23.456c7.91,5.092,8.094,4.639,9.692,14.188
	"/>
<g>
	<g>
		<line fill="#666666" stroke="#666666" stroke-miterlimit="10" x1="47.147" y1="44.737" x2="76.379" y2="35.299"/>
		<g>
			<polygon fill="#666666" stroke="#666666" stroke-miterlimit="10" points="76.43,38.433 80.496,33.967 74.656,32.704 			"/>
		</g>
	</g>
</g>
<g>
	<g>
		
			<path fill-rule="evenodd" clip-rule="evenodd" fill="none" stroke="#000000" stroke-width="3" stroke-linecap="round" stroke-linejoin="round" stroke-miterlimit="10" d="
			M-2.535,65.325c0.584-1.907,1.159-3.819,1.754-5.715c0.814-2.6,1.644-5.197,2.835-7.46c0.443-0.842,0.989-1.668,1.606-2.173
			c0.926-0.756,1.821-0.397,2.711,0.832c1.234,1.708,2.129,3.791,2.857,6.021c1.018,3.119,1.989,6.273,2.922,9.45
			c1.058,3.604,2.106,7.215,3.524,10.537c0.471,1.103,1.02,2.178,1.656,3.068c1.538,2.148,2.76,1.771,4.055-0.441
			c1.505-2.573,2.438-5.709,3.423-8.771c0.557-1.733,1.104-3.469,1.656-5.205"/>
		
			<path fill-rule="evenodd" clip-rule="evenodd" fill="none" stroke="#000000" stroke-width="3" stroke-linecap="round" stroke-linejoin="round" stroke-miterlimit="10" d="
			M26.432,65.325c0.584-1.907,1.159-3.819,1.754-5.715c0.814-2.6,1.644-5.197,2.834-7.46c0.443-0.842,0.989-1.668,1.606-2.173
			c0.927-0.756,1.822-0.397,2.713,0.832c1.233,1.708,2.129,3.791,2.857,6.021c1.018,3.119,1.988,6.273,2.922,9.45
			c1.057,3.604,2.106,7.215,3.524,10.537c0.473,1.103,1.02,2.178,1.656,3.068c1.539,2.148,2.76,1.771,4.055-0.441
			c1.506-2.573,2.439-5.709,3.424-8.771c0.557-1.733,1.104-3.469,1.656-5.205"/>
	</g>
	<g>
		
			<path fill-rule="evenodd" clip-rule="evenodd" fill="none" stroke="#000000" stroke-width="3" stroke-linecap="round" stroke-linejoin="round" stroke-miterlimit="10" d="
			M55.433,65.33c0.584-1.906,1.159-3.817,1.754-5.715c0.814-2.599,1.644-5.195,2.835-7.46c0.443-0.841,0.988-1.666,1.605-2.172
			c0.927-0.756,1.822-0.397,2.712,0.832c1.233,1.708,2.13,3.791,2.857,6.022c1.018,3.118,1.989,6.272,2.923,9.449
			c1.057,3.604,2.105,7.215,3.523,10.536c0.472,1.104,1.021,2.179,1.656,3.068c1.538,2.149,2.761,1.772,4.056-0.44
			c1.504-2.573,2.438-5.709,3.422-8.771c0.557-1.732,1.104-3.469,1.656-5.203"/>
		
			<path fill-rule="evenodd" clip-rule="evenodd" fill="none" stroke="#000000" stroke-width="3" stroke-linecap="round" stroke-linejoin="round" stroke-miterlimit="10" d="
			M84.399,65.33c0.584-1.906,1.159-3.817,1.754-5.715c0.814-2.599,1.645-5.195,2.834-7.46c0.443-0.841,0.99-1.666,1.607-2.172
			c0.926-0.756,1.822-0.397,2.713,0.832c1.232,1.708,2.129,3.791,2.857,6.022c1.018,3.118,1.988,6.272,2.922,9.449
			c1.057,3.604,2.105,7.215,3.523,10.536c0.473,1.104,1.02,2.179,1.656,3.068c1.539,2.149,2.76,1.772,4.055-0.44
			c1.506-2.573,2.439-5.709,3.424-8.771c0.557-1.732,1.104-3.469,1.656-5.203"/>
	</g>
</g>
<g>
	<g>
		
			<path fill-rule="evenodd" clip-rule="evenodd" fill="none" stroke="#666666" stroke-width="3" stroke-linecap="round" stroke-miterlimit="10" d="
			M4.01,63.832c0.584-1.266,1.159-2.535,1.754-3.794c0.814-1.726,1.644-3.45,2.835-4.953c0.443-0.559,0.989-1.106,1.606-1.442
			c0.926-0.504,1.821-0.265,2.711,0.553c1.234,1.134,2.129,2.517,2.857,3.998c1.018,2.07,1.989,4.165,2.922,6.274
			c1.058,2.393,2.106,4.79,3.524,6.995c0.471,0.732,1.02,1.446,1.656,2.037c1.538,1.427,2.76,1.177,4.055-0.293
			c1.505-1.708,2.438-3.79,3.423-5.823c0.557-1.15,1.104-2.303,1.656-3.455"/>
		
			<path fill-rule="evenodd" clip-rule="evenodd" fill="none" stroke="#666666" stroke-width="3" stroke-linecap="round" stroke-miterlimit="10" d="
			M32.977,63.832c0.584-1.266,1.159-2.535,1.754-3.794c0.814-1.726,1.644-3.45,2.834-4.953c0.443-0.559,0.989-1.106,1.606-1.442
			c0.927-0.504,1.822-0.265,2.713,0.553c1.233,1.134,2.129,2.517,2.857,3.998c1.018,2.07,1.988,4.165,2.922,6.274
			c1.057,2.393,2.106,4.79,3.524,6.995c0.473,0.732,1.02,1.446,1.656,2.037c1.539,1.427,2.76,1.177,4.055-0.293
			c1.506-1.708,2.439-3.79,3.424-5.823c0.557-1.15,1.104-2.303,1.656-3.455"/>
	</g>
	<g>
		
			<path fill-rule="evenodd" clip-rule="evenodd" fill="none" stroke="#666666" stroke-width="3" stroke-linecap="round" stroke-miterlimit="10" d="
			M61.978,63.836c0.584-1.266,1.159-2.535,1.754-3.794c0.814-1.726,1.644-3.45,2.835-4.953c0.443-0.559,0.988-1.106,1.605-1.442
			c0.927-0.504,1.822-0.265,2.712,0.553c1.233,1.134,2.13,2.517,2.857,3.998c1.018,2.07,1.989,4.165,2.923,6.274
			c1.057,2.393,2.105,4.79,3.523,6.995c0.472,0.732,1.021,1.446,1.656,2.037c1.538,1.427,2.761,1.177,4.056-0.293
			c1.504-1.708,2.438-3.79,3.422-5.823c0.557-1.15,1.104-2.303,1.656-3.455"/>
		
			<path fill-rule="evenodd" clip-rule="evenodd" fill="none" stroke="#666666" stroke-width="3" stroke-linecap="round" stroke-miterlimit="10" d="
			M90.944,63.836c0.584-1.266,1.159-2.535,1.754-3.794c0.814-1.726,1.645-3.45,2.834-4.953c0.443-0.559,0.99-1.106,1.607-1.442
			c0.926-0.504,1.822-0.265,2.713,0.553c1.232,1.134,2.129,2.517,2.857,3.998c1.018,2.07,1.988,4.165,2.922,6.274
			c1.057,2.393,2.105,4.79,3.523,6.995c0.473,0.732,1.02,1.446,1.656,2.037c1.539,1.427,2.76,1.177,4.055-0.293
			c1.506-1.708,2.439-3.79,3.424-5.823c0.557-1.15,1.104-2.303,1.656-3.455"/>
	</g>
</g>
</svg>
