<?xml version="1.0" encoding="utf-8"?>
<!-- Generator: Adobe Illustrator 16.0.3, SVG Export Plug-In . SVG Version: 6.00 Build 0)  -->
<!DOCTYPE svg PUBLIC "-//W3C//DTD SVG 1.1//EN" "http://www.w3.org/Graphics/SVG/1.1/DTD/svg11.dtd">
<svg version="1.1" id="Layer_1" xmlns="http://www.w3.org/2000/svg" xmlns:xlink="http://www.w3.org/1999/xlink" x="0px" y="0px"
	 width="96px" height="96px" viewBox="0 0 96 96" enable-background="new 0 0 96 96" xml:space="preserve">
<g id="Layer_1_1_">
</g>
<path fill="none" d="M96.1,48.098c0,26.498-21.49,47.988-47.994,47.988c-26.51,0-48-21.49-48-47.988
	c0-26.507,21.49-47.998,48-47.998C74.609,0.1,96.1,21.59,96.1,48.098z"/>
<path d="M52.52,45.107l3.301,9.333l4.296-11.203l2.993,12.21l3.695-7.575l1.129,2.589l3.502-3.295l4.265,7.797l5.057-7.394
	l4.386,10.07l5.354-14.659l1.799,5.634h2.197v-2.915h-0.865l-3.008-9.402l-5.641,15.424l-3.86-8.874l-5.25,7.67l-3.979-7.272
	l-3.322,3.118l-1.668-3.82l-3.172,6.521l-3.189-13.021L55.893,48.14l-3.564-10.079"/>
<path fill="#666666" d="M8.549,69.775l1.977-3.902l2.712,13.761l4.495-15.444l4.8,14.144l4.525-12.356L30.995,78.7l5.377-16.988
	l6.48,17.069l3.742-16.133l4.23,14.259l4.359-9.579l5.694,6.859l-6.252-10.523l-3.371,7.409l-4.91-16.556L42.36,71.702l-6.17-16.246
	l-5.172,16.325l-3.792-12.242l-4.612,12.613l-5.037-14.83L13.639,70.85l-2.21-11.207l-4.349,8.58"/>
<path fill="#666666" d="M10.611,23.474l3.422,6.618l4.456-7.945l3.105,8.657l3.834-5.37l1.168,1.834l3.631-2.333l4.424,5.525
	l5.248-5.241l4.545,7.139L50,21.963l1.867,3.992h11.02v-2.062h-9.639l-3.119-6.669l-5.852,10.938l-4.006-6.292l-5.443,5.439
	l-4.131-5.155l-3.444,2.212l-1.731-2.71l-3.289,4.622l-3.311-9.232l-4.813,8.576l-3.699-7.146"/>
<g>
	<path d="M32.116,46.857c0.498-0.494,1.162-0.793,1.904-0.793h6.749l-3.224,3.223l2.543,2.543l7.567-7.564L40.088,36.7l-2.543,2.542
		l3.224,3.225H34.02c-1.733,0-3.315,0.713-4.448,1.849c-1.135,1.131-1.847,2.713-1.847,4.446v5.396h3.597v-5.396
		C31.323,48.02,31.622,47.354,32.116,46.857z"/>
	<path d="M32.116,41.674c0.498,0.494,1.162,0.793,1.904,0.793h6.749l-3.224-3.222l2.543-2.543l7.567,7.564l-7.567,7.566
		l-2.543-2.542l3.224-3.225H34.02c-1.733,0-3.315-0.713-4.448-1.849c-1.136-1.131-1.847-2.713-1.847-4.446v-5.395h3.597v5.395
		C31.323,40.511,31.622,41.177,32.116,41.674z"/>
</g>
</svg>
