<?xml version="1.0" encoding="utf-8"?>
<!-- Generator: Adobe Illustrator 16.0.3, SVG Export Plug-In . SVG Version: 6.00 Build 0)  -->
<!DOCTYPE svg PUBLIC "-//W3C//DTD SVG 1.1//EN" "http://www.w3.org/Graphics/SVG/1.1/DTD/svg11.dtd">
<svg version="1.1" id="Layer_1" xmlns="http://www.w3.org/2000/svg" xmlns:xlink="http://www.w3.org/1999/xlink" x="0px" y="0px"
	 width="96px" height="96px" viewBox="0 0 96 96" enable-background="new 0 0 96 96" xml:space="preserve">
<g>
	<path fill="#FCFCFC" d="M76.054,44.359c-0.381-0.292-0.766-0.583-1.148-0.877c0.179-0.486,0.896-0.918,0.146-1.498
		c0.083-0.51,0.178-1.016,0.532-1.423c0.144-0.51,0.207-1.089,0.207-1.554c0.002-1.639,0.791-3.384-0.435-4.918
		c0.008-0.125,0.017-0.251,0.023-0.377c0.191-0.157,0.311-0.311-0.027-0.439c0.342-1.17-0.236-2.199-0.477-3.282
		c0.471-0.771,0.248-1.568-0.012-2.314c-0.348-0.981-0.803-1.919-1.215-2.877c0.018-0.759-0.572-1.259-0.851-1.888
		c-2.237-5.035-5.759-8.999-10.26-12.133c-2.808-1.956-5.979-3.11-9.177-4.201c-0.629-0.79-1.258-1.579-1.883-2.373
		c-3.298-4.217-4.436-3.645-7.438,0.261c-0.382,0.386-0.884,0.698-0.917,1.421c0.787-0.139,0.988-0.726,1.329-1.162
		c0.662-0.712,1.299-1.454,1.994-2.134c0.874-0.857,1.864-0.926,2.723-0.031c1.082,1.13,2.071,2.354,3.172,3.614
		c-0.463,0.034-0.771,0.06-1.084,0.083l0.035,0.018c-0.044-0.234-0.121-0.161-0.205-0.021c-3.05,0.244-6.159-0.42-9.159,0.649
		c-1.473,0.527-2.983,0.938-4.478,1.399c-0.816,0.08-1.229,0.844-1.909,1.134c-3.269,1.389-5.838,3.665-8.07,6.348
		c-2.447,2.936-4.672,6.018-5.562,9.845c-1.24,1.169-0.848,2.992-1.765,4.372c-0.795-0.81-1.642-1.986-2.435-0.02
		c-0.116,0.182-0.326,0.362-0.33,0.546c-0.067,3.832-0.185,7.66-0.25,11.489c-0.052,2.981,1.216,3.59,3.587,2.312
		c1.313,3.549,2.488,7.112,4.736,10.288c2.835,4.005,6.182,7.27,10.608,9.404c-0.035,0.026-0.071,0.058-0.106,0.086
		c0.049,0.014,0.111,0.014,0.148,0.043c1.095,0.875,2.397,1.277,3.72,1.643c3.613,1.318,7.392,0.869,11.112,1.02
		c1.243-0.319,2.486-0.625,3.721-0.965c3.52-0.963,6.84-2.305,9.477-4.959c2.566-1.424,4.186-3.803,5.895-6.035
		c2.248-2.942,3.707-6.324,4.623-9.931c0.279-0.301,0.535-0.708,1.011-0.271"/>
	<path fill="#4B4B4B" d="M75.051,41.984c0.751,0.579,0.032,1.011-0.146,1.498c-0.285,0.443-0.639,0.875-0.254,1.439
		c-0.918,3.606-2.375,6.987-4.625,9.931c-1.707,2.232-3.326,4.611-5.894,6.035c0.914-3.574-0.021-6.277-3.96-7.32
		c-3.406-0.897-6.029-3.106-7.632-6.456c-1.017-2.124-1.476-4.427-2.488-6.56c-1.278-2.7-2.513-5.454-2.879-8.505
		c-0.069-0.585,0.199-1.098-0.071-1.793c-0.61-1.597-0.794-3.368-1.105-5.074c-0.901-4.946-2.475-9.547-6.046-13.318
		c-0.967-1.022-2.289-1.942-2.5-3.558c1.495-0.461,3.005-0.872,4.478-1.399c3-1.07,6.109-0.405,9.159-0.649
		c0.066,0.012,0.137,0.02,0.205,0.021l2.068,0.303c0.221,0.075-0.74,0.145,0,0c3.199,1.091,6.371,2.245,9.178,4.201
		c4.501,3.134,8.021,7.098,10.26,12.133c0.277,0.629,0.867,1.129,0.85,1.888c0.176,1.504,0.914,2.916,0.75,4.477
		c-0.961-0.069-1.914,0.035-2.512,0.859c-1.742,2.391-3.703,6.962-1.138,10.556C71.918,42.322,73.118,42.782,75.051,41.984z
		 M65.755,35.186c0.059-2.138,0.07-4.278-0.725-6.31c-1.135-2.901-3.437-4.663-6.133-5.931c-1.455-0.687-2.922-1.508-4.687-1.047
		c-2.224,0.581-3.25,2.319-4.088,4.175c-1.336,2.958-1.214,6.099-0.347,9.082c1.021,3.528,2.726,6.846,5.429,9.404
		c3.315,3.143,8.37,1.608,9.743-2.752C65.632,39.637,65.856,37.436,65.755,35.186z"/>
	<path fill="#8B8B8B" d="M37.453,8.301c0.211,1.616,1.533,2.536,2.5,3.558c3.571,3.771,5.145,8.373,6.046,13.318
		c0.311,1.706,0.495,3.477,1.105,5.074c0.27,0.696,0.002,1.208,0.071,1.793c0.367,3.051,1.6,5.806,2.879,8.505
		c1.014,2.133,1.473,4.437,2.488,6.56c1.602,3.349,4.225,5.558,7.632,6.456c3.94,1.043,4.874,3.746,3.96,7.32
		c-2.637,2.654-5.957,3.996-9.477,4.959c-1.233,0.34-2.478,0.646-3.721,0.965c0.356-2.022,1.137-3.971,0.989-6.082
		c-0.153-2.273-0.694-4.416-1.307-6.619c-0.855-3.061-1.871-6.243-1.328-9.553c0.235-1.454-0.345-1.848-1.667-1.376
		c0-0.367-0.006-0.732-0.006-1.097c1.229-0.103,1.085-0.712,0.694-1.599c-0.68-1.541-1.253-3.121-1.698-4.757
		c-1.24-4.615-2.753-9.105-6.441-12.465l-0.031-0.025c-1.909-1.717-4.203-2.602-6.67-3.121c-0.927,0-0.927,0-1.606,0
		c-0.589,0.105-1.169,0.245-1.761,0.309c-3.041,0.33-5.804,2.708-6.772,5.525c-1.087,3.167-0.787,6.527-1.637,9.734
		c-0.583,2.205-0.427,4.551-0.401,6.848c0.006,0.527,0.152,1.15-0.64,1.291l-0.025-0.025c-0.225-1.166-0.104-2.4-0.659-3.506
		c0.265-0.245,0.311-0.549,0.244-0.883c0-0.129,0.004-0.26,0.004-0.388c0.02-2.064,0.036-4.127,0.054-6.192
		c-0.362-0.368-0.085-0.61,0.173-0.855c0.489-2.115,0.977-4.23,1.466-6.346c0.89-3.827,3.115-6.909,5.562-9.845
		c2.232-2.683,4.802-4.959,8.07-6.348C36.224,9.145,36.636,8.381,37.453,8.301z"/>
	<path fill="#B5B5B5" d="M47.625,43.179c1.323-0.472,1.903-0.077,1.667,1.376c-0.543,3.31,0.473,6.493,1.328,9.553
		c0.611,2.203,1.152,4.346,1.307,6.619c0.146,2.111-0.633,4.06-0.988,6.082c-3.721-0.149-7.5,0.299-11.113-1.02
		c-1.04-1.048-2.355-1.506-3.763-1.771c-4.426-2.136-7.773-5.399-10.608-9.404c-2.248-3.176-3.423-6.739-4.736-10.288
		c-0.021-0.166-0.042-0.338-0.064-0.506c0.792-0.141,0.646-0.764,0.64-1.291c-0.026-2.296-0.183-4.643,0.401-6.848
		c0.851-3.207,0.55-6.567,1.637-9.734c0.969-2.817,3.731-5.195,6.772-5.525c0.591-0.064,1.172-0.203,1.761-0.309
		c0.816,0,0.697,0,1.606,0c2.468,0.519,4.761,1.403,6.669,3.116c-0.562-0.21-1.095-0.257-1.213,0.497
		c-0.05,0.311,0.186,0.643,0.564,0.651c0.829,0.017,0.743-0.566,0.681-1.119c3.688,3.36,5.202,7.85,6.441,12.465
		c0.444,1.637,1.018,3.216,1.698,4.757c0.391,0.886,0.535,1.496-0.694,1.599c-0.861-2.306-1.968-4.556-2.527-6.935
		c-1.189-5.032-4.399-7.938-9.096-9.552c-3.565-1.224-8.029,0.898-9.195,4.358c-0.959,2.844-1.056,5.755-1.53,8.635
		c-0.464,2.031-0.447,4.063-0.008,6.094c0.054,0.534,0.092,1.058,0.212,1.599c1.222,5.504,4.655,9.832,7.784,14.242
		c3.325,4.688,9.449,3.959,12.162-0.426c0.841-1.361,1.433-2.813,1.595-4.422c0.532-2.842,0.186-5.711,0.262-8.571
		C47.85,45.838,47.418,44.478,47.625,43.179z"/>
	<path fill="#8B8B8B" d="M75.051,41.984c-1.933,0.797-3.133,0.338-4.301-1.293c-2.565-3.593-0.604-8.165,1.138-10.556
		c0.598-0.824,1.551-0.929,2.512-0.859c-0.004,0-0.071,0.012-0.071,0.012c0.11,0.139,0.219,0.273,0.329,0.411
		c0.072,0.098,0.144,0.193,0.22,0.291c0.239,1.083,0.817,2.112,0.478,3.282c0.012,0.143,0.016,0.293,0.026,0.439
		c-0.008,0.126-0.017,0.252-0.024,0.377c0.34,2.152-0.183,4.327,0.229,6.472C75.228,40.969,75.134,41.474,75.051,41.984z"/>
	<path fill="#1D1D1D" d="M20.654,43.822c0.021,0.168,0.042,0.34,0.064,0.506c-2.371,1.278-3.64,0.669-3.587-2.312
		c0.066-3.83,0.184-7.658,0.25-11.489c0.004-0.185,0.214-0.364,0.33-0.546c0.178,0.015,0.355,0.037,0.534,0.051
		c-0.174,4.127-0.495,8.256-0.45,12.381c0.021,2.085,0.733,2.278,2.834,1.384L20.654,43.822z"/>
	<path fill="#1D1D1D" d="M75.661,44.65c0.131-0.098,0.265-0.193,0.393-0.291"/>
	<path fill="#333333" d="M53.362,6.577c-0.74,0.145-0.438,0.472-1.021-0.404c0.313-0.025-0.463,0.034,0,0
		c-1.101-1.261-2.09-2.484-3.172-3.614c-0.859-0.895-1.849-0.827-2.723,0.031c-0.695,0.68-1.332,1.421-1.994,2.134
		c-0.136-0.085-0.277-0.174-0.412-0.259c3.003-3.906,4.14-4.478,7.438-0.261C52.106,4.998,52.735,5.788,53.362,6.577z"/>
	<path fill="#333333" d="M18.245,30.032c-0.178-0.014-0.355-0.036-0.534-0.051c0.792-1.967,1.639-0.79,2.435,0.02
		c0.917-1.38,0.525-3.203,1.765-4.372c-0.489,2.116-0.977,4.23-1.466,6.346C20.115,30.533,19.166,29.698,18.245,30.032z"/>
	<path fill="#333333" d="M75.583,40.561c-0.41-2.145,0.111-4.32-0.229-6.472c1.227,1.534,0.438,3.279,0.436,4.918
		C75.79,39.472,75.726,40.051,75.583,40.561z"/>
	<path fill="#333333" d="M74.876,29.991c-0.076-0.098-0.146-0.193-0.219-0.291c0.004-0.231,0.041-0.48-0.33-0.411
		c0,0,0.068-0.012,0.072-0.012c0.164-1.561-0.574-2.973-0.75-4.477c0.412,0.958,0.867,1.896,1.215,2.877
		C75.124,28.423,75.347,29.22,74.876,29.991z"/>
	<path fill="#B5B5B5" d="M36.063,64.02c1.407,0.266,2.723,0.724,3.763,1.771c-1.323-0.363-2.625-0.768-3.72-1.643
		c-0.037-0.029-0.099-0.029-0.148-0.043C35.992,64.077,36.028,64.047,36.063,64.02z"/>
	<path fill="#333333" d="M76.009,30.043"/>
	<path fill="#1D1D1D" d="M74.651,44.921c-0.385-0.564-0.031-0.996,0.254-1.439c0.383,0.294,0.768,0.585,1.147,0.877
		c-0.128,0.098-0.262,0.193-0.393,0.291C75.187,44.213,74.931,44.62,74.651,44.921z"/>
	<path fill="#333333" d="M44.455,4.724c-0.341,0.436-1.059,1.733-1.845,1.872c0.032-0.722,1.05-1.745,1.433-2.131
		C44.178,4.55,44.319,4.638,44.455,4.724z"/>
	<path fill="#333333" d="M75.38,33.712c-0.012-0.146-0.016-0.296-0.027-0.439C75.69,33.401,75.571,33.555,75.38,33.712z"/>
	<path fill="#333333" d="M51.294,6.274c-0.068-0.002-0.139-0.009-0.205-0.021"/>
	<path fill="#1B1B1B" d="M65.755,35.182c0.102,2.253-0.123,4.455-0.805,6.625c-1.373,4.36-6.43,5.895-9.744,2.752
		C52.503,42,50.8,38.683,49.778,35.155c-0.868-2.983-0.99-6.124,0.346-9.082c0.838-1.855,1.865-3.593,4.088-4.174
		c1.764-0.461,3.23,0.36,4.686,1.047c2.697,1.268,4.998,3.03,6.133,5.931C65.825,30.908,65.813,33.048,65.755,35.182z
		 M62.849,35.842c-0.061-3.305-1.201-5.746-4.023-7.197c-2.997-1.539-6.108,0.133-6.537,3.483c-0.344,2.706,0.52,5.06,2.122,7.177
		c1.663,2.197,3.78,2.808,6.17,1.547C62.639,39.763,62.716,37.629,62.849,35.842z"/>
	<path fill="#C7C7C7" d="M47.014,55.678c-0.162,1.607-0.753,3.062-1.595,4.422c-2.713,4.386-8.837,5.113-12.162,0.426
		c-3.129-4.41-6.563-8.737-7.784-14.242c-0.12-0.541-0.158-1.065-0.212-1.594c0.004-2.033,0.007-4.063,0.008-6.099
		c0.474-2.88,0.571-5.792,1.53-8.635c1.166-3.46,5.63-5.582,9.195-4.358c4.696,1.613,7.906,4.52,9.096,9.552
		c0.56,2.379,1.666,4.629,2.527,6.935c0,0.365,0.006,0.73,0.006,1.097c-0.207,1.299,0.226,2.658-0.348,3.927
		c-0.378,0.339-0.289,0.799-0.289,1.227C46.989,50.777,47.003,53.227,47.014,55.678z M37.799,29.506
		c-0.041-0.098-0.052-0.252-0.125-0.295c-3.099-1.738-6.945-0.947-8.806,2.711c-0.738,1.447-0.977,3.007-1.209,4.565
		c-0.462,3.079-0.398,6.058,0.45,9.178c1.135,4.168,4.124,6.898,6.842,9.683c3.429,3.52,6.99,2.692,9.028-1.298
		c1.723-3.362,1.896-7.172,1.891-10.823c-0.006-3.429-1.331-6.715-2.825-9.815c-0.943-1.959-2.313-3.579-4.738-3.766
		C38.137,29.601,37.967,29.556,37.799,29.506z"/>
	<path fill="#FCFCFC" d="M18.245,30.032c0.921-0.334,1.87,0.502,2.2,1.942c-0.259,0.245-0.535,0.487-0.173,0.855
		c-1.226,1.904-0.608,3.954-0.457,5.963c0.007,0.087,0.264,0.152,0.403,0.229c0,0.128-0.004,0.259-0.004,0.388
		c-0.41,0.203-0.317,0.544-0.244,0.883c0.555,1.106,0.434,2.34,0.659,3.506c-2.102,0.894-2.813,0.701-2.834-1.384
		C17.751,38.287,18.071,34.159,18.245,30.032z"/>
	<path fill="#BFBFBF" d="M20.218,39.02c-0.139-0.077-0.396-0.142-0.403-0.229c-0.152-2.009-0.769-4.059,0.457-5.963
		C20.254,34.893,20.238,36.956,20.218,39.02z"/>
	<path fill="#B5B5B5" d="M40.173,23.262c0.062,0.553,0.147,1.135-0.681,1.119c-0.378-0.008-0.614-0.34-0.564-0.651
		c0.118-0.754,0.651-0.707,1.213-0.497C40.142,23.237,40.173,23.262,40.173,23.262z"/>
	<path fill="#BFBFBF" d="M19.971,40.291c-0.073-0.339-0.166-0.68,0.244-0.883C20.281,39.742,20.236,40.046,19.971,40.291z"/>
	<path fill="#C2C2C2" d="M47.014,55.678c-0.011-2.451-0.025-4.899-0.027-7.345c0-0.428-0.089-0.888,0.289-1.227
		C47.2,49.967,47.546,52.836,47.014,55.678z"/>
	<path fill="#C2C2C2" d="M25.27,38.59c-0.001,2.036-0.004,4.066-0.008,6.099C24.823,42.652,24.805,40.62,25.27,38.59z"/>
	<path fill="#4B4B4B" d="M74.327,29.288c0.371-0.069,0.334,0.18,0.33,0.411C74.546,29.562,74.438,29.428,74.327,29.288z"/>
	<path fill="#101010" d="M62.849,35.842c-0.133,1.787-0.21,3.921-2.27,5.01c-2.391,1.26-4.508,0.649-6.17-1.547
		c-1.604-2.117-2.465-4.471-2.122-7.177c0.429-3.35,3.54-5.022,6.536-3.483C61.647,30.096,62.788,32.537,62.849,35.842z"/>
	<path fill="#DBDBDB" d="M38.306,29.646c2.425,0.187,3.795,1.807,4.738,3.766c1.494,3.101,2.818,6.387,2.825,9.815
		c0.005,3.651-0.168,7.461-1.891,10.823c-2.038,3.99-5.599,4.816-9.028,1.298c-2.718-2.785-5.708-5.515-6.842-9.683
		c-0.848-3.12-0.912-6.099-0.45-9.178c0.232-1.559,0.471-3.118,1.209-4.565c1.861-3.658,5.707-4.449,8.806-2.711
		c0.074,0.043,0.084,0.197,0.125,0.295c-0.916-0.033-0.67,0.654-0.721,1.156c-1.781-0.517-3.594-0.83-5.06,0.643
		c-1.859,1.862-2.931,4.138-3.12,6.802c-0.396,5.583,1.757,10.071,5.853,13.745c3.125,2.803,6.29,2.194,7.952-0.746
		c0.353-0.625,0.451-1.328,0.708-1.979c0.921-2.348,1.647-4.822,1.186-7.336c-0.43-2.362-1.177-4.689-2.013-6.951
		c-0.566-1.528-1.45-2.971-3.359-3.255c-0.485-0.073-0.943-0.278-1.23-0.729C38.299,30.506,38.486,30.122,38.306,29.646z"/>
	<path fill="#DBDBDB" d="M38.306,29.646c0.18,0.476-0.007,0.859-0.313,1.209c-0.309-0.05-0.677,0.195-0.916-0.193
		c0.051-0.502-0.195-1.189,0.721-1.156C37.967,29.556,38.137,29.601,38.306,29.646z"/>
	<path fill="#B2B2B2" d="M37.078,30.662c0.474,0.124,0.606,0.143,0.916,0.193c0.287,0.452,0.745,0.657,1.23,0.729
		c1.91,0.284,2.793,1.729,3.359,3.255c0.836,2.261,1.583,4.589,2.013,6.951c0.462,2.513-0.264,4.988-1.186,7.336
		c-0.257,0.65-0.355,1.354-0.708,1.979c-1.662,2.941-4.827,3.55-7.952,0.746c-4.095-3.674-6.249-8.162-5.853-13.744
		c0.189-2.664,1.261-4.94,3.12-6.802C33.484,29.833,35.297,30.146,37.078,30.662z M42.965,42.292c0.257-2.37-0.33-4.494-1.265-6.563
		c-1.091-2.419-3.967-4.049-6.688-3.706c-1.991,0.248-4.06,2.434-4.396,4.929c-0.728,5.353,1.027,9.682,5.472,12.911
		c2.145,1.553,5.039,0.829,5.862-1.902C42.514,46.08,43.321,44.256,42.965,42.292z"/>
	<path fill="#717171" d="M42.965,42.292c0.355,1.963-0.452,3.788-1.016,5.668c-0.823,2.731-3.717,3.455-5.862,1.902
		c-4.445-3.229-6.2-7.558-5.472-12.911c0.337-2.496,2.406-4.682,4.396-4.929c2.721-0.343,5.597,1.286,6.688,3.706
		C42.635,37.799,43.222,39.922,42.965,42.292z M41.38,40.422c0.112-1.909-0.284-3.56-1.39-5.027
		c-1.195-1.589-2.875-2.033-4.659-1.73c-1.519,0.257-2.396,1.37-3.04,2.868c-1.316,3.047,0.666,7.657,2.979,9.7
		c2.663,2.354,4.973,1.203,5.683-2.041C41.225,42.94,41.596,41.643,41.38,40.422z"/>
	<path fill="#444444" d="M41.38,40.422c0.216,1.221-0.155,2.518-0.427,3.77c-0.71,3.244-3.02,4.394-5.683,2.041
		c-2.313-2.043-4.295-6.653-2.979-9.7c0.645-1.498,1.521-2.61,3.04-2.868c1.784-0.302,3.464,0.141,4.659,1.73
		C41.096,36.863,41.492,38.513,41.38,40.422z M33.823,38.737c-0.161,1.119,0.141,2.173,0.689,3.131
		c0.79,1.382,1.981,2.102,3.614,1.71c1.223-0.292,1.262-1.447,1.641-2.387c0.512-1.271,0.201-2.505-0.122-3.673
		c-0.318-1.135-0.952-2.267-2.301-2.542c-1.093-0.229-2.031,0.111-2.786,0.986C33.857,36.781,33.716,37.708,33.823,38.737z"/>
	<path fill="#272727" d="M33.823,38.737c-0.107-1.029,0.034-1.957,0.736-2.774c0.755-0.875,1.693-1.215,2.786-0.986
		c1.349,0.275,1.982,1.407,2.301,2.542c0.323,1.168,0.634,2.402,0.122,3.673c-0.379,0.94-0.418,2.096-1.641,2.387
		c-1.633,0.392-2.824-0.328-3.614-1.71C33.964,40.91,33.662,39.856,33.823,38.737z"/>
	<path fill="#FCFCFC" d="M75.282,44.328c2.369,1.278,3.639,0.669,3.588-2.312c-0.067-3.83-0.186-7.658-0.251-11.489
		c-0.005-0.185-0.214-0.364-0.331-0.546c-0.793-1.967-1.639-0.79-2.434,0.02"/>
	<path fill="#1D1D1D" d="M75.282,44.328c2.369,1.278,3.639,0.669,3.588-2.312c-0.067-3.83-0.186-7.658-0.251-11.489
		c-0.005-0.185-0.214-0.364-0.331-0.546c-0.176,0.015-0.354,0.037-0.531,0.051c0.173,4.127,0.494,8.256,0.449,12.381
		c-0.021,2.085-0.734,2.278-2.836,1.384"/>
	<path fill="#333333" d="M75.555,31.973c0.331-1.44,1.279-2.276,2.202-1.942c0.178-0.014,0.355-0.036,0.531-0.051
		c-0.793-1.967-1.639-0.79-2.434,0.02"/>
	<path fill="#FCFCFC" d="M75.37,43.797c2.102,0.894,2.814,0.701,2.836-1.384c0.045-4.125-0.276-8.254-0.449-12.381
		c-0.923-0.334-1.871,0.502-2.202,1.942"/>
</g>
<ellipse transform="matrix(-0.0063 -1 1 -0.0063 0.5788 96.5752)" fill="none" cx="48.274" cy="48" rx="48" ry="48.274"/>
<g>
	<path d="M39.038,89.057c-0.971,0.432-2.617,0.782-4.804,0.782c-4.804,0-8.043-2.915-8.043-7.72c0-4.076,1.835-7.261,4.589-9.097
		c1.89-1.322,4.13-1.943,6.694-1.943c1.969,0,3.455,0.459,3.967,0.783l-1.053,3.158c-0.539-0.271-1.727-0.594-3.293-0.594
		c-1.564,0-3.05,0.485-4.156,1.403c-1.539,1.241-2.511,3.32-2.511,5.857c0,2.888,1.621,4.832,4.832,4.832
		c1.269,0,2.537-0.217,3.455-0.594L39.038,89.057z"/>
	<path d="M41.903,85.358c1.08,0.647,2.619,1.161,4.293,1.161c1.507,0,2.88-0.702,2.88-2.133c0-1.025-0.781-1.7-2.449-2.564
		c-1.943-1.053-3.779-2.456-3.779-4.832c0-3.671,3.211-5.911,7.173-5.911c2.213,0,3.51,0.486,4.291,0.918L53.1,75.236
		c-0.594-0.324-1.891-0.837-3.402-0.81c-1.806,0-2.746,0.917-2.746,1.916c0,1.053,1.101,1.7,2.638,2.564
		c2.213,1.161,3.617,2.646,3.617,4.805c0,4.049-3.348,6.127-7.39,6.127c-2.537,0-4.346-0.647-5.209-1.295L41.903,85.358z"/>
	<path d="M58.258,71.728c1.16-0.298,2.996-0.486,4.75-0.486c1.619,0,3.51,0.27,4.832,1.215c1.215,0.837,1.971,2.105,1.971,3.859
		c0,2.295-1.053,4.022-2.482,5.129c-1.486,1.161-3.592,1.674-5.805,1.674c-0.648,0-1.188-0.054-1.592-0.108l-1.242,6.56h-3.807
		L58.258,71.728z M60.525,79.852c0.404,0.081,0.836,0.136,1.484,0.136c2.348,0,3.887-1.512,3.887-3.32
		c0-1.755-1.27-2.321-2.779-2.321c-0.73,0-1.242,0.054-1.566,0.135L60.525,79.852z"/>
</g>
</svg>
