<?xml version="1.0" encoding="utf-8"?>
<!-- Generator: Adobe Illustrator 16.0.3, SVG Export Plug-In . SVG Version: 6.00 Build 0)  -->
<!DOCTYPE svg PUBLIC "-//W3C//DTD SVG 1.1//EN" "http://www.w3.org/Graphics/SVG/1.1/DTD/svg11.dtd">
<svg version="1.1" id="Layer_1" xmlns="http://www.w3.org/2000/svg" xmlns:xlink="http://www.w3.org/1999/xlink" x="0px" y="0px"
	 width="96px" height="96px" viewBox="0 0 96 96" enable-background="new 0 0 96 96" xml:space="preserve">
<path fill-rule="evenodd" clip-rule="evenodd" fill="#FCFCFC" d="M76.092,45.66c-0.381-0.292-0.766-0.583-1.148-0.877
	c0.178-0.486,0.896-0.918,0.146-1.498c0.083-0.51,0.177-1.016,0.532-1.423c0.143-0.51,0.207-1.089,0.207-1.554
	c0.002-1.639,0.791-3.384-0.435-4.918c0.009-0.125,0.017-0.251,0.024-0.377c0.192-0.157,0.311-0.311-0.027-0.439
	c0.342-1.17-0.237-2.199-0.477-3.282c0.471-0.771,0.248-1.568-0.012-2.314c-0.348-0.981-0.803-1.919-1.215-2.877
	c0.018-0.759-0.572-1.259-0.85-1.888c-2.237-5.035-5.759-8.999-10.26-12.133c-2.807-1.956-5.979-3.11-9.177-4.201
	c-0.628-0.79-1.258-1.579-1.882-2.373c-3.299-4.217-4.436-3.645-7.439,0.261c-0.382,0.386-0.884,0.698-0.917,1.421
	c0.787-0.139,0.988-0.726,1.329-1.162c0.662-0.712,1.299-1.454,1.994-2.134c0.874-0.857,1.864-0.926,2.723-0.031
	c1.082,1.13,2.072,2.354,3.172,3.614c-0.463,0.034-0.771,0.06-1.084,0.083l0.035,0.018c-0.044-0.234-0.121-0.161-0.205-0.021
	c-3.05,0.244-6.159-0.42-9.159,0.649c-1.473,0.527-2.983,0.938-4.478,1.399c-0.816,0.08-1.229,0.844-1.909,1.134
	c-3.269,1.389-5.838,3.665-8.07,6.348c-2.447,2.936-4.672,6.018-5.562,9.845c-1.24,1.169-0.848,2.992-1.765,4.372
	c-0.795-0.81-1.642-1.986-2.435-0.02c-0.116,0.182-0.326,0.362-0.33,0.546c-0.067,3.832-0.185,7.66-0.25,11.489
	c-0.052,2.981,1.216,3.59,3.587,2.312c1.313,3.546,2.488,7.106,4.736,10.281c2.835,4.005,6.182,7.27,10.608,9.405
	c-0.035,0.026-0.071,0.057-0.106,0.085c0.049,0.014,0.111,0.014,0.148,0.044c1.095,0.875,2.397,1.277,3.72,1.642
	c3.613,1.318,7.392,0.869,11.112,1.02c1.243-0.32,2.486-0.626,3.72-0.965c3.52-0.963,6.84-2.305,9.477-4.96
	c2.566-1.423,4.186-3.802,5.894-6.034c2.249-2.943,3.707-6.325,4.624-9.925c0.279-0.301,0.535-0.708,1.01-0.271 M76.047,31.345"/>
<path fill-rule="evenodd" clip-rule="evenodd" fill="#0150FA" d="M75.089,43.285c0.751,0.579,0.032,1.011-0.146,1.498
	c-0.285,0.443-0.639,0.875-0.254,1.439c-0.917,3.6-2.375,6.981-4.624,9.925c-1.708,2.232-3.327,4.611-5.894,6.034
	c0.914-3.573-0.02-6.277-3.96-7.319c-3.407-0.898-6.03-3.107-7.632-6.45c-1.016-2.124-1.476-4.427-2.488-6.56
	c-1.279-2.7-2.513-5.454-2.879-8.505c-0.069-0.585,0.199-1.098-0.071-1.793c-0.61-1.597-0.794-3.368-1.105-5.074
	c-0.901-4.946-2.475-9.547-6.046-13.318c-0.967-1.022-2.289-1.942-2.5-3.558c1.495-0.461,3.005-0.872,4.478-1.399
	c3-1.07,6.109-0.405,9.159-0.649c0.066,0.012,0.137,0.02,0.205,0.021l2.069,0.303c0.22,0.075-0.741,0.145,0,0
	c3.198,1.091,6.37,2.245,9.177,4.201c4.501,3.134,8.022,7.098,10.26,12.133c0.277,0.629,0.867,1.129,0.85,1.888
	c0.176,1.504,0.914,2.916,0.75,4.477c-0.962-0.069-1.914,0.035-2.512,0.859c-1.742,2.391-3.703,6.962-1.138,10.556
	C71.956,43.623,73.156,44.083,75.089,43.285z M65.793,36.487c0.058-2.138,0.07-4.278-0.725-6.31
	c-1.135-2.901-3.436-4.663-6.133-5.931c-1.455-0.687-2.922-1.508-4.686-1.047c-2.223,0.581-3.25,2.319-4.088,4.175
	c-1.336,2.958-1.214,6.099-0.346,9.082c1.021,3.528,2.725,6.846,5.428,9.404c3.315,3.14,8.371,1.608,9.744-2.752
	C65.67,40.938,65.895,38.737,65.793,36.487z"/>
<path fill-rule="evenodd" clip-rule="evenodd" fill="#02BDF9" d="M37.491,9.602c0.211,1.616,1.533,2.536,2.5,3.558
	c3.571,3.771,5.145,8.373,6.046,13.318c0.311,1.706,0.495,3.477,1.105,5.074c0.27,0.696,0.002,1.208,0.071,1.793
	c0.367,3.051,1.6,5.806,2.879,8.505c1.013,2.133,1.473,4.437,2.488,6.56c1.602,3.343,4.225,5.552,7.632,6.45
	c3.94,1.042,4.874,3.746,3.96,7.319c-2.637,2.655-5.957,3.997-9.477,4.96c-1.233,0.339-2.477,0.645-3.72,0.965
	c0.356-2.023,1.136-3.971,0.989-6.082c-0.153-2.274-0.694-4.416-1.307-6.619c-0.855-3.061-1.871-6.24-1.328-9.547
	c0.235-1.454-0.344-1.848-1.667-1.376c0-0.367-0.006-0.732-0.006-1.097c1.229-0.103,1.085-0.712,0.694-1.599
	c-0.68-1.541-1.253-3.121-1.698-4.757c-1.24-4.615-2.753-9.105-6.441-12.465l-0.031-0.025c-1.909-1.717-4.203-2.602-6.67-3.121
	c-0.927,0-0.927,0-1.606,0c-0.589,0.105-1.169,0.245-1.761,0.309c-3.041,0.33-5.804,2.708-6.772,5.525
	c-1.087,3.167-0.787,6.527-1.637,9.734c-0.583,2.205-0.427,4.551-0.401,6.848c0.006,0.527,0.152,1.15-0.64,1.291l-0.025-0.025
	c-0.225-1.166-0.104-2.4-0.659-3.506c0.265-0.245,0.311-0.549,0.244-0.883c0-0.129,0.004-0.26,0.004-0.388
	c0.02-2.064,0.036-4.127,0.054-6.192c-0.362-0.368-0.085-0.61,0.173-0.855c0.489-2.115,0.977-4.23,1.466-6.346
	c0.89-3.827,3.115-6.909,5.562-9.845c2.232-2.683,4.802-4.959,8.07-6.348C36.262,10.446,36.674,9.682,37.491,9.602z"/>
<path fill-rule="evenodd" clip-rule="evenodd" fill="#20F9DF" d="M47.663,44.48c1.324-0.472,1.903-0.077,1.667,1.376
	c-0.543,3.307,0.473,6.487,1.328,9.547c0.612,2.203,1.153,4.345,1.307,6.619c0.146,2.111-0.633,4.059-0.989,6.082
	c-3.72-0.15-7.499,0.299-11.112-1.02c-1.04-1.048-2.355-1.506-3.763-1.771c-4.426-2.136-7.773-5.4-10.608-9.405
	c-2.248-3.175-3.423-6.735-4.736-10.281c-0.021-0.166-0.042-0.338-0.064-0.506c0.792-0.141,0.646-0.764,0.64-1.291
	c-0.026-2.296-0.183-4.643,0.401-6.848c0.851-3.207,0.55-6.567,1.637-9.734c0.969-2.817,3.731-5.195,6.772-5.525
	c0.591-0.064,1.172-0.203,1.761-0.309c0.816,0,0.697,0,1.606,0c2.468,0.519,4.761,1.403,6.669,3.116
	c-0.562-0.21-1.095-0.257-1.213,0.497c-0.05,0.311,0.186,0.643,0.564,0.651c0.829,0.017,0.743-0.566,0.681-1.119
	c3.688,3.36,5.202,7.85,6.441,12.465c0.444,1.637,1.018,3.216,1.698,4.757c0.391,0.886,0.535,1.496-0.694,1.599
	c-0.861-2.306-1.968-4.556-2.527-6.935c-1.189-5.032-4.399-7.938-9.096-9.552c-3.565-1.224-8.029,0.898-9.195,4.358
	c-0.959,2.844-1.056,5.755-1.53,8.635c-0.464,2.031-0.447,4.063-0.008,6.094c0.054,0.534,0.092,1.058,0.212,1.599
	c1.222,5.498,4.655,9.825,7.784,14.236c3.325,4.688,9.449,3.959,12.162-0.427c0.841-1.36,1.433-2.813,1.595-4.421
	c0.532-2.842,0.186-5.711,0.262-8.565C47.888,47.139,47.456,45.779,47.663,44.48z"/>
<path fill-rule="evenodd" clip-rule="evenodd" fill="#02BDF9" d="M75.089,43.285c-1.933,0.797-3.133,0.338-4.301-1.293
	c-2.565-3.593-0.604-8.165,1.138-10.556c0.598-0.824,1.55-0.929,2.512-0.859c-0.004,0-0.072,0.012-0.072,0.012
	c0.111,0.139,0.219,0.273,0.33,0.411c0.072,0.098,0.143,0.193,0.219,0.291c0.239,1.083,0.818,2.112,0.477,3.282
	c0.012,0.143,0.016,0.293,0.027,0.439c-0.008,0.126-0.016,0.252-0.024,0.377c0.339,2.152-0.183,4.327,0.228,6.472
	C75.266,42.27,75.172,42.775,75.089,43.285z"/>
<path fill-rule="evenodd" clip-rule="evenodd" fill="#1D1D1D" d="M20.692,45.123c0.021,0.168,0.042,0.34,0.064,0.506
	c-2.371,1.278-3.64,0.669-3.587-2.312c0.066-3.83,0.184-7.658,0.25-11.489c0.004-0.185,0.214-0.364,0.33-0.546
	c0.178,0.015,0.355,0.037,0.534,0.051c-0.174,4.127-0.495,8.256-0.45,12.381c0.021,2.085,0.733,2.278,2.834,1.384L20.692,45.123z"/>
<path fill-rule="evenodd" clip-rule="evenodd" fill="#1D1D1D" d="M75.699,45.951c0.131-0.098,0.265-0.193,0.393-0.291"/>
<path fill-rule="evenodd" clip-rule="evenodd" fill="#333333" d="M53.401,7.878c-0.741,0.145-0.438,0.472-1.021-0.404
	c0.313-0.025-0.463,0.034,0,0c-1.1-1.261-2.09-2.484-3.172-3.614c-0.859-0.895-1.849-0.827-2.723,0.031
	c-0.695,0.68-1.332,1.421-1.994,2.134c-0.136-0.085-0.277-0.174-0.412-0.259c3.003-3.906,4.14-4.478,7.439-0.261
	C52.144,6.299,52.773,7.089,53.401,7.878z"/>
<path fill-rule="evenodd" clip-rule="evenodd" fill="#333333" d="M18.283,31.333c-0.178-0.014-0.355-0.036-0.534-0.051
	c0.792-1.967,1.639-0.79,2.435,0.02c0.917-1.38,0.525-3.203,1.765-4.372c-0.489,2.116-0.977,4.23-1.466,6.346
	C20.153,31.834,19.204,30.999,18.283,31.333z"/>
<path fill-rule="evenodd" clip-rule="evenodd" fill="#333333" d="M75.621,41.862c-0.41-2.145,0.111-4.32-0.228-6.472
	c1.226,1.534,0.437,3.279,0.435,4.918C75.828,40.773,75.764,41.352,75.621,41.862z"/>
<path fill-rule="evenodd" clip-rule="evenodd" fill="#333333" d="M74.914,31.292c-0.076-0.098-0.146-0.193-0.219-0.291
	c0.004-0.231,0.041-0.48-0.33-0.411c0,0,0.068-0.012,0.072-0.012c0.164-1.561-0.574-2.973-0.75-4.477
	c0.412,0.958,0.867,1.896,1.215,2.877C75.162,29.724,75.385,30.521,74.914,31.292z"/>
<path fill-rule="evenodd" clip-rule="evenodd" fill="#20F9DF" d="M36.101,65.315c1.407,0.265,2.723,0.723,3.763,1.771
	c-1.323-0.364-2.625-0.767-3.72-1.642c-0.037-0.03-0.099-0.03-0.148-0.044C36.03,65.372,36.066,65.342,36.101,65.315z"/>
<path fill-rule="evenodd" clip-rule="evenodd" fill="#333333" d="M76.047,31.345"/>
<path fill-rule="evenodd" clip-rule="evenodd" fill="#1D1D1D" d="M74.689,46.222c-0.385-0.564-0.031-0.996,0.254-1.439
	c0.383,0.294,0.768,0.585,1.148,0.877c-0.128,0.098-0.262,0.193-0.393,0.291C75.225,45.514,74.969,45.921,74.689,46.222z"/>
<path fill-rule="evenodd" clip-rule="evenodd" fill="#333333" d="M44.493,6.025c-0.341,0.436-1.059,1.733-1.845,1.872
	c0.032-0.722,1.05-1.745,1.433-2.131C44.216,5.851,44.357,5.939,44.493,6.025z"/>
<path fill-rule="evenodd" clip-rule="evenodd" fill="#333333" d="M75.418,35.013c-0.012-0.146-0.016-0.296-0.027-0.439
	C75.729,34.702,75.61,34.856,75.418,35.013z"/>
<path fill-rule="evenodd" clip-rule="evenodd" fill="#333333" d="M51.332,7.575c-0.068-0.002-0.139-0.009-0.205-0.021"/>
<path fill-rule="evenodd" clip-rule="evenodd" fill="#0101EC" d="M65.793,36.483c0.102,2.253-0.123,4.455-0.805,6.625
	c-1.373,4.36-6.429,5.892-9.744,2.752c-2.703-2.559-4.406-5.876-5.428-9.404c-0.868-2.983-0.99-6.124,0.346-9.082
	C51,25.519,52.027,23.781,54.25,23.2c1.764-0.461,3.23,0.36,4.686,1.047c2.697,1.268,4.998,3.03,6.133,5.931
	C65.863,32.209,65.851,34.349,65.793,36.483z M62.886,37.143c-0.06-3.305-1.2-5.746-4.023-7.197
	c-2.997-1.539-6.108,0.133-6.537,3.483c-0.343,2.706,0.519,5.06,2.122,7.177c1.663,2.197,3.78,2.808,6.17,1.547
	C62.677,41.064,62.754,38.93,62.886,37.143z"/>
<path fill-rule="evenodd" clip-rule="evenodd" fill="#8DF56D" d="M47.052,56.973c-0.162,1.607-0.753,3.061-1.595,4.421
	c-2.713,4.386-8.837,5.114-12.162,0.427c-3.129-4.411-6.563-8.738-7.784-14.236c-0.12-0.541-0.158-1.065-0.212-1.594
	c0.004-2.033,0.007-4.063,0.008-6.099c0.474-2.88,0.571-5.792,1.53-8.635c1.166-3.46,5.63-5.582,9.195-4.358
	c4.696,1.613,7.906,4.52,9.096,9.552c0.56,2.379,1.666,4.629,2.527,6.935c0,0.365,0.006,0.73,0.006,1.097
	c-0.207,1.299,0.226,2.658-0.348,3.927c-0.378,0.338-0.289,0.796-0.289,1.222C47.027,52.072,47.041,54.521,47.052,56.973z
	 M37.837,30.807c-0.041-0.098-0.052-0.252-0.125-0.295c-3.099-1.738-6.945-0.947-8.806,2.711c-0.738,1.447-0.977,3.007-1.209,4.565
	c-0.462,3.079-0.398,6.058,0.45,9.178c1.135,4.162,4.124,6.891,6.842,9.677c3.429,3.519,6.99,2.692,9.028-1.298
	c1.723-3.363,1.896-7.166,1.891-10.817c-0.006-3.429-1.331-6.715-2.825-9.815c-0.943-1.959-2.313-3.579-4.738-3.766
	C38.175,30.902,38.005,30.857,37.837,30.807z"/>
<path fill-rule="evenodd" clip-rule="evenodd" fill="#FCFCFC" d="M18.283,31.333c0.921-0.334,1.87,0.502,2.2,1.942
	c-0.259,0.245-0.535,0.487-0.173,0.855c-1.226,1.904-0.608,3.954-0.457,5.963c0.007,0.087,0.264,0.152,0.403,0.229
	c0,0.128-0.004,0.259-0.004,0.388c-0.41,0.203-0.317,0.544-0.244,0.883c0.555,1.106,0.434,2.34,0.659,3.506
	c-2.102,0.894-2.813,0.701-2.834-1.384C17.789,39.588,18.109,35.46,18.283,31.333z"/>
<path fill-rule="evenodd" clip-rule="evenodd" fill="#BFBFBF" d="M20.256,40.321c-0.139-0.077-0.396-0.142-0.403-0.229
	c-0.152-2.009-0.769-4.059,0.457-5.963C20.292,36.194,20.276,38.257,20.256,40.321z"/>
<path fill-rule="evenodd" clip-rule="evenodd" fill="#20F9DF" d="M40.211,24.563c0.062,0.553,0.147,1.135-0.681,1.119
	c-0.378-0.008-0.614-0.34-0.564-0.651c0.118-0.754,0.651-0.707,1.213-0.497C40.18,24.538,40.211,24.563,40.211,24.563z"/>
<path fill-rule="evenodd" clip-rule="evenodd" fill="#BFBFBF" d="M20.009,41.592c-0.073-0.339-0.166-0.68,0.244-0.883
	C20.319,41.043,20.274,41.347,20.009,41.592z"/>
<path fill-rule="evenodd" clip-rule="evenodd" fill="#7FF17E" d="M47.052,56.973c-0.011-2.451-0.025-4.9-0.027-7.344
	c0-0.426-0.089-0.884,0.289-1.222C47.238,51.262,47.584,54.131,47.052,56.973z"/>
<path fill-rule="evenodd" clip-rule="evenodd" fill="#7FF17E" d="M25.308,39.891c-0.001,2.036-0.004,4.066-0.008,6.099
	C24.861,43.953,24.843,41.921,25.308,39.891z"/>
<path fill-rule="evenodd" clip-rule="evenodd" fill="#0150FA" d="M74.365,30.589c0.371-0.069,0.334,0.18,0.33,0.411
	C74.584,30.863,74.477,30.729,74.365,30.589z"/>
<path fill-rule="evenodd" clip-rule="evenodd" fill="#01008D" d="M62.886,37.143c-0.132,1.787-0.209,3.921-2.269,5.01
	c-2.39,1.26-4.507,0.649-6.17-1.547c-1.604-2.117-2.465-4.471-2.122-7.177c0.429-3.35,3.54-5.022,6.537-3.483
	C61.686,31.397,62.826,33.838,62.886,37.143z"/>
<path fill-rule="evenodd" clip-rule="evenodd" fill="#ECF810" d="M38.344,30.947c2.425,0.187,3.795,1.807,4.738,3.766
	c1.494,3.101,2.818,6.387,2.825,9.815c0.005,3.651-0.168,7.454-1.891,10.817c-2.038,3.99-5.599,4.816-9.028,1.298
	c-2.718-2.786-5.708-5.515-6.842-9.677c-0.848-3.12-0.912-6.099-0.45-9.178c0.232-1.559,0.471-3.118,1.209-4.565
	c1.861-3.658,5.707-4.449,8.806-2.711c0.074,0.043,0.084,0.197,0.125,0.295c-0.916-0.033-0.67,0.654-0.721,1.156
	c-1.781-0.517-3.594-0.83-5.06,0.643c-1.859,1.862-2.931,4.138-3.12,6.802c-0.396,5.583,1.757,10.066,5.853,13.738
	c3.125,2.803,6.29,2.195,7.952-0.746c0.353-0.625,0.451-1.328,0.708-1.979c0.921-2.342,1.647-4.816,1.186-7.33
	c-0.43-2.362-1.177-4.689-2.013-6.951c-0.566-1.528-1.45-2.971-3.359-3.255c-0.485-0.073-0.943-0.278-1.23-0.73
	C38.337,31.807,38.524,31.423,38.344,30.947z"/>
<path fill-rule="evenodd" clip-rule="evenodd" fill="#ECF810" d="M38.344,30.947c0.18,0.476-0.007,0.859-0.313,1.209
	c-0.309-0.05-0.677,0.195-0.916-0.193c0.051-0.502-0.195-1.189,0.721-1.156C38.005,30.857,38.175,30.902,38.344,30.947z"/>
<path fill-rule="evenodd" clip-rule="evenodd" fill="#F9AF02" d="M37.116,31.963c0.474,0.124,0.606,0.143,0.916,0.193
	c0.287,0.452,0.745,0.657,1.23,0.73c1.91,0.284,2.793,1.728,3.359,3.255c0.836,2.261,1.583,4.589,2.013,6.951
	c0.462,2.513-0.264,4.988-1.186,7.33c-0.257,0.65-0.355,1.354-0.708,1.979c-1.662,2.941-4.827,3.549-7.952,0.746
	c-4.095-3.672-6.249-8.156-5.853-13.738c0.189-2.664,1.261-4.94,3.12-6.802C33.522,31.134,35.335,31.447,37.116,31.963z
	 M43.003,43.593c0.257-2.37-0.33-4.494-1.265-6.563c-1.091-2.419-3.967-4.049-6.688-3.706c-1.991,0.248-4.06,2.434-4.396,4.929
	c-0.728,5.353,1.027,9.682,5.472,12.904c2.145,1.553,5.039,0.829,5.862-1.899C42.552,47.381,43.359,45.557,43.003,43.593z"/>
<path fill-rule="evenodd" clip-rule="evenodd" fill="#F94003" d="M43.003,43.593c0.355,1.963-0.452,3.788-1.016,5.665
	c-0.823,2.729-3.717,3.452-5.862,1.899c-4.445-3.222-6.2-7.551-5.472-12.904c0.337-2.496,2.406-4.682,4.396-4.929
	c2.721-0.343,5.597,1.286,6.688,3.706C42.673,39.1,43.26,41.223,43.003,43.593z M41.418,41.723c0.112-1.909-0.284-3.56-1.39-5.027
	c-1.195-1.589-2.875-2.033-4.659-1.73c-1.519,0.257-2.396,1.37-3.04,2.868c-1.316,3.047,0.666,7.657,2.979,9.7
	c2.663,2.348,4.973,1.203,5.683-2.041C41.263,44.241,41.634,42.944,41.418,41.723z"/>
<path fill-rule="evenodd" clip-rule="evenodd" fill="#DD0201" d="M41.418,41.723c0.216,1.221-0.155,2.518-0.427,3.77
	c-0.71,3.244-3.02,4.388-5.683,2.041c-2.313-2.043-4.295-6.653-2.979-9.7c0.645-1.498,1.521-2.61,3.04-2.868
	c1.784-0.302,3.464,0.141,4.659,1.73C41.134,38.164,41.53,39.814,41.418,41.723z M33.861,40.038
	c-0.161,1.119,0.141,2.173,0.689,3.131c0.79,1.382,1.981,2.102,3.614,1.71c1.223-0.292,1.262-1.447,1.641-2.387
	c0.512-1.271,0.201-2.505-0.122-3.673c-0.318-1.135-0.952-2.267-2.301-2.542c-1.093-0.229-2.031,0.111-2.786,0.986
	C33.895,38.082,33.754,39.009,33.861,40.038z"/>
<path fill-rule="evenodd" clip-rule="evenodd" fill="#7F0101" d="M33.861,40.038c-0.107-1.029,0.034-1.957,0.736-2.774
	c0.755-0.875,1.693-1.215,2.786-0.986c1.349,0.275,1.982,1.407,2.301,2.542c0.323,1.168,0.634,2.402,0.122,3.673
	c-0.379,0.94-0.418,2.096-1.641,2.387c-1.633,0.392-2.824-0.328-3.614-1.71C34.002,42.211,33.7,41.157,33.861,40.038z"/>
<g>
	<path d="M43.497,90.812c-0.864,0.432-2.591,0.863-4.805,0.863c-5.129,0-8.989-3.238-8.989-9.204c0-5.695,3.86-9.556,9.501-9.556
		c2.268,0,3.698,0.486,4.319,0.81l-0.567,1.917c-0.891-0.432-2.159-0.756-3.671-0.756c-4.265,0-7.099,2.727-7.099,7.504
		c0,4.454,2.564,7.315,6.991,7.315c1.431,0,2.888-0.297,3.833-0.756L43.497,90.812z"/>
	<path d="M46.119,88.544c1.053,0.647,2.591,1.188,4.21,1.188c2.402,0,3.807-1.269,3.807-3.104c0-1.701-0.972-2.673-3.429-3.617
		c-2.969-1.053-4.804-2.592-4.804-5.156c0-2.834,2.348-4.939,5.884-4.939c1.862,0,3.212,0.432,4.021,0.891l-0.647,1.917
		c-0.594-0.324-1.809-0.864-3.455-0.864c-2.483,0-3.428,1.485-3.428,2.727c0,1.7,1.106,2.537,3.617,3.509
		c3.077,1.188,4.643,2.673,4.643,5.345c0,2.808-2.079,5.236-6.37,5.236c-1.755,0-3.671-0.513-4.643-1.16L46.119,88.544z"/>
	<path d="M59.754,73.428c1.134-0.188,2.618-0.351,4.508-0.351c2.321,0,4.021,0.54,5.102,1.512c0.998,0.863,1.593,2.187,1.593,3.806
		c0,1.646-0.486,2.942-1.404,3.887c-1.241,1.323-3.266,1.998-5.561,1.998c-0.701,0-1.35-0.027-1.89-0.162v7.288h-2.348V73.428z
		 M62.102,82.201c0.514,0.135,1.161,0.188,1.944,0.188c2.834,0,4.562-1.377,4.562-3.887c0-2.402-1.701-3.563-4.292-3.563
		c-1.025,0-1.809,0.081-2.214,0.189V82.201z"/>
</g>
<path fill-rule="evenodd" clip-rule="evenodd" fill="#FCFCFC" d="M75.32,45.629c2.37,1.278,3.639,0.669,3.588-2.312
	c-0.067-3.83-0.186-7.658-0.251-11.489c-0.004-0.185-0.214-0.364-0.331-0.546c-0.793-1.967-1.639-0.79-2.434,0.02"/>
<path fill-rule="evenodd" clip-rule="evenodd" fill="#1D1D1D" d="M75.32,45.629c2.37,1.278,3.639,0.669,3.588-2.312
	c-0.067-3.83-0.186-7.658-0.251-11.489c-0.004-0.185-0.214-0.364-0.331-0.546c-0.176,0.015-0.354,0.037-0.531,0.051
	c0.173,4.127,0.494,8.256,0.449,12.381c-0.021,2.085-0.734,2.278-2.836,1.384"/>
<path fill-rule="evenodd" clip-rule="evenodd" fill="#333333" d="M75.593,33.274c0.331-1.44,1.279-2.276,2.202-1.942
	c0.177-0.014,0.355-0.036,0.531-0.051c-0.793-1.967-1.639-0.79-2.434,0.02"/>
<path fill-rule="evenodd" clip-rule="evenodd" fill="#FCFCFC" d="M75.408,45.098c2.102,0.894,2.814,0.701,2.836-1.384
	c0.045-4.125-0.276-8.254-0.449-12.381c-0.923-0.334-1.871,0.502-2.202,1.942"/>
<circle fill-rule="evenodd" clip-rule="evenodd" fill="none" cx="48.274" cy="46.73" r="48.274"/>
</svg>
