<?xml version="1.0" encoding="utf-8"?>
<!-- Generator: Adobe Illustrator 16.0.3, SVG Export Plug-In . SVG Version: 6.00 Build 0)  -->
<!DOCTYPE svg PUBLIC "-//W3C//DTD SVG 1.1//EN" "http://www.w3.org/Graphics/SVG/1.1/DTD/svg11.dtd">
<svg version="1.1" id="Layer_1" xmlns="http://www.w3.org/2000/svg" xmlns:xlink="http://www.w3.org/1999/xlink" x="0px" y="0px"
	 width="96px" height="96px" viewBox="0 0 96 96" enable-background="new 0 0 96 96" xml:space="preserve">
<circle fill="none" cx="48" cy="48" r="48"/>
<path fill="#CCCCCC" d="M19.845,26.693c0.546,2.321,2.059,6.878,2.77,8.689c0.984,2.507,2.28,9.232,4.956,9.846
	c0.946,0.217,2.715-1.21,3.369-1.928c1.156-1.27,1.98-7.326,3.697-7.378c1.696-0.053,2.223,3.882,2.884,5.833
	c0.578,1.707,2.519,5.481,3.279,6.961c0.946,1.845,2.779,5.666,3.778,7.519c0.708,1.313,2.245,3.859,3.206,5.024
	c0.755,0.919,2.196,2.896,3.012,3.767c0.872,0.933,2.448,3.496,3.726,3.44c1.19-0.049,2.367-2.807,3.131-3.725
	c0.84-1.007,2.386-2.849,3.68-2.88c1.089-0.024,2.723,1.734,3.557,2.437c0.854,0.716,2.373,2.345,3.213,3.07
	c0.844,0.729,2.342,2.432,3.112,3.233c0.938,0.979,2.591,3.183,3.593,4.094c1.735,1.582,5.033,1.582,5.033,1.582l-60.945,0.187
	L19.845,26.693z"/>
<g>
	<line fill="none" x1="18.504" y1="12.768" x2="18.504" y2="77.486"/>
	<path fill="#8E8E8E" d="M18.504,78.693c-0.666,0-1.206-0.541-1.206-1.207V12.768c0-0.666,0.54-1.206,1.206-1.206
		c0.667,0,1.207,0.541,1.207,1.206v64.718C19.711,78.152,19.171,78.693,18.504,78.693z"/>
</g>
<g>
	<path fill="none" stroke="#000000" stroke-width="2.6014" stroke-linecap="round" stroke-miterlimit="10" d="M35.015,76.927"/>
</g>
<g>
	<path d="M47.441,82.339h7.112l-0.433,2.216h-4.5l-0.56,2.844h4.231l-0.433,2.196h-4.213l-0.918,4.88h-2.593L47.441,82.339z"/>
</g>
<g>
	<line fill="none" x1="81.877" y1="77.486" x2="18.504" y2="77.486"/>
	<path fill="#8E8E8E" d="M81.877,78.693H18.504c-0.666,0-1.206-0.541-1.206-1.207c0-0.668,0.54-1.207,1.206-1.207h63.373
		c0.668,0,1.207,0.539,1.207,1.207C83.084,78.152,82.545,78.693,81.877,78.693z"/>
</g>
<path fill="none" stroke="#000000" stroke-width="3" stroke-linecap="round" stroke-miterlimit="10" d="M20.906,26.88
	c0.545,2.321,1.673,5.966,2.385,7.777c0.985,2.507,1.677,9.175,4.353,9.788c0.946,0.217,2.715-1.21,3.369-1.928
	c1.157-1.27,1.98-7.326,3.698-7.379c1.695-0.052,2.223,3.883,2.883,5.833c0.578,1.707,2.519,5.481,3.279,6.962
	c0.947,1.842,2.78,5.665,3.779,7.518c0.707,1.313,2.246,3.857,3.205,5.023c0.756,0.918,2.198,2.896,3.012,3.767
	c0.873,0.933,2.449,3.495,3.725,3.44c1.192-0.05,2.369-2.807,3.133-3.725c0.84-1.006,2.387-2.85,3.68-2.879
	c1.089-0.025,2.724,1.732,3.558,2.436c0.853,0.717,2.371,2.344,3.213,3.07c0.843,0.729,2.343,2.432,3.111,3.234
	c0.938,0.979,2.59,3.181,3.592,4.094c1.736,1.581,5.034,1.581,5.034,1.581"/>
<path d="M55.46,16.728c0.718-0.184,1.854-0.301,2.94-0.301c1.003,0,2.172,0.167,2.991,0.752c0.751,0.518,1.22,1.303,1.22,2.39
	c0,1.42-0.652,2.489-1.537,3.174c-0.92,0.719-2.223,1.036-3.593,1.036c-0.401,0-0.735-0.034-0.985-0.067l-0.77,4.06h-2.355
	L55.46,16.728z M56.863,21.757c0.251,0.05,0.518,0.083,0.919,0.083c1.453,0,2.406-0.936,2.406-2.055
	c0-1.086-0.785-1.437-1.722-1.437c-0.451,0-0.769,0.033-0.969,0.083L56.863,21.757z"/>
<path d="M64.095,25.166c0.669,0.401,1.621,0.718,2.657,0.718c0.936,0,1.787-0.434,1.787-1.32c0-0.635-0.484-1.053-1.521-1.587
	c-1.202-0.651-2.339-1.521-2.339-2.991c0-2.272,1.988-3.659,4.444-3.659c1.37,0,2.172,0.301,2.657,0.568L71.029,18.9
	c-0.368-0.201-1.17-0.518-2.105-0.501c-1.119,0-1.704,0.568-1.704,1.187c0,0.651,0.685,1.053,1.637,1.587
	c1.37,0.718,2.239,1.637,2.239,2.974c0,2.506-2.071,3.792-4.578,3.792c-1.57,0-2.689-0.401-3.225-0.802L64.095,25.166z"/>
<path d="M75.153,16.678c0.952-0.167,2.021-0.251,3.107-0.251c1.755,0,3.158,0.401,4.11,1.22c0.902,0.752,1.471,1.872,1.487,3.526
	c0,2.172-0.919,4.06-2.322,5.179c-1.304,1.036-2.958,1.487-5.397,1.487c-1.353,0-2.522-0.1-3.074-0.201L75.153,16.678z
	 M75.821,25.834c0.284,0.05,0.636,0.067,1.053,0.067c1.304,0,2.456-0.468,3.191-1.32c0.769-0.869,1.17-2.038,1.17-3.392
	c0-1.771-0.986-2.824-2.975-2.824c-0.417,0-0.769,0.017-1.019,0.067L75.821,25.834z"/>
<g>
	<path fill="#FFFFFF" stroke="#000000" stroke-width="2" stroke-miterlimit="10" d="M46.354,75.856c0,2.668-2.308,4.831-5.155,4.831
		H18.321c-2.85,0-5.157-2.163-5.157-4.831v-7.529c0-2.667,2.308-4.823,5.157-4.823h22.878c2.848,0,5.155,2.156,5.155,4.823V75.856z"
		/>
	<g>
		<path d="M21.043,77.216l-3.187-9.748h1.361l1.521,4.798c0.419,1.314,0.781,2.504,1.042,3.646h0.029
			c0.275-1.13,0.681-2.36,1.115-3.631l1.651-4.813h1.348l-3.491,9.749L21.043,77.216L21.043,77.216z"/>
		<path d="M27.743,74.145l-1.02,3.071h-1.305l3.32-9.748h1.516l3.324,9.748H32.24l-1.044-3.071H27.743z M30.937,73.16l-0.956-2.797
			c-0.218-0.637-0.363-1.215-0.506-1.78h-0.03c-0.143,0.581-0.301,1.174-0.488,1.767l-0.951,2.811H30.937z"/>
		<path d="M35.015,67.6c0.639-0.132,1.55-0.203,2.419-0.203c1.349,0,2.218,0.246,2.825,0.797c0.492,0.435,0.768,1.101,0.768,1.854
			c0,1.282-0.81,2.134-1.839,2.479v0.043c0.753,0.26,1.2,0.953,1.434,1.967c0.319,1.362,0.55,2.303,0.755,2.681h-1.306
			c-0.158-0.276-0.377-1.116-0.649-2.332c-0.291-1.345-0.813-1.854-1.959-1.897h-1.188v4.229h-1.26V67.6z M36.275,72.037h1.292
			c1.346,0,2.2-0.736,2.2-1.846c0-1.26-0.911-1.81-2.245-1.826c-0.608,0-1.044,0.059-1.247,0.117V72.037L36.275,72.037z"/>
	</g>
</g>
</svg>
