<?xml version="1.0" encoding="utf-8"?>
<!-- Generator: Adobe Illustrator 16.0.3, SVG Export Plug-In . SVG Version: 6.00 Build 0)  -->
<!DOCTYPE svg PUBLIC "-//W3C//DTD SVG 1.1//EN" "http://www.w3.org/Graphics/SVG/1.1/DTD/svg11.dtd">
<svg version="1.1" id="Layer_1" xmlns="http://www.w3.org/2000/svg" xmlns:xlink="http://www.w3.org/1999/xlink" x="0px" y="0px"
	 width="96px" height="96px" viewBox="0 0 96 96" enable-background="new 0 0 96 96" xml:space="preserve">
<g>
	<rect x="5.34" y="31.103" width="9.6" height="9"/>
	<rect x="5.34" y="44.018" width="9.6" height="9.001"/>
	<rect x="5.339" y="56.938" width="9.601" height="8.998"/>
	<rect x="19.406" y="31.103" width="9.599" height="9"/>
	<rect x="19.406" y="44.018" width="9.599" height="9.001"/>
	<rect x="19.405" y="56.938" width="9.6" height="8.998"/>
</g>
<line fill="none" stroke="#7B7979" stroke-width="2" stroke-linejoin="round" stroke-miterlimit="10" x1="31.234" y1="48.612" x2="64.729" y2="48.612"/>
<g>
	<rect x="66.647" y="31.22" width="9.597" height="9"/>
	<rect x="66.647" y="44.136" width="9.597" height="8.999"/>
	<rect x="66.646" y="57.053" width="9.598" height="8.998"/>
	<rect x="80.71" y="31.22" width="9.6" height="9"/>
	<rect x="80.71" y="44.136" width="9.6" height="8.999"/>
	<rect x="80.71" y="57.053" width="9.6" height="8.998"/>
</g>
<path fill="none" d="M96,48.025C96,74.51,74.51,96,48,96S0,74.51,0,48.025c0-26.51,21.49-48,48-48S96,21.515,96,48.025z"/>
<g>
	<g>
		<polygon fill="#231F20" points="34.772,53.701 43.753,48.516 34.772,43.33 		"/>
	</g>
</g>
<g>
	<g>
		<polygon fill="#231F20" points="61.63,53.69 52.642,48.521 61.614,43.322 		"/>
	</g>
</g>
</svg>
