<?xml version="1.0" encoding="utf-8"?>
<!-- Generator: Adobe Illustrator 16.0.3, SVG Export Plug-In . SVG Version: 6.00 Build 0)  -->
<!DOCTYPE svg PUBLIC "-//W3C//DTD SVG 1.1//EN" "http://www.w3.org/Graphics/SVG/1.1/DTD/svg11.dtd">
<svg version="1.1" id="Layer_1" xmlns="http://www.w3.org/2000/svg" xmlns:xlink="http://www.w3.org/1999/xlink" x="0px" y="0px"
	 width="96px" height="96px" viewBox="0 0 96 96" enable-background="new 0 0 96 96" xml:space="preserve">
<g id="Layer_1_1_">
</g>
<circle fill="none" cx="48" cy="47.8" r="48"/>
<g>
	<g>
		<g>
			<g>
				<g>
					<g>
						<g>
							<g>
								<g>
									<path fill="none" stroke="#000000" stroke-width="3" stroke-miterlimit="10" d="M26.91,49.351
										c3.63,1.31,7.255,2.617,10.305,4.115c3.053,1.505,6.248,2.802,8.006,4.91c1.758,2.097,3.423,5.419,2.541,7.695
										c-0.882,2.276-4.593,5.851-7.837,5.953c-3.244,0.1-7.971-4.137-11.625-5.352c-3.643-1.213-6.895-1.451-10.229-1.935
										c-3.335-0.484-7.412-0.234-9.785-0.967c-2.372-0.73-3.714-1.63-4.447-3.413c-0.735-1.782-0.989-3.854,0.049-7.316
										c1.036-3.435,2.664-9.749,6.172-13.384c3.507-3.639,9.473-7.036,14.867-8.42c5.4-1.382,12.133-1.64,17.505,0.121
										c5.372,1.76,11.658,6.959,14.727,10.441c3.07,3.481,3.511,7.505,3.693,10.441c0.185,2.946-1.063,5.558-2.599,7.256
										c-1.545,1.689-4.858,2.392-6.644,2.929c-1.78,0.533-4.043,0.271-4.043,0.271"/>
								</g>
							</g>
						</g>
					</g>
				</g>
			</g>
		</g>
	</g>
	<g>
		<g>
			<g>
				<g>
					<g>
						<g>
							<g>
								<g>
									<path fill="#E7E6E6" d="M6.557,55.445c-0.126-1.151,0.702-2.179,1.851-2.305c1.146-0.124,2.178,0.698,2.303,1.848
										c0.126,1.151-0.702,2.189-1.848,2.315C7.713,57.431,6.683,56.598,6.557,55.445z"/>
								</g>
							</g>
						</g>
					</g>
				</g>
			</g>
		</g>
	</g>
	<g>
		<g>
			<g>
				<g>
					<g>
						<g>
							<g>
								<g>
									<path fill="none" stroke="#000000" stroke-miterlimit="10" d="M6.557,55.445c-0.126-1.151,0.702-2.179,1.851-2.305
										c1.146-0.124,2.178,0.698,2.303,1.848c0.126,1.151-0.702,2.189-1.848,2.315C7.713,57.431,6.683,56.598,6.557,55.445z"/>
								</g>
							</g>
						</g>
					</g>
				</g>
			</g>
		</g>
	</g>
	<g>
		<g>
			<g>
				<g>
					<g>
						<g>
							<g>
								<g>
									<path fill="#E7E6E6" d="M28.873,35.533c-0.126-1.146,0.702-2.18,1.855-2.304c1.151-0.126,2.187,0.702,2.31,1.849
										c0.125,1.148-0.701,2.182-1.853,2.306C30.031,37.509,28.999,36.681,28.873,35.533z"/>
								</g>
							</g>
						</g>
					</g>
				</g>
			</g>
		</g>
	</g>
	<g>
		<g>
			<g>
				<g>
					<g>
						<g>
							<g>
								<g>
									<path fill="none" stroke="#000000" stroke-miterlimit="10" d="M28.873,35.533c-0.126-1.146,0.702-2.18,1.855-2.304
										c1.151-0.126,2.187,0.702,2.31,1.849c0.125,1.148-0.701,2.182-1.853,2.306C30.031,37.509,28.999,36.681,28.873,35.533z"/>
								</g>
							</g>
						</g>
					</g>
				</g>
			</g>
		</g>
	</g>
	<g>
		<g>
			<g>
				<g>
					<g>
						<g>
							<g>
								<g>
									<path fill="#E7E6E6" d="M48.523,48.08c-0.128-1.148,0.704-2.18,1.851-2.307c1.148-0.126,2.179,0.703,2.305,1.851
										c0.126,1.146-0.7,2.172-1.85,2.296C49.685,50.046,48.65,49.223,48.523,48.08z"/>
								</g>
							</g>
						</g>
					</g>
				</g>
			</g>
		</g>
	</g>
	<g>
		<g>
			<g>
				<g>
					<g>
						<g>
							<g>
								<g>
									<path fill="none" stroke="#000000" stroke-miterlimit="10" d="M48.523,48.08c-0.128-1.148,0.704-2.18,1.851-2.307
										c1.148-0.126,2.179,0.703,2.305,1.851c0.126,1.146-0.7,2.172-1.85,2.296C49.685,50.046,48.65,49.223,48.523,48.08z"/>
								</g>
							</g>
						</g>
					</g>
				</g>
			</g>
		</g>
	</g>
	<g>
		<g>
			<g>
				<g>
					<g>
						<g>
							<g>
								<g>
									<path fill="#E7E6E6" d="M22.603,53.107c-0.124-1.141,0.705-2.169,1.851-2.293c1.148-0.125,2.179,0.698,2.305,1.839
										c0.125,1.144-0.701,2.176-1.85,2.302C23.762,55.081,22.73,54.25,22.603,53.107z"/>
								</g>
							</g>
						</g>
					</g>
				</g>
			</g>
		</g>
	</g>
	<g>
		<g>
			<g>
				<g>
					<g>
						<g>
							<g>
								<g>
									<path fill="none" stroke="#000000" stroke-miterlimit="10" d="M22.603,53.107c-0.124-1.141,0.705-2.169,1.851-2.293
										c1.148-0.125,2.179,0.698,2.305,1.839c0.125,1.144-0.701,2.176-1.85,2.302C23.762,55.081,22.73,54.25,22.603,53.107z"/>
								</g>
							</g>
						</g>
					</g>
				</g>
			</g>
		</g>
	</g>
	<g>
		<g>
			<g>
				<g>
					<g>
						<g>
							<g>
								<g>
									<path fill="#E7E6E6" d="M39.273,64.758c-0.126-1.147,0.703-2.179,1.848-2.306c1.148-0.128,2.182,0.697,2.307,1.852
										c0.128,1.146-0.698,2.179-1.848,2.303C40.43,66.731,39.398,65.904,39.273,64.758z"/>
								</g>
							</g>
						</g>
					</g>
				</g>
			</g>
		</g>
	</g>
	<g>
		<g>
			<g>
				<g>
					<g>
						<g>
							<g>
								<g>
									<path fill="none" stroke="#000000" stroke-miterlimit="10" d="M39.273,64.758c-0.126-1.147,0.703-2.179,1.848-2.306
										c1.148-0.128,2.182,0.697,2.307,1.852c0.128,1.146-0.698,2.179-1.848,2.303C40.43,66.731,39.398,65.904,39.273,64.758z"/>
								</g>
							</g>
						</g>
					</g>
				</g>
			</g>
		</g>
	</g>
	<g>
		<g>
			<g>
				<g>
					<g>
						<g>
							<g>
								<g>
									<path d="M27.734,41.388l1.907-4.453l-4.707,1.146L27.734,41.388z M10.408,54.136l16.944-14.314l-0.934-1.104L9.476,53.04
										L10.408,54.136z"/>
								</g>
							</g>
						</g>
					</g>
				</g>
			</g>
		</g>
	</g>
	<g>
		<g>
			<g>
				<g>
					<g>
						<g>
							<g>
								<g>
									<path d="M18.665,55.926l3.938-2.818l-4.617-1.453L18.665,55.926z M10.824,55.705l8.328-1.325l-0.226-1.422l-8.328,1.314
										L10.824,55.705z"/>
								</g>
							</g>
						</g>
					</g>
				</g>
			</g>
		</g>
	</g>
	<g>
		<g>
			<g>
				<g>
					<g>
						<g>
							<g>
								<g>
									<path d="M41.54,57.634l-0.418,4.818l-3.608-3.219L41.54,57.634z M31.86,37.119l8.603,21.722l-1.341,0.531l-8.612-21.72
										L31.86,37.119z"/>
								</g>
							</g>
						</g>
					</g>
				</g>
			</g>
		</g>
	</g>
	<g>
		<g>
			<g>
				<g>
					<g>
						<g>
							<g>
								<g>
									<path d="M46.391,42.449l2.582,4.094l-4.827-0.393L46.391,42.449z M35.165,40.712l-2.574-4.098l4.817,0.391L35.165,40.712z
										 M36.043,37.867l10.215,6.188l-0.752,1.234l-10.211-6.187L36.043,37.867z"/>
								</g>
							</g>
						</g>
					</g>
				</g>
			</g>
		</g>
	</g>
</g>
<path d="M65.752,51.604l0.754,1.232L92.67,36.762l1.256-0.774L60.912,22.721l-1.023,2.704l3.38,1.279
	c-0.72,3.105-0.968,6.253-0.676,9.384c0.476,5.098,2.308,9.987,5.278,14.212L65.752,51.604z M67.565,47.115
	c1.261-0.506,2.291-1.629,2.929-3.298c0.721-1.875,0.879-4.205,0.444-6.563c-0.43-2.358-1.402-4.483-2.737-5.981
	c-1.2-1.345-2.575-2.056-3.947-2.072c0.103-0.662,0.223-1.324,0.372-1.983l25.253,9.56L69.086,49.54
	C68.532,48.761,68.033,47.944,67.565,47.115z M66.887,45.843c-0.516-1.027-0.941-2.088-1.327-3.166
	c0.107,0.038,0.214,0.049,0.318,0.03c0.84-0.157,1.175-2.155,0.754-4.469c-0.425-2.312-1.445-4.063-2.284-3.911
	c-0.138,0.025-0.259,0.12-0.37,0.239c-0.05-1.302-0.028-2.605,0.104-3.907c1.012-0.049,2.082,0.475,3.052,1.565
	c1.162,1.306,2.015,3.182,2.398,5.287c0.385,2.103,0.252,4.16-0.373,5.792C68.643,44.655,67.836,45.529,66.887,45.843z"/>
</svg>
