<?xml version="1.0" encoding="utf-8"?>
<!-- Generator: Adobe Illustrator 16.0.3, SVG Export Plug-In . SVG Version: 6.00 Build 0)  -->
<!DOCTYPE svg PUBLIC "-//W3C//DTD SVG 1.1//EN" "http://www.w3.org/Graphics/SVG/1.1/DTD/svg11.dtd">
<svg version="1.1" id="Layer_1" xmlns="http://www.w3.org/2000/svg" xmlns:xlink="http://www.w3.org/1999/xlink" x="0px" y="0px"
	 width="96px" height="96px" viewBox="0 0 96 96" enable-background="new 0 0 96 96" xml:space="preserve">
<g id="Layer_1_1_">
</g>
<path fill="none" d="M96.1,48.098c0,26.498-21.49,47.988-47.994,47.988c-26.51,0-48-21.49-48-47.988
	c0-26.507,21.49-47.998,48-47.998C74.609,0.1,96.1,21.59,96.1,48.098z"/>
<path fill="none" stroke="#999999" stroke-width="6" stroke-linecap="round" stroke-linejoin="round" stroke-miterlimit="10" d="
	M70.577,91.451c0,0-9.818-55.729-67.137-66.648"/>
<path fill="none" stroke="#000000" stroke-width="3" stroke-linecap="round" stroke-linejoin="round" stroke-miterlimit="10" d="
	M-3.879,41.854"/>
<path fill="#949494" d="M48.082,98.446c-0.039,0.122-0.118,0.244,0.004,0.364c0.042-0.085,0.085-0.173,0.129-0.26
	C48.171,98.516,48.126,98.481,48.082,98.446z"/>
<path fill="#666666" d="M28.544,30.502L28.544,30.502c1.271-3.103,0.695-6.274-1.282-7.083l-4.914-2.022
	c-1.977-0.81-4.596,1.049-5.862,4.15l0,0"/>
<path fill="#666666" d="M54.428,51.999L54.428,51.999c2.381-2.361,3.086-5.504,1.58-7.022l-3.761-3.786
	c-1.51-1.52-4.658-0.833-7.039,1.526l0,0"/>
<path fill="#666666" d="M70.01,79.82L70.01,79.82c3.071-1.347,4.862-4.025,4.003-5.983l-2.144-4.888
	c-0.861-1.958-4.046-2.453-7.117-1.108l0,0"/>
<path d="M21.223,37.154v7.15l-2.018-2.023l-1.588,1.595l4.729,4.741l4.729-4.741l-1.593-1.595l-2.014,2.022v-7.149"/>
<path d="M56.163,68.592h-7.151l2.023-2.026L49.44,64.97l-4.742,4.749l4.742,4.75l1.595-1.598l-2.021-2.023h7.149"/>
<g>
	
		<path fill="#CCCCCC" stroke="#999999" stroke-width="3" stroke-linecap="round" stroke-linejoin="round" stroke-miterlimit="10" d="
		M59.033,111.552l4.649-12.455C60.56,89.508,56.051,76.613,44.6,77.771c-5.129,0.516-8.039,7.694-11.54,11.893
		c-0.806,0.961-8.943,13.59-10.42,11.213c-0.614-0.997,3.761-9.437,4.4-10.496c2.41-4.024,3.546-6.524,6.411-10.256
		c5.285-6.944,10.709-9.436,8.066-19.727c0,0-2.916-7.777-9.751-8.429c-8.077-0.771-12.597,2.879-17.742,9.177
		c-2.937,3.591-4.795,5.417-7.917,8.741c-0.82,0.877-7.458,7.083-8.403,6.525c-2.258-1.35,6.732-11.151,7.449-12.205
		c3.106-4.565,9.594-10.148,9.309-16.042C13.829,34.963,2.088,31.665-6.607,29.474l-16.923,11.97l5.9,73.46L59.033,111.552z"/>
	
		<path fill="#CCCCCC" stroke="#231F20" stroke-width="3" stroke-linecap="round" stroke-linejoin="round" stroke-miterlimit="10" d="
		M33.646,80.113c5.285-6.944,10.702-9.436,8.061-19.727c0,0-2.908-7.764-9.744-8.415c-8.078-0.771-12.597,2.879-17.743,9.163"/>
</g>
<path d="M64.086,47.938l0.754,1.235l26.164-16.08l1.256-0.774L59.246,19.054l-1.023,2.704l3.379,1.279
	c-0.719,3.105-0.967,6.253-0.676,9.384c0.477,5.098,2.309,9.987,5.279,14.212L64.086,47.938z M65.898,43.448
	c1.262-0.506,2.291-1.629,2.93-3.298c0.721-1.875,0.879-4.205,0.443-6.563c-0.43-2.358-1.402-4.483-2.736-5.981
	c-1.201-1.345-2.576-2.056-3.947-2.072c0.102-0.662,0.223-1.324,0.371-1.983l25.254,9.56L67.42,45.873
	C66.865,45.093,66.367,44.277,65.898,43.448z M65.221,42.175c-0.516-1.027-0.941-2.088-1.328-3.166
	c0.107,0.038,0.215,0.049,0.318,0.03c0.84-0.157,1.176-2.155,0.754-4.469c-0.424-2.312-1.445-4.063-2.283-3.911
	c-0.139,0.025-0.26,0.12-0.371,0.239c-0.049-1.302-0.027-2.605,0.104-3.907c1.012-0.049,2.082,0.475,3.053,1.565
	c1.162,1.306,2.014,3.182,2.398,5.287c0.385,2.103,0.252,4.16-0.373,5.792C66.977,40.988,66.17,41.862,65.221,42.175z"/>
</svg>
