<?xml version="1.0" encoding="utf-8"?>
<!-- Generator: Adobe Illustrator 16.0.3, SVG Export Plug-In . SVG Version: 6.00 Build 0)  -->
<!DOCTYPE svg PUBLIC "-//W3C//DTD SVG 1.1//EN" "http://www.w3.org/Graphics/SVG/1.1/DTD/svg11.dtd">
<svg version="1.1" id="Layer_1" xmlns="http://www.w3.org/2000/svg" xmlns:xlink="http://www.w3.org/1999/xlink" x="0px" y="0px"
	 width="96px" height="96px" viewBox="0 0 96 96" enable-background="new 0 0 96 96" xml:space="preserve">
<g id="Layer_1_1_">
</g>
<path fill="none" d="M96.1,48.098c0,26.498-21.49,47.988-47.994,47.988c-26.51,0-48-21.49-48-47.988
	c0-26.507,21.49-47.998,48-47.998C74.609,0.1,96.1,21.59,96.1,48.098z"/>
<path fill-rule="evenodd" clip-rule="evenodd" fill="none" stroke="#000000" stroke-width="2" stroke-linecap="round" stroke-linejoin="round" stroke-miterlimit="10" d="
	M-154.5,43.715c0.632-0.241,1.271-0.451,1.895-0.73c1.576-0.705,3.169-0.859,4.8-0.4c2.029,0.572,3.516,2.163,4.684,4.422
	c1.259,2.437,1.896,5.196,2.358,8.05c0.545,3.359,0.777,6.777,0.766,10.209c-0.009,2.816-0.056,5.637-0.182,8.445
	c-0.134,2.98-0.338,5.959-0.59,8.926c-0.214,2.502-0.536,4.99-0.819,7.48c-0.188,1.662-0.399,3.322-0.582,4.988
	c-0.029,0.26,0.048,0.537,0.094,0.98c0.607-0.793,1.138-1.496,1.675-2.188c2.267-2.916,4.726-5.498,7.345-7.803
	c1.947-1.715,3.952-3.291,6.042-4.662c1.891-1.24,3.803-2.414,5.805-3.297c1.717-0.758,3.419-1.578,5.158-2.229
	c1.379-0.521,2.8-0.82,4.201-1.234c2.44-0.719,4.927-1.004,7.406-1.248c1.787-0.178,3.594-0.1,5.39-0.018
	c2.014,0.088,4.03,0.236,6.04,0.488c1.39,0.174,2.771,0.52,4.146,0.875c1.783,0.457,3.56,0.984,5.333,1.521
	c0.896,0.273,1.777,0.635,2.784,0.998c0.216-1.109,0.456-2.217,0.647-3.34c0.295-1.736,0.623-3.469,0.816-5.229
	c0.229-2.104,0.392-4.229,0.474-6.352c0.08-2.059,0.077-4.132,0.001-6.189c-0.083-2.221-0.312-4.422-0.688-6.598
	c-0.553-3.199-1.331-6.273-2.491-9.169c-1.614-4.029-3.729-7.469-6.398-10.298c-1.747-1.854-3.594-3.482-5.695-4.476
	c-1.253-0.595-2.552-1.034-3.847-1.455c-1.413-0.459-2.837-0.853-4.264-1.208c-0.999-0.248-2.011-0.413-3.021-0.568
	c-1.399-0.213-2.8-0.467-4.207-0.548c-2.208-0.128-4.422-0.158-6.633-0.17c-1.302-0.006-2.606,0.086-3.909,0.159
	c-0.259,0.015-0.511,0.177-0.771,0.229c-1.421,0.277-2.854,0.464-4.263,0.828c-1.649,0.425-3.298,0.911-4.914,1.533
	c-1.74,0.671-3.444,1.515-5.157,2.312c-2.274,1.058-4.45,2.429-6.574,3.943c-2.392,1.707-4.691,3.622-6.872,5.789
	c-2.028,2.013-4,4.124-5.749,6.589c-0.349,0.491-0.71,0.964-1.065,1.448"/>
<g id="g7500">
	
		<radialGradient id="path1330_1_" cx="-37.3403" cy="179.4424" r="9.2745" gradientTransform="matrix(-0.4473 -2.4114 -5.3265 -0.2772 973.1984 -7.534)" gradientUnits="userSpaceOnUse">
		<stop  offset="0" style="stop-color:#FFFFFF;stop-opacity:0.8627"/>
		<stop  offset="1" style="stop-color:#646464;stop-opacity:0.8627"/>
	</radialGradient>
	<path id="path1330" fill="url(#path1330_1_)" stroke="#000000" stroke-linecap="round" stroke-linejoin="round" d="M70.542,22.087
		c-4.039,4.168-4.675,30.533-4.675,30.533C26.677,67.671,2.471,39.556,2.471,39.556s2.973-19.773,10.109-19.773
		c0,0,16.582,14.063,33.789,13.852C62.75,33.433,70.542,22.395,70.542,22.087z"/>
	
		<radialGradient id="path1326_1_" cx="-114.8628" cy="72.165" r="10.8916" gradientTransform="matrix(-0.4443 -2.3955 -13.9107 2.5801 1016.6582 -406.2962)" gradientUnits="userSpaceOnUse">
		<stop  offset="0" style="stop-color:#FFFFFF;stop-opacity:0.8627"/>
		<stop  offset="0.9946" style="stop-color:#646464;stop-opacity:0.8627"/>
	</radialGradient>
	<path id="path1326" fill="url(#path1326_1_)" stroke="#000000" stroke-linecap="round" stroke-linejoin="round" d="M24.537,73.386
		c0,0,41.188,23.461,68.065-9.478c0-4.624-15.455-48.962-22.103-41.745c0,0-19.466,26.8-57.593-2.198
		C12.907,19.965,22.79,24.286,24.537,73.386z"/>
</g>
<path id="path7504" fill-opacity="0.4607" d="M21.797,28.868c0,0,27.867,19.813,49.96-1.784c0,0-17.282,22.305-19.093,48.141
	C52.664,75.225,47.558,49.936,21.797,28.868z"/>
<polygon points="47.658,69.966 44.235,74.74 51.078,74.74 "/>
<polygon points="29.534,55.742 25.757,61.016 33.313,61.016 "/>
<g>
	<g>
		<circle cx="59.594" cy="70.291" r="2.795"/>
	</g>
</g>
<g>
	<g>
		<circle cx="66.832" cy="73.499" r="2.795"/>
	</g>
</g>
<g>
	<g>
		<circle cx="73.552" cy="69.535" r="2.796"/>
	</g>
</g>
<polygon points="38.988,60.917 33.712,68.287 44.269,68.287 "/>
<polygon points="40.279,54.414 36.504,59.688 44.057,59.688 "/>
<polygon points="29.74,65.473 25.966,70.746 33.519,70.746 "/>
<g>
	<g>
		<circle cx="59.41" cy="62.598" r="2.795"/>
	</g>
</g>
<g>
	<g>
		<circle cx="66.735" cy="66.114" r="3.628"/>
	</g>
</g>
<g>
	<g>
		<circle cx="66.521" cy="58.497" r="2.796"/>
	</g>
</g>
<polygon points="37.717,69.717 33.942,74.99 41.495,74.99 "/>
<g>
	<g>
		<circle cx="74.389" cy="61.607" r="2.795"/>
	</g>
</g>
</svg>
