<?xml version="1.0" encoding="utf-8"?>
<!-- Generator: Adobe Illustrator 16.0.3, SVG Export Plug-In . SVG Version: 6.00 Build 0)  -->
<!DOCTYPE svg PUBLIC "-//W3C//DTD SVG 1.1//EN" "http://www.w3.org/Graphics/SVG/1.1/DTD/svg11.dtd">
<svg version="1.1" xmlns="http://www.w3.org/2000/svg" xmlns:xlink="http://www.w3.org/1999/xlink" x="0px" y="0px" width="96px"
	 height="96px" viewBox="0 0 96 96" enable-background="new 0 0 96 96" xml:space="preserve">
<g id="Layer_1">
	<rect x="8.895" y="30.465" width="13.083" height="12.826"/>
	<rect x="25.824" y="30.466" width="13.082" height="12.826"/>
	<rect x="42.119" y="30.465" width="13.066" height="12.826"/>
	<rect x="58.716" y="30.465" width="13.082" height="12.826"/>
	<rect x="75.327" y="30.465" fill="#CCCCCC" width="13.082" height="12.826"/>
	<g>
		<path d="M39.215,21.443c-0.776,0.864-1.511,1.44-2.206,1.728c-0.899,0.39-1.981,0.584-3.248,0.584H22.73
			c-1.144,0-2.094,0.28-2.85,0.839c-0.755,0.559-1.174,1.254-1.256,2.084c-0.061,0.542-0.184,0.89-0.368,1.042
			c-0.265,0.22-0.582,0.33-0.95,0.33s-0.674-0.105-0.919-0.317s-0.368-0.529-0.368-0.953c0-1.355,0.521-2.474,1.563-3.354
			c1.389-1.203,3.105-1.805,5.147-1.805h11.031c1.124,0,2.068-0.283,2.834-0.851s1.19-1.284,1.271-2.148
			c0.061-0.457,0.205-0.783,0.429-0.978c0.225-0.195,0.532-0.292,0.919-0.292c0.409,0,0.726,0.098,0.95,0.292
			c0.225,0.195,0.368,0.521,0.429,0.978c0.082,0.881,0.505,1.602,1.271,2.161s1.711,0.838,2.834,0.838h11.024
			c1.92,0,3.519,0.508,4.796,1.525c1.276,1.017,1.915,2.228,1.915,3.634c0,0.424-0.123,0.741-0.368,0.953s-0.562,0.317-0.949,0.317
			c-0.368,0-0.675-0.102-0.92-0.305c-0.184-0.169-0.306-0.525-0.367-1.067c-0.103-0.847-0.536-1.546-1.303-2.097
			c-0.766-0.55-1.711-0.826-2.834-0.826H44.7c-1.287,0-2.329-0.169-3.125-0.508C40.777,22.909,39.991,22.307,39.215,21.443z"/>
	</g>
	<g>
		<g>
			<path fill="none" stroke="#000000" stroke-width="3" stroke-miterlimit="10" d="M39.245,19.588
				c0-6.467-1.982-12.533,18.542-9.717c10.633,1.458,24.082,4.227,24.082,11.828"/>
			<g>
				<polygon points="77.53,20.43 81.868,27.942 86.206,20.43 				"/>
			</g>
		</g>
	</g>
	<path fill="none" d="M48.1,0.5c26.505,0,47.996,21.49,47.996,48c0,26.488-21.49,47.979-47.996,47.979c-26.51,0-48-21.49-48-47.979
		C0.1,21.991,21.59,0.5,48.1,0.5z"/>
	<rect x="75.327" y="53.902" width="13.081" height="12.809"/>
	<rect x="58.398" y="53.902" width="13.081" height="12.809"/>
	<rect x="42.067" y="53.902" width="13.117" height="12.809"/>
	<rect x="25.456" y="53.902" width="13.082" height="12.809"/>
	<rect x="8.844" y="53.902" fill="#CCCCCC" width="13.082" height="12.809"/>
	<g>
		<path d="M58.089,75.735c0.776-0.864,1.512-1.44,2.207-1.729c0.898-0.39,1.98-0.584,3.247-0.584h11.031
			c1.144,0,2.094-0.279,2.85-0.839c0.756-0.559,1.175-1.254,1.256-2.084c0.062-0.542,0.185-0.89,0.368-1.042
			c0.266-0.221,0.582-0.33,0.95-0.33c0.367,0,0.674,0.105,0.919,0.317s0.367,0.529,0.367,0.953c0,1.355-0.521,2.474-1.563,3.354
			c-1.39,1.203-3.105,1.805-5.147,1.805H63.543c-1.123,0-2.067,0.283-2.834,0.852c-0.766,0.567-1.19,1.283-1.271,2.147
			c-0.062,0.457-0.204,0.783-0.429,0.979c-0.226,0.194-0.531,0.292-0.92,0.292c-0.408,0-0.725-0.098-0.949-0.292
			c-0.226-0.195-0.368-0.521-0.429-0.979c-0.082-0.882-0.506-1.602-1.272-2.16c-0.766-0.56-1.711-0.839-2.834-0.839H41.58
			c-1.92,0-3.519-0.509-4.795-1.525c-1.276-1.017-1.915-2.228-1.915-3.634c0-0.424,0.123-0.741,0.368-0.953s0.562-0.317,0.95-0.317
			c0.368,0,0.674,0.102,0.919,0.305c0.184,0.169,0.307,0.525,0.368,1.067c0.103,0.847,0.536,1.546,1.302,2.097
			s1.711,0.826,2.834,0.826h10.994c1.287,0,2.329,0.169,3.125,0.508C56.526,74.27,57.313,74.871,58.089,75.735z"/>
	</g>
	<g>
		<g>
			<path fill="none" stroke="#000000" stroke-width="3" stroke-miterlimit="10" d="M58.059,77.584
				c0,6.467,1.982,12.532-18.592,9.716c-10.632-1.458-24.082-4.227-24.082-11.828"/>
			<g>
				<polygon points="19.723,76.741 15.385,69.229 11.047,76.741 				"/>
			</g>
		</g>
	</g>
</g>
<g id="Layer_2" display="none">
	<path display="inline" fill="none" stroke="#000000" stroke-width="0.1" stroke-miterlimit="10" d="M96.1,47.998
		c0,26.499-21.49,47.989-47.994,47.989c-26.51,0-48-21.49-48-47.989C0.106,21.49,21.596,0,48.106,0C74.609,0,96.1,21.49,96.1,47.998
		z"/>
</g>
</svg>
