<?xml version="1.0" encoding="utf-8"?>
<!-- Generator: Adobe Illustrator 16.0.3, SVG Export Plug-In . SVG Version: 6.00 Build 0)  -->
<!DOCTYPE svg PUBLIC "-//W3C//DTD SVG 1.1//EN" "http://www.w3.org/Graphics/SVG/1.1/DTD/svg11.dtd">
<svg version="1.1" xmlns="http://www.w3.org/2000/svg" xmlns:xlink="http://www.w3.org/1999/xlink" x="0px" y="0px" width="96px"
	 height="96px" viewBox="0 0 96 96" enable-background="new 0 0 96 96" xml:space="preserve">
<g id="Layer_1">
	<rect x="13.054" y="15.787" width="14.587" height="14.333"/>
	<g>
		<path fill="#FFFFFF" d="M19.574,19.435h-0.038l-2.314,1.101l-0.466-2.127l3.209-1.493h2.352v12.13h-2.743V19.435z"/>
	</g>
	<rect x="32.002" y="15.95" width="14.587" height="14.332"/>
	<g>
		<path fill="#FFFFFF" d="M34.903,29.046v-1.717l1.568-1.418c2.65-2.37,3.938-3.732,3.975-5.151c0-0.988-0.597-1.772-1.997-1.772
			c-1.045,0-1.959,0.522-2.594,1.008l-0.802-2.034c0.915-0.69,2.333-1.25,3.975-1.25c2.743,0,4.254,1.604,4.254,3.807
			c0,2.034-1.474,3.657-3.228,5.226l-1.12,0.933v0.037h4.572v2.333H34.903z"/>
	</g>
	<path fill="#CCCCCC" d="M68.651,24.204H80.66l-3.397,3.397l2.679,2.681l7.974-7.974l-7.974-7.973l-2.679,2.681l3.396,3.397H68.651"
		/>
	<rect x="50.555" y="58.71" width="14.587" height="14.332"/>
	<g>
		<path fill="#FFFFFF" d="M53.959,69.024c0.504,0.261,1.662,0.746,2.818,0.746c1.475,0,2.221-0.709,2.221-1.623
			c0-1.194-1.194-1.736-2.445-1.736h-1.156v-2.034h1.102c0.951-0.019,2.164-0.373,2.164-1.398c0-0.729-0.598-1.27-1.791-1.27
			c-0.989,0-2.035,0.43-2.539,0.728l-0.578-2.053c0.729-0.466,2.184-0.915,3.752-0.915c2.594,0,4.03,1.363,4.03,3.023
			c0,1.288-0.728,2.296-2.221,2.818v0.037c1.456,0.262,2.632,1.362,2.632,2.948c0,2.146-1.885,3.714-4.965,3.714
			c-1.567,0-2.893-0.41-3.602-0.858L53.959,69.024z"/>
	</g>
	<rect x="50.555" y="77.34" width="14.587" height="14.332"/>
	<g>
		<path fill="#FFFFFF" d="M53.456,90.436v-1.717l1.567-1.418c2.65-2.37,3.938-3.732,3.975-5.151c0-0.988-0.597-1.772-1.996-1.772
			c-1.045,0-1.959,0.522-2.594,1.008l-0.803-2.034c0.914-0.69,2.332-1.25,3.975-1.25c2.744,0,4.255,1.604,4.255,3.807
			c0,2.034-1.474,3.657-3.228,5.226l-1.121,0.933v0.037h4.572v2.333H53.456z"/>
	</g>
	<rect x="28.15" y="58.71" width="14.587" height="14.332"/>
	<g>
		<path fill="#FFFFFF" d="M31.053,71.805v-1.717l1.568-1.418c2.65-2.37,3.938-3.732,3.975-5.151c0-0.988-0.597-1.772-1.997-1.772
			c-1.045,0-1.959,0.522-2.594,1.008l-0.802-2.034c0.915-0.69,2.333-1.25,3.975-1.25c2.743,0,4.254,1.604,4.254,3.807
			c0,2.034-1.474,3.657-3.228,5.226l-1.12,0.933v0.037h4.572v2.333H31.053z"/>
	</g>
	<rect x="28.149" y="77.34" width="14.587" height="14.332"/>
	<g>
		<path fill="#FFFFFF" d="M34.673,80.988h-0.038l-2.314,1.101l-0.466-2.128l3.209-1.492h2.352v12.13h-2.743V80.988z"/>
	</g>
	<rect x="50.951" y="15.788" width="14.586" height="14.331"/>
	<g>
		<path fill="#FFFFFF" d="M54.355,26.104c0.504,0.261,1.661,0.746,2.818,0.746c1.474,0,2.221-0.709,2.221-1.623
			c0-1.194-1.195-1.736-2.445-1.736h-1.156v-2.034h1.101c0.952-0.019,2.165-0.373,2.165-1.399c0-0.728-0.598-1.269-1.792-1.269
			c-0.989,0-2.034,0.429-2.538,0.728l-0.578-2.053c0.728-0.466,2.184-0.915,3.751-0.915c2.594,0,4.03,1.362,4.03,3.023
			c0,1.288-0.728,2.295-2.221,2.818v0.037c1.456,0.262,2.632,1.362,2.632,2.948c0,2.146-1.885,3.714-4.964,3.714
			c-1.568,0-2.893-0.41-3.602-0.858L54.355,26.104z"/>
	</g>
	<path d="M45.184,34.411V47.5l-3.704-3.704l-2.922,2.92l8.693,8.68l8.691-8.68l-2.922-2.92l-3.704,3.702V34.411"/>
	<path fill="#CCCCCC" d="M68.661,72.689H80.67l-3.397,3.398l2.679,2.68l7.974-7.973l-7.974-7.974l-2.679,2.681l3.396,3.397H68.661"
		/>
</g>
<g id="Layer_2" display="none">
	<path display="inline" fill="none" stroke="#000000" stroke-width="0.1" stroke-miterlimit="10" d="M96.1,48.098
		c0,26.498-21.49,47.988-47.994,47.988c-26.51,0-48-21.49-48-47.988c0-26.507,21.49-47.998,48-47.998
		C74.609,0.1,96.1,21.59,96.1,48.098z"/>
</g>
</svg>
