<?xml version="1.0" encoding="utf-8"?>
<!-- Generator: Adobe Illustrator 16.0.3, SVG Export Plug-In . SVG Version: 6.00 Build 0)  -->
<!DOCTYPE svg PUBLIC "-//W3C//DTD SVG 1.1//EN" "http://www.w3.org/Graphics/SVG/1.1/DTD/svg11.dtd">
<svg version="1.1" id="Layer_1" xmlns="http://www.w3.org/2000/svg" xmlns:xlink="http://www.w3.org/1999/xlink" x="0px" y="0px"
	 width="96px" height="96px" viewBox="0 0 96 96" enable-background="new 0 0 96 96" xml:space="preserve">
<g>
	<rect x="21.985" y="71.221" width="14.173" height="13.922"/>
	<rect x="40.713" y="71.221" width="14.179" height="13.922"/>
	<rect x="59.449" y="71.221" width="14.17" height="13.922"/>
</g>
<rect x="17.05" y="13.153" fill="#999999" stroke="#000000" stroke-miterlimit="10" width="60.001" height="18"/>
<path d="M45.2,38.804V55.27l-4.664-4.656l-3.679,3.675l10.942,10.938l10.943-10.938l-3.678-3.675L50.4,55.268V38.804"/>
<circle fill="none" cx="48" cy="48" r="48"/>
<g id="Layer_2" display="none">
	<path display="inline" fill="none" stroke="#000000" stroke-width="0.1" stroke-miterlimit="10" d="M96.1,48.098
		c0,26.498-21.49,47.988-47.994,47.988c-26.51,0-48-21.49-48-47.988c0-26.507,21.49-47.998,48-47.998
		C74.609,0.1,96.1,21.59,96.1,48.098z"/>
</g>
<path stroke="#000000" stroke-width="1.214" stroke-linecap="round" stroke-miterlimit="10" d="M31.869,21.99
	c0-3.133-2.505-5.672-5.595-5.672c-3.078,0-5.579,2.539-5.579,5.672c0,3.134,2.501,5.673,5.579,5.673
	C29.363,27.663,31.869,25.124,31.869,21.99z"/>
<path stroke="#000000" stroke-width="1.214" stroke-linecap="round" stroke-miterlimit="10" d="M52.771,21.99
	c0-3.133-2.505-5.672-5.596-5.672c-3.078,0-5.579,2.539-5.579,5.672c0,3.134,2.501,5.673,5.579,5.673
	C50.264,27.663,52.771,25.124,52.771,21.99z"/>
<path stroke="#000000" stroke-width="1.214" stroke-linecap="round" stroke-miterlimit="10" d="M73.669,21.99
	c0-3.133-2.505-5.672-5.595-5.672c-3.078,0-5.578,2.539-5.578,5.672c0,3.134,2.5,5.673,5.578,5.673
	C71.162,27.663,73.669,25.124,73.669,21.99z"/>
</svg>
