<?xml version="1.0" encoding="utf-8"?>
<!-- Generator: Adobe Illustrator 16.0.3, SVG Export Plug-In . SVG Version: 6.00 Build 0)  -->
<!DOCTYPE svg PUBLIC "-//W3C//DTD SVG 1.1//EN" "http://www.w3.org/Graphics/SVG/1.1/DTD/svg11.dtd">
<svg version="1.1" id="Layer_1" xmlns="http://www.w3.org/2000/svg" xmlns:xlink="http://www.w3.org/1999/xlink" x="0px" y="0px"
	 width="96px" height="96px" viewBox="0 0 96 96" enable-background="new 0 0 96 96" xml:space="preserve">
<g id="Layer_1_1_">
</g>
<path fill="none" d="M99.188,48.098c0,26.498-21.49,47.988-47.992,47.988c-26.496,0-47.986-21.49-47.986-47.988
	C3.209,21.591,24.699,0.1,51.195,0.1C77.697,0.1,99.188,21.59,99.188,48.098z"/>
<g>
	<path fill="none" stroke="#000000" stroke-width="2" stroke-linecap="square" stroke-miterlimit="10" d="M25.925,47.527
		l0.059-0.191l0.059-0.19l0.059-0.19l0.059-0.19l0.059-0.188l0.059-0.191l0.059-0.188l0.059-0.189l0.059-0.189l0.059-0.188
		l0.059-0.188l0.059-0.187l0.059-0.186l0.059-0.186l0.059-0.186l0.059-0.184l0.06-0.186l0.059-0.182l0.059-0.181l0.059-0.181
		l0.059-0.18l0.059-0.179l0.059-0.179l0.059-0.176l0.059-0.176l0.059-0.175l0.059-0.172l0.059-0.171l0.059-0.171l0.059-0.17
		l0.059-0.167l0.059-0.166l0.059-0.164l0.06-0.165l0.059-0.161l0.059-0.16l0.059-0.158l0.059-0.156l0.059-0.155l0.059-0.153
		l0.059-0.15l0.059-0.15l0.059-0.147l0.059-0.146l0.059-0.142l0.059-0.143l0.059-0.14l0.059-0.138l0.059-0.135l0.059-0.133
		l0.059-0.131l0.059-0.13l0.059-0.125l0.059-0.126l0.059-0.122l0.059-0.12l0.059-0.119l0.059-0.115l0.06-0.113l0.059-0.109
		l0.059-0.109l0.059-0.107l0.059-0.104l0.059-0.101l0.059-0.098l0.059-0.097l0.059-0.094l0.059-0.091l0.059-0.09l0.059-0.085
		l0.059-0.085l0.059-0.08l0.058-0.08l0.059-0.075l0.059-0.075l0.06-0.071l0.058-0.068l0.059-0.067l0.059-0.063l0.06-0.06l0.058-0.06
		l0.059-0.056l0.059-0.055l0.059-0.05l0.06-0.048l0.058-0.046l0.059-0.043l0.059-0.041l0.06-0.039l0.058-0.034l0.059-0.035
		l0.059-0.031l0.06-0.027l0.058-0.026l0.059-0.023l0.059-0.022l0.06-0.019l0.058-0.015l0.059-0.016l0.059-0.01l0.059-0.011
		l0.06-0.007l0.058-0.004l0.059-0.003h0.059l0.06,0.001l0.059,0.003l0.059,0.007l0.059,0.006l0.06,0.012l0.059,0.013l0.058,0.014
		l0.059,0.016l0.06,0.018l0.059,0.021l0.058,0.022l0.059,0.023l0.059,0.026l0.06,0.027l0.059,0.028l0.058,0.033l0.059,0.033
		l0.06,0.034l0.059,0.035l0.058,0.038l0.059,0.038l0.06,0.042l0.059,0.041l0.058,0.045l0.059,0.044l0.059,0.047l0.059,0.046
		l0.058,0.05l0.059,0.049l0.06,0.051l0.06,0.05l0.059,0.053l0.058,0.054l0.059,0.057l0.059,0.054l0.059,0.057l0.059,0.058
		l0.059,0.058l0.06,0.06l0.059,0.058l0.059,0.061l0.058,0.06l0.06,0.061l0.059,0.062l0.059,0.062l0.058,0.063l0.06,0.063
		l0.059,0.064l0.059,0.062l0.059,0.063l0.059,0.064l0.059,0.066l0.059,0.063l0.059,0.064l0.06,0.062l0.059,0.063l0.059,0.064
		l0.059,0.062l0.058,0.064l0.06,0.062l0.059,0.063l0.059,0.06l0.058,0.062l0.059,0.059l0.06,0.06l0.059,0.06l0.059,0.056l0.059,0.06
		l0.059,0.056l0.059,0.055l0.059,0.057l0.059,0.054l0.06,0.053l0.059,0.052l0.059,0.049l0.059,0.049l0.059,0.05l0.059,0.048
		l0.059,0.046l0.059,0.046l0.058,0.042l0.06,0.043l0.059,0.04l0.059,0.04l0.059,0.038l0.059,0.036l0.059,0.035l0.059,0.033
		l0.059,0.03l0.059,0.03l0.059,0.028l0.059,0.026l0.059,0.023l0.059,0.023l0.059,0.021l0.059,0.019l0.06,0.017l0.059,0.015
		l0.059,0.012l0.059,0.012l0.059,0.009l0.059,0.007l0.06,0.003l0.058,0.002h0.059l0.06-0.002l0.06-0.005l0.058-0.007l0.059-0.009
		l0.059-0.012l0.059-0.014l0.059-0.016l0.059-0.018l0.06-0.02l0.059-0.024l0.059-0.026l0.059-0.028l0.059-0.031l0.059-0.033
		l0.06-0.035l0.058-0.039l0.059-0.038l0.06-0.044l0.059-0.046l0.059-0.048l0.059-0.05l0.059-0.054l0.059-0.054l0.058-0.059
		l0.059-0.06l0.059-0.064l0.06-0.066l0.06-0.068l0.058-0.07l0.059-0.074l0.059-0.077l0.059-0.078l0.059-0.082l0.059-0.082
		l0.059-0.086l0.059-0.088l0.059-0.091l0.058-0.093l0.059-0.097l0.06-0.098l0.059-0.103l0.058-0.103l0.059-0.105l0.06-0.108
		l0.059-0.11l0.058-0.113l0.059-0.115l0.059-0.118l0.06-0.119l0.059-0.122l0.059-0.124l0.059-0.126l0.06-0.129l0.059-0.13
		l0.059-0.134l0.059-0.134l0.06-0.139l0.059-0.137l0.058-0.144l0.06-0.143l0.059-0.145l0.06-0.147L42,34.841l0.058-0.15l0.059-0.154
		l0.06-0.153l0.059-0.157l0.059-0.158l0.059-0.161l0.06-0.16l0.059-0.162l0.058-0.165l0.059-0.167l0.06-0.167l0.059-0.168
		l0.058-0.17l0.06-0.172l0.059-0.172l0.06-0.174L43,32.054l0.059-0.177l0.058-0.178l0.06-0.178l0.059-0.18l0.06-0.181l0.058-0.182
		l0.06-0.183l0.059-0.182l0.059-0.187l0.059-0.184l0.059-0.186l0.059-0.187l0.058-0.186l0.059-0.188l0.059-0.189l0.06-0.188
		l0.059-0.19l0.059-0.189l0.058-0.188l0.059-0.191l0.059-0.19l0.059-0.191l0.059-0.19l0.059-0.191l0.059-0.19l0.059-0.191
		l0.059-0.19l0.06-0.19l0.059-0.191l0.059-0.189l0.059-0.189l0.059-0.189l0.06-0.189l0.06-0.188l0.059-0.189l0.059-0.187
		l0.059-0.188l0.06-0.187l0.059-0.185l0.058-0.186l0.06-0.182l0.06-0.183l0.059-0.183l0.06-0.182l0.059-0.179l0.059-0.179
		l0.059-0.179l0.059-0.176l0.059-0.177l0.06-0.173l0.059-0.174l0.06-0.171l0.059-0.17l0.059-0.171l0.059-0.168l0.06-0.167
		l0.059-0.164l0.059-0.165l0.059-0.161l0.06-0.159l0.06-0.16l0.059-0.157l0.059-0.155l0.059-0.153l0.06-0.15l0.059-0.15l0.059-0.147
		l0.059-0.147l0.059-0.142l0.06-0.143l0.059-0.139l0.059-0.139l0.059-0.136l0.06-0.133l0.059-0.132l0.059-0.128l0.06-0.127
		l0.06-0.125l0.059-0.123l0.059-0.121l0.059-0.118l0.059-0.116l0.06-0.113l0.059-0.111l0.059-0.109l0.059-0.105l0.059-0.105
		l0.059-0.102l0.061-0.098l0.057-0.099l0.059-0.093l0.061-0.09l0.057-0.09l0.061-0.086l0.059-0.086l0.061-0.081l0.059-0.08
		l0.059-0.076l0.059-0.074l0.059-0.072l0.059-0.07l0.061-0.066l0.059-0.064l0.059-0.062l0.059-0.059l0.059-0.055l0.059-0.055
		l0.059-0.05l0.059-0.05l0.061-0.044l0.057-0.045l0.061-0.04l0.059-0.039l0.059-0.038l0.059-0.035l0.059-0.03l0.059-0.029
		l0.061-0.027l0.059-0.024l0.059-0.022l0.059-0.02l0.059-0.017l0.061-0.015l0.057-0.011l0.059-0.01l0.061-0.008l0.059-0.006
		l0.059-0.001l0.059-0.002l0.059,0.002l0.061,0.003l0.059,0.006l0.059,0.008l0.059,0.009l0.059,0.014l0.059,0.014l0.061,0.015
		l0.059,0.019l0.059,0.021l0.059,0.021l0.059,0.023l0.059,0.024l0.059,0.028l0.061,0.03l0.059,0.031l0.057,0.031l0.061,0.034
		l0.059,0.037l0.059,0.037l0.059,0.038l0.059,0.042l0.059,0.042l0.061,0.042l0.059,0.045l0.059,0.047l0.059,0.046l0.061,0.048
		l0.059,0.05l0.057,0.051l0.059,0.052l0.061,0.052l0.059,0.054l0.059,0.055l0.059,0.056l0.059,0.057l0.061,0.057l0.059,0.058
		l0.059,0.059l0.059,0.059l0.059,0.061l0.061,0.06l0.059,0.062l0.059,0.061l0.059,0.061l0.059,0.064l0.059,0.063l0.059,0.063
		l0.059,0.062l0.061,0.063l0.059,0.064l0.059,0.064l0.059,0.064l0.059,0.063l0.059,0.063l0.059,0.064l0.059,0.064l0.059,0.063
		l0.061,0.063l0.059,0.061l0.059,0.062l0.061,0.062l0.059,0.063l0.059,0.058l0.057,0.061l0.061,0.058l0.059,0.059l0.061,0.058
		l0.057,0.057l0.059,0.056l0.059,0.057l0.061,0.054l0.059,0.053l0.059,0.052l0.059,0.052l0.061,0.05l0.059,0.048l0.059,0.047
		l0.059,0.046l0.059,0.047l0.059,0.044l0.059,0.041l0.059,0.042l0.059,0.041l0.061,0.036l0.059,0.037l0.059,0.035l0.059,0.034
		l0.059,0.031l0.059,0.03l0.059,0.029l0.059,0.026l0.061,0.025l0.059,0.022l0.059,0.02l0.059,0.02l0.061,0.017l0.059,0.014
		l0.059,0.013l0.059,0.012l0.059,0.008l0.061,0.007l0.057,0.002l0.059,0.004h0.059l0.059-0.002l0.061-0.005l0.059-0.005l0.059-0.01
		l0.061-0.012l0.059-0.013l0.059-0.016l0.059-0.018l0.059-0.021l0.061-0.023l0.059-0.026l0.057-0.027l0.059-0.031l0.061-0.032
		l0.059-0.036l0.059-0.037l0.059-0.04l0.059-0.042l0.059-0.047l0.059-0.046l0.059-0.051l0.061-0.051l0.059-0.056l0.059-0.058
		L58.249,19l0.059-0.063l0.061-0.065l0.059-0.068l0.059-0.071l0.059-0.072l0.061-0.076l0.059-0.079l0.057-0.082l0.059-0.082
		l0.059-0.084l0.059-0.088l0.061-0.092l0.059-0.093l0.059-0.094l0.061-0.1l0.059-0.101l0.059-0.102l0.059-0.106l0.061-0.106
		l0.059-0.11l0.059-0.112l0.057-0.116l0.061-0.116l0.059-0.12l0.059-0.122l0.059-0.124l0.059-0.126l0.059-0.128l0.059-0.13
		l0.059-0.133l0.061-0.135l0.059-0.136l0.059-0.139l0.059-0.142l0.059-0.143l0.059-0.143l0.061-0.148l0.059-0.148l0.059-0.15
		l0.059-0.152l0.061-0.155l0.059-0.157l0.057-0.156l0.059-0.159l0.059-0.162l0.061-0.162l0.059-0.165l0.059-0.167l0.059-0.166
		l0.061-0.168l0.059-0.171l0.059-0.171l0.059-0.172l0.061-0.175l0.059-0.175l0.057-0.176l0.061-0.179l0.059-0.178l0.059-0.181
		l0.059-0.181l0.059-0.182l0.059-0.183l0.059-0.182l0.059-0.186l0.061-0.186l0.059-0.184l0.059-0.188l0.059-0.188l0.059-0.188
		l0.061-0.187l0.059-0.189l0.059-0.188l0.059-0.189l0.059-0.19l0.059-0.19l0.061-0.19l0.059-0.191l0.057-0.19l0.059-0.19"/>
</g>
<line opacity="0.75" fill="none" stroke="#666666" stroke-width="2" stroke-linecap="square" stroke-miterlimit="10" x1="22.833" y1="50.833" x2="66.037" y2="4.917"/>
<g>
	<path fill="none" stroke="#000000" stroke-width="2" stroke-linecap="square" stroke-miterlimit="10" d="M27.148,74.666
		l0.063-0.344l0.062-0.346l0.062-0.344l0.063-0.342l0.062-0.345l0.063-0.341l0.062-0.341l0.063-0.339l0.062-0.34l0.063-0.339
		l0.062-0.337l0.063-0.335l0.063-0.333l0.061-0.332l0.063-0.33l0.062-0.326l0.063-0.326l0.062-0.323l0.063-0.32l0.063-0.317
		l0.062-0.318l0.062-0.313l0.062-0.31l0.063-0.306l0.062-0.304l0.063-0.299l0.063-0.298l0.062-0.295l0.063-0.288l0.061-0.286
		l0.063-0.283l0.063-0.276l0.062-0.275l0.063-0.268l0.062-0.268l0.063-0.258l0.062-0.26l0.061-0.252l0.063-0.247l0.062-0.241
		l0.063-0.238l0.062-0.23l0.063-0.229l0.062-0.222l0.063-0.215l0.061-0.212l0.063-0.207l0.063-0.199l0.063-0.193l0.062-0.189
		l0.062-0.185l0.063-0.177l0.062-0.17l0.063-0.167l0.063-0.158l0.062-0.152l0.062-0.147l0.062-0.141l0.063-0.135l0.062-0.127
		l0.063-0.121l0.063-0.117l0.062-0.107l0.062-0.103l0.062-0.092l0.062-0.092l0.062-0.081l0.063-0.076l0.063-0.068l0.062-0.062
		l0.063-0.056l0.062-0.047l0.063-0.042l0.062-0.034l0.062-0.029l0.062-0.021l0.063-0.015L32,57.461h0.062l0.063,0.006l0.062,0.014
		l0.062,0.02l0.063,0.027l0.063,0.034l0.063,0.04l0.062,0.049l0.063,0.056l0.063,0.06l0.063,0.069l0.062,0.072l0.062,0.084
		l0.063,0.087l0.062,0.096l0.062,0.102l0.063,0.107l0.063,0.116l0.062,0.119l0.062,0.128l0.063,0.133l0.062,0.141l0.063,0.147
		l0.062,0.151l0.063,0.158l0.062,0.165l0.063,0.17l0.062,0.177l0.062,0.185l0.063,0.188l0.062,0.193l0.063,0.199l0.062,0.206
		l0.063,0.21l0.063,0.218l0.062,0.22l0.062,0.227l0.063,0.231l0.063,0.237l0.062,0.242l0.063,0.247l0.063,0.252l0.063,0.256
		l0.062,0.26l0.062,0.266l0.063,0.27l0.063,0.272l0.061,0.278l0.063,0.282l0.062,0.285l0.063,0.29l0.061,0.291l0.063,0.298
		l0.062,0.3l0.063,0.304l0.062,0.308l0.062,0.31l0.063,0.312l0.062,0.314l0.062,0.318l0.062,0.322l0.063,0.322l0.061,0.325
		l0.063,0.327l0.063,0.331l0.063,0.332l0.062,0.332l0.063,0.334l0.063,0.337l0.063,0.34l0.061,0.338l0.063,0.341l0.063,0.341
		l0.063,0.341l0.062,0.343l0.063,0.344l0.063,0.344l0.062,0.344l0.062,0.343l0.062,0.346l0.063,0.343L37.1,75.67l0.062,0.343
		l0.063,0.344l0.062,0.342l0.063,0.342l0.061,0.339l0.063,0.341l0.062,0.337l0.063,0.337l0.062,0.335l0.062,0.334l0.063,0.332
		l0.063,0.331l0.062,0.327l0.062,0.325l0.063,0.323l0.062,0.319l0.062,0.32l0.063,0.316l0.063,0.312l0.063,0.313l0.062,0.307
		l0.062,0.303l0.063,0.3l0.062,0.298l0.062,0.293l0.062,0.29l0.063,0.287l0.062,0.282l0.062,0.278l0.063,0.273l0.063,0.27
		l0.062,0.27l0.061,0.261l0.063,0.254l0.062,0.252l0.063,0.25l0.062,0.239l0.063,0.239l0.063,0.234l0.062,0.227l0.062,0.222
		l0.063,0.218l0.063,0.211l0.062,0.206l0.063,0.202l0.063,0.194l0.062,0.188l0.063,0.187l0.062,0.174l0.062,0.173l0.062,0.166
		l0.063,0.161l0.063,0.152l0.062,0.147l0.063,0.141l0.062,0.137l0.061,0.127l0.063,0.122l0.063,0.115l0.063,0.109l0.061,0.103
		l0.063,0.095l0.062,0.091l0.063,0.082l0.061,0.078l0.063,0.067l0.063,0.063l0.063,0.056l0.062,0.047l0.062,0.043l0.063,0.036
		l0.062,0.028l0.062,0.021l0.062,0.016l0.063,0.006l0.063,0.003l0.062-0.006l0.063-0.015l0.063-0.018l0.063-0.026l0.062-0.035
		l0.062-0.041l0.063-0.048l0.062-0.053l0.063-0.062l0.062-0.067l0.063-0.072l0.063-0.083l0.061-0.088l0.063-0.095l0.061-0.1
		l0.063-0.108l0.062-0.114l0.063-0.12l0.063-0.125l0.062-0.134l0.062-0.142l0.063-0.145l0.062-0.151l0.063-0.16l0.062-0.163
		l0.063-0.17l0.062-0.178l0.063-0.181l0.062-0.189l0.063-0.191l0.062-0.199l0.063-0.205l0.063-0.212l0.062-0.215l0.063-0.221
		l0.063-0.227l0.063-0.23l0.062-0.237l0.063-0.24l0.062-0.247l0.062-0.252l0.063-0.255l0.063-0.262l0.063-0.265l0.062-0.268
		l0.062-0.272l0.063-0.279l0.061-0.281l0.063-0.286l0.062-0.289L45,83.559l0.063-0.297l0.063-0.3l0.063-0.303l0.063-0.306
		l0.063-0.312l0.06-0.311l0.063-0.314l0.063-0.319l0.063-0.319l0.061-0.321l0.063-0.328l0.063-0.326l0.062-0.329l0.062-0.331
		l0.063-0.335l0.063-0.332l0.062-0.339l0.063-0.336l0.063-0.341l0.063-0.341l0.062-0.34l0.062-0.34l0.063-0.345l0.063-0.342
		l0.062-0.344l0.063-0.345l0.062-0.343l0.063-0.346l0.062-0.345l0.063-0.343l0.063-0.345l0.062-0.342l0.063-0.341l0.062-0.343
		l0.063-0.341l0.063-0.338l0.062-0.34l0.063-0.335l0.063-0.337l0.062-0.332l0.063-0.334l0.062-0.33l0.062-0.326l0.063-0.327
		l0.063-0.322l0.063-0.321l0.063-0.319l0.062-0.316l0.063-0.313l0.062-0.311l0.063-0.308l0.061-0.304l0.062-0.301l0.065-0.299
		l0.061-0.293l0.063-0.29l0.061-0.286l0.062-0.282l0.063-0.28l0.063-0.273l0.063-0.271l0.062-0.268l0.063-0.261l0.062-0.259
		l0.063-0.251l0.062-0.248l0.063-0.241l0.063-0.24l0.061-0.231l0.062-0.229l0.064-0.221l0.061-0.22l0.062-0.212l0.063-0.207
		l0.063-0.2l0.063-0.194l0.063-0.191l0.062-0.184l0.063-0.18l0.063-0.17l0.063-0.166l0.063-0.161l0.063-0.154l0.061-0.146
		l0.063-0.142l0.063-0.136l0.061-0.129l0.063-0.123l0.063-0.116l0.061-0.108l0.063-0.104l0.062-0.097l0.063-0.089l0.062-0.084
		l0.063-0.077l0.063-0.069l0.063-0.063l0.063-0.057l0.062-0.049l0.063-0.042l0.061-0.036l0.063-0.028l0.063-0.023l0.062-0.014
		l0.062-0.009l0.063-0.003l0.062,0.007l0.062,0.013l0.063,0.021l0.063,0.024l0.063,0.034l0.062,0.039l0.063,0.047l0.063,0.054
		l0.063,0.06l0.062,0.067l0.06,0.074l0.063,0.08l0.063,0.087l0.063,0.094l0.061,0.1l0.063,0.106l0.061,0.115l0.065,0.119
		l0.061,0.127l0.063,0.133l0.062,0.14l0.064,0.145l0.062,0.15l0.063,0.157l0.062,0.165l0.062,0.17l0.062,0.174l0.063,0.183
		l0.062,0.188l0.063,0.193l0.062,0.199l0.061,0.205l0.064,0.21l0.06,0.215l0.064,0.222l0.062,0.225l0.063,0.231l0.062,0.236
		l0.063,0.24l0.062,0.246l0.063,0.251l0.06,0.254l0.063,0.262l0.062,0.264l0.063,0.269l0.062,0.273l0.061,0.277l0.063,0.281
		l0.062,0.282l0.063,0.291l0.062,0.294l0.063,0.295l0.062,0.3l0.063,0.301l0.061,0.308l0.063,0.311l0.062,0.311l0.062,0.315
		l0.062,0.316l0.064,0.32l0.062,0.323l0.06,0.326l0.063,0.328l0.062,0.327l0.064,0.331l0.062,0.333l0.063,0.336l0.062,0.336
		l0.064,0.339l0.061,0.337l0.063,0.341l0.062,0.341l0.064,0.342l0.06,0.342l0.063,0.344l0.06,0.343l0.063,0.345l0.063,0.343
		l0.062,0.346l0.063,0.344l0.062,0.343l0.064,0.345l0.061,0.343l0.064,0.343l0.06,0.342l0.064,0.34l0.062,0.339l0.063,0.338
		l0.061,0.338l0.061,0.334l0.063,0.336l0.063,0.331l0.062,0.331L57.442,80l0.063,0.327l0.062,0.321l0.063,0.323l0.061,0.316
		l0.063,0.319l0.062,0.313l0.063,0.311l0.062,0.308l0.063,0.304l0.062,0.301l0.063,0.298l0.062,0.295l0.061,0.291l0.063,0.288
		l0.062,0.281l0.062,0.278l0.061,0.276l0.065,0.27l0.061,0.268l0.063,0.261l0.062,0.26l0.064,0.252l0.062,0.249l0.063,0.243
		l0.062,0.238l0.064,0.232l0.062,0.229l0.061,0.224l0.063,0.217l0.062,0.212l0.064,0.207l0.059,0.203l0.063,0.194l0.062,0.19
		l0.064,0.184l0.062,0.18l0.063,0.173l0.062,0.167l0.063,0.162l0.063,0.152l0.063,0.15l0.061,0.142l0.064,0.134l0.062,0.13
		l0.062,0.124l0.063,0.116l0.062,0.109l0.062,0.104l0.062,0.097l0.063,0.092l0.062,0.081l0.063,0.079l0.063,0.068l0.063,0.065
		l0.062,0.055l0.063,0.051l0.062,0.043l0.063,0.036l0.062,0.028l0.062,0.024l0.063,0.015l0.062,0.009l0.063,0.003l0.059-0.006
		l0.064-0.012l0.061-0.019l0.063-0.025l0.062-0.032l0.063-0.041l0.061-0.044l0.064-0.053l0.061-0.059l0.063-0.068l0.063-0.072
		l0.063-0.08l0.062-0.088l0.062-0.094l0.064-0.1l0.06-0.106l0.062-0.114l0.062-0.118l0.063-0.124l0.063-0.134l0.063-0.138
		l0.061-0.145l0.063-0.152l0.063-0.158l0.063-0.161l0.062-0.17l0.063-0.174l0.063-0.183l0.061-0.189l0.063-0.188l0.062-0.2
		l0.064-0.204l0.062-0.209l0.062-0.214l0.062-0.223l0.063-0.225l0.062-0.231l0.063-0.234l0.062-0.24l0.063-0.244l0.063-0.253
		l0.063-0.254l0.062-0.262L64.1,85.57l0.061-0.269l0.063-0.274l0.063-0.276l0.062-0.281l0.062-0.284l0.063-0.288l0.061-0.29
		l0.064-0.297l0.061-0.301l0.061-0.302l0.064-0.307l0.062-0.309l0.063-0.312l0.063-0.315l0.063-0.315l0.061-0.322l0.062-0.322
		l0.063-0.324l0.063-0.326l0.061-0.33l0.064-0.331l0.061-0.334l0.063-0.333l0.062-0.336l0.063-0.338l0.062-0.338l0.062-0.341
		l0.063-0.34l0.061-0.341l0.064-0.345l0.061-0.343l0.063-0.345l0.063-0.342l0.062-0.345"/>
</g>
<line opacity="0.75" fill="none" stroke="#666666" stroke-width="2" stroke-linecap="square" stroke-miterlimit="10" x1="23.354" y1="73.434" x2="70.834" y2="73.434"/>
<path d="M49.833,34.197v11.914L46.47,42.74l-2.66,2.657l7.893,7.926l7.896-7.926L56.94,42.74l-3.364,3.37V34.197"/>
</svg>
