<?xml version="1.0" encoding="utf-8"?>
<!-- Generator: Adobe Illustrator 16.0.3, SVG Export Plug-In . SVG Version: 6.00 Build 0)  -->
<!DOCTYPE svg PUBLIC "-//W3C//DTD SVG 1.1//EN" "http://www.w3.org/Graphics/SVG/1.1/DTD/svg11.dtd">
<svg version="1.1" id="Layer_1" xmlns="http://www.w3.org/2000/svg" xmlns:xlink="http://www.w3.org/1999/xlink" x="0px" y="0px"
	 width="100px" height="100px" viewBox="0 0 100 100" enable-background="new 0 0 100 100" xml:space="preserve">
<g id="tablet" display="none">
	<path display="inline" d="M65.368,29.265H37.22c-0.818,0-1.482,0.664-1.482,1.481v35.551c0,0.818,0.664,1.48,1.482,1.48h0.521
		h27.107h0.521c0.818,0,1.481-0.662,1.481-1.48V30.746C66.85,29.928,66.187,29.265,65.368,29.265z M63.944,61.852H38.702V32.228
		h25.185L63.944,61.852z M51.297,66.302c-0.818,0-1.482-0.663-1.482-1.481s0.664-1.482,1.482-1.482c0.817,0,1.479,0.664,1.479,1.482
		S52.114,66.302,51.297,66.302z"/>
</g>
<g id="movil" display="none">
	<path display="inline" d="M58.709,36.673H43.884c-0.815,0-1.477,0.664-1.477,1.482v28.147c0,0.817,0.661,1.481,1.477,1.481h14.825
		c0.815,0,1.477-0.663,1.477-1.481V38.155C60.186,37.337,59.523,36.673,58.709,36.673z M57.232,39.637v22.22H45.359v-22.22H57.232z
		 M51.297,66.302c-0.818,0-1.482-0.663-1.482-1.481s0.664-1.482,1.482-1.482c0.817,0,1.479,0.664,1.479,1.482
		S52.114,66.302,51.297,66.302z"/>
</g>
<g id="laptop" display="none">
	<path display="inline" d="M84.289,65.359l-7.068-8.688V22.598c0-0.817-0.664-1.481-1.482-1.481H26.85
		c-0.818,0-1.481,0.664-1.481,1.481v34.074l-7.07,8.688c-0.365,0.443-0.441,1.057-0.197,1.574c0.245,0.52,0.767,0.85,1.34,0.85
		h63.705c0.572,0,1.096-0.33,1.34-0.85C84.73,66.415,84.653,65.803,84.289,65.359z M28.331,24.079h45.926v31.853H28.331V24.079z
		 M52.9,65.561c-0.634,0-2.58,0-3.214,0c-1.186,0-2.145-0.971-2.209-2.205H23.898l3.692-4.461h47.408l3.703,4.461H54.998
		C54.934,64.592,54.086,65.561,52.9,65.561z"/>
</g>
<g id="computer" display="none">
	<g display="inline">
		<path d="M83.156,10.012H19.442c-0.819,0-1.481,0.664-1.481,1.481v45.896c0,0.818,0.663,1.506,1.481,1.506
			c0,0,21.066-0.005,21.469,0l-4.886,6.504c-0.331,0.449-0.381,1.049-0.129,1.547s0.763,0.838,1.322,0.838h28.148
			c0.559,0,1.07-0.314,1.322-0.813s0.201-1.097-0.129-1.547l-4.896-6.528c0.471-0.002,21.491,0,21.491,0
			c0.816,0,1.48-0.688,1.48-1.506V11.493C84.637,10.675,83.973,10.012,83.156,10.012z M40.183,64.795l2.23-2.963h17.76l2.231,2.963
			H40.183z M81.664,55.932h-60.74v-5.926h60.74V55.932z M81.674,47.018h-60.75V12.975h60.75V47.018z"/>
		<circle cx="51.235" cy="52.944" r="1.481"/>
	</g>
</g>
<g id="Augmented_reality" display="none">
	<g display="inline">
		<path d="M68.331,5.57H34.257L17.963,34.437l16.294,28.896h34.074l16.298-28.896L68.331,5.57z M66.973,56.695
			c-2.594-6.092-8.633-10.393-15.679-10.393c-7.044,0-13.084,4.301-15.678,10.393L24.326,36.672h11.412
			c1.228,0,2.222-0.995,2.222-2.222s-0.995-2.222-2.222-2.222H24.313l11.241-19.917l5.662,9.908c0.41,0.718,1.16,1.12,1.931,1.12
			c0.373,0,0.752-0.094,1.1-0.293c1.065-0.608,1.436-1.966,0.827-3.032l-5.714-10h23.867l-5.715,10
			c-0.609,1.065-0.238,2.423,0.826,3.032c0.349,0.2,0.727,0.293,1.101,0.293c0.772,0,1.521-0.402,1.931-1.12l5.662-9.908
			l11.246,19.917h-11.43c-1.227,0-2.222,0.995-2.222,2.222s0.995,2.222,2.222,2.222h11.419L66.973,56.695z"/>
		<path d="M51.297,24.821c-5.31,0-9.63,4.32-9.63,9.63c0,5.309,4.32,9.629,9.63,9.629c5.309,0,9.629-4.32,9.629-9.629
			C60.926,29.142,56.605,24.821,51.297,24.821z"/>
	</g>
</g>
<g id="guides" display="none">
	
		<rect x="17.963" y="1.111" display="inline" fill="none" stroke="#000000" stroke-width="0.02" stroke-miterlimit="10" width="66.666" height="66.666"/>
</g>
<g id="eye_device" display="none">
	<path display="inline" d="M51.301,12.222c-22.59,0-33.354,22.243-33.338,22.243c0,0,0.003-0.007,0.01-0.02
		c0,0,10.358,22.22,33.328,22.22c21.475,0,33.328-22.22,33.328-22.22S74.257,12.222,51.301,12.222z M43.889,24.079h14.814
		c0.818,0,1.482,0.664,1.482,1.481c0,0.818-0.664,1.481-1.482,1.481H43.889c-0.817,0-1.481-0.664-1.481-1.481
		C42.407,24.743,43.071,24.079,43.889,24.079z M43.889,30.746h14.814c0.818,0,1.482,0.664,1.482,1.481
		c0,0.817-0.664,1.481-1.482,1.481H43.889c-0.817,0-1.481-0.664-1.481-1.481C42.407,31.41,43.071,30.746,43.889,30.746z
		 M43.887,37.413h7.407c0.817,0,1.481,0.664,1.481,1.481s-0.664,1.481-1.481,1.481h-7.407c-0.818,0-1.481-0.664-1.481-1.481
		S43.068,37.413,43.887,37.413z M51.301,52.228c-8.148,0-15.475-3.388-21.777-9.707c-3.027-3.034-5.219-6.118-6.378-8.049
		c2.064-3.368,7.059-10.348,14.953-14.496c-2.399,2.936-3.84,6.683-3.84,10.767c0,9.41,7.634,17.041,17.033,17.041
		c9.419,0,17.042-7.63,17.042-17.041c0-4.108-1.455-7.876-3.877-10.818c3.047,1.591,5.926,3.748,8.617,6.445
		c2.977,2.983,5.197,6.142,6.368,8.081C76.087,39.517,66.07,52.228,51.301,52.228z"/>
</g>
<g id="eye_tracking" display="none">
	<path display="inline" d="M51.301,12.222c-22.59,0-33.354,22.243-33.338,22.243c0,0,0.003-0.007,0.01-0.02
		c0,0,10.358,22.22,33.328,22.22c21.475,0,33.328-22.22,33.328-22.22S74.257,12.222,51.301,12.222z M63.887,30.746
		c0,0.817-0.664,1.481-1.481,1.481h-8.148v-2.963h8.148C63.223,29.265,63.887,29.928,63.887,30.746z M49.813,33.709h2.963v8.148
		c0,0.818-0.664,1.481-1.481,1.481c-0.818,0-1.481-0.664-1.481-1.481V33.709z M51.294,18.153c0.817,0,1.481,0.664,1.481,1.481v8.148
		h-2.963v-8.148C49.813,18.817,50.476,18.153,51.294,18.153z M40.183,29.265h8.148v2.963h-8.148c-0.818,0-1.481-0.664-1.481-1.481
		C38.702,29.928,39.364,29.265,40.183,29.265z M51.301,52.228c-8.148,0-15.475-3.388-21.777-9.707
		c-3.027-3.034-5.219-6.118-6.378-8.049c2.064-3.368,7.059-10.348,14.953-14.496c-2.399,2.936-3.84,6.683-3.84,10.767
		c0,9.41,7.634,17.041,17.033,17.041c9.419,0,17.042-7.63,17.042-17.041c0-4.108-1.455-7.876-3.877-10.818
		c3.047,1.591,5.926,3.748,8.617,6.445c2.977,2.983,5.197,6.142,6.368,8.081C76.087,39.517,66.07,52.228,51.301,52.228z"/>
</g>
<g id="eye_device2" display="none">
	<path display="inline" d="M27.59,14.45h14.815c0.818,0,1.481,0.664,1.481,1.481c0,0.818-0.664,1.481-1.481,1.481H27.59
		c-0.818,0-1.481-0.663-1.481-1.481C26.109,15.114,26.772,14.45,27.59,14.45z"/>
	<path display="inline" d="M27.93,21.857h7.407c0.818,0,1.481,0.664,1.481,1.481c0,0.819-0.664,1.481-1.481,1.481H27.93
		c-0.818,0-1.481-0.663-1.481-1.481C26.448,22.521,27.111,21.857,27.93,21.857z"/>
	<path display="inline" d="M52.035,18.91v-8.904h30.37c1.228,0,2.222-0.995,2.222-2.222c0-1.228-0.994-2.223-2.222-2.223
		c0,0-62.087,0-62.222,0c-1.228,0-2.222,0.995-2.222,2.223v23.704c0,1.227,0.995,2.222,2.222,2.222h2.677
		c-3.286,4.086-4.904,7.422-4.897,7.422c0,0,0.003-0.006,0.01-0.018c0,0,10.358,22.219,33.328,22.219
		c21.475,0,33.328-22.22,33.328-22.22S74.473,19.381,52.035,18.91z M22.405,29.265V10.005H47.59V23.33
		c0,3.479-2.963,5.934-6.667,5.935C40.847,29.265,22.405,29.265,22.405,29.265z M51.301,58.894c-8.148,0-15.475-3.388-21.777-9.707
		c-3.027-3.034-5.219-6.118-6.378-8.049c1.092-1.782,3.016-4.578,5.746-7.428h24.626c0.817,0,1.481,0.664,1.481,1.481
		c0,0.818-0.664,1.481-1.481,1.481H34.281c-0.012,0.245-0.022,0.489-0.022,0.736c0,1.274,0.145,2.514,0.41,3.708h11.439
		c0.818,0,1.482,0.664,1.482,1.481c0,0.818-0.664,1.481-1.482,1.481H35.617c2.597,6.096,8.641,10.37,15.676,10.37
		c9.418,0,17.041-7.63,17.041-17.041c0-4.108-1.455-7.876-3.877-10.818c3.047,1.591,5.926,3.748,8.617,6.445
		c2.977,2.983,5.197,6.143,6.368,8.081C76.087,46.183,66.07,58.894,51.301,58.894z"/>
</g>
<g id="internet_of_things" display="none">
	<path display="inline" d="M61.498,35.9h3.129c6.477,0,11.853-5.268,11.853-11.744c0-5.931-4.458-10.85-10.177-11.635
		C64.391,6.037,58.369,1.116,51.297,1.116c-7.072,0-13.095,4.921-15.006,11.406c-5.719,0.785-10.183,5.703-10.183,11.635
		c0,6.476,5.376,11.744,11.852,11.744h3.188L29.433,53.6c-0.858,1.391-1.865,4.545-0.19,7.548c2.49,4.466,9.495,6.636,21.414,6.636
		c12.711,0,20.139-2.237,22.703-6.838c1.645-2.947,0.682-6.004-0.185-7.404L61.498,35.9z M30.556,24.157
		c0-4.054,3.285-7.484,7.339-7.484c0.335,0,1.226,0,2.287,0c0.056-6.16,4.941-11.111,11.115-11.111
		c6.172,0,11.055,4.952,11.107,11.111c1.063,0,1.958,0,2.293,0c4.054,0,7.34,3.431,7.34,7.484c0,4.053-3.356,7.34-7.41,7.34
		c-2.299,0-24.368,0-26.667,0C33.906,31.497,30.556,28.209,30.556,24.157z M46.477,35.9h9.691l9.623,14.538
		c-3.639-1.235-8.681-1.862-15.113-1.862c-5.729,0-10.289,0.55-13.672,1.632L46.477,35.9z M50.656,63.338
		c-13.563,0-16.766-3.021-17.513-4.32c-0.797-1.386-0.052-2.858,0.069-3.08l0.363-0.547c1.431-1.693,5.51-3.957,17.1-3.957
		c13.975,0,17.752,2.966,18.759,4.734c0.17,0.298,0.278,0.596,0.345,0.885c0.072,0.515,0.037,1.144-0.323,1.767
		C68.672,60.179,65.271,63.338,50.656,63.338z"/>
</g>
<g id="home_automation" display="none">
	<g id="home_automation_1_" display="inline">
		<path d="M80.018,26.564L53.953,3.575c-0.811-0.651-1.791-0.977-2.772-0.977c-0.987,0-1.974,0.33-2.785,0.988L22.582,26.564
			c-1.033,0.839-1.633,2.099-1.633,3.429v28.921c0,2.441,1.978,4.418,4.418,4.418h16.296v-4.418H25.367v-28.92L51.181,7.016
			l26.064,22.989v28.91H53.516v-8.647c2.172-0.879,3.736-3.004,3.736-5.491c0-3.274-2.653-5.926-5.926-5.926
			c-3.273,0-5.926,2.652-5.926,5.926c0,2.487,1.501,4.613,3.672,5.491v1.219v7.43v4.418h28.174c2.439,0,4.418-1.979,4.418-4.418
			V30.005C81.664,28.669,81.057,27.403,80.018,26.564z"/>
		<path d="M51.325,31.577c-4.543,0-8.709,2.292-11.145,6.131c-0.617,0.971-0.329,2.259,0.642,2.875
			c0.347,0.22,0.732,0.324,1.115,0.324c0.689,0,1.364-0.341,1.761-0.966c1.667-2.627,4.519-4.197,7.627-4.197
			c3.098,0,5.941,1.559,7.612,4.171c0.619,0.969,1.905,1.252,2.878,0.633c0.97-0.621,1.251-1.908,0.633-2.879
			C60.007,33.855,55.85,31.577,51.325,31.577z"/>
		<path d="M33.815,33.735c-0.643,1.018-0.339,2.361,0.678,3.005c0.362,0.229,0.764,0.337,1.162,0.337
			c0.723,0,1.43-0.358,1.844-1.016c3.016-4.773,8.184-7.624,13.825-7.624c5.617,0,10.773,2.831,13.795,7.575
			c0.646,1.013,1.994,1.312,3.008,0.665c1.016-0.646,1.314-1.993,0.667-3.007c-3.825-6.005-10.355-9.59-17.469-9.59
			C44.18,24.079,37.635,27.689,33.815,33.735z"/>
	</g>
</g>
<g id="drone" display="none">
	<g display="inline">
		<path d="M51.307,10.831c-4.543,0-8.71,2.292-11.146,6.13c-0.616,0.971-0.328,2.258,0.642,2.875
			c0.347,0.22,0.732,0.324,1.115,0.324c0.689,0,1.364-0.341,1.761-0.966c1.667-2.628,4.52-4.197,7.629-4.197
			c3.096,0,5.941,1.559,7.611,4.171c0.621,0.97,1.906,1.253,2.879,0.633c0.969-0.619,1.252-1.908,0.632-2.878
			C59.988,13.109,55.831,10.831,51.307,10.831z"/>
		<path d="M34.483,15.993c0.361,0.229,0.764,0.337,1.162,0.337c0.723,0,1.43-0.359,1.844-1.016
			c3.015-4.774,8.184-7.625,13.825-7.625c5.616,0,10.774,2.831,13.794,7.574c0.646,1.014,1.994,1.313,3.009,0.667
			c1.015-0.647,1.313-1.993,0.667-3.008c-3.824-6.005-10.355-9.589-17.469-9.589c-7.146,0-13.69,3.609-17.51,9.655
			C33.162,14.006,33.466,15.351,34.483,15.993z"/>
		<path d="M60.186,58.148h-5.958V44.815h26.695c0-3.687-2.938-6.667-6.667-6.667H54.229v-5.931c0-2.222,2.963-3.704,2.994-8.186
			c0.023-3.274-2.652-5.926-5.926-5.926c-3.273,0-5.898,2.652-5.926,5.926c-0.032,3.741,2.931,5.963,2.931,8.186v5.931h-19.97
			c-3.728,0-6.667,2.98-6.667,6.667h26.637v13.333h-5.894c-1.768,0-3.707,1.715-3.707,3.709l12.596,3.698l12.589-3.698
			C63.887,59.863,61.953,58.148,60.186,58.148z"/>
	</g>
</g>
<g id="mchine_learning" display="none">
	<path display="inline" d="M69.958,17.257l3.282-5.158c-1.658-2.208-3.645-4.157-5.883-5.778l-5.094,3.244
		c-1.797-1.07-3.75-1.89-5.828-2.417l-1.279-5.756c-1.26-0.178-2.551-0.275-3.858-0.275c-1.528,0-3.025,0.13-4.486,0.371
		l-1.258,5.662c-2.076,0.527-4.03,1.344-5.825,2.415l-4.775-3.041c-2.268,1.688-4.265,3.724-5.917,6.022l2.999,4.712
		c-1.07,1.795-1.887,3.75-2.414,5.828l-5.422,1.33c-0.204,1.341-0.311,2.713-0.311,4.109c0,1.443,0.112,2.859,0.327,4.239l5.405,1.2
		c0.527,2.082,1.344,4.033,2.413,5.826L29.035,44.5c1.653,2.299,3.649,4.335,5.918,6.025l4.775-3.042
		c1.795,1.07,3.75,1.893,5.825,2.413l1.258,5.664c1.46,0.24,2.957,0.371,4.486,0.371c1.308,0,2.598-0.193,3.857-0.371l1.279-5.664
		c2.079-0.521,4.031-1.342,5.828-2.413l5.092,3.245c2.24-1.624,4.227-3.57,5.885-5.78l-3.282-5.162
		c1.069-1.792,1.886-3.743,2.413-5.824l6.026-1.339c0.203-1.338,0.308-2.706,0.308-4.101c0-1.371-0.104-2.719-0.299-4.036
		l-6.033-1.404C71.844,21.007,71.027,19.053,69.958,17.257z"/>
	<path display="inline" d="M51.298,44.821c-9.006,0-16.297-7.291-16.297-16.297c0-9.006,7.291-16.296,16.297-16.296
		c8.999,0,16.295,7.29,16.295,16.296C67.593,37.53,60.297,44.821,51.298,44.821z"/>
	<path display="inline" d="M57.222,35.933c0,3.275-2.647,5.924-5.925,5.924c-3.274,0-5.927-2.649-5.927-5.924
		c0-3.275,2.653-5.927,5.927-5.927C54.573,30.005,57.222,32.658,57.222,35.933z"/>
	<g display="inline">
		<path d="M60.486,57.998c-3.168,0-6.527,1.104-9.473,4.416c-2.76-3.313-5.994-4.417-9.08-4.416c-6.172,0-11.751,4.416-11.751,4.416
			v2.479h42.222v-2.479C72.405,62.414,66.825,57.998,60.486,57.998L60.486,57.998z"/>
	</g>
</g>
<g id="mchine_learning_copy" display="none">
	<rect x="46.111" y="1.857" display="inline" width="10.37" height="54.815"/>
	
		<rect x="46.11" y="1.857" transform="matrix(-0.7071 -0.7071 0.7071 -0.7071 66.8735 86.2268)" display="inline" width="10.37" height="54.814"/>
	<rect x="23.889" y="24.079" display="inline" width="54.814" height="10.371"/>
	
		<rect x="46.112" y="1.857" transform="matrix(0.7072 -0.7071 0.7071 0.7072 -5.6693 44.8402)" display="inline" width="10.371" height="54.814"/>
	<circle display="inline" cx="51.297" cy="29.264" r="22.222"/>
	<circle display="inline" cx="51.297" cy="29.265" r="26.667"/>
	<circle display="inline" cx="51.297" cy="29.264" r="17.778"/>
</g>
<g id="mchine_learning_copy_2" display="none">
	<path display="inline" d="M73.46,12.953c-1.942-2.897-4.437-5.391-7.333-7.333l-9.646,9.645V1.625
		c-1.678-0.331-3.41-0.508-5.185-0.508c-1.775,0-3.508,0.177-5.186,0.508v13.641l-9.646-9.646c-2.896,1.942-5.39,4.437-7.333,7.333
		l9.645,9.646H25.138c-0.33,1.678-0.508,3.41-0.508,5.185s0.177,3.507,0.508,5.185h13.639l-9.644,9.646
		c1.942,2.896,4.436,5.391,7.333,7.333l9.646-9.645v13.642c1.678,0.33,3.41,0.508,5.186,0.508c1.774,0,3.507-0.177,5.185-0.508
		V40.301l9.646,9.645c2.896-1.941,5.391-4.436,7.332-7.332l-9.645-9.646h13.641c0.331-1.678,0.509-3.411,0.509-5.185
		c0-1.775-0.177-3.508-0.509-5.186H63.814L73.46,12.953z"/>
	<circle display="inline" cx="51.297" cy="27.783" r="22.222"/>
	<circle display="inline" cx="51.297" cy="27.783" r="17.778"/>
	<circle display="inline" cx="51.297" cy="35.931" r="6.667"/>
	<g display="inline">
		<path d="M60.486,56.672c-3.168,0-6.527,1.068-9.473,4.271c-2.76-3.203-5.994-4.271-9.08-4.271
			c-6.172,0.001-11.751,4.271-11.751,4.271v2.395h42.222v-2.395C72.405,60.943,66.825,56.672,60.486,56.672L60.486,56.672z"/>
	</g>
	<g display="inline">
		<path d="M1.662,5.57h-34.074l-16.294,28.867l16.294,28.896H1.662l16.299-28.896L1.662,5.57z M0.303,56.695
			c-2.593-6.092-8.633-10.393-15.678-10.393c-7.044,0-13.084,4.301-15.678,10.393l-11.29-20.022h11.412
			c1.228,0,2.222-0.995,2.222-2.223c0-1.227-0.995-2.222-2.222-2.222h-11.424l11.241-19.916l5.662,9.907
			c0.411,0.718,1.16,1.12,1.931,1.12c0.374,0,0.752-0.094,1.1-0.293c1.065-0.609,1.436-1.966,0.827-3.032l-5.714-10h23.867
			l-5.715,10c-0.609,1.065-0.238,2.423,0.827,3.032c0.348,0.199,0.726,0.293,1.1,0.293c0.772,0,1.521-0.402,1.931-1.12l5.662-9.908
			l11.246,19.917H0.179c-1.228,0-2.222,0.995-2.222,2.222c0,1.228,0.995,2.223,2.222,2.223h11.417L0.303,56.695z"/>
	</g>
</g>
<g id="mchine_learning_copy_3" display="none">
	<path display="inline" d="M73.46,12.953c-1.942-2.897-4.437-5.391-7.333-7.333l-9.646,9.645V1.625
		c-1.678-0.331-3.41-0.508-5.185-0.508c-1.775,0-3.508,0.177-5.186,0.508v13.641l-9.646-9.646c-2.896,1.942-5.39,4.437-7.333,7.333
		l9.645,9.646H25.138c-0.33,1.678-0.508,3.41-0.508,5.185s0.177,3.507,0.508,5.185h13.639l-9.644,9.646
		c1.942,2.896,4.436,5.391,7.333,7.333l9.646-9.645v13.642c1.678,0.33,3.41,0.508,5.186,0.508c1.774,0,3.507-0.177,5.185-0.508
		V40.301l9.646,9.645c2.896-1.941,5.391-4.436,7.332-7.332l-9.645-9.646h13.641c0.331-1.678,0.509-3.411,0.509-5.185
		c0-1.775-0.177-3.508-0.509-5.186H63.814L73.46,12.953z"/>
	<circle display="inline" cx="51.297" cy="27.783" r="22.222"/>
	<circle display="inline" cx="51.297" cy="27.783" r="17.778"/>
	<circle display="inline" cx="51.297" cy="35.931" r="6.667"/>
	<g display="inline">
		<path d="M58.865,57.121c-3.175,0-6.07,0.994-7.572,3.996c-1.5-3.002-4.395-3.997-7.572-3.996c-6.229,0-13.539,3.822-13.539,3.822
			v2.395h42.222v-2.395C72.405,60.943,65.095,57.121,58.865,57.121L58.865,57.121z"/>
	</g>
	<g display="inline">
		<path d="M17.961,33.272l0.002-6.583l-8.916-1.98c-0.511-2.014-1.302-3.907-2.34-5.647l4.904-7.703L6.956,6.704l-7.704,4.9
			c-1.739-1.035-3.636-1.827-5.649-2.341l-1.98-8.91h-6.584l-1.981,8.91c-2.012,0.515-3.907,1.305-5.647,2.341l-7.701-4.903
			l-4.658,4.659l4.902,7.703c-1.036,1.736-1.829,3.633-2.341,5.646l-8.908,1.98l-0.001,6.583l8.91,1.981
			c0.512,2.013,1.305,3.908,2.339,5.652l-4.9,7.698l4.657,4.661l7.701-4.902c1.74,1.038,3.635,1.83,5.647,2.338l1.981,8.911h6.584
			l1.98-8.911c2.013-0.508,3.91-1.302,5.649-2.338l7.699,4.898l4.659-4.657l-4.902-7.701c1.038-1.74,1.829-3.635,2.34-5.648
			L17.961,33.272z"/>
	</g>
</g>
<g>
	<path d="M56.96,35.554c0,3.408-2.758,6.162-6.16,6.162c-3.404,0-6.162-2.754-6.162-6.162c0-3.4,2.758-6.158,6.162-6.158
		C54.202,29.396,56.96,32.154,56.96,35.554z"/>
	<path d="M75.76,32.231c0.231-1.368,0.361-2.771,0.361-4.203c0-1.431-0.13-2.835-0.361-4.203l-4.484-0.997
		c-0.506-1.996-1.297-3.878-2.322-5.602l2.436-3.83c-1.646-2.299-3.664-4.316-5.961-5.963l-3.835,2.438
		c-1.723-1.03-3.606-1.819-5.601-2.323L55,3.067c-1.372-0.235-2.774-0.364-4.205-0.364c-1.434,0-2.837,0.129-4.206,0.363
		l-0.998,4.482c-1.996,0.504-3.877,1.294-5.6,2.324l-3.833-2.44c-2.299,1.646-4.315,3.662-5.962,5.961l2.44,3.833
		c-1.03,1.724-1.821,3.605-2.325,5.602l-4.481,0.997c-0.235,1.368-0.363,2.772-0.363,4.203c0,1.432,0.128,2.835,0.362,4.203
		l4.482,0.998c0.504,1.999,1.294,3.88,2.323,5.601l-2.441,3.837c1.646,2.298,3.662,4.314,5.961,5.96l3.833-2.439
		c1.725,1.025,3.606,1.816,5.604,2.321l0.996,4.473c1.369,0.23,2.773,0.357,4.207,0.357c1.432,0,2.834-0.127,4.206-0.361
		l0.992-4.469c1.994-0.505,3.88-1.296,5.604-2.321l3.835,2.437c2.296-1.644,4.315-3.66,5.959-5.96l-2.436-3.834
		c1.026-1.721,1.815-3.604,2.321-5.601L75.76,32.231z M50.797,43.769c-8.727,0-15.746-7.014-15.746-15.741
		c0-8.715,7.02-15.742,15.746-15.742c8.719,0,15.742,7.027,15.742,15.742C66.539,36.755,59.516,43.769,50.797,43.769z"/>
</g>
<circle fill="none" cx="50" cy="50" r="50"/>
<g>
	<path d="M42.349,57.116L42.349,57.116v8.762l-1.765-2.658l-1.765,2.658v-8.762H23.784V91.31h18.565v-0.001
		c3.06,0,5.611,2.299,6.197,5.186h0.126V63.41C48.673,59.934,45.842,57.116,42.349,57.116z"/>
	<path d="M57.079,57.116c-3.493,0-6.325,2.817-6.325,6.294v33.085h0.127c0.587-2.886,3.139-5.187,6.198-5.187v0.001h18.565V57.117
		L57.079,57.116L57.079,57.116z"/>
</g>
<text transform="matrix(1 0 0 1 27.8496 83.3418)" fill="#FFFFFF" font-family="'PalatinoLinotype-Roman'" font-size="21">D</text>
<text transform="matrix(1 0 0 1 52.1152 83.3418)" fill="#FFFFFF" font-family="'PalatinoLinotype-Roman'" font-size="21">IC</text>
</svg>
