<?xml version="1.0" encoding="utf-8"?>
<!-- Generator: Adobe Illustrator 16.0.3, SVG Export Plug-In . SVG Version: 6.00 Build 0)  -->
<!DOCTYPE svg PUBLIC "-//W3C//DTD SVG 1.1//EN" "http://www.w3.org/Graphics/SVG/1.1/DTD/svg11.dtd">
<svg version="1.1" id="Layer_1" xmlns="http://www.w3.org/2000/svg" xmlns:xlink="http://www.w3.org/1999/xlink" x="0px" y="0px"
	 width="100px" height="100px" viewBox="0 0 100 100" enable-background="new 0 0 100 100" xml:space="preserve">
<g id="tablet" display="none">
	<path display="inline" d="M65.368,29.265H37.22c-0.818,0-1.482,0.664-1.482,1.481v35.551c0,0.818,0.664,1.48,1.482,1.48h0.521
		h27.106h0.521c0.818,0,1.48-0.662,1.48-1.48V30.746C66.85,29.928,66.188,29.265,65.368,29.265z M63.943,61.852H38.702V32.228
		h25.185L63.943,61.852z M51.297,66.302c-0.818,0-1.482-0.663-1.482-1.481c0-0.817,0.664-1.481,1.482-1.481
		c0.816,0,1.479,0.664,1.479,1.481C52.775,65.639,52.113,66.302,51.297,66.302z"/>
</g>
<g id="movil" display="none">
	<path display="inline" d="M58.709,36.673H43.884c-0.815,0-1.477,0.664-1.477,1.482v28.146c0,0.817,0.661,1.481,1.477,1.481h14.825
		c0.814,0,1.477-0.663,1.477-1.481V38.155C60.186,37.337,59.523,36.673,58.709,36.673z M57.232,39.637v22.22H45.359v-22.22H57.232z
		 M51.297,66.302c-0.818,0-1.482-0.663-1.482-1.481c0-0.817,0.664-1.481,1.482-1.481c0.816,0,1.479,0.664,1.479,1.481
		C52.775,65.639,52.113,66.302,51.297,66.302z"/>
</g>
<g id="laptop" display="none">
	<path display="inline" d="M84.289,65.359l-7.068-8.688V22.598c0-0.817-0.664-1.481-1.482-1.481H26.85
		c-0.818,0-1.481,0.664-1.481,1.481v34.074l-7.07,8.688c-0.365,0.443-0.441,1.058-0.197,1.574c0.245,0.521,0.767,0.851,1.34,0.851
		h63.705c0.572,0,1.097-0.33,1.34-0.851C84.73,66.415,84.652,65.803,84.289,65.359z M28.331,24.079h45.926v31.853H28.331V24.079z
		 M52.9,65.561c-0.635,0-2.581,0-3.214,0c-1.186,0-2.145-0.971-2.209-2.205H23.898l3.692-4.461h47.408l3.703,4.461H54.998
		C54.934,64.592,54.086,65.561,52.9,65.561z"/>
</g>
<g id="computer" display="none">
	<g display="inline">
		<path d="M83.156,10.012H19.442c-0.819,0-1.481,0.664-1.481,1.481v45.896c0,0.818,0.663,1.506,1.481,1.506
			c0,0,21.066-0.004,21.469,0l-4.886,6.504c-0.331,0.449-0.381,1.05-0.129,1.547c0.252,0.498,0.763,0.839,1.322,0.839h28.148
			c0.559,0,1.069-0.314,1.321-0.813c0.252-0.498,0.201-1.097-0.129-1.547l-4.896-6.527c0.471-0.002,21.491,0,21.491,0
			c0.816,0,1.479-0.688,1.479-1.506V11.493C84.637,10.675,83.973,10.012,83.156,10.012z M40.183,64.795l2.23-2.963h17.76
			l2.231,2.963H40.183z M81.664,55.932h-60.74v-5.926h60.74V55.932z M81.674,47.018h-60.75V12.975h60.75V47.018z"/>
		<circle cx="51.234" cy="52.944" r="1.481"/>
	</g>
</g>
<g id="Augmented_reality" display="none">
	<g display="inline">
		<path d="M68.331,5.57H34.257L17.963,34.437l16.294,28.896h34.074l16.298-28.896L68.331,5.57z M66.973,56.695
			c-2.594-6.092-8.633-10.394-15.679-10.394c-7.044,0-13.084,4.302-15.678,10.394l-11.29-20.023h11.412
			c1.228,0,2.222-0.995,2.222-2.222c0-1.227-0.995-2.222-2.222-2.222H24.313l11.241-19.917l5.662,9.908
			c0.41,0.718,1.16,1.12,1.931,1.12c0.373,0,0.752-0.094,1.1-0.293c1.065-0.608,1.436-1.966,0.827-3.032l-5.714-10h23.867l-5.715,10
			c-0.609,1.065-0.238,2.423,0.826,3.032c0.35,0.2,0.727,0.293,1.102,0.293c0.771,0,1.521-0.402,1.931-1.12l5.662-9.908
			l11.245,19.917h-11.43c-1.227,0-2.222,0.995-2.222,2.222c0,1.227,0.995,2.222,2.222,2.222h11.42L66.973,56.695z"/>
		<path d="M51.297,24.821c-5.31,0-9.63,4.32-9.63,9.63c0,5.309,4.32,9.629,9.63,9.629c5.309,0,9.629-4.32,9.629-9.629
			C60.926,29.142,56.605,24.821,51.297,24.821z"/>
	</g>
</g>
<g id="guides" display="none">
	
		<rect x="17.963" y="1.111" display="inline" fill="none" stroke="#000000" stroke-width="0.02" stroke-miterlimit="10" width="66.666" height="66.667"/>
</g>
<g id="eye_device" display="none">
	<path display="inline" d="M51.301,12.222c-22.59,0-33.354,22.243-33.338,22.243c0,0,0.003-0.007,0.01-0.02
		c0,0,10.358,22.22,33.328,22.22c21.475,0,33.328-22.22,33.328-22.22S74.257,12.222,51.301,12.222z M43.889,24.079h14.814
		c0.818,0,1.482,0.664,1.482,1.481c0,0.818-0.664,1.481-1.482,1.481H43.889c-0.817,0-1.481-0.664-1.481-1.481
		C42.407,24.743,43.071,24.079,43.889,24.079z M43.889,30.746h14.814c0.818,0,1.482,0.664,1.482,1.481s-0.664,1.481-1.482,1.481
		H43.889c-0.817,0-1.481-0.664-1.481-1.481C42.407,31.41,43.071,30.746,43.889,30.746z M43.887,37.413h7.407
		c0.817,0,1.481,0.664,1.481,1.481s-0.664,1.481-1.481,1.481h-7.407c-0.818,0-1.481-0.664-1.481-1.481S43.068,37.413,43.887,37.413z
		 M51.301,52.229c-8.148,0-15.475-3.389-21.777-9.708c-3.027-3.034-5.219-6.118-6.378-8.049c2.064-3.368,7.059-10.348,14.953-14.496
		c-2.399,2.936-3.84,6.683-3.84,10.767c0,9.41,7.634,17.041,17.033,17.041c9.419,0,17.042-7.63,17.042-17.041
		c0-4.108-1.455-7.876-3.877-10.818c3.047,1.591,5.926,3.748,8.617,6.445c2.977,2.983,5.197,6.142,6.367,8.081
		C76.087,39.517,66.07,52.229,51.301,52.229z"/>
</g>
<g id="eye_tracking" display="none">
	<path display="inline" d="M51.301,12.222c-22.59,0-33.354,22.243-33.338,22.243c0,0,0.003-0.007,0.01-0.02
		c0,0,10.358,22.22,33.328,22.22c21.475,0,33.328-22.22,33.328-22.22S74.257,12.222,51.301,12.222z M63.887,30.746
		c0,0.817-0.664,1.481-1.48,1.481h-8.148v-2.963h8.148C63.223,29.265,63.887,29.928,63.887,30.746z M49.813,33.709h2.962v8.148
		c0,0.818-0.664,1.481-1.48,1.481c-0.818,0-1.481-0.664-1.481-1.481L49.813,33.709L49.813,33.709z M51.294,18.153
		c0.817,0,1.481,0.664,1.481,1.481v8.148h-2.963v-8.148C49.813,18.817,50.476,18.153,51.294,18.153z M40.183,29.265h8.148v2.963
		h-8.148c-0.818,0-1.481-0.664-1.481-1.481C38.702,29.928,39.364,29.265,40.183,29.265z M51.301,52.229
		c-8.148,0-15.475-3.389-21.777-9.708c-3.027-3.034-5.219-6.118-6.378-8.049c2.064-3.368,7.059-10.348,14.953-14.496
		c-2.399,2.936-3.84,6.683-3.84,10.767c0,9.41,7.634,17.041,17.033,17.041c9.419,0,17.042-7.63,17.042-17.041
		c0-4.108-1.455-7.876-3.877-10.818c3.047,1.591,5.926,3.748,8.617,6.445c2.977,2.983,5.197,6.142,6.367,8.081
		C76.087,39.517,66.07,52.229,51.301,52.229z"/>
</g>
<g id="eye_device2" display="none">
	<path display="inline" d="M27.59,14.45h14.815c0.818,0,1.481,0.664,1.481,1.481c0,0.818-0.664,1.481-1.481,1.481H27.59
		c-0.818,0-1.481-0.663-1.481-1.481C26.109,15.114,26.772,14.45,27.59,14.45z"/>
	<path display="inline" d="M27.93,21.857h7.407c0.818,0,1.481,0.664,1.481,1.481c0,0.819-0.664,1.481-1.481,1.481H27.93
		c-0.818,0-1.481-0.663-1.481-1.481C26.448,22.521,27.111,21.857,27.93,21.857z"/>
	<path display="inline" d="M52.035,18.91v-8.904h30.369c1.229,0,2.223-0.995,2.223-2.222c0-1.228-0.994-2.223-2.223-2.223
		c0,0-62.086,0-62.221,0c-1.228,0-2.222,0.995-2.222,2.223v23.704c0,1.227,0.995,2.222,2.222,2.222h2.677
		c-3.286,4.086-4.904,7.422-4.897,7.422c0,0,0.003-0.006,0.01-0.018c0,0,10.358,22.219,33.328,22.219
		c21.475,0,33.328-22.22,33.328-22.22S74.473,19.381,52.035,18.91z M22.405,29.265v-19.26H47.59V23.33
		c0,3.479-2.963,5.934-6.667,5.935C40.847,29.265,22.405,29.265,22.405,29.265z M51.301,58.895c-8.148,0-15.475-3.389-21.777-9.708
		c-3.027-3.034-5.219-6.118-6.378-8.049c1.092-1.782,3.016-4.578,5.746-7.428h24.625c0.817,0,1.481,0.664,1.481,1.481
		c0,0.818-0.664,1.481-1.481,1.481H34.281c-0.012,0.245-0.022,0.489-0.022,0.736c0,1.274,0.145,2.514,0.41,3.708h11.439
		c0.818,0,1.482,0.664,1.482,1.481c0,0.818-0.664,1.481-1.482,1.481H35.617c2.597,6.096,8.641,10.37,15.676,10.37
		c9.418,0,17.041-7.63,17.041-17.041c0-4.108-1.455-7.876-3.877-10.818c3.047,1.591,5.926,3.748,8.617,6.445
		c2.977,2.983,5.197,6.143,6.367,8.081C76.087,46.183,66.07,58.895,51.301,58.895z"/>
</g>
<g id="internet_of_things" display="none">
	<path display="inline" d="M61.498,35.9h3.129c6.477,0,11.854-5.268,11.854-11.744c0-5.931-4.459-10.85-10.178-11.635
		C64.391,6.037,58.369,1.116,51.297,1.116c-7.072,0-13.095,4.921-15.006,11.406c-5.719,0.785-10.183,5.703-10.183,11.635
		c0,6.476,5.376,11.744,11.852,11.744h3.188L29.433,53.6c-0.858,1.392-1.865,4.545-0.19,7.549c2.49,4.466,9.495,6.636,21.414,6.636
		c12.711,0,20.139-2.237,22.702-6.839c1.646-2.946,0.683-6.004-0.185-7.403L61.498,35.9z M30.556,24.157
		c0-4.054,3.285-7.484,7.339-7.484c0.335,0,1.226,0,2.287,0c0.056-6.16,4.941-11.111,11.115-11.111
		c6.172,0,11.055,4.952,11.107,11.111c1.063,0,1.957,0,2.293,0c4.054,0,7.34,3.431,7.34,7.484c0,4.053-3.355,7.34-7.41,7.34
		c-2.299,0-24.368,0-26.667,0C33.906,31.497,30.556,28.209,30.556,24.157z M46.477,35.9h9.691l9.623,14.538
		c-3.639-1.235-8.682-1.862-15.113-1.862c-5.729,0-10.289,0.55-13.672,1.632L46.477,35.9z M50.656,63.338
		c-13.563,0-16.766-3.021-17.513-4.32c-0.797-1.386-0.052-2.857,0.069-3.08l0.363-0.547c1.431-1.692,5.51-3.957,17.1-3.957
		c13.976,0,17.752,2.967,18.759,4.734c0.17,0.298,0.278,0.596,0.346,0.885c0.072,0.516,0.037,1.145-0.323,1.768
		C68.672,60.18,65.271,63.338,50.656,63.338z"/>
</g>
<g id="home_automation" display="none">
	<g id="home_automation_1_" display="inline">
		<path d="M80.018,26.564L53.953,3.575c-0.811-0.651-1.791-0.977-2.771-0.977c-0.988,0-1.975,0.33-2.786,0.988L22.582,26.564
			c-1.033,0.839-1.633,2.099-1.633,3.429v28.921c0,2.441,1.978,4.418,4.418,4.418h16.296v-4.418H25.367v-28.92L51.182,7.016
			l26.063,22.989v28.91H53.516v-8.647c2.172-0.879,3.736-3.004,3.736-5.491c0-3.274-2.652-5.926-5.926-5.926
			c-3.273,0-5.926,2.652-5.926,5.926c0,2.487,1.501,4.613,3.672,5.491v1.218v7.431v4.418h28.174c2.439,0,4.418-1.979,4.418-4.418
			V30.005C81.664,28.669,81.057,27.403,80.018,26.564z"/>
		<path d="M51.325,31.577c-4.543,0-8.709,2.292-11.145,6.131c-0.617,0.971-0.329,2.259,0.642,2.875
			c0.347,0.22,0.732,0.324,1.115,0.324c0.689,0,1.364-0.341,1.761-0.966c1.667-2.627,4.519-4.197,7.627-4.197
			c3.098,0,5.94,1.559,7.612,4.171c0.619,0.969,1.904,1.252,2.877,0.633c0.971-0.621,1.252-1.908,0.634-2.879
			C60.007,33.855,55.85,31.577,51.325,31.577z"/>
		<path d="M33.815,33.735c-0.643,1.018-0.339,2.361,0.678,3.005c0.362,0.229,0.764,0.337,1.162,0.337
			c0.723,0,1.43-0.358,1.844-1.016c3.016-4.773,8.184-7.624,13.825-7.624c5.617,0,10.773,2.831,13.795,7.575
			c0.646,1.013,1.994,1.312,3.008,0.665c1.016-0.646,1.314-1.993,0.667-3.007c-3.825-6.005-10.354-9.59-17.469-9.59
			C44.18,24.079,37.635,27.689,33.815,33.735z"/>
	</g>
</g>
<g id="drone" display="none">
	<g display="inline">
		<path d="M51.307,10.831c-4.542,0-8.709,2.292-11.146,6.13c-0.616,0.971-0.328,2.258,0.642,2.875
			c0.347,0.22,0.732,0.324,1.115,0.324c0.689,0,1.364-0.341,1.761-0.966c1.667-2.628,4.52-4.197,7.629-4.197
			c3.096,0,5.94,1.559,7.61,4.171c0.621,0.97,1.906,1.253,2.879,0.633c0.97-0.619,1.252-1.908,0.632-2.878
			C59.988,13.109,55.831,10.831,51.307,10.831z"/>
		<path d="M34.483,15.993c0.361,0.229,0.764,0.337,1.162,0.337c0.723,0,1.43-0.359,1.844-1.016
			c3.015-4.774,8.184-7.625,13.826-7.625c5.615,0,10.773,2.831,13.793,7.574c0.646,1.014,1.994,1.313,3.01,0.667
			c1.015-0.647,1.313-1.993,0.667-3.008C64.96,6.917,58.43,3.333,51.314,3.333c-7.146,0-13.689,3.609-17.509,9.655
			C33.162,14.006,33.466,15.351,34.483,15.993z"/>
		<path d="M60.186,58.148h-5.957V44.815h26.694c0-3.687-2.938-6.667-6.667-6.667H54.229v-5.931c0-2.222,2.963-3.704,2.994-8.186
			c0.023-3.274-2.652-5.926-5.926-5.926c-3.273,0-5.898,2.652-5.926,5.926c-0.032,3.741,2.931,5.963,2.931,8.186v5.931h-19.97
			c-3.728,0-6.667,2.98-6.667,6.667h26.637v13.333h-5.894c-1.768,0-3.707,1.715-3.707,3.709l12.596,3.697l12.59-3.697
			C63.887,59.863,61.953,58.148,60.186,58.148z"/>
	</g>
</g>
<g id="mchine_learning" display="none">
	<path display="inline" d="M69.958,17.257l3.282-5.158c-1.658-2.208-3.645-4.157-5.883-5.778l-5.094,3.244
		c-1.798-1.07-3.75-1.89-5.828-2.417l-1.279-5.756c-1.26-0.178-2.551-0.275-3.858-0.275c-1.528,0-3.025,0.13-4.486,0.371
		L45.554,7.15c-2.076,0.527-4.03,1.344-5.825,2.415l-4.775-3.041c-2.268,1.688-4.265,3.724-5.917,6.022l2.999,4.712
		c-1.07,1.795-1.887,3.75-2.414,5.828l-5.422,1.33c-0.204,1.341-0.311,2.713-0.311,4.109c0,1.443,0.112,2.859,0.327,4.239l5.405,1.2
		c0.527,2.082,1.344,4.033,2.413,5.826l-2.999,4.71c1.653,2.299,3.649,4.335,5.918,6.025l4.775-3.042
		c1.795,1.07,3.75,1.893,5.825,2.413l1.258,5.665c1.46,0.239,2.957,0.371,4.486,0.371c1.309,0,2.598-0.193,3.857-0.371l1.279-5.665
		c2.078-0.521,4.03-1.342,5.828-2.413l5.092,3.246c2.239-1.625,4.227-3.57,5.885-5.78l-3.282-5.162
		c1.069-1.792,1.886-3.743,2.413-5.824l6.025-1.339c0.203-1.338,0.309-2.706,0.309-4.101c0-1.371-0.104-2.719-0.299-4.036
		l-6.033-1.404C71.844,21.007,71.027,19.053,69.958,17.257z"/>
	<path display="inline" d="M51.298,44.821c-9.006,0-16.297-7.291-16.297-16.297c0-9.006,7.291-16.296,16.297-16.296
		c8.999,0,16.295,7.29,16.295,16.296C67.593,37.53,60.297,44.821,51.298,44.821z"/>
	<path display="inline" d="M57.223,35.933c0,3.275-2.647,5.924-5.926,5.924c-3.274,0-5.927-2.649-5.927-5.924
		s2.653-5.927,5.927-5.927C54.573,30.005,57.223,32.658,57.223,35.933z"/>
	<g display="inline">
		<path d="M60.486,57.998c-3.168,0-6.527,1.104-9.473,4.416c-2.761-3.313-5.995-4.417-9.081-4.416
			c-6.172,0-11.751,4.416-11.751,4.416v2.479h42.222v-2.479C72.404,62.414,66.825,57.998,60.486,57.998L60.486,57.998z"/>
	</g>
</g>
<g id="mchine_learning_copy" display="none">
	<rect x="46.111" y="1.857" display="inline" width="10.37" height="54.815"/>
	
		<rect x="46.11" y="1.857" transform="matrix(0.7071 0.7071 -0.7071 0.7071 35.7185 -27.7007)" display="inline" width="10.37" height="54.814"/>
	<rect x="23.889" y="24.079" display="inline" width="54.814" height="10.371"/>
	
		<rect x="46.115" y="1.855" transform="matrix(-0.7071 0.7071 -0.7071 -0.7071 108.2692 13.6824)" display="inline" width="10.371" height="54.818"/>
	<circle display="inline" cx="51.297" cy="29.264" r="22.222"/>
	<circle display="inline" cx="51.297" cy="29.265" r="26.667"/>
	<circle display="inline" cx="51.297" cy="29.264" r="17.778"/>
</g>
<g id="mchine_learning_copy_2" display="none">
	<path display="inline" d="M73.46,12.953c-1.942-2.897-4.437-5.391-7.333-7.333l-9.646,9.645V1.625
		c-1.678-0.331-3.41-0.508-5.185-0.508c-1.775,0-3.508,0.177-5.186,0.508v13.641L36.464,5.62c-2.896,1.942-5.39,4.437-7.333,7.333
		l9.645,9.646H25.138c-0.33,1.678-0.508,3.41-0.508,5.185c0,1.775,0.177,3.507,0.508,5.185h13.639l-9.644,9.646
		c1.942,2.896,4.436,5.391,7.333,7.333l9.646-9.646v13.643c1.678,0.33,3.41,0.508,5.186,0.508c1.774,0,3.507-0.178,5.185-0.508
		V40.301l9.646,9.645c2.896-1.941,5.391-4.436,7.332-7.332l-9.645-9.646h13.641c0.331-1.678,0.509-3.411,0.509-5.185
		c0-1.775-0.177-3.508-0.509-5.186H63.814L73.46,12.953z"/>
	<circle display="inline" cx="51.297" cy="27.783" r="22.222"/>
	<circle display="inline" cx="51.297" cy="27.783" r="17.778"/>
	<circle display="inline" cx="51.297" cy="35.931" r="6.667"/>
	<g display="inline">
		<path d="M60.486,56.672c-3.168,0-6.527,1.068-9.473,4.271c-2.761-3.203-5.995-4.271-9.081-4.271
			c-6.172,0.001-11.751,4.271-11.751,4.271v2.395h42.222v-2.395C72.404,60.943,66.825,56.672,60.486,56.672L60.486,56.672z"/>
	</g>
	<g display="inline">
		<path d="M1.662,5.57h-34.074l-16.294,28.867l16.294,28.896H1.662l16.299-28.896L1.662,5.57z M0.303,56.695
			C-2.29,50.604-8.33,46.302-15.375,46.302c-7.044,0-13.084,4.302-15.678,10.394l-11.29-20.022h11.412
			c1.228,0,2.222-0.995,2.222-2.223c0-1.227-0.995-2.222-2.222-2.222h-11.424l11.241-19.916l5.662,9.907
			c0.411,0.718,1.16,1.12,1.931,1.12c0.374,0,0.752-0.094,1.1-0.293c1.065-0.609,1.436-1.966,0.827-3.032l-5.714-10h23.867
			l-5.715,10c-0.609,1.065-0.238,2.423,0.827,3.032c0.348,0.199,0.726,0.293,1.1,0.293c0.772,0,1.521-0.402,1.931-1.12l5.662-9.908
			L11.61,32.228H0.179c-1.228,0-2.222,0.995-2.222,2.222c0,1.228,0.995,2.223,2.222,2.223h11.417L0.303,56.695z"/>
	</g>
</g>
<g id="mchine_learning_copy_3" display="none">
	<path display="inline" d="M73.46,12.953c-1.942-2.897-4.437-5.391-7.333-7.333l-9.646,9.645V1.625
		c-1.678-0.331-3.41-0.508-5.185-0.508c-1.775,0-3.508,0.177-5.186,0.508v13.641L36.464,5.62c-2.896,1.942-5.39,4.437-7.333,7.333
		l9.645,9.646H25.138c-0.33,1.678-0.508,3.41-0.508,5.185c0,1.775,0.177,3.507,0.508,5.185h13.639l-9.644,9.646
		c1.942,2.896,4.436,5.391,7.333,7.333l9.646-9.646v13.643c1.678,0.33,3.41,0.508,5.186,0.508c1.774,0,3.507-0.178,5.185-0.508
		V40.301l9.646,9.645c2.896-1.941,5.391-4.436,7.332-7.332l-9.645-9.646h13.641c0.331-1.678,0.509-3.411,0.509-5.185
		c0-1.775-0.177-3.508-0.509-5.186H63.814L73.46,12.953z"/>
	<circle display="inline" cx="51.297" cy="27.783" r="22.222"/>
	<circle display="inline" cx="51.297" cy="27.783" r="17.778"/>
	<circle display="inline" cx="51.297" cy="35.931" r="6.667"/>
	<g display="inline">
		<path d="M58.865,57.121c-3.176,0-6.07,0.994-7.572,3.996c-1.5-3.002-4.395-3.997-7.572-3.996c-6.229,0-13.539,3.822-13.539,3.822
			v2.395h42.222v-2.395C72.404,60.943,65.096,57.121,58.865,57.121L58.865,57.121z"/>
	</g>
	<g display="inline">
		<path d="M17.961,33.272l0.002-6.583l-8.916-1.98c-0.511-2.014-1.302-3.907-2.34-5.647l4.904-7.703L6.956,6.704l-7.704,4.9
			c-1.739-1.035-3.636-1.827-5.649-2.341l-1.98-8.91h-6.584l-1.981,8.91c-2.012,0.515-3.907,1.305-5.647,2.341l-7.701-4.903
			l-4.658,4.659l4.902,7.703c-1.036,1.736-1.829,3.633-2.341,5.646l-8.908,1.98l-0.001,6.583l8.91,1.981
			c0.512,2.013,1.305,3.908,2.339,5.652l-4.9,7.698l4.657,4.661l7.701-4.902c1.74,1.038,3.635,1.83,5.647,2.338l1.981,8.911h6.584
			l1.98-8.911c2.013-0.508,3.91-1.302,5.649-2.338l7.699,4.898l4.659-4.657l-4.902-7.701c1.038-1.74,1.829-3.635,2.34-5.648
			L17.961,33.272z"/>
	</g>
</g>
<g>
	<path d="M56.96,35.554c0,3.408-2.758,6.162-6.16,6.162c-3.404,0-6.162-2.754-6.162-6.162c0-3.4,2.758-6.158,6.162-6.158
		C54.202,29.396,56.96,32.154,56.96,35.554z"/>
	<path d="M75.76,32.231c0.231-1.368,0.361-2.771,0.361-4.203c0-1.431-0.13-2.835-0.361-4.203l-4.484-0.997
		c-0.506-1.996-1.297-3.878-2.321-5.602l2.437-3.83c-1.646-2.299-3.664-4.316-5.961-5.963l-3.836,2.438
		c-1.723-1.03-3.605-1.819-5.601-2.323L55,3.067c-1.372-0.235-2.773-0.364-4.205-0.364c-1.434,0-2.837,0.129-4.206,0.363
		l-0.998,4.482c-1.996,0.504-3.877,1.294-5.6,2.324l-3.833-2.44c-2.299,1.646-4.315,3.662-5.962,5.961l2.44,3.833
		c-1.03,1.724-1.821,3.605-2.325,5.602l-4.481,0.997c-0.235,1.368-0.363,2.772-0.363,4.203c0,1.432,0.128,2.835,0.362,4.203
		l4.482,0.998c0.504,1.999,1.294,3.88,2.323,5.601l-2.441,3.837c1.646,2.298,3.662,4.314,5.961,5.96l3.833-2.439
		c1.725,1.025,3.606,1.816,5.604,2.321l0.996,4.474c1.369,0.229,2.773,0.356,4.207,0.356c1.433,0,2.834-0.127,4.206-0.36l0.992-4.47
		c1.994-0.505,3.88-1.296,5.604-2.321l3.836,2.437c2.295-1.644,4.314-3.66,5.959-5.96l-2.437-3.834
		c1.026-1.721,1.815-3.604,2.321-5.601L75.76,32.231z M50.797,43.769c-8.727,0-15.746-7.014-15.746-15.741
		c0-8.715,7.02-15.742,15.746-15.742c8.719,0,15.742,7.027,15.742,15.742C66.539,36.755,59.516,43.769,50.797,43.769z"/>
</g>
<circle fill="none" cx="50" cy="50" r="50"/>
<g>
	<path d="M42.349,57.116L42.349,57.116v8.762l-1.765-2.658l-1.765,2.658v-8.762H23.784v34.194h18.565v-0.002
		c3.06,0,5.611,2.299,6.197,5.187h0.126V63.41C48.673,59.934,45.842,57.116,42.349,57.116z"/>
	<path d="M57.079,57.116c-3.493,0-6.325,2.817-6.325,6.294v33.085h0.127c0.587-2.886,3.139-5.187,6.198-5.187l0,0h18.565V57.117
		L57.079,57.116L57.079,57.116z"/>
</g>
<g enable-background="new    ">
	<path fill="#FFFFFF" d="M28.157,68.925l0.082-0.071c1.183,0.055,1.989,0.082,2.42,0.082l4.799-0.104
		c1.367,0,2.488,0.129,3.363,0.385c0.875,0.257,1.652,0.701,2.333,1.333c0.68,0.633,1.196,1.367,1.548,2.205
		c0.352,0.837,0.528,1.731,0.528,2.681c0,0.924-0.161,1.836-0.482,2.738s-0.778,1.711-1.369,2.425
		c-0.592,0.715-1.265,1.291-2.021,1.728c-0.755,0.438-1.512,0.73-2.271,0.877c-0.759,0.147-1.535,0.221-2.328,0.221
		c-0.533,0-1.538-0.021-3.015-0.062c-0.485-0.014-0.807-0.021-0.964-0.021c-0.472,0-1.042,0.027-1.712,0.082l-0.082-0.082v-0.338
		L29.07,82.9c0.403-0.205,0.634-0.333,0.692-0.384c0.058-0.052,0.106-0.649,0.144-1.795c0.038-1.145,0.057-2.018,0.057-2.62v-3.763
		l-0.01-2.327c0-0.506-0.007-0.918-0.021-1.236c-0.014-0.317-0.038-0.545-0.072-0.682s-0.074-0.232-0.118-0.287
		s-0.116-0.101-0.215-0.139c-0.1-0.037-0.269-0.069-0.508-0.098l-0.779-0.061l-0.082-0.072V68.925z M31.951,82.307
		c0.697,0.137,1.5,0.205,2.41,0.205c1.593,0,2.866-0.268,3.82-0.801c0.953-0.533,1.666-1.322,2.138-2.368s0.708-2.226,0.708-3.538
		c0-1.934-0.516-3.435-1.548-4.501s-2.659-1.6-4.881-1.6c-0.916,0-1.798,0.068-2.646,0.205c-0.055,1.121-0.082,2.386-0.082,3.794
		v3.22l0.021,3.015C31.89,80.525,31.91,81.315,31.951,82.307z"/>
</g>
<g enable-background="new    ">
	<path fill="#FFFFFF" d="M52.721,68.854l1.281,0.041c0.841,0.027,1.391,0.041,1.65,0.041c0.232,0,1.214-0.027,2.943-0.082
		l0.082,0.071v0.513l-0.082,0.072c-0.472,0.014-0.836,0.034-1.092,0.061c-0.257,0.028-0.443,0.079-0.559,0.154
		c-0.117,0.075-0.193,0.251-0.231,0.528c-0.038,0.276-0.056,0.661-0.056,1.153l-0.021,2.358v4.747l0.011,2
		c0.007,0.772,0.027,1.271,0.062,1.497s0.084,0.376,0.148,0.451s0.189,0.139,0.375,0.189c0.184,0.052,0.639,0.091,1.363,0.118
		l0.082,0.062v0.513l-0.082,0.082c-0.034,0-0.636-0.021-1.805-0.062c-0.485-0.014-0.865-0.021-1.139-0.021
		c-0.211,0-1.189,0.027-2.932,0.082l-0.082-0.082v-0.513l0.082-0.062c0.635-0.027,1.059-0.062,1.271-0.103
		c0.211-0.041,0.354-0.094,0.425-0.159c0.072-0.064,0.13-0.203,0.175-0.415c0.044-0.212,0.07-0.684,0.076-1.415l0.011-2.164v-4.747
		l-0.021-1.999c-0.007-0.779-0.025-1.282-0.057-1.508c-0.03-0.226-0.078-0.376-0.144-0.451s-0.189-0.137-0.374-0.185
		s-0.639-0.085-1.363-0.112l-0.082-0.072v-0.513L52.721,68.854z"/>
	<path fill="#FFFFFF" d="M73.494,81.609l-0.389,0.953c-1.518,0.772-3.139,1.158-4.861,1.158c-2.467,0-4.473-0.7-6.014-2.102
		s-2.313-3.233-2.313-5.496c0-1.559,0.385-2.921,1.154-4.086c0.769-1.166,1.784-2.037,3.045-2.615
		c1.262-0.577,2.678-0.866,4.25-0.866c0.91,0,1.809,0.096,2.697,0.287s1.631,0.421,2.225,0.687l0.072,0.104
		c-0.157,0.383-0.305,1.329-0.441,2.84l-0.071,0.082h-0.481l-0.082-0.082l-0.104-1.743c-0.498-0.396-1.102-0.706-1.81-0.928
		c-0.707-0.223-1.444-0.333-2.21-0.333c-1.154,0-2.19,0.247-3.106,0.743c-0.916,0.495-1.627,1.213-2.133,2.153
		c-0.506,0.939-0.759,2.09-0.759,3.45c0,1.367,0.297,2.567,0.893,3.599c0.594,1.033,1.406,1.826,2.435,2.379
		c1.028,0.555,2.23,0.831,3.604,0.831c0.608,0,1.193-0.058,1.754-0.175c0.561-0.115,1.026-0.259,1.399-0.43
		c0.372-0.171,0.729-0.38,1.071-0.626L73.494,81.609z"/>
</g>
</svg>
