<?xml version="1.0" encoding="utf-8"?>
<!-- Generator: Adobe Illustrator 16.0.3, SVG Export Plug-In . SVG Version: 6.00 Build 0)  -->
<!DOCTYPE svg PUBLIC "-//W3C//DTD SVG 1.1//EN" "http://www.w3.org/Graphics/SVG/1.1/DTD/svg11.dtd">
<svg version="1.1" id="Layer_1" xmlns="http://www.w3.org/2000/svg" xmlns:xlink="http://www.w3.org/1999/xlink" x="0px" y="0px"
	 width="96px" height="96px" viewBox="0 0 96 96" enable-background="new 0 0 96 96" xml:space="preserve">
<g id="Layer_1_1_">
</g>
<path fill="none" d="M96.1,48.098c0,26.498-21.49,47.988-47.994,47.988c-26.51,0-48-21.49-48-47.988
	c0-26.507,21.49-47.998,48-47.998C74.609,0.1,96.1,21.59,96.1,48.098z"/>
<path fill="none" stroke="#999999" stroke-width="6" stroke-linecap="round" stroke-linejoin="round" stroke-miterlimit="10" d="
	M88.15,16.272c-60.501,11.54-70.879,70.475-70.879,70.475"/>
<path fill="none" stroke="#000000" stroke-width="3" stroke-linecap="round" stroke-linejoin="round" stroke-miterlimit="10" d="
	M95.887,34.294"/>
<path fill="#949494" d="M40.906,94.251c0.047,0.092,0.091,0.185,0.137,0.274c0.129-0.127,0.045-0.256,0.004-0.385
	C41,94.178,40.953,94.214,40.906,94.251z"/>
<path fill="#CCCCCC" stroke="#231F20" stroke-width="3" stroke-linecap="round" stroke-linejoin="round" stroke-miterlimit="10" d="
	M110.547,111.631l6.236-77.67L98.896,21.309c-9.19,2.316-21.598,5.802-22.268,19.756c-0.301,6.239,6.555,12.158,9.839,16.983
	c0.757,1.114,10.259,11.474,7.873,12.9c-0.999,0.59-8.015-5.97-8.882-6.897c-3.299-3.514-5.262-5.443-8.367-9.238
	c-5.438-6.674-10.215-10.543-18.74-9.728c-7.213,0.691-10.29,8.937-10.29,8.937C45.283,64.898,51,67.531,56.58,74.87
	c3.011,3.944,4.207,6.586,6.754,10.84c0.675,1.12,5.3,10.039,4.65,11.093c-1.559,2.512-10.146-10.835-10.994-11.85
	c-3.691-4.438-6.768-12.025-12.17-12.57c-12.102-1.223-16.866,12.406-20.167,22.54l4.914,13.164L110.547,111.631z"/>
<path fill="#666666" d="M74.361,17.058L74.361,17.058c-1.338-3.278-4.106-5.242-6.195-4.386l-5.193,2.137
	c-2.089,0.855-2.695,4.207-1.355,7.486l0,0"/>
<path fill="#666666" d="M44.083,35.205L44.083,35.205c-2.514-2.494-5.843-3.219-7.438-1.613l-3.976,4.002
	c-1.592,1.604-0.845,4.926,1.671,7.422l0,0"/>
<path fill="#666666" d="M23.427,61.793L23.427,61.793c-3.246-1.422-6.611-0.898-7.521,1.172l-2.265,5.165
	c-0.909,2.07,0.984,4.901,4.229,6.324l0,0"/>
<path d="M66.982,29.326v7.556l-2.129-2.138L63.17,36.43l4.998,5.012l4.999-5.012l-1.679-1.686l-2.133,2.139v-7.557"/>
<path d="M32.506,64.971h7.556l-2.137,2.139l1.686,1.688l5.012-5.02l-5.012-5.019l-1.686,1.687l2.139,2.141h-7.558"/>
<path d="M8.383,22.186h1.796L8.882,29.02h3.229l-0.299,1.57H6.788L8.383,22.186z"/>
<path d="M20.705,25.552c0,1.534-0.536,3.017-1.496,3.965c-0.786,0.761-1.846,1.209-3.104,1.209c-2.182,0-3.404-1.546-3.404-3.504
	c0-1.521,0.561-3.029,1.546-3.978c0.785-0.748,1.858-1.197,3.067-1.197C19.533,22.049,20.705,23.545,20.705,25.552z M15.655,24.181
	c-0.673,0.661-1.047,1.971-1.047,2.981c0,1.184,0.536,2.069,1.758,2.069c0.524,0,1.022-0.236,1.409-0.61
	c0.661-0.661,1.022-2.045,1.022-3.017c0-1.048-0.374-2.058-1.695-2.058C16.541,23.545,16.042,23.782,15.655,24.181z"/>
<path d="M22.717,22.348c0.561-0.137,1.409-0.224,2.244-0.224c0.798,0,1.621,0.125,2.207,0.486c0.549,0.324,0.935,0.86,0.935,1.646
	c0,1.247-0.835,2.021-1.908,2.37v0.05c0.499,0.211,0.71,0.772,0.798,1.533c0.1,0.935,0.175,2.033,0.324,2.382h-1.846
	c-0.074-0.225-0.162-0.947-0.249-1.983c-0.075-1.022-0.424-1.334-1.135-1.334H23.54l-0.624,3.317h-1.783L22.717,22.348z
	 M23.802,25.927h0.749c0.972,0,1.683-0.585,1.683-1.409c0-0.673-0.574-0.973-1.284-0.973c-0.337,0-0.549,0.025-0.699,0.062
	L23.802,25.927z"/>
<path d="M33.868,27.024h-2.992l-0.386,2.031h3.354l-0.287,1.534h-5.149l1.596-8.404h4.975l-0.299,1.534h-3.167l-0.35,1.796h2.993
	L33.868,27.024z"/>
<path d="M37.674,23.757h-2.22l0.312-1.572h6.248l-0.301,1.572h-2.244l-1.284,6.833H36.39L37.674,23.757z"/>
<path d="M42.988,28.408l-0.997,2.182h-1.908l4.09-8.404h2.307l0.988,8.404h-1.886l-0.174-2.182H42.988z M45.333,27.037l-0.163-1.808
	c-0.038-0.461-0.087-1.135-0.125-1.646H45.02c-0.211,0.511-0.449,1.16-0.672,1.646l-0.836,1.808H45.333z"/>
<path d="M32.693,13.376h-4.149l-0.536,2.816h4.65l-0.397,2.127h-7.14l2.213-11.653h6.897l-0.414,2.127h-4.391l-0.485,2.49h4.149
	L32.693,13.376z"/>
<g>
	
		<path fill="#CCCCCC" stroke="#999999" stroke-width="3" stroke-linecap="round" stroke-linejoin="round" stroke-miterlimit="10" d="
		M110.579,111.599l6.236-77.671L98.929,21.276c-9.19,2.316-21.599,5.802-22.269,19.755c-0.301,6.24,6.556,12.159,9.839,16.984
		c0.758,1.114,10.26,11.474,7.873,12.9c-0.999,0.59-8.015-5.97-8.882-6.897c-3.299-3.514-5.263-5.443-8.367-9.238
		c-5.438-6.675-10.215-10.544-18.739-9.729c-7.213,0.69-10.29,8.938-10.29,8.938c-2.777,10.877,2.938,13.51,8.519,20.849
		c3.011,3.944,4.207,6.586,6.754,10.84c0.675,1.12,5.3,10.039,4.65,11.093c-1.56,2.512-10.146-10.835-10.994-11.85
		c-3.691-4.438-6.768-12.025-12.169-12.57c-12.103-1.223-16.866,12.406-20.168,22.54l4.914,13.164L110.579,111.599z"/>
	
		<path fill="#CCCCCC" stroke="#231F20" stroke-width="3" stroke-linecap="round" stroke-linejoin="round" stroke-miterlimit="10" d="
		M76.916,54.769c-5.438-6.659-10.215-10.528-18.739-9.714c-7.213,0.691-10.28,8.923-10.28,8.923
		c-2.778,10.877,2.929,13.51,8.509,20.849"/>
</g>
</svg>
