<?xml version="1.0" encoding="utf-8"?>
<!-- Generator: Adobe Illustrator 16.0.3, SVG Export Plug-In . SVG Version: 6.00 Build 0)  -->
<!DOCTYPE svg PUBLIC "-//W3C//DTD SVG 1.1//EN" "http://www.w3.org/Graphics/SVG/1.1/DTD/svg11.dtd">
<svg version="1.1" xmlns="http://www.w3.org/2000/svg" xmlns:xlink="http://www.w3.org/1999/xlink" x="0px" y="0px" width="96px"
	 height="96px" viewBox="0 0 96 96" enable-background="new 0 0 96 96" xml:space="preserve">
<g id="Layer_1">
	<g>
		<g>
			<path stroke="#000000" stroke-miterlimit="10" d="M22.89,27.839c2.886,0,5.225,2.341,5.225,5.227
				c0,2.887-2.339,5.228-5.225,5.228c-2.882,0-5.222-2.341-5.222-5.228C17.668,30.18,20.007,27.839,22.89,27.839z"/>
		</g>
	</g>
	<rect x="17.375" y="12.662" width="11.033" height="10.342"/>
	<rect x="17.374" y="43.129" width="11.034" height="10.343"/>
	<rect x="17.375" y="73.597" width="11.034" height="10.342"/>
	<polygon stroke="#000000" stroke-miterlimit="10" points="22.891,59.788 17.521,67.279 28.261,67.279 	"/>
	<g>
		<g>
			<path stroke="#000000" stroke-miterlimit="10" d="M73.895,27.54c2.886,0,5.226,2.341,5.226,5.227c0,2.887-2.34,5.228-5.226,5.228
				c-2.883,0-5.222-2.341-5.222-5.228C68.673,29.88,71.012,27.54,73.895,27.54z"/>
		</g>
	</g>
	<rect x="68.38" y="12.362" width="11.033" height="10.342"/>
	<rect x="68.379" y="42.829" width="11.034" height="10.343"/>
	<rect x="68.379" y="73.297" width="11.034" height="10.342"/>
	<polygon stroke="#000000" stroke-miterlimit="10" points="73.896,59.488 68.526,66.979 79.267,66.979 	"/>
	<g>
		<path d="M41.57,46.138v-2.511h13.928v2.511H41.57z M41.57,51.725v-2.51h13.928v2.51H41.57z"/>
	</g>
	<path d="M56.473,57.232c1.791-1.389,3.219-3.25,4.066-5.545c2.398-6.496-0.943-13.749-7.463-16.156
		c-6.502-2.399-13.755,0.943-16.153,7.438c-2.395,6.488,0.949,13.737,7.448,16.136c2.265,0.836,4.621,0.963,6.837,0.543
		l6.354,13.729c0.344,0.744,0.94,1.252,1.63,1.508c0.688,0.254,1.471,0.256,2.216-0.088c0.697-0.322,1.241-0.904,1.51-1.629
		c0.267-0.725,0.231-1.521-0.089-2.219L56.473,57.232z M45.041,57.293c-5.52-2.039-8.34-8.135-6.303-13.653
		c2.036-5.516,8.147-8.332,13.669-6.294c5.539,2.045,8.355,8.156,6.319,13.672C56.688,56.535,50.583,59.338,45.041,57.293z
		 M60.608,73.055c-0.497,0.232-1.076,0.018-1.27-0.469l-6.241-13.477c0.62-0.223,1.217-0.498,1.74-0.799L61.09,71.75
		c0.114,0.25,0.107,0.494,0.014,0.748C61.01,72.75,60.819,72.928,60.608,73.055z"/>
</g>
<g id="Layer_2" display="none">
	<path display="inline" fill="none" stroke="#000000" stroke-width="0.1" stroke-miterlimit="10" d="M96.199,47.997
		C96.199,74.51,74.709,96,48.193,96c-26.51,0-48-21.49-48-48.003C0.193,21.49,21.683,0,48.193,0
		C74.709,0,96.199,21.49,96.199,47.997z"/>
</g>
</svg>
