<?xml version="1.0" encoding="utf-8"?>
<!-- Generator: Adobe Illustrator 16.0.3, SVG Export Plug-In . SVG Version: 6.00 Build 0)  -->
<!DOCTYPE svg PUBLIC "-//W3C//DTD SVG 1.1//EN" "http://www.w3.org/Graphics/SVG/1.1/DTD/svg11.dtd">
<svg version="1.1" id="Layer_1" xmlns="http://www.w3.org/2000/svg" xmlns:xlink="http://www.w3.org/1999/xlink" x="0px" y="0px"
	 width="100px" height="100px" viewBox="0 0 100 100" enable-background="new 0 0 100 100" xml:space="preserve">
<g>
	<path stroke="#000000" stroke-width="2.0657" stroke-linecap="round" stroke-linejoin="round" stroke-miterlimit="10" d="
		M39.182,17.929v6.484h7.497v-6.484h2.023v15.499h-2.023v-7.267h-7.497v7.267h-2V17.929H39.182z"/>
	<path stroke="#000000" stroke-width="2.0657" stroke-linecap="round" stroke-linejoin="round" stroke-miterlimit="10" d="
		M52.177,18.136c1.22-0.184,2.667-0.322,4.255-0.322c2.875,0,4.92,0.667,6.277,1.932c1.379,1.265,2.184,3.059,2.184,5.565
		c0,2.529-0.781,4.599-2.229,6.024c-1.448,1.449-3.84,2.231-6.853,2.231c-1.426,0-2.621-0.069-3.634-0.184V18.136z M54.178,31.841
		c0.506,0.092,1.241,0.115,2.023,0.115c4.275,0,6.6-2.392,6.6-6.577c0.022-3.656-2.047-5.979-6.277-5.979
		c-1.035,0-1.816,0.092-2.346,0.207V31.841z"/>
	<path stroke="#000000" stroke-width="2.0657" stroke-linecap="round" stroke-linejoin="round" stroke-miterlimit="10" d="
		M67.495,17.929h8.347v1.679h-6.347v5.151h5.864v1.655h-5.864v7.014h-2V17.929z"/>
	<path stroke="#000000" stroke-width="2.0657" stroke-linecap="round" stroke-linejoin="round" stroke-miterlimit="10" d="
		M86.904,20.182h-5.702l-0.575,3.84c0.346-0.046,0.667-0.092,1.219-0.092c1.15,0,2.301,0.253,3.221,0.805
		c1.172,0.667,2.139,1.955,2.139,3.84c0,2.92-2.322,5.105-5.564,5.105c-1.633,0-3.013-0.46-3.726-0.92l0.506-1.541
		c0.621,0.368,1.841,0.828,3.196,0.828c1.908,0,3.541-1.242,3.541-3.242c-0.021-1.932-1.311-3.311-4.301-3.311
		c-0.851,0-1.518,0.092-2.068,0.161l0.966-7.174h7.151v1.701H86.904z"/>
</g>
<g id="Captions">
</g>
<path stroke="#000000" stroke-width="2" stroke-linecap="round" stroke-linejoin="round" stroke-miterlimit="10" d="M30.052,31.846
	c0-1.199,0.81-2.041,1.943-2.041c1.134,0,1.912,0.842,1.912,2.041c0,1.166-0.745,2.041-1.944,2.041
	C30.83,33.887,30.052,33.012,30.052,31.846z"/>
<g id="Your_Icon">
	<g>
		<path d="M48.429,71.443c0,0.979,0,2.328,0,3.813c-0.001,0.287-0.062,0.551-0.187,0.813c-0.187,0.397-0.537,0.801-1.027,1.099
			c-0.489,0.3-1.103,0.488-1.787,0.488h-24c-0.91,0.003-1.703-0.341-2.23-0.815c-0.264-0.236-0.458-0.504-0.583-0.768
			c-0.124-0.27-0.185-0.529-0.186-0.816c0-1.484,0-2.836,0-3.813c0-0.978,0-1.586,0-1.586h-6c0,0,0,0.605,0,1.586
			c0,0.979,0,2.328,0,3.813c-0.001,1.197,0.275,2.354,0.76,3.377c0.729,1.539,1.905,2.79,3.33,3.659
			c1.426,0.868,3.118,1.363,4.909,1.363h24c2.39-0.003,4.597-0.876,6.243-2.356c0.824-0.74,1.513-1.641,1.996-2.666
			c0.485-1.023,0.763-2.18,0.76-3.377c0-1.484,0-2.836,0-3.813c0-0.978,0-1.586,0-1.586h-5.999
			C48.429,69.857,48.429,70.465,48.429,71.443z"/>
		<path d="M28.029,74.656h10.799c1.326,0,2.4-1.074,2.4-2.399s-1.074-2.399-2.4-2.399h-3V55.458c0.001-0.988,0.399-1.877,1.06-2.539
			c0.663-0.661,1.552-1.062,2.54-1.062h6.207l-4.303,4.304l3.394,3.396l10.098-10.099L44.726,39.361l-3.394,3.394l4.302,4.302
			h-6.206c-2.312,0-4.422,0.951-5.935,2.466c-1.514,1.512-2.465,3.622-2.465,5.935v14.399h-3c-1.326,0-2.4,1.074-2.4,2.398
			C25.628,73.581,26.703,74.656,28.029,74.656z"/>
	</g>
</g>
<path fill="none" d="M50,0c27.613,0,50,22.349,50,49.923c0,27.58-22.387,49.929-50,49.929c-27.614,0-50-22.349-50-49.929
	C0,22.349,22.386,0,50,0z"/>
</svg>
