<?xml version="1.0" encoding="utf-8"?>
<!-- Generator: Adobe Illustrator 16.0.3, SVG Export Plug-In . SVG Version: 6.00 Build 0)  -->
<!DOCTYPE svg PUBLIC "-//W3C//DTD SVG 1.1//EN" "http://www.w3.org/Graphics/SVG/1.1/DTD/svg11.dtd">
<svg version="1.1" id="Layer_1" xmlns="http://www.w3.org/2000/svg" xmlns:xlink="http://www.w3.org/1999/xlink" x="0px" y="0px"
	 width="100px" height="100px" viewBox="0 0 100 100" enable-background="new 0 0 100 100" xml:space="preserve">
<g id="Captions">
</g>
<g id="Your_Icon">
	<g>
		<path d="M48.429,71.443c0,0.979,0,2.328,0,3.813c-0.001,0.287-0.062,0.551-0.187,0.813c-0.187,0.397-0.537,0.802-1.027,1.1
			c-0.489,0.3-1.103,0.488-1.787,0.488h-24c-0.91,0.003-1.703-0.342-2.23-0.815c-0.264-0.235-0.458-0.504-0.583-0.768
			c-0.124-0.271-0.185-0.529-0.186-0.816c0-1.483,0-2.836,0-3.813s0-1.586,0-1.586h-6c0,0,0,0.605,0,1.586c0,0.979,0,2.328,0,3.813
			c-0.001,1.197,0.275,2.354,0.76,3.377c0.729,1.539,1.905,2.79,3.33,3.659c1.426,0.868,3.118,1.363,4.909,1.363h24
			c2.39-0.004,4.597-0.876,6.243-2.356c0.824-0.739,1.513-1.641,1.996-2.666c0.485-1.022,0.763-2.18,0.76-3.377
			c0-1.483,0-2.836,0-3.813s0-1.586,0-1.586h-5.999C48.429,69.857,48.429,70.465,48.429,71.443z"/>
		<path d="M28.029,74.656h10.799c1.326,0,2.4-1.074,2.4-2.399s-1.074-2.399-2.4-2.399h-3V55.458c0.001-0.988,0.399-1.877,1.06-2.539
			c0.663-0.661,1.552-1.062,2.54-1.062h6.207l-4.303,4.304l3.394,3.396l10.098-10.099L44.726,39.361l-3.394,3.394l4.302,4.302
			h-6.206c-2.312,0-4.422,0.951-5.935,2.466c-1.514,1.512-2.465,3.622-2.465,5.935v14.399h-3c-1.326,0-2.4,1.074-2.4,2.397
			C25.628,73.581,26.703,74.656,28.029,74.656z"/>
	</g>
</g>
<path fill="none" d="M100,50c0,27.614-22.387,50-50,50C22.386,100,0,77.614,0,50C0,22.385,25.052,0,50,0C77.613,0,100,22.386,100,50
	z"/>
<g>
	<path stroke="#000000" stroke-width="2" stroke-linecap="round" stroke-linejoin="round" stroke-miterlimit="10" d="M44.126,35.718
		c0-1.198,0.81-2.041,1.943-2.041c1.134,0,1.912,0.843,1.912,2.041c0,1.166-0.745,2.041-1.944,2.041
		C44.903,37.759,44.126,36.884,44.126,35.718z"/>
	<path stroke="#000000" stroke-width="2" stroke-linecap="round" stroke-linejoin="round" stroke-miterlimit="10" d="M51.124,34.486
		c0.842,0.552,2.333,1.135,3.758,1.135c2.073,0,3.045-1.037,3.045-2.333c0-1.36-0.81-2.104-2.916-2.883
		c-2.817-1.005-4.146-2.559-4.146-4.438c0-2.527,2.041-4.6,5.41-4.6c1.586,0,2.979,0.454,3.854,0.972l-0.713,2.073
		c-0.616-0.389-1.75-0.907-3.207-0.907c-1.685,0-2.624,0.972-2.624,2.138c0,1.296,0.939,1.879,2.98,2.656
		c2.721,1.037,4.113,2.396,4.113,4.73c0,2.753-2.138,4.697-5.863,4.697c-1.717,0-3.303-0.422-4.405-1.069L51.124,34.486z"/>
	<path stroke="#000000" stroke-width="2" stroke-linecap="round" stroke-linejoin="round" stroke-miterlimit="10" d="M65.93,30.081
		c0.065,3.854,2.527,5.442,5.377,5.442c2.041,0,3.272-0.356,4.342-0.811l0.485,2.041c-1.004,0.454-2.721,0.973-5.215,0.973
		c-4.827,0-7.71-3.175-7.71-7.904c0-4.73,2.786-8.455,7.354-8.455c5.119,0,6.479,4.503,6.479,7.386c0,0.583-0.065,1.037-0.097,1.328
		H65.93z M74.288,28.041c0.032-1.814-0.745-4.632-3.952-4.632c-2.883,0-4.146,2.656-4.374,4.632H74.288z"/>
	<path stroke="#000000" stroke-width="2" stroke-linecap="round" stroke-linejoin="round" stroke-miterlimit="10" d="M84.009,17.221
		v4.503h4.081v2.17h-4.081v8.456c0,1.943,0.552,3.045,2.138,3.045c0.746,0,1.297-0.098,1.652-0.194l0.131,2.138
		c-0.552,0.227-1.427,0.389-2.527,0.389c-1.328,0-2.397-0.42-3.077-1.197c-0.81-0.842-1.103-2.235-1.103-4.082v-8.552h-2.43v-2.17
		h2.43v-3.758L84.009,17.221z"/>
</g>
</svg>
