<?xml version="1.0" encoding="utf-8"?>
<!-- Generator: Adobe Illustrator 16.0.3, SVG Export Plug-In . SVG Version: 6.00 Build 0)  -->
<!DOCTYPE svg PUBLIC "-//W3C//DTD SVG 1.1//EN" "http://www.w3.org/Graphics/SVG/1.1/DTD/svg11.dtd">
<svg version="1.1" id="Layer_1" xmlns="http://www.w3.org/2000/svg" xmlns:xlink="http://www.w3.org/1999/xlink" x="0px" y="0px"
	 width="96px" height="96px" viewBox="0 0 96 96" enable-background="new 0 0 96 96" xml:space="preserve">
<g>
	<path fill="#FCFCFC" d="M66.605,30.678c-0.247-0.19-0.497-0.378-0.744-0.569c0.115-0.314,0.581-0.595,0.095-0.971
		c0.053-0.33,0.115-0.658,0.344-0.922c0.094-0.331,0.135-0.707,0.135-1.007c0.001-1.063,0.513-2.195-0.282-3.189
		c0.005-0.08,0.012-0.162,0.015-0.244c0.125-0.102,0.202-0.202-0.017-0.285c0.221-0.759-0.153-1.425-0.31-2.127
		c0.305-0.5,0.161-1.017-0.008-1.5c-0.226-0.636-0.521-1.244-0.787-1.865c0.012-0.492-0.371-0.816-0.552-1.224
		c-1.45-3.264-3.733-5.834-6.652-7.866c-1.821-1.268-3.876-2.016-5.949-2.723c-0.408-0.512-0.815-1.024-1.222-1.539
		c-2.136-2.734-2.874-2.363-4.82,0.169c-0.248,0.25-0.574,0.453-0.594,0.921c0.51-0.09,0.64-0.471,0.861-0.753
		c0.429-0.461,0.843-0.943,1.293-1.384c0.566-0.556,1.208-0.6,1.765-0.02c0.702,0.733,1.342,1.526,2.057,2.343
		c-0.3,0.022-0.5,0.039-0.703,0.053l0.022,0.012c-0.027-0.152-0.078-0.104-0.132-0.014c-1.977,0.158-3.994-0.272-5.938,0.421
		c-0.956,0.342-1.935,0.608-2.904,0.906c-0.529,0.052-0.796,0.547-1.237,0.736c-2.12,0.9-3.785,2.376-5.231,4.115
		c-1.587,1.903-3.029,3.901-3.606,6.382c-0.804,0.758-0.55,1.94-1.144,2.835c-0.516-0.525-1.065-1.287-1.579-0.013
		c-0.075,0.118-0.211,0.235-0.213,0.354c-0.044,2.484-0.12,4.966-0.163,7.448c-0.034,1.933,0.789,2.328,2.325,1.5
		c0.852,2.3,1.614,4.609,3.071,6.669c1.838,2.596,4.007,4.712,6.877,6.095c-0.023,0.018-0.046,0.038-0.069,0.057
		c0.032,0.009,0.072,0.009,0.096,0.027c0.71,0.567,1.554,0.828,2.412,1.065c2.342,0.854,4.792,0.563,7.205,0.662
		c0.805-0.207,1.611-0.405,2.411-0.625c2.282-0.625,4.435-1.495,6.145-3.215c1.664-0.924,2.713-2.466,3.821-3.912
		c1.457-1.908,2.402-4.101,2.996-6.439c0.182-0.194,0.348-0.459,0.657-0.175"/>
	<path fill="#4B4B4B" d="M65.955,29.137c0.487,0.375,0.021,0.656-0.095,0.971c-0.185,0.287-0.415,0.567-0.165,0.933
		c-0.596,2.338-1.54,4.531-2.998,6.438c-1.106,1.448-2.156,2.99-3.821,3.913c0.593-2.317-0.013-4.069-2.566-4.746
		c-2.209-0.581-3.909-2.013-4.948-4.185c-0.659-1.377-0.956-2.871-1.612-4.253c-0.83-1.75-1.63-3.535-1.867-5.513
		c-0.045-0.379,0.129-0.712-0.046-1.163c-0.396-1.035-0.514-2.183-0.716-3.289c-0.585-3.207-1.606-6.189-3.92-8.634
		c-0.626-0.662-1.484-1.259-1.62-2.307c0.969-0.299,1.947-0.565,2.903-0.907c1.945-0.694,3.961-0.262,5.938-0.421
		c0.043,0.008,0.089,0.013,0.133,0.014l1.341,0.197c0.144,0.048-0.48,0.094,0,0c2.074,0.707,4.131,1.456,5.95,2.723
		c2.918,2.032,5.2,4.602,6.65,7.866c0.181,0.407,0.563,0.731,0.552,1.224c0.114,0.975,0.593,1.89,0.486,2.902
		c-0.623-0.044-1.241,0.023-1.629,0.558c-1.129,1.55-2.4,4.513-0.737,6.843C63.924,29.356,64.702,29.655,65.955,29.137z
		 M59.929,24.73c0.038-1.386,0.045-2.773-0.471-4.091c-0.736-1.881-2.228-3.023-3.976-3.845c-0.943-0.445-1.895-0.978-3.038-0.678
		c-1.442,0.376-2.107,1.503-2.65,2.707c-0.866,1.918-0.787,3.954-0.225,5.888c0.662,2.287,1.767,4.438,3.519,6.096
		c2.149,2.038,5.427,1.043,6.317-1.784C59.849,27.616,59.993,26.19,59.929,24.73z"/>
	<path fill="#8B8B8B" d="M41.581,7.301c0.137,1.048,0.993,1.645,1.62,2.307c2.315,2.445,3.335,5.428,3.92,8.634
		c0.201,1.106,0.32,2.254,0.716,3.29c0.176,0.451,0.001,0.783,0.047,1.162c0.237,1.978,1.036,3.764,1.866,5.514
		c0.657,1.383,0.955,2.877,1.612,4.252c1.039,2.171,2.74,3.604,4.948,4.186c2.554,0.675,3.16,2.428,2.567,4.745
		c-1.71,1.721-3.862,2.591-6.145,3.215c-0.799,0.221-1.605,0.419-2.412,0.625c0.23-1.31,0.737-2.574,0.641-3.943
		c-0.099-1.473-0.45-2.862-0.847-4.291c-0.554-1.984-1.213-4.046-0.86-6.192c0.152-0.943-0.224-1.198-1.081-0.893
		c0-0.237-0.005-0.475-0.005-0.711c0.797-0.066,0.704-0.462,0.451-1.037c-0.441-0.999-0.813-2.024-1.102-3.084
		c-0.804-2.992-1.784-5.902-4.175-8.082l-0.02-0.016c-1.238-1.113-2.725-1.687-4.324-2.023c-0.601,0-0.601,0-1.041,0
		c-0.382,0.068-0.758,0.158-1.142,0.2c-1.972,0.214-3.763,1.756-4.39,3.582c-0.705,2.053-0.511,4.231-1.062,6.311
		c-0.378,1.429-0.277,2.949-0.26,4.438c0.004,0.342,0.099,0.746-0.415,0.837l-0.016-0.016c-0.146-0.756-0.068-1.556-0.427-2.273
		c0.171-0.159,0.202-0.355,0.158-0.572c0-0.085,0.002-0.169,0.002-0.253c0.013-1.337,0.024-2.675,0.036-4.014
		c-0.235-0.239-0.055-0.396,0.112-0.554c0.317-1.372,0.634-2.742,0.951-4.114c0.577-2.481,2.019-4.479,3.605-6.383
		c1.447-1.739,3.113-3.215,5.231-4.115C40.784,7.848,41.051,7.353,41.581,7.301z"/>
	<path fill="#B5B5B5" d="M48.175,29.912c0.858-0.306,1.233-0.05,1.081,0.893c-0.352,2.146,0.307,4.208,0.86,6.192
		c0.396,1.429,0.747,2.818,0.848,4.291c0.095,1.369-0.411,2.633-0.64,3.943c-2.413-0.097-4.863,0.193-7.205-0.661
		c-0.675-0.679-1.527-0.977-2.44-1.148c-2.869-1.384-5.039-3.5-6.877-6.096c-1.458-2.06-2.219-4.369-3.07-6.67
		c-0.014-0.107-0.028-0.219-0.042-0.328c0.513-0.091,0.419-0.495,0.415-0.836c-0.017-1.489-0.119-3.011,0.26-4.44
		c0.552-2.079,0.357-4.257,1.062-6.31c0.628-1.827,2.419-3.368,4.39-3.582c0.383-0.042,0.76-0.132,1.142-0.201
		c0.529,0,0.452,0,1.041,0c1.6,0.336,3.087,0.91,4.324,2.02c-0.365-0.136-0.71-0.166-0.787,0.323
		c-0.033,0.201,0.121,0.417,0.366,0.422c0.537,0.011,0.482-0.367,0.441-0.726c2.391,2.178,3.373,5.089,4.176,8.081
		c0.288,1.061,0.66,2.085,1.101,3.084c0.254,0.575,0.348,0.97-0.449,1.037c-0.559-1.495-1.276-2.954-1.638-4.496
		c-0.771-3.262-2.853-5.146-5.897-6.192c-2.311-0.793-5.205,0.583-5.961,2.825c-0.622,1.843-0.685,3.731-0.992,5.598
		c-0.3,1.317-0.29,2.635-0.005,3.951c0.035,0.346,0.06,0.686,0.138,1.037c0.792,3.568,3.018,6.373,5.046,9.233
		c2.156,3.039,6.126,2.566,7.885-0.277c0.545-0.882,0.929-1.823,1.035-2.867c0.344-1.842,0.12-3.702,0.169-5.556
		C48.321,31.636,48.04,30.755,48.175,29.912z"/>
	<path fill="#8B8B8B" d="M65.955,29.137c-1.253,0.518-2.031,0.219-2.789-0.838c-1.662-2.329-0.391-5.293,0.738-6.843
		c0.389-0.534,1.006-0.602,1.629-0.557c-0.002,0-0.046,0.008-0.046,0.008c0.071,0.09,0.142,0.177,0.213,0.267
		c0.047,0.063,0.093,0.125,0.143,0.188c0.154,0.703,0.53,1.37,0.31,2.127c0.008,0.093,0.011,0.19,0.017,0.285
		c-0.004,0.082-0.011,0.164-0.015,0.245c0.221,1.395-0.119,2.806,0.147,4.196C66.07,28.479,66.009,28.807,65.955,29.137z"/>
	<path fill="#1D1D1D" d="M30.689,30.329c0.014,0.109,0.027,0.22,0.042,0.329c-1.537,0.828-2.359,0.434-2.325-1.5
		c0.042-2.483,0.12-4.965,0.162-7.448c0.002-0.12,0.139-0.236,0.214-0.354c0.116,0.01,0.23,0.024,0.346,0.033
		c-0.113,2.675-0.321,5.353-0.292,8.026c0.014,1.352,0.475,1.477,1.837,0.897L30.689,30.329z"/>
	<path fill="#1D1D1D" d="M66.351,30.866c0.085-0.063,0.172-0.125,0.255-0.188"/>
	<path fill="#333333" d="M51.894,6.184c-0.479,0.094-0.284,0.306-0.661-0.262c0.202-0.016-0.3,0.022,0,0
		c-0.714-0.817-1.354-1.61-2.057-2.343c-0.557-0.581-1.199-0.536-1.765,0.02C46.96,4.04,46.547,4.52,46.118,4.982
		c-0.088-0.055-0.18-0.113-0.268-0.167c1.947-2.532,2.685-2.903,4.822-0.169C51.079,5.16,51.487,5.672,51.894,6.184z"/>
	<path fill="#333333" d="M29.128,21.389c-0.115-0.009-0.23-0.023-0.346-0.033c0.514-1.275,1.063-0.512,1.579,0.013
		c0.595-0.895,0.341-2.077,1.145-2.835c-0.317,1.372-0.633,2.743-0.951,4.115C30.34,21.714,29.726,21.173,29.128,21.389z"/>
	<path fill="#333333" d="M66.3,28.215c-0.266-1.391,0.071-2.8-0.148-4.197c0.795,0.995,0.284,2.126,0.282,3.189
		C66.434,27.509,66.393,27.884,66.3,28.215z"/>
	<path fill="#333333" d="M65.841,21.363c-0.049-0.063-0.094-0.125-0.142-0.188c0.003-0.15,0.027-0.312-0.214-0.267
		c0,0,0.044-0.008,0.047-0.008c0.106-1.012-0.372-1.927-0.486-2.902c0.267,0.621,0.562,1.229,0.787,1.865
		C66.002,20.346,66.147,20.862,65.841,21.363z"/>
	<path fill="#B5B5B5" d="M40.679,43.422c0.913,0.174,1.766,0.47,2.44,1.149c-0.858-0.235-1.702-0.499-2.413-1.065
		c-0.024-0.019-0.064-0.019-0.096-0.027C40.633,43.46,40.657,43.44,40.679,43.422z"/>
	<path fill="#333333" d="M66.576,21.396"/>
	<path fill="#1D1D1D" d="M65.695,31.041c-0.25-0.365-0.02-0.646,0.165-0.933c0.248,0.191,0.498,0.379,0.743,0.569
		c-0.082,0.063-0.17,0.125-0.254,0.188C66.044,30.582,65.877,30.847,65.695,31.041z"/>
	<path fill="#333333" d="M46.12,4.982c-0.222,0.283-0.687,1.124-1.197,1.214c0.021-0.468,0.681-1.131,0.929-1.381
		C45.94,4.869,46.032,4.927,46.12,4.982z"/>
	<path fill="#333333" d="M66.168,23.775c-0.008-0.095-0.011-0.192-0.017-0.285C66.369,23.573,66.292,23.673,66.168,23.775z"/>
	<path fill="#333333" d="M50.553,5.987c-0.043-0.001-0.09-0.006-0.133-0.014"/>
	<path fill="#1B1B1B" d="M59.929,24.728c0.066,1.46-0.08,2.889-0.522,4.295c-0.89,2.827-4.169,3.821-6.316,1.784
		c-1.753-1.658-2.856-3.81-3.52-6.096c-0.563-1.934-0.641-3.97,0.225-5.888c0.544-1.203,1.209-2.33,2.65-2.707
		c1.145-0.298,2.094,0.233,3.038,0.679c1.749,0.823,3.24,1.965,3.976,3.845C59.974,21.957,59.966,23.344,59.929,24.728z
		 M58.045,25.155c-0.04-2.142-0.778-3.725-2.608-4.665c-1.943-0.998-3.96,0.086-4.238,2.258c-0.223,1.754,0.337,3.28,1.376,4.653
		c1.078,1.424,2.45,1.82,4,1.003C57.908,27.697,57.958,26.314,58.045,25.155z"/>
	<path fill="#C7C7C7" d="M47.779,38.015c-0.105,1.043-0.488,1.986-1.034,2.867c-1.759,2.844-5.73,3.315-7.886,0.276
		c-2.028-2.858-4.254-5.664-5.046-9.233c-0.078-0.35-0.103-0.69-0.137-1.033c0.002-1.318,0.004-2.634,0.005-3.955
		c0.308-1.867,0.37-3.754,0.992-5.597c0.755-2.243,3.65-3.619,5.961-2.825c3.045,1.046,5.125,2.931,5.896,6.192
		c0.364,1.543,1.081,3.001,1.638,4.496c0,0.237,0.005,0.474,0.005,0.711c-0.134,0.843,0.146,1.724-0.227,2.546
		c-0.244,0.22-0.188,0.518-0.188,0.795C47.762,34.838,47.771,36.426,47.779,38.015z M41.805,21.048
		c-0.027-0.063-0.033-0.163-0.082-0.191c-2.008-1.126-4.502-0.614-5.708,1.757c-0.479,0.939-0.634,1.95-0.784,2.959
		c-0.3,1.997-0.258,3.928,0.292,5.951c0.736,2.702,2.673,4.471,4.436,6.277c2.222,2.282,4.532,1.746,5.852-0.841
		c1.118-2.18,1.229-4.649,1.227-7.016c-0.004-2.223-0.863-4.354-1.832-6.363c-0.611-1.271-1.499-2.32-3.071-2.442
		C42.024,21.11,41.914,21.081,41.805,21.048z"/>
	<path fill="#FCFCFC" d="M29.128,21.389c0.598-0.216,1.212,0.326,1.426,1.259c-0.168,0.159-0.347,0.316-0.112,0.555
		c-0.795,1.234-0.394,2.563-0.296,3.865c0.004,0.057,0.171,0.098,0.261,0.149c0,0.082-0.002,0.167-0.002,0.251
		c-0.266,0.131-0.206,0.353-0.158,0.573c0.359,0.716,0.281,1.517,0.427,2.273c-1.363,0.579-1.824,0.455-1.837-0.897
		C28.808,26.741,29.015,24.064,29.128,21.389z"/>
	<path fill="#BFBFBF" d="M30.407,27.215c-0.089-0.049-0.256-0.091-0.261-0.147c-0.099-1.303-0.499-2.632,0.296-3.866
		C30.431,24.541,30.42,25.878,30.407,27.215z"/>
	<path fill="#B5B5B5" d="M43.343,17c0.041,0.359,0.096,0.736-0.441,0.726c-0.245-0.005-0.398-0.22-0.366-0.422
		c0.077-0.489,0.422-0.458,0.787-0.322C43.323,16.984,43.343,17,43.343,17z"/>
	<path fill="#BFBFBF" d="M30.247,28.04c-0.047-0.219-0.107-0.441,0.158-0.572C30.448,27.685,30.418,27.881,30.247,28.04z"/>
	<path fill="#C2C2C2" d="M47.779,38.015c-0.009-1.588-0.018-3.175-0.019-4.761c0-0.277-0.057-0.576,0.188-0.796
		C47.9,34.313,48.124,36.173,47.779,38.015z"/>
	<path fill="#C2C2C2" d="M33.682,26.937c0,1.32-0.002,2.637-0.005,3.954C33.393,29.57,33.381,28.253,33.682,26.937z"/>
	<path fill="#4B4B4B" d="M65.485,20.907c0.241-0.045,0.217,0.117,0.214,0.267C65.627,21.084,65.558,20.998,65.485,20.907z"/>
	<path fill="#101010" d="M58.045,25.155c-0.087,1.159-0.137,2.542-1.472,3.249c-1.551,0.816-2.924,0.421-4-1.003
		c-1.04-1.373-1.599-2.898-1.376-4.653c0.277-2.172,2.295-3.256,4.236-2.258C57.265,21.431,58.005,23.013,58.045,25.155z"/>
	<path fill="#DBDBDB" d="M42.134,21.139c1.571,0.122,2.46,1.171,3.071,2.442c0.968,2.01,1.827,4.14,1.831,6.363
		c0.004,2.367-0.109,4.836-1.226,7.016c-1.322,2.586-3.629,3.122-5.853,0.841c-1.762-1.806-3.701-3.575-4.436-6.277
		c-0.55-2.023-0.591-3.954-0.292-5.951c0.15-1.01,0.305-2.02,0.784-2.959c1.207-2.371,3.7-2.884,5.709-1.757
		c0.048,0.028,0.055,0.128,0.081,0.191c-0.594-0.021-0.434,0.424-0.468,0.75c-1.154-0.335-2.33-0.538-3.28,0.417
		c-1.205,1.207-1.9,2.683-2.022,4.41c-0.257,3.619,1.139,6.529,3.794,8.91c2.026,1.818,4.078,1.423,5.155-0.483
		c0.229-0.405,0.293-0.861,0.459-1.283c0.598-1.521,1.068-3.125,0.769-4.755c-0.278-1.532-0.763-3.04-1.305-4.507
		c-0.367-0.99-0.94-1.926-2.178-2.11c-0.314-0.047-0.611-0.18-0.797-0.472C42.128,21.696,42.25,21.447,42.134,21.139z"/>
	<path fill="#DBDBDB" d="M42.134,21.139c0.117,0.309-0.005,0.557-0.204,0.784c-0.2-0.032-0.438,0.126-0.594-0.125
		c0.034-0.325-0.126-0.771,0.468-0.75C41.914,21.081,42.024,21.11,42.134,21.139z"/>
	<path fill="#B2B2B2" d="M41.337,21.797c0.308,0.081,0.393,0.093,0.594,0.125c0.187,0.293,0.483,0.426,0.797,0.473
		c1.238,0.184,1.811,1.121,2.178,2.11c0.542,1.466,1.026,2.975,1.305,4.506c0.3,1.629-0.171,3.233-0.769,4.756
		c-0.166,0.421-0.23,0.878-0.459,1.283c-1.077,1.906-3.129,2.301-5.155,0.483c-2.655-2.382-4.051-5.292-3.794-8.91
		c0.123-1.728,0.817-3.203,2.022-4.41C39.007,21.26,40.183,21.463,41.337,21.797z M45.154,29.337
		c0.167-1.537-0.214-2.914-0.82-4.255c-0.707-1.568-2.572-2.625-4.335-2.403c-1.292,0.161-2.632,1.578-2.851,3.195
		c-0.472,3.471,0.666,6.277,3.548,8.37c1.391,1.007,3.267,0.537,3.8-1.233C44.861,31.793,45.384,30.61,45.154,29.337z"/>
	<path fill="#717171" d="M45.154,29.337c0.229,1.272-0.293,2.456-0.659,3.674c-0.534,1.771-2.41,2.24-3.8,1.233
		c-2.881-2.093-4.019-4.899-3.547-8.369c0.219-1.618,1.56-3.036,2.85-3.196c1.764-0.222,3.628,0.834,4.336,2.403
		C44.94,26.424,45.321,27.801,45.154,29.337z M44.126,28.125c0.074-1.236-0.184-2.308-0.901-3.258
		c-0.775-1.03-1.864-1.318-3.021-1.122c-0.984,0.167-1.553,0.889-1.971,1.86c-0.853,1.975,0.432,4.963,1.931,6.288
		c1.727,1.526,3.224,0.78,3.685-1.324C44.026,29.757,44.267,28.917,44.126,28.125z"/>
	<path fill="#444444" d="M44.126,28.125c0.141,0.792-0.1,1.633-0.276,2.444c-0.461,2.104-1.958,2.85-3.685,1.324
		c-1.499-1.325-2.784-4.313-1.931-6.288c0.418-0.971,0.986-1.693,1.971-1.86c1.157-0.196,2.246,0.092,3.021,1.122
		C43.942,25.817,44.2,26.888,44.126,28.125z M39.228,27.033c-0.105,0.726,0.091,1.408,0.447,2.03
		c0.511,0.896,1.284,1.362,2.342,1.108c0.793-0.189,0.818-0.938,1.064-1.547c0.332-0.825,0.13-1.625-0.079-2.381
		c-0.206-0.737-0.617-1.47-1.491-1.648c-0.709-0.148-1.317,0.072-1.807,0.639C39.249,25.764,39.158,26.365,39.228,27.033z"/>
	<path fill="#272727" d="M39.228,27.033c-0.07-0.667,0.021-1.269,0.477-1.798c0.49-0.567,1.098-0.789,1.806-0.639
		c0.875,0.178,1.286,0.912,1.492,1.647c0.21,0.758,0.411,1.557,0.079,2.381c-0.246,0.61-0.271,1.359-1.064,1.548
		c-1.059,0.254-1.831-0.213-2.343-1.109C39.319,28.441,39.123,27.758,39.228,27.033z"/>
	<path fill="#FCFCFC" d="M66.104,30.658c1.536,0.828,2.359,0.434,2.326-1.5c-0.044-2.483-0.121-4.965-0.163-7.448
		c-0.004-0.12-0.139-0.236-0.215-0.354c-0.514-1.275-1.063-0.512-1.578,0.013"/>
	<path fill="#1D1D1D" d="M66.104,30.658c1.536,0.828,2.359,0.434,2.326-1.5c-0.044-2.483-0.121-4.965-0.163-7.448
		c-0.004-0.12-0.139-0.236-0.215-0.354c-0.114,0.01-0.229,0.024-0.344,0.033c0.112,2.675,0.32,5.353,0.291,8.026
		c-0.014,1.352-0.476,1.477-1.838,0.897"/>
	<path fill="#333333" d="M66.281,22.647c0.215-0.934,0.83-1.476,1.428-1.259c0.116-0.009,0.229-0.023,0.344-0.033
		c-0.514-1.275-1.063-0.512-1.578,0.013"/>
	<path fill="#FCFCFC" d="M66.162,30.313c1.362,0.579,1.824,0.455,1.838-0.897c0.029-2.674-0.179-5.352-0.291-8.026
		c-0.598-0.216-1.213,0.326-1.428,1.259"/>
</g>
<g>
	<path fill="#FCFCFC" d="M40.481,54.638c-0.247-0.19-0.497-0.379-0.745-0.569c0.116-0.314,0.581-0.595,0.095-0.971
		c0.054-0.33,0.115-0.659,0.344-0.923c0.094-0.33,0.135-0.706,0.135-1.007c0.001-1.063,0.513-2.195-0.283-3.189
		c0.005-0.08,0.012-0.162,0.016-0.244c0.125-0.102,0.202-0.202-0.018-0.285c0.221-0.759-0.153-1.426-0.309-2.127
		c0.305-0.5,0.161-1.017-0.008-1.5c-0.225-0.636-0.52-1.244-0.787-1.865c0.012-0.492-0.371-0.816-0.552-1.224
		c-1.45-3.264-3.733-5.834-6.652-7.866c-1.821-1.268-3.876-2.016-5.95-2.723c-0.408-0.512-0.815-1.024-1.221-1.539
		c-2.137-2.734-2.875-2.363-4.821,0.169c-0.248,0.25-0.573,0.453-0.595,0.922c0.511-0.09,0.641-0.471,0.862-0.753
		c0.429-0.461,0.842-0.943,1.292-1.384c0.566-0.556,1.208-0.6,1.765-0.02c0.702,0.733,1.342,1.526,2.056,2.343
		c-0.3,0.022-0.5,0.039-0.703,0.054l0.023,0.012c-0.029-0.152-0.079-0.104-0.133-0.014c-1.977,0.158-3.993-0.272-5.938,0.421
		c-0.955,0.342-1.934,0.607-2.903,0.906c-0.529,0.052-0.797,0.547-1.238,0.735c-2.119,0.901-3.784,2.376-5.231,4.116
		c-1.586,1.903-3.029,3.901-3.605,6.382c-0.804,0.758-0.55,1.94-1.145,2.835c-0.516-0.525-1.064-1.288-1.579-0.013
		c-0.075,0.118-0.211,0.234-0.214,0.354c-0.043,2.484-0.12,4.966-0.162,7.449c-0.034,1.933,0.789,2.327,2.325,1.499
		c0.852,2.301,1.613,4.609,3.071,6.67c1.838,2.596,4.007,4.712,6.877,6.096c-0.023,0.017-0.046,0.038-0.069,0.056
		c0.032,0.01,0.072,0.01,0.096,0.027c0.71,0.567,1.554,0.828,2.412,1.065c2.343,0.854,4.792,0.564,7.205,0.662
		c0.805-0.207,1.611-0.405,2.412-0.625c2.281-0.625,4.435-1.495,6.144-3.215c1.664-0.924,2.713-2.466,3.821-3.913
		c1.458-1.907,2.403-4.1,2.997-6.438c0.181-0.194,0.348-0.459,0.657-0.176"/>
	<path fill="#4B4B4B" d="M39.831,53.098c0.487,0.375,0.021,0.655-0.095,0.971c-0.185,0.287-0.415,0.567-0.165,0.933
		c-0.595,2.339-1.54,4.53-2.999,6.438c-1.106,1.447-2.156,2.989-3.821,3.913c0.593-2.318-0.013-4.07-2.566-4.746
		c-2.208-0.581-3.909-2.014-4.948-4.186c-0.659-1.377-0.957-2.87-1.613-4.253c-0.83-1.75-1.629-3.535-1.867-5.513
		c-0.044-0.379,0.129-0.712-0.046-1.163c-0.396-1.035-0.515-2.183-0.717-3.29c-0.584-3.207-1.604-6.189-3.919-8.634
		c-0.626-0.663-1.484-1.259-1.621-2.307c0.969-0.299,1.948-0.565,2.903-0.907c1.945-0.694,3.96-0.263,5.938-0.421
		c0.043,0.008,0.088,0.013,0.132,0.014l1.341,0.197c0.143,0.048-0.48,0.094,0,0c2.074,0.707,4.131,1.456,5.95,2.724
		c2.917,2.032,5.2,4.602,6.65,7.866c0.18,0.408,0.563,0.731,0.551,1.224c0.115,0.975,0.593,1.89,0.486,2.902
		c-0.623-0.044-1.241,0.023-1.628,0.558c-1.129,1.55-2.4,4.513-0.737,6.843C37.799,53.316,38.578,53.614,39.831,53.098z
		 M33.805,48.69c0.038-1.387,0.045-2.773-0.471-4.091c-0.735-1.881-2.228-3.023-3.975-3.845c-0.944-0.445-1.895-0.978-3.039-0.679
		c-1.441,0.376-2.107,1.503-2.649,2.707c-0.867,1.918-0.788,3.954-0.225,5.888c0.662,2.287,1.767,4.438,3.52,6.097
		c2.149,2.037,5.426,1.043,6.316-1.784C33.725,51.576,33.869,50.149,33.805,48.69z"/>
	<path fill="#8B8B8B" d="M15.457,31.261c0.136,1.048,0.993,1.645,1.621,2.307c2.315,2.445,3.335,5.428,3.919,8.634
		c0.202,1.106,0.321,2.254,0.717,3.289c0.175,0.451,0,0.784,0.046,1.162c0.238,1.978,1.037,3.764,1.867,5.514
		c0.657,1.383,0.955,2.877,1.612,4.252c1.039,2.172,2.74,3.604,4.948,4.187c2.554,0.676,3.16,2.428,2.567,4.745
		c-1.709,1.721-3.862,2.591-6.144,3.215c-0.799,0.221-1.606,0.419-2.412,0.625c0.23-1.31,0.737-2.573,0.641-3.942
		c-0.099-1.474-0.45-2.862-0.847-4.291c-0.554-1.984-1.213-4.047-0.861-6.192c0.153-0.942-0.223-1.198-1.08-0.893
		c0-0.237-0.004-0.475-0.004-0.711c0.796-0.066,0.704-0.462,0.45-1.037c-0.441-0.999-0.813-2.023-1.101-3.084
		c-0.804-2.992-1.785-5.902-4.175-8.081l-0.02-0.016c-1.238-1.113-2.725-1.687-4.324-2.023c-0.601,0-0.601,0-1.041,0
		c-0.382,0.067-0.758,0.158-1.142,0.2c-1.972,0.214-3.763,1.756-4.39,3.582c-0.705,2.053-0.51,4.231-1.061,6.311
		c-0.378,1.43-0.277,2.95-0.26,4.439c0.004,0.342,0.099,0.745-0.415,0.837l-0.016-0.017C4.404,53.517,4.482,52.717,4.122,52
		c0.172-0.159,0.202-0.355,0.158-0.572c0-0.084,0.002-0.169,0.002-0.253c0.013-1.337,0.023-2.675,0.036-4.013
		c-0.235-0.239-0.055-0.396,0.112-0.555c0.317-1.372,0.633-2.742,0.95-4.114c0.577-2.481,2.02-4.479,3.606-6.382
		c1.447-1.739,3.113-3.215,5.231-4.115C14.66,31.808,14.927,31.313,15.457,31.261z"/>
	<path fill="#B5B5B5" d="M22.051,53.872c0.858-0.306,1.233-0.05,1.081,0.893c-0.352,2.146,0.307,4.209,0.861,6.192
		c0.396,1.429,0.746,2.817,0.847,4.291c0.095,1.369-0.41,2.633-0.64,3.942c-2.413-0.096-4.862,0.194-7.204-0.661
		c-0.674-0.679-1.527-0.976-2.44-1.147c-2.869-1.385-5.039-3.5-6.877-6.097c-1.458-2.06-2.219-4.368-3.07-6.67
		c-0.014-0.107-0.028-0.219-0.042-0.328c0.513-0.091,0.418-0.494,0.415-0.836c-0.017-1.488-0.119-3.011,0.26-4.439
		c0.552-2.08,0.356-4.258,1.061-6.311c0.628-1.827,2.419-3.368,4.391-3.582c0.383-0.042,0.76-0.132,1.142-0.201
		c0.529,0,0.452,0,1.041,0c1.6,0.336,3.086,0.91,4.324,2.02c-0.365-0.136-0.71-0.166-0.787,0.322
		c-0.033,0.202,0.121,0.417,0.366,0.422c0.537,0.012,0.481-0.367,0.441-0.726c2.391,2.179,3.373,5.089,4.175,8.082
		c0.288,1.061,0.66,2.084,1.101,3.083c0.253,0.575,0.347,0.971-0.45,1.037c-0.559-1.495-1.276-2.954-1.638-4.496
		c-0.771-3.262-2.853-5.146-5.897-6.192c-2.312-0.793-5.205,0.582-5.961,2.825c-0.622,1.843-0.685,3.73-0.992,5.598
		c-0.301,1.317-0.29,2.635-0.005,3.951c0.035,0.346,0.06,0.686,0.138,1.036c0.792,3.568,3.018,6.374,5.046,9.233
		c2.156,3.039,6.125,2.566,7.884-0.276c0.545-0.882,0.929-1.823,1.034-2.867c0.345-1.842,0.121-3.702,0.17-5.556
		C22.197,55.596,21.917,54.715,22.051,53.872z"/>
	<path fill="#8B8B8B" d="M39.831,53.098c-1.253,0.517-2.031,0.219-2.789-0.839c-1.662-2.329-0.391-5.293,0.738-6.843
		c0.388-0.534,1.005-0.602,1.628-0.557c-0.002,0-0.045,0.008-0.045,0.008c0.071,0.09,0.142,0.177,0.213,0.267
		c0.047,0.063,0.093,0.125,0.143,0.188c0.154,0.702,0.53,1.369,0.309,2.127c0.008,0.093,0.011,0.19,0.017,0.285
		c-0.004,0.082-0.011,0.164-0.015,0.245c0.221,1.395-0.119,2.806,0.148,4.196C39.946,52.438,39.884,52.768,39.831,53.098z"/>
	<path fill="#1D1D1D" d="M4.565,54.289c0.014,0.109,0.027,0.22,0.042,0.328c-1.537,0.828-2.359,0.434-2.325-1.499
		c0.042-2.483,0.12-4.965,0.162-7.449c0.002-0.12,0.139-0.235,0.214-0.354c0.116,0.01,0.23,0.024,0.346,0.033
		c-0.113,2.675-0.321,5.352-0.292,8.026c0.014,1.353,0.475,1.477,1.837,0.897L4.565,54.289z"/>
	<path fill="#1D1D1D" d="M40.226,54.825c0.085-0.063,0.172-0.124,0.255-0.188"/>
	<path fill="#333333" d="M25.77,30.144c-0.479,0.094-0.284,0.306-0.662-0.263c0.203-0.016-0.3,0.022,0,0
		c-0.713-0.817-1.354-1.61-2.057-2.342c-0.556-0.581-1.199-0.537-1.765,0.02c-0.45,0.441-0.864,0.921-1.292,1.383
		c-0.088-0.055-0.18-0.113-0.268-0.167c1.947-2.532,2.684-2.903,4.822-0.169C24.955,29.12,25.363,29.632,25.77,30.144z"/>
	<path fill="#333333" d="M3.004,45.349c-0.115-0.009-0.23-0.023-0.346-0.033c0.514-1.275,1.063-0.512,1.579,0.013
		c0.595-0.895,0.34-2.077,1.144-2.835c-0.317,1.372-0.633,2.743-0.95,4.115C4.216,45.674,3.601,45.133,3.004,45.349z"/>
	<path fill="#333333" d="M40.176,52.175c-0.266-1.391,0.071-2.8-0.149-4.196c0.795,0.994,0.285,2.127,0.283,3.189
		C40.31,51.469,40.269,51.845,40.176,52.175z"/>
	<path fill="#333333" d="M39.717,45.323c-0.049-0.063-0.094-0.125-0.142-0.188c0.002-0.151,0.027-0.312-0.214-0.267
		c0,0,0.044-0.008,0.046-0.008c0.106-1.012-0.372-1.927-0.486-2.902c0.267,0.621,0.562,1.229,0.787,1.865
		C39.878,44.306,40.023,44.822,39.717,45.323z"/>
	<path fill="#B5B5B5" d="M14.555,67.383c0.912,0.173,1.766,0.47,2.44,1.148c-0.858-0.235-1.702-0.498-2.412-1.065
		c-0.024-0.018-0.064-0.018-0.096-0.027C14.509,67.421,14.532,67.4,14.555,67.383z"/>
	<path fill="#333333" d="M40.452,45.356"/>
	<path fill="#1D1D1D" d="M39.571,55.001c-0.25-0.365-0.02-0.646,0.165-0.933c0.249,0.19,0.499,0.379,0.744,0.569
		c-0.083,0.063-0.17,0.124-0.254,0.188C39.919,54.542,39.753,54.807,39.571,55.001z"/>
	<path fill="#333333" d="M19.996,28.942c-0.221,0.283-0.687,1.124-1.196,1.214c0.021-0.468,0.68-1.131,0.929-1.381
		C19.816,28.829,19.908,28.886,19.996,28.942z"/>
	<path fill="#333333" d="M40.044,47.735c-0.008-0.095-0.011-0.192-0.017-0.285C40.245,47.533,40.168,47.633,40.044,47.735z"/>
	<path fill="#333333" d="M24.429,29.947c-0.043-0.001-0.09-0.006-0.133-0.014"/>
	<path fill="#1B1B1B" d="M33.805,48.688c0.066,1.46-0.08,2.889-0.522,4.295c-0.89,2.827-4.169,3.821-6.317,1.784
		c-1.752-1.658-2.856-3.81-3.519-6.097c-0.563-1.934-0.642-3.97,0.224-5.888c0.543-1.203,1.209-2.329,2.65-2.706
		c1.145-0.299,2.094,0.233,3.039,0.679c1.749,0.822,3.24,1.965,3.976,3.845C33.85,45.917,33.842,47.304,33.805,48.688z
		 M31.92,49.115c-0.04-2.143-0.778-3.725-2.608-4.666c-1.943-0.998-3.96,0.086-4.238,2.258c-0.223,1.754,0.337,3.28,1.376,4.653
		c1.078,1.424,2.45,1.82,4,1.003C31.784,51.657,31.834,50.274,31.92,49.115z"/>
	<path fill="#C7C7C7" d="M21.655,61.975c-0.105,1.043-0.488,1.985-1.034,2.866c-1.759,2.845-5.729,3.315-7.885,0.276
		c-2.028-2.858-4.254-5.663-5.046-9.232c-0.078-0.35-0.103-0.69-0.137-1.033c0.002-1.318,0.004-2.634,0.005-3.955
		c0.307-1.866,0.37-3.754,0.992-5.597c0.756-2.243,3.65-3.619,5.961-2.825c3.044,1.046,5.125,2.93,5.896,6.192
		c0.363,1.543,1.08,3.001,1.638,4.496c0,0.237,0.004,0.474,0.004,0.711c-0.134,0.843,0.146,1.724-0.226,2.545
		c-0.245,0.221-0.188,0.519-0.188,0.796C21.638,58.798,21.647,60.386,21.655,61.975z M15.681,45.008
		c-0.027-0.063-0.034-0.163-0.082-0.191c-2.009-1.126-4.502-0.614-5.708,1.758c-0.479,0.938-0.634,1.95-0.784,2.958
		c-0.3,1.996-0.258,3.928,0.291,5.95c0.736,2.702,2.674,4.472,4.436,6.277c2.223,2.282,4.532,1.746,5.853-0.841
		c1.117-2.181,1.229-4.649,1.226-7.017c-0.004-2.223-0.863-4.354-1.832-6.363c-0.611-1.27-1.5-2.32-3.072-2.441
		C15.9,45.069,15.79,45.041,15.681,45.008z"/>
	<path fill="#FCFCFC" d="M3.004,45.349c0.597-0.216,1.212,0.326,1.426,1.258c-0.168,0.159-0.347,0.316-0.112,0.555
		c-0.795,1.234-0.395,2.563-0.297,3.866c0.005,0.056,0.172,0.098,0.261,0.148c0,0.082-0.002,0.168-0.002,0.251
		c-0.265,0.131-0.206,0.353-0.158,0.573c0.36,0.716,0.282,1.517,0.427,2.272c-1.363,0.579-1.824,0.455-1.837-0.897
		C2.684,50.7,2.891,48.024,3.004,45.349z"/>
	<path fill="#BFBFBF" d="M4.283,51.175c-0.089-0.049-0.256-0.091-0.261-0.146c-0.099-1.304-0.499-2.633,0.297-3.866
		C4.306,48.5,4.296,49.838,4.283,51.175z"/>
	<path fill="#B5B5B5" d="M17.22,40.96c0.04,0.359,0.095,0.736-0.441,0.726c-0.245-0.005-0.398-0.221-0.366-0.422
		c0.076-0.489,0.422-0.458,0.787-0.322C17.2,40.944,17.22,40.96,17.22,40.96z"/>
	<path fill="#BFBFBF" d="M4.123,52c-0.048-0.22-0.107-0.441,0.158-0.572C4.324,51.645,4.294,51.841,4.123,52z"/>
	<path fill="#C2C2C2" d="M21.655,61.975c-0.007-1.589-0.017-3.175-0.018-4.762c0-0.277-0.057-0.575,0.188-0.795
		C21.775,58.272,22,60.133,21.655,61.975z"/>
	<path fill="#C2C2C2" d="M7.558,50.896c0,1.32-0.002,2.637-0.005,3.954C7.269,53.53,7.257,52.214,7.558,50.896z"/>
	<path fill="#4B4B4B" d="M39.361,44.867c0.241-0.045,0.216,0.117,0.214,0.267C39.503,45.044,39.433,44.957,39.361,44.867z"/>
	<path fill="#101010" d="M31.92,49.115c-0.086,1.159-0.136,2.542-1.472,3.248c-1.55,0.816-2.923,0.421-4-1.003
		c-1.04-1.373-1.599-2.898-1.375-4.653c0.277-2.172,2.295-3.255,4.236-2.258C31.141,45.391,31.88,46.973,31.92,49.115z"/>
	<path fill="#DBDBDB" d="M16.009,45.099c1.572,0.122,2.46,1.171,3.072,2.441c0.968,2.011,1.827,4.141,1.832,6.363
		c0.003,2.367-0.109,4.836-1.226,7.017c-1.321,2.587-3.63,3.122-5.853,0.841c-1.762-1.806-3.7-3.575-4.435-6.277
		c-0.55-2.022-0.592-3.954-0.292-5.95c0.15-1.01,0.305-2.02,0.784-2.958c1.207-2.372,3.7-2.884,5.708-1.758
		c0.048,0.028,0.055,0.127,0.081,0.191c-0.594-0.021-0.434,0.424-0.467,0.75c-1.155-0.335-2.33-0.538-3.28,0.417
		c-1.205,1.207-1.9,2.682-2.022,4.409c-0.257,3.62,1.139,6.529,3.794,8.91c2.026,1.817,4.078,1.423,5.155-0.483
		c0.229-0.405,0.292-0.861,0.459-1.283c0.597-1.521,1.068-3.126,0.769-4.755c-0.278-1.532-0.763-3.04-1.305-4.507
		c-0.367-0.991-0.94-1.926-2.177-2.11c-0.314-0.046-0.611-0.18-0.797-0.472C16.005,45.656,16.126,45.407,16.009,45.099z"/>
	<path fill="#DBDBDB" d="M16.009,45.099c0.117,0.309-0.004,0.557-0.203,0.784c-0.201-0.032-0.439,0.127-0.594-0.125
		c0.033-0.326-0.126-0.771,0.467-0.75C15.79,45.041,15.9,45.069,16.009,45.099z"/>
	<path fill="#B2B2B2" d="M15.213,45.757c0.307,0.081,0.393,0.093,0.594,0.125c0.186,0.293,0.483,0.427,0.797,0.472
		c1.238,0.185,1.811,1.122,2.177,2.111c0.542,1.466,1.027,2.975,1.305,4.506c0.3,1.629-0.171,3.233-0.769,4.756
		c-0.167,0.421-0.23,0.878-0.459,1.283c-1.078,1.906-3.129,2.301-5.155,0.483c-2.655-2.382-4.051-5.291-3.794-8.91
		c0.122-1.728,0.817-3.203,2.022-4.409C12.883,45.22,14.059,45.423,15.213,45.757z M19.03,53.297
		c0.167-1.536-0.214-2.914-0.82-4.255c-0.707-1.568-2.571-2.625-4.335-2.402c-1.291,0.16-2.632,1.578-2.85,3.195
		c-0.472,3.471,0.666,6.277,3.547,8.37c1.391,1.007,3.267,0.537,3.801-1.233C18.737,55.753,19.26,54.57,19.03,53.297z"/>
	<path fill="#717171" d="M19.03,53.297c0.23,1.272-0.293,2.456-0.659,3.675c-0.534,1.771-2.41,2.24-3.8,1.232
		c-2.881-2.093-4.019-4.899-3.547-8.369c0.219-1.618,1.56-3.036,2.85-3.196c1.764-0.223,3.629,0.834,4.336,2.403
		C18.815,50.384,19.196,51.761,19.03,53.297z M18.002,52.084c0.073-1.236-0.184-2.308-0.9-3.258
		c-0.775-1.03-1.864-1.319-3.021-1.122c-0.985,0.167-1.553,0.889-1.971,1.86c-0.853,1.975,0.432,4.963,1.931,6.287
		c1.727,1.526,3.224,0.78,3.685-1.323C17.902,53.717,18.143,52.876,18.002,52.084z"/>
	<path fill="#444444" d="M18.002,52.084c0.141,0.792-0.1,1.633-0.276,2.444c-0.46,2.104-1.958,2.85-3.685,1.323
		c-1.499-1.324-2.784-4.313-1.931-6.287c0.418-0.972,0.986-1.693,1.971-1.86c1.157-0.196,2.246,0.092,3.021,1.122
		C17.818,49.776,18.075,50.848,18.002,52.084z M13.103,50.992c-0.104,0.726,0.091,1.408,0.447,2.03
		c0.512,0.896,1.284,1.362,2.343,1.108c0.793-0.189,0.818-0.938,1.063-1.547c0.332-0.825,0.131-1.625-0.079-2.382
		c-0.206-0.736-0.617-1.47-1.491-1.648c-0.709-0.147-1.316,0.072-1.806,0.64C13.125,49.724,13.034,50.325,13.103,50.992z"/>
	<path fill="#272727" d="M13.103,50.992c-0.069-0.667,0.022-1.269,0.477-1.798c0.49-0.567,1.098-0.788,1.807-0.64
		c0.874,0.179,1.285,0.912,1.491,1.647c0.21,0.759,0.411,1.558,0.079,2.382c-0.245,0.609-0.271,1.358-1.063,1.548
		c-1.059,0.254-1.831-0.213-2.343-1.109C13.194,52.4,12.999,51.718,13.103,50.992z"/>
	<path fill="#FCFCFC" d="M39.98,54.617c1.536,0.828,2.359,0.434,2.326-1.499c-0.043-2.483-0.121-4.965-0.163-7.449
		c-0.004-0.12-0.139-0.235-0.215-0.354c-0.514-1.275-1.063-0.512-1.578,0.013"/>
	<path fill="#1D1D1D" d="M39.98,54.617c1.536,0.828,2.359,0.434,2.326-1.499c-0.043-2.483-0.121-4.965-0.163-7.449
		c-0.004-0.12-0.139-0.235-0.215-0.354c-0.114,0.01-0.229,0.024-0.343,0.033c0.112,2.675,0.32,5.352,0.291,8.026
		c-0.014,1.353-0.475,1.477-1.838,0.897"/>
	<path fill="#333333" d="M40.157,46.607c0.216-0.934,0.83-1.476,1.429-1.259c0.115-0.01,0.229-0.023,0.343-0.033
		c-0.514-1.275-1.063-0.512-1.578,0.013"/>
	<path fill="#FCFCFC" d="M40.038,54.272c1.363,0.579,1.824,0.455,1.838-0.897c0.029-2.674-0.179-5.351-0.291-8.026
		c-0.599-0.216-1.213,0.326-1.429,1.258"/>
</g>
<ellipse transform="matrix(-1 0.0063 -0.0063 -1 96.8506 95.6927)" fill="none" cx="48.275" cy="47.999" rx="48.275" ry="48.001"/>
<g>
	<path fill="#FCFCFC" d="M92.73,54.638c-0.248-0.19-0.498-0.379-0.745-0.569c0.115-0.314,0.581-0.595,0.095-0.972
		c0.054-0.33,0.115-0.658,0.345-0.922c0.094-0.33,0.135-0.706,0.135-1.007c0-1.063,0.513-2.195-0.283-3.189
		c0.006-0.08,0.012-0.162,0.016-0.244c0.124-0.102,0.201-0.201-0.018-0.284c0.221-0.759-0.152-1.426-0.309-2.127
		c0.304-0.5,0.16-1.017-0.009-1.5c-0.226-0.636-0.52-1.245-0.787-1.865c0.012-0.492-0.371-0.816-0.552-1.224
		c-1.45-3.264-3.733-5.833-6.651-7.866c-1.821-1.268-3.876-2.016-5.95-2.724c-0.408-0.512-0.815-1.023-1.221-1.538
		c-2.137-2.734-2.875-2.363-4.82,0.169c-0.249,0.25-0.574,0.453-0.595,0.921c0.51-0.09,0.64-0.47,0.86-0.753
		c0.43-0.461,0.843-0.943,1.293-1.384c0.566-0.556,1.208-0.6,1.765-0.02c0.702,0.733,1.342,1.526,2.057,2.343
		c-0.3,0.022-0.5,0.039-0.702,0.054l0.022,0.012c-0.028-0.152-0.078-0.104-0.133-0.014c-1.977,0.158-3.993-0.272-5.938,0.421
		c-0.955,0.342-1.935,0.608-2.903,0.907c-0.529,0.052-0.797,0.547-1.237,0.735c-2.12,0.901-3.785,2.376-5.231,4.116
		c-1.587,1.903-3.029,3.901-3.606,6.382c-0.804,0.758-0.55,1.94-1.145,2.835c-0.515-0.525-1.063-1.288-1.578-0.013
		c-0.074,0.118-0.211,0.234-0.214,0.353c-0.044,2.485-0.12,4.967-0.163,7.449c-0.032,1.933,0.79,2.327,2.326,1.499
		c0.851,2.301,1.613,4.609,3.071,6.67c1.838,2.596,4.007,4.712,6.877,6.095c-0.023,0.018-0.047,0.039-0.069,0.057
		c0.031,0.009,0.072,0.009,0.096,0.027c0.71,0.567,1.554,0.828,2.412,1.065c2.342,0.854,4.791,0.563,7.204,0.662
		c0.805-0.207,1.611-0.405,2.411-0.626c2.282-0.624,4.436-1.494,6.145-3.215c1.664-0.924,2.713-2.465,3.821-3.912
		c1.458-1.907,2.403-4.101,2.997-6.438c0.181-0.194,0.347-0.459,0.656-0.176"/>
	<path fill="#4B4B4B" d="M92.079,53.097c0.487,0.376,0.021,0.656-0.095,0.972c-0.185,0.287-0.414,0.567-0.164,0.933
		c-0.596,2.339-1.541,4.53-2.999,6.438c-1.106,1.448-2.155,2.99-3.821,3.914c0.593-2.318-0.013-4.07-2.566-4.746
		c-2.209-0.581-3.909-2.014-4.948-4.186c-0.659-1.377-0.956-2.87-1.611-4.253c-0.83-1.75-1.631-3.535-1.868-5.513
		c-0.044-0.379,0.13-0.712-0.045-1.163c-0.396-1.035-0.515-2.183-0.717-3.289c-0.584-3.207-1.605-6.189-3.92-8.634
		c-0.627-0.663-1.484-1.259-1.62-2.307c0.969-0.299,1.947-0.565,2.902-0.907c1.945-0.693,3.961-0.262,5.938-0.421
		c0.042,0.008,0.088,0.013,0.133,0.014l1.34,0.197c0.144,0.048-0.48,0.094,0,0c2.075,0.707,4.131,1.456,5.95,2.724
		c2.918,2.032,5.2,4.602,6.651,7.866c0.18,0.407,0.563,0.731,0.551,1.224c0.114,0.975,0.593,1.891,0.486,2.902
		c-0.623-0.044-1.241,0.023-1.628,0.557c-1.13,1.55-2.4,4.514-0.737,6.844C90.048,53.316,90.826,53.614,92.079,53.097z
		 M86.053,48.69c0.038-1.387,0.046-2.774-0.471-4.091c-0.735-1.881-2.228-3.023-3.975-3.845c-0.944-0.445-1.896-0.978-3.039-0.679
		c-1.441,0.376-2.107,1.503-2.65,2.707c-0.866,1.918-0.787,3.954-0.225,5.888c0.662,2.287,1.767,4.438,3.519,6.097
		c2.149,2.037,5.428,1.043,6.317-1.784C85.973,51.576,86.117,50.149,86.053,48.69z"/>
	<path fill="#8B8B8B" d="M67.705,31.261c0.137,1.048,0.993,1.644,1.621,2.307c2.314,2.445,3.334,5.428,3.919,8.634
		c0.201,1.106,0.321,2.254,0.717,3.29c0.175,0.451,0.001,0.784,0.046,1.162c0.237,1.978,1.037,3.764,1.867,5.514
		c0.657,1.383,0.954,2.877,1.611,4.252c1.039,2.172,2.74,3.604,4.948,4.187c2.554,0.675,3.16,2.428,2.567,4.745
		c-1.709,1.721-3.862,2.591-6.145,3.215c-0.799,0.221-1.605,0.419-2.412,0.625c0.231-1.31,0.737-2.573,0.642-3.943
		c-0.1-1.473-0.45-2.861-0.848-4.29c-0.554-1.984-1.213-4.047-0.86-6.192c0.153-0.943-0.224-1.198-1.081-0.893
		c0-0.237-0.004-0.475-0.004-0.711c0.796-0.066,0.703-0.462,0.45-1.037c-0.441-0.999-0.813-2.023-1.102-3.084
		c-0.804-2.992-1.784-5.902-4.175-8.081l-0.021-0.016c-1.238-1.113-2.725-1.687-4.324-2.023c-0.601,0-0.601,0-1.041,0
		c-0.383,0.068-0.758,0.158-1.142,0.2c-1.972,0.214-3.763,1.756-4.391,3.582c-0.703,2.053-0.51,4.23-1.061,6.311
		c-0.379,1.43-0.277,2.95-0.261,4.439c0.004,0.342,0.1,0.745-0.415,0.837l-0.016-0.017c-0.146-0.756-0.068-1.556-0.427-2.272
		c0.172-0.159,0.201-0.355,0.158-0.572c0-0.084,0.002-0.169,0.002-0.253c0.013-1.337,0.024-2.675,0.035-4.013
		c-0.234-0.239-0.055-0.396,0.112-0.555c0.316-1.372,0.633-2.742,0.95-4.114c0.577-2.481,2.02-4.479,3.606-6.382
		c1.446-1.739,3.112-3.215,5.231-4.116C66.908,31.808,67.176,31.313,67.705,31.261z"/>
	<path fill="#B5B5B5" d="M74.299,53.872c0.858-0.306,1.234-0.051,1.081,0.893c-0.352,2.146,0.307,4.209,0.861,6.192
		c0.396,1.429,0.746,2.817,0.847,4.29c0.095,1.37-0.41,2.634-0.64,3.943c-2.413-0.096-4.862,0.193-7.204-0.661
		c-0.675-0.679-1.527-0.977-2.44-1.147c-2.869-1.385-5.039-3.5-6.877-6.097c-1.458-2.06-2.219-4.368-3.069-6.67
		c-0.015-0.107-0.028-0.219-0.042-0.328c0.513-0.091,0.418-0.494,0.414-0.836c-0.016-1.488-0.119-3.011,0.261-4.44
		c0.551-2.079,0.356-4.257,1.061-6.31c0.628-1.827,2.42-3.368,4.391-3.583c0.383-0.041,0.76-0.132,1.142-0.2c0.529,0,0.451,0,1.04,0
		c1.601,0.336,3.088,0.91,4.324,2.02c-0.364-0.136-0.71-0.167-0.786,0.322c-0.033,0.202,0.121,0.417,0.365,0.422
		c0.537,0.012,0.482-0.367,0.441-0.726c2.391,2.179,3.373,5.089,4.176,8.081c0.288,1.062,0.66,2.085,1.101,3.084
		c0.254,0.575,0.348,0.971-0.449,1.037c-0.559-1.495-1.276-2.954-1.638-4.496c-0.771-3.262-2.854-5.146-5.897-6.192
		c-2.311-0.793-5.206,0.582-5.961,2.825c-0.622,1.843-0.685,3.73-0.992,5.598c-0.3,1.317-0.289,2.635-0.006,3.951
		c0.036,0.346,0.061,0.686,0.139,1.036c0.792,3.568,3.018,6.374,5.046,9.233c2.155,3.039,6.126,2.566,7.885-0.276
		c0.545-0.883,0.929-1.823,1.034-2.867c0.344-1.842,0.12-3.702,0.169-5.556C74.445,55.596,74.164,54.715,74.299,53.872z"/>
	<path fill="#8B8B8B" d="M92.079,53.097c-1.253,0.518-2.031,0.22-2.788-0.838c-1.662-2.329-0.392-5.293,0.737-6.843
		c0.389-0.534,1.006-0.602,1.629-0.557c-0.002,0-0.046,0.008-0.046,0.008c0.071,0.09,0.143,0.177,0.213,0.267
		c0.048,0.063,0.093,0.125,0.143,0.188c0.155,0.702,0.53,1.369,0.31,2.127c0.008,0.093,0.011,0.189,0.018,0.284
		c-0.005,0.082-0.012,0.164-0.016,0.245c0.221,1.395-0.119,2.806,0.148,4.195C92.194,52.438,92.133,52.767,92.079,53.097z"/>
	<path fill="#1D1D1D" d="M56.813,54.289c0.015,0.109,0.027,0.22,0.042,0.328c-1.537,0.828-2.359,0.434-2.326-1.499
		c0.044-2.483,0.12-4.965,0.163-7.449c0.003-0.119,0.139-0.235,0.214-0.353c0.116,0.009,0.23,0.024,0.346,0.033
		c-0.112,2.674-0.32,5.352-0.291,8.026c0.014,1.353,0.475,1.477,1.837,0.897L56.813,54.289z"/>
	<path fill="#1D1D1D" d="M92.475,54.825c0.085-0.063,0.172-0.124,0.256-0.188"/>
	<path fill="#333333" d="M78.018,30.144c-0.479,0.094-0.284,0.306-0.661-0.263c0.203-0.016-0.3,0.022,0,0
		c-0.714-0.817-1.354-1.61-2.057-2.342c-0.557-0.581-1.199-0.537-1.765,0.02c-0.451,0.441-0.863,0.921-1.293,1.383
		c-0.088-0.055-0.18-0.113-0.267-0.168c1.947-2.532,2.684-2.903,4.822-0.169C77.204,29.12,77.612,29.632,78.018,30.144z"/>
	<path fill="#333333" d="M55.252,45.349c-0.115-0.009-0.229-0.024-0.346-0.033c0.514-1.275,1.063-0.512,1.578,0.013
		c0.595-0.895,0.341-2.077,1.145-2.835c-0.317,1.372-0.634,2.743-0.95,4.115C56.464,45.674,55.85,45.133,55.252,45.349z"/>
	<path fill="#333333" d="M92.425,52.175c-0.267-1.391,0.07-2.8-0.149-4.196c0.796,0.994,0.284,2.126,0.283,3.189
		C92.559,51.469,92.518,51.845,92.425,52.175z"/>
	<path fill="#333333" d="M91.966,45.323c-0.05-0.064-0.094-0.125-0.143-0.189c0.003-0.15,0.027-0.312-0.213-0.267
		c0,0,0.043-0.008,0.046-0.008c0.106-1.012-0.372-1.927-0.486-2.902c0.268,0.621,0.562,1.229,0.787,1.865
		C92.126,44.306,92.271,44.822,91.966,45.323z"/>
	<path fill="#B5B5B5" d="M66.804,67.382c0.913,0.174,1.766,0.471,2.44,1.149c-0.858-0.235-1.702-0.498-2.413-1.065
		c-0.023-0.019-0.063-0.019-0.096-0.027C66.758,67.421,66.781,67.4,66.804,67.382z"/>
	<path fill="#333333" d="M92.7,45.356"/>
	<path fill="#1D1D1D" d="M91.82,55.001c-0.25-0.365-0.021-0.646,0.164-0.933c0.248,0.19,0.498,0.379,0.744,0.569
		c-0.083,0.063-0.17,0.124-0.255,0.188C92.168,54.542,92.002,54.807,91.82,55.001z"/>
	<path fill="#333333" d="M72.244,28.942c-0.222,0.283-0.687,1.124-1.196,1.214c0.021-0.468,0.681-1.131,0.929-1.382
		C72.064,28.829,72.156,28.886,72.244,28.942z"/>
	<path fill="#333333" d="M92.293,47.734c-0.009-0.094-0.011-0.191-0.018-0.284C92.493,47.533,92.416,47.633,92.293,47.734z"/>
	<path fill="#333333" d="M76.678,29.947c-0.044-0.001-0.091-0.006-0.133-0.014"/>
	<path fill="#1B1B1B" d="M86.053,48.688c0.066,1.46-0.08,2.889-0.521,4.295c-0.891,2.827-4.17,3.821-6.317,1.784
		c-1.753-1.658-2.856-3.81-3.52-6.097c-0.563-1.934-0.641-3.97,0.225-5.888c0.544-1.203,1.209-2.329,2.65-2.706
		c1.145-0.299,2.094,0.233,3.039,0.679c1.748,0.822,3.24,1.965,3.976,3.845C86.099,45.917,86.09,47.304,86.053,48.688z
		 M84.169,49.115c-0.04-2.143-0.778-3.725-2.608-4.666c-1.942-0.998-3.959,0.086-4.237,2.258c-0.223,1.754,0.336,3.28,1.375,4.653
		c1.078,1.424,2.45,1.82,4,1.003C84.033,51.657,84.083,50.274,84.169,49.115z"/>
	<path fill="#C7C7C7" d="M73.903,61.975c-0.105,1.043-0.488,1.985-1.033,2.866c-1.76,2.844-5.73,3.315-7.886,0.276
		c-2.028-2.858-4.254-5.663-5.046-9.232c-0.077-0.351-0.103-0.69-0.138-1.033c0.002-1.318,0.005-2.634,0.006-3.955
		c0.308-1.866,0.369-3.754,0.991-5.597c0.756-2.243,3.65-3.619,5.961-2.825c3.045,1.045,5.125,2.93,5.896,6.192
		c0.363,1.543,1.08,3.001,1.639,4.495c0,0.237,0.004,0.475,0.004,0.712c-0.134,0.843,0.146,1.724-0.227,2.545
		c-0.244,0.221-0.187,0.519-0.187,0.796C73.886,58.798,73.896,60.386,73.903,61.975z M67.929,45.008
		c-0.026-0.063-0.033-0.164-0.081-0.191c-2.009-1.126-4.503-0.614-5.708,1.758c-0.479,0.938-0.634,1.949-0.784,2.958
		c-0.3,1.996-0.258,3.928,0.291,5.95c0.736,2.702,2.674,4.472,4.438,6.277c2.222,2.282,4.531,1.746,5.852-0.841
		c1.117-2.181,1.229-4.649,1.226-7.017c-0.004-2.223-0.862-4.354-1.832-6.363c-0.61-1.27-1.499-2.32-3.07-2.441
		C68.148,45.069,68.038,45.041,67.929,45.008z"/>
	<path fill="#FCFCFC" d="M55.252,45.349c0.598-0.216,1.212,0.325,1.427,1.258c-0.168,0.159-0.347,0.316-0.112,0.555
		c-0.795,1.234-0.394,2.563-0.297,3.865c0.006,0.057,0.172,0.099,0.262,0.149c0,0.082-0.002,0.167-0.002,0.251
		c-0.266,0.131-0.206,0.353-0.158,0.573c0.358,0.716,0.28,1.517,0.427,2.272c-1.362,0.579-1.823,0.455-1.837-0.897
		C54.933,50.7,55.14,48.023,55.252,45.349z"/>
	<path fill="#BFBFBF" d="M56.531,51.175c-0.09-0.049-0.256-0.091-0.262-0.147c-0.098-1.303-0.498-2.632,0.297-3.865
		C56.556,48.5,56.544,49.838,56.531,51.175z"/>
	<path fill="#B5B5B5" d="M69.468,40.96c0.041,0.358,0.096,0.736-0.441,0.726c-0.244-0.005-0.398-0.221-0.365-0.422
		c0.076-0.489,0.422-0.458,0.786-0.322C69.447,40.943,69.468,40.96,69.468,40.96z"/>
	<path fill="#BFBFBF" d="M56.372,52c-0.048-0.22-0.107-0.441,0.158-0.572C56.571,51.645,56.543,51.841,56.372,52z"/>
	<path fill="#C2C2C2" d="M73.903,61.975c-0.008-1.589-0.018-3.175-0.018-4.762c0-0.277-0.058-0.575,0.188-0.796
		C74.024,58.272,74.248,60.133,73.903,61.975z"/>
	<path fill="#C2C2C2" d="M59.807,50.896c0,1.32-0.002,2.637-0.006,3.954C59.518,53.53,59.506,52.214,59.807,50.896z"/>
	<path fill="#4B4B4B" d="M91.61,44.867c0.24-0.045,0.216,0.116,0.213,0.267C91.752,45.044,91.682,44.957,91.61,44.867z"/>
	<path fill="#101010" d="M84.169,49.115c-0.086,1.159-0.136,2.542-1.472,3.248c-1.55,0.816-2.923,0.421-4-1.003
		c-1.04-1.373-1.598-2.898-1.376-4.653c0.278-2.172,2.296-3.255,4.236-2.258C83.389,45.391,84.129,46.973,84.169,49.115z"/>
	<path fill="#DBDBDB" d="M68.259,45.099c1.57,0.121,2.46,1.171,3.07,2.441c0.969,2.011,1.827,4.141,1.832,6.363
		c0.003,2.367-0.109,4.836-1.226,7.017c-1.322,2.587-3.63,3.122-5.854,0.841c-1.763-1.806-3.7-3.575-4.436-6.277
		c-0.55-2.022-0.591-3.954-0.292-5.95c0.15-1.01,0.305-2.021,0.784-2.958c1.206-2.372,3.699-2.884,5.709-1.758
		c0.048,0.027,0.055,0.127,0.081,0.191c-0.594-0.021-0.434,0.424-0.468,0.75c-1.154-0.334-2.33-0.538-3.28,0.417
		c-1.205,1.206-1.9,2.682-2.023,4.409c-0.256,3.619,1.14,6.529,3.795,8.91c2.026,1.817,4.078,1.423,5.155-0.483
		c0.229-0.405,0.293-0.861,0.459-1.283c0.598-1.521,1.068-3.126,0.769-4.755c-0.278-1.532-0.763-3.04-1.305-4.507
		c-0.366-0.991-0.939-1.926-2.178-2.11c-0.314-0.046-0.61-0.18-0.797-0.472C68.253,45.656,68.375,45.407,68.259,45.099z"/>
	<path fill="#DBDBDB" d="M68.259,45.099c0.116,0.309-0.006,0.557-0.204,0.783c-0.2-0.032-0.438,0.127-0.594-0.125
		c0.034-0.326-0.126-0.771,0.468-0.75C68.038,45.041,68.148,45.069,68.259,45.099z"/>
	<path fill="#B2B2B2" d="M67.462,45.757c0.308,0.081,0.393,0.093,0.594,0.125c0.187,0.293,0.482,0.427,0.797,0.473
		c1.238,0.185,1.812,1.122,2.178,2.111c0.542,1.466,1.026,2.975,1.305,4.506c0.3,1.629-0.171,3.233-0.769,4.756
		c-0.166,0.421-0.229,0.878-0.459,1.283c-1.077,1.906-3.129,2.301-5.155,0.483c-2.654-2.382-4.051-5.291-3.795-8.91
		c0.123-1.728,0.818-3.203,2.023-4.409C65.132,45.22,66.308,45.423,67.462,45.757z M71.278,53.297
		c0.167-1.536-0.214-2.914-0.819-4.255c-0.708-1.568-2.572-2.625-4.336-2.402c-1.291,0.16-2.633,1.578-2.851,3.195
		c-0.472,3.471,0.665,6.277,3.548,8.37c1.391,1.007,3.267,0.537,3.8-1.233C70.986,55.753,71.509,54.57,71.278,53.297z"/>
	<path fill="#717171" d="M71.278,53.297c0.229,1.272-0.292,2.456-0.659,3.674c-0.533,1.771-2.41,2.24-3.8,1.233
		c-2.882-2.093-4.02-4.899-3.547-8.369c0.218-1.618,1.56-3.036,2.85-3.196c1.764-0.223,3.628,0.833,4.336,2.403
		C71.064,50.384,71.445,51.761,71.278,53.297z M70.25,52.084c0.074-1.236-0.184-2.308-0.9-3.258
		c-0.774-1.03-1.864-1.318-3.021-1.123c-0.984,0.168-1.553,0.89-1.971,1.861c-0.854,1.975,0.433,4.963,1.931,6.287
		c1.728,1.526,3.224,0.78,3.685-1.323C70.15,53.717,70.392,52.876,70.25,52.084z"/>
	<path fill="#444444" d="M70.25,52.084c0.142,0.792-0.1,1.633-0.276,2.444c-0.461,2.104-1.957,2.85-3.685,1.323
		c-1.498-1.324-2.784-4.313-1.931-6.287c0.418-0.972,0.986-1.693,1.971-1.861c1.156-0.195,2.246,0.093,3.021,1.123
		C70.066,49.776,70.324,50.848,70.25,52.084z M65.352,50.992c-0.104,0.726,0.092,1.408,0.446,2.03
		c0.512,0.896,1.285,1.362,2.343,1.108c0.793-0.189,0.818-0.938,1.064-1.548c0.332-0.824,0.13-1.624-0.079-2.381
		c-0.206-0.736-0.617-1.47-1.491-1.648c-0.709-0.148-1.316,0.072-1.807,0.64C65.373,49.724,65.281,50.325,65.352,50.992z"/>
	<path fill="#272727" d="M65.352,50.992c-0.07-0.667,0.021-1.269,0.478-1.798c0.489-0.567,1.098-0.789,1.806-0.64
		c0.874,0.179,1.285,0.912,1.492,1.647c0.21,0.759,0.41,1.558,0.079,2.381c-0.246,0.61-0.271,1.359-1.064,1.549
		c-1.058,0.254-1.831-0.213-2.343-1.109C65.443,52.4,65.247,51.718,65.352,50.992z"/>
	<path fill="#FCFCFC" d="M92.229,54.617c1.535,0.828,2.359,0.434,2.325-1.499c-0.044-2.483-0.121-4.965-0.163-7.449
		c-0.003-0.119-0.139-0.235-0.214-0.353c-0.514-1.275-1.063-0.512-1.579,0.013"/>
	<path fill="#1D1D1D" d="M92.229,54.617c1.535,0.828,2.359,0.434,2.325-1.499c-0.044-2.483-0.121-4.965-0.163-7.449
		c-0.003-0.119-0.139-0.235-0.214-0.353c-0.115,0.009-0.229,0.024-0.344,0.033c0.111,2.674,0.319,5.352,0.291,8.026
		c-0.014,1.353-0.476,1.477-1.839,0.897"/>
	<path fill="#333333" d="M92.405,46.607c0.216-0.934,0.83-1.476,1.429-1.259c0.115-0.01,0.229-0.024,0.344-0.033
		c-0.514-1.275-1.063-0.512-1.579,0.013"/>
	<path fill="#FCFCFC" d="M92.286,54.272c1.363,0.579,1.824,0.455,1.839-0.897c0.028-2.674-0.18-5.352-0.291-8.026
		c-0.599-0.216-1.213,0.325-1.429,1.258"/>
</g>
<g>
	<path d="M23.134,71.77h8.691l-0.528,2.706h-5.5l-0.682,3.477h5.171l-0.528,2.685h-5.149L23.486,86.6h-3.168L23.134,71.77z"/>
	<path d="M34.31,72.012c1.056-0.198,2.42-0.353,3.895-0.353c1.54,0,2.685,0.198,3.675,0.792c0.99,0.507,1.716,1.452,1.716,2.707
		c0,1.87-1.386,3.059-2.992,3.521v0.065c1.43,0.44,2.332,1.606,2.332,3.234c0,1.585-0.858,2.751-2.024,3.521
		c-1.254,0.837-3.125,1.188-5.589,1.188c-1.672,0-3.015-0.11-3.741-0.264L34.31,72.012z M35.102,84.157
		c0.374,0.044,0.748,0.066,1.21,0.066c1.716,0,3.278-0.683,3.278-2.333c0-1.474-1.232-1.914-2.707-1.914h-0.99L35.102,84.157z
		 M36.378,77.666h1.056c1.738,0,2.926-0.748,2.926-2.002c0-1.078-0.88-1.54-2.09-1.54c-0.55,0-0.99,0.044-1.232,0.109L36.378,77.666
		z"/>
	<path d="M55.497,86.182c-0.792,0.352-2.134,0.638-3.916,0.638c-3.917,0-6.558-2.376-6.558-6.293c0-3.322,1.496-5.919,3.741-7.415
		c1.54-1.078,3.366-1.584,5.456-1.584c1.606,0,2.816,0.374,3.234,0.639l-0.857,2.574c-0.44-0.221-1.408-0.484-2.685-0.484
		s-2.486,0.396-3.389,1.145c-1.254,1.012-2.046,2.706-2.046,4.774c0,2.354,1.321,3.938,3.939,3.938c1.034,0,2.068-0.176,2.816-0.484
		L55.497,86.182z"/>
	<path d="M57.827,83.167c0.881,0.528,2.135,0.946,3.499,0.946c1.231,0,2.354-0.572,2.354-1.738c0-0.836-0.639-1.386-2.003-2.09
		c-1.584-0.858-3.08-2.003-3.08-3.939c0-2.992,2.618-4.818,5.853-4.818c1.805,0,2.86,0.396,3.499,0.748l-0.99,2.641
		c-0.484-0.264-1.54-0.683-2.772-0.66c-1.475,0-2.244,0.748-2.244,1.563c0,0.857,0.901,1.386,2.156,2.09
		c1.804,0.946,2.948,2.156,2.948,3.917c0,3.3-2.729,4.994-6.029,4.994c-2.068,0-3.542-0.527-4.246-1.056L57.827,83.167z"/>
	<path d="M71.16,72.056c0.945-0.242,2.441-0.396,3.872-0.396c1.32,0,2.86,0.221,3.938,0.99c0.99,0.683,1.606,1.717,1.606,3.146
		c0,1.87-0.858,3.278-2.024,4.181c-1.21,0.946-2.927,1.364-4.73,1.364c-0.528,0-0.969-0.044-1.299-0.088L71.512,86.6h-3.103
		L71.16,72.056z M73.008,78.679c0.33,0.065,0.683,0.109,1.21,0.109c1.915,0,3.169-1.231,3.169-2.706c0-1.43-1.034-1.893-2.267-1.893
		c-0.594,0-1.012,0.044-1.276,0.11L73.008,78.679z"/>
</g>
</svg>
