<?xml version="1.0" encoding="utf-8"?>
<!-- Generator: Adobe Illustrator 16.0.3, SVG Export Plug-In . SVG Version: 6.00 Build 0)  -->
<!DOCTYPE svg PUBLIC "-//W3C//DTD SVG 1.1//EN" "http://www.w3.org/Graphics/SVG/1.1/DTD/svg11.dtd">
<svg version="1.1" id="Layer_1" xmlns="http://www.w3.org/2000/svg" xmlns:xlink="http://www.w3.org/1999/xlink" x="0px" y="0px"
	 width="96px" height="96px" viewBox="0 0 96 96" enable-background="new 0 0 96 96" xml:space="preserve">
<circle fill="none" cx="48" cy="47.8" r="48"/>
<path fill="#CCCCCC" d="M6.644,36.011c0.287,1.221,1.083,3.618,1.457,4.571c0.518,1.325,1.199,4.885,2.607,5.211
	c0.498,0.116,1.428-0.643,1.772-1.024c0.608-0.672,1.042-3.874,1.945-3.901c0.892-0.028,1.169,2.053,1.517,3.083
	c0.304,0.904,1.325,2.91,1.725,3.693c0.498,0.976,1.462,2.986,1.987,3.96c0.373,0.69,1.181,2.03,1.687,2.643
	c0.397,0.484,1.155,1.524,1.584,1.981c0.459,0.492,1.288,1.84,1.96,1.811c0.626-0.026,1.245-1.477,1.647-1.96
	c0.442-0.529,1.255-1.498,1.936-1.515c0.573-0.014,1.433,0.912,1.872,1.281c0.449,0.377,1.249,1.234,1.69,1.615
	c0.444,0.385,1.232,1.279,1.636,1.701c0.493,0.516,1.364,1.674,1.891,2.154c0.913,0.832,2.647,0.832,2.647,0.832l-32.06,0.098
	L6.644,36.011z"/>
<g>
	<path fill="#8E8E8E" d="M5.938,63.718c-0.351,0-0.635-0.284-0.635-0.635V28.987c0-0.351,0.284-0.635,0.635-0.635
		s0.635,0.285,0.635,0.635v34.096C6.573,63.434,6.289,63.718,5.938,63.718z"/>
</g>
<g>
	<path d="M12.494,64.368h3.741l-0.228,1.166H13.64l-0.294,1.496h2.226l-0.229,1.155h-2.216l-0.482,2.567H11.28L12.494,64.368z"/>
</g>
<g>
	<path fill="#8E8E8E" d="M39.274,63.419H5.938c-0.351,0-0.635-0.284-0.635-0.635c0-0.352,0.284-0.635,0.635-0.635h33.336
		c0.352,0,0.635,0.283,0.635,0.635C39.91,63.135,39.626,63.419,39.274,63.419z"/>
</g>
<path fill="none" stroke="#000000" stroke-width="1.5781" stroke-linecap="round" stroke-miterlimit="10" d="M7.201,36.11
	c0.287,1.221,0.88,3.138,1.255,4.091c0.518,1.323,0.882,4.851,2.29,5.176c0.498,0.116,1.428-0.643,1.772-1.023
	c0.609-0.671,1.042-3.872,1.945-3.899c0.892-0.028,1.169,2.052,1.517,3.082c0.304,0.903,1.325,2.908,1.725,3.694
	c0.498,0.976,1.462,2.988,1.988,3.963c0.372,0.689,1.182,2.028,1.686,2.643c0.397,0.482,1.156,1.521,1.584,1.98
	c0.459,0.49,1.289,1.839,1.959,1.811c0.627-0.027,1.246-1.479,1.648-1.961c0.442-0.529,1.255-1.499,1.936-1.514
	c0.573-0.014,1.433,0.91,1.872,1.281c0.449,0.377,1.248,1.233,1.69,1.614c0.444,0.384,1.233,1.28,1.637,1.702
	c0.493,0.514,1.363,1.674,1.89,2.152c0.914,0.833,2.648,0.833,2.648,0.833"/>
<path fill="#CCCCCC" d="M90.073,62.045l-32.06-0.098c0,0,1.734,0,2.648-0.832c0.525-0.48,1.396-1.639,1.891-2.154
	c0.404-0.422,1.191-1.316,1.635-1.701c0.443-0.381,1.242-1.238,1.691-1.615c0.438-0.369,1.299-1.295,1.871-1.281
	c0.682,0.017,1.494,0.985,1.936,1.515c0.402,0.483,1.13,0.541,1.757,0.567c0.671,0.029,1.392,0.074,1.851-0.418
	c0.429-0.457,1.188-1.497,1.584-1.981c0.506-0.612,1.276-4.076,1.648-4.767c0.525-0.976,1.527-0.861,2.025-1.837
	c0.4-0.783,1.421-2.789,1.725-3.691c0.348-1.03,0.67-4.353,1.563-4.324c0.902,0.028,1.291,4.471,1.899,5.141
	c0.345,0.381,1.274,1.14,1.772,1.024c1.408-0.326,2.09-3.883,2.607-5.208c0.373-0.952,1.17-3.35,1.457-4.571L90.073,62.045z"/>
<g>
	<path fill="#8E8E8E" d="M89.869,62.042V27.959c0-0.35,0.284-0.635,0.635-0.635s0.635,0.284,0.635,0.635v34.083
		c0,0.351-0.284,0.635-0.635,0.635S89.869,62.393,89.869,62.042z"/>
</g>
<g>
	<path fill="#8E8E8E" d="M56.309,62.583c0-0.352,0.283-0.635,0.635-0.635h33.336c0.351,0,0.635,0.283,0.635,0.635
		c0,0.351-0.284,0.635-0.635,0.635H56.943C56.592,63.218,56.309,62.934,56.309,62.583z"/>
</g>
<path fill="none" stroke="#000000" stroke-width="1.5781" stroke-linecap="round" stroke-miterlimit="10" d="M57.975,61.534
	c0,0,1.734,0,2.648-0.833c0.527-0.479,1.396-1.639,1.891-2.152c0.402-0.422,1.191-1.318,1.637-1.702
	c0.441-0.381,1.24-1.237,1.689-1.614c0.438-0.371,1.301-0.488,1.873-0.475c0.682,0.015,1.492,0.178,1.934,0.707
	c0.941,0.293,1.252,0.453,1.879,0.48c0.671,0.028,1.27,0.16,1.729-0.33c0.429-0.459,1.188-1.498,1.584-1.98
	c0.563-1.377,1.315-4.666,1.688-5.357c0.525-0.98,1.488-0.274,1.986-1.25c0.4-0.786,1.422-2.789,1.726-3.691
	c0.347-1.03,0.563-5.188,1.455-5.16c0.903,0.027,1.397,5.307,2.007,5.978c0.344,0.379,1.274,1.137,1.771,1.021
	c1.408-0.326,1.772-3.851,2.291-5.174c0.374-0.952,0.967-2.869,1.254-4.09"/>
<path d="M82.803,35.062v-7.126l2.011,2.017l1.591-1.589l-4.721-4.741l-4.723,4.741l1.592,1.589l2.011-2.016v7.125"/>
<path d="M16.048,35.062v-7.126l2.011,2.017l1.591-1.589l-4.721-4.741l-4.723,4.741l1.592,1.589l2.011-2.016v7.125"/>
<g>
	<path d="M82.867,64.368h3.741l-0.229,1.166h-2.367l-0.294,1.496h2.226l-0.229,1.155H83.5l-0.482,2.567h-1.364L82.867,64.368z"/>
</g>
<path fill="#FFFFFF" stroke="#000000" stroke-width="2.378" stroke-miterlimit="10" d="M12.25,18.61h11.437
	c0,0,6.728,0.369,8.619-0.662c1.823-0.995,4.887-6.518,7.459-6.432c2.572,0.086,5.253,7.154,7.458,7.094
	c4.807-0.132,6.571,8.072,9.779,8.486c2.07,0.268,4.645-3.848,6.133-5.668c1.778-2.176,1.831-13.792,4.641-13.724
	c2.538,0.062,2.333,11.236,4.476,12.597c1.61,1.022,7.624,0.132,7.624,0.132"/>
<g>
	<path fill="#4B4B4B" d="M41.523,78.962c0.293,0.226,0.012,0.394-0.057,0.583c-0.111,0.174-0.25,0.342-0.099,0.563
		c-0.359,1.408-0.928,2.728-1.806,3.875c-0.665,0.873-1.296,1.801-2.299,2.357c0.357-1.396-0.008-2.45-1.545-2.857
		c-1.33-0.35-2.353-1.213-2.978-2.521c-0.397-0.829-0.576-1.728-0.97-2.56c-0.5-1.054-0.982-2.129-1.125-3.319
		c-0.026-0.228,0.078-0.429-0.027-0.7c-0.238-0.623-0.31-1.313-0.431-1.979c-0.352-1.931-0.966-3.726-2.36-5.198
		c-0.377-0.398-0.894-0.758-0.975-1.388c0.583-0.181,1.172-0.341,1.747-0.547c1.171-0.417,2.385-0.157,3.575-0.252
		c0.025,0.004,0.053,0.007,0.08,0.008l0.807,0.118c0.087,0.028-0.289,0.057,0,0c1.25,0.426,2.487,0.876,3.582,1.64
		c1.757,1.224,3.13,2.771,4.004,4.735c0.108,0.244,0.338,0.44,0.331,0.737c0.069,0.587,0.358,1.139,0.293,1.746
		c-0.375-0.026-0.748,0.014-0.98,0.336c-0.68,0.934-1.444,2.718-0.443,4.12C40.3,79.093,40.769,79.272,41.523,78.962z
		 M37.895,76.308c0.023-0.835,0.028-1.669-0.284-2.463c-0.442-1.132-1.341-1.819-2.393-2.314c-0.568-0.269-1.142-0.589-1.829-0.408
		c-0.868,0.226-1.269,0.904-1.596,1.629c-0.521,1.154-0.474,2.381-0.135,3.545c0.399,1.377,1.063,2.671,2.118,3.671
		c1.294,1.227,3.268,0.628,3.803-1.075C37.847,78.046,37.934,77.187,37.895,76.308z"/>
	<path fill="#8B8B8B" d="M26.85,65.815c0.082,0.631,0.598,0.99,0.976,1.39c1.394,1.472,2.007,3.267,2.359,5.197
		c0.121,0.666,0.193,1.356,0.431,1.98c0.105,0.271,0.001,0.472,0.028,0.699c0.143,1.19,0.625,2.266,1.124,3.319
		c0.396,0.832,0.574,1.731,0.97,2.561c0.625,1.307,1.649,2.169,2.978,2.521c1.538,0.405,1.902,1.461,1.546,2.855
		c-1.029,1.037-2.325,1.56-3.7,1.936c-0.481,0.133-0.966,0.253-1.452,0.376c0.139-0.788,0.444-1.549,0.387-2.373
		c-0.06-0.887-0.271-1.722-0.51-2.583c-0.334-1.194-0.73-2.436-0.518-3.727c0.092-0.568-0.135-0.723-0.65-0.538
		c0-0.143-0.002-0.286-0.002-0.428c0.479-0.039,0.423-0.278,0.271-0.625c-0.266-0.601-0.49-1.218-0.664-1.856
		c-0.484-1.801-1.073-3.553-2.513-4.864l-0.012-0.01c-0.746-0.671-1.64-1.016-2.603-1.219c-0.362,0-0.362,0-0.627,0
		c-0.23,0.042-0.456,0.096-0.688,0.121c-1.187,0.129-2.266,1.057-2.643,2.156c-0.423,1.236-0.307,2.547-0.639,3.8
		c-0.229,0.86-0.167,1.775-0.158,2.672c0.002,0.206,0.061,0.449-0.25,0.504l-0.01-0.011c-0.087-0.455-0.04-0.937-0.257-1.367
		c0.104-0.096,0.121-0.215,0.096-0.345c0-0.051,0-0.102,0-0.151c0.008-0.806,0.015-1.611,0.021-2.417
		c-0.141-0.144-0.034-0.238,0.067-0.333c0.19-0.827,0.381-1.651,0.572-2.478c0.347-1.493,1.216-2.696,2.171-3.841
		c0.87-1.048,1.873-1.936,3.149-2.479C26.37,66.146,26.531,65.847,26.85,65.815z"/>
	<path fill="#B5B5B5" d="M30.819,79.428c0.517-0.185,0.744-0.031,0.651,0.538c-0.212,1.291,0.186,2.533,0.519,3.727
		c0.238,0.86,0.449,1.695,0.51,2.582c0.058,0.825-0.247,1.586-0.385,2.374c-1.453-0.058-2.927,0.116-4.336-0.397
		c-0.407-0.409-0.919-0.589-1.469-0.69c-1.727-0.834-3.033-2.107-4.14-3.671c-0.878-1.239-1.336-2.629-1.848-4.015
		c-0.008-0.064-0.016-0.132-0.024-0.198c0.309-0.055,0.251-0.297,0.25-0.503c-0.01-0.896-0.072-1.813,0.157-2.673
		c0.332-1.252,0.214-2.563,0.639-3.798c0.377-1.101,1.457-2.028,2.643-2.157c0.231-0.024,0.458-0.079,0.688-0.12
		c0.318,0,0.272,0,0.626,0c0.964,0.202,1.858,0.548,2.603,1.215c-0.22-0.082-0.428-0.1-0.474,0.194
		c-0.02,0.121,0.073,0.251,0.22,0.254c0.323,0.007,0.29-0.221,0.266-0.437c1.439,1.312,2.03,3.063,2.514,4.864
		c0.174,0.641,0.397,1.255,0.663,1.856c0.153,0.347,0.209,0.584-0.27,0.624c-0.337-0.899-0.768-1.778-0.986-2.706
		c-0.464-1.964-1.718-3.099-3.55-3.728c-1.391-0.478-3.134,0.351-3.589,1.7c-0.374,1.11-0.412,2.246-0.597,3.37
		c-0.181,0.793-0.174,1.586-0.003,2.378c0.021,0.209,0.036,0.414,0.083,0.624c0.478,2.148,1.817,3.838,3.039,5.559
		c1.296,1.829,3.687,1.545,4.747-0.166c0.328-0.532,0.559-1.098,0.623-1.727c0.207-1.108,0.072-2.229,0.102-3.345
		C30.907,80.465,30.738,79.935,30.819,79.428z"/>
	<path fill="#8B8B8B" d="M41.523,78.962c-0.754,0.311-1.223,0.131-1.679-0.506c-1-1.402-0.236-3.187,0.443-4.119
		c0.234-0.321,0.606-0.361,0.981-0.335c-0.001,0-0.027,0.004-0.027,0.004c0.042,0.055,0.085,0.107,0.127,0.161
		c0.029,0.038,0.056,0.075,0.086,0.113c0.094,0.423,0.32,0.824,0.188,1.28c0.005,0.057,0.006,0.114,0.01,0.171
		c-0.002,0.049-0.007,0.099-0.009,0.148c0.133,0.84-0.071,1.689,0.089,2.524C41.592,78.564,41.556,78.763,41.523,78.962z"/>
	<path fill="#1D1D1D" d="M41.761,80.002c0.052-0.039,0.104-0.075,0.155-0.114"/>
	<path fill="#333333" d="M41.73,78.405c-0.16-0.836,0.043-1.686-0.09-2.525c0.48,0.599,0.172,1.28,0.171,1.92
		C41.812,77.981,41.786,78.207,41.73,78.405z"/>
	<path fill="#333333" d="M41.454,74.281c-0.029-0.039-0.056-0.075-0.085-0.114c0.002-0.09,0.016-0.188-0.129-0.161
		c0,0,0.026-0.004,0.028-0.004c0.063-0.609-0.224-1.161-0.293-1.747c0.162,0.373,0.338,0.739,0.474,1.122
		C41.551,73.669,41.639,73.979,41.454,74.281z"/>
	<path fill="#333333" d="M41.896,74.301"/>
	<path fill="#1D1D1D" d="M41.367,80.107c-0.15-0.221-0.012-0.389,0.099-0.563"/>
	<path fill="#333333" d="M41.651,75.732c-0.006-0.057-0.006-0.115-0.011-0.171C41.771,75.611,41.726,75.672,41.651,75.732z"/>
	<path fill="#333333" d="M32.251,65.024c-0.026-0.001-0.055-0.003-0.08-0.008"/>
	<path fill="#1B1B1B" d="M37.895,76.307c0.04,0.88-0.048,1.739-0.313,2.585c-0.537,1.703-2.511,2.302-3.803,1.075
		c-1.055-0.999-1.719-2.294-2.119-3.671c-0.339-1.164-0.386-2.391,0.135-3.545c0.328-0.724,0.728-1.401,1.596-1.629
		c0.689-0.18,1.261,0.14,1.83,0.409c1.052,0.494,1.951,1.183,2.393,2.313C37.923,74.639,37.917,75.474,37.895,76.307z
		 M36.761,76.563c-0.024-1.29-0.469-2.241-1.57-2.809c-1.169-0.601-2.384,0.052-2.55,1.359c-0.134,1.056,0.202,1.974,0.828,2.801
		c0.649,0.857,1.474,1.096,2.408,0.604C36.679,78.094,36.709,77.262,36.761,76.563z"/>
	<path fill="#C7C7C7" d="M30.581,84.305c-0.063,0.628-0.293,1.196-0.622,1.726c-1.06,1.712-3.449,1.996-4.747,0.167
		c-1.221-1.722-2.561-3.41-3.038-5.558c-0.046-0.211-0.062-0.416-0.083-0.623c0.001-0.793,0.003-1.585,0.004-2.381
		c0.184-1.122,0.221-2.259,0.596-3.369c0.455-1.351,2.197-2.178,3.588-1.7c1.833,0.629,3.085,1.764,3.549,3.728
		c0.219,0.929,0.65,1.807,0.987,2.706c0,0.143,0.002,0.286,0.002,0.429c-0.081,0.508,0.088,1.037-0.137,1.532
		c-0.147,0.133-0.113,0.313-0.113,0.479C30.571,82.393,30.577,83.349,30.581,84.305z M26.985,74.091
		c-0.016-0.037-0.02-0.099-0.049-0.115c-1.209-0.677-2.71-0.369-3.435,1.06c-0.289,0.564-0.382,1.172-0.473,1.78
		c-0.18,1.201-0.155,2.364,0.175,3.581c0.443,1.627,1.61,2.692,2.672,3.779c1.337,1.374,2.728,1.051,3.523-0.506
		c0.672-1.313,0.74-2.799,0.737-4.225c-0.002-1.338-0.519-2.621-1.103-3.831c-0.368-0.764-0.903-1.396-1.848-1.469
		C27.117,74.128,27.05,74.111,26.985,74.091z"/>
	<path fill="#BFBFBF" d="M20.123,77.804c-0.054-0.029-0.154-0.055-0.157-0.089c-0.059-0.784-0.3-1.583,0.179-2.326
		C20.139,76.193,20.131,76.999,20.123,77.804z"/>
	<path fill="#B5B5B5" d="M27.911,71.654c0.024,0.216,0.058,0.442-0.265,0.437c-0.147-0.002-0.24-0.132-0.22-0.254
		c0.046-0.294,0.254-0.274,0.473-0.193C27.898,71.645,27.911,71.654,27.911,71.654z"/>
	<path fill="#BFBFBF" d="M20.027,78.301c-0.029-0.133-0.064-0.266,0.095-0.345C20.147,78.087,20.13,78.204,20.027,78.301z"/>
	<path fill="#C2C2C2" d="M30.581,84.305c-0.005-0.956-0.011-1.91-0.011-2.866c0-0.167-0.035-0.346,0.113-0.479
		C30.653,82.076,30.789,83.196,30.581,84.305z"/>
	<path fill="#C2C2C2" d="M22.095,77.636c0,0.795-0.001,1.587-0.004,2.381C21.921,79.222,21.914,78.429,22.095,77.636z"/>
	<path fill="#4B4B4B" d="M41.24,74.006c0.145-0.026,0.131,0.07,0.129,0.161C41.326,74.113,41.283,74.061,41.24,74.006z"/>
	<path fill="#101010" d="M36.761,76.563c-0.052,0.698-0.082,1.53-0.886,1.955c-0.934,0.492-1.76,0.254-2.408-0.604
		c-0.626-0.827-0.962-1.744-0.83-2.801c0.169-1.308,1.383-1.959,2.551-1.359C36.292,74.322,36.737,75.273,36.761,76.563z"/>
	<path fill="#DBDBDB" d="M27.183,74.146c0.945,0.072,1.481,0.704,1.849,1.469c0.583,1.211,1.1,2.493,1.103,3.83
		c0.002,1.426-0.066,2.912-0.738,4.226c-0.796,1.557-2.186,1.879-3.524,0.506c-1.061-1.088-2.228-2.153-2.671-3.778
		c-0.33-1.218-0.355-2.381-0.175-3.583c0.09-0.608,0.184-1.216,0.472-1.779c0.726-1.429,2.227-1.737,3.437-1.06
		c0.029,0.017,0.033,0.077,0.049,0.115c-0.357-0.012-0.261,0.256-0.282,0.451c-0.695-0.2-1.402-0.323-1.974,0.252
		c-0.726,0.726-1.144,1.613-1.218,2.653c-0.154,2.179,0.686,3.931,2.285,5.364c1.219,1.095,2.455,0.856,3.103-0.291
		c0.138-0.243,0.176-0.519,0.276-0.772c0.361-0.915,0.643-1.882,0.463-2.862c-0.167-0.923-0.459-1.83-0.786-2.714
		c-0.22-0.596-0.565-1.158-1.311-1.27c-0.189-0.028-0.368-0.108-0.48-0.284C27.18,74.481,27.253,74.332,27.183,74.146z"/>
	<path fill="#DBDBDB" d="M27.183,74.146c0.07,0.186-0.003,0.335-0.123,0.471c-0.12-0.019-0.263,0.077-0.357-0.075
		c0.021-0.195-0.076-0.464,0.282-0.451C27.05,74.111,27.117,74.128,27.183,74.146z"/>
	<path fill="#B2B2B2" d="M26.704,74.542c0.185,0.049,0.237,0.057,0.358,0.075c0.112,0.177,0.29,0.258,0.48,0.285
		c0.745,0.111,1.09,0.675,1.311,1.271c0.326,0.883,0.617,1.791,0.786,2.713c0.181,0.98-0.103,1.945-0.463,2.863
		c-0.1,0.253-0.137,0.528-0.276,0.771c-0.648,1.147-1.884,1.387-3.103,0.291c-1.598-1.434-2.438-3.185-2.284-5.363
		c0.074-1.04,0.492-1.929,1.218-2.654C25.301,74.219,26.009,74.341,26.704,74.542z M29,79.081c0.101-0.925-0.128-1.754-0.493-2.562
		c-0.426-0.943-1.549-1.58-2.61-1.445c-0.777,0.096-1.585,0.949-1.716,1.923c-0.284,2.09,0.4,3.778,2.136,5.039
		c0.837,0.605,1.966,0.323,2.287-0.742C28.825,80.56,29.14,79.848,29,79.081z"/>
	<path fill="#717171" d="M29,79.081c0.138,0.766-0.175,1.479-0.396,2.212c-0.321,1.066-1.451,1.348-2.288,0.742
		c-1.734-1.26-2.419-2.949-2.135-5.038c0.131-0.975,0.939-1.827,1.716-1.924c1.062-0.134,2.184,0.502,2.61,1.446
		C28.872,77.328,29.102,78.156,29,79.081z M28.382,78.351c0.044-0.744-0.11-1.39-0.542-1.961c-0.466-0.62-1.122-0.794-1.818-0.676
		c-0.592,0.102-0.936,0.535-1.187,1.121c-0.514,1.188,0.261,2.986,1.163,3.784c1.041,0.918,1.941,0.469,2.218-0.798
		C28.322,79.334,28.468,78.828,28.382,78.351z"/>
	<path fill="#444444" d="M28.382,78.351c0.086,0.478-0.06,0.983-0.166,1.471c-0.277,1.268-1.178,1.717-2.218,0.798
		c-0.902-0.798-1.676-2.597-1.163-3.784c0.251-0.586,0.593-1.02,1.187-1.121c0.695-0.118,1.352,0.056,1.818,0.676
		C28.271,76.961,28.426,77.606,28.382,78.351z M25.433,77.694c-0.062,0.437,0.056,0.847,0.269,1.222
		c0.309,0.539,0.774,0.819,1.41,0.667c0.478-0.114,0.493-0.565,0.641-0.933c0.2-0.496,0.078-0.977-0.048-1.433
		c-0.124-0.443-0.372-0.885-0.897-0.992c-0.427-0.089-0.792,0.043-1.088,0.385C25.446,76.931,25.391,77.293,25.433,77.694z"/>
	<path fill="#272727" d="M25.433,77.694c-0.042-0.401,0.013-0.765,0.289-1.084c0.294-0.341,0.661-0.474,1.087-0.384
		c0.526,0.106,0.773,0.548,0.898,0.991c0.126,0.457,0.247,0.938,0.047,1.433c-0.148,0.367-0.164,0.818-0.641,0.933
		c-0.637,0.152-1.102-0.128-1.411-0.667C25.488,78.541,25.37,78.131,25.433,77.694z"/>
	<path fill="#FCFCFC" d="M41.613,79.876c0.924,0.498,1.42,0.262,1.4-0.902c-0.027-1.495-0.073-2.989-0.098-4.484
		c-0.001-0.071-0.084-0.142-0.129-0.212c-0.309-0.769-0.641-0.309-0.95,0.007"/>
</g>
<g>
	<path fill="#4B4B4B" d="M62.797,86.635c-0.287,0.246-0.379-0.078-0.543-0.192c-0.138-0.153-0.265-0.333-0.512-0.229
		c-1.255-0.688-2.374-1.571-3.254-2.73c-0.669-0.878-1.399-1.736-1.685-2.886c1.243,0.682,2.339,0.552,3.104-0.925
		c0.66-1.277,1.732-2.124,3.132-2.464c0.889-0.216,1.79-0.193,2.68-0.405c1.126-0.27,2.27-0.515,3.44-0.39
		c0.224,0.025,0.39,0.178,0.674,0.134c0.652-0.103,1.329-0.017,1.994,0.011c1.926,0.083,3.789-0.133,5.534-1.221
		c0.473-0.294,0.941-0.739,1.563-0.678c0.029,0.636,0.037,1.274,0.093,1.909c0.112,1.29-0.434,2.47-0.634,3.707
		c-0.01,0.023-0.02,0.052-0.026,0.079l-0.312,0.796c-0.048,0.083,0.018-0.308,0,0c-0.711,1.179-1.443,2.339-2.439,3.282
		c-1.597,1.515-3.41,2.563-5.497,3.006c-0.258,0.055-0.501,0.244-0.782,0.17c-0.577-0.064-1.175,0.104-1.737-0.101
		c0.116-0.377,0.17-0.767-0.081-1.078c-0.724-0.907-2.238-2.096-3.821-1.395C62.972,85.355,62.686,85.795,62.797,86.635z
		 M66.217,83.538c0.79,0.213,1.584,0.411,2.417,0.272c1.188-0.192,2.063-0.953,2.793-1.913c0.395-0.52,0.842-1.032,0.836-1.774
		c-0.002-0.938-0.551-1.501-1.161-2.001c-0.974-0.797-2.155-1.029-3.348-0.949c-1.41,0.092-2.808,0.475-4.02,1.323
		c-1.486,1.041-1.398,3.193,0.094,4.128C64.571,83.091,65.369,83.376,66.217,83.538z"/>
	<path fill="#8B8B8B" d="M78.925,74.659c-0.621-0.061-1.09,0.384-1.563,0.68c-1.744,1.086-3.607,1.302-5.532,1.22
		c-0.666-0.029-1.343-0.114-1.996-0.012c-0.284,0.044-0.449-0.108-0.674-0.133c-1.17-0.126-2.313,0.119-3.439,0.389
		c-0.891,0.214-1.792,0.19-2.68,0.405c-1.399,0.341-2.473,1.188-3.133,2.464c-0.764,1.479-1.859,1.608-3.101,0.926
		c-0.738-1.288-0.921-2.729-0.94-4.22c-0.01-0.522-0.006-1.044-0.004-1.569c0.717,0.323,1.368,0.809,2.168,0.938
		c0.861,0.141,1.708,0.117,2.589,0.07c1.221-0.068,2.502-0.19,3.68,0.322c0.519,0.225,0.723,0.028,0.673-0.542
		c0.137,0.033,0.274,0.064,0.408,0.097c-0.079,0.498,0.162,0.495,0.529,0.419c0.64-0.134,1.281-0.222,1.933-0.254
		c1.837-0.08,3.651-0.283,5.255-1.452l0.012-0.012c0.823-0.606,1.371-1.442,1.8-2.378c0.089-0.37,0.089-0.37,0.154-0.641
		c0.017-0.244,0.02-0.488,0.052-0.729c0.168-1.242-0.453-2.555-1.409-3.193c-1.075-0.713-2.354-0.895-3.468-1.521
		c-0.764-0.429-1.652-0.575-2.509-0.771c-0.196-0.046-0.442-0.041-0.419-0.371l0.013-0.007c0.455,0.016,0.902,0.173,1.366,0.051
		c0.066,0.127,0.175,0.172,0.306,0.176c0.047,0.012,0.097,0.024,0.145,0.036c0.766,0.192,1.532,0.383,2.299,0.574
		c0.171-0.111,0.236,0.02,0.303,0.146c0.741,0.383,1.479,0.766,2.22,1.149c1.341,0.696,2.274,1.856,3.133,3.095
		c0.786,1.127,1.388,2.354,1.593,3.781C78.728,74.094,78.975,74.328,78.925,74.659z"/>
	<path fill="#B5B5B5" d="M64.972,75.6c0.05,0.57-0.151,0.766-0.673,0.542c-1.178-0.513-2.46-0.391-3.68-0.322
		c-0.879,0.046-1.727,0.069-2.588-0.07c-0.801-0.13-1.451-0.615-2.169-0.936c0.41-1.471,0.605-3.017,1.44-4.338
		c0.49-0.321,0.786-0.805,1.019-1.341c1.218-1.572,2.751-2.616,4.514-3.388c1.396-0.612,2.834-0.763,4.281-0.969
		c0.063,0.006,0.13,0.014,0.194,0.02c-0.023,0.327,0.222,0.325,0.419,0.37c0.856,0.195,1.745,0.341,2.511,0.772
		c1.112,0.624,2.392,0.804,3.466,1.52c0.956,0.637,1.577,1.95,1.41,3.191c-0.033,0.241-0.036,0.484-0.054,0.729
		c-0.078,0.325-0.066,0.278-0.153,0.64c-0.43,0.938-0.978,1.772-1.795,2.38c0.131-0.205,0.199-0.414-0.071-0.528
		c-0.11-0.047-0.257,0.018-0.295,0.167c-0.085,0.328,0.14,0.347,0.352,0.371c-1.603,1.17-3.419,1.373-5.254,1.454
		c-0.654,0.031-1.296,0.119-1.933,0.253c-0.368,0.076-0.609,0.08-0.529-0.419c0.939-0.138,1.884-0.377,2.822-0.388
		c1.985-0.024,3.375-1.046,4.423-2.771c0.796-1.313,0.434-3.28-0.743-4.054c-0.966-0.635-2.04-0.934-3.067-1.38
		c-0.712-0.365-1.47-0.54-2.268-0.547c-0.205-0.025-0.403-0.058-0.615-0.058c-2.166-0.003-4.104,0.978-6.044,1.83
		c-2.063,0.906-2.376,3.411-1.003,4.885c0.427,0.456,0.91,0.821,1.493,1.03c1.007,0.464,2.108,0.583,3.165,0.868
		C63.962,75.453,64.51,75.401,64.972,75.6z"/>
	<path fill="#8B8B8B" d="M62.797,86.635c-0.112-0.841,0.175-1.279,0.894-1.6c1.582-0.699,3.096,0.488,3.819,1.395
		c0.25,0.313,0.197,0.702,0.079,1.079c0-0.002,0.003-0.028,0.003-0.028c-0.062,0.029-0.123,0.063-0.185,0.093
		c-0.043,0.021-0.086,0.039-0.129,0.063c-0.426-0.001-0.864,0.137-1.267-0.103c-0.056-0.007-0.111-0.02-0.166-0.029
		c-0.046-0.013-0.093-0.028-0.139-0.042c-0.833-0.056-1.594-0.459-2.43-0.486C63.16,86.795,62.978,86.713,62.797,86.635z"/>
	<path fill="#1D1D1D" d="M61.747,86.64c0.024,0.062,0.046,0.123,0.071,0.184"/>
	<path fill="#333333" d="M63.275,86.974c0.839,0.027,1.599,0.429,2.433,0.484c-0.689,0.354-1.264-0.116-1.873-0.264
		C63.662,87.153,63.452,87.075,63.275,86.974z"/>
	<path fill="#333333" d="M67.277,87.634c0.044-0.021,0.086-0.039,0.13-0.061c0.085,0.021,0.176,0.059,0.185-0.095
		c0,0-0.002,0.027-0.003,0.029c0.565,0.204,1.163,0.036,1.738,0.101c-0.396,0.079-0.788,0.177-1.187,0.227
		C67.837,87.874,67.52,87.892,67.277,87.634z"/>
	<path fill="#333333" d="M67.15,88.081"/>
	<path fill="#1D1D1D" d="M61.743,86.213c0.246-0.104,0.373,0.076,0.511,0.229"/>
	<path fill="#333333" d="M65.846,87.504c0.055,0.006,0.111,0.021,0.165,0.028C65.932,87.653,65.886,87.594,65.846,87.504z"/>
	<path fill="#333333" d="M78.357,80.355c0.008-0.027,0.017-0.057,0.028-0.079"/>
	<path fill="#1B1B1B" d="M66.218,83.538c-0.849-0.16-1.646-0.447-2.39-0.912c-1.492-0.937-1.58-3.089-0.095-4.128
		c1.212-0.851,2.609-1.231,4.021-1.324c1.192-0.081,2.372,0.153,3.348,0.948c0.609,0.501,1.157,1.063,1.161,2.002
		c0.004,0.744-0.441,1.255-0.837,1.774c-0.729,0.961-1.604,1.722-2.792,1.914C67.801,83.949,67.006,83.75,66.218,83.538z
		 M66.249,82.321c1.237,0.269,2.253,0.034,3.063-0.962c0.859-1.056,0.534-2.444-0.672-2.913c-0.975-0.38-1.932-0.246-2.873,0.204
		c-0.978,0.466-1.406,1.254-1.167,2.32C64.811,81.887,65.597,82.109,66.249,82.321z"/>
	<path fill="#C7C7C7" d="M60.379,74.241c-0.583-0.208-1.068-0.572-1.492-1.028c-1.374-1.474-1.061-3.979,1.003-4.886
		c1.939-0.853,3.878-1.835,6.043-1.831c0.214,0.002,0.411,0.033,0.613,0.06c0.757,0.182,1.512,0.363,2.271,0.546
		c1.024,0.445,2.099,0.745,3.065,1.381c1.178,0.772,1.54,2.741,0.744,4.052c-1.048,1.729-2.437,2.747-4.423,2.771
		c-0.94,0.012-1.883,0.252-2.823,0.391c-0.135-0.033-0.272-0.064-0.409-0.098c-0.464-0.197-1.011-0.146-1.428-0.487
		c-0.091-0.182-0.271-0.188-0.429-0.226C62.207,74.669,61.293,74.456,60.379,74.241z M71,72.904c0.04-0.008,0.1,0.004,0.121-0.022
		c0.942-1.079,1.017-2.684-0.167-3.749c-0.469-0.425-1.025-0.659-1.583-0.891c-1.103-0.46-2.217-0.699-3.458-0.64
		c-1.66,0.08-2.963,1.028-4.259,1.863c-1.637,1.052-1.669,2.545-0.379,3.714c1.087,0.986,2.487,1.394,3.848,1.719
		c1.276,0.303,2.626,0.069,3.923-0.251c0.819-0.199,1.554-0.603,1.854-1.551C70.933,73.031,70.966,72.968,71,72.904z"/>
	<path fill="#BFBFBF" d="M69.14,65.051c0.041-0.048,0.09-0.145,0.123-0.141c0.762,0.119,1.583,0.057,2.174,0.716
		C70.671,65.435,69.905,65.243,69.14,65.051z"/>
	<path fill="#B5B5B5" d="M73.097,74.408c-0.211-0.024-0.436-0.042-0.352-0.371c0.038-0.149,0.186-0.214,0.297-0.166
		c0.269,0.114,0.2,0.321,0.068,0.525C73.108,74.396,73.097,74.408,73.097,74.408z"/>
	<path fill="#BFBFBF" d="M68.688,64.84c0.135,0,0.27-0.004,0.307,0.176C68.863,65.011,68.755,64.967,68.688,64.84z"/>
	<path fill="#C2C2C2" d="M60.379,74.241c0.914,0.213,1.826,0.426,2.737,0.646c0.159,0.036,0.338,0.042,0.429,0.225
		C62.487,74.825,61.387,74.707,60.379,74.241z"/>
	<path fill="#C2C2C2" d="M68.817,67.102c-0.759-0.181-1.514-0.362-2.271-0.546C67.348,66.563,68.104,66.736,68.817,67.102z"/>
	<path fill="#4B4B4B" d="M67.592,87.479c-0.009,0.153-0.098,0.117-0.185,0.095C67.469,87.542,67.53,87.51,67.592,87.479z"/>
	<path fill="#101010" d="M66.249,82.321c-0.652-0.212-1.438-0.435-1.647-1.352c-0.239-1.065,0.188-1.856,1.166-2.32
		c0.941-0.451,1.897-0.583,2.873-0.206c1.206,0.471,1.531,1.859,0.673,2.914C68.503,82.354,67.486,82.59,66.249,82.321z"/>
	<path fill="#DBDBDB" d="M70.899,73.095c-0.3,0.948-1.034,1.352-1.854,1.553c-1.298,0.317-2.646,0.552-3.922,0.248
		c-1.361-0.323-2.762-0.732-3.849-1.718c-1.291-1.169-1.258-2.661,0.378-3.714c1.297-0.835,2.6-1.781,4.258-1.863
		c1.243-0.059,2.357,0.181,3.46,0.641c0.559,0.23,1.114,0.465,1.582,0.887c1.185,1.068,1.111,2.673,0.168,3.752
		c-0.022,0.026-0.081,0.016-0.121,0.023c0.099-0.362-0.18-0.324-0.362-0.391c0.362-0.664,0.652-1.357,0.244-2.072
		c-0.515-0.908-1.259-1.537-2.233-1.851c-2.039-0.655-3.916-0.199-5.674,1.105c-1.343,0.995-1.417,2.311-0.482,3.234
		c0.2,0.197,0.452,0.298,0.67,0.458c0.783,0.579,1.638,1.088,2.616,1.128c0.92,0.041,1.856-0.051,2.78-0.182
		c0.621-0.089,1.242-0.312,1.531-1.047c0.072-0.188,0.193-0.351,0.388-0.427C70.581,73.014,70.705,73.124,70.899,73.095z"/>
	<path fill="#DBDBDB" d="M70.899,73.095c-0.195,0.028-0.318-0.081-0.419-0.233c0.047-0.117-0.01-0.286,0.159-0.347
		c0.181,0.064,0.461,0.028,0.36,0.39C70.966,72.968,70.933,73.031,70.899,73.095z"/>
	<path fill="#B2B2B2" d="M70.64,72.515c-0.093,0.179-0.112,0.229-0.159,0.349c-0.196,0.075-0.317,0.236-0.39,0.425
		c-0.29,0.735-0.911,0.958-1.533,1.048c-0.922,0.131-1.859,0.221-2.779,0.182c-0.979-0.04-1.831-0.55-2.617-1.128
		c-0.217-0.159-0.469-0.262-0.668-0.459c-0.936-0.923-0.861-2.239,0.481-3.233c1.758-1.304,3.634-1.762,5.675-1.106
		c0.974,0.313,1.719,0.943,2.232,1.852C71.291,71.157,71.001,71.852,70.64,72.515z M65.749,73.823
		c0.857,0.314,1.703,0.269,2.562,0.082c1.005-0.22,1.887-1.221,2.019-2.335c0.1-0.815-0.518-1.836-1.414-2.191
		c-1.924-0.769-3.7-0.456-5.328,1.028c-0.783,0.717-0.789,1.934,0.147,2.506C64.381,73.306,64.983,73.79,65.749,73.823z"/>
	<path fill="#717171" d="M65.749,73.823c-0.766-0.034-1.368-0.518-2.014-0.912c-0.938-0.571-0.93-1.789-0.146-2.505
		c1.626-1.483,3.403-1.796,5.326-1.027c0.896,0.356,1.514,1.376,1.415,2.191c-0.133,1.114-1.014,2.114-2.02,2.334
		C67.452,74.092,66.606,74.138,65.749,73.823z M66.597,73.357c0.698,0.216,1.352,0.205,2.002-0.104
		c0.705-0.335,1.032-0.965,1.091-1.702c0.048-0.628-0.283-1.078-0.779-1.468c-1.007-0.797-2.913-0.417-3.893,0.321
		c-1.131,0.853-0.925,1.875,0.216,2.448C65.673,73.071,66.12,73.336,66.597,73.357z"/>
	<path fill="#444444" d="M66.597,73.357c-0.477-0.021-0.924-0.286-1.363-0.505c-1.141-0.573-1.348-1.596-0.216-2.448
		c0.979-0.738,2.886-1.117,3.893-0.321c0.496,0.39,0.827,0.84,0.779,1.468c-0.059,0.737-0.386,1.367-1.091,1.702
		C67.948,73.563,67.295,73.573,66.597,73.357z M67.943,70.496c-0.399-0.162-0.82-0.137-1.229-0.004
		c-0.591,0.191-0.972,0.604-0.982,1.287c-0.008,0.514,0.419,0.633,0.732,0.868c0.424,0.316,0.914,0.304,1.378,0.279
		c0.454-0.026,0.936-0.178,1.166-0.689c0.189-0.417,0.152-0.82-0.101-1.198C68.669,70.685,68.338,70.546,67.943,70.496z"/>
	<path fill="#272727" d="M67.943,70.496c0.394,0.051,0.727,0.189,0.964,0.543c0.253,0.378,0.29,0.782,0.099,1.198
		c-0.229,0.513-0.711,0.663-1.164,0.69c-0.466,0.024-0.954,0.037-1.378-0.28c-0.314-0.233-0.74-0.354-0.732-0.866
		c0.01-0.686,0.392-1.096,0.982-1.288C67.123,70.359,67.544,70.334,67.943,70.496z"/>
	<path fill="#FCFCFC" d="M61.904,86.517c-0.703,0.83-0.599,1.392,0.517,1.636c1.432,0.314,2.868,0.609,4.3,0.926
		c0.07,0.014,0.156-0.055,0.235-0.083c0.808-0.142,0.45-0.584,0.226-0.972"/>
</g>
</svg>
