<?xml version="1.0" encoding="utf-8"?>
<!-- Generator: Adobe Illustrator 16.0.3, SVG Export Plug-In . SVG Version: 6.00 Build 0)  -->
<!DOCTYPE svg PUBLIC "-//W3C//DTD SVG 1.1//EN" "http://www.w3.org/Graphics/SVG/1.1/DTD/svg11.dtd">
<svg version="1.1" id="Layer_1" xmlns="http://www.w3.org/2000/svg" xmlns:xlink="http://www.w3.org/1999/xlink" x="0px" y="0px"
	 width="96px" height="96px" viewBox="0 0 96 96" enable-background="new 0 0 96 96" xml:space="preserve">
<g id="Layer_1_1_">
</g>
<circle fill="none" cx="47.274" cy="47.269" r="48.274"/>
<rect x="63.78" y="12.914" width="15.406" height="14.461"/>
<rect x="63.782" y="40.881" width="15.404" height="14.449"/>
<rect x="14.969" y="12.923" width="15.404" height="14.443"/>
<rect x="14.967" y="40.87" width="15.406" height="14.47"/>
<rect x="14.969" y="67.605" width="15.404" height="14.439"/>
<g>
	<g>
		<line fill="none" stroke="#58595B" stroke-width="2" stroke-miterlimit="10" x1="32.572" y1="20.303" x2="54.61" y2="20.303"/>
		<g>
			<polygon fill="#58595B" points="53.151,25.289 61.786,20.303 53.151,15.316 			"/>
		</g>
	</g>
</g>
<g>
	<g>
		<line fill="none" stroke="#58595B" stroke-width="2" stroke-miterlimit="10" x1="32.572" y1="44.868" x2="55.744" y2="29.345"/>
		<g>
			<polygon fill="#58595B" points="57.307,34.299 61.706,25.352 51.757,26.014 			"/>
		</g>
	</g>
</g>
<g>
	<path fill="#231F20" stroke="#231F20" stroke-width="2" stroke-miterlimit="10" d="M41.529,9.938h4.514V5.609h1.945v4.328h4.539
		v2.027h-4.539v4.327h-1.945v-4.327h-4.514V9.938z"/>
</g>
<g>
	<path fill="#231F20" stroke="#231F20" stroke-width="2" stroke-miterlimit="10" d="M50.445,43.326v2.482h-6.42v-2.482H50.445z"/>
</g>
<rect x="63.432" y="67.605" width="15.403" height="14.439"/>
</svg>
