<?xml version="1.0" encoding="utf-8"?>
<!-- Generator: Adobe Illustrator 16.0.3, SVG Export Plug-In . SVG Version: 6.00 Build 0)  -->
<!DOCTYPE svg PUBLIC "-//W3C//DTD SVG 1.1//EN" "http://www.w3.org/Graphics/SVG/1.1/DTD/svg11.dtd">
<svg version="1.1" id="Layer_1" xmlns="http://www.w3.org/2000/svg" xmlns:xlink="http://www.w3.org/1999/xlink" x="0px" y="0px"
	 width="96px" height="96px" viewBox="0 0 96 96" enable-background="new 0 0 96 96" xml:space="preserve">
<g id="Layer_1_1_">
</g>
<circle fill="none" cx="48" cy="47.8" r="48"/>
<g>
	<g>
		<g>
			<g>
				<g>
					<g>
						<g>
							<g>
								<path fill="none" stroke="#000000" stroke-width="3" stroke-miterlimit="10" d="M39.478,34.712
									c5.34,1.936,10.672,3.869,15.159,6.083c4.489,2.217,9.189,4.125,11.775,7.227c2.586,3.083,5.037,7.971,3.738,11.319
									c-1.297,3.349-6.756,8.606-11.527,8.757c-4.771,0.146-11.725-6.084-17.1-7.871c-5.359-1.785-10.141-2.135-15.047-2.846
									c-4.906-0.713-10.902-0.346-14.393-1.422c-3.489-1.075-5.464-2.398-6.542-5.021c-1.081-2.621-1.455-5.668,0.072-10.769
									c1.524-5.076,3.918-14.372,9.078-19.725c5.159-5.353,13.934-10.35,21.869-12.385c7.943-2.034,17.847-2.412,25.749,0.178
									c7.902,2.588,17.148,10.235,21.664,15.359c4.516,5.125,5.164,11.05,5.432,15.389c0.271,4.346-1.563,8.188-3.823,10.686
									c-2.271,2.484-7.146,3.519-9.771,4.308c-2.619,0.785-5.949,0.398-5.949,0.398"/>
							</g>
						</g>
					</g>
				</g>
			</g>
		</g>
	</g>
</g>
<g>
	<g>
		<g>
			<g>
				<g>
					<g>
						<g>
							<g>
								<path fill="#E7E6E6" d="M9.539,43.711c-0.186-1.694,1.033-3.211,2.722-3.396c1.686-0.184,3.204,1.031,3.388,2.724
									c0.186,1.694-1.033,3.22-2.719,3.406C11.241,46.631,9.725,45.406,9.539,43.711z"/>
							</g>
						</g>
					</g>
				</g>
			</g>
		</g>
	</g>
</g>
<g>
	<g>
		<g>
			<g>
				<g>
					<g>
						<g>
							<g>
								<path fill="none" stroke="#000000" stroke-miterlimit="10" d="M9.539,43.711c-0.186-1.694,1.033-3.211,2.722-3.396
									c1.686-0.184,3.204,1.031,3.388,2.724c0.186,1.694-1.033,3.22-2.719,3.406C11.241,46.631,9.725,45.406,9.539,43.711z"/>
							</g>
						</g>
					</g>
				</g>
			</g>
		</g>
	</g>
</g>
<g>
	<g>
		<g>
			<g>
				<g>
					<g>
						<g>
							<g>
								<path fill="#E7E6E6" d="M42.365,14.376c-0.186-1.685,1.032-3.205,2.729-3.388c1.694-0.185,3.217,1.033,3.398,2.719
									c0.185,1.689-1.031,3.208-2.725,3.391C44.069,17.284,42.551,16.066,42.365,14.376z"/>
							</g>
						</g>
					</g>
				</g>
			</g>
		</g>
	</g>
</g>
<g>
	<g>
		<g>
			<g>
				<g>
					<g>
						<g>
							<g>
								<path fill="none" stroke="#000000" stroke-miterlimit="10" d="M42.365,14.376c-0.186-1.685,1.032-3.205,2.729-3.388
									c1.694-0.185,3.217,1.033,3.398,2.719c0.185,1.689-1.031,3.208-2.725,3.391C44.069,17.284,42.551,16.066,42.365,14.376z"/>
							</g>
						</g>
					</g>
				</g>
			</g>
		</g>
	</g>
</g>
<g>
	<g>
		<g>
			<g>
				<g>
					<g>
						<g>
							<g>
								<path fill="#E7E6E6" d="M71.271,32.836c-0.188-1.689,1.035-3.205,2.722-3.392c1.688-0.185,3.205,1.034,3.39,2.722
									c0.186,1.687-1.029,3.205-2.721,3.388C72.979,35.74,71.458,34.523,71.271,32.836z"/>
							</g>
						</g>
					</g>
				</g>
			</g>
		</g>
	</g>
</g>
<g>
	<g>
		<g>
			<g>
				<g>
					<g>
						<g>
							<g>
								<path fill="none" stroke="#000000" stroke-miterlimit="10" d="M71.271,32.836c-0.188-1.689,1.035-3.205,2.722-3.392
									c1.688-0.185,3.205,1.034,3.39,2.722c0.186,1.687-1.029,3.205-2.721,3.388C72.979,35.74,71.458,34.523,71.271,32.836z"/>
							</g>
						</g>
					</g>
				</g>
			</g>
		</g>
	</g>
</g>
<g>
	<g>
		<g>
			<g>
				<g>
					<g>
						<g>
							<g>
								<path fill="#E7E6E6" d="M33.143,40.266c-0.183-1.687,1.036-3.207,2.722-3.39c1.689-0.185,3.206,1.033,3.391,2.718
									c0.183,1.69-1.032,3.21-2.721,3.396C34.848,43.175,33.329,41.953,33.143,40.266z"/>
							</g>
						</g>
					</g>
				</g>
			</g>
		</g>
	</g>
</g>
<g>
	<g>
		<g>
			<g>
				<g>
					<g>
						<g>
							<g>
								<path fill="none" stroke="#000000" stroke-miterlimit="10" d="M33.143,40.266c-0.183-1.687,1.036-3.207,2.722-3.39
									c1.689-0.185,3.206,1.033,3.391,2.718c0.183,1.69-1.032,3.21-2.721,3.396C34.848,43.175,33.329,41.953,33.143,40.266z"/>
							</g>
						</g>
					</g>
				</g>
			</g>
		</g>
	</g>
</g>
<g>
	<g>
		<g>
			<g>
				<g>
					<g>
						<g>
							<g>
								<path fill="#E7E6E6" d="M57.664,57.409c-0.186-1.688,1.033-3.205,2.718-3.392c1.69-0.188,3.209,1.026,3.394,2.724
									c0.188,1.686-1.028,3.204-2.719,3.387C59.366,60.313,57.848,59.096,57.664,57.409z"/>
							</g>
						</g>
					</g>
				</g>
			</g>
		</g>
	</g>
</g>
<g>
	<g>
		<g>
			<g>
				<g>
					<g>
						<g>
							<g>
								<path fill="none" stroke="#000000" stroke-miterlimit="10" d="M57.664,57.409c-0.186-1.688,1.033-3.205,2.718-3.392
									c1.69-0.188,3.209,1.026,3.394,2.724c0.188,1.686-1.028,3.204-2.719,3.387C59.366,60.313,57.848,59.096,57.664,57.409z"/>
							</g>
						</g>
					</g>
				</g>
			</g>
		</g>
	</g>
</g>
<g>
	<g>
		<g>
			<g>
				<g>
					<g>
						<g>
							<g>
								<path d="M40.691,22.99l2.804-6.55l-6.923,1.686L40.691,22.99z M15.205,41.784l24.924-21.1l-1.374-1.623L13.833,40.165
									L15.205,41.784z"/>
							</g>
						</g>
					</g>
				</g>
			</g>
		</g>
	</g>
</g>
<g>
	<g>
		<g>
			<g>
				<g>
					<g>
						<g>
							<g>
								<path d="M27.349,44.418l5.793-4.152l-6.791-2.149L27.349,44.418z M15.816,44.094l12.25-1.95l-0.332-2.099l-12.25,1.941
									L15.816,44.094z"/>
							</g>
						</g>
					</g>
				</g>
			</g>
		</g>
	</g>
</g>
<g>
	<g>
		<g>
			<g>
				<g>
					<g>
						<g>
							<g>
								<path d="M60.998,46.93l-0.616,7.087l-5.307-4.734L60.998,46.93z M46.76,16.708l12.654,31.997l-1.973,0.781L44.774,17.492
									L46.76,16.708z"/>
							</g>
						</g>
					</g>
				</g>
			</g>
		</g>
	</g>
</g>
<g>
	<g>
		<g>
			<g>
				<g>
					<g>
						<g>
							<g>
								<path d="M68.134,24.549l3.798,6.027l-7.101-0.577L68.134,24.549z M51.62,21.994l-3.786-6.027l7.086,0.576L51.62,21.994z
									 M52.912,17.81l15.025,9.107l-1.104,1.816l-15.021-9.104L52.912,17.81z"/>
							</g>
						</g>
					</g>
				</g>
			</g>
		</g>
	</g>
</g>
<g enable-background="new    ">
	<path d="M49.42,73.773c0,0.631-0.479,1.142-1.229,1.142c-0.72,0-1.2-0.511-1.185-1.142c-0.015-0.658,0.465-1.153,1.2-1.153
		C48.939,72.62,49.404,73.115,49.42,73.773z M47.065,83.148v-7.334h2.281v7.334H47.065z"/>
	<path d="M58.675,82.864c-0.42,0.21-1.364,0.436-2.595,0.436c-3.495,0-5.295-2.176-5.295-5.056c0-3.449,2.46-5.369,5.52-5.369
		c1.187,0,2.086,0.24,2.49,0.45l-0.465,1.815c-0.465-0.195-1.109-0.375-1.92-0.375c-1.814,0-3.225,1.094-3.225,3.344
		c0,2.025,1.198,3.301,3.238,3.301c0.689,0,1.455-0.149,1.905-0.33L58.675,82.864z"/>
	<path d="M67.061,79.398c0,2.686-1.906,3.916-3.871,3.916c-2.145,0-3.795-1.41-3.795-3.78c0-2.369,1.562-3.886,3.916-3.886
		C65.561,75.648,67.061,77.193,67.061,79.398z M61.75,79.475c0,1.26,0.525,2.205,1.5,2.205c0.885,0,1.455-0.885,1.455-2.205
		c0-1.095-0.42-2.205-1.455-2.205C62.154,77.27,61.75,78.395,61.75,79.475z"/>
	<path d="M68.471,72.5h2.279v4.186h0.029c0.24-0.314,0.541-0.556,0.9-0.75c0.329-0.181,0.766-0.285,1.186-0.285
		c1.455,0,2.564,1.004,2.564,3.209v4.291H73.15v-4.035c0-0.961-0.33-1.619-1.187-1.619c-0.601,0-0.976,0.39-1.14,0.795
		c-0.061,0.148-0.075,0.345-0.075,0.51v4.35h-2.278V72.5L68.471,72.5z"/>
</g>
<g>
	<path fill="#FFFFFF" stroke="#000000" stroke-width="2" stroke-miterlimit="10" d="M39.608,65.846c0,2.571-2.226,4.655-4.971,4.655
		H12.579c-2.745,0-4.971-2.084-4.971-4.655v-7.271c0-2.57,2.226-4.654,4.971-4.654h22.058c2.746,0,4.971,2.084,4.971,4.654V65.846z"
		/>
	<g enable-background="new    ">
		<path d="M15.204,67.155l-3.072-9.41h1.313l1.466,4.635c0.405,1.271,0.754,2.416,1.005,3.519h0.028
			c0.266-1.088,0.656-2.271,1.075-3.504l1.592-4.646h1.298l-3.365,9.41L15.204,67.155L15.204,67.155z"/>
		<path d="M21.655,64.195l-0.978,2.96h-1.256l3.197-9.41h1.466l3.211,9.41h-1.299l-1.005-2.96H21.655z M24.741,63.246l-0.921-2.709
			c-0.209-0.614-0.349-1.173-0.489-1.717h-0.028c-0.14,0.559-0.293,1.131-0.475,1.703l-0.921,2.723H24.741z"/>
		<path d="M28.679,57.871c0.614-0.126,1.494-0.196,2.332-0.196c1.298,0,2.136,0.237,2.723,0.769c0.475,0.424,0.74,1.063,0.74,1.787
			c0,1.242-0.782,2.066-1.773,2.401v0.042c0.726,0.251,1.159,0.921,1.382,1.898c0.307,1.313,0.53,2.22,0.726,2.583h-1.257
			c-0.153-0.267-0.363-1.075-0.628-2.248c-0.279-1.298-0.782-1.787-1.885-1.829h-1.145v4.077h-1.215V57.871z M29.894,62.157h1.243
			c1.298,0,2.122-0.712,2.122-1.787c0-1.215-0.88-1.745-2.164-1.761c-0.586,0-1.005,0.058-1.201,0.113V62.157z"/>
	</g>
</g>
</svg>
