<?xml version="1.0" encoding="utf-8"?>
<!-- Generator: Adobe Illustrator 16.0.3, SVG Export Plug-In . SVG Version: 6.00 Build 0)  -->
<!DOCTYPE svg PUBLIC "-//W3C//DTD SVG 1.1//EN" "http://www.w3.org/Graphics/SVG/1.1/DTD/svg11.dtd">
<svg version="1.1" id="Layer_1" xmlns="http://www.w3.org/2000/svg" xmlns:xlink="http://www.w3.org/1999/xlink" x="0px" y="0px"
	 width="100px" height="100px" viewBox="0 0 100 100" enable-background="new 0 0 100 100" xml:space="preserve">
<g id="Captions">
</g>
<g id="Your_Icon">
	<g>
		<path d="M79.765,70.631c0,0.002,0,0.607,0,1.588c0,0.979,0,2.327,0,3.813c-0.001,0.287-0.062,0.55-0.187,0.816
			c-0.186,0.396-0.536,0.799-1.026,1.096c-0.489,0.299-1.104,0.487-1.788,0.487h-24c-0.91,0.003-1.702-0.339-2.23-0.815
			c-0.263-0.238-0.458-0.502-0.583-0.767c-0.124-0.268-0.185-0.53-0.187-0.817c0-1.486,0-2.836,0-3.813c0-0.979,0-1.586,0-1.588
			h-5.999c0,0.002,0,0.607,0,1.588c0,0.979,0,2.327,0,3.813c-0.001,1.199,0.275,2.354,0.76,3.377
			c0.729,1.539,1.905,2.791,3.331,3.659c1.425,0.868,3.117,1.364,4.908,1.364h24c2.391-0.002,4.598-0.877,6.244-2.355
			c0.824-0.742,1.512-1.641,1.996-2.668c0.484-1.023,0.762-2.178,0.76-3.377c0-1.486,0-2.836,0-3.813c0-0.979,0-1.586,0-1.588
			H79.765z"/>
		<path d="M61.305,48.891c0.66,0.663,1.059,1.553,1.06,2.541v14.006l-4.302-4.303l-3.395,3.395l10.096,10.097l10.098-10.097
			l-3.393-3.395l-4.305,4.304V51.432c0.001-2.313-0.951-4.424-2.465-5.936c-1.512-1.515-3.623-2.465-5.935-2.465h-7.2v4.8h7.2
			C59.752,47.832,60.641,48.23,61.305,48.891z"/>
	</g>
</g>
<path stroke="#000000" stroke-width="2" stroke-linecap="round" stroke-linejoin="round" stroke-miterlimit="10" d="M9.891,34.718
	c0-1.199,0.81-2.041,1.943-2.041c1.134,0,1.912,0.842,1.912,2.041c0,1.166-0.745,2.041-1.944,2.041
	C10.668,36.759,9.891,35.884,9.891,34.718z"/>
<path stroke="#000000" stroke-width="2" stroke-linecap="round" stroke-linejoin="round" stroke-miterlimit="10" d="M20.007,20.724
	l2.235,3.369c0.583,0.875,1.069,1.685,1.587,2.56h0.097c0.518-0.939,1.037-1.75,1.555-2.592l2.203-3.336h3.077l-5.345,7.58
	l5.507,8.099h-3.239l-2.3-3.531c-0.615-0.907-1.134-1.782-1.685-2.721h-0.064c-0.519,0.939-1.069,1.782-1.652,2.721l-2.268,3.531
	h-3.142l5.572-8.001l-5.313-7.677H20.007z"/>
<path stroke="#000000" stroke-width="2" stroke-linecap="round" stroke-linejoin="round" stroke-miterlimit="10" d="M46.735,13.402
	v18.951c0,1.393,0.032,2.98,0.129,4.049h-2.559l-0.129-2.721h-0.065c-0.875,1.75-2.786,3.078-5.345,3.078
	c-3.79,0-6.706-3.207-6.706-7.969c-0.032-5.215,3.207-8.422,7.03-8.422c2.397,0,4.017,1.134,4.729,2.397h0.065v-9.362H46.735z
	 M43.884,27.105c0-0.356-0.033-0.842-0.13-1.198c-0.421-1.814-1.976-3.304-4.114-3.304c-2.948,0-4.697,2.591-4.697,6.058
	c0,3.175,1.555,5.798,4.632,5.798c1.911,0,3.661-1.263,4.179-3.401c0.097-0.389,0.13-0.777,0.13-1.231V27.105z"/>
<path stroke="#000000" stroke-width="2" stroke-linecap="round" stroke-linejoin="round" stroke-miterlimit="10" d="M51.76,36.402
	V22.894h-2.203v-2.17h2.203v-0.745c0-2.203,0.485-4.211,1.813-5.475c1.069-1.037,2.494-1.458,3.823-1.458
	c1.004,0,1.878,0.227,2.429,0.454l-0.389,2.203c-0.421-0.194-1.004-0.356-1.813-0.356c-2.43,0-3.045,2.138-3.045,4.535v0.842h3.79
	v2.17h-3.79v13.508H51.76z"/>
<g>
	<circle fill="none" cx="49" cy="50" r="50"/>
</g>
</svg>
