<?xml version="1.0" encoding="utf-8"?>
<!-- Generator: Adobe Illustrator 16.0.3, SVG Export Plug-In . SVG Version: 6.00 Build 0)  -->
<!DOCTYPE svg PUBLIC "-//W3C//DTD SVG 1.1//EN" "http://www.w3.org/Graphics/SVG/1.1/DTD/svg11.dtd">
<svg version="1.1" id="Layer_1" xmlns="http://www.w3.org/2000/svg" xmlns:xlink="http://www.w3.org/1999/xlink" x="0px" y="0px"
	 width="96px" height="96px" viewBox="0 0 96 96" enable-background="new 0 0 96 96" xml:space="preserve">
<g id="Layer_1_1_">
</g>
<path fill="none" d="M96.1,48.098c0,26.498-21.49,47.988-47.994,47.988c-26.51,0-48-21.49-48-47.988
	c0-26.507,21.49-47.998,48-47.998C74.609,0.1,96.1,21.59,96.1,48.098z"/>
<rect x="78.924" y="70.654" fill="#666666" width="8.998" height="9.6"/>
<rect x="59.258" y="68.254" width="13.5" height="14.399"/>
<rect x="44.094" y="70.653" fill="#666666" width="8.998" height="9.601"/>
<rect x="9.266" y="70.653" fill="#666666" width="8.999" height="9.601"/>
<rect x="26.68" y="70.654" fill="#666666" width="8.998" height="9.6"/>
<path d="M41.521,49.549l9.718,9.714H45.74L45.738,63.6h12.906l-0.001-12.901l-4.338,0.001l-0.001,5.494l-9.716-9.712"/>
<g>
	<g>
		<path stroke="#000000" stroke-width="1.1573" stroke-miterlimit="10" d="M41.02,21.22c0-0.295-0.11-0.589-0.332-0.811
			l-6.185-6.664c-0.221-0.258-0.552-0.369-0.884-0.369H18.156c-1.068,0-1.952,0.884-1.952,1.952v29.196
			c0,1.068,0.884,1.952,1.952,1.952h20.949c1.068,0,1.952-0.884,1.952-1.952L41.02,21.22z M39.104,45.004H18.156
			c-0.259,0-0.479-0.221-0.479-0.479V15.329c0-0.258,0.221-0.479,0.479-0.479h15.205v4.381c0,1.179,0.958,2.136,2.135,2.136h4.087
			v23.158C39.583,44.783,39.363,45.004,39.104,45.004z"/>
	</g>
	
		<text transform="matrix(1 0 0 1 22.8525 36.9746)" stroke="#000000" stroke-width="1.1573" stroke-miterlimit="10" font-family="'MyriadPro-Bold'" font-size="16.2021">C</text>
</g>
</svg>
