<?xml version="1.0" encoding="utf-8"?>
<!-- Generator: Adobe Illustrator 16.0.3, SVG Export Plug-In . SVG Version: 6.00 Build 0)  -->
<!DOCTYPE svg PUBLIC "-//W3C//DTD SVG 1.1//EN" "http://www.w3.org/Graphics/SVG/1.1/DTD/svg11.dtd">
<svg version="1.1" id="Layer_1" xmlns="http://www.w3.org/2000/svg" xmlns:xlink="http://www.w3.org/1999/xlink" x="0px" y="0px"
	 width="96px" height="96px" viewBox="0 0 96 96" enable-background="new 0 0 96 96" xml:space="preserve">
<g id="Layer_1_1_">
</g>
<path fill="none" d="M96.1,48.098c0,26.498-21.49,47.988-47.994,47.988c-26.51,0-48-21.49-48-47.988
	c0-26.507,21.49-47.998,48-47.998C74.609,0.1,96.1,21.59,96.1,48.098z"/>
<g>
	<path d="M77.961,52.488c0.086-0.73,0.172-1.458,0.172-2.187c0-5.374-2.668-10.324-7.189-13.251l-1.549,2.366
		c3.703,2.411,5.896,6.457,5.896,10.885c0,0.429-0.043,0.857-0.043,1.241c-0.129,0-0.303,0-0.473,0
		c-3.271,0-5.939,2.667-5.939,5.938c0,3.271,2.668,5.939,5.939,5.939c3.27,0,5.938-2.668,5.938-5.939
		C80.715,55.374,79.598,53.523,77.961,52.488z M74.775,60.623c-1.723,0-3.1-1.421-3.1-3.098c0-1.723,1.422-3.101,3.1-3.101
		c1.723,0,3.1,1.419,3.1,3.101C77.918,59.202,76.498,60.623,74.775,60.623z M62.293,63.335c-2.709,0-5.379-0.86-7.574-2.453
		c0.689-0.989,1.076-2.151,1.076-3.442c0-3.271-2.67-5.938-5.936-5.938c-3.267,0-5.937,2.667-5.937,5.938
		c0,3.271,2.669,5.938,5.937,5.938c0.941,0,1.844-0.214,2.662-0.646c2.756,2.194,6.201,3.357,9.73,3.357
		c2.41,0,4.689-0.514,6.844-1.549l-1.207-2.54C66.17,62.907,64.273,63.335,62.293,63.335z M46.765,57.482
		c0-1.724,1.423-3.099,3.095-3.099c1.715,0,3.092,1.419,3.092,3.099c0,1.72-1.418,3.1-3.092,3.1
		C48.188,60.623,46.765,59.202,46.765,57.482z M55.623,39.116c0.387-0.214,0.773-0.429,1.162-0.602
		c0.988,1.937,2.969,3.271,5.293,3.271c3.271,0,5.941-2.669,5.941-5.94c0-3.27-2.67-5.938-5.941-5.938
		c-3.229,0-5.854,2.582-5.939,5.81c-0.688,0.302-1.334,0.646-1.979,0.99c-4.6,2.755-7.438,7.618-7.61,12.995l2.798,0.085
		C49.518,45.401,51.876,41.398,55.623,39.116z M62.123,32.705c1.721,0,3.098,1.421,3.098,3.099c0,1.722-1.42,3.099-3.098,3.099
		c-1.725,0-3.102-1.421-3.102-3.099C58.98,34.125,60.398,32.705,62.123,32.705z"/>
	<path fill="none" stroke="#231F20" stroke-width="3" stroke-linejoin="round" stroke-miterlimit="10" d="M83.088,66.506
		c0,6.514-5.279,11.795-11.793,11.795H35.257c-6.512,0-11.792-5.281-11.792-11.795V29.493c0-6.512,5.279-11.793,11.792-11.793
		h36.038c6.512,0,11.793,5.28,11.793,11.793V66.506z"/>
	<path d="M10.316,51.461H32.3l-6.222,6.221l4.906,4.907l14.613-14.586L30.982,33.409l-4.905,4.909l6.218,6.219H10.316"/>
</g>
</svg>
