<?xml version="1.0" encoding="utf-8"?>
<!-- Generator: Adobe Illustrator 16.0.3, SVG Export Plug-In . SVG Version: 6.00 Build 0)  -->
<!DOCTYPE svg PUBLIC "-//W3C//DTD SVG 1.1//EN" "http://www.w3.org/Graphics/SVG/1.1/DTD/svg11.dtd">
<svg version="1.1" id="Layer_1" xmlns="http://www.w3.org/2000/svg" xmlns:xlink="http://www.w3.org/1999/xlink" x="0px" y="0px"
	 width="96px" height="96px" viewBox="0 0 96 96" enable-background="new 0 0 96 96" xml:space="preserve">
<circle fill="none" cx="48" cy="48" r="48"/>
<g>
	<path d="M17.088,48.331c2.628,2.366,5.753,3.886,9.553,4.653c3.702,0.748,7.844,1.447,13.141,1.613
		c-7.228-1.589-14.665-3.927-17.37-6.418c-0.032,0.011-0.063,0.023-0.097,0.035c-0.172-0.127-0.346-0.248-0.514-0.388
		c-1.072-0.902-2.298-2.042-3.661-2.622c-2.167-1.196-5.413-1.617-5.763,1.597c-0.036,0.334,0.117,0.549,0.338,0.655
		c0.451-0.191,0.952-0.298,1.474-0.298C15.237,47.157,16.24,47.563,17.088,48.331z"/>
	<path d="M46.262,54.533c-1.667-0.782-3.483-1.729-4.402-1.975c0.012-0.074-6.533-2.904-9.482-2.055
		c-0.122,0.036-0.225,0.104-0.313,0.188c-5.417-3.482-6.19-3.723-8.208-3.398c-0.084,0.005-0.219,0.072-0.37,0.166
		c3.114,2.637,13.379,5.572,22.694,7.079C46.207,54.537,46.234,54.535,46.262,54.533z"/>
	<path d="M85.898,73.855c-7.571-16.963-4.729-19.347-19.688-23.08c-1.985-0.492-15.323-4.885-17.588-5.352
		c-0.617-0.127-1.21-0.185-1.771-0.185c-3.981,0-6.249,2.898-2.568,4.307c3.857,1.476,4.192,2.183,6.764,2.839
		c1.131,0.29,5.682,1.021,7.758,2.143c-6.662,0.983-12.032,1.375-16.63,1.375c-6.259,0-11.087-0.727-15.785-1.674
		c-3.746-0.759-7.141-2.252-10.152-4.961c-0.661-0.595-1.387-0.842-2.049-0.842c-1.805,0-3.127,1.838-1.317,3.467
		c0.439,0.396,1.573,1.5,1.747,1.688c9.356,9.984,21.614,11.324,38.513,13.67c0.423,0.059,3.572,0.284,4.695,0.284
		c0.176,0,0.303-0.007,0.36-0.019c7.631,2.354,11.572,8.114,16.496,17.959c0.06,0.117,0.187,0.174,0.369,0.174
		C77.255,85.648,87.57,77.6,85.898,73.855z"/>
</g>
<path fill="#FCFDFF" d="M38.986,43.986c9.366,1.391,19.127-7.943,19.374-18.29c0.246-10.173-9.726-18.924-18.851-19.041
	c-10.383-0.135-19.028,9.75-19.153,18.562C20.215,35.238,29.882,45.418,38.986,43.986z"/>
<path fill="#FCFDFF" d="M65.219,25.555c-1.186-5.614-2.131-11.424-6.262-15.979c-0.814-0.897-1.838-2.433-3.045-1.558
	c-1.693,1.225,0.262,2.161,0.951,2.905c6.57,7.092,6.266,22.281-0.059,29.152c-0.66,0.719-2.271,1.543-1.158,2.657
	c1.237,1.242,2.252-0.248,3.063-1.1C62.965,37.169,63.953,31.353,65.219,25.555z"/>
<path d="M72.191,21.451c-1.266,5.798-2.254,11.614-6.508,16.079c-0.813,0.852-1.826,2.342-3.064,1.1
	c-1.112-1.114,0.498-1.938,1.158-2.657c6.324-6.871,6.629-22.061,0.059-29.152c-0.688-0.744-2.645-1.681-0.95-2.905
	c1.207-0.875,2.229,0.66,3.045,1.558C70.061,10.027,71.006,15.837,72.191,21.451z"/>
<path d="M58.871,21.437c0,10.467-8.297,18.951-18.554,18.951c-10.234,0-18.532-8.484-18.532-18.951
	c0-10.468,8.298-18.953,18.532-18.953C50.574,2.484,58.871,10.969,58.871,21.437z"/>
<path d="M9.279,21.452c1.267,5.798,2.254,11.613,6.509,16.079c0.813,0.852,1.825,2.341,3.063,1.099
	c1.113-1.114-0.498-1.939-1.159-2.657c-6.321-6.871-6.626-22.061-0.058-29.153c0.689-0.742,2.643-1.68,0.952-2.904
	c-1.208-0.875-2.231,0.66-3.046,1.558C11.41,10.027,10.466,15.837,9.279,21.452z"/>
</svg>
