<?xml version="1.0" encoding="utf-8"?>
<!-- Generator: Adobe Illustrator 16.0.3, SVG Export Plug-In . SVG Version: 6.00 Build 0)  -->
<!DOCTYPE svg PUBLIC "-//W3C//DTD SVG 1.1//EN" "http://www.w3.org/Graphics/SVG/1.1/DTD/svg11.dtd">
<svg version="1.1" id="Layer_1" xmlns="http://www.w3.org/2000/svg" xmlns:xlink="http://www.w3.org/1999/xlink" x="0px" y="0px"
	 width="96px" height="96px" viewBox="0 0 96 96" enable-background="new 0 0 96 96" xml:space="preserve">
<g id="Layer_1_1_">
</g>
<path fill="none" d="M96.1,48.098c0,26.498-21.49,47.988-47.994,47.988c-26.51,0-48-21.49-48-47.988
	c0-26.507,21.49-47.998,48-47.998C74.609,0.1,96.1,21.59,96.1,48.098z"/>
<rect x="79.521" y="72.248" fill="#666666" width="8.999" height="9.6"/>
<rect x="62.105" y="72.248" fill="#666666" width="9" height="9.6"/>
<rect x="44.695" y="72.247" width="8.995" height="9.601"/>
<rect x="9.866" y="72.247" fill="#666666" width="8.999" height="9.601"/>
<rect x="27.281" y="72.248" fill="#666666" width="8.998" height="9.6"/>
<g>
	<g>
		<path d="M30.795,33.331c-0.312,1.186,0.389,2.399,1.569,2.716l7.296,1.96l-5.058-18.873L30.795,33.331z"/>
		<path d="M43.003,39.074c0.318,1.184,1.532,1.885,2.715,1.567l8.142-2.185L38.8,23.394L43.003,39.074z"/>
		<path d="M71.716,20.801L54.425,3.508c-0.409-0.407-0.962-0.634-1.534-0.634L41.082,2.868c-1.633,0-2.956,1.323-2.956,2.959v11.812
			c0,0.58,0.227,1.131,0.638,1.537L56.049,36.47c0.438,0.432,0.999,0.651,1.568,0.651c0.564,0,1.134-0.22,1.566-0.651l12.531-12.534
			C72.581,23.069,72.581,21.665,71.716,20.801z M44.528,11.043c-1.278,0-2.313-1.029-2.313-2.312c0-1.275,1.036-2.313,2.313-2.313
			c1.275,0,2.312,1.037,2.312,2.313C46.84,10.014,45.804,11.043,44.528,11.043z"/>
	</g>
	<path d="M47.085,43.446V58.65l-4.303-4.303l-3.396,3.394L49.484,67.84l10.098-10.099l-3.395-3.394l-4.304,4.301V43.446"/>
</g>
</svg>
