<?xml version="1.0" encoding="utf-8"?>
<!-- Generator: Adobe Illustrator 16.0.3, SVG Export Plug-In . SVG Version: 6.00 Build 0)  -->
<!DOCTYPE svg PUBLIC "-//W3C//DTD SVG 1.1//EN" "http://www.w3.org/Graphics/SVG/1.1/DTD/svg11.dtd">
<svg version="1.1" id="Layer_1" xmlns="http://www.w3.org/2000/svg" xmlns:xlink="http://www.w3.org/1999/xlink" x="0px" y="0px"
	 width="48px" height="48px" viewBox="0 0 48 48" enable-background="new 0 0 48 48" xml:space="preserve">
<g>
	<circle fill="#666666" cx="39.016" cy="13.838" r="2.699"/>
</g>
<g>
	<circle fill="#666666" cx="31.643" cy="18.672" r="2.699"/>
</g>
<g>
	<g>
		<circle fill="#666666" cx="28.447" cy="33.457" r="2.699"/>
	</g>
</g>
<g>
	<g>
		<circle fill="#666666" cx="22.088" cy="39.456" r="2.699"/>
	</g>
</g>
<g>
	<g>
		<path fill="#666666" d="M23.488,18.737c1.493,0,2.696,1.209,2.696,2.699c0,1.49-1.203,2.699-2.696,2.699
			c-1.491,0-2.699-1.209-2.699-2.699C20.789,19.946,21.998,18.737,23.488,18.737z"/>
	</g>
</g>
<g>
	<circle fill="#666666" cx="8.155" cy="29.359" r="2.697"/>
</g>
<g>
	<circle fill="#666666" cx="14.554" cy="22.3" r="2.698"/>
</g>
<g>
	<g>
		<circle fill="#666666" cx="36.219" cy="29.051" r="2.699"/>
	</g>
</g>
<g>
	<path fill="#666666" d="M43.449,23.705c1.49,0,2.699,1.207,2.699,2.689c0,1.486-1.209,2.694-2.699,2.694s-2.699-1.208-2.699-2.694
		C40.75,24.911,41.959,23.705,43.449,23.705z"/>
</g>
<g>
	<g>
		<circle fill="#666666" cx="12.221" cy="40.03" r="2.699"/>
	</g>
</g>
<g>
	
		<rect x="24.041" y="5.194" transform="matrix(-0.4276 -0.9039 0.9039 -0.4276 10.6454 62.5343)" fill="#333333" stroke="#000000" stroke-width="2" stroke-miterlimit="10" width="2.158" height="45.406"/>
</g>
<circle fill="none" cx="24" cy="24" r="24"/>
<line fill="none" stroke="#000000" stroke-miterlimit="10" x1="3.843" y1="12.755" x2="28.473" y2="1.337"/>
<line fill="none" stroke="#000000" stroke-miterlimit="10" x1="3.563" y1="12.748" x2="30.84" y2="12.748"/>
<path fill="none" stroke="#000000" stroke-width="2" stroke-miterlimit="10" d="M22.072,4.381c2.608,1.882,3.377,4.714,2.357,8.05"
	/>
<path fill="none" stroke="#000000" stroke-width="2" stroke-miterlimit="10" d="M22.581,2.745"/>
<g id="Arrow_25">
	<polygon fill="none" points="25.459,2.381 27.703,7.108 32.297,4.927 30.053,0.2 	"/>
	<g>
		<polygon fill="#231F20" points="27.201,1.554 28.327,3.924 26.584,4.752 30.001,6.018 31.178,2.57 29.436,3.398 28.31,1.027 		"/>
	</g>
</g>
<g id="Arrow_25_1_">
	<polygon fill="none" points="32.788,12.73 32.779,7.5 27.694,7.507 27.703,12.738 	"/>
	<g>
		<polygon fill="#231F20" points="30.859,12.733 30.854,10.11 32.784,10.107 30.236,7.503 27.698,10.115 29.628,10.112 
			29.633,12.735 		"/>
	</g>
</g>
</svg>
