<?xml version="1.0" encoding="utf-8"?>
<!-- Generator: Adobe Illustrator 16.0.3, SVG Export Plug-In . SVG Version: 6.00 Build 0)  -->
<!DOCTYPE svg PUBLIC "-//W3C//DTD SVG 1.1//EN" "http://www.w3.org/Graphics/SVG/1.1/DTD/svg11.dtd">
<svg version="1.1" id="Layer_1" xmlns="http://www.w3.org/2000/svg" xmlns:xlink="http://www.w3.org/1999/xlink" x="0px" y="0px"
	 width="48px" height="48px" viewBox="0 0 48 48" enable-background="new 0 0 48 48" xml:space="preserve">
<symbol  id="Arrow_25" viewBox="-22.86 -13.14 45.72 26.28">
	<polygon fill="none" points="-22.86,-13.14 22.86,-13.14 22.86,13.14 -22.86,13.14 	"/>
	<g>
		<polygon fill="#231F20" points="-22.86,-3.169 0.066,-3.169 0.066,-13.14 22.86,0.001 0.066,13.14 0.066,3.17 -22.86,3.17 		"/>
	</g>
</symbol>
<g>
	<circle fill="#666666" cx="39.016" cy="13.838" r="2.699"/>
</g>
<g>
	<circle fill="#666666" cx="31.642" cy="18.672" r="2.699"/>
</g>
<g>
	<g>
		<circle fill="#666666" cx="28.447" cy="33.457" r="2.699"/>
	</g>
</g>
<g>
	<g>
		<circle fill="#666666" cx="22.088" cy="39.456" r="2.699"/>
	</g>
</g>
<g>
	<g>
		<path fill="#666666" d="M23.488,18.737c1.493,0,2.695,1.209,2.695,2.699s-1.202,2.699-2.695,2.699
			c-1.491,0-2.699-1.209-2.699-2.699S21.998,18.737,23.488,18.737z"/>
	</g>
</g>
<g>
	<circle fill="#666666" cx="8.155" cy="29.359" r="2.697"/>
</g>
<g>
	<circle fill="#666666" cx="14.554" cy="22.3" r="2.698"/>
</g>
<g>
	<g>
		<circle fill="#666666" cx="36.219" cy="29.051" r="2.699"/>
	</g>
</g>
<g>
	<path fill="#666666" d="M43.449,23.705c1.49,0,2.699,1.207,2.699,2.69c0,1.486-1.209,2.694-2.699,2.694s-2.699-1.208-2.699-2.694
		C40.75,24.911,41.959,23.705,43.449,23.705z"/>
</g>
<g>
	<g>
		<circle fill="#666666" cx="12.221" cy="40.03" r="2.699"/>
	</g>
</g>
<g>
	
		<rect x="24.041" y="5.193" transform="matrix(0.4276 0.904 -0.904 0.4276 39.5965 -6.7397)" fill="#333333" stroke="#000000" stroke-width="2" stroke-miterlimit="10" width="2.158" height="45.405"/>
</g>
<circle fill="none" cx="24" cy="24" r="24"/>
<g>
	<line fill="none" stroke="#000000" stroke-miterlimit="10" x1="3.843" y1="12.755" x2="28.472" y2="1.337"/>
	<line fill="none" stroke="#000000" stroke-miterlimit="10" x1="3.563" y1="12.748" x2="30.84" y2="12.748"/>
	<path fill="none" stroke="#000000" stroke-width="2" stroke-miterlimit="10" d="M22.072,4.381c2.608,1.882,3.377,4.714,2.357,8.05"
		/>
	<path fill="none" stroke="#000000" stroke-width="2" stroke-miterlimit="10" d="M22.581,2.745"/>
	
		<use xlink:href="#Arrow_25"  width="45.72" height="26.28" x="-22.86" y="-13.14" transform="matrix(0.0491 0.1034 0.1748 -0.083 28.8779 3.6543)" overflow="visible"/>
	
		<use xlink:href="#Arrow_25"  width="45.72" height="26.28" x="-22.86" y="-13.14" transform="matrix(-2.000000e-004 -0.1144 -0.1935 3.000000e-004 30.2412 10.1187)" overflow="visible"/>
</g>
<g>
</g>
<g>
</g>
<g>
</g>
</svg>
