<?xml version="1.0" encoding="utf-8"?>
<!-- Generator: Adobe Illustrator 16.0.3, SVG Export Plug-In . SVG Version: 6.00 Build 0)  -->
<!DOCTYPE svg PUBLIC "-//W3C//DTD SVG 1.1//EN" "http://www.w3.org/Graphics/SVG/1.1/DTD/svg11.dtd">
<svg version="1.1" id="Layer_1" xmlns="http://www.w3.org/2000/svg" xmlns:xlink="http://www.w3.org/1999/xlink" x="0px" y="0px"
	 width="96px" height="96px" viewBox="0 0 96 96" enable-background="new 0 0 96 96" xml:space="preserve">
<g id="Layer_1_1_">
</g>
<path fill="none" stroke="#000000" stroke-width="0.01" stroke-miterlimit="10" d="M96.1,48.098
	c0,26.498-21.49,47.988-47.994,47.988c-26.51,0-48-21.49-48-47.988c0-26.507,21.49-47.998,48-47.998
	C74.609,0.1,96.1,21.59,96.1,48.098z"/>
<path fill="none" stroke="#999999" stroke-width="6" stroke-linecap="round" stroke-linejoin="round" stroke-miterlimit="10" d="
	M88.15,16.272c-60.501,11.54-70.879,70.475-70.879,70.475"/>
<path fill="none" stroke="#000000" stroke-width="3" stroke-linecap="round" stroke-linejoin="round" stroke-miterlimit="10" d="
	M95.887,34.294"/>
<path fill="#949494" d="M40.906,94.251c0.047,0.092,0.091,0.185,0.137,0.274c0.129-0.127,0.045-0.256,0.004-0.385
	C41,94.178,40.953,94.214,40.906,94.251z"/>
<path fill="#666666" d="M74.361,17.058L74.361,17.058c-1.338-3.278-4.106-5.242-6.195-4.386l-5.193,2.137
	c-2.089,0.855-2.695,4.207-1.355,7.486l0,0"/>
<path fill="#666666" d="M44.083,35.205L44.083,35.205c-2.514-2.494-5.843-3.219-7.438-1.613l-3.976,4.002
	c-1.592,1.604-0.845,4.926,1.671,7.422l0,0"/>
<path fill="#666666" d="M23.427,61.793L23.427,61.793c-3.246-1.422-6.611-0.898-7.521,1.172l-2.265,5.165
	c-0.909,2.07,0.984,4.901,4.229,6.324l0,0"/>
<path d="M66.982,29.326v7.556l-2.129-2.138L63.17,36.43l4.998,5.012l4.999-5.012l-1.679-1.686l-2.133,2.139v-7.557"/>
<path d="M32.506,64.971h7.556l-2.137,2.139l1.686,1.688l5.012-5.02l-5.012-5.019l-1.686,1.687l2.139,2.141h-7.558"/>
<g>
	<path d="M13.729,15.396c0.405-0.076,0.928-0.135,1.494-0.135c0.591,0,1.03,0.076,1.409,0.304c0.38,0.194,0.658,0.557,0.658,1.038
		c0,0.717-0.532,1.173-1.147,1.35v0.025c0.548,0.168,0.895,0.616,0.895,1.24c0,0.607-0.329,1.055-0.776,1.35
		c-0.481,0.321-1.198,0.456-2.144,0.456c-0.641,0-1.156-0.042-1.434-0.101L13.729,15.396z M14.033,20.054
		c0.143,0.017,0.287,0.025,0.464,0.025c0.658,0,1.257-0.262,1.257-0.895c0-0.565-0.473-0.734-1.038-0.734h-0.379L14.033,20.054z
		 M14.522,17.564h0.405c0.667,0,1.123-0.287,1.123-0.768c0-0.414-0.337-0.59-0.802-0.59c-0.211,0-0.38,0.017-0.473,0.042
		L14.522,17.564z"/>
	<path d="M21.281,18.577h-2.025l-0.262,1.375h2.27L21.07,20.99h-3.485l1.08-5.688h3.367l-0.203,1.038h-2.144l-0.236,1.215h2.025
		L21.281,18.577z"/>
	<path d="M23.516,19.514l-0.675,1.477H21.55l2.768-5.688h1.561l0.667,5.688h-1.274l-0.118-1.477H23.516z M25.103,18.585l-0.11-1.224
		c-0.025-0.312-0.059-0.768-0.084-1.114h-0.017c-0.143,0.346-0.304,0.785-0.456,1.114l-0.565,1.224H25.103z"/>
	<path d="M31.911,20.99l0.346-2.346c0.093-0.616,0.22-1.401,0.38-2.219h-0.025c-0.312,0.734-0.667,1.519-0.979,2.143l-1.164,2.329
		h-0.945l-0.203-2.304c-0.05-0.625-0.093-1.409-0.126-2.168h-0.017c-0.161,0.751-0.329,1.603-0.473,2.219L28.14,20.99h-1.114
		l1.426-5.688h1.629l0.177,2.16c0.034,0.532,0.093,1.182,0.101,1.814h0.034c0.219-0.633,0.523-1.299,0.768-1.814l1.055-2.16h1.646
		l-0.768,5.688H31.911z"/>
	<path d="M13.754,25.427h3.333l-0.202,1.038h-2.11l-0.261,1.333h1.983l-0.203,1.03H14.32l-0.43,2.287h-1.215L13.754,25.427z"/>
	<path d="M22.555,27.705c0,1.038-0.363,2.042-1.013,2.684c-0.531,0.515-1.249,0.818-2.101,0.818c-1.477,0-2.304-1.046-2.304-2.371
		c0-1.029,0.38-2.05,1.046-2.692c0.532-0.506,1.257-0.81,2.076-0.81C21.762,25.334,22.555,26.347,22.555,27.705z M19.137,26.777
		c-0.456,0.447-0.708,1.333-0.708,2.017c0,0.801,0.363,1.4,1.189,1.4c0.354,0,0.692-0.16,0.954-0.413
		c0.447-0.447,0.692-1.384,0.692-2.042c0-0.709-0.253-1.393-1.147-1.393C19.736,26.347,19.399,26.507,19.137,26.777z"/>
	<path d="M23.912,25.537c0.38-0.093,0.954-0.152,1.519-0.152c0.54,0,1.097,0.084,1.493,0.329c0.372,0.219,0.633,0.582,0.633,1.114
		c0,0.844-0.565,1.367-1.291,1.604v0.034c0.337,0.143,0.481,0.523,0.54,1.038c0.067,0.633,0.118,1.375,0.219,1.612h-1.249
		c-0.05-0.152-0.109-0.641-0.168-1.342c-0.051-0.692-0.287-0.903-0.768-0.903h-0.371l-0.422,2.245H22.84L23.912,25.537z
		 M24.646,27.958h0.506c0.658,0,1.139-0.396,1.139-0.954c0-0.456-0.388-0.658-0.869-0.658c-0.228,0-0.371,0.017-0.472,0.042
		L24.646,27.958z"/>
	<path d="M32.51,31.114l0.346-2.346c0.093-0.616,0.22-1.401,0.38-2.219H33.21c-0.312,0.734-0.667,1.519-0.979,2.143l-1.164,2.329
		h-0.945l-0.203-2.304c-0.05-0.625-0.093-1.409-0.126-2.168h-0.017c-0.161,0.751-0.329,1.603-0.473,2.219l-0.565,2.346h-1.114
		l1.426-5.688h1.629l0.177,2.16c0.034,0.532,0.093,1.182,0.101,1.814h0.034c0.219-0.633,0.523-1.299,0.768-1.814l1.055-2.16h1.646
		l-0.768,5.688H32.51z"/>
	<path d="M36.956,25.427l-1.08,5.688h-1.215l1.08-5.688H36.956z"/>
	<path d="M36.997,31.114l1.08-5.688h1.426l0.751,2.169c0.228,0.726,0.38,1.316,0.515,1.94h0.025
		c0.025-0.582,0.101-1.207,0.262-2.042l0.388-2.067h1.13l-1.071,5.688h-1.257l-0.793-2.271c-0.253-0.768-0.405-1.282-0.557-1.983
		l-0.025,0.009c-0.067,0.548-0.203,1.358-0.372,2.253l-0.371,1.991H36.997z"/>
	<path d="M47.316,30.853c-0.439,0.144-1.122,0.321-1.839,0.321c-0.785,0-1.426-0.203-1.899-0.625
		c-0.456-0.405-0.717-1.029-0.717-1.755c0-1.063,0.438-1.983,1.164-2.599c0.642-0.532,1.519-0.827,2.506-0.827
		c0.743,0,1.291,0.144,1.51,0.253l-0.363,1.029c-0.262-0.118-0.7-0.236-1.207-0.236c-0.565,0-1.072,0.161-1.451,0.456
		c-0.49,0.388-0.819,1.063-0.819,1.839c0,0.954,0.565,1.435,1.46,1.435c0.278,0,0.481-0.042,0.616-0.102l0.228-1.198h-0.877
		l0.186-0.97h2.067L47.316,30.853z"/>
</g>
<g>
	<path d="M32.912,3.199h1.876l-1.355,7.142h3.376l-0.313,1.642h-5.252L32.912,3.199z"/>
	<path d="M43.641,11.735c-0.469,0.208-1.264,0.378-2.32,0.378c-2.319,0-3.883-1.408-3.883-3.728c0-1.968,0.886-3.507,2.215-4.393
		c0.913-0.638,1.995-0.938,3.233-0.938c0.952,0,1.668,0.222,1.916,0.377l-0.508,1.525c-0.261-0.13-0.834-0.287-1.59-0.287
		s-1.473,0.235-2.007,0.678c-0.743,0.599-1.212,1.603-1.212,2.828c0,1.395,0.782,2.333,2.333,2.333c0.612,0,1.225-0.104,1.668-0.287
		L43.641,11.735z"/>
	<path d="M52.098,11.983l0.533-3.623c0.143-0.951,0.34-2.164,0.587-3.428h-0.04c-0.48,1.134-1.027,2.346-1.512,3.311l-1.797,3.597
		h-1.454l-0.313-3.558c-0.077-0.964-0.143-2.177-0.195-3.35h-0.025c-0.248,1.16-0.508,2.477-0.73,3.428l-0.874,3.623h-1.72
		l2.202-8.784h2.51l0.272,3.336c0.052,0.821,0.146,1.825,0.155,2.802h0.053c0.339-0.978,0.809-2.007,1.188-2.802l1.629-3.336h2.541
		l-1.187,8.784H52.098z"/>
	<path d="M57.354,11.983l-1.096-8.784H58.2l0.393,4.183c0.091,0.925,0.156,1.786,0.208,2.698h0.026C59.152,9.22,59.57,8.282,60,7.37
		l1.968-4.17h2.099l-4.535,8.784L57.354,11.983L57.354,11.983z"/>
</g>
<g>
	
		<path fill="#CCCCCC" stroke="#999999" stroke-width="3" stroke-linecap="round" stroke-linejoin="round" stroke-miterlimit="10" d="
		M110.42,111.535l6.236-77.675L98.77,21.208c-9.19,2.316-21.599,5.802-22.269,19.756c-0.301,6.239,6.556,12.163,9.839,16.988
		c0.758,1.114,10.26,11.474,7.873,12.9c-0.999,0.59-8.015-5.97-8.882-6.897c-3.299-3.514-5.263-5.443-8.367-9.238
		c-5.438-6.676-10.215-10.548-18.739-9.733c-7.191,0.691-10.257,8.942-10.257,8.942c-2.778,10.877,2.927,13.51,8.485,20.849
		c3.011,3.944,4.207,6.586,6.754,10.84c0.675,1.12,5.3,10.039,4.65,11.093c-1.56,2.512-10.146-10.835-10.994-11.85
		c-3.681-4.438-6.742-12.025-12.137-12.57c-12.102-1.223-16.866,12.406-20.167,22.54l4.914,13.164L110.42,111.535z"/>
	
		<path fill="#CCCCCC" stroke="#231F20" stroke-width="3" stroke-linecap="round" stroke-linejoin="round" stroke-miterlimit="10" d="
		M76.757,54.705c-5.438-6.661-10.215-10.533-18.739-9.718c-7.19,0.691-10.248,8.927-10.248,8.927
		c-2.778,10.877,2.92,13.51,8.477,20.849"/>
</g>
</svg>
