<?xml version="1.0" encoding="utf-8"?>
<!-- Generator: Adobe Illustrator 16.0.3, SVG Export Plug-In . SVG Version: 6.00 Build 0)  -->
<!DOCTYPE svg PUBLIC "-//W3C//DTD SVG 1.1//EN" "http://www.w3.org/Graphics/SVG/1.1/DTD/svg11.dtd">
<svg version="1.1" xmlns="http://www.w3.org/2000/svg" xmlns:xlink="http://www.w3.org/1999/xlink" x="0px" y="0px" width="96px"
	 height="96px" viewBox="0 0 96 96" enable-background="new 0 0 96 96" xml:space="preserve">
<g id="Layer_1">
</g>
<g id="Layer_2">
	<path fill="none" d="M96.1,48.098c0,26.498-21.49,47.988-47.994,47.988c-26.51,0-48-21.49-48-47.988
		c0-26.507,21.49-47.998,48-47.998C74.609,0.1,96.1,21.59,96.1,48.098z"/>
	<path d="M69.468,54.171c0.116-1.004,0.235-2.006,0.235-3.011c0-7.382-3.661-14.174-9.862-18.189l-2.125,3.247
		c5.079,3.309,8.09,8.858,8.09,14.942c0,0.59-0.059,1.182-0.059,1.713c-0.178,0-0.415,0-0.649,0c-4.488,0-8.15,3.661-8.15,8.148
		c0,4.488,3.662,8.149,8.15,8.149c4.486,0,8.148-3.661,8.148-8.149C73.246,58.129,71.712,55.589,69.468,54.171z M65.098,65.332
		c-2.362,0-4.253-1.948-4.253-4.251c0-2.363,1.95-4.253,4.253-4.253c2.362,0,4.251,1.948,4.251,4.253
		C69.408,63.384,67.46,65.332,65.098,65.332z M47.971,69.054c-3.72,0-7.382-1.184-10.394-3.367c0.944-1.358,1.477-2.953,1.477-4.724
		c0-4.488-3.661-8.148-8.15-8.148c-4.487,0-8.149,3.66-8.149,8.148s3.662,8.149,8.149,8.149c1.3,0,2.54-0.296,3.661-0.888
		c3.78,3.014,8.505,4.607,13.348,4.607c3.308,0,6.436-0.706,9.391-2.125l-1.655-3.484C53.287,68.465,50.688,69.054,47.971,69.054z
		 M26.652,61.021c0-2.362,1.948-4.251,4.251-4.251c2.363,0,4.252,1.947,4.252,4.251c0,2.362-1.948,4.253-4.252,4.253
		C28.601,65.332,26.652,63.384,26.652,61.021z M38.817,35.804c0.532-0.294,1.063-0.589,1.595-0.827
		c1.358,2.659,4.074,4.489,7.263,4.489c4.49,0,8.151-3.663,8.151-8.151c0-4.487-3.661-8.148-8.151-8.148
		c-4.429,0-8.03,3.542-8.148,7.971c-0.945,0.414-1.831,0.886-2.718,1.358c-6.318,3.78-10.216,10.453-10.452,17.836l3.839,0.117
		C30.431,44.427,33.68,38.935,38.817,35.804z M47.734,27.006c2.362,0,4.252,1.95,4.252,4.252c0,2.362-1.948,4.251-4.252,4.251
		c-2.362,0-4.252-1.949-4.252-4.251C43.424,28.956,45.372,27.006,47.734,27.006z"/>
	<path fill="none" stroke="#231F20" stroke-width="3" stroke-linejoin="round" stroke-miterlimit="10" d="M81.12,68.563
		c0,7.236-5.866,13.104-13.103,13.104H27.982c-7.236,0-13.103-5.867-13.103-13.104V27.436c0-7.236,5.866-13.103,13.103-13.103
		h40.035c7.236,0,13.103,5.866,13.103,13.103V68.563z"/>
</g>
</svg>
