<?xml version="1.0" encoding="utf-8"?>
<!-- Generator: Adobe Illustrator 16.0.3, SVG Export Plug-In . SVG Version: 6.00 Build 0)  -->
<!DOCTYPE svg PUBLIC "-//W3C//DTD SVG 1.1//EN" "http://www.w3.org/Graphics/SVG/1.1/DTD/svg11.dtd">
<svg version="1.1" id="Layer_1" xmlns="http://www.w3.org/2000/svg" xmlns:xlink="http://www.w3.org/1999/xlink" x="0px" y="0px"
	 width="48px" height="48px" viewBox="0 0 48 48" enable-background="new 0 0 48 48" xml:space="preserve">
<polygon fill="#666666" points="24.973,33.691 24.973,10.363 23.027,10.363 23.027,33.691 4.56,33.691 4.56,35.635 23.027,35.635 
	24.973,35.635 43.439,35.635 43.439,33.691 "/>
<g>
	<path d="M4.681,35.563V33.62c9.984,0,13.833-4.906,17.907-10.104c4.374-5.577,8.92-11.358,20.857-11.28l-0.012,1.944
		c-11.023-0.083-15.043,5.086-19.315,10.535C19.937,30.049,15.612,35.563,4.681,35.563z"/>
</g>
<g>
	<path fill="none" d="M74,23c0,27.614-22.386,50-50,50s-50-22.386-50-50c0-27.615,25.052-50,50-50C51.614-27,74-4.614,74,23z"/>
</g>
<g>
	<path fill="none" d="M74,23c0,27.614-22.386,50-50,50s-50-22.386-50-50c0-27.615,25.052-50,50-50C51.614-27,74-4.614,74,23z"/>
</g>
<g>
	<path fill="none" d="M74,23c0,27.614-22.386,50-50,50s-50-22.386-50-50c0-27.615,25.052-50,50-50C51.614-27,74-4.614,74,23z"/>
</g>
<circle fill="none" cx="24" cy="24" r="24"/>
</svg>
