<?xml version="1.0" encoding="utf-8"?>
<!-- Generator: Adobe Illustrator 16.0.3, SVG Export Plug-In . SVG Version: 6.00 Build 0)  -->
<!DOCTYPE svg PUBLIC "-//W3C//DTD SVG 1.1//EN" "http://www.w3.org/Graphics/SVG/1.1/DTD/svg11.dtd">
<svg version="1.1" id="Layer_1" xmlns="http://www.w3.org/2000/svg" xmlns:xlink="http://www.w3.org/1999/xlink" x="0px" y="0px"
	 width="48px" height="48px" viewBox="0 0 48 48" enable-background="new 0 0 48 48" xml:space="preserve">
<g>
	<path d="M4.681,35.563V33.62c9.984,0,13.833-4.906,17.907-10.104c4.374-5.577,8.92-11.358,20.857-11.28l-0.012,1.944
		c-11.023-0.083-15.043,5.086-19.315,10.535C19.937,30.049,15.612,35.563,4.681,35.563z"/>
</g>
<g>
	<path fill="none" d="M74,23c0,27.614-22.387,50-50,50c-27.614,0-50-22.386-50-50c0-27.615,25.052-50,50-50
		C51.613-27,74-4.614,74,23z"/>
</g>
<g>
	<path fill="none" d="M74,23c0,27.614-22.387,50-50,50c-27.614,0-50-22.386-50-50c0-27.615,25.052-50,50-50
		C51.613-27,74-4.614,74,23z"/>
</g>
<g>
	<path fill="none" d="M74,23c0,27.614-22.387,50-50,50c-27.614,0-50-22.386-50-50c0-27.615,25.052-50,50-50
		C51.613-27,74-4.614,74,23z"/>
</g>
<circle fill="none" cx="24" cy="24" r="24"/>
<polygon fill="#333333" stroke="#333333" stroke-width="0.5" stroke-miterlimit="10" points="37.767,6.322 34.785,10.485 
	40.749,10.485 "/>
<polygon fill="#333333" stroke="#333333" stroke-width="0.5" stroke-miterlimit="10" points="27.979,7.333 24.998,11.496 
	30.962,11.496 "/>
<polygon fill="#333333" stroke="#333333" stroke-width="0.5" stroke-miterlimit="10" points="17.683,7.832 14.701,11.995 
	20.665,11.995 "/>
<polygon fill="#333333" stroke="#333333" stroke-width="0.5" stroke-miterlimit="10" points="8.582,7.832 5.6,11.995 11.564,11.995 
	"/>
<g>
	<g>
		<circle fill="#666666" cx="21.299" cy="38.262" r="2.699"/>
	</g>
</g>
<g>
	<g>
		<circle fill="#666666" cx="11.565" cy="39.276" r="2.699"/>
	</g>
</g>
<g>
	<g>
		<circle fill="#666666" cx="32.881" cy="41.476" r="2.699"/>
	</g>
</g>
<g>
	<g>
		<circle fill="#666666" cx="39.584" cy="36.577" r="2.699"/>
	</g>
</g>
<g>
	<g>
		<circle fill="#666666" cx="24.998" cy="44.175" r="2.699"/>
	</g>
</g>
<polygon fill="#333333" stroke="#333333" stroke-width="0.5" stroke-miterlimit="10" points="26.695,1.75 23.714,5.913 
	29.678,5.913 "/>
<g>
	<g>
		<circle fill="#666666" cx="30.963" cy="34.461" r="2.699"/>
	</g>
</g>
<polygon fill="#333333" stroke="#333333" stroke-width="0.5" stroke-miterlimit="10" points="18.316,1.75 15.334,5.913 
	21.298,5.913 "/>
</svg>
