<?xml version="1.0" encoding="utf-8"?>
<!-- Generator: Adobe Illustrator 16.0.3, SVG Export Plug-In . SVG Version: 6.00 Build 0)  -->
<!DOCTYPE svg PUBLIC "-//W3C//DTD SVG 1.1//EN" "http://www.w3.org/Graphics/SVG/1.1/DTD/svg11.dtd">
<svg version="1.1" id="Layer_1" xmlns="http://www.w3.org/2000/svg" xmlns:xlink="http://www.w3.org/1999/xlink" x="0px" y="0px"
	 width="96px" height="96px" viewBox="0 0 96 96" enable-background="new 0 0 96 96" xml:space="preserve">
<line fill="none" stroke="#000000" stroke-width="4" stroke-linecap="round" stroke-linejoin="round" stroke-miterlimit="10" x1="12.18" y1="21.103" x2="12.18" y2="49.691"/>
<line fill="none" stroke="#000000" stroke-width="4" stroke-linecap="round" stroke-linejoin="round" stroke-miterlimit="10" x1="19.38" y1="21.103" x2="19.38" y2="49.691"/>
<line fill="none" stroke="#999999" stroke-width="4" stroke-linecap="round" stroke-linejoin="round" stroke-miterlimit="10" x1="26.581" y1="21.103" x2="26.581" y2="49.691"/>
<line fill="none" stroke="#000000" stroke-width="4" stroke-linecap="round" stroke-linejoin="round" stroke-miterlimit="10" x1="33.782" y1="21.103" x2="33.782" y2="49.691"/>
<line fill="none" stroke="#999999" stroke-width="4" stroke-linecap="round" stroke-linejoin="round" stroke-miterlimit="10" x1="40.982" y1="21.103" x2="40.982" y2="49.691"/>
<line fill="none" stroke="#999999" stroke-width="4" stroke-linecap="round" stroke-linejoin="round" stroke-miterlimit="10" x1="48.183" y1="21.103" x2="48.183" y2="49.691"/>
<line fill="none" stroke="#000000" stroke-width="4" stroke-linecap="round" stroke-linejoin="round" stroke-miterlimit="10" x1="55.384" y1="21.103" x2="55.384" y2="49.689"/>
<line fill="none" stroke="#999999" stroke-width="4" stroke-linecap="round" stroke-linejoin="round" stroke-miterlimit="10" x1="62.584" y1="21.103" x2="62.584" y2="49.689"/>
<line fill="none" stroke="#999999" stroke-width="4" stroke-linecap="round" stroke-linejoin="round" stroke-miterlimit="10" x1="69.785" y1="21.103" x2="69.785" y2="49.691"/>
<line fill="none" stroke="#999999" stroke-width="4" stroke-linecap="round" stroke-linejoin="round" stroke-miterlimit="10" x1="76.985" y1="21.103" x2="76.985" y2="49.691"/>
<line fill="none" stroke="#000000" stroke-width="4" stroke-linecap="round" stroke-linejoin="round" stroke-miterlimit="10" x1="84.752" y1="21.103" x2="84.752" y2="49.691"/>
<line fill="none" stroke="#000000" stroke-miterlimit="10" x1="12.544" y1="51.461" x2="26.581" y2="70.392"/>
<line fill="none" stroke="#000000" stroke-miterlimit="10" x1="19.38" y1="49.691" x2="36.787" y2="68.611"/>
<line fill="none" stroke="#000000" stroke-miterlimit="10" x1="33.782" y1="49.691" x2="47.355" y2="68.201"/>
<line fill="none" stroke="#000000" stroke-miterlimit="10" x1="55.384" y1="49.689" x2="57.923" y2="68.622"/>
<line fill="none" stroke="#000000" stroke-miterlimit="10" x1="84.752" y1="49.691" x2="68.49" y2="68.622"/>
<line fill="none" stroke="#000000" stroke-width="4" stroke-linecap="round" stroke-linejoin="round" stroke-miterlimit="10" x1="26.217" y1="68.622" x2="26.217" y2="87.439"/>
<line fill="none" stroke="#000000" stroke-width="4" stroke-linecap="round" stroke-linejoin="round" stroke-miterlimit="10" x1="36.787" y1="68.611" x2="36.787" y2="87.428"/>
<line fill="none" stroke="#000000" stroke-width="4" stroke-linecap="round" stroke-linejoin="round" stroke-miterlimit="10" x1="68.49" y1="68.622" x2="68.49" y2="87.439"/>
<line fill="none" stroke="#000000" stroke-width="4" stroke-linecap="round" stroke-linejoin="round" stroke-miterlimit="10" x1="57.923" y1="68.622" x2="57.923" y2="87.439"/>
<line fill="none" stroke="#000000" stroke-width="4" stroke-linecap="round" stroke-linejoin="round" stroke-miterlimit="10" x1="47.355" y1="68.622" x2="47.355" y2="87.439"/>
<g>
	<g>
		<line fill="none" stroke="#000000" stroke-miterlimit="10" x1="18.053" y1="58.996" x2="16.798" y2="57.364"/>
		<g>
			<polygon points="19.983,56.352 20.81,62.579 15.003,60.183 			"/>
		</g>
	</g>
</g>
<g>
	<g>
		<line fill="none" stroke="#000000" stroke-miterlimit="10" x1="27.24" y1="58.26" x2="25.831" y2="56.761"/>
		<g>
			<polygon points="28.899,55.438 30.337,61.554 24.322,59.742 			"/>
		</g>
	</g>
</g>
<g>
	<g>
		<line fill="none" stroke="#000000" stroke-miterlimit="10" x1="39.818" y1="57.971" x2="38.563" y2="56.338"/>
		<g>
			<polygon points="41.748,55.326 42.574,61.553 36.768,59.156 			"/>
		</g>
	</g>
</g>
<g>
	<g>
		<line fill="none" stroke="#000000" stroke-miterlimit="10" x1="56.478" y1="57.726" x2="56.184" y2="55.69"/>
		<g>
			<polygon points="59.455,56.367 57.124,62.2 53.237,57.265 			"/>
		</g>
	</g>
</g>
<g>
	<g>
		<line fill="none" stroke="#000000" stroke-miterlimit="10" x1="77.245" y1="58.368" x2="78.647" y2="56.861"/>
		<g>
			<polygon points="80.17,59.836 74.164,61.677 75.572,55.555 			"/>
		</g>
	</g>
</g>
</svg>
