<?xml version="1.0" encoding="utf-8"?>
<!-- Generator: Adobe Illustrator 16.0.3, SVG Export Plug-In . SVG Version: 6.00 Build 0)  -->
<!DOCTYPE svg PUBLIC "-//W3C//DTD SVG 1.1//EN" "http://www.w3.org/Graphics/SVG/1.1/DTD/svg11.dtd">
<svg version="1.1" id="Layer_1" xmlns="http://www.w3.org/2000/svg" xmlns:xlink="http://www.w3.org/1999/xlink" x="0px" y="0px"
	 width="100px" height="100px" viewBox="0 0 100 100" enable-background="new 0 0 100 100" xml:space="preserve">
<g id="Captions">
</g>
<g id="Your_Icon">
	<g>
		<path d="M80.24,71.631c0,0.002,0,0.607,0,1.588c0,0.979,0,2.327,0,3.813c-0.002,0.287-0.063,0.55-0.188,0.816
			c-0.186,0.396-0.535,0.799-1.025,1.096c-0.49,0.299-1.104,0.487-1.788,0.487H53.238c-0.909,0.003-1.701-0.339-2.23-0.815
			c-0.262-0.238-0.457-0.502-0.582-0.767c-0.125-0.268-0.185-0.53-0.187-0.817c0-1.486,0-2.836,0-3.813c0-0.979,0-1.586,0-1.588h-6
			c0,0.002,0,0.607,0,1.588c0,0.979,0,2.327,0,3.813c-0.001,1.199,0.275,2.354,0.76,3.377c0.729,1.539,1.905,2.791,3.331,3.659
			s3.118,1.364,4.908,1.364h24.001c2.391-0.002,4.597-0.877,6.244-2.355c0.824-0.742,1.511-1.641,1.995-2.668
			c0.484-1.023,0.762-2.178,0.761-3.377c0-1.486,0-2.836,0-3.813c0-0.979,0-1.586,0-1.588H80.24z"/>
		<path d="M61.78,49.891c0.659,0.663,1.059,1.553,1.06,2.541v14.006l-4.303-4.303l-3.394,3.395l10.096,10.097l10.098-10.097
			l-3.394-3.395l-4.304,4.304V52.432c0.001-2.313-0.951-4.424-2.466-5.936c-1.511-1.515-3.623-2.465-5.934-2.465h-7.2v4.8h7.2
			C60.228,48.832,61.115,49.23,61.78,49.891z"/>
	</g>
</g>
<text transform="matrix(1 0 0 1 14.1328 37.4023)" stroke="#000000" stroke-width="2" stroke-linecap="round" stroke-linejoin="round" stroke-miterlimit="10" font-family="'MyriadPro-Regular'" font-size="32.4">LSL</text>
<g>
	<path fill="none" d="M99,50c0,27.614-22.386,50-50,50S-1,77.614-1,50C-1,22.385,24.052,0,49,0C76.614,0,99,22.386,99,50z"/>
</g>
</svg>
