<?xml version="1.0" encoding="utf-8"?>
<!-- Generator: Adobe Illustrator 16.0.3, SVG Export Plug-In . SVG Version: 6.00 Build 0)  -->
<!DOCTYPE svg PUBLIC "-//W3C//DTD SVG 1.1//EN" "http://www.w3.org/Graphics/SVG/1.1/DTD/svg11.dtd">
<svg version="1.1" id="Layer_1" xmlns="http://www.w3.org/2000/svg" xmlns:xlink="http://www.w3.org/1999/xlink" x="0px" y="0px"
	 width="100px" height="100px" viewBox="0 0 100 100" enable-background="new 0 0 100 100" xml:space="preserve">
<g id="Captions">
</g>
<g>
	<path stroke="#000000" stroke-width="2" stroke-linecap="round" stroke-linejoin="round" stroke-miterlimit="10" d="M44.143,11.696
		h2.818v19.469h9.33v2.365H44.143V11.696z"/>
	<path stroke="#000000" stroke-width="2" stroke-linecap="round" stroke-linejoin="round" stroke-miterlimit="10" d="M59.046,30.097
		c1.264,0.777,3.11,1.425,5.054,1.425c2.883,0,4.567-1.522,4.567-3.726c0-2.041-1.166-3.207-4.114-4.341
		c-3.563-1.263-5.766-3.11-5.766-6.188c0-3.401,2.818-5.928,7.062-5.928c2.235,0,3.855,0.518,4.827,1.069l-0.777,2.3
		c-0.713-0.389-2.171-1.037-4.146-1.037c-2.98,0-4.114,1.782-4.114,3.272c0,2.041,1.328,3.045,4.341,4.211
		c3.692,1.425,5.571,3.207,5.571,6.414c0,3.369-2.494,6.284-7.645,6.284c-2.105,0-4.406-0.615-5.572-1.393L59.046,30.097z"/>
	<path stroke="#000000" stroke-width="2" stroke-linecap="round" stroke-linejoin="round" stroke-miterlimit="10" d="M75.407,11.696
		h2.818v19.469h9.33v2.365H75.407V11.696z"/>
</g>
<g id="Your_Icon">
	<g>
		<path d="M48.429,71.443c0,0.979,0,2.329,0,3.814c-0.001,0.287-0.062,0.549-0.187,0.814c-0.187,0.397-0.537,0.799-1.027,1.097
			c-0.489,0.3-1.103,0.488-1.787,0.488h-24c-0.91,0.003-1.703-0.339-2.23-0.815c-0.264-0.238-0.458-0.504-0.583-0.768
			c-0.124-0.268-0.185-0.529-0.186-0.816c0-1.486,0-2.836,0-3.814c0-0.977,0-1.585,0-1.586h-6c0,0.001,0,0.607,0,1.586
			c0,0.979,0,2.329,0,3.814c-0.001,1.197,0.275,2.353,0.76,3.377c0.729,1.539,1.905,2.79,3.33,3.659
			c1.426,0.868,3.118,1.363,4.909,1.363h24c2.39-0.002,4.597-0.876,6.243-2.356c0.824-0.741,1.512-1.641,1.996-2.666
			c0.485-1.024,0.762-2.18,0.76-3.377c0-1.486,0-2.836,0-3.814c0-0.977,0-1.585,0-1.586h-5.999
			C48.429,69.858,48.429,70.465,48.429,71.443z"/>
		<path d="M28.029,74.656h10.799c1.326,0,2.4-1.074,2.4-2.399s-1.074-2.399-2.4-2.399h-3v-14.4c0.001-0.988,0.399-1.877,1.06-2.539
			c0.663-0.661,1.552-1.061,2.54-1.061h6.207l-4.303,4.303l3.394,3.395l10.098-10.098L44.726,39.361l-3.394,3.394l4.302,4.302
			h-6.206c-2.312,0-4.422,0.951-5.935,2.466c-1.514,1.512-2.465,3.622-2.465,5.935v14.4h-3c-1.326,0-2.4,1.074-2.4,2.399
			S26.703,74.656,28.029,74.656z"/>
	</g>
</g>
<g>
	<path fill="none" d="M100,50c0,27.614-22.386,50-50,50S0,77.614,0,50C0,22.385,25.052,0,50,0C77.614,0,100,22.386,100,50z"/>
</g>
</svg>
