<?xml version="1.0" encoding="utf-8"?>
<!-- Generator: Adobe Illustrator 16.0.3, SVG Export Plug-In . SVG Version: 6.00 Build 0)  -->
<!DOCTYPE svg PUBLIC "-//W3C//DTD SVG 1.1//EN" "http://www.w3.org/Graphics/SVG/1.1/DTD/svg11.dtd">
<svg version="1.1" id="Layer_1" xmlns="http://www.w3.org/2000/svg" xmlns:xlink="http://www.w3.org/1999/xlink" x="0px" y="0px"
	 width="96px" height="96px" viewBox="0 0 96 96" enable-background="new 0 0 96 96" xml:space="preserve">
<circle fill="none" cx="48" cy="48" r="48"/>
<g>
	<g>
		<line fill="none" stroke="#666666" stroke-miterlimit="10" x1="21.483" y1="16.262" x2="21.483" y2="82.501"/>
		<g>
			<polygon fill="#666666" points="17.494,17.429 21.483,10.521 25.472,17.429 			"/>
		</g>
	</g>
</g>
<g>
	<g>
		<line fill="none" stroke="#666666" stroke-miterlimit="10" x1="10.766" y1="74.969" x2="77.007" y2="74.969"/>
		<g>
			<polygon fill="#666666" points="75.84,78.958 82.748,74.969 75.84,70.979 			"/>
		</g>
	</g>
</g>
<g>
	<g>
		<line fill="none" stroke="#000000" stroke-width="2" stroke-miterlimit="10" x1="21.43" y1="74.876" x2="57.917" y2="31.051"/>
		<g>
			<polygon points="61.164,35.88 63.061,24.875 52.58,28.734 			"/>
		</g>
	</g>
</g>
<g enable-background="new    ">
	<path d="M43.403,78.473c0.705-0.144,1.713-0.224,2.673-0.224c1.488,0,2.449,0.271,3.121,0.88c0.545,0.48,0.849,1.217,0.849,2.049
		c0,1.426-0.896,2.369-2.033,2.754v0.049c0.833,0.287,1.329,1.056,1.584,2.177c0.353,1.504,0.607,2.545,0.832,2.961H48.99
		c-0.178-0.304-0.416-1.232-0.72-2.577c-0.32-1.488-0.896-2.049-2.161-2.098h-1.313v4.675h-1.393V78.473z M44.795,83.387h1.425
		c1.489,0,2.432-0.816,2.432-2.049c0-1.393-1.008-2.001-2.48-2.018c-0.672,0-1.153,0.063-1.377,0.129V83.387z"/>
	<path d="M52.811,85.5c0.033,1.904,1.25,2.688,2.658,2.688c1.008,0,1.616-0.176,2.145-0.398l0.24,1.008
		c-0.496,0.225-1.345,0.48-2.576,0.48c-2.387,0-3.811-1.568-3.811-3.905s1.377-4.179,3.633-4.179c2.529,0,3.201,2.226,3.201,3.649
		c0,0.288-0.031,0.513-0.047,0.656L52.811,85.5L52.811,85.5z M56.941,84.491c0.016-0.896-0.369-2.289-1.953-2.289
		c-1.426,0-2.049,1.313-2.161,2.289H56.941z"/>
</g>
<g enable-background="new    ">
	<path d="M5.271,39.064v10.788H3.878V39.064H5.271z"/>
	<path d="M7.814,44.202c0-0.8-0.016-1.456-0.064-2.097h1.232l0.064,1.248h0.048c0.432-0.736,1.152-1.424,2.433-1.424
		c1.057,0,1.857,0.64,2.193,1.553h0.032c0.24-0.433,0.544-0.769,0.864-1.009c0.464-0.353,0.977-0.544,1.713-0.544
		c1.024,0,2.545,0.672,2.545,3.361v4.562h-1.376v-4.386c0-1.488-0.544-2.385-1.681-2.385c-0.8,0-1.425,0.592-1.665,1.28
		c-0.064,0.192-0.112,0.448-0.112,0.704v4.787h-1.376v-4.643c0-1.232-0.544-2.129-1.617-2.129c-0.88,0-1.521,0.704-1.745,1.408
		c-0.08,0.208-0.112,0.448-0.112,0.688v4.674H7.814V44.202z"/>
</g>
<g enable-background="new    ">
	<path d="M48.947,61.008c-2.071-1.874-3.985-0.346-5.441,1.264c-1.165,1.287-2.212,2.68-3.26,4.072
		c-1.049,1.393-2.056,2.74-3.221,4.026c-3.827,4.229-7.199,4.438-9.678,2.194l-0.612-0.555l2.288-2.529l0.524,0.477
		c1.722,1.557,3.635,0.613,5.881-1.869c0.957-1.057,1.869-2.238,2.75-3.447c0.924-1.255,1.834-2.438,2.958-3.679
		c2.634-2.968,4.782-3.7,6.593-3.063l0.083-0.092c-0.855-1.693-0.257-3.996,2.433-6.912c1.124-1.24,2.252-2.311,3.367-3.308
		c1.156-1.043,2.2-2.022,3.199-3.125c2.329-2.574,2.949-4.606,1.314-6.084l-0.523-0.476l2.287-2.528l0.613,0.555
		c2.42,2.191,2.73,5.483-1.471,10.125c-1.124,1.241-2.404,2.422-3.645,3.558c-1.24,1.135-2.48,2.271-3.604,3.512
		c-1.29,1.425-2.787,3.665-0.717,5.54L48.947,61.008z"/>
</g>
</svg>
