<?xml version="1.0" encoding="utf-8"?>
<!-- Generator: Adobe Illustrator 16.0.3, SVG Export Plug-In . SVG Version: 6.00 Build 0)  -->
<!DOCTYPE svg PUBLIC "-//W3C//DTD SVG 1.1//EN" "http://www.w3.org/Graphics/SVG/1.1/DTD/svg11.dtd">
<svg version="1.1" id="Layer_1" xmlns="http://www.w3.org/2000/svg" xmlns:xlink="http://www.w3.org/1999/xlink" x="0px" y="0px"
	 width="96px" height="96px" viewBox="0 0 96 96" enable-background="new 0 0 96 96" xml:space="preserve">
<g id="Layer_1_1_">
</g>
<circle fill="none" cx="48" cy="47.8" r="48"/>
<g>
	<polygon fill="#666666" points="13.429,37.602 7.029,34.413 7.029,26.434 13.429,29.625 	"/>
	<polygon fill="#666666" points="15.029,37.602 20.896,34.413 20.896,26.434 15.029,29.625 	"/>
	<polygon fill="#666666" points="20.648,24.739 14.144,27.928 7.564,24.739 14.144,21.623 	"/>
</g>
<polygon points="66.584,60 60.186,56.808 60.186,48.853 66.584,52.028 "/>
<polygon points="68.186,60 74.051,56.808 74.051,48.853 68.186,52.028 "/>
<g>
	<polygon fill="#666666" points="66.68,50.192 60.28,47.004 60.28,39.025 66.68,42.217 	"/>
	<polygon fill="#666666" points="68.28,50.192 74.146,47.004 74.146,39.025 68.28,42.217 	"/>
	<polygon fill="#666666" points="73.9,37.331 67.394,40.52 60.815,37.331 67.394,34.214 	"/>
</g>
<g>
	<polygon points="13.431,72.98 7.031,69.789 7.031,61.835 13.431,65.01 	"/>
	<polygon points="15.031,72.98 20.896,69.789 20.896,61.835 15.031,65.01 	"/>
	<polygon points="20.652,60.479 14.146,63.668 7.568,60.479 14.146,57.361 	"/>
</g>
<g>
	<polygon fill="#666666" points="31.64,39.704 25.242,36.515 25.242,28.536 31.64,31.727 	"/>
	<polygon fill="#666666" points="33.242,39.704 39.107,36.515 39.107,28.536 33.242,31.727 	"/>
	<polygon fill="#666666" points="38.861,26.841 32.355,30.03 25.777,26.841 32.355,23.725 	"/>
</g>
<g>
	<polygon points="31.642,70.891 25.242,67.697 25.242,59.743 31.642,62.918 	"/>
	<polygon points="33.242,70.891 39.107,67.697 39.107,59.743 33.242,62.918 	"/>
	<polygon points="38.863,58.387 32.357,61.576 25.779,58.387 32.357,55.27 	"/>
</g>
<polygon points="84.751,60.5 78.353,57.308 78.353,49.353 84.751,52.528 "/>
<polygon points="86.353,60.5 92.218,57.308 92.218,49.353 86.353,52.528 "/>
<g>
	<polygon fill="#666666" points="84.847,50.692 78.447,47.504 78.447,39.525 84.847,42.717 	"/>
	<polygon fill="#666666" points="86.447,50.692 92.313,47.504 92.313,39.525 86.447,42.717 	"/>
	<polygon fill="#666666" points="92.067,37.831 85.561,41.02 78.982,37.831 85.561,34.714 	"/>
</g>
<g>
	<polygon fill="#666666" points="49.516,47.478 43.117,44.289 43.117,36.31 49.516,39.501 	"/>
	<polygon fill="#666666" points="51.117,47.478 56.982,44.289 56.982,36.31 51.117,39.501 	"/>
	<polygon fill="#666666" points="56.736,34.615 50.23,37.804 43.652,34.615 50.23,31.499 	"/>
</g>
<g>
	<polygon points="49.393,64.479 42.992,61.285 42.992,53.331 49.393,56.506 	"/>
	<polygon points="50.992,64.479 56.857,61.285 56.857,53.331 50.992,56.506 	"/>
	<polygon points="56.613,51.975 50.107,55.164 43.529,51.975 50.107,48.857 	"/>
</g>
</svg>
