<?xml version="1.0" encoding="utf-8"?>
<!-- Generator: Adobe Illustrator 16.0.3, SVG Export Plug-In . SVG Version: 6.00 Build 0)  -->
<!DOCTYPE svg PUBLIC "-//W3C//DTD SVG 1.1//EN" "http://www.w3.org/Graphics/SVG/1.1/DTD/svg11.dtd">
<svg version="1.1" id="Layer_1" xmlns="http://www.w3.org/2000/svg" xmlns:xlink="http://www.w3.org/1999/xlink" x="0px" y="0px"
	 width="96px" height="96px" viewBox="0 0 96 96" enable-background="new 0 0 96 96" xml:space="preserve">
<circle fill="none" cx="48" cy="48" r="48"/>
<path fill="#CCCCCC" d="M19.845,26.693c0.546,2.321,2.059,6.878,2.77,8.689c0.984,2.507,2.28,9.232,4.956,9.846
	c0.946,0.217,2.715-1.21,3.369-1.928c1.156-1.27,1.98-7.326,3.697-7.378c1.696-0.053,2.223,3.882,2.884,5.833
	c0.578,1.707,2.519,5.481,3.279,6.961c0.946,1.845,2.779,5.666,3.778,7.519c0.708,1.313,2.245,3.859,3.206,5.024
	c0.755,0.919,2.196,2.896,3.012,3.767c0.872,0.933,2.448,3.496,3.726,3.44c1.19-0.049,2.367-2.807,3.131-3.725
	c0.84-1.007,2.386-2.849,3.68-2.88c1.089-0.024,2.723,1.734,3.557,2.437c0.854,0.716,2.373,2.345,3.213,3.07
	c0.844,0.729,2.342,2.432,3.112,3.233c0.938,0.979,2.591,3.183,3.593,4.094c1.735,1.582,5.033,1.582,5.033,1.582l-60.945,0.187
	L19.845,26.693z"/>
<g>
	<line fill="none" x1="18.504" y1="12.768" x2="18.504" y2="77.486"/>
	<path fill="#8E8E8E" d="M18.504,78.693c-0.666,0-1.206-0.541-1.206-1.207V12.768c0-0.666,0.54-1.206,1.206-1.206
		c0.667,0,1.207,0.541,1.207,1.206v64.718C19.711,78.152,19.171,78.693,18.504,78.693z"/>
</g>
<g>
	<path fill="none" stroke="#000000" stroke-width="2.6014" stroke-linecap="round" stroke-miterlimit="10" d="M35.015,76.927"/>
</g>
<g enable-background="new    ">
	<path d="M47.441,82.339h7.111l-0.432,2.215h-4.502l-0.558,2.845h4.231l-0.432,2.196h-4.214l-0.918,4.88h-2.593L47.441,82.339z"/>
</g>
<g>
	<line fill="none" x1="81.877" y1="77.486" x2="18.504" y2="77.486"/>
	<path fill="#8E8E8E" d="M81.877,78.693H18.504c-0.666,0-1.206-0.541-1.206-1.207c0-0.668,0.54-1.207,1.206-1.207h63.373
		c0.668,0,1.207,0.539,1.207,1.207C83.084,78.152,82.545,78.693,81.877,78.693z"/>
</g>
<path fill="none" stroke="#000000" stroke-width="3" stroke-linecap="round" stroke-miterlimit="10" d="M20.906,26.88
	c0.545,2.321,1.673,5.966,2.385,7.777c0.985,2.507,1.677,9.175,4.353,9.788c0.946,0.217,2.715-1.21,3.369-1.928
	c1.157-1.27,1.98-7.326,3.698-7.379c1.695-0.052,2.223,3.883,2.883,5.833c0.578,1.707,2.519,5.481,3.279,6.962
	c0.947,1.842,2.78,5.665,3.779,7.518c0.707,1.313,2.246,3.857,3.205,5.023c0.756,0.918,2.198,2.896,3.012,3.767
	c0.873,0.933,2.449,3.495,3.725,3.44c1.192-0.05,2.369-2.807,3.133-3.725c0.84-1.006,2.387-2.85,3.68-2.879
	c1.089-0.025,2.724,1.732,3.558,2.436c0.853,0.717,2.371,2.344,3.213,3.07c0.843,0.729,2.343,2.432,3.111,3.234
	c0.938,0.979,2.59,3.181,3.592,4.094c1.736,1.581,5.034,1.581,5.034,1.581"/>
<g>
	<path d="M49.193,24.98l-0.416-10.788H51.1l0.017,4.802c-0.017,1.297-0.031,2.529-0.063,3.489h0.032
		c0.368-1.057,0.769-2.145,1.265-3.457l1.938-4.834h2.529l-0.032,4.817c-0.017,1.297-0.048,2.369-0.097,3.426h0.031
		c0.368-1.12,0.77-2.289,1.186-3.441l1.873-4.802h2.416L57.438,24.98h-2.514l-0.08-4.434c0-1.265,0.032-2.354,0.098-3.569h-0.032
		c-0.4,1.152-0.769,2.305-1.313,3.633l-1.841,4.37H49.193z"/>
	<path d="M67.277,24.532c-0.912,0.464-2.049,0.608-2.914,0.608c-2.24,0-3.393-1.265-3.393-3.298c0-2.385,1.729-4.865,4.562-4.865
		c1.585,0,2.722,0.88,2.722,2.337c0,2.001-1.938,2.721-5.074,2.641c0,0.225,0.08,0.576,0.24,0.801
		c0.305,0.399,0.832,0.608,1.504,0.608c0.85,0,1.569-0.192,2.193-0.497L67.277,24.532z M65.244,18.658
		c-1.072,0-1.682,0.88-1.842,1.616c1.793,0.017,2.689-0.24,2.689-0.944C66.093,18.93,65.771,18.658,65.244,18.658z"/>
	<path d="M68.746,24.98l2.177-11.364h2.306L71.051,24.98H68.746z"/>
	<path d="M78.766,24.74c-0.496,0.24-1.298,0.4-2.226,0.4c-1.937,0-3.298-1.169-3.298-3.201c0-2.785,2.129-4.962,5.105-4.962
		c0.672,0,1.248,0.128,1.586,0.271l-0.562,1.761c-0.272-0.111-0.593-0.191-1.058-0.191c-1.647,0-2.656,1.393-2.656,2.865
		c0,1.072,0.673,1.616,1.537,1.616c0.672,0,1.152-0.16,1.553-0.32L78.766,24.74z"/>
	<path d="M79.945,24.98l2.146-11.364h2.306l-0.863,4.529l0.031,0.017c0.641-0.721,1.457-1.185,2.496-1.185
		c1.217,0,1.969,0.768,1.969,2.112c0,0.368-0.063,0.961-0.143,1.409l-0.85,4.481h-2.305l0.8-4.29
		c0.063-0.304,0.112-0.64,0.112-0.977c0-0.512-0.225-0.88-0.801-0.88c-0.801,0-1.617,0.977-1.921,2.561l-0.673,3.586L79.945,24.98
		L79.945,24.98z"/>
</g>
<g>
	<path d="M53.988,42.381l0.656-4.45c0.176-1.168,0.416-2.656,0.719-4.209h-0.047c-0.592,1.393-1.267,2.881-1.857,4.065l-2.209,4.418
		h-1.793l-0.383-4.37c-0.096-1.185-0.176-2.673-0.24-4.113h-0.033c-0.303,1.424-0.624,3.041-0.896,4.209l-1.072,4.45H44.72
		l2.706-10.788h3.088l0.336,4.098c0.064,1.008,0.178,2.24,0.193,3.441h0.064c0.416-1.201,0.992-2.465,1.455-3.441l2.002-4.098h3.121
		l-1.457,10.788H53.988z"/>
	<path d="M58.096,41.212c0-0.88,0.625-1.632,1.553-1.632c0.785,0,1.328,0.56,1.328,1.36c0,0.944-0.672,1.601-1.584,1.601
		C58.609,42.541,58.096,41.98,58.096,41.212z"/>
	<path d="M66.801,42.381l-0.416-10.788h2.32l0.016,4.802c-0.016,1.297-0.031,2.529-0.063,3.489h0.032
		c0.367-1.057,0.769-2.145,1.265-3.457l1.938-4.834h2.528l-0.032,4.817c-0.017,1.297-0.048,2.369-0.097,3.426h0.033
		c0.366-1.12,0.768-2.289,1.184-3.441l1.873-4.802h2.416l-4.754,10.788h-2.512l-0.08-4.434c0-1.265,0.03-2.354,0.096-3.569h-0.03
		c-0.4,1.152-0.771,2.305-1.313,3.633l-1.843,4.37H66.801z"/>
	<path d="M78.607,42.381l1.488-7.827h2.307l-1.49,7.827H78.607z M80.416,32.457c0.018-0.784,0.625-1.313,1.33-1.313
		c0.672,0,1.152,0.448,1.152,1.137c0,0.815-0.625,1.296-1.361,1.296C80.896,33.577,80.416,33.146,80.416,32.457z"/>
	<path d="M82.848,42.381l0.992-5.282c0.191-0.992,0.32-1.856,0.416-2.545h2.049l-0.16,1.297h0.031
		c0.736-1.024,1.713-1.473,2.754-1.473c1.281,0,2,0.784,2,2.129c0,0.352-0.063,0.944-0.127,1.328l-0.865,4.546h-2.305l0.816-4.338
		c0.049-0.271,0.08-0.592,0.08-0.88c0-0.545-0.191-0.929-0.768-0.929c-0.753,0-1.634,0.944-1.953,2.673l-0.656,3.474H82.848z"/>
</g>
</svg>
