<?xml version="1.0" encoding="utf-8"?>
<!-- Generator: Adobe Illustrator 16.0.3, SVG Export Plug-In . SVG Version: 6.00 Build 0)  -->
<!DOCTYPE svg PUBLIC "-//W3C//DTD SVG 1.1//EN" "http://www.w3.org/Graphics/SVG/1.1/DTD/svg11.dtd">
<svg version="1.1" id="Layer_1" xmlns="http://www.w3.org/2000/svg" xmlns:xlink="http://www.w3.org/1999/xlink" x="0px" y="0px"
	 width="96px" height="96px" viewBox="0 0 96 96" enable-background="new 0 0 96 96" xml:space="preserve">
<g>
	<g>
		
			<line fill="none" stroke="#CCCCCC" stroke-width="0.9479" stroke-miterlimit="10" x1="46.676" y1="1.688" x2="46.676" y2="47.938"/>
	</g>
</g>
<circle fill="none" stroke="#000000" stroke-width="0.1" stroke-miterlimit="10" cx="48" cy="48" r="48"/>
<g>
	<g>
		<line fill="none" stroke="#CCCCCC" stroke-miterlimit="10" x1="17.881" y1="44.737" x2="76.341" y2="44.737"/>
	</g>
</g>
<g>
	<g>
		<line fill="none" stroke="#000000" stroke-width="2" stroke-miterlimit="10" x1="47.467" y1="44.818" x2="8.352" y2="35.587"/>
		<g>
			<polygon points="10.376,32.016 2.838,34.283 8.568,39.679 			"/>
		</g>
	</g>
</g>
<path fill="none" stroke="#000000" stroke-width="2" stroke-miterlimit="10" d="M22.982,39.19
	c2.216-9.143,1.729-9.168,10.226-13.808"/>
<g>
	<g>
		<line fill="none" stroke="#666666" stroke-miterlimit="10" x1="47.45" y1="44.785" x2="28.95" y2="20.264"/>
		<g>
			<polygon fill="#666666" stroke="#666666" stroke-miterlimit="10" points="31.895,19.188 26.344,16.811 27.064,22.742 			"/>
		</g>
	</g>
</g>
<g>
	<g>
		<line fill="none" stroke="#000000" stroke-width="2" stroke-miterlimit="10" x1="47.11" y1="44.743" x2="68.654" y2="10.815"/>
		<g>
			<polygon points="71.363,13.899 71.693,6.034 64.718,9.679 			"/>
		</g>
	</g>
</g>
<path fill="none" stroke="#000000" stroke-width="2" stroke-miterlimit="10" d="M60.455,23.456c7.91,5.092,8.094,4.639,9.691,14.188
	"/>
<g>
	<g>
		<line fill="none" stroke="#666666" stroke-miterlimit="10" x1="47.147" y1="44.737" x2="76.379" y2="35.299"/>
		<g>
			<polygon fill="#666666" stroke="#666666" stroke-miterlimit="10" points="76.43,38.433 80.496,33.967 74.656,32.704 			"/>
		</g>
	</g>
</g>
<g>
	<g>
		
			<path fill="none" stroke="#999999" stroke-width="2.4801" stroke-linecap="round" stroke-linejoin="round" stroke-miterlimit="10" d="
			M-5.265,67.757c0.483-1.576,0.958-3.157,1.45-4.725c0.673-2.149,1.359-4.296,2.344-6.167c0.366-0.695,0.817-1.379,1.328-1.797
			c0.766-0.625,1.505-0.328,2.241,0.688c1.02,1.413,1.76,3.135,2.362,4.979c0.842,2.578,1.644,5.187,2.416,7.813
			c0.875,2.979,1.741,5.965,2.914,8.71c0.389,0.912,0.843,1.802,1.369,2.537c1.271,1.775,2.281,1.464,3.352-0.365
			c1.244-2.127,2.016-4.72,2.83-7.251c0.46-1.433,0.913-2.867,1.369-4.303"/>
		
			<path fill="none" stroke="#000000" stroke-width="2.4801" stroke-linecap="round" stroke-linejoin="round" stroke-miterlimit="10" d="
			M23.803,55.068c0.767-0.625,1.506-0.328,2.243,0.688c1.02,1.413,1.76,3.135,2.362,4.979c0.842,2.578,1.644,5.187,2.416,7.813
			c0.874,2.979,1.741,5.965,2.913,8.71c0.391,0.912,0.843,1.802,1.369,2.537c1.272,1.775,2.282,1.464,3.353-0.365
			c1.245-2.127,2.016-4.72,2.831-7.251c0.46-1.433,0.912-2.867,1.369-4.303"/>
		
			<path fill="none" stroke="#999999" stroke-width="2.4801" stroke-linecap="round" stroke-linejoin="round" stroke-miterlimit="10" d="
			M18.682,67.757c0.483-1.576,0.958-3.157,1.45-4.725c0.673-2.149,1.359-4.296,2.343-6.167c0.366-0.695,0.817-1.379,1.328-1.797"/>
	</g>
	<g>
		
			<path fill="none" stroke="#000000" stroke-width="2.4801" stroke-linecap="round" stroke-linejoin="round" stroke-miterlimit="10" d="
			M42.658,67.761c0.483-1.575,0.958-3.154,1.45-4.724c0.672-2.149,1.358-4.295,2.343-6.168c0.368-0.694,0.822-1.377,1.333-1.796
			c0.767-0.625,1.51-0.328,2.247,0.688c1.02,1.413,1.761,3.135,2.361,4.979c0.842,2.577,1.646,5.186,2.417,7.812
			c0.874,2.979,1.741,5.964,2.913,8.71c0.389,0.912,0.844,1.801,1.368,2.537c1.271,1.775,2.282,1.464,3.353-0.364
			c1.244-2.128,2.017-4.72,2.829-7.251c0.461-1.432,0.913-2.868,1.369-4.302"/>
		
			<path fill="none" stroke="#999999" stroke-width="2.4801" stroke-linecap="round" stroke-linejoin="round" stroke-miterlimit="10" d="
			M66.613,67.761c0.483-1.575,0.959-3.154,1.45-4.724c0.673-2.149,1.36-4.295,2.343-6.168c0.366-0.694,0.818-1.377,1.329-1.796
			c0.766-0.625,1.506-0.328,2.242,0.688c1.02,1.413,1.761,3.135,2.362,4.979c0.842,2.577,1.644,5.186,2.416,7.812
			c0.873,2.979,1.74,5.964,2.913,8.71c0.391,0.912,0.843,1.801,1.369,2.537"/>
	</g>
</g>
<g>
	<g>
		<path fill="none" stroke="#CCCCCC" stroke-width="2.4801" stroke-linecap="round" stroke-miterlimit="10" d="M0.146,66.522
			c0.483-1.046,0.958-2.096,1.451-3.136c0.673-1.427,1.359-2.853,2.343-4.096c0.366-0.462,0.817-0.914,1.328-1.192
			c0.766-0.416,1.505-0.219,2.241,0.457c1.02,0.938,1.76,2.082,2.362,3.306c0.842,1.712,1.645,3.444,2.416,5.188
			c0.875,1.979,1.741,3.959,2.914,5.782c0.389,0.605,0.843,1.196,1.369,1.685c1.271,1.18,2.281,0.973,3.353-0.242
			c1.244-1.412,2.015-3.134,2.83-4.814c0.46-0.95,0.913-1.903,1.369-2.855"/>
		<path fill="none" stroke="#666666" stroke-width="2.4801" stroke-linecap="round" stroke-miterlimit="10" d="M24.093,66.522
			c0.483-1.046,0.958-2.096,1.45-3.136c0.673-1.427,1.359-2.853,2.343-4.096c0.366-0.462,0.818-0.914,1.328-1.192
			c0.767-0.416,1.506-0.219,2.243,0.457c1.02,0.938,1.761,2.082,2.362,3.306c0.841,1.712,1.644,3.444,2.416,5.188
			c0.875,1.979,1.742,3.959,2.914,5.782c0.391,0.605,0.843,1.196,1.369,1.685c1.272,1.18,2.282,0.973,3.353-0.242
			c1.245-1.412,2.017-3.134,2.833-4.814c0.462-0.95,0.916-1.903,1.373-2.855"/>
	</g>
	<g>
		<path fill="none" stroke="#CCCCCC" stroke-width="2.4801" stroke-linecap="round" stroke-miterlimit="10" d="M67.854,74.276
			c1.243-1.412,2.016-3.133,2.829-4.813c0.461-0.951,0.913-1.904,1.369-2.856"/>
		<path fill="none" stroke="#666666" stroke-width="2.4801" stroke-linecap="round" stroke-miterlimit="10" d="M48.075,66.526
			c0.482-1.047,0.959-2.097,1.454-3.137c0.673-1.427,1.359-2.853,2.344-4.095c0.366-0.462,0.816-0.915,1.327-1.192
			c0.767-0.417,1.506-0.219,2.241,0.458c1.021,0.937,1.762,2.08,2.362,3.305c0.842,1.711,1.645,3.443,2.417,5.188
			c0.873,1.978,1.74,3.959,2.912,5.781c0.391,0.605,0.844,1.196,1.369,1.685c1.271,1.181,2.282,0.974,3.353-0.242"/>
		<path fill="none" stroke="#CCCCCC" stroke-width="2.4801" stroke-linecap="round" stroke-miterlimit="10" d="M72.024,66.526
			c0.482-1.047,0.959-2.097,1.45-3.137c0.673-1.427,1.36-2.853,2.343-4.095c0.366-0.462,0.818-0.915,1.328-1.192
			c0.766-0.417,1.507-0.219,2.243,0.458c1.019,0.937,1.76,2.08,2.362,3.305c0.841,1.711,1.644,3.443,2.415,5.188
			c0.874,1.978,1.741,3.959,2.913,5.781c0.391,0.605,0.843,1.196,1.369,1.685"/>
	</g>
</g>
<path d="M68.471,59.455h16.295l-4.61,4.611l3.635,3.637l10.821-10.819L83.79,46.052l-3.635,3.649l4.608,4.61H68.471"/>
<g>
	<rect x="23.438" y="50.901" opacity="0.5" fill="#333333" width="43.783" height="33.581"/>
	
		<rect x="23.438" y="50.901" fill="none" stroke="#000000" stroke-width="3.1696" stroke-miterlimit="10" width="43.783" height="33.581"/>
</g>
</svg>
