<?xml version="1.0" encoding="utf-8"?>
<!-- Generator: Adobe Illustrator 16.0.3, SVG Export Plug-In . SVG Version: 6.00 Build 0)  -->
<!DOCTYPE svg PUBLIC "-//W3C//DTD SVG 1.1//EN" "http://www.w3.org/Graphics/SVG/1.1/DTD/svg11.dtd">
<svg version="1.1" id="Layer_1" xmlns="http://www.w3.org/2000/svg" xmlns:xlink="http://www.w3.org/1999/xlink" x="0px" y="0px"
	 width="96px" height="96px" viewBox="0 0 96 96" enable-background="new 0 0 96 96" xml:space="preserve">
<circle fill="none" cx="48" cy="48" r="48"/>
<path fill="#CCCCCC" d="M19.845,26.693c0.546,2.321,2.059,6.878,2.77,8.689c0.984,2.507,2.28,9.232,4.956,9.846
	c0.946,0.217,2.715-1.21,3.369-1.928c1.156-1.27,1.98-7.326,3.697-7.378c1.696-0.053,2.223,3.882,2.884,5.833
	c0.578,1.707,2.519,5.481,3.279,6.961c0.946,1.845,2.779,5.666,3.778,7.519c0.708,1.312,2.245,3.859,3.206,5.024
	c0.755,0.919,2.197,2.896,3.012,3.766c0.872,0.933,2.448,3.496,3.725,3.441c1.191-0.049,2.368-2.807,3.132-3.725
	c0.839-1.006,2.385-2.849,3.679-2.879c1.089-0.025,2.723,1.733,3.556,2.436c0.854,0.716,2.373,2.344,3.214,3.07
	c0.843,0.729,2.341,2.432,3.112,3.234c0.938,0.979,2.59,3.182,3.592,4.094c1.736,1.582,5.034,1.582,5.034,1.582l-60.945,0.186
	L19.845,26.693z"/>
<g>
	<line fill="none" x1="18.504" y1="12.768" x2="18.504" y2="77.486"/>
	<path fill="#8E8E8E" d="M18.504,78.693c-0.666,0-1.206-0.54-1.206-1.207V12.768c0-0.666,0.54-1.206,1.206-1.206
		c0.667,0,1.207,0.541,1.207,1.206v64.719C19.711,78.153,19.171,78.693,18.504,78.693z"/>
</g>
<g>
	<path fill="none" stroke="#000000" stroke-width="2.6014" stroke-linecap="round" stroke-miterlimit="10" d="M35.015,76.927"/>
</g>
<g>
	<path d="M47.441,82.339h7.112l-0.433,2.215H49.62l-0.559,2.845h4.231l-0.432,2.196h-4.214l-0.918,4.88h-2.593L47.441,82.339z"/>
</g>
<g>
	<line fill="none" x1="81.877" y1="77.486" x2="18.504" y2="77.486"/>
	<path fill="#8E8E8E" d="M81.877,78.693H18.504c-0.666,0-1.206-0.54-1.206-1.207s0.54-1.207,1.206-1.207h63.373
		c0.668,0,1.207,0.54,1.207,1.207S82.545,78.693,81.877,78.693z"/>
</g>
<path fill="none" stroke="#000000" stroke-width="3" stroke-linecap="round" stroke-miterlimit="10" d="M20.906,26.88
	c0.545,2.321,1.673,5.966,2.385,7.777c0.985,2.507,1.677,9.175,4.353,9.788c0.946,0.217,2.715-1.21,3.369-1.928
	c1.157-1.27,1.98-7.326,3.698-7.379c1.695-0.052,2.223,3.883,2.883,5.833c0.578,1.707,2.519,5.481,3.279,6.962
	c0.947,1.843,2.78,5.665,3.779,7.518c0.707,1.312,2.246,3.858,3.205,5.024c0.756,0.918,2.197,2.896,3.012,3.766
	c0.873,0.933,2.449,3.496,3.725,3.441c1.192-0.05,2.369-2.807,3.133-3.725c0.839-1.006,2.386-2.85,3.679-2.879
	c1.089-0.025,2.724,1.733,3.558,2.436c0.852,0.716,2.371,2.344,3.213,3.07c0.843,0.728,2.342,2.432,3.111,3.234
	c0.938,0.979,2.59,3.181,3.592,4.094c1.736,1.581,5.034,1.581,5.034,1.581"/>
<g>
	<path d="M33.222,24.98l0.656-4.45c0.176-1.168,0.416-2.656,0.72-4.209H34.55c-0.592,1.393-1.265,2.881-1.856,4.065l-2.209,4.418
		h-1.793l-0.384-4.37c-0.096-1.185-0.176-2.673-0.24-4.113h-0.032c-0.304,1.424-0.624,3.041-0.896,4.209l-1.072,4.45h-2.113
		l2.706-10.788h3.089l0.336,4.098c0.064,1.008,0.177,2.24,0.192,3.441h0.064c0.416-1.201,0.992-2.465,1.456-3.441l2.001-4.098h3.121
		L35.463,24.98H33.222z"/>
	<path d="M37.33,23.812c0-0.88,0.624-1.632,1.553-1.632c0.784,0,1.328,0.56,1.328,1.36c0,0.944-0.672,1.601-1.584,1.601
		C37.843,25.141,37.33,24.58,37.33,23.812z"/>
	<path d="M48.068,16.209h-2.85l0.4-2.017h8.02l-0.385,2.017h-2.881l-1.648,8.771h-2.306L48.068,16.209z"/>
	<path d="M56.629,24.98c0.016-0.464,0.064-0.992,0.112-1.553h-0.048c-0.721,1.297-1.713,1.729-2.625,1.729
		c-1.409,0-2.369-1.088-2.369-2.721c0-2.642,1.744-5.458,5.602-5.458c0.929,0,1.938,0.176,2.594,0.384l-0.833,4.098
		c-0.191,1.009-0.336,2.545-0.304,3.521H56.629z M57.301,18.786c-0.176-0.032-0.399-0.064-0.624-0.064
		c-1.488,0-2.577,1.825-2.577,3.281c0,0.769,0.305,1.297,0.944,1.297c0.688,0,1.537-0.784,1.89-2.705L57.301,18.786z"/>
	<path d="M59.825,28.149l1.505-7.971c0.176-0.929,0.368-2.225,0.464-3.025h2.064l-0.144,1.137h0.032
		c0.64-0.849,1.568-1.313,2.513-1.313c1.696,0,2.513,1.36,2.513,2.961c0,2.721-1.809,5.218-4.529,5.218
		c-0.641,0-1.185-0.16-1.457-0.32h-0.032l-0.64,3.313H59.825z M63.106,23.027c0.256,0.24,0.608,0.385,1.057,0.385
		c1.232,0,2.192-1.761,2.192-3.298c0-0.624-0.256-1.28-1.008-1.28c-0.864,0-1.665,0.977-1.953,2.513L63.106,23.027z"/>
	<path d="M76.068,24.532c-0.912,0.464-2.049,0.608-2.913,0.608c-2.241,0-3.394-1.265-3.394-3.298c0-2.385,1.729-4.865,4.562-4.865
		c1.585,0,2.722,0.88,2.722,2.337c0,2.001-1.938,2.721-5.074,2.641c0,0.225,0.08,0.576,0.24,0.801
		c0.304,0.399,0.832,0.608,1.504,0.608c0.849,0,1.569-0.192,2.193-0.497L76.068,24.532z M74.035,18.658
		c-1.072,0-1.681,0.88-1.841,1.616c1.793,0.017,2.689-0.24,2.689-0.944C74.884,18.93,74.563,18.658,74.035,18.658z"/>
	<path d="M77.537,24.98l0.881-4.658c0.224-1.185,0.319-2.497,0.399-3.169h2.001c-0.048,0.528-0.096,1.057-0.144,1.601h0.048
		c0.544-1.04,1.425-1.776,2.497-1.776c0.144,0,0.288,0,0.432,0.016l-0.448,2.241c-0.111-0.017-0.24-0.017-0.368-0.017
		c-1.473,0-2.16,1.313-2.448,2.85l-0.545,2.913H77.537z"/>
</g>
</svg>
