<?xml version="1.0" encoding="utf-8"?>
<!-- Generator: Adobe Illustrator 16.0.3, SVG Export Plug-In . SVG Version: 6.00 Build 0)  -->
<!DOCTYPE svg PUBLIC "-//W3C//DTD SVG 1.1//EN" "http://www.w3.org/Graphics/SVG/1.1/DTD/svg11.dtd">
<svg version="1.1" id="Layer_1" xmlns="http://www.w3.org/2000/svg" xmlns:xlink="http://www.w3.org/1999/xlink" x="0px" y="0px"
	 width="100px" height="100px" viewBox="0 0 100 100" enable-background="new 0 0 100 100" xml:space="preserve">
<g id="tablet" display="none">
	<path display="inline" d="M65.368,29.265H37.22c-0.818,0-1.482,0.664-1.482,1.481v35.551c0,0.818,0.664,1.48,1.482,1.48h0.521
		h27.106h0.521c0.817,0,1.479-0.662,1.479-1.48V30.746C66.85,29.928,66.188,29.265,65.368,29.265z M63.943,61.852H38.702V32.228
		h25.185L63.943,61.852z M51.297,66.302c-0.818,0-1.482-0.663-1.482-1.481c0-0.816,0.664-1.48,1.482-1.48
		c0.816,0,1.479,0.664,1.479,1.48C52.775,65.639,52.113,66.302,51.297,66.302z"/>
</g>
<g id="movil" display="none">
	<path display="inline" d="M58.709,36.673H43.884c-0.815,0-1.477,0.664-1.477,1.482v28.146c0,0.817,0.661,1.481,1.477,1.481h14.825
		c0.814,0,1.477-0.663,1.477-1.481V38.155C60.186,37.337,59.523,36.673,58.709,36.673z M57.232,39.637v22.22H45.359v-22.22H57.232z
		 M51.297,66.302c-0.818,0-1.482-0.663-1.482-1.481c0-0.816,0.664-1.48,1.482-1.48c0.816,0,1.479,0.664,1.479,1.48
		C52.775,65.639,52.113,66.302,51.297,66.302z"/>
</g>
<g id="laptop" display="none">
	<path display="inline" d="M84.289,65.359l-7.068-8.688V22.598c0-0.817-0.664-1.481-1.482-1.481H26.85
		c-0.818,0-1.481,0.664-1.481,1.481v34.074l-7.07,8.688c-0.365,0.443-0.441,1.059-0.197,1.574c0.245,0.521,0.767,0.852,1.34,0.852
		h63.705c0.572,0,1.098-0.33,1.34-0.852C84.73,66.415,84.652,65.803,84.289,65.359z M28.331,24.079h45.926v31.853H28.331V24.079z
		 M52.9,65.561c-0.635,0-2.582,0-3.214,0c-1.186,0-2.145-0.971-2.209-2.205H23.898l3.692-4.461h47.408l3.703,4.461H54.998
		C54.934,64.592,54.086,65.561,52.9,65.561z"/>
</g>
<g id="computer" display="none">
	<g display="inline">
		<path d="M83.156,10.012H19.442c-0.819,0-1.481,0.664-1.481,1.481v45.896c0,0.818,0.663,1.506,1.481,1.506
			c0,0,21.066-0.004,21.469,0l-4.886,6.504c-0.331,0.449-0.381,1.051-0.129,1.547c0.252,0.498,0.763,0.84,1.322,0.84h28.148
			c0.559,0,1.069-0.314,1.321-0.813s0.201-1.098-0.129-1.548l-4.896-6.526c0.471-0.002,21.49,0,21.49,0
			c0.816,0,1.479-0.688,1.479-1.506V11.493C84.637,10.675,83.973,10.012,83.156,10.012z M40.183,64.795l2.23-2.963h17.76
			l2.231,2.963H40.183z M81.664,55.932h-60.74v-5.926h60.74V55.932z M81.674,47.018h-60.75V12.975h60.75V47.018z"/>
		<circle cx="51.234" cy="52.944" r="1.481"/>
	</g>
</g>
<g id="Augmented_reality" display="none">
	<g display="inline">
		<path d="M68.331,5.57H34.257L17.963,34.437l16.294,28.896h34.074l16.298-28.896L68.331,5.57z M66.973,56.695
			c-2.594-6.092-8.633-10.395-15.679-10.395c-7.044,0-13.084,4.303-15.678,10.395l-11.29-20.023h11.412
			c1.228,0,2.222-0.995,2.222-2.222c0-1.227-0.995-2.222-2.222-2.222H24.313l11.241-19.917l5.662,9.908
			c0.41,0.718,1.16,1.12,1.931,1.12c0.373,0,0.752-0.094,1.1-0.293c1.065-0.608,1.436-1.966,0.827-3.032l-5.714-10h23.867l-5.715,10
			c-0.609,1.065-0.238,2.423,0.826,3.032c0.35,0.2,0.727,0.293,1.102,0.293c0.771,0,1.521-0.402,1.932-1.12l5.662-9.908
			l11.244,19.917h-11.43c-1.227,0-2.222,0.995-2.222,2.222c0,1.227,0.995,2.222,2.222,2.222h11.42L66.973,56.695z"/>
		<path d="M51.297,24.821c-5.31,0-9.63,4.32-9.63,9.63c0,5.309,4.32,9.629,9.63,9.629c5.309,0,9.629-4.32,9.629-9.629
			C60.926,29.142,56.605,24.821,51.297,24.821z"/>
	</g>
</g>
<g id="guides" display="none">
	
		<rect x="17.963" y="1.111" display="inline" fill="none" stroke="#000000" stroke-width="0.02" stroke-miterlimit="10" width="66.666" height="66.667"/>
</g>
<g id="eye_device" display="none">
	<path display="inline" d="M51.301,12.222c-22.59,0-33.354,22.243-33.338,22.243c0,0,0.003-0.007,0.01-0.02
		c0,0,10.358,22.22,33.328,22.22c21.475,0,33.328-22.22,33.328-22.22S74.257,12.222,51.301,12.222z M43.889,24.079h14.814
		c0.818,0,1.482,0.664,1.482,1.481c0,0.818-0.664,1.481-1.482,1.481H43.889c-0.817,0-1.481-0.664-1.481-1.481
		C42.407,24.743,43.071,24.079,43.889,24.079z M43.889,30.746h14.814c0.818,0,1.482,0.664,1.482,1.481s-0.664,1.481-1.482,1.481
		H43.889c-0.817,0-1.481-0.664-1.481-1.481C42.407,31.41,43.071,30.746,43.889,30.746z M43.887,37.413h7.407
		c0.817,0,1.481,0.664,1.481,1.481s-0.664,1.481-1.481,1.481h-7.407c-0.818,0-1.481-0.664-1.481-1.481S43.068,37.413,43.887,37.413z
		 M51.301,52.229c-8.148,0-15.475-3.389-21.777-9.708c-3.027-3.034-5.219-6.118-6.378-8.049c2.064-3.368,7.059-10.348,14.953-14.496
		c-2.399,2.936-3.84,6.683-3.84,10.767c0,9.41,7.634,17.041,17.033,17.041c9.419,0,17.042-7.63,17.042-17.041
		c0-4.108-1.455-7.876-3.877-10.818c3.047,1.591,5.926,3.748,8.617,6.445c2.977,2.983,5.197,6.142,6.367,8.081
		C76.087,39.517,66.07,52.229,51.301,52.229z"/>
</g>
<path opacity="0.5" fill="#CCCCCC" d="M74.444,85.574c0,6.31-4.49,11.426-10.027,11.426H35.583c-5.538,0-10.027-5.116-10.027-11.426
	V15.76c0-6.31,4.489-11.425,10.027-11.425h28.834c5.537,0,10.027,5.115,10.027,11.425V85.574z"/>
<g id="eye_tracking" display="none">
	<path display="inline" d="M51.301,12.222c-22.59,0-33.354,22.243-33.338,22.243c0,0,0.003-0.007,0.01-0.02
		c0,0,10.358,22.22,33.328,22.22c21.475,0,33.328-22.22,33.328-22.22S74.257,12.222,51.301,12.222z M63.887,30.746
		c0,0.817-0.664,1.481-1.479,1.481h-8.148v-2.963h8.148C63.223,29.265,63.887,29.928,63.887,30.746z M49.813,33.709h2.962v8.148
		c0,0.818-0.664,1.481-1.48,1.481c-0.818,0-1.481-0.664-1.481-1.481L49.813,33.709L49.813,33.709z M51.294,18.153
		c0.817,0,1.481,0.664,1.481,1.481v8.148h-2.963v-8.148C49.813,18.817,50.476,18.153,51.294,18.153z M40.183,29.265h8.148v2.963
		h-8.148c-0.818,0-1.481-0.664-1.481-1.481C38.702,29.928,39.364,29.265,40.183,29.265z M51.301,52.229
		c-8.148,0-15.475-3.389-21.777-9.708c-3.027-3.034-5.219-6.118-6.378-8.049c2.064-3.368,7.059-10.348,14.953-14.496
		c-2.399,2.936-3.84,6.683-3.84,10.767c0,9.41,7.634,17.041,17.033,17.041c9.419,0,17.042-7.63,17.042-17.041
		c0-4.108-1.455-7.876-3.877-10.818c3.047,1.591,5.926,3.748,8.617,6.445c2.977,2.983,5.197,6.142,6.367,8.081
		C76.087,39.517,66.07,52.229,51.301,52.229z"/>
</g>
<g id="eye_device2" display="none">
	<path display="inline" d="M27.59,14.45h14.815c0.818,0,1.481,0.664,1.481,1.481c0,0.818-0.664,1.481-1.481,1.481H27.59
		c-0.818,0-1.481-0.663-1.481-1.481C26.109,15.114,26.772,14.45,27.59,14.45z"/>
	<path display="inline" d="M27.93,21.857h7.407c0.818,0,1.481,0.664,1.481,1.481c0,0.819-0.664,1.481-1.481,1.481H27.93
		c-0.818,0-1.481-0.663-1.481-1.481C26.448,22.521,27.111,21.857,27.93,21.857z"/>
	<path display="inline" d="M52.035,18.91v-8.904h30.369c1.229,0,2.223-0.995,2.223-2.222c0-1.228-0.994-2.223-2.223-2.223
		c0,0-62.086,0-62.221,0c-1.228,0-2.222,0.995-2.222,2.223v23.704c0,1.227,0.995,2.222,2.222,2.222h2.677
		c-3.286,4.086-4.904,7.422-4.897,7.422c0,0,0.003-0.006,0.01-0.018c0,0,10.358,22.219,33.328,22.219
		c21.475,0,33.328-22.22,33.328-22.22S74.473,19.381,52.035,18.91z M22.405,29.265v-19.26H47.59V23.33
		c0,3.479-2.963,5.934-6.667,5.935C40.847,29.265,22.405,29.265,22.405,29.265z M51.301,58.895c-8.148,0-15.475-3.389-21.777-9.708
		c-3.027-3.034-5.219-6.118-6.378-8.049c1.092-1.782,3.016-4.578,5.746-7.428h24.625c0.816,0,1.48,0.664,1.48,1.481
		c0,0.818-0.664,1.481-1.48,1.481H34.281c-0.012,0.245-0.022,0.489-0.022,0.736c0,1.274,0.145,2.514,0.41,3.708h11.439
		c0.818,0,1.482,0.664,1.482,1.481c0,0.818-0.664,1.481-1.482,1.481H35.617c2.597,6.096,8.641,10.37,15.676,10.37
		c9.418,0,17.041-7.63,17.041-17.041c0-4.108-1.455-7.876-3.877-10.818c3.047,1.591,5.926,3.748,8.617,6.445
		c2.977,2.983,5.197,6.143,6.367,8.081C76.087,46.183,66.07,58.895,51.301,58.895z"/>
</g>
<g id="internet_of_things" display="none">
	<path display="inline" d="M61.498,35.9h3.129c6.477,0,11.854-5.268,11.854-11.744c0-5.931-4.459-10.85-10.178-11.635
		C64.391,6.037,58.369,1.116,51.297,1.116c-7.072,0-13.095,4.921-15.006,11.406c-5.719,0.785-10.183,5.703-10.183,11.635
		c0,6.476,5.376,11.744,11.852,11.744h3.188L29.433,53.6c-0.858,1.393-1.865,4.545-0.19,7.549c2.49,4.467,9.495,6.637,21.414,6.637
		c12.711,0,20.139-2.237,22.702-6.84c1.646-2.945,0.683-6.004-0.186-7.402L61.498,35.9z M30.556,24.157
		c0-4.054,3.285-7.484,7.339-7.484c0.335,0,1.226,0,2.287,0c0.056-6.16,4.941-11.111,11.115-11.111
		c6.172,0,11.055,4.952,11.107,11.111c1.063,0,1.957,0,2.293,0c4.054,0,7.34,3.431,7.34,7.484c0,4.053-3.355,7.34-7.41,7.34
		c-2.299,0-24.368,0-26.667,0C33.906,31.497,30.556,28.209,30.556,24.157z M46.477,35.9h9.691l9.623,14.538
		c-3.639-1.235-8.682-1.862-15.113-1.862c-5.729,0-10.289,0.55-13.672,1.632L46.477,35.9z M50.656,63.338
		c-13.563,0-16.766-3.021-17.513-4.32c-0.797-1.386-0.052-2.856,0.069-3.08l0.363-0.547c1.431-1.691,5.51-3.957,17.1-3.957
		c13.976,0,17.752,2.967,18.759,4.734c0.17,0.298,0.278,0.596,0.346,0.885c0.072,0.516,0.037,1.146-0.322,1.768
		C68.672,60.18,65.271,63.338,50.656,63.338z"/>
</g>
<g id="home_automation" display="none">
	<g id="home_automation_1_" display="inline">
		<path d="M80.018,26.564L53.953,3.575c-0.811-0.651-1.791-0.977-2.771-0.977c-0.988,0-1.975,0.33-2.786,0.988L22.582,26.564
			c-1.033,0.839-1.633,2.099-1.633,3.429v28.921c0,2.441,1.978,4.418,4.418,4.418h16.296v-4.418H25.367v-28.92L51.182,7.016
			l26.063,22.989v28.91H53.516v-8.647c2.172-0.879,3.736-3.004,3.736-5.491c0-3.274-2.652-5.926-5.926-5.926
			c-3.273,0-5.926,2.652-5.926,5.926c0,2.487,1.501,4.613,3.672,5.491v1.218v7.431v4.418h28.174c2.439,0,4.418-1.979,4.418-4.418
			V30.005C81.664,28.669,81.057,27.403,80.018,26.564z"/>
		<path d="M51.325,31.577c-4.543,0-8.709,2.292-11.145,6.131c-0.617,0.971-0.329,2.259,0.642,2.875
			c0.347,0.22,0.732,0.324,1.115,0.324c0.689,0,1.364-0.341,1.761-0.966c1.667-2.627,4.519-4.197,7.627-4.197
			c3.098,0,5.94,1.559,7.612,4.171c0.619,0.969,1.903,1.252,2.877,0.633c0.971-0.621,1.252-1.908,0.634-2.879
			C60.007,33.855,55.85,31.577,51.325,31.577z"/>
		<path d="M33.815,33.735c-0.643,1.018-0.339,2.361,0.678,3.005c0.362,0.229,0.764,0.337,1.162,0.337
			c0.723,0,1.43-0.358,1.844-1.016c3.016-4.773,8.184-7.624,13.825-7.624c5.617,0,10.773,2.831,13.795,7.575
			c0.646,1.013,1.994,1.312,3.008,0.665c1.016-0.646,1.314-1.993,0.667-3.007c-3.825-6.005-10.354-9.59-17.469-9.59
			C44.18,24.079,37.635,27.689,33.815,33.735z"/>
	</g>
</g>
<g id="drone" display="none">
	<g display="inline">
		<path d="M51.307,10.831c-4.542,0-8.708,2.292-11.146,6.13c-0.616,0.971-0.328,2.258,0.642,2.875
			c0.347,0.22,0.732,0.324,1.115,0.324c0.689,0,1.364-0.341,1.761-0.966c1.667-2.628,4.52-4.197,7.629-4.197
			c3.096,0,5.939,1.559,7.609,4.171c0.621,0.97,1.906,1.253,2.879,0.633c0.971-0.619,1.252-1.908,0.633-2.878
			C59.988,13.109,55.831,10.831,51.307,10.831z"/>
		<path d="M34.483,15.993c0.361,0.229,0.764,0.337,1.162,0.337c0.723,0,1.43-0.359,1.844-1.016
			c3.015-4.774,8.184-7.625,13.826-7.625c5.615,0,10.773,2.831,13.793,7.574c0.646,1.014,1.994,1.313,3.011,0.667
			c1.015-0.647,1.313-1.993,0.667-3.008C64.96,6.917,58.43,3.333,51.314,3.333c-7.146,0-13.689,3.609-17.509,9.655
			C33.162,14.006,33.466,15.351,34.483,15.993z"/>
		<path d="M60.186,58.148h-5.957V44.815h26.694c0-3.687-2.938-6.667-6.667-6.667H54.229v-5.931c0-2.222,2.963-3.704,2.994-8.186
			c0.023-3.274-2.652-5.926-5.926-5.926c-3.273,0-5.898,2.652-5.926,5.926c-0.032,3.741,2.931,5.963,2.931,8.186v5.931h-19.97
			c-3.728,0-6.667,2.98-6.667,6.667h26.637v13.333h-5.894c-1.768,0-3.707,1.715-3.707,3.709l12.596,3.697l12.59-3.697
			C63.887,59.863,61.953,58.148,60.186,58.148z"/>
	</g>
</g>
<g id="mchine_learning" display="none">
	<path display="inline" d="M69.958,17.257l3.282-5.158c-1.658-2.208-3.645-4.157-5.883-5.778l-5.094,3.244
		c-1.799-1.07-3.75-1.89-5.828-2.417l-1.279-5.756c-1.26-0.178-2.551-0.275-3.858-0.275c-1.528,0-3.025,0.13-4.486,0.371
		L45.554,7.15c-2.076,0.527-4.03,1.344-5.825,2.415l-4.775-3.041c-2.268,1.688-4.265,3.724-5.917,6.022l2.999,4.712
		c-1.07,1.795-1.887,3.75-2.414,5.828l-5.422,1.33c-0.204,1.341-0.311,2.713-0.311,4.109c0,1.443,0.112,2.859,0.327,4.239l5.405,1.2
		c0.527,2.082,1.344,4.033,2.413,5.826l-2.999,4.71c1.653,2.299,3.649,4.335,5.918,6.025l4.775-3.042
		c1.795,1.07,3.75,1.893,5.825,2.413l1.258,5.665c1.46,0.239,2.957,0.371,4.486,0.371c1.309,0,2.598-0.192,3.857-0.371l1.279-5.665
		c2.078-0.521,4.029-1.342,5.828-2.413l5.092,3.246c2.238-1.625,4.227-3.569,5.885-5.779l-3.282-5.162
		c1.069-1.792,1.886-3.743,2.413-5.824l6.025-1.339c0.203-1.338,0.309-2.706,0.309-4.101c0-1.371-0.104-2.719-0.299-4.036
		l-6.033-1.404C71.844,21.007,71.027,19.053,69.958,17.257z"/>
	<path display="inline" d="M51.298,44.821c-9.006,0-16.297-7.291-16.297-16.297c0-9.006,7.291-16.296,16.297-16.296
		c8.999,0,16.295,7.29,16.295,16.296C67.593,37.53,60.297,44.821,51.298,44.821z"/>
	<path display="inline" d="M57.223,35.933c0,3.275-2.646,5.924-5.926,5.924c-3.274,0-5.927-2.649-5.927-5.924
		s2.653-5.927,5.927-5.927C54.573,30.005,57.223,32.658,57.223,35.933z"/>
	<g display="inline">
		<path d="M60.486,57.998c-3.168,0-6.527,1.104-9.473,4.416c-2.762-3.313-5.996-4.417-9.082-4.416
			c-6.172,0-11.751,4.416-11.751,4.416v2.479h42.221v-2.479C72.404,62.414,66.825,57.998,60.486,57.998L60.486,57.998z"/>
	</g>
</g>
<g id="mchine_learning_copy" display="none">
	<rect x="46.111" y="1.857" display="inline" width="10.37" height="54.815"/>
	
		<rect x="46.112" y="1.856" transform="matrix(-0.7071 -0.7071 0.7071 -0.7071 66.8751 86.2273)" display="inline" width="10.369" height="54.813"/>
	<rect x="23.889" y="24.079" display="inline" width="54.814" height="10.371"/>
	
		<rect x="46.116" y="1.856" transform="matrix(0.7071 -0.7071 0.7071 0.7071 -5.667 44.8473)" display="inline" width="10.372" height="54.817"/>
	<circle display="inline" cx="51.297" cy="29.264" r="22.222"/>
	<circle display="inline" cx="51.297" cy="29.265" r="26.667"/>
	<circle display="inline" cx="51.297" cy="29.264" r="17.778"/>
</g>
<g id="mchine_learning_copy_2" display="none">
	<path display="inline" d="M73.46,12.953c-1.942-2.897-4.437-5.391-7.333-7.333l-9.646,9.645V1.625
		c-1.678-0.331-3.41-0.508-5.185-0.508c-1.775,0-3.508,0.177-5.186,0.508v13.641L36.464,5.62c-2.896,1.942-5.39,4.437-7.333,7.333
		l9.645,9.646H25.138c-0.33,1.678-0.508,3.41-0.508,5.185c0,1.775,0.177,3.507,0.508,5.185h13.639l-9.644,9.646
		c1.942,2.896,4.436,5.391,7.333,7.333l9.646-9.646v13.644c1.678,0.33,3.41,0.508,5.186,0.508c1.774,0,3.507-0.178,5.185-0.508
		V40.301l9.646,9.645c2.896-1.941,5.391-4.436,7.332-7.332l-9.645-9.646h13.641c0.331-1.678,0.509-3.411,0.509-5.185
		c0-1.775-0.177-3.508-0.509-5.186H63.814L73.46,12.953z"/>
	<circle display="inline" cx="51.297" cy="27.783" r="22.222"/>
	<circle display="inline" cx="51.297" cy="27.783" r="17.778"/>
	<circle display="inline" cx="51.297" cy="35.931" r="6.667"/>
	<g display="inline">
		<path d="M60.486,56.672c-3.168,0-6.527,1.068-9.473,4.271c-2.762-3.203-5.996-4.271-9.082-4.271
			c-6.172,0.001-11.751,4.271-11.751,4.271v2.395h42.221v-2.395C72.404,60.943,66.825,56.672,60.486,56.672L60.486,56.672z"/>
	</g>
	<g display="inline">
		<path d="M1.662,5.57h-34.074l-16.294,28.867l16.294,28.896H1.662l16.299-28.896L1.662,5.57z M0.303,56.695
			C-2.29,50.604-8.33,46.302-15.375,46.302c-7.044,0-13.084,4.302-15.678,10.394l-11.29-20.021h11.412
			c1.228,0,2.222-0.995,2.222-2.223c0-1.227-0.995-2.222-2.222-2.222h-11.424l11.241-19.916l5.662,9.907
			c0.411,0.718,1.16,1.12,1.931,1.12c0.374,0,0.752-0.094,1.1-0.293c1.065-0.609,1.436-1.966,0.827-3.032l-5.714-10h23.867
			l-5.715,10c-0.609,1.065-0.238,2.423,0.827,3.032c0.348,0.199,0.726,0.293,1.1,0.293c0.772,0,1.521-0.402,1.931-1.12l5.662-9.908
			L11.61,32.228H0.179c-1.228,0-2.222,0.995-2.222,2.222c0,1.228,0.995,2.223,2.222,2.223h11.417L0.303,56.695z"/>
	</g>
</g>
<g id="mchine_learning_copy_3" display="none">
	<path display="inline" d="M73.46,12.953c-1.942-2.897-4.437-5.391-7.333-7.333l-9.646,9.645V1.625
		c-1.678-0.331-3.41-0.508-5.185-0.508c-1.775,0-3.508,0.177-5.186,0.508v13.641L36.464,5.62c-2.896,1.942-5.39,4.437-7.333,7.333
		l9.645,9.646H25.138c-0.33,1.678-0.508,3.41-0.508,5.185c0,1.775,0.177,3.507,0.508,5.185h13.639l-9.644,9.646
		c1.942,2.896,4.436,5.391,7.333,7.333l9.646-9.646v13.644c1.678,0.33,3.41,0.508,5.186,0.508c1.774,0,3.507-0.178,5.185-0.508
		V40.301l9.646,9.645c2.896-1.941,5.391-4.436,7.332-7.332l-9.645-9.646h13.641c0.331-1.678,0.509-3.411,0.509-5.185
		c0-1.775-0.177-3.508-0.509-5.186H63.814L73.46,12.953z"/>
	<circle display="inline" cx="51.297" cy="27.783" r="22.222"/>
	<circle display="inline" cx="51.297" cy="27.783" r="17.778"/>
	<circle display="inline" cx="51.297" cy="35.931" r="6.667"/>
	<g display="inline">
		<path d="M58.865,57.121c-3.176,0-6.07,0.994-7.572,3.996c-1.5-3.002-4.395-3.997-7.572-3.996c-6.229,0-13.539,3.822-13.539,3.822
			v2.395h42.222v-2.395C72.404,60.943,65.096,57.121,58.865,57.121L58.865,57.121z"/>
	</g>
	<g display="inline">
		<path d="M17.961,33.272l0.002-6.583l-8.916-1.98c-0.511-2.014-1.302-3.907-2.34-5.647l4.904-7.703L6.956,6.704l-7.704,4.9
			c-1.739-1.035-3.636-1.827-5.649-2.341l-1.98-8.91h-6.584l-1.981,8.91c-2.012,0.515-3.907,1.305-5.647,2.341l-7.701-4.903
			l-4.658,4.659l4.902,7.703c-1.036,1.736-1.829,3.633-2.341,5.646l-8.908,1.98l-0.001,6.583l8.91,1.981
			c0.512,2.013,1.305,3.908,2.339,5.652l-4.9,7.698l4.657,4.661l7.701-4.902c1.74,1.038,3.635,1.83,5.647,2.338l1.981,8.911h6.584
			l1.98-8.911c2.013-0.508,3.91-1.302,5.649-2.338l7.699,4.898l4.659-4.657l-4.902-7.701c1.038-1.74,1.829-3.635,2.34-5.648
			L17.961,33.272z"/>
	</g>
</g>
<g>
	<path d="M55.912,33.292c0,2.848-2.305,5.148-5.147,5.148c-2.845,0-5.149-2.301-5.149-5.148c0-2.841,2.304-5.146,5.149-5.146
		C53.607,28.146,55.912,30.451,55.912,33.292z"/>
	<path d="M71.621,30.516c0.193-1.143,0.302-2.315,0.302-3.512c0-1.195-0.108-2.369-0.302-3.512l-3.747-0.833
		c-0.423-1.668-1.084-3.241-1.938-4.681l2.036-3.201c-1.376-1.921-3.062-3.606-4.98-4.982l-3.206,2.037
		c-1.439-0.861-3.013-1.521-4.681-1.941l-0.83-3.744c-1.146-0.196-2.318-0.304-3.514-0.304c-1.199,0-2.371,0.108-3.515,0.303
		L46.412,9.89c-1.667,0.421-3.24,1.081-4.679,1.942L38.53,9.793c-1.921,1.375-3.606,3.06-4.982,4.981l2.04,3.203
		c-0.861,1.44-1.522,3.012-1.943,4.681l-3.744,0.833c-0.196,1.143-0.304,2.316-0.304,3.512c0,1.197,0.107,2.369,0.303,3.512
		l3.745,0.834c0.421,1.67,1.082,3.242,1.941,4.68l-2.04,3.206c1.375,1.92,3.06,3.605,4.981,4.98l3.203-2.038
		c1.441,0.856,3.013,1.518,4.683,1.939l0.833,3.738c1.144,0.191,2.317,0.299,3.515,0.299s2.369-0.107,3.516-0.303l0.828-3.734
		c1.667-0.422,3.243-1.083,4.683-1.939l3.206,2.036c1.917-1.373,3.604-3.059,4.979-4.979l-2.036-3.204
		c0.857-1.438,1.517-3.012,1.939-4.68L71.621,30.516z M50.762,40.157c-7.292,0-13.157-5.861-13.157-13.153
		c0-7.282,5.866-13.154,13.157-13.154c7.285,0,13.154,5.872,13.154,13.154C63.916,34.296,58.047,40.157,50.762,40.157z"/>
</g>
<circle fill="none" cx="50" cy="50" r="50"/>
<g>
	<path d="M43.703,61.969L43.703,61.969v7.32l-1.475-2.221l-1.475,2.221v-7.32H28.19v28.572h15.513v-0.002
		c2.557,0,4.688,1.922,5.178,4.334h0.105V67.227C48.987,64.322,46.622,61.969,43.703,61.969z"/>
	<path d="M56.012,61.969c-2.919,0-5.286,2.354-5.286,5.258v27.646h0.106c0.49-2.41,2.622-4.334,5.18-4.334l0,0h15.513v-28.57H56.012
		L56.012,61.969z"/>
</g>
<g enable-background="new    ">
	<path fill="#FFFFFF" d="M31.844,71.836l0.068-0.061c0.989,0.047,1.662,0.068,2.022,0.068l4.01-0.086
		c1.142,0,2.079,0.107,2.81,0.322c0.731,0.215,1.381,0.586,1.95,1.113c0.568,0.529,1,1.143,1.294,1.842
		c0.294,0.699,0.441,1.447,0.441,2.24c0,0.773-0.135,1.535-0.403,2.289c-0.269,0.754-0.65,1.43-1.144,2.027
		c-0.495,0.596-1.057,1.078-1.688,1.443c-0.631,0.365-1.263,0.609-1.898,0.732c-0.634,0.123-1.283,0.184-1.945,0.184
		c-0.445,0-1.285-0.016-2.519-0.051c-0.406-0.012-0.674-0.018-0.806-0.018c-0.395,0-0.871,0.023-1.431,0.068l-0.068-0.068V83.6
		l0.07-0.086c0.337-0.172,0.53-0.279,0.579-0.322s0.088-0.541,0.12-1.5c0.032-0.955,0.048-1.686,0.048-2.188v-3.145l-0.008-1.945
		c0-0.422-0.006-0.768-0.018-1.031c-0.012-0.266-0.032-0.457-0.061-0.572c-0.028-0.113-0.062-0.193-0.098-0.238
		c-0.037-0.047-0.097-0.084-0.18-0.117c-0.083-0.031-0.225-0.057-0.424-0.082l-0.65-0.051l-0.069-0.061L31.844,71.836L31.844,71.836
		z M35.014,83.018c0.583,0.113,1.253,0.172,2.014,0.172c1.332,0,2.395-0.225,3.192-0.67c0.796-0.445,1.392-1.105,1.786-1.979
		c0.395-0.875,0.592-1.859,0.592-2.957c0-1.615-0.431-2.869-1.293-3.76c-0.863-0.891-2.222-1.338-4.079-1.338
		c-0.765,0-1.502,0.057-2.211,0.172c-0.046,0.938-0.069,1.994-0.069,3.17v2.691l0.018,2.518
		C34.963,81.529,34.98,82.188,35.014,83.018z"/>
</g>
<g enable-background="new    ">
	<path fill="#FFFFFF" d="M52.37,71.775l1.07,0.035c0.702,0.023,1.162,0.033,1.379,0.033c0.193,0,1.015-0.021,2.459-0.068
		l0.068,0.061v0.428l-0.068,0.061c-0.395,0.012-0.699,0.029-0.913,0.051c-0.214,0.023-0.369,0.066-0.467,0.129
		s-0.161,0.211-0.193,0.441c-0.031,0.23-0.046,0.553-0.046,0.963l-0.018,1.971v3.967l0.009,1.672
		c0.006,0.645,0.022,1.063,0.052,1.25c0.029,0.189,0.07,0.314,0.124,0.377c0.053,0.063,0.157,0.115,0.313,0.158
		c0.153,0.043,0.533,0.076,1.139,0.098l0.068,0.053v0.428l-0.068,0.07c-0.029,0-0.531-0.018-1.509-0.053
		c-0.405-0.012-0.723-0.018-0.952-0.018c-0.176,0-0.993,0.023-2.449,0.068L52.3,83.881v-0.428l0.068-0.053
		c0.53-0.021,0.885-0.051,1.063-0.086c0.176-0.035,0.295-0.078,0.354-0.133c0.06-0.053,0.108-0.17,0.146-0.348
		c0.037-0.176,0.06-0.57,0.064-1.182l0.009-1.809v-3.967l-0.017-1.67c-0.007-0.65-0.021-1.072-0.048-1.26
		c-0.026-0.189-0.065-0.314-0.12-0.377c-0.057-0.063-0.159-0.115-0.313-0.154c-0.154-0.041-0.535-0.072-1.14-0.094L52.3,72.262
		v-0.428L52.37,71.775z"/>
	<path fill="#FFFFFF" d="M69.728,82.436l-0.324,0.795c-1.27,0.645-2.624,0.969-4.063,0.969c-2.062,0-3.737-0.586-5.024-1.758
		c-1.288-1.172-1.934-2.701-1.934-4.592c0-1.303,0.321-2.441,0.964-3.414c0.643-0.975,1.491-1.703,2.545-2.186
		c1.055-0.482,2.237-0.725,3.552-0.725c0.76,0,1.511,0.08,2.253,0.24s1.362,0.354,1.859,0.574l0.06,0.088
		c-0.131,0.318-0.255,1.109-0.368,2.373l-0.06,0.068h-0.401l-0.068-0.068l-0.087-1.457c-0.416-0.33-0.921-0.59-1.513-0.775
		c-0.591-0.186-1.207-0.277-1.847-0.277c-0.965,0-1.83,0.205-2.596,0.619s-1.359,1.014-1.782,1.801
		c-0.423,0.785-0.634,1.746-0.634,2.881c0,1.143,0.248,2.146,0.746,3.008c0.496,0.863,1.175,1.527,2.035,1.988
		c0.859,0.465,1.862,0.695,3.012,0.695c0.508,0,0.996-0.049,1.466-0.146c0.468-0.096,0.856-0.217,1.168-0.359
		s0.609-0.318,0.895-0.523L69.728,82.436z"/>
</g>
<path d="M74.444,37.376h14.244l-4.03,4.03l3.178,3.188l9.459-9.467l-9.459-9.458l-3.178,3.179l4.028,4.03H74.444"/>
<path fill="#999999" d="M6.179,50.243l6.063,7.691l7.893-9.232l5.501,10.063l6.792-6.245l2.069,2.131l6.436-2.713l7.835,6.426
	l9.27-6.094l8.055,8.303l9.839-12.083l3.306,4.641h15.387v-2.264l-12.941-0.135l-5.525-7.752L65.794,55.693l-7.095-7.313
	l-9.623,6.318l-7.313-5.989l-6.103,2.568l-3.066-3.147l-5.828,5.371L20.904,42.77l-8.525,9.97l-6.553-8.309"/>
<path fill="none" stroke="#000000" stroke-miterlimit="10" d="M74.444,85.133c0,6.274-4.489,11.362-10.027,11.362H35.583
	c-5.538,0-10.027-5.088-10.027-11.362V15.699c0-6.275,4.489-11.363,10.027-11.363h28.833c5.538,0,10.027,5.087,10.027,11.363V85.133
	z"/>
</svg>
