<?xml version="1.0" encoding="utf-8"?>
<!-- Generator: Adobe Illustrator 16.0.3, SVG Export Plug-In . SVG Version: 6.00 Build 0)  -->
<!DOCTYPE svg PUBLIC "-//W3C//DTD SVG 1.1//EN" "http://www.w3.org/Graphics/SVG/1.1/DTD/svg11.dtd">
<svg version="1.1" id="Layer_1" xmlns="http://www.w3.org/2000/svg" xmlns:xlink="http://www.w3.org/1999/xlink" x="0px" y="0px"
	 width="100px" height="100px" viewBox="0 0 100 100" enable-background="new 0 0 100 100" xml:space="preserve">
<g id="Captions">
</g>
<g id="Your_Icon">
	<g>
		<path d="M48.429,71.443c0,0.979,0,2.328,0,3.813c-0.001,0.287-0.062,0.55-0.187,0.813c-0.187,0.397-0.537,0.8-1.027,1.098
			c-0.489,0.3-1.103,0.488-1.787,0.488h-24c-0.91,0.003-1.703-0.34-2.23-0.815c-0.264-0.237-0.458-0.504-0.583-0.768
			c-0.124-0.269-0.185-0.529-0.186-0.816c0-1.485,0-2.836,0-3.813s0-1.586,0-1.586h-6c0,0,0,0.606,0,1.586c0,0.979,0,2.328,0,3.813
			c-0.001,1.197,0.275,2.353,0.76,3.377c0.729,1.539,1.905,2.79,3.33,3.659c1.426,0.868,3.118,1.363,4.909,1.363h24
			c2.39-0.002,4.597-0.876,6.243-2.356c0.824-0.741,1.513-1.641,1.996-2.666c0.485-1.024,0.763-2.18,0.76-3.377
			c0-1.485,0-2.836,0-3.813s0-1.586,0-1.586h-5.999C48.429,69.857,48.429,70.465,48.429,71.443z"/>
		<path d="M28.029,74.656h10.799c1.326,0,2.4-1.074,2.4-2.399s-1.074-2.399-2.4-2.399h-3V55.458c0.001-0.988,0.399-1.877,1.06-2.539
			c0.663-0.661,1.552-1.062,2.54-1.062h6.207l-4.303,4.304l3.394,3.396l10.098-10.099L44.726,39.361l-3.394,3.394l4.302,4.302
			h-6.206c-2.312,0-4.422,0.951-5.935,2.466c-1.514,1.512-2.465,3.622-2.465,5.935v14.399h-3c-1.326,0-2.4,1.074-2.4,2.399
			S26.703,74.656,28.029,74.656z"/>
	</g>
</g>
<path fill="none" d="M100,50c0,27.614-22.387,50-50,50C22.386,100,0,77.614,0,50C0,22.385,25.052,0,50,0C77.613,0,100,22.386,100,50
	z"/>
<g>
	<path stroke="#000000" stroke-miterlimit="10" d="M53.564,26.76c0,6.207-3.764,9.969-9.296,9.969c-5.617,0-8.902-4.24-8.902-9.632
		c0-5.673,3.623-9.913,9.211-9.913C50.39,17.184,53.564,21.537,53.564,26.76z M39.888,27.012c0,3.707,1.741,6.319,4.605,6.319
		c2.893,0,4.549-2.752,4.549-6.431c0-3.398-1.629-6.319-4.578-6.319C41.573,20.582,39.888,23.333,39.888,27.012z"/>
	<path stroke="#000000" stroke-miterlimit="10" d="M56.514,32.011c1.15,0.59,2.92,1.18,4.745,1.18c1.967,0,3.005-0.814,3.005-2.05
		c0-1.18-0.898-1.854-3.173-2.668c-3.146-1.095-5.195-2.836-5.195-5.588c0-3.229,2.695-5.701,7.16-5.701
		c2.135,0,3.707,0.449,4.831,0.955l-0.955,3.454c-0.758-0.365-2.105-0.899-3.96-0.899c-1.853,0-2.751,0.843-2.751,1.825
		c0,1.208,1.066,1.742,3.51,2.668c3.342,1.236,4.914,2.977,4.914,5.645c0,3.173-2.442,5.869-7.638,5.869
		c-2.163,0-4.297-0.562-5.364-1.151L56.514,32.011z"/>
	<path stroke="#000000" stroke-miterlimit="10" d="M85.438,35.886c-0.786,0.393-2.555,0.814-4.857,0.814
		c-6.543,0-9.914-4.072-9.914-9.463c0-6.459,4.606-10.054,10.335-10.054c2.219,0,3.903,0.449,4.661,0.842l-0.87,3.398
		c-0.87-0.365-2.078-0.702-3.595-0.702c-3.397,0-6.038,2.05-6.038,6.263c0,3.791,2.247,6.178,6.067,6.178
		c1.291,0,2.723-0.281,3.565-0.618L85.438,35.886z"/>
</g>
</svg>
