<?xml version="1.0" encoding="utf-8"?>
<!-- Generator: Adobe Illustrator 16.0.3, SVG Export Plug-In . SVG Version: 6.00 Build 0)  -->
<!DOCTYPE svg PUBLIC "-//W3C//DTD SVG 1.1//EN" "http://www.w3.org/Graphics/SVG/1.1/DTD/svg11.dtd">
<svg version="1.1" xmlns="http://www.w3.org/2000/svg" xmlns:xlink="http://www.w3.org/1999/xlink" x="0px" y="0px" width="96px"
	 height="96px" viewBox="0 0 96 96" enable-background="new 0 0 96 96" xml:space="preserve">
<g id="Layer_1">
</g>
<g id="Layer_2">
	<path fill="none" d="M96.1,48.098c0,26.498-21.49,47.988-47.994,47.988c-26.51,0-48-21.49-48-47.988
		c0-26.507,21.49-47.998,48-47.998C74.609,0.1,96.1,21.59,96.1,48.098z"/>
	<path d="M53.781,52.488c0.085-0.73,0.171-1.458,0.171-2.186c0-5.374-2.668-10.324-7.193-13.251l-1.549,2.366
		c3.708,2.411,5.902,6.457,5.902,10.885c0,0.428-0.043,0.857-0.043,1.241c-0.129,0-0.303,0-0.473,0
		c-3.277,0-5.946,2.667-5.946,5.938s2.669,5.939,5.946,5.939c3.27,0,5.938-2.668,5.938-5.939
		C56.535,55.374,55.417,53.523,53.781,52.488z M50.597,60.623c-1.723,0-3.105-1.421-3.105-3.098c0-1.722,1.426-3.1,3.105-3.1
		c1.722,0,3.098,1.419,3.098,3.1C53.737,59.202,52.318,60.623,50.597,60.623z M38.108,63.335c-2.71,0-5.379-0.861-7.574-2.453
		c0.688-0.989,1.076-2.152,1.076-3.443c0-3.271-2.668-5.938-5.931-5.938c-3.26,0-5.93,2.667-5.93,5.938
		c0,3.271,2.669,5.939,5.93,5.939c0.942,0,1.844-0.214,2.662-0.646c2.752,2.195,6.196,3.358,9.725,3.358
		c2.41,0,4.69-0.514,6.844-1.549l-1.206-2.54C41.984,62.907,40.088,63.335,38.108,63.335z M22.591,57.482
		c0-1.723,1.418-3.098,3.088-3.098c1.715,0,3.091,1.419,3.091,3.098c0,1.72-1.417,3.1-3.091,3.1
		C24.009,60.623,22.591,59.202,22.591,57.482z M31.438,39.116c0.387-0.214,0.774-0.429,1.161-0.602
		c0.99,1.937,2.97,3.271,5.294,3.271c3.272,0,5.941-2.669,5.941-5.94c0-3.27-2.669-5.938-5.941-5.938
		c-3.228,0-5.853,2.582-5.939,5.81c-0.688,0.302-1.334,0.646-1.98,0.99c-4.593,2.755-7.426,7.618-7.598,12.995l2.791,0.085
		C25.336,45.401,27.696,41.398,31.438,39.116z M37.937,32.705c1.722,0,3.099,1.421,3.099,3.099c0,1.722-1.421,3.099-3.099,3.099
		c-1.723,0-3.1-1.421-3.1-3.099C34.794,34.125,36.214,32.705,37.937,32.705z"/>
	<path fill="none" stroke="#231F20" stroke-width="3" stroke-linejoin="round" stroke-miterlimit="10" d="M72.826,66.508
		c0,6.512-5.279,11.793-11.792,11.793H24.98c-6.513,0-11.792-5.281-11.792-11.793V29.492c0-6.513,5.28-11.792,11.792-11.792h36.054
		c6.513,0,11.792,5.28,11.792,11.792V66.508z"/>
	<path d="M59.224,51.461h21.984l-6.221,6.221l4.906,4.907l14.612-14.586L79.89,33.409l-4.904,4.909l6.218,6.219H59.224"/>
</g>
</svg>
