<?xml version="1.0" encoding="utf-8"?>
<!-- Generator: Adobe Illustrator 16.0.3, SVG Export Plug-In . SVG Version: 6.00 Build 0)  -->
<!DOCTYPE svg PUBLIC "-//W3C//DTD SVG 1.1//EN" "http://www.w3.org/Graphics/SVG/1.1/DTD/svg11.dtd">
<svg version="1.1" id="Layer_1" xmlns="http://www.w3.org/2000/svg" xmlns:xlink="http://www.w3.org/1999/xlink" x="0px" y="0px"
	 width="96px" height="96px" viewBox="0 0 96 96" enable-background="new 0 0 96 96" xml:space="preserve">
<g id="Layer_1_1_">
</g>
<circle fill="none" cx="48" cy="47.8" r="48"/>
<g>
	<g>
		<g>
			<line stroke="#000000" stroke-width="3" stroke-miterlimit="10" x1="18.731" y1="75.652" x2="42.194" y2="64.209"/>
			<g>
				<polygon stroke="#000000" stroke-width="3" stroke-miterlimit="10" points="42.655,66.204 44.227,63.217 40.907,62.616 				"/>
			</g>
		</g>
	</g>
	<g>
		<g>
			<line stroke="#000000" stroke-width="3" stroke-miterlimit="10" x1="18.057" y1="47.086" x2="18.057" y2="80.223"/>
			<g>
				<polygon stroke="#000000" stroke-width="3" stroke-miterlimit="10" points="16.063,47.67 18.057,44.216 20.052,47.67 				"/>
			</g>
		</g>
	</g>
	<g>
		<g>
			<line stroke="#000000" stroke-width="3" stroke-miterlimit="10" x1="12.699" y1="76.455" x2="45.823" y2="76.455"/>
			<g>
				<polygon stroke="#000000" stroke-width="3" stroke-miterlimit="10" points="45.241,78.451 48.693,76.455 45.241,74.461 				"/>
			</g>
		</g>
	</g>
</g>
<g>
	<g>
		<g>
			<line fill="#666666" stroke="#666666" stroke-width="3" stroke-miterlimit="10" x1="60.167" y1="36.833" x2="83.63" y2="25.39"/>
			<g>
				<polygon fill="#666666" stroke="#666666" stroke-width="3" stroke-miterlimit="10" points="84.091,27.385 85.663,24.398 
					82.343,23.797 				"/>
			</g>
		</g>
	</g>
	<g>
		<g>
			
				<line fill="#666666" stroke="#666666" stroke-width="3" stroke-miterlimit="10" x1="59.493" y1="8.268" x2="59.493" y2="41.404"/>
			<g>
				<polygon fill="#666666" stroke="#666666" stroke-width="3" stroke-miterlimit="10" points="57.499,8.852 59.493,5.397 
					61.489,8.852 				"/>
			</g>
		</g>
	</g>
	<g>
		<g>
			
				<line fill="#666666" stroke="#666666" stroke-width="3" stroke-miterlimit="10" x1="54.135" y1="37.636" x2="87.259" y2="37.636"/>
			<g>
				<polygon fill="#666666" stroke="#666666" stroke-width="3" stroke-miterlimit="10" points="86.677,39.632 90.13,37.636 
					86.677,35.642 				"/>
			</g>
		</g>
	</g>
</g>
<g>
	<path fill="#FFFFFF" d="M27.083,59.857C27,45.833,27.167,36.5,51.084,37.848"/>
	<g>
		<path fill="none" stroke="#000000" stroke-width="3.2863" stroke-miterlimit="10" d="M27.083,59.857
			c-0.07-11.733,0.035-20.183,14.078-21.841"/>
		<g>
			<path d="M51.084,37.848c-4.617,1.859-10.324,4.97-13.825,8.197l2.611-7.889l-3.04-7.733
				C40.503,33.453,46.372,36.247,51.084,37.848z"/>
		</g>
	</g>
</g>
</svg>
