<?xml version="1.0" encoding="utf-8"?>
<!-- Generator: Adobe Illustrator 16.0.3, SVG Export Plug-In . SVG Version: 6.00 Build 0)  -->
<!DOCTYPE svg PUBLIC "-//W3C//DTD SVG 1.1//EN" "http://www.w3.org/Graphics/SVG/1.1/DTD/svg11.dtd">
<svg version="1.1" id="Layer_1" xmlns="http://www.w3.org/2000/svg" xmlns:xlink="http://www.w3.org/1999/xlink" x="0px" y="0px"
	 width="96px" height="96px" viewBox="0 0 96 96" enable-background="new 0 0 96 96" xml:space="preserve">
<g id="Layer_1_1_">
</g>
<circle fill="none" cx="47.998" cy="48" r="48"/>
<g>
	<path d="M30.795,87.419c-0.312,1.186,0.389,2.398,1.569,2.715l7.296,1.961l-5.058-18.874L30.795,87.419z"/>
	<path d="M43.003,93.161c0.318,1.184,1.532,1.885,2.715,1.566l8.142-2.184L38.8,77.481L43.003,93.161z"/>
	<path d="M71.716,74.888L54.425,57.596c-0.409-0.407-0.962-0.635-1.534-0.635l-11.809-0.006c-1.633,0-2.956,1.323-2.956,2.959
		v11.813c0,0.58,0.227,1.131,0.638,1.537l17.285,17.294c0.438,0.432,0.999,0.65,1.568,0.65c0.564,0,1.134-0.221,1.566-0.65
		l12.531-12.534C72.581,77.156,72.581,75.753,71.716,74.888z M44.528,65.131c-1.278,0-2.313-1.029-2.313-2.313
		c0-1.275,1.036-2.313,2.313-2.313c1.275,0,2.312,1.037,2.312,2.313C46.84,64.102,45.804,65.131,44.528,65.131z"/>
</g>
<path d="M45.6,30.308v15.205l-4.303-4.303l-3.396,3.395L48,54.689l10.098-10.085l-3.395-3.395l-4.305,4.301V30.308"/>
<line fill="#707070" stroke="#707070" stroke-width="2.5" stroke-miterlimit="10" x1="18.473" y1="25.784" x2="77.191" y2="25.784"/>
<path fill="none" stroke="#000000" stroke-width="4" stroke-miterlimit="10" d="M18.667,20.772h18.404V5.314h22.513V20.44v0.333
	c17.749,0,17.749,0,17.749,0"/>
</svg>
