<?xml version="1.0" encoding="utf-8"?>
<!-- Generator: Adobe Illustrator 16.0.3, SVG Export Plug-In . SVG Version: 6.00 Build 0)  -->
<!DOCTYPE svg PUBLIC "-//W3C//DTD SVG 1.1//EN" "http://www.w3.org/Graphics/SVG/1.1/DTD/svg11.dtd">
<svg version="1.1" id="Layer_1" xmlns="http://www.w3.org/2000/svg" xmlns:xlink="http://www.w3.org/1999/xlink" x="0px" y="0px"
	 width="96px" height="96px" viewBox="0 0 96 96" enable-background="new 0 0 96 96" xml:space="preserve">
<circle fill="none" cx="48" cy="48" r="48"/>
<line fill="none" stroke="#999999" stroke-width="2" stroke-miterlimit="10" x1="2.5" y1="62.167" x2="93.834" y2="62.334"/>
<path fill="#663333" d="M90.059,59.461"/>
<path fill="#663333" d="M100.809,77.086"/>
<path fill="none" stroke="#333333" stroke-width="2.911" stroke-miterlimit="10" d="M0,56.167
	c3.663-36.625,4.641,22.599,8.806-3.276c3.031-10.542,4.714,59.963,8.133,2.486l0,0c4.562-48.965,7.992,4.91,10.818-1.729
	c3.547-20.726,6.831,13.246,10.34-1.854c1.614-17.939,2.341-45.67,5.844-45.667c3.559-0.003,7.338,30.884,9.704,43.54
	c8.901,41.354,14.33,0.789,23.189,9.249C87.109,76.508,85.801,26.25,96,54.334"/>
<path fill="none" stroke="#333333" stroke-width="0.8713" stroke-miterlimit="10" d="M-4.912,4.241"/>
<path fill="none" stroke="#333333" stroke-width="0.8713" stroke-miterlimit="10" d="M-28.633,4.241"/>
<g enable-background="new    ">
	<path d="M70.292,35.367c-3.088-0.027-3.498,2.649-3.472,5.054c0.021,1.924,0.215,3.849,0.412,5.772
		c0.19,1.926,0.389,3.782,0.404,5.704c0.067,6.323-2.517,8.979-6.213,8.945l-0.915-0.01l-0.036-3.777l0.779,0.01
		c2.566,0.021,3.414-2.17,3.374-5.883c-0.019-1.578-0.165-3.224-0.354-4.875c-0.191-1.718-0.338-3.367-0.358-5.223
		c-0.089-4.397,1.104-6.586,3.055-7.393l-0.003-0.138c-1.963-0.771-3.207-3.12-3.212-7.515c-0.019-1.854,0.093-3.571,0.251-5.218
		c0.156-1.715,0.268-3.295,0.252-4.944c-0.043-3.847-1.064-5.985-3.5-6.005l-0.783-0.01l-0.041-3.778l0.916,0.008
		c3.608,0.031,6.334,2.529,6.405,9.466c0.019,1.855-0.133,3.776-0.289,5.631c-0.153,1.853-0.306,3.707-0.29,5.563
		c0.023,2.129,0.489,5.087,3.576,5.116L70.292,35.367z"/>
</g>
</svg>
