<?xml version="1.0" encoding="utf-8"?>
<!-- Generator: Adobe Illustrator 16.0.3, SVG Export Plug-In . SVG Version: 6.00 Build 0)  -->
<!DOCTYPE svg PUBLIC "-//W3C//DTD SVG 1.1//EN" "http://www.w3.org/Graphics/SVG/1.1/DTD/svg11.dtd">
<svg version="1.1" id="Layer_1" xmlns="http://www.w3.org/2000/svg" xmlns:xlink="http://www.w3.org/1999/xlink" x="0px" y="0px"
	 width="100px" height="100px" viewBox="0 0 100 100" enable-background="new 0 0 100 100" xml:space="preserve">
<g id="Captions">
</g>
<g id="Your_Icon">
	<g>
		<path d="M78.765,69.631c0,0.002,0,0.607,0,1.588c0,0.979,0,2.327,0,3.813c-0.001,0.287-0.062,0.55-0.187,0.816
			c-0.186,0.396-0.536,0.799-1.026,1.096c-0.489,0.299-1.104,0.487-1.788,0.487h-24c-0.91,0.003-1.702-0.339-2.23-0.815
			c-0.263-0.238-0.458-0.502-0.583-0.767c-0.124-0.268-0.185-0.53-0.187-0.817c0-1.486,0-2.836,0-3.813c0-0.979,0-1.586,0-1.588
			h-5.999c0,0.002,0,0.607,0,1.588c0,0.979,0,2.327,0,3.813c-0.001,1.199,0.275,2.354,0.76,3.377
			c0.729,1.539,1.905,2.791,3.331,3.659c1.425,0.868,3.117,1.364,4.908,1.364h24c2.391-0.002,4.598-0.877,6.244-2.355
			c0.824-0.742,1.512-1.641,1.996-2.668c0.484-1.023,0.762-2.178,0.76-3.377c0-1.486,0-2.836,0-3.813c0-0.979,0-1.586,0-1.588
			H78.765z"/>
		<path d="M60.305,47.891c0.66,0.663,1.059,1.553,1.06,2.541v14.006l-4.302-4.303l-3.395,3.395l10.096,10.097l10.098-10.097
			l-3.393-3.395l-4.305,4.304V50.432c0.001-2.313-0.951-4.424-2.465-5.936c-1.512-1.515-3.623-2.465-5.935-2.465h-7.2v4.8h7.2
			C58.752,46.832,59.641,47.23,60.305,47.891z"/>
	</g>
</g>
<g>
	<path stroke="#000000" stroke-width="2" stroke-linecap="round" stroke-linejoin="round" stroke-miterlimit="10" d="M10.292,33.718
		c0-1.199,0.81-2.041,1.943-2.041c1.134,0,1.912,0.842,1.912,2.041c0,1.166-0.745,2.041-1.944,2.041
		C11.069,35.759,10.292,34.884,10.292,33.718z"/>
	<path stroke="#000000" stroke-width="2" stroke-linecap="round" stroke-linejoin="round" stroke-miterlimit="10" d="M17.679,24.615
		c0-1.847-0.032-3.434-0.129-4.892h2.494l0.097,3.077h0.13c0.712-2.105,2.429-3.434,4.341-3.434c0.324,0,0.551,0.032,0.81,0.097
		v2.688c-0.292-0.064-0.583-0.097-0.972-0.097c-2.008,0-3.434,1.523-3.823,3.661c-0.064,0.389-0.129,0.842-0.129,1.328v8.358h-2.818
		V24.615z"/>
	<path stroke="#000000" stroke-width="2" stroke-linecap="round" stroke-linejoin="round" stroke-miterlimit="10" d="M29.537,28.081
		c0.065,3.855,2.527,5.442,5.377,5.442c2.041,0,3.272-0.356,4.341-0.81l0.486,2.041c-1.004,0.454-2.721,0.972-5.215,0.972
		c-4.827,0-7.71-3.174-7.71-7.904c0-4.73,2.786-8.455,7.354-8.455c5.118,0,6.479,4.503,6.479,7.386c0,0.583-0.065,1.037-0.097,1.328
		H29.537z M37.895,26.041c0.032-1.814-0.745-4.632-3.952-4.632c-2.883,0-4.146,2.656-4.374,4.632H37.895z"/>
	<path stroke="#000000" stroke-width="2" stroke-linecap="round" stroke-linejoin="round" stroke-miterlimit="10" d="M55.357,34.819
		c-0.745,0.389-2.396,0.907-4.503,0.907c-4.729,0-7.807-3.207-7.807-8.001c0-4.827,3.304-8.326,8.423-8.326
		c1.685,0,3.175,0.421,3.952,0.81l-0.648,2.203c-0.68-0.389-1.749-0.745-3.304-0.745c-3.596,0-5.54,2.656-5.54,5.928
		c0,3.628,2.332,5.863,5.442,5.863c1.62,0,2.688-0.421,3.499-0.777L55.357,34.819z"/>
</g>
<g>
	<circle fill="none" cx="49" cy="50" r="50"/>
</g>
</svg>
