<?xml version="1.0" encoding="utf-8"?>
<!-- Generator: Adobe Illustrator 16.0.3, SVG Export Plug-In . SVG Version: 6.00 Build 0)  -->
<!DOCTYPE svg PUBLIC "-//W3C//DTD SVG 1.1//EN" "http://www.w3.org/Graphics/SVG/1.1/DTD/svg11.dtd">
<svg version="1.1" id="Layer_1" xmlns="http://www.w3.org/2000/svg" xmlns:xlink="http://www.w3.org/1999/xlink" x="0px" y="0px"
	 width="96px" height="96px" viewBox="0 0 96 96" enable-background="new 0 0 96 96" xml:space="preserve">
<g id="Layer_1_1_">
</g>
<circle fill="none" cx="48" cy="47.8" r="48"/>
<g>
	<polygon points="28.265,83.423 18.533,78.939 18.533,67.736 28.265,72.22 	"/>
	<polygon points="39.493,89.02 30.51,84.537 30.51,73.34 39.493,77.82 	"/>
	<polygon points="28.265,69.979 18.533,65.497 18.533,54.297 28.265,58.777 	"/>
	<polygon points="39.493,75.58 30.51,71.102 30.51,59.896 39.493,64.377 	"/>
	<polygon points="51.855,83.423 61.589,78.939 61.589,67.736 51.855,72.22 	"/>
	<polygon points="41.741,89.02 49.975,84.537 49.975,73.34 41.741,77.82 	"/>
	<polygon points="51.855,69.979 61.589,65.497 61.589,54.297 51.855,58.777 	"/>
	<polygon points="41.741,75.58 49.975,71.102 49.975,59.896 41.741,64.377 	"/>
	<polygon points="49.632,57.516 40.496,61.994 31.261,57.516 40.496,53.141 	"/>
	<polygon points="61.172,51.915 52.037,56.396 42.802,51.915 52.037,47.542 	"/>
	<polygon points="38.09,51.915 28.954,56.396 19.717,51.915 28.954,47.542 	"/>
	<polygon points="49.632,46.313 40.496,50.795 31.261,46.313 40.496,41.941 	"/>
</g>
<g>
	<polygon fill="#666666" points="55.865,39.798 49.27,36.76 49.27,29.166 55.865,32.205 	"/>
	<polygon fill="#666666" points="63.479,43.592 57.389,40.554 57.389,32.964 63.479,36 	"/>
	<polygon fill="#666666" points="55.865,30.686 49.27,27.648 49.27,20.055 55.865,23.093 	"/>
	<polygon fill="#666666" points="63.479,34.482 57.389,31.445 57.389,23.851 63.479,26.889 	"/>
	<polygon fill="#666666" points="71.857,39.798 78.455,36.76 78.455,29.166 71.857,32.205 	"/>
	<polygon fill="#666666" points="64.999,43.592 70.582,40.554 70.582,32.964 64.999,36 	"/>
	<polygon fill="#666666" points="71.857,30.686 78.455,27.648 78.455,20.055 71.857,23.093 	"/>
	<polygon fill="#666666" points="64.999,34.482 70.582,31.445 70.582,23.851 64.999,26.889 	"/>
	<polygon fill="#666666" points="70.35,22.237 64.156,25.273 57.896,22.237 64.156,19.271 	"/>
	<polygon fill="#666666" points="78.173,18.441 71.979,21.479 65.721,18.441 71.979,15.477 	"/>
	<polygon fill="#666666" points="62.525,18.441 56.332,21.479 50.072,18.441 56.332,15.477 	"/>
	<polygon fill="#666666" points="70.35,14.644 64.156,17.681 57.896,14.644 64.156,11.68 	"/>
</g>
</svg>
