<?xml version="1.0" encoding="utf-8"?>
<!-- Generator: Adobe Illustrator 16.0.3, SVG Export Plug-In . SVG Version: 6.00 Build 0)  -->
<!DOCTYPE svg PUBLIC "-//W3C//DTD SVG 1.1//EN" "http://www.w3.org/Graphics/SVG/1.1/DTD/svg11.dtd">
<svg version="1.1" id="Layer_1" xmlns="http://www.w3.org/2000/svg" xmlns:xlink="http://www.w3.org/1999/xlink" x="0px" y="0px"
	 width="96px" height="96px" viewBox="0 0 96 96" enable-background="new 0 0 96 96" xml:space="preserve">
<circle fill="none" cx="48" cy="48" r="48"/>
<ellipse fill="#666666" stroke="#666666" stroke-linecap="round" stroke-miterlimit="10" cx="54.639" cy="29.464" rx="4.612" ry="4.672"/>
<ellipse fill="#666666" stroke="#666666" stroke-linecap="round" stroke-miterlimit="10" cx="12.696" cy="57.913" rx="4.611" ry="4.672"/>
<ellipse fill="#666666" stroke="#666666" stroke-linecap="round" stroke-miterlimit="10" cx="34.465" cy="64.828" rx="4.611" ry="4.672"/>
<ellipse fill="#666666" stroke="#666666" stroke-linecap="round" stroke-miterlimit="10" cx="27.229" cy="54.515" rx="4.611" ry="4.672"/>
<path fill="#666666" stroke="#666666" stroke-linecap="round" stroke-miterlimit="10" d="M73.252,51.123
	c0,2.58-2.064,4.672-4.611,4.672s-4.611-2.092-4.611-4.672c0-2.573,2.064-4.665,4.611-4.665S73.252,48.55,73.252,51.123z"/>
<ellipse fill="#666666" stroke="#666666" stroke-linecap="round" stroke-miterlimit="10" cx="25.631" cy="78.949" rx="4.611" ry="4.672"/>
<ellipse fill="#666666" stroke="#666666" stroke-linecap="round" stroke-miterlimit="10" cx="53.809" cy="53.995" rx="4.61" ry="4.672"/>
<path fill="#666666" stroke="#666666" stroke-linecap="round" stroke-miterlimit="10" d="M50.251,39.463
	c0,2.58-2.066,4.672-4.62,4.672c-2.547,0-4.611-2.092-4.611-4.672c0-2.581,2.064-4.672,4.611-4.672
	C48.185,34.791,50.251,36.882,50.251,39.463z"/>
<radialGradient id="SVGID_1_" cx="-204.3594" cy="-684.0547" r="28.0931" gradientTransform="matrix(0.8192 -0.5736 -0.2294 -0.3277 50.3278 -287.098)" gradientUnits="userSpaceOnUse">
	<stop  offset="0" style="stop-color:#000000"/>
	<stop  offset="1" style="stop-color:#A8A8A8"/>
</radialGradient>
<path opacity="0.7" fill="url(#SVGID_1_)" enable-background="new    " d="M69.134,33.805c5.498,7.852-3.153,23.358-19.321,34.679
	C33.604,79.807,16.041,82.62,10.542,74.77c-5.497-7.853,3.154-23.373,19.323-34.681C46.064,28.768,63.637,25.954,69.134,33.805z"/>
<g>
	<g>
		<g>
			<line fill="none" stroke="#000000" stroke-width="5" stroke-miterlimit="10" x1="37.583" y1="56.029" x2="79.391" y2="26.963"/>
			<g>
				<polygon points="81.781,34.107 87.936,21.024 73.527,22.233 				"/>
			</g>
		</g>
	</g>
	<g>
		<g>
			<line fill="none" stroke="#000000" stroke-width="5" stroke-miterlimit="10" x1="39.076" y1="56.04" x2="22.901" y2="32.918"/>
			<g>
				<polygon points="30.037,30.505 16.933,24.395 18.191,38.797 				"/>
			</g>
		</g>
	</g>
	<polygon fill="none" stroke="#000000" stroke-width="5" stroke-miterlimit="10" points="46.325,49.777 38.701,55.068 
		33.633,47.858 41.239,42.533 	"/>
</g>
</svg>
