<?xml version="1.0" encoding="utf-8"?>
<!-- Generator: Adobe Illustrator 16.0.3, SVG Export Plug-In . SVG Version: 6.00 Build 0)  -->
<!DOCTYPE svg PUBLIC "-//W3C//DTD SVG 1.1//EN" "http://www.w3.org/Graphics/SVG/1.1/DTD/svg11.dtd">
<svg version="1.1" id="Layer_1" xmlns="http://www.w3.org/2000/svg" xmlns:xlink="http://www.w3.org/1999/xlink" x="0px" y="0px"
	 width="100px" height="100px" viewBox="0 0 100 100" enable-background="new 0 0 100 100" xml:space="preserve">
<g id="Captions">
</g>
<g id="Your_Icon">
	<g>
		<path d="M48.429,71.443c0,0.979,0,2.328,0,3.813c-0.001,0.287-0.062,0.551-0.187,0.813c-0.187,0.397-0.537,0.803-1.027,1.101
			c-0.489,0.3-1.103,0.488-1.787,0.488h-24c-0.91,0.003-1.703-0.343-2.23-0.815c-0.264-0.234-0.458-0.504-0.583-0.768
			c-0.124-0.271-0.185-0.529-0.186-0.816c0-1.482,0-2.836,0-3.813c0-0.978,0-1.586,0-1.586h-6c0,0,0,0.604,0,1.586
			c0,0.979,0,2.328,0,3.813c-0.001,1.197,0.275,2.354,0.76,3.377c0.729,1.539,1.905,2.79,3.33,3.659
			c1.426,0.868,3.118,1.363,4.909,1.363h24c2.39-0.005,4.597-0.876,6.243-2.356c0.824-0.738,1.513-1.641,1.996-2.666
			c0.485-1.021,0.763-2.18,0.76-3.377c0-1.482,0-2.836,0-3.813c0-0.978,0-1.586,0-1.586h-5.999
			C48.429,69.857,48.429,70.465,48.429,71.443z"/>
		<path d="M28.029,74.656h10.799c1.326,0,2.4-1.074,2.4-2.399s-1.074-2.399-2.4-2.399h-3V55.458c0.001-0.988,0.399-1.877,1.06-2.539
			c0.663-0.661,1.552-1.062,2.54-1.062h6.207l-4.303,4.304l3.394,3.396l10.098-10.099L44.726,39.361l-3.394,3.394l4.302,4.302
			h-6.206c-2.312,0-4.422,0.951-5.935,2.466c-1.514,1.512-2.465,3.622-2.465,5.935v14.399h-3c-1.326,0-2.4,1.074-2.4,2.396
			C25.628,73.581,26.703,74.656,28.029,74.656z"/>
	</g>
</g>
<path stroke="#000000" stroke-width="2" stroke-linecap="round" stroke-linejoin="round" stroke-miterlimit="10" d="M44.126,35.718
	c0-1.198,0.81-2.041,1.943-2.041c1.134,0,1.912,0.843,1.912,2.041c0,1.166-0.745,2.041-1.944,2.041
	C44.903,37.759,44.126,36.884,44.126,35.718z"/>
<ellipse fill="none" cx="49.938" cy="49.938" rx="49.938" ry="50.063"/>
<path stroke="#000000" stroke-width="2.3" stroke-linecap="round" stroke-linejoin="round" stroke-miterlimit="10" d="M62.185,38.93
	c-0.733,0.367-2.2,0.733-4.079,0.733c-4.355,0-7.628-2.75-7.628-7.815c0-4.836,3.273-8.113,8.064-8.113
	c1.925,0,3.139,0.413,3.666,0.688l-0.48,1.627c-0.757-0.367-1.834-0.642-3.117-0.642c-3.621,0-6.027,2.315-6.027,6.372
	c0,3.782,2.177,6.211,5.936,6.211c1.215,0,2.452-0.252,3.254-0.642L62.185,38.93z"/>
<path stroke="#000000" stroke-width="2.3" stroke-linecap="round" stroke-linejoin="round" stroke-miterlimit="10" d="
	M65.801,37.005c0.895,0.55,2.201,1.008,3.576,1.008c2.039,0,3.231-1.077,3.231-2.636c0-1.444-0.825-2.269-2.911-3.071
	c-2.521-0.894-4.079-2.2-4.079-4.377c0-2.406,1.994-4.194,4.996-4.194c1.581,0,2.728,0.367,3.415,0.756l-0.55,1.627
	c-0.505-0.275-1.536-0.733-2.934-0.733c-2.109,0-2.911,1.261-2.911,2.315c0,1.444,0.939,2.154,3.071,2.979
	c2.612,1.008,3.941,2.269,3.941,4.538c0,2.384-1.765,4.446-5.408,4.446c-1.49,0-3.117-0.435-3.942-0.985L65.801,37.005z"/>
<path stroke="#000000" stroke-width="2.3" stroke-linecap="round" stroke-linejoin="round" stroke-miterlimit="10" d="
	M83.058,39.435l-5.042-15.447h2.154l2.406,7.609c0.665,2.086,1.237,3.965,1.65,5.776h0.046c0.436-1.788,1.077-3.736,1.765-5.753
	l2.612-7.632h2.132l-5.523,15.447H83.058z"/>
</svg>
