<?xml version="1.0" encoding="utf-8"?>
<!-- Generator: Adobe Illustrator 16.0.3, SVG Export Plug-In . SVG Version: 6.00 Build 0)  -->
<!DOCTYPE svg PUBLIC "-//W3C//DTD SVG 1.1//EN" "http://www.w3.org/Graphics/SVG/1.1/DTD/svg11.dtd">
<svg version="1.1" id="Layer_1" xmlns="http://www.w3.org/2000/svg" xmlns:xlink="http://www.w3.org/1999/xlink" x="0px" y="0px"
	 width="100px" height="100px" viewBox="0 0 100 100" enable-background="new 0 0 100 100" xml:space="preserve">
<g id="Captions">
</g>
<g>
	<path stroke="#000000" stroke-width="2" stroke-linecap="round" stroke-linejoin="round" stroke-miterlimit="10" d="M43.365,31.846
		c0-1.199,0.81-2.041,1.943-2.041c1.134,0,1.912,0.842,1.912,2.041c0,1.166-0.745,2.041-1.944,2.041
		C44.143,33.887,43.365,33.012,43.365,31.846z"/>
	<path stroke="#000000" stroke-width="2" stroke-linecap="round" stroke-linejoin="round" stroke-miterlimit="10" d="M50.752,22.743
		c0-1.847-0.032-3.434-0.129-4.892h2.494l0.097,3.077h0.13c0.713-2.105,2.43-3.434,4.341-3.434c0.324,0,0.551,0.032,0.81,0.097
		v2.688c-0.291-0.064-0.583-0.097-0.972-0.097c-2.009,0-3.434,1.523-3.823,3.661c-0.064,0.389-0.129,0.842-0.129,1.328v8.358h-2.818
		V22.743z"/>
	<path stroke="#000000" stroke-width="2" stroke-linecap="round" stroke-linejoin="round" stroke-miterlimit="10" d="M62.609,26.209
		c0.064,3.855,2.526,5.442,5.377,5.442c2.041,0,3.272-0.356,4.342-0.81l0.485,2.041c-1.004,0.454-2.721,0.972-5.216,0.972
		c-4.826,0-7.709-3.174-7.709-7.904c0-4.73,2.785-8.455,7.354-8.455c5.118,0,6.479,4.503,6.479,7.386
		c0,0.583-0.064,1.037-0.098,1.328H62.609z M70.967,24.168c0.032-1.814-0.745-4.632-3.952-4.632c-2.883,0-4.146,2.656-4.373,4.632
		H70.967z"/>
	<path stroke="#000000" stroke-width="2" stroke-linecap="round" stroke-linejoin="round" stroke-miterlimit="10" d="M88.431,32.947
		c-0.745,0.389-2.397,0.907-4.503,0.907c-4.729,0-7.807-3.207-7.807-8.001c0-4.827,3.304-8.326,8.422-8.326
		c1.685,0,3.175,0.421,3.952,0.81l-0.647,2.203c-0.681-0.389-1.75-0.745-3.305-0.745c-3.596,0-5.539,2.656-5.539,5.928
		c0,3.628,2.332,5.863,5.442,5.863c1.619,0,2.688-0.421,3.498-0.777L88.431,32.947z"/>
</g>
<g id="Your_Icon">
	<g>
		<path d="M48.429,71.443c0,0.979,0,2.329,0,3.814c-0.001,0.287-0.062,0.549-0.187,0.814c-0.187,0.397-0.537,0.799-1.027,1.097
			c-0.489,0.3-1.103,0.488-1.787,0.488h-24c-0.91,0.003-1.703-0.339-2.23-0.815c-0.264-0.238-0.458-0.504-0.583-0.768
			c-0.124-0.268-0.185-0.529-0.186-0.816c0-1.486,0-2.836,0-3.814c0-0.977,0-1.585,0-1.586h-6c0,0.001,0,0.607,0,1.586
			c0,0.979,0,2.329,0,3.814c-0.001,1.197,0.275,2.353,0.76,3.377c0.729,1.539,1.905,2.79,3.33,3.659
			c1.426,0.868,3.118,1.363,4.909,1.363h24c2.39-0.002,4.597-0.876,6.243-2.356c0.824-0.741,1.512-1.641,1.996-2.666
			c0.485-1.024,0.762-2.18,0.76-3.377c0-1.486,0-2.836,0-3.814c0-0.977,0-1.585,0-1.586h-5.999
			C48.429,69.858,48.429,70.465,48.429,71.443z"/>
		<path d="M28.029,74.656h10.799c1.326,0,2.4-1.074,2.4-2.399s-1.074-2.399-2.4-2.399h-3v-14.4c0.001-0.988,0.399-1.877,1.06-2.539
			c0.663-0.661,1.552-1.061,2.54-1.061h6.207l-4.303,4.303l3.394,3.395l10.098-10.098L44.726,39.361l-3.394,3.394l4.302,4.302
			h-6.206c-2.312,0-4.422,0.951-5.935,2.466c-1.514,1.512-2.465,3.622-2.465,5.935v14.4h-3c-1.326,0-2.4,1.074-2.4,2.399
			S26.703,74.656,28.029,74.656z"/>
	</g>
</g>
<g>
	<path fill="none" d="M100,50c0,27.614-22.386,50-50,50S0,77.614,0,50C0,22.385,25.052,0,50,0C77.614,0,100,22.386,100,50z"/>
</g>
</svg>
