<?xml version="1.0" encoding="utf-8"?>
<!-- Generator: Adobe Illustrator 16.0.3, SVG Export Plug-In . SVG Version: 6.00 Build 0)  -->
<!DOCTYPE svg PUBLIC "-//W3C//DTD SVG 1.1//EN" "http://www.w3.org/Graphics/SVG/1.1/DTD/svg11.dtd">
<svg version="1.1" id="Layer_1" xmlns="http://www.w3.org/2000/svg" xmlns:xlink="http://www.w3.org/1999/xlink" x="0px" y="0px"
	 width="96px" height="96px" viewBox="0 0 96 96" enable-background="new 0 0 96 96" xml:space="preserve">
<g>
	<path d="M25.571,69.459c1.215-0.298,3.05-0.486,4.859-0.486c1.728,0,3.509,0.27,4.777,1.053c1.188,0.702,2.025,1.862,2.025,3.563
		c0,2.699-1.809,4.372-4.13,5.128v0.108c1.08,0.459,1.539,1.674,1.728,3.32c0.216,2.024,0.377,4.399,0.702,5.155h-3.995
		c-0.162-0.486-0.351-2.052-0.54-4.292c-0.162-2.213-0.918-2.888-2.457-2.888h-1.188l-1.35,7.18h-3.86L25.571,69.459z M27.92,77.205
		h1.619c2.105,0,3.644-1.269,3.644-3.05c0-1.458-1.242-2.105-2.78-2.105c-0.729,0-1.188,0.054-1.511,0.135L27.92,77.205z"/>
	<path d="M51.537,86.788c-0.972,0.432-2.615,0.782-4.799,0.782c-4.805,0-8.044-2.915-8.044-7.72c0-4.076,1.835-7.261,4.589-9.097
		c1.89-1.322,4.13-1.943,6.689-1.943c1.97,0,3.455,0.459,3.968,0.783l-1.053,3.158c-0.54-0.271-1.728-0.594-3.293-0.594
		c-1.56,0-3.045,0.485-4.152,1.403c-1.538,1.241-2.511,3.32-2.511,5.857c0,2.888,1.62,4.832,4.832,4.832
		c1.266,0,2.532-0.217,3.45-0.594L51.537,86.788z"/>
	<path d="M54.402,83.09c1.079,0.647,2.618,1.161,4.292,1.161c1.511,0,2.888-0.702,2.888-2.133c0-1.025-0.782-1.7-2.456-2.564
		c-1.943-1.053-3.779-2.456-3.779-4.832c0-3.671,3.212-5.911,7.181-5.911c2.213,0,3.509,0.486,4.291,0.918l-1.214,3.239
		c-0.594-0.324-1.89-0.837-3.401-0.81c-1.809,0-2.753,0.917-2.753,1.916c0,1.053,1.106,1.7,2.645,2.564
		c2.214,1.161,3.617,2.646,3.617,4.805c0,4.049-3.347,6.127-7.396,6.127c-2.538,0-4.347-0.647-5.21-1.295L54.402,83.09z"/>
	<path d="M70.763,69.459c1.161-0.298,2.996-0.486,4.751-0.486c1.619,0,3.509,0.27,4.832,1.215c1.214,0.837,1.97,2.105,1.97,3.859
		c0,2.295-1.053,4.022-2.482,5.129c-1.485,1.161-3.591,1.674-5.804,1.674c-0.648,0-1.188-0.054-1.593-0.108l-1.242,6.56h-3.806
		L70.763,69.459z M73.03,77.583c0.405,0.081,0.837,0.136,1.484,0.136c2.349,0,3.888-1.512,3.888-3.32c0-1.755-1.27-2.321-2.78-2.321
		c-0.729,0-1.242,0.054-1.566,0.135L73.03,77.583z"/>
</g>
<g>
	<path fill-rule="evenodd" clip-rule="evenodd" fill="#FCFCFC" d="M76.051,43.778c-0.381-0.292-0.766-0.583-1.148-0.877
		c0.178-0.486,0.896-0.918,0.146-1.498c0.083-0.51,0.177-1.016,0.532-1.423c0.143-0.51,0.207-1.089,0.207-1.554
		c0.002-1.639,0.791-3.384-0.435-4.918c0.009-0.125,0.017-0.251,0.024-0.377c0.192-0.157,0.311-0.311-0.027-0.439
		c0.342-1.17-0.237-2.199-0.477-3.282c0.471-0.771,0.248-1.568-0.012-2.314c-0.348-0.981-0.803-1.919-1.215-2.877
		c0.018-0.759-0.572-1.259-0.85-1.888c-2.237-5.035-5.759-8.999-10.26-12.133c-2.807-1.956-5.979-3.11-9.177-4.201
		c-0.628-0.79-1.258-1.579-1.882-2.373c-3.298-4.217-4.431-3.645-7.434,0.261c-0.382,0.386-0.884,0.698-0.917,1.421
		c0.787-0.139,0.988-0.726,1.329-1.162c0.662-0.712,1.299-1.454,1.994-2.134c0.873-0.857,1.859-0.926,2.717-0.031
		c1.082,1.13,2.072,2.354,3.172,3.614c-0.463,0.034-0.771,0.06-1.084,0.083l0.035,0.018c-0.044-0.234-0.121-0.161-0.205-0.021
		c-3.048,0.244-6.153-0.42-9.153,0.649C40.46,6.849,38.95,7.26,37.455,7.721c-0.816,0.08-1.229,0.844-1.909,1.134
		c-3.269,1.389-5.838,3.665-8.07,6.348c-2.447,2.936-4.672,6.018-5.562,9.845c-1.24,1.169-0.848,2.992-1.765,4.372
		c-0.795-0.81-1.642-1.986-2.435-0.02c-0.116,0.182-0.326,0.362-0.33,0.546c-0.067,3.832-0.185,7.66-0.25,11.489
		c-0.052,2.981,1.216,3.59,3.587,2.312c1.313,3.549,2.488,7.11,4.736,10.286c2.835,4.004,6.182,7.27,10.608,9.404
		c-0.035,0.027-0.071,0.057-0.106,0.086c0.049,0.014,0.111,0.014,0.148,0.043c1.095,0.875,2.397,1.277,3.72,1.643
		c3.613,1.318,7.392,0.869,11.106,1.02c1.243-0.32,2.486-0.627,3.72-0.965c3.52-0.963,6.84-2.305,9.477-4.961
		c2.566-1.422,4.186-3.801,5.894-6.033c2.249-2.943,3.707-6.323,4.624-9.929c0.279-0.301,0.535-0.708,1.01-0.271 M76.006,29.464"/>
	<path fill-rule="evenodd" clip-rule="evenodd" fill="#4B4B4B" d="M75.048,41.404c0.751,0.579,0.032,1.011-0.146,1.498
		c-0.285,0.443-0.639,0.875-0.254,1.439c-0.917,3.606-2.375,6.986-4.624,9.929c-1.708,2.232-3.327,4.611-5.894,6.033
		c0.914-3.572-0.02-6.277-3.96-7.318c-3.407-0.898-6.03-3.107-7.632-6.455c-1.016-2.124-1.476-4.427-2.488-6.56
		c-1.279-2.7-2.508-5.454-2.874-8.505c-0.07-0.585,0.198-1.098-0.072-1.793c-0.61-1.597-0.793-3.368-1.104-5.074
		c-0.901-4.946-2.475-9.547-6.046-13.318c-0.967-1.022-2.289-1.942-2.5-3.558c1.495-0.461,3.005-0.872,4.478-1.399
		c3-1.07,6.105-0.405,9.153-0.649c0.066,0.012,0.137,0.02,0.205,0.021l2.069,0.303c0.22,0.075-0.741,0.145,0,0
		c3.198,1.091,6.37,2.245,9.177,4.201c4.501,3.134,8.022,7.098,10.26,12.133c0.277,0.629,0.867,1.129,0.85,1.888
		c0.176,1.504,0.914,2.916,0.75,4.477c-0.962-0.069-1.914,0.035-2.512,0.859c-1.742,2.391-3.703,6.962-1.138,10.556
		C71.915,41.742,73.115,42.201,75.048,41.404z M65.752,34.605c0.058-2.138,0.07-4.278-0.725-6.31
		c-1.135-2.901-3.436-4.663-6.133-5.931c-1.455-0.687-2.922-1.508-4.686-1.047c-2.223,0.581-3.25,2.319-4.088,4.175
		c-1.336,2.958-1.214,6.099-0.346,9.082c1.021,3.528,2.725,6.846,5.428,9.404c3.315,3.143,8.371,1.608,9.744-2.752
		C65.629,39.057,65.854,36.855,65.752,34.605z"/>
	<path fill-rule="evenodd" clip-rule="evenodd" fill="#8B8B8B" d="M37.455,7.721c0.211,1.616,1.533,2.536,2.5,3.558
		C43.525,15.05,45.1,19.651,46,24.597c0.311,1.706,0.495,3.477,1.104,5.074c0.27,0.696,0.002,1.208,0.072,1.793
		c0.366,3.051,1.595,5.806,2.874,8.505c1.013,2.133,1.473,4.437,2.488,6.56c1.602,3.347,4.225,5.556,7.632,6.455
		c3.94,1.041,4.874,3.746,3.96,7.318c-2.637,2.656-5.957,3.998-9.477,4.961c-1.233,0.338-2.477,0.645-3.72,0.965
		c0.356-2.023,1.136-3.971,0.989-6.082c-0.153-2.275-0.694-4.416-1.307-6.619c-0.855-3.061-1.871-6.242-1.328-9.552
		c0.235-1.454-0.344-1.848-1.663-1.376c0-0.367-0.007-0.732-0.007-1.097c1.225-0.103,1.081-0.712,0.69-1.599
		c-0.677-1.541-1.249-3.121-1.693-4.757c-1.24-4.615-2.753-9.105-6.441-12.465l-0.031-0.025c-1.909-1.717-4.203-2.602-6.67-3.121
		c-0.927,0-0.927,0-1.606,0c-0.589,0.105-1.169,0.245-1.761,0.309c-3.041,0.33-5.804,2.708-6.772,5.525
		c-1.087,3.167-0.787,6.527-1.637,9.734c-0.583,2.205-0.427,4.551-0.401,6.848c0.006,0.527,0.152,1.15-0.64,1.291l-0.025-0.025
		c-0.225-1.166-0.104-2.4-0.659-3.506c0.265-0.245,0.311-0.549,0.244-0.883c0-0.129,0.004-0.26,0.004-0.388
		c0.02-2.064,0.036-4.127,0.054-6.192c-0.362-0.368-0.085-0.61,0.173-0.855c0.489-2.115,0.977-4.23,1.466-6.346
		c0.89-3.827,3.115-6.909,5.562-9.845c2.232-2.683,4.802-4.959,8.07-6.348C36.226,8.565,36.639,7.801,37.455,7.721z"/>
	<path fill-rule="evenodd" clip-rule="evenodd" fill="#B5B5B5" d="M47.626,42.599c1.319-0.472,1.898-0.077,1.663,1.376
		c-0.543,3.31,0.473,6.491,1.328,9.552c0.612,2.203,1.153,4.344,1.307,6.619c0.146,2.111-0.633,4.059-0.989,6.082
		c-3.715-0.15-7.494,0.299-11.106-1.02c-1.04-1.049-2.355-1.506-3.763-1.771c-4.426-2.135-7.773-5.4-10.608-9.404
		c-2.248-3.176-3.423-6.737-4.736-10.286c-0.021-0.166-0.042-0.338-0.064-0.506c0.792-0.141,0.646-0.764,0.64-1.291
		c-0.026-2.296-0.183-4.643,0.401-6.848c0.851-3.207,0.55-6.567,1.637-9.734c0.969-2.817,3.731-5.195,6.772-5.525
		c0.591-0.064,1.172-0.203,1.761-0.309c0.816,0,0.697,0,1.606,0c2.468,0.519,4.761,1.403,6.669,3.116
		c-0.562-0.21-1.095-0.257-1.213,0.497c-0.05,0.311,0.186,0.643,0.564,0.651c0.829,0.017,0.743-0.566,0.681-1.119
		c3.688,3.36,5.202,7.85,6.441,12.465c0.444,1.637,1.016,3.216,1.693,4.757c0.391,0.886,0.534,1.496-0.69,1.599
		c-0.86-2.306-1.966-4.556-2.526-6.935c-1.189-5.032-4.399-7.938-9.096-9.552c-3.565-1.224-8.029,0.898-9.195,4.358
		c-0.959,2.844-1.056,5.755-1.53,8.635c-0.464,2.031-0.447,4.063-0.008,6.094c0.054,0.534,0.092,1.058,0.212,1.599
		c1.222,5.502,4.655,9.829,7.784,14.241c3.325,4.688,9.449,3.959,12.162-0.428c0.841-1.359,1.433-2.813,1.595-4.42
		c0.531-2.842,0.186-5.711,0.262-8.57C47.851,45.257,47.42,43.898,47.626,42.599z"/>
	<path fill-rule="evenodd" clip-rule="evenodd" fill="#8B8B8B" d="M75.048,41.404c-1.933,0.797-3.133,0.338-4.301-1.293
		c-2.565-3.593-0.604-8.165,1.138-10.556c0.598-0.824,1.55-0.929,2.512-0.859c-0.004,0-0.072,0.012-0.072,0.012
		c0.111,0.139,0.219,0.273,0.33,0.411c0.072,0.098,0.143,0.193,0.219,0.291c0.239,1.083,0.818,2.112,0.477,3.282
		c0.012,0.143,0.016,0.293,0.027,0.439c-0.008,0.126-0.016,0.252-0.024,0.377c0.339,2.152-0.183,4.327,0.228,6.472
		C75.225,40.388,75.131,40.894,75.048,41.404z"/>
	<path fill-rule="evenodd" clip-rule="evenodd" fill="#1D1D1D" d="M20.657,43.242c0.021,0.168,0.042,0.34,0.064,0.506
		c-2.371,1.278-3.64,0.669-3.587-2.312c0.066-3.83,0.184-7.658,0.25-11.489c0.004-0.185,0.214-0.364,0.33-0.546
		c0.178,0.015,0.355,0.037,0.534,0.051c-0.174,4.127-0.495,8.256-0.45,12.381c0.021,2.085,0.733,2.278,2.834,1.384L20.657,43.242z"
		/>
	<path fill-rule="evenodd" clip-rule="evenodd" fill="#1D1D1D" d="M75.658,44.069c0.131-0.098,0.265-0.193,0.393-0.291"/>
	<path fill-rule="evenodd" clip-rule="evenodd" fill="#333333" d="M53.36,5.997c-0.741,0.145-0.438,0.472-1.021-0.404
		c0.313-0.025-0.463,0.034,0,0c-1.1-1.261-2.09-2.484-3.172-3.614c-0.858-0.895-1.844-0.827-2.717,0.031
		c-0.695,0.68-1.332,1.421-1.994,2.134c-0.136-0.085-0.277-0.174-0.412-0.259c3.003-3.906,4.136-4.478,7.434-0.261
		C52.103,4.418,52.732,5.208,53.36,5.997z"/>
	<path fill-rule="evenodd" clip-rule="evenodd" fill="#333333" d="M18.248,29.451c-0.178-0.014-0.355-0.036-0.534-0.051
		c0.792-1.967,1.639-0.79,2.435,0.02c0.917-1.38,0.525-3.203,1.765-4.372c-0.489,2.116-0.977,4.23-1.466,6.346
		C20.118,29.953,19.168,29.117,18.248,29.451z"/>
	<path fill-rule="evenodd" clip-rule="evenodd" fill="#333333" d="M75.58,39.981c-0.41-2.145,0.111-4.32-0.228-6.472
		c1.226,1.534,0.437,3.279,0.435,4.918C75.787,38.892,75.723,39.471,75.58,39.981z"/>
	<path fill-rule="evenodd" clip-rule="evenodd" fill="#333333" d="M74.873,29.41c-0.076-0.098-0.146-0.193-0.219-0.291
		c0.004-0.231,0.041-0.48-0.33-0.411c0,0,0.068-0.012,0.072-0.012c0.164-1.561-0.574-2.973-0.75-4.477
		c0.412,0.958,0.867,1.896,1.215,2.877C75.121,27.842,75.344,28.639,74.873,29.41z"/>
	<path fill-rule="evenodd" clip-rule="evenodd" fill="#B5B5B5" d="M36.065,63.438c1.407,0.266,2.723,0.723,3.763,1.771
		c-1.323-0.365-2.625-0.768-3.72-1.643c-0.037-0.029-0.099-0.029-0.148-0.043C35.994,63.494,36.03,63.465,36.065,63.438z"/>
	<path fill-rule="evenodd" clip-rule="evenodd" fill="#333333" d="M76.006,29.464"/>
	<path fill-rule="evenodd" clip-rule="evenodd" fill="#1D1D1D" d="M74.648,44.34c-0.385-0.564-0.031-0.996,0.254-1.439
		c0.383,0.294,0.768,0.585,1.148,0.877c-0.128,0.098-0.262,0.193-0.393,0.291C75.184,43.632,74.928,44.04,74.648,44.34z"/>
	<path fill-rule="evenodd" clip-rule="evenodd" fill="#333333" d="M44.457,4.144c-0.341,0.436-1.059,1.733-1.845,1.872
		c0.032-0.722,1.05-1.745,1.433-2.131C44.18,3.97,44.321,4.058,44.457,4.144z"/>
	<path fill-rule="evenodd" clip-rule="evenodd" fill="#333333" d="M75.377,33.131c-0.012-0.146-0.016-0.296-0.027-0.439
		C75.688,32.821,75.569,32.975,75.377,33.131z"/>
	<path fill-rule="evenodd" clip-rule="evenodd" fill="#333333" d="M51.291,5.694c-0.068-0.002-0.139-0.009-0.205-0.021"/>
	<path fill-rule="evenodd" clip-rule="evenodd" fill="#1B1B1B" d="M65.752,34.602c0.102,2.253-0.123,4.455-0.805,6.625
		c-1.373,4.36-6.429,5.895-9.744,2.752c-2.703-2.559-4.406-5.876-5.428-9.404c-0.868-2.983-0.99-6.124,0.346-9.082
		c0.838-1.855,1.865-3.594,4.088-4.175c1.764-0.461,3.23,0.36,4.686,1.047c2.697,1.268,4.998,3.03,6.133,5.931
		C65.822,30.328,65.81,32.467,65.752,34.602z M62.845,35.262c-0.06-3.305-1.2-5.746-4.023-7.197
		c-2.997-1.539-6.108,0.133-6.537,3.483c-0.343,2.706,0.519,5.06,2.122,7.177c1.663,2.197,3.78,2.808,6.17,1.547
		C62.636,39.183,62.713,37.048,62.845,35.262z"/>
	<path fill-rule="evenodd" clip-rule="evenodd" fill="#C7C7C7" d="M47.017,55.096c-0.162,1.607-0.753,3.061-1.595,4.42
		c-2.713,4.387-8.837,5.115-12.162,0.428c-3.129-4.412-6.563-8.738-7.784-14.241c-0.12-0.541-0.158-1.065-0.212-1.594
		c0.004-2.033,0.007-4.063,0.008-6.099c0.474-2.88,0.571-5.792,1.53-8.635c1.166-3.46,5.63-5.582,9.195-4.358
		c4.696,1.613,7.906,4.52,9.096,9.552c0.56,2.379,1.666,4.629,2.526,6.935c0,0.365,0.007,0.73,0.007,1.097
		c-0.206,1.299,0.225,2.658-0.347,3.927c-0.378,0.339-0.289,0.799-0.289,1.227C46.991,50.195,47.005,52.645,47.017,55.096z
		 M37.801,28.926c-0.041-0.098-0.052-0.252-0.125-0.295c-3.099-1.738-6.945-0.947-8.806,2.711c-0.738,1.447-0.977,3.007-1.209,4.565
		c-0.462,3.079-0.398,6.058,0.45,9.178c1.135,4.167,4.124,6.895,6.842,9.68c3.429,3.52,6.99,2.693,9.028-1.297
		c1.723-3.363,1.896-7.17,1.891-10.822c-0.006-3.429-1.331-6.715-2.825-9.815c-0.943-1.959-2.313-3.579-4.738-3.766
		C38.139,29.021,37.969,28.976,37.801,28.926z"/>
	<path fill-rule="evenodd" clip-rule="evenodd" fill="#FCFCFC" d="M18.248,29.451c0.921-0.334,1.87,0.502,2.2,1.942
		c-0.259,0.245-0.535,0.487-0.173,0.855c-1.226,1.904-0.608,3.954-0.457,5.963c0.007,0.087,0.264,0.152,0.403,0.229
		c0,0.128-0.004,0.259-0.004,0.388c-0.41,0.203-0.317,0.544-0.244,0.883c0.555,1.106,0.434,2.34,0.659,3.506
		c-2.102,0.894-2.813,0.701-2.834-1.384C17.753,37.707,18.074,33.579,18.248,29.451z"/>
	<path fill-rule="evenodd" clip-rule="evenodd" fill="#BFBFBF" d="M20.221,38.44c-0.139-0.077-0.396-0.142-0.403-0.229
		c-0.152-2.009-0.769-4.059,0.457-5.963C20.257,34.313,20.24,36.375,20.221,38.44z"/>
	<path fill-rule="evenodd" clip-rule="evenodd" fill="#B5B5B5" d="M40.175,22.682c0.062,0.553,0.147,1.135-0.681,1.119
		c-0.378-0.008-0.614-0.34-0.564-0.651c0.118-0.754,0.651-0.707,1.213-0.497C40.145,22.656,40.175,22.682,40.175,22.682z"/>
	<path fill-rule="evenodd" clip-rule="evenodd" fill="#BFBFBF" d="M19.973,39.711c-0.073-0.339-0.166-0.68,0.244-0.883
		C20.284,39.162,20.238,39.466,19.973,39.711z"/>
	<path fill-rule="evenodd" clip-rule="evenodd" fill="#C2C2C2" d="M47.017,55.096c-0.011-2.451-0.025-4.9-0.027-7.343
		c0-0.428-0.089-0.888,0.289-1.227C47.202,49.385,47.548,52.254,47.017,55.096z"/>
	<path fill-rule="evenodd" clip-rule="evenodd" fill="#C2C2C2" d="M25.272,38.009c-0.001,2.036-0.004,4.066-0.008,6.099
		C24.825,42.072,24.808,40.04,25.272,38.009z"/>
	<path fill-rule="evenodd" clip-rule="evenodd" fill="#4B4B4B" d="M74.324,28.708c0.371-0.069,0.334,0.18,0.33,0.411
		C74.543,28.981,74.436,28.847,74.324,28.708z"/>
	<path fill-rule="evenodd" clip-rule="evenodd" fill="#101010" d="M62.845,35.262c-0.132,1.787-0.209,3.921-2.269,5.01
		c-2.39,1.26-4.507,0.649-6.17-1.547c-1.604-2.117-2.465-4.471-2.122-7.177c0.429-3.35,3.54-5.022,6.537-3.483
		C61.645,29.516,62.785,31.957,62.845,35.262z"/>
	<path fill-rule="evenodd" clip-rule="evenodd" fill="#DBDBDB" d="M38.309,29.066c2.425,0.187,3.795,1.807,4.738,3.766
		c1.494,3.101,2.818,6.387,2.825,9.815c0.005,3.651-0.168,7.458-1.891,10.822c-2.038,3.99-5.599,4.816-9.028,1.297
		c-2.718-2.785-5.708-5.514-6.842-9.68c-0.848-3.12-0.912-6.099-0.45-9.178c0.232-1.559,0.471-3.118,1.209-4.565
		c1.861-3.658,5.707-4.449,8.806-2.711c0.074,0.043,0.084,0.197,0.125,0.295c-0.916-0.033-0.67,0.654-0.721,1.156
		c-1.781-0.517-3.594-0.83-5.06,0.643c-1.859,1.862-2.931,4.138-3.12,6.802c-0.396,5.583,1.757,10.071,5.853,13.743
		c3.125,2.803,6.29,2.195,7.952-0.746c0.353-0.625,0.451-1.328,0.708-1.976c0.921-2.349,1.647-4.824,1.186-7.337
		c-0.43-2.362-1.177-4.689-2.013-6.951c-0.566-1.528-1.45-2.971-3.359-3.255c-0.485-0.073-0.943-0.278-1.23-0.73
		C38.301,29.925,38.489,29.542,38.309,29.066z"/>
	<path fill-rule="evenodd" clip-rule="evenodd" fill="#DBDBDB" d="M38.309,29.066c0.18,0.476-0.007,0.859-0.313,1.209
		c-0.309-0.05-0.677,0.195-0.916-0.193c0.051-0.502-0.195-1.189,0.721-1.156C37.969,28.976,38.139,29.021,38.309,29.066z"/>
	<path fill-rule="evenodd" clip-rule="evenodd" fill="#B2B2B2" d="M37.081,30.082c0.474,0.124,0.606,0.143,0.916,0.193
		c0.287,0.452,0.745,0.657,1.23,0.73c1.91,0.284,2.793,1.728,3.359,3.255c0.836,2.261,1.583,4.589,2.013,6.951
		c0.462,2.513-0.264,4.988-1.186,7.337c-0.257,0.647-0.355,1.351-0.708,1.976c-1.662,2.941-4.827,3.549-7.952,0.746
		c-4.095-3.672-6.249-8.16-5.853-13.743c0.189-2.664,1.261-4.94,3.12-6.802C33.486,29.252,35.299,29.565,37.081,30.082z
		 M42.968,41.712c0.257-2.37-0.33-4.494-1.265-6.563c-1.091-2.419-3.967-4.049-6.688-3.706c-1.991,0.248-4.06,2.434-4.396,4.929
		c-0.728,5.353,1.027,9.682,5.472,12.907c2.145,1.553,5.039,0.83,5.862-1.899C42.516,45.5,43.323,43.675,42.968,41.712z"/>
	<path fill-rule="evenodd" clip-rule="evenodd" fill="#717171" d="M42.968,41.712c0.355,1.963-0.452,3.788-1.016,5.668
		c-0.823,2.729-3.717,3.452-5.862,1.899c-4.445-3.225-6.2-7.554-5.472-12.907c0.337-2.496,2.406-4.682,4.396-4.929
		c2.721-0.343,5.597,1.286,6.688,3.706C42.638,37.218,43.225,39.342,42.968,41.712z M41.382,39.842
		c0.112-1.909-0.284-3.56-1.39-5.027c-1.195-1.589-2.875-2.033-4.659-1.73c-1.519,0.257-2.396,1.37-3.04,2.868
		c-1.316,3.047,0.666,7.657,2.979,9.7c2.663,2.354,4.973,1.204,5.683-2.041C41.228,42.359,41.599,41.063,41.382,39.842z"/>
	<path fill-rule="evenodd" clip-rule="evenodd" fill="#444444" d="M41.382,39.842c0.216,1.221-0.155,2.518-0.427,3.77
		c-0.71,3.245-3.02,4.395-5.683,2.041c-2.313-2.043-4.295-6.653-2.979-9.7c0.645-1.498,1.521-2.61,3.04-2.868
		c1.784-0.302,3.464,0.141,4.659,1.73C41.099,36.282,41.495,37.933,41.382,39.842z M33.826,38.157
		c-0.161,1.119,0.141,2.173,0.689,3.131c0.79,1.382,1.981,2.102,3.614,1.71c1.223-0.292,1.262-1.447,1.641-2.387
		c0.512-1.271,0.201-2.505-0.122-3.673c-0.318-1.135-0.952-2.267-2.301-2.542c-1.093-0.229-2.031,0.111-2.786,0.986
		C33.859,36.2,33.718,37.128,33.826,38.157z"/>
	<path fill-rule="evenodd" clip-rule="evenodd" fill="#272727" d="M33.826,38.157c-0.107-1.029,0.034-1.957,0.736-2.774
		c0.755-0.875,1.693-1.215,2.786-0.986c1.349,0.275,1.982,1.407,2.301,2.542c0.323,1.168,0.634,2.402,0.122,3.673
		c-0.379,0.94-0.418,2.096-1.641,2.387c-1.633,0.392-2.824-0.328-3.614-1.71C33.967,40.33,33.665,39.276,33.826,38.157z"/>
	<path fill-rule="evenodd" clip-rule="evenodd" fill="#FCFCFC" d="M75.279,43.748c2.37,1.278,3.639,0.669,3.588-2.312
		c-0.067-3.83-0.186-7.658-0.251-11.489c-0.004-0.185-0.214-0.364-0.331-0.546c-0.793-1.967-1.639-0.79-2.434,0.02"/>
	<path fill-rule="evenodd" clip-rule="evenodd" fill="#1D1D1D" d="M75.279,43.748c2.37,1.278,3.639,0.669,3.588-2.312
		c-0.067-3.83-0.186-7.658-0.251-11.489c-0.004-0.185-0.214-0.364-0.331-0.546c-0.176,0.015-0.354,0.037-0.531,0.051
		c0.173,4.127,0.494,8.256,0.449,12.381c-0.021,2.085-0.734,2.278-2.836,1.384"/>
	<path fill-rule="evenodd" clip-rule="evenodd" fill="#333333" d="M75.552,31.393c0.331-1.44,1.279-2.276,2.202-1.942
		c0.177-0.014,0.355-0.036,0.531-0.051c-0.793-1.967-1.639-0.79-2.434,0.02"/>
	<path fill-rule="evenodd" clip-rule="evenodd" fill="#FCFCFC" d="M75.367,43.217c2.102,0.894,2.814,0.701,2.836-1.384
		c0.045-4.125-0.276-8.254-0.449-12.381c-0.923-0.334-1.871,0.502-2.202,1.942"/>
</g>
<circle fill-rule="evenodd" clip-rule="evenodd" fill="none" cx="48.142" cy="48.146" r="47.858"/>
</svg>
