<?xml version="1.0" encoding="utf-8"?>
<!-- Generator: Adobe Illustrator 16.0.3, SVG Export Plug-In . SVG Version: 6.00 Build 0)  -->
<!DOCTYPE svg PUBLIC "-//W3C//DTD SVG 1.1//EN" "http://www.w3.org/Graphics/SVG/1.1/DTD/svg11.dtd">
<svg version="1.1" id="Layer_1" xmlns="http://www.w3.org/2000/svg" xmlns:xlink="http://www.w3.org/1999/xlink" x="0px" y="0px"
	 width="96px" height="96px" viewBox="0 0 96 96" enable-background="new 0 0 96 96" xml:space="preserve">
<g>
	<path d="M61.363,58.093c-0.246,0.935,0.307,1.891,1.235,2.142l5.752,1.543l-3.987-14.875L61.363,58.093z"/>
	<path d="M70.985,62.62c0.251,0.931,1.208,1.485,2.142,1.233l6.422-1.722L67.674,50.259L70.985,62.62z"/>
	<path d="M93.624,48.215l-13.63-13.631c-0.323-0.322-0.76-0.5-1.212-0.5l-9.311-0.005c-1.288,0-2.331,1.044-2.331,2.333v9.311
		c0,0.458,0.18,0.891,0.504,1.212l13.629,13.631c0.346,0.34,0.788,0.514,1.236,0.514c0.446,0,0.895-0.174,1.236-0.514l9.878-9.88
		C94.307,50.004,94.307,48.896,93.624,48.215z M72.188,40.524c-1.006,0-1.822-0.812-1.822-1.823c0-1.005,0.816-1.822,1.822-1.822
		s1.822,0.817,1.822,1.822C74.01,39.712,73.193,40.524,72.188,40.524z"/>
</g>
<g>
	<path d="M21.592,46.158h-0.028l-1.583,0.854l-0.238-0.938l1.989-1.064h1.051v9.105h-1.191V46.158z"/>
	<path d="M32.01,45.01v0.813l-3.964,8.293h-1.275l3.95-8.055v-0.028h-4.455V45.01H32.01z"/>
</g>
<g>
	<path d="M16.097,46.046h-3.474l-0.35,2.339c0.21-0.028,0.406-0.056,0.742-0.056c0.701,0,1.401,0.154,1.961,0.491
		c0.714,0.406,1.303,1.19,1.303,2.339c0,1.778-1.415,3.11-3.39,3.11c-0.995,0-1.835-0.281-2.269-0.561l0.308-0.939
		c0.378,0.225,1.121,0.505,1.947,0.505c1.163,0,2.157-0.757,2.157-1.976c-0.014-1.176-0.798-2.017-2.619-2.017
		c-0.519,0-0.925,0.056-1.261,0.099l0.588-4.371h4.356V46.046z"/>
</g>
<g>
	<path fill="#666666" d="M10.781,37.597v-0.756l0.966-0.938c2.326-2.213,3.376-3.39,3.39-4.763c0-0.924-0.448-1.779-1.807-1.779
		c-0.827,0-1.513,0.42-1.933,0.771l-0.392-0.869c0.63-0.532,1.527-0.924,2.577-0.924c1.961,0,2.788,1.345,2.788,2.647
		c0,1.681-1.219,3.04-3.138,4.889l-0.729,0.672v0.028h4.09v1.022H10.781z"/>
	<path fill="#666666" d="M23.398,29.529h-3.474l-0.35,2.339c0.21-0.028,0.406-0.056,0.742-0.056c0.701,0,1.401,0.154,1.961,0.49
		c0.714,0.406,1.303,1.191,1.303,2.339c0,1.779-1.415,3.11-3.39,3.11c-0.995,0-1.835-0.28-2.269-0.561l0.308-0.938
		c0.378,0.224,1.121,0.504,1.947,0.504c1.163,0,2.157-0.756,2.157-1.975c-0.014-1.177-0.798-2.017-2.619-2.017
		c-0.519,0-0.925,0.056-1.261,0.098l0.588-4.371h4.356V29.529z"/>
	<path fill="#666666" d="M25.438,36.183c0.351,0.224,1.163,0.574,2.017,0.574c1.583,0,2.073-1.009,2.059-1.765
		c-0.014-1.274-1.163-1.821-2.353-1.821h-0.687v-0.925h0.687c0.896,0,2.031-0.462,2.031-1.541c0-0.729-0.462-1.373-1.597-1.373
		c-0.729,0-1.429,0.322-1.821,0.603l-0.322-0.896c0.476-0.35,1.401-0.7,2.381-0.7c1.793,0,2.605,1.064,2.605,2.171
		c0,0.938-0.561,1.737-1.681,2.143v0.028c1.121,0.224,2.031,1.064,2.031,2.339c0,1.457-1.135,2.732-3.32,2.732
		c-1.022,0-1.919-0.322-2.367-0.617L25.438,36.183z"/>
</g>
<g>
	<path fill="#666666" d="M12.296,60.095h-0.028l-1.583,0.854l-0.238-0.938l1.989-1.064h1.051v9.104h-1.191V60.095z"/>
	<path fill="#666666" d="M19.478,60.095H19.45l-1.583,0.854l-0.238-0.938l1.989-1.064h1.051v9.104h-1.191V60.095z"/>
	<path fill="#666666" d="M24.699,67.183c0.266,0.028,0.574,0,0.995-0.042c0.714-0.098,1.387-0.393,1.905-0.883
		c0.603-0.546,1.037-1.344,1.205-2.423h-0.042c-0.504,0.616-1.232,0.98-2.143,0.98c-1.639,0-2.689-1.232-2.689-2.788
		c0-1.723,1.247-3.234,3.11-3.234c1.863,0,3.012,1.512,3.012,3.838c0,2.002-0.672,3.403-1.569,4.271
		c-0.701,0.687-1.667,1.107-2.647,1.219c-0.448,0.07-0.841,0.084-1.135,0.07V67.183z M25.147,61.943
		c0,1.135,0.687,1.934,1.751,1.934c0.827,0,1.471-0.406,1.793-0.953c0.07-0.111,0.112-0.252,0.112-0.447
		c0-1.555-0.574-2.746-1.863-2.746C25.889,59.73,25.147,60.655,25.147,61.943z"/>
</g>
<path d="M35.936,50.178h15.207L46.84,54.48l3.393,3.395l10.099-10.098L50.232,37.68l-3.393,3.395l4.301,4.303H35.936"/>
<circle fill="none" cx="48" cy="48" r="48"/>
<g>
	<path fill="#CCCCCC" d="M18.976,21.246c0.266,0.028,0.574,0,0.995-0.042c0.714-0.098,1.387-0.392,1.905-0.882
		c0.603-0.546,1.037-1.345,1.205-2.423h-0.042c-0.504,0.616-1.232,0.98-2.143,0.98c-1.639,0-2.689-1.232-2.689-2.788
		c0-1.723,1.247-3.235,3.11-3.235c1.863,0,3.012,1.513,3.012,3.838c0,2.003-0.672,3.404-1.569,4.272
		c-0.701,0.686-1.667,1.106-2.647,1.218c-0.448,0.07-0.841,0.084-1.135,0.07V21.246z M19.424,16.007
		c0,1.135,0.687,1.933,1.751,1.933c0.827,0,1.471-0.406,1.793-0.953c0.07-0.112,0.112-0.252,0.112-0.448
		c0-1.555-0.574-2.745-1.863-2.745C20.167,13.794,19.424,14.719,19.424,16.007z"/>
</g>
<g>
	<path fill="#CCCCCC" d="M21.072,84.115v-2.479h-4.23v-0.813l4.063-5.813h1.331v5.659h1.275v0.967h-1.275v2.479H21.072z
		 M21.072,80.67v-3.039c0-0.477,0.014-0.953,0.042-1.43h-0.042c-0.28,0.533-0.504,0.925-0.756,1.346l-2.228,3.095v0.028H21.072z"/>
</g>
</svg>
