<?xml version="1.0" encoding="utf-8"?>
<!-- Generator: Adobe Illustrator 16.0.3, SVG Export Plug-In . SVG Version: 6.00 Build 0)  -->
<!DOCTYPE svg PUBLIC "-//W3C//DTD SVG 1.1//EN" "http://www.w3.org/Graphics/SVG/1.1/DTD/svg11.dtd">
<svg version="1.1" xmlns="http://www.w3.org/2000/svg" xmlns:xlink="http://www.w3.org/1999/xlink" x="0px" y="0px" width="96px"
	 height="96px" viewBox="0 0 96 96" enable-background="new 0 0 96 96" xml:space="preserve">
<g id="Layer_1">
</g>
<g id="Layer_2">
	<path d="M2.087,44.442c0.607,1.41,2.391,2.335,3.133,3.76c0.346,0.665,0.466,1.436,0.627,2.195
		c0.557,2.601,1.624,5.004,3.132,7.203c1.397,2.031,3.172,3.886,5.61,4.615c1.66,0.493,3.624,0.465,4.717,1.472
		c0.846,0.783,1.171,2.188,1.473,3.539c0.565,2.53,1.053,4.876,1.18,7.074c0.168,2.915,0.017,4.174-0.867,8.037
		c-0.823,3.608-0.364,4.081,0.767,4.652c1.149,0.583,3.759,0.092,5.959-2.687c1.28-1.619,1.374-1.428,1.934-3.03
		c0.407-1.159,0.381-1.553,0.96-2.687c0.621-1.221,1.593-2.246,2.189-3.448c0.574-1.15,1.318-2.579,1.435-3.919
		c0.185-2.15-0.081-4.117,0.787-5.934c0.817-1.708,2.143-3.194,3.963-4.165c1.215-0.647,2.024-0.785,2.491-2.228
		c0.304-0.943-0.026-1.582,0.43-1.753c0.405-0.146,1.357,0.195,2.116,0.705c0.899,0.604,2.527,0.721,3.358,0.591
		c1.169-0.182,2.11-1.616,3.332-1.94c1.018-0.271,2.114-0.118,3.133-0.334c0.747-0.159,1.45-0.515,2.158-0.821
		c0.558-0.247,1.116-0.458,1.748-0.515c1.073-0.098,2.353,0.262,3.083-0.413c0.463-0.425,0.705-1.269,1.232-1.54
		c0.384-0.197,0.922-0.089,1.439,0c1.63,0.281,3.096,0.38,4.522,0c1.128-0.301,2.233-0.899,3.393-1.133
		c0.669-0.133,1.358-0.145,2.054-0.205c1.34-0.118,2.707-0.423,3.806-1.126c0.783-0.503,1.43-1.21,2.055-1.954
		c1.195-1.422,2.311-2.98,2.672-4.727c0.286-1.391,0.092-2.9-0.206-4.318c-0.132-0.62-0.282-1.224-0.41-1.849
		c-0.327-1.564-0.526-3.254-1.439-4.523c-0.604-0.836-1.52-1.491-2.056-2.364c-0.634-1.031-0.738-2.369-1.233-3.494
		c-0.62-1.414-1.856-2.494-3.289-3.289c-1.3-0.722-2.763-1.208-3.495-2.366c-0.279-0.439-0.452-0.976-0.72-1.438
		c-0.821-1.419-2.527-2.107-4.112-2.774c-2.566-1.084-4.811-2.115-7.194-3.598c-1.358-0.847-2.765-1.839-4.324-1.542
		c-0.647,0.122-1.261-0.008-1.818-0.163c-0.559-0.154-1.062-0.337-1.627-0.622c-0.513-0.256-1.127-0.206-1.723-0.157
		c-1.088,0.092-2.115,0.186-3.149,0.157c-0.936-0.024-1.884-0.145-2.829-0.157c-1.519-0.016-3.016,0.256-4.524,0.47
		c-1.212,0.173-2.43,0.307-3.6,0.629c-1.178,0.321-2.299,0.832-3.447,1.253c-0.622,0.228-1.249,0.429-1.88,0.626
		c-1.197,0.375-2.397,0.73-3.604,1.097c-1.711,0.519-3.427,1.058-5.012,1.879c-0.771,0.4-1.509,0.87-2.192,1.409
		c-1.363,1.082-2.5,2.453-3.915,3.448c-0.804,0.563-1.697,1.007-2.507,1.566c-1.274,0.883-2.344,2.052-3.29,3.292
		c-0.409,0.532-0.792,1.08-1.255,1.565c-1.118,1.187-2.683,2.022-3.601,3.292c-1.237,1.71-1.298,4.212-1.409,6.423
		c-0.035,0.686-0.074,1.345-0.158,2.036C1.917,41.649,1.562,43.228,2.087,44.442z"/>
	<path fill="#00CC00" d="M30.523,15.633c4.092-4.027,11.078-2.312,16.399-2.645c2.738-0.171,5.373-1.149,8.009,0.125
		c2.121,1.027,4.688,2.568,5.721,4.731c0.855,1.789-0.788,2.995-1.815,4.764c-1.198,2.064-0.13,4.046-0.574,6.418
		c-0.075-0.073-0.012-0.258-0.038-0.283c0.041,1.223-1.026,1.44-0.964,2.646c-2.771,0.902-4.113,0.058-6.968,0.06
		c-2.4,0.001-4.042,1.441-5.8,2.723c-1.06,0.774-1.646,0.8-3.182,0.405c-1.383-0.356-1.795,0.399-2.85-0.119
		c-2.167-1.061-4.962,3.249-6.659,1.982c-4.344-3.245-4.428-4.418-5.104-8.841c0.831-0.581,0.378-5.492,0.751-6.862
		c0.539-1.985,2.458-3.225,2.746-5.105"/>
	<path fill="#01AADA" d="M15.659,23.412c1.02,0.491,1.424,1.332,2.585,1.73c1.221,0.419,2.481,0.698,3.4,1.48
		c1.974,1.681,3.677,3.755,5.28,5.751c0.044-0.121-0.818,1.044-0.843,0.917c0.965,2.847-0.035,4.603,0.107,7.664
		c0.057,1.21,2.363,2.453,1.865,3.476c-0.417,0.859-1.88,2.548-2.553,3.349c-1.837,2.188,0.273,4.711-1.972,6.278
		c-2.862,1.993-7.742,1.474-11.146,1.973c-1.119,0.164-2.088,0.518-3.276,0.496c-1.15-4.869-2.905-10.374-5.059-15.077
		c-0.924-2.018-1.915-4.812-1.219-7.286c0.42-1.494,3.752-5.153,5.35-5.11c1.177-1.771,1.851-3.192,3.645-4.479
		C13.185,23.599,14.152,24.197,15.659,23.412c0.053,0.178,0.689-1.234,0.711-1.055"/>
	<path fill="#EF4525" d="M67.288,22.628c1.432,1.489,4.928,3.404,7.085,3.328c1.394,2.65,3.354,4.509,4.158,7.433
		c0.671,2.44,2.228,5.089,2.604,7.502c0.444,2.868-1.696,4.714-4.127,5.692c-1.341,0.54-2.46-0.702-3.674,0.09
		c-1.411,0.919-1.962,1.531-3.689,1.549c-1.911,0.018-3.975-0.474-4.972-2.324c-1.101-2.044-1.621-4.328-1.415-6.474
		c0.095-0.995,0.544-3.153,0.39-3.949c-0.364-1.881-1.862-0.698-2.79-1.905c-0.369-0.481,0.606-3.298,0.848-3.938
		c0.547-1.444,1.848-2.154,3.071-2.874c1.366-0.806,2.838-2.188,3.554-3.61"/>
	<polygon fill="#DEE2DE" points="36.859,37.897 37.241,37.509 37.031,37.367 	"/>
	<path fill="#DEE2DE" d="M33.612,33.016c0.222,0.169,0.399,0.394,0.507,0.655l0.067,0.2c0.035,0.13,0.053,0.266,0.053,0.406
		c0,0.141-0.019,0.277-0.053,0.408l3.153,1.066l0.705-2.146c-0.35-0.145-0.633-0.423-0.78-0.772l-3.076,1.038l-0.066-0.2
		l3.074-1.042c-0.031-0.115-0.048-0.236-0.048-0.362c0-0.528,0.286-0.992,0.715-1.243l-0.645-1.305
		c-0.187,0.077-0.392,0.12-0.604,0.12c-0.285,0-0.549-0.075-0.777-0.207L33.612,33.016z"/>
	<path fill="#DEE2DE" d="M34.025,35.077l2.894,1.956l0.353-1.082l-3.151-1.064c-0.028,0.066-0.058,0.128-0.095,0.189l-0.045,0.066
		L34.025,35.077z"/>
	<path fill="#DEE2DE" d="M34.636,23.186c0.247,0,0.47,0.09,0.652,0.234l0.143-0.145l-1.005-0.341l0.065,0.267
		C34.536,23.195,34.587,23.186,34.636,23.186z"/>
	<path fill="#DEE2DE" d="M34.859,25.385l0.19-0.067l-0.052-0.108c-0.069,0.026-0.145,0.043-0.219,0.056L34.859,25.385z"/>
	<polygon fill="#DEE2DE" points="34.981,25.568 35.758,26.752 35.147,25.511 	"/>
	<path fill="#DEE2DE" d="M38.924,42.983l1.976,0.667l-0.103-0.316c-0.074,0.017-0.147,0.025-0.224,0.025
		c-0.42,0-0.784-0.25-0.951-0.612L38.924,42.983z"/>
	<path fill="#DEE2DE" d="M39.349,20.322c-0.004,0.035-0.011,0.067-0.021,0.099l0.394-0.099H39.349z"/>
	<path fill="#DEE2DE" d="M36.869,38.189h0.971c0.012-0.082,0.034-0.158,0.069-0.229l-0.486-0.329L36.869,38.189z"/>
	<path fill="#DEE2DE" d="M39.953,41.297l-0.175,0.06l0.144,0.146c0.031-0.026,0.063-0.051,0.098-0.073L39.953,41.297z"/>
	<path fill="#DEE2DE" d="M39.613,41.188l0.246-0.084l-1.026-2.083c-0.075,0.023-0.153,0.04-0.238,0.04
		c-0.083,0-0.161-0.017-0.238-0.04l-0.293,0.596L39.613,41.188z"/>
	<path fill="#DEE2DE" d="M43.5,42.208c0.024-0.211,0.105-0.403,0.233-0.558l-0.714-0.725c-0.104,0.075-0.226,0.127-0.359,0.146
		v1.137H43.5z"/>
	<path fill="#DEE2DE" d="M37.786,39.333l0.305-0.463c-0.134-0.119-0.226-0.283-0.252-0.468h-0.971L37.786,39.333z"/>
	<path fill="#DEE2DE" d="M39.298,22.566l0.848-1.718c-0.011-0.006-0.018-0.015-0.024-0.02l-0.913,0.924
		c0.101,0.131,0.164,0.293,0.164,0.471c0,0.121-0.028,0.238-0.08,0.34c-0.113,0.226-0.333,0.39-0.593,0.426v0.477
		c0.048,0.006,0.093,0.017,0.136,0.032L39.298,22.566z"/>
	<path fill="#DEE2DE" d="M39.349,19.714l-5.229-2.653l3.907,2.642c0.14-0.154,0.344-0.253,0.567-0.253c0.26,0,0.49,0.13,0.628,0.327
		L39.349,19.714z"/>
	<path fill="#DEE2DE" d="M40.334,20.94l-0.884,1.794l1.153-1.756c-0.01,0-0.021,0.002-0.03,0.002
		C40.489,20.981,40.412,20.966,40.334,20.94z"/>
	<path fill="#DEE2DE" d="M39.054,21.604l0.691-0.7L38.866,21.5C38.936,21.526,38.996,21.56,39.054,21.604z"/>
	<path fill="#DEE2DE" d="M37.908,19.879l-4.118-2.786c-0.016,0.019-0.031,0.036-0.05,0.056l2.917,2.961v-0.001h1.182
		C37.852,20.026,37.874,19.95,37.908,19.879z"/>
	<path fill="#DEE2DE" d="M38.698,20.97v0.383l1.189-0.802c-0.006-0.015-0.015-0.03-0.023-0.045l-0.658,0.166
		c-0.122,0.16-0.3,0.271-0.506,0.299H38.698z"/>
	<path fill="#DEE2DE" d="M32.762,20.97v0.489c0.255,0.034,0.472,0.195,0.583,0.42l0.009-0.004l-0.462-0.935
		C32.851,20.953,32.807,20.964,32.762,20.97L32.762,20.97z"/>
	<path fill="#DEE2DE" d="M33.984,23.419c0.033-0.025,0.063-0.049,0.096-0.07l-0.313-0.636l-0.422-0.143
		c-0.021,0.042-0.048,0.085-0.077,0.124L33.984,23.419z"/>
	<path fill="#DEE2DE" d="M34.27,23.256c0.005-0.002,0.008-0.004,0.014-0.004l-0.098-0.398l-0.135-0.044L34.27,23.256z"/>
	<path fill="#DEE2DE" d="M36.36,20.108l-2.771-2.811c-0.14,0.12-0.307,0.215-0.488,0.274l0.626,2.537H36.36z"/>
	<path fill="#DEE2DE" d="M33.746,23.688c0.026-0.04,0.054-0.08,0.089-0.119l-0.499-0.502L33.746,23.688z"/>
	<polygon fill="#DEE2DE" points="34.365,22.69 35.595,23.107 36.36,22.331 34.276,22.331 	"/>
	<path fill="#DEE2DE" d="M40.936,41.335l0.221-0.444l-0.997,0.337l0.051,0.107c0.112-0.04,0.233-0.068,0.363-0.068
		C40.701,41.267,40.82,41.295,40.936,41.335z"/>
	<path fill="#DEE2DE" d="M41.863,39.454l0.254-0.515c-0.177-0.121-0.299-0.313-0.329-0.537h-0.961L41.863,39.454z"/>
	<path fill="#DEE2DE" d="M42.552,37.521c0.046,0,0.094,0.006,0.139,0.013l1.419-4.309c-0.145-0.066-0.27-0.167-0.374-0.286
		l-4.449,3.008c0.05,0.103,0.083,0.216,0.083,0.34c0,0.088-0.021,0.173-0.045,0.251l2.59,1.316
		C42.057,37.653,42.289,37.521,42.552,37.521z"/>
	<path fill="#DEE2DE" d="M41.939,39.834l-0.017-0.017l-0.02,0.038l0.014,0.007C41.923,39.853,41.934,39.845,41.939,39.834z"/>
	<path fill="#DEE2DE" d="M39.206,36.759l1.412,1.43h1.17c0.006-0.049,0.017-0.098,0.035-0.145l-2.593-1.315
		C39.224,36.739,39.216,36.748,39.206,36.759z"/>
	<path fill="#DEE2DE" d="M42.31,39.03l-0.288,0.585l0.068,0.07c0.103-0.077,0.225-0.128,0.356-0.144v-0.479
		C42.4,39.056,42.355,39.045,42.31,39.03z"/>
	<path fill="#DEE2DE" d="M39.315,38.542l2.398,1.218l0.05-0.104l-1.234-1.254h-1.181C39.342,38.451,39.332,38.498,39.315,38.542z"/>
	<path fill="#DEE2DE" d="M41.791,40.45c-0.01-0.048-0.013-0.096-0.013-0.144c0-0.087,0.017-0.172,0.045-0.252l-0.014-0.006
		l-0.235,0.476L41.791,40.45z"/>
	<path fill="#DEE2DE" d="M42.777,47.319l0.325-0.988l-0.44-1.333v2.308c0.04,0.005,0.079,0.007,0.118,0.016l0.09,0.029
		L42.777,47.319z"/>
	<path fill="#DEE2DE" d="M42.797,39.029c-0.045,0.015-0.089,0.026-0.137,0.032v0.479c0.259,0.035,0.474,0.196,0.589,0.42
		l0.005-0.004L42.797,39.029z"/>
	<path fill="#DEE2DE" d="M42.661,44.062l1.073-1.086c-0.128-0.154-0.209-0.343-0.233-0.554h-0.839V44.062z"/>
	<path fill="#DEE2DE" d="M47.562,38.729l-4.006,1.35l0.617,1.256c0.116-0.04,0.236-0.068,0.366-0.068
		c0.246,0,0.475,0.09,0.653,0.234l2.515-2.542C47.649,38.889,47.599,38.813,47.562,38.729z"/>
	<path fill="#DEE2DE" d="M47.475,38.402h-4.152c-0.032,0.224-0.153,0.416-0.333,0.537l0.469,0.949l4.031-1.358
		C47.482,38.487,47.479,38.445,47.475,38.402L47.475,38.402z"/>
	<path fill="#DEE2DE" d="M41.374,41.651c0.131,0.157,0.215,0.348,0.236,0.558v0.001h0.836v-1.137
		c-0.132-0.02-0.253-0.071-0.356-0.146L41.374,41.651z"/>
	<path fill="#DEE2DE" d="M45.56,42.086c0.009,0.039,0.011,0.082,0.016,0.121h4.153c0.028-0.221,0.152-0.412,0.33-0.534l-0.466-0.948
		L45.56,42.086z"/>
	<path fill="#DEE2DE" d="M47.861,39.109l-2.519,2.542c0.058,0.07,0.109,0.147,0.147,0.231l4.008-1.35l-0.621-1.256
		c-0.112,0.042-0.232,0.067-0.362,0.067C48.265,39.343,48.041,39.253,47.861,39.109z"/>
	<path fill="#DEE2DE" d="M49.166,39.109c-0.03,0.024-0.062,0.051-0.096,0.072l0.63,1.28l0.034-0.012
		c-0.012-0.047-0.016-0.096-0.016-0.145c0-0.177,0.061-0.337,0.162-0.471L49.166,39.109z"/>
	<path fill="#DEE2DE" d="M49.804,40.655l-0.009,0.001l0.453,0.921h0.001l0.001,0.002c0.046-0.015,0.091-0.026,0.137-0.031v-0.475
		C50.132,41.039,49.918,40.878,49.804,40.655z"/>
	<path fill="#DEE2DE" d="M41.381,44.432l0.949,2.889c0.037-0.009,0.077-0.011,0.116-0.016h0.002v-2.873H41.381z"/>
	<path fill="#DEE2DE" d="M39.168,35.77l4.451-3.007c-0.063-0.118-0.104-0.248-0.12-0.388h-3.464
		c-0.053,0.714-0.623,1.282-1.334,1.336v1.812C38.885,35.547,39.047,35.639,39.168,35.77z"/>
	<path fill="#DEE2DE" d="M47.855,37.489l-2.837-4.293c-0.147,0.074-0.307,0.121-0.48,0.121c-0.078,0-0.153-0.009-0.226-0.026
		l-1.417,4.311c0.227,0.114,0.392,0.33,0.427,0.588h4.152C47.505,37.908,47.644,37.659,47.855,37.489z"/>
	<polygon fill="#DEE2DE" points="41.31,44.216 41.905,44.216 41.233,43.99 	"/>
	<path fill="#DEE2DE" d="M41.374,42.977l1.072,1.086v-1.641H41.61C41.589,42.632,41.505,42.823,41.374,42.977z"/>
	<path fill="#DEE2DE" d="M38.7,37.542c0.339,0.047,0.602,0.312,0.649,0.648h0.97l-1.263-1.282c-0.103,0.077-0.223,0.127-0.355,0.145
		V37.542z"/>
	<path fill="#DEE2DE" d="M40.06,41.036l1.229-0.416l0.328-0.668l-2.396-1.218c-0.053,0.077-0.119,0.143-0.195,0.195L40.06,41.036z"
		/>
	<path fill="#DEE2DE" d="M41.226,41.503l0.715-0.729c-0.03-0.038-0.057-0.08-0.08-0.122l-0.419,0.143l-0.313,0.635
		C41.163,41.453,41.193,41.478,41.226,41.503z"/>
	<path fill="#DEE2DE" d="M41.15,43.738l1.012,0.343l-0.938-0.953c-0.068,0.057-0.141,0.106-0.227,0.143L41.15,43.738z"/>
	<path fill="#DEE2DE" d="M64.88,31.523l0.451-0.115l-0.328-0.334c-0.069,0.056-0.141,0.104-0.227,0.141L64.88,31.523z"/>
	<path fill="#DEE2DE" d="M39.851,19.967l-0.126-0.063l-0.141-0.071l-0.141,0.071l-0.128,0.063c0.017,0.047,0.027,0.094,0.034,0.142
		h0.468C39.827,20.061,39.836,20.014,39.851,19.967z"/>
	<path fill="#DEE2DE" d="M68.598,33.033l-0.14,0.211c0.075,0.01,0.148,0.029,0.218,0.056l0.759-1.54l0,0l-0.839,1.273H68.598z"/>
	<path fill="#DEE2DE" d="M63.322,32.704L63.322,32.704c-0.037,0.084-0.086,0.16-0.146,0.23l2.506,2.542
		c0.069-0.055,0.141-0.104,0.224-0.14v-0.002l0.202-0.066c0.072-0.015,0.146-0.025,0.225-0.025c0.174,0,0.336,0.046,0.479,0.121
		l0.023-0.035l0.18,0.117v0l-0.179-0.117l0.483-0.737c-0.03-0.097-0.053-0.202-0.053-0.313c0-0.078,0.012-0.157,0.028-0.231
		l-1.781-0.603l0.598,1.822l-0.201,0.066l-0.649-1.974l-1.934-0.655l0.067-0.2l1.783,0.603l-0.431-1.313h-0.004l-0.003-0.013
		l-1.336,0.338c0.007,0.051,0.016,0.099,0.016,0.15c0,0.082-0.01,0.157-0.026,0.234l-0.07,0.2V32.704z"/>
	<path fill="#DEE2DE" d="M61.197,26.905l1.068,1.085v-1.641h-0.837l0,0C61.407,26.56,61.323,26.749,61.197,26.905z"/>
	<path fill="#DEE2DE" d="M62.478,28.51v2.723c0.207,0.021,0.391,0.101,0.546,0.224l0.525-0.533
		c-0.149-0.181-0.244-0.409-0.244-0.663c0-0.253,0.095-0.483,0.244-0.665l0.076-0.075l-0.076,0.075L62.478,28.51z"/>
	<path fill="#DEE2DE" d="M61.428,26.136h0.837v-0.869c-0.203-0.021-0.391-0.099-0.544-0.22l-0.151-0.152
		c-0.058-0.07-0.108-0.144-0.146-0.228l-1.294,0.438l0.041,0.115c0.068-0.017,0.145-0.026,0.222-0.026
		c0.247,0,0.472,0.09,0.65,0.234l0.526-0.534l0.151,0.151l-0.525,0.533C61.325,25.733,61.407,25.924,61.428,26.136z"/>
	<path fill="#DEE2DE" d="M66.717,26.136c0.006-0.104,0.022-0.207,0.049-0.305l-3.443-1.165v0.001l0,0
		c-0.104,0.23-0.293,0.416-0.525,0.52l0.291,0.882l0,0l0.021,0.066H66.717z"/>
	<path fill="#DEE2DE" d="M62.886,26.136l-0.29-0.881c-0.039,0.007-0.077,0.008-0.118,0.012v0.869H62.886z"/>
	<path fill="#DEE2DE" d="M68.417,30.9h0.004v2.013l1.001-1.523c-0.224-0.17-0.392-0.404-0.482-0.677l-0.522,0.134V30.9z"/>
	<path fill="#DEE2DE" d="M63.351,31.911L63.351,31.911l1.322-0.333l-0.098-0.293c-0.073,0.015-0.146,0.023-0.225,0.023
		c-0.247,0-0.471-0.089-0.651-0.231l-0.523,0.531C63.252,31.698,63.311,31.797,63.351,31.911z"/>
	<path fill="#DEE2DE" d="M69.566,29.032l0.127-0.062l-0.127,0.061l-0.647-1.311c-0.157,0.063-0.325,0.104-0.502,0.115v2.319h-0.212
		v-2.319c-0.357-0.023-0.68-0.164-0.937-0.383l-2.116,2.144l-0.149-0.149l2.112-2.144c-0.229-0.258-0.376-0.589-0.398-0.953h-3.539
		l-0.201,0.066l-0.022-0.066h-0.477v1.859l1.223,1.238c0.07-0.054,0.145-0.104,0.226-0.139l-0.949-2.891l0.201-0.066l0.95,2.889
		c0.073-0.015,0.146-0.025,0.223-0.025c0.249,0,0.474,0.089,0.652,0.234l0.151,0.149c0.128,0.155,0.211,0.347,0.234,0.559h2.816
		h0.213h0.451C68.905,29.678,69.176,29.264,69.566,29.032z"/>
	<path fill="#DEE2DE" d="M68.418,30.367v0.258l0.469-0.12c-0.007-0.044-0.015-0.091-0.018-0.138H68.418L68.418,30.367z"/>
	<path fill="#DEE2DE" d="M55.514,36.784c-0.079-0.148-0.129-0.314-0.129-0.492c0-0.132,0.027-0.26,0.072-0.375l-1.765-0.896
		l0.003-0.004h-0.002c-0.25,0.412-0.7,0.688-1.218,0.688c-0.118,0-0.232-0.016-0.344-0.042l-1.296,3.947l-0.202-0.066l1.296-3.946
		c-0.136-0.058-0.264-0.136-0.376-0.23l-0.152-0.151c-0.22-0.251-0.354-0.577-0.354-0.938c0-0.256,0.068-0.498,0.189-0.706
		l0.119-0.177h0.001c0.015-0.018,0.028-0.036,0.044-0.053l0.15-0.148c0.062-0.054,0.131-0.102,0.198-0.141l-1.018-2.067
		c-0.073,0.025-0.152,0.043-0.237,0.043c-0.298,0-0.554-0.175-0.682-0.424h-0.002l-0.001-0.001l-0.604,0.204l2.348,2.386
		l-0.152,0.149l-2.421-2.457l-0.048,0.017c-0.101,0.067-0.223,0.107-0.351,0.12l-0.49,0.163l-0.069-0.2l0.138-0.047
		c-0.11-0.058-0.206-0.14-0.277-0.241l-0.296,0.151l-0.097-0.189l0.298-0.151c-0.015-0.044-0.023-0.089-0.029-0.136h-0.472
		c-0.013,0.081-0.036,0.157-0.071,0.228l0.172,0.117l0.104-0.053l0.097,0.189l-0.002,0.001l0.278,0.187l0.155-0.052l0.067,0.2
		l3.266,2.21l-0.118,0.177l-3.402-2.299l-2.276,0.764c0.015,0.078,0.026,0.154,0.026,0.233c0,0.328-0.153,0.615-0.388,0.809
		l2.833,4.295c0.145-0.074,0.309-0.122,0.483-0.122c0.246,0,0.471,0.09,0.65,0.234l2.237-2.27l0.149,0.152l-2.232,2.268
		c0.148,0.18,0.242,0.41,0.242,0.662c0,0.254-0.093,0.484-0.242,0.665l0.712,0.726c0.132-0.099,0.291-0.156,0.463-0.156
		c0.05,0,0.093,0.004,0.139,0.012l0.201,0.067v0.002c0.091,0.045,0.169,0.104,0.234,0.177L55.514,36.784z"/>
	<path fill="#DEE2DE" d="M56.326,38.867v-1.541c-0.279-0.028-0.521-0.165-0.692-0.367l-4.447,3.008
		c0.037,0.073,0.061,0.152,0.072,0.234v-0.003h3.734C55.046,39.487,55.614,38.917,56.326,38.867z"/>
	<path fill="#DEE2DE" d="M55.104,31.899l0.662,2.012c0.056-0.106,0.139-0.198,0.236-0.267l-0.915-1.862h-0.002l-0.017,0.015
		L55.104,31.899L55.104,31.899z"/>
	<path fill="#DEE2DE" d="M53.548,33.342c0.197,0.226,0.323,0.513,0.349,0.829h1.73l-0.723-2.204l0,0L53.548,33.342z"/>
	<path fill="#DEE2DE" d="M59.075,41.767l-1.407-0.713c-0.236,0.39-0.649,0.658-1.127,0.694v3.043l0,0l2.614-1.77
		c-0.121-0.208-0.189-0.449-0.189-0.707C58.966,42.12,59.005,41.935,59.075,41.767z"/>
	<path fill="#DEE2DE" d="M59.509,41.196l-1.706-0.432c-0.011,0.033-0.021,0.067-0.036,0.1l1.404,0.711l0,0h0.002
		C59.263,41.433,59.374,41.301,59.509,41.196z"/>
	<path fill="#DEE2DE" d="M61.002,32.846l-2.236,0.755c0.11,0.058,0.203,0.138,0.272,0.24L61.002,32.846L61.002,32.846z"/>
	<path fill="#DEE2DE" d="M60.818,27.196l1.33,4.051c0.039-0.008,0.08-0.011,0.117-0.015v-2.938l-0.15-0.156l0.15-0.149l-0.152,0.149
		l-1.07-1.086C60.975,27.109,60.9,27.158,60.818,27.196z"/>
	<path fill="#DEE2DE" d="M57.186,30.403l4.237,1.433c0.104-0.232,0.292-0.417,0.524-0.523l-1.331-4.05
		c-0.07,0.017-0.146,0.026-0.223,0.026c-0.248,0-0.473-0.089-0.651-0.235l-2.702,2.743c0.098,0.13,0.158,0.291,0.158,0.464
		C57.198,30.31,57.193,30.357,57.186,30.403z"/>
	<path fill="#DEE2DE" d="M55.272,31.687l0.921,1.866c0.044-0.015,0.087-0.026,0.133-0.032v-1.208l-0.884-0.896l-0.148,0.15
		l-0.15-0.149l0.15-0.154l-0.188-0.19l0.149-0.15l0.188,0.189l0.384-0.39c-0.079-0.102-0.131-0.223-0.148-0.355v-0.212
		c0.046-0.338,0.313-0.604,0.648-0.651h0.214c0.129,0.017,0.245,0.068,0.346,0.143l2.704-2.742
		c-0.128-0.155-0.211-0.345-0.231-0.555h-1.505c-0.05,0.7-0.611,1.26-1.313,1.313v1.841h-0.213v-1.842
		c-0.149-0.011-0.293-0.044-0.425-0.1l-0.895,1.811l-0.189-0.093l0.892-1.812c-0.421-0.249-0.703-0.705-0.703-1.225
		c0-0.524,0.282-0.98,0.703-1.229l-0.65-1.323l0.188-0.093l0.654,1.324c0.132-0.055,0.275-0.089,0.425-0.1h0.213
		c0.081,0.005,0.161,0.019,0.235,0.038l0.233-0.707l0.019-0.06l-0.487-0.33v1.058h-0.214V23.62l-0.623-0.422
		c-0.127,0.16-0.279,0.294-0.456,0.396v0.003l-0.189,0.093c-0.188,0.077-0.392,0.119-0.604,0.119c-0.506,0-0.958-0.24-1.248-0.611
		l-3.976,2.688l-0.001-0.001l-0.021,0.015c0.051,0.104,0.082,0.22,0.082,0.343c0,0.002,0,0.004,0,0.008l0.162,0.497l0.228,0.156
		l-0.119,0.177l0,0l0.118-0.174l3.975,2.688c0.191-0.23,0.478-0.378,0.8-0.378c0.126,0,0.247,0.027,0.362,0.067l0.189,0.094v0.002
		c0.266,0.166,0.449,0.449,0.483,0.777h0.187v0.214h-0.187c-0.024,0.211-0.108,0.402-0.234,0.556l-0.151,0.151
		c-0.03,0.023-0.063,0.049-0.098,0.071l0.135,0.275l0.153,0.148l-0.053,0.053L55.272,31.687L55.272,31.687z"/>
	<path fill="#DEE2DE" d="M55.979,30.874l-0.386,0.392l0.734,0.743v-0.991C56.198,30.997,56.078,30.948,55.979,30.874z"/>
	<path fill="#DEE2DE" d="M57.114,30.606c-0.06,0.116-0.146,0.218-0.251,0.29l1.307,2.653h0.002l0.004,0.006
		c0.056-0.02,0.11-0.03,0.173-0.037l2.586-0.875l0.001,0.001l0.418-0.143c-0.017-0.075-0.026-0.151-0.026-0.232
		c0-0.078,0.009-0.155,0.026-0.232L57.114,30.606z"/>
	<path fill="#DEE2DE" d="M65.429,33.19l1.935,0.654c0.039-0.083,0.088-0.157,0.147-0.228l-1.913-1.944l0.152-0.148l1.913,1.941
		c0.152-0.121,0.337-0.199,0.545-0.221v-0.002v-2.341h-0.003l-2.459,0.624l-0.151,0.149l-0.086-0.087l-0.124,0.03l-0.052-0.207
		l0.151-0.149l0.088,0.087l2.633-0.667v-0.313h-2.816c-0.023,0.211-0.106,0.403-0.234,0.556l0.33,0.336l-0.153,0.149l0.054,0.207
		l-0.437,0.11L65.429,33.19z"/>
	<path fill="#DEE2DE" d="M55.455,17.849c0.039-0.113,0.1-0.215,0.177-0.307L53.125,15c-0.089,0.073-0.188,0.129-0.3,0.17
		l0.528,2.144L55.455,17.849z"/>
	<path fill="#DEE2DE" d="M53.12,17.255l-0.502-2.035c-0.048,0.006-0.096,0.015-0.145,0.015c-0.127,0-0.246-0.027-0.361-0.069
		l-0.806,1.629L53.12,17.255z"/>
	<path fill="#DEE2DE" d="M51.096,16.743l0.826-1.67c-0.132-0.083-0.24-0.189-0.324-0.32l-1.335,0.677l-0.772,0.392
		c0.045,0.118,0.073,0.243,0.073,0.375c0,0.053-0.009,0.103-0.015,0.151l1.507,0.383v0.001L51.096,16.743z"/>
	<path fill="#DEE2DE" d="M55.396,18.1c0.004-0.015,0.004-0.029,0.005-0.045l-1.988-0.507l0.135,0.552H55.396z"/>
	<path fill="#DEE2DE" d="M55.718,19.42l0.162-0.332c-0.265-0.166-0.447-0.45-0.482-0.777h-1.797l0.121,0.499l-0.203,0.051
		l-0.137-0.549h-1.851l0,0c-0.002,0.015-0.002,0.029-0.005,0.045l1.992,0.504l0.203-0.051l0.027,0.111l1.923,0.49V19.41
		L55.718,19.42z"/>
	<path fill="#DEE2DE" d="M50.164,15.243L50.164,15.243l-0.815,0.329l0,0c0.016,0.021,0.031,0.04,0.045,0.062L50.164,15.243z"/>
	<path fill="#DEE2DE" d="M49.692,17.542l-0.527-0.532c-0.15,0.124-0.338,0.204-0.542,0.224v0.866H48.41v-0.866
		c-0.379-0.04-0.697-0.273-0.849-0.604l-1.571,0.529l0,0l-2.414,0.815c0.009,0.04,0.012,0.083,0.019,0.125v0.002h4.813h0.214h0.836
		c0.021-0.211,0.104-0.402,0.232-0.558l0.151-0.149c0.182-0.145,0.405-0.234,0.651-0.234c0.13,0,0.25,0.027,0.363,0.07l0.191,0.093
		c0.267,0.166,0.446,0.45,0.48,0.777V18.1h1.798l-0.148-0.609l-1.969-0.5l-0.161,0.333l-0.191-0.094L51,16.938v-0.001l-1.502-0.382
		c-0.043,0.111-0.104,0.214-0.178,0.305l0.522,0.532L49.692,17.542z"/>
	<path fill="#DEE2DE" d="M41.181,19.754c0.044,0.057,0.081,0.118,0.104,0.186l0.578-0.878L41.181,19.754z"/>
	<path fill="#DEE2DE" d="M41.872,19.049L41.872,19.049L41.72,18.9l0.029-0.032c-0.025-0.031-0.053-0.062-0.074-0.098l-1.854,0.943
		l0.127,0.066c0.139-0.197,0.367-0.327,0.627-0.327c0.168,0,0.328,0.058,0.454,0.152l0.692-0.701L41.872,19.049z"/>
	<path fill="#DEE2DE" d="M43.595,18.314c-0.022,0.21-0.108,0.4-0.234,0.553l4.691,4.746l-0.154,0.149l-4.69-4.744
		c-0.181,0.143-0.408,0.232-0.654,0.232c-0.176,0-0.339-0.044-0.48-0.121l-0.608,0.926l-0.181-0.116c0.001,0,0.002,0,0.002,0.001
		l0.18,0.117l-0.129,0.196c-0.016,0.286-0.185,0.527-0.424,0.647l-1.811,2.752c0.164,0.142,0.269,0.349,0.269,0.581
		c0,0.429-0.347,0.775-0.776,0.775c-0.086,0-0.165-0.018-0.242-0.042l-0.944,1.914c0.301,0.174,0.539,0.441,0.673,0.764l9.667-3.265
		V24.38c-0.008-0.047-0.016-0.096-0.016-0.145c0-0.178,0.062-0.341,0.164-0.47l0.153-0.15c0.102-0.077,0.223-0.129,0.358-0.147
		v-5.154H43.595z"/>
	<path fill="#DEE2DE" d="M45.922,16.955l1.568-0.527c-0.005-0.032-0.01-0.066-0.014-0.1L45.922,16.955L45.922,16.955z"/>
	<path fill="#DEE2DE" d="M55.927,19.476l0.4,0.1v-0.335c-0.09-0.008-0.177-0.027-0.259-0.056L55.927,19.476z"/>
	<polygon fill="#DEE2DE" points="59.332,23.354 59.332,23.353 59.317,23.412 	"/>
	<path fill="#DEE2DE" d="M56.328,45.579h0.213c0.131,0.018,0.248,0.066,0.348,0.141l2.433-2.467l-0.001-0.001
		c-0.016-0.017-0.029-0.033-0.045-0.053l-2.616,1.77v-0.001l-0.118,0.081v0.529h-0.215v-0.385l-0.956,0.647
		c0.066,0.118,0.104,0.247,0.12,0.385h0.188v0.003C55.726,45.89,55.992,45.626,56.328,45.579z"/>
	<path fill="#DEE2DE" d="M59.592,25.572c0.102-0.118,0.228-0.219,0.375-0.285l-0.037-0.114l-0.619,0.208L59.592,25.572z"/>
	<path fill="#DEE2DE" d="M61.393,23.875c0.041-0.111,0.102-0.213,0.174-0.305l-2.502-2.542l-0.001,0.001
		c-0.071,0.054-0.144,0.104-0.227,0.142l0.739,2.243L61.393,23.875z"/>
	<path fill="#DEE2DE" d="M58.639,21.238c-0.073,0.017-0.147,0.024-0.225,0.024s-0.151-0.007-0.224-0.024l-0.553,1.685l0,0
		l1.694,0.43L58.639,21.238L58.639,21.238z"/>
	<path fill="#DEE2DE" d="M55.815,21.415l0.511-0.26v-1.359l-0.496-0.127l-0.584,1.181l-0.188-0.094l0.562-1.138l-1.812-0.46
		l0.372,1.507c0.089-0.015,0.182-0.025,0.274-0.025c0.212,0,0.416,0.043,0.604,0.119l0.189,0.093v0.002
		C55.482,20.989,55.677,21.183,55.815,21.415z"/>
	<polygon fill="#DEE2DE" points="56.66,23.589 57.096,23.884 57.362,23.071 56.541,22.863 56.541,23.508 	"/>
	<path fill="#DEE2DE" d="M61.354,24.466c-0.017-0.075-0.027-0.154-0.027-0.232c0-0.053,0.007-0.103,0.016-0.151l-1.687-0.428
		l0.408,1.247L61.354,24.466z"/>
	<path fill="#DEE2DE" d="M58.835,25.318l0.068,0.201l-1.089,0.371c0.021,0.08,0.035,0.164,0.039,0.249h1.505
		c0.014-0.14,0.056-0.271,0.116-0.388l-0.418-0.283l-0.152,0.051L58.835,25.318l-1.623-1.098l-0.234,0.707
		c0.346,0.143,0.623,0.417,0.768,0.76L58.835,25.318z"/>
	<polygon fill="#DEE2DE" points="56.541,19.851 56.541,19.852 56.553,19.8 	"/>
	<path fill="#DEE2DE" d="M56.541,21.048l0.897-0.456c-0.043-0.116-0.072-0.242-0.072-0.375c0-0.053,0.01-0.102,0.016-0.153
		l-0.841-0.213v1.195V21.048z"/>
	<path fill="#DEE2DE" d="M57.435,22.858l0.553-1.687c-0.187-0.083-0.344-0.218-0.454-0.39l-0.896,0.456l-0.002-0.001l-0.094,0.049
		v0.108h-0.214l-0.414,0.208c0.081,0.192,0.126,0.403,0.126,0.622c0,0.098-0.008,0.193-0.027,0.285l0.315,0.081v-1.195h0.214v1.25
		l0.89,0.226L57.435,22.858L57.435,22.858z"/>
	<path fill="#DEE2DE" d="M55.964,22.715c-0.038,0.109-0.086,0.21-0.14,0.307l0.503,0.341V22.81L55.964,22.715z"/>
	<polygon fill="#DEE2DE" points="59.41,23.591 59.279,23.558 59.279,23.557 57.57,23.125 57.299,23.951 57.297,23.951 
		57.277,24.008 59.087,25.232 59.241,25.18 59.31,25.38 59.31,25.381 59.242,25.182 59.861,24.972 	"/>
	<path fill="#DEE2DE" d="M32.193,21.604c0.104-0.077,0.225-0.127,0.356-0.145V20.97c-0.273-0.039-0.501-0.218-0.603-0.465
		l-0.659,0.166c0,0.002-0.001,0.005-0.005,0.007L32.193,21.604z"/>
	<path fill="#DEE2DE" d="M31.43,20.322c-0.002,0.035-0.011,0.067-0.021,0.099l0.393-0.099H31.43z"/>
	<path fill="#DEE2DE" d="M63.501,42.208l-1.796-0.455c0.06,0.141,0.096,0.295,0.109,0.455v0.001L63.501,42.208l0.026-0.105
		L63.501,42.208z"/>
	<path fill="#DEE2DE" d="M33.614,24.466c-0.016-0.075-0.026-0.154-0.026-0.232c0-0.109,0.021-0.215,0.053-0.314l-0.655-0.997
		c-0.069,0.034-0.146,0.056-0.224,0.069v1.765L33.614,24.466z"/>
	<path fill="#DEE2DE" d="M32.192,25.172l-2.116,0.716c0.022,0.081,0.037,0.164,0.043,0.249h1.5c0.039-0.379,0.276-0.698,0.611-0.85
		L32.192,25.172z"/>
	<path fill="#DEE2DE" d="M32.549,19.461v-1.823c-0.153-0.013-0.299-0.046-0.436-0.102l-1.008,2.046
		c0.174,0.119,0.294,0.309,0.325,0.527h0.469C31.946,19.771,32.211,19.508,32.549,19.461z"/>
	<path fill="#DEE2DE" d="M33.509,20.109l-0.612-2.488c-0.045,0.008-0.089,0.013-0.134,0.017v1.823
		c0.334,0.047,0.6,0.311,0.649,0.648H33.509z"/>
	<path fill="#DEE2DE" d="M31.133,20.83c-0.039,0.025-0.08,0.052-0.121,0.07l0.399,1.217v0.001h0.479
		c0.018-0.137,0.07-0.26,0.152-0.364L31.133,20.83z"/>
	<path fill="#DEE2DE" d="M30.163,22.118h1.025l-0.377-1.149c-0.045,0.008-0.09,0.013-0.138,0.013c-0.045,0-0.09-0.004-0.133-0.013
		L30.163,22.118z"/>
	<path fill="#DEE2DE" d="M23.514,20.323c-0.02,0.132-0.072,0.253-0.15,0.355l0.724,0.733c0.178-0.143,0.401-0.233,0.651-0.233
		c0.419,0,0.783,0.252,0.948,0.611l4.236-1.433c-0.002-0.011-0.002-0.023-0.003-0.034H23.514z"/>
	<path fill="#DEE2DE" d="M29.937,22.118l0.396-1.203l-4.566,1.158c0.003,0.015,0.003,0.03,0.004,0.045H29.937z"/>
	<path fill="#DEE2DE" d="M30.914,19.49l1.01-2.049c-0.241-0.141-0.438-0.352-0.563-0.603l-7.862,3.191
		c0.005,0.025,0.008,0.053,0.015,0.081h6.406c0.052-0.373,0.369-0.66,0.756-0.66C30.757,19.451,30.839,19.467,30.914,19.49z"/>
	<path fill="#DEE2DE" d="M29.994,20.559l-2.63,0.889l2.762-0.701C30.071,20.69,30.027,20.627,29.994,20.559z"/>
	<path fill="#DEE2DE" d="M43.319,40.161c0.008,0.047,0.016,0.097,0.016,0.146c0,0.177-0.063,0.34-0.166,0.47l0.717,0.727
		c0.033-0.026,0.061-0.051,0.095-0.072l-0.63-1.279L43.319,40.161z"/>
	<polygon fill="#DEE2DE" points="35.504,43.193 35.317,43.482 35.786,43.001 	"/>
	<path fill="#DEE2DE" d="M33.843,35.329l2.725,2.766l0.279-0.851l-2.943-1.99C33.883,35.279,33.863,35.304,33.843,35.329z"/>
	<path fill="#DEE2DE" d="M39.393,53.704l1.919-1.298l0,0l2.308-1.557c-0.057-0.105-0.096-0.212-0.114-0.332l-0.585-1.188l0.19-0.096
		l0.419,0.853c0.042-0.146,0.113-0.278,0.205-0.393l-0.527-0.532l0.153-0.15l0.526,0.534c0.068-0.057,0.141-0.106,0.225-0.143
		l-0.895-2.729l-0.236,0.712l0.002,0.001v0.002c0.364,0.16,0.622,0.527,0.622,0.957c0,0.255-0.092,0.481-0.244,0.664l-0.153,0.15
		c-0.031,0.024-0.062,0.051-0.098,0.071l-0.19,0.095c-0.114,0.042-0.238,0.066-0.367,0.066c-0.175,0-0.336-0.047-0.479-0.121
		l-2.821,4.291l0,0C39.303,53.604,39.349,53.649,39.393,53.704z"/>
	<path fill="#DEE2DE" d="M39.568,53.996l1.862-1.419l0,0l-1.919,1.299C39.532,53.917,39.553,53.956,39.568,53.996z"/>
	<path fill="#DEE2DE" d="M45.56,50.123c0.017,0.076,0.026,0.151,0.026,0.23c0,0.179-0.049,0.345-0.129,0.494l2.769,1.86l1.714-3.478
		c-0.172-0.107-0.31-0.263-0.395-0.453L45.56,50.123z"/>
	<path fill="#DEE2DE" d="M45.489,49.92l3.989-1.342c-0.019-0.075-0.029-0.155-0.029-0.233c0-0.543,0.413-0.986,0.938-1.041v-4.227
		c-0.34-0.047-0.611-0.316-0.658-0.657h-4.152v0.004c-0.052,0.524-0.495,0.939-1.038,0.939c-0.077,0-0.152-0.009-0.225-0.026
		L43.42,46.06l-0.002-0.001l-0.09,0.271l0.984,3.003c0.072-0.016,0.146-0.023,0.226-0.023C44.961,49.311,45.323,49.56,45.489,49.92z
		"/>
	<path fill="#DEE2DE" d="M35.116,43.201l0.229-0.16l0.274-0.414c-0.032-0.1-0.052-0.203-0.052-0.312c0-0.54,0.413-0.981,0.938-1.038
		h0.002v-2.313L35.116,43.201z"/>
	<path fill="#DEE2DE" d="M29.471,30.895l0.569-0.865l-0.577,0.146c0.002,0.028,0.009,0.056,0.009,0.086
		c0,0.177-0.06,0.338-0.161,0.471l0,0L29.471,30.895z"/>
	<path fill="#DEE2DE" d="M31.975,27.085l-2.666,2.705c0.042,0.055,0.08,0.113,0.105,0.179l0.799-0.204L31.975,27.085z"/>
	<path fill="#DEE2DE" d="M33.673,26.01c0.017,0.076,0.029,0.153,0.029,0.234c0,0.132-0.026,0.257-0.072,0.375l1.622,0.823l0,0
		c0.104-0.176,0.242-0.33,0.405-0.453l-0.887-1.35L33.673,26.01L33.673,26.01z"/>
	<path fill="#DEE2DE" d="M32.656,27.291c-0.173,0-0.335-0.047-0.48-0.122l-1.653,2.52l4.531-1.152
		c-0.015-0.092-0.025-0.187-0.025-0.285c0-0.22,0.044-0.43,0.128-0.622l-1.623-0.821C33.348,27.098,33.023,27.29,32.656,27.291z"/>
	<path fill="#DEE2DE" d="M30.037,31.472l5.118-2.598c-0.018-0.043-0.035-0.085-0.049-0.129l-4.534,1.152l-0.012-0.052l0.012,0.052
		l-0.226,0.057l-0.126,0.193l-0.178-0.117l0,0l0.177,0.117l-0.594,0.905L30.037,31.472z"/>
	<path fill="#DEE2DE" d="M73.731,40.954L73.731,40.954l2.504-0.422c-0.004-0.04-0.007-0.079-0.008-0.119h-2.361
		C73.853,40.604,73.81,40.786,73.731,40.954z"/>
	<path fill="#DEE2DE" d="M69.286,33.905l1.86-1.417l-1.917,1.298C69.251,33.824,69.27,33.864,69.286,33.905z"/>
	<path fill="#DEE2DE" d="M72.833,36.906l1.112-5.648c-0.177-0.056-0.336-0.151-0.456-0.283l-4.146,3.155
		c0.008,0.049,0.016,0.098,0.016,0.148c0,0.163-0.039,0.313-0.105,0.449L72.833,36.906z"/>
	<path fill="#DEE2DE" d="M74.426,42.735l0.001,0.002c0.33,0.035,0.628,0.171,0.865,0.376l0,0l1.45-1.471
		c-0.062-0.069-0.119-0.139-0.171-0.215L74.426,42.735z"/>
	<path fill="#DEE2DE" d="M51.471,47.969l-0.096-0.19L51.471,47.969c0.044,0.117,0.071,0.243,0.071,0.378
		c0,0.18-0.048,0.346-0.128,0.493l0.653,0.439l0.113,0.077c0.093-0.026,0.19-0.046,0.293-0.046c0.127,0,0.248,0.024,0.363,0.066
		l1.063-2.161l0.19,0.093l-1.061,2.16c0.034,0.021,0.063,0.048,0.095,0.071l0.002,0.003l1.701-1.734l-0.148-0.457
		c-0.073,0.014-0.148,0.025-0.225,0.025c-0.128,0-0.248-0.026-0.363-0.07l-0.189-0.093c-0.132-0.081-0.244-0.189-0.327-0.317
		L51.471,47.969z"/>
	<path fill="#DEE2DE" d="M56.541,32.227l1.335,1.354l0.073,0.074l0.031-0.012l-1.308-2.657c-0.042,0.015-0.087,0.025-0.132,0.032
		V32.227z"/>
	<path fill="#DEE2DE" d="M76.571,39.183c0.204-0.296,0.484-0.532,0.813-0.684l-2.854-7.236l0,0c-0.09,0.025-0.184,0.042-0.282,0.042
		c-0.029,0-0.063-0.007-0.094-0.009l-1.128,5.728L76.571,39.183l-0.112,0.182l-3.478-2.116l-0.295,1.512
		c0.647,0.175,1.136,0.745,1.18,1.437v0.001h2.362c0.017-0.301,0.098-0.583,0.231-0.834L76.571,39.183z"/>
	<path fill="#DEE2DE" d="M69.273,45.06c0.134,0.1,0.251,0.218,0.344,0.352l2.365-1.441l-1.759-0.356L69.273,45.06l-0.176-0.118
		l0.907-1.373l-2.214-0.45l-0.209,0.041l-0.017-0.085l-0.765-0.154c-0.011,0.007-0.021,0.018-0.035,0.026l-0.189,0.095l-0.002-0.003
		c-0.075,0.026-0.154,0.043-0.237,0.043c-0.286,0-0.533-0.16-0.665-0.393l-0.129-0.025l0.043-0.208
		c-0.002-0.012-0.002-0.023-0.004-0.034h-0.164v-0.214h0.164c0.003-0.035,0.011-0.067,0.021-0.1l-0.054-0.208l0.178-0.044
		c0.118-0.159,0.297-0.267,0.502-0.297v-4.182h0.214l0.21-0.041l0.354,1.806l0.399-1.619l-0.091-0.094l0.153-0.149l-0.152,0.148
		l-0.327-0.33c-0.103,0.081-0.221,0.143-0.347,0.184l0.011,0.053l-0.209,0.04H66.23v-0.055c-0.041-0.005-0.079-0.007-0.118-0.013
		l-1.419,4.317l-0.201-0.066l1.42-4.319c-0.215-0.096-0.389-0.261-0.497-0.467h-0.001l-0.079-0.196
		c-0.029-0.094-0.047-0.189-0.047-0.292c0-0.253,0.092-0.483,0.244-0.664l-2.505-2.542c-0.179,0.145-0.405,0.234-0.651,0.234
		c-0.37,0-0.693-0.192-0.878-0.481l-0.396,0.2l-1.961,0.997c0.026,0.079,0.044,0.16,0.044,0.247c0,0.424-0.346,0.767-0.767,0.767
		c-0.173,0-0.328-0.058-0.456-0.154l-0.722,0.733l-0.152-0.149l0.723-0.733c-0.079-0.102-0.131-0.224-0.149-0.357v-0.213
		c0.009-0.076,0.031-0.148,0.062-0.217l-0.068-0.2l0.072-0.026l0.151-0.148l-0.152,0.148l-1.185-1.201v0.992
		c0.253,0.037,0.464,0.194,0.575,0.414l0.537-0.182l0.067,0.2l-0.534,0.181c0.001,0.013,0.001,0.025,0.003,0.036h0.469v0.213h-0.467
		c-0.049,0.336-0.311,0.603-0.648,0.649v0.217h-0.214v-0.217c-0.076-0.01-0.146-0.029-0.214-0.062l0.097,0.293l-0.201,0.066
		l-0.205-0.617c-0.066-0.096-0.108-0.209-0.125-0.331h-1.781c-0.015,0.155-0.05,0.304-0.106,0.443l-0.003,0.005l1.765,0.893
		c0.109-0.168,0.265-0.304,0.454-0.388v-0.001l0.2-0.066c0.04-0.009,0.077-0.011,0.119-0.015h0.213
		c0.203,0.022,0.393,0.101,0.545,0.225l0.152,0.148c0.148,0.181,0.242,0.411,0.242,0.665c0,0.541-0.414,0.982-0.939,1.035v1.541
		c0.521,0.036,0.966,0.353,1.188,0.798l7.602-3.085l0.08,0.196l-7.601,3.087c0.045,0.139,0.07,0.288,0.07,0.443
		c0,0.085-0.008,0.17-0.023,0.251l1.706,0.433V40.99l0.194,0.05c0.194-0.097,0.408-0.151,0.636-0.151
		c0.483,0,0.909,0.241,1.167,0.606l1.995,0.506l-0.002,0.002l0.09,0.024c0.115-0.279,0.389-0.478,0.707-0.478
		c0.049,0,0.093,0.006,0.139,0.013l0.199,0.066v0.002c0.17,0.083,0.304,0.222,0.374,0.396l0.482-0.124l0.053,0.206l-0.393,0.101
		h0.208v0.213l0.169,0.035l-0.044,0.208l-0.466-0.097c-0.027,0.078-0.065,0.148-0.112,0.21l2.309,2.345
		c0.074-0.065,0.156-0.122,0.242-0.171l-0.938-1.91l0.189-0.095l0.94,1.908c0.063-0.027,0.129-0.045,0.196-0.066l-0.321-1.628
		l0.209-0.041l0.321,1.628c0.065-0.007,0.134-0.014,0.204-0.014c0.286,0,0.554,0.076,0.786,0.208L69.273,45.06z"/>
	<polygon fill="#DEE2DE" points="67.16,36.976 67.463,37.282 67.483,37.195 	"/>
	<path fill="#DEE2DE" d="M73.334,29.769l-3.76-2.546c-0.127,0.162-0.284,0.298-0.462,0.402l0.645,1.313l0,0
		c0.167-0.066,0.347-0.104,0.536-0.104c0.749,0,1.364,0.584,1.42,1.322v0.212c-0.056,0.736-0.671,1.32-1.42,1.32
		c-0.189,0-0.37-0.038-0.536-0.104l-0.132,0.27h0.001l-0.759,1.541c0.093,0.058,0.174,0.132,0.243,0.215l4.224-2.856
		c-0.065-0.118-0.104-0.248-0.116-0.386h-1.505v-0.212h1.505C73.229,30.017,73.269,29.887,73.334,29.769z"/>
	<polygon fill="#DEE2DE" points="66.883,39.634 66.438,37.379 66.438,41.439 	"/>
	<path fill="#DEE2DE" d="M67.672,37.323l-0.209-0.041l0.212,0.044l-0.035,0.138l2.993,3.039h-0.001l0.063,0.061
		c-0.014-0.085-0.024-0.171-0.024-0.258c0-0.293,0.083-0.568,0.222-0.804L67.672,37.323l0.121-0.177l3.218,2.178
		c0.031-0.039,0.062-0.075,0.098-0.111l-2.357-3.988c-0.134,0.063-0.282,0.101-0.438,0.101c-0.049,0-0.099-0.008-0.145-0.015
		l-0.208-0.052c-0.022-0.008-0.049-0.015-0.07-0.026l-0.306,0.232l-0.128-0.169l-0.15-0.148l0.203-0.207
		c-0.03-0.038-0.061-0.079-0.086-0.119l-0.407,0.618l0.288-0.292l0.152,0.148l0.126,0.169l-0.362,0.276
		c0.098,0.16,0.158,0.345,0.158,0.545c0,0.179-0.05,0.345-0.13,0.492l0.287,0.196l0.423-1.717l0.208,0.052l-0.441,1.79l0.065,0.045
		L67.672,37.323z"/>
	<path fill="#DEE2DE" d="M67.663,35.09l-0.205,0.206l0.237-0.181C67.685,35.11,67.673,35.099,67.663,35.09z"/>
	<path fill="#DEE2DE" d="M71.108,41.399c-0.109-0.115-0.2-0.245-0.271-0.388l-0.081-0.083l-3.119,1.056l-0.065-0.187l0.065,0.19
		l3.472-0.586l0.036,0.209l-3.536,0.598l0.066,0.339l2.569,0.651l0.04-0.062l0.18,0.117l1.908,0.485l0.598-0.363
		c0.028-0.039,0.056-0.075,0.087-0.109l-1.217-1.237l0.154-0.148l1.216,1.234c0.043-0.039,0.09-0.075,0.14-0.11l-0.612-1.032
		l0.184-0.109l-0.037-0.08l0.189-0.094l0.569,1.155c0.113-0.048,0.233-0.079,0.356-0.099l0.317-0.193l-0.001-0.002l2.144-1.308
		c-0.085-0.157-0.146-0.326-0.187-0.505l-2.506,0.425l0,0l-0.165,0.026c-0.137,0.204-0.316,0.374-0.53,0.498l-0.189,0.094
		c-0.003,0.003-0.005,0.003-0.006,0.004l0.044,0.077l-0.184,0.109l-0.07-0.12c-0.125,0.033-0.257,0.051-0.396,0.051
		c-0.095,0-0.186-0.008-0.277-0.024l-0.153,0.148l-0.295-0.301c-0.018-0.008-0.04-0.019-0.058-0.028l-1.022,1.554l-0.181-0.118
		l1.023-1.554l-0.162,0.028L71.108,41.399z"/>
	<path fill="#DEE2DE" d="M71.308,39.033L70.692,38.1l0.572,0.965C71.277,39.053,71.292,39.043,71.308,39.033z"/>
	<path fill="#DEE2DE" d="M61.814,42.422c-0.014,0.153-0.047,0.303-0.104,0.439l0.524,0.268l0.138,0.07l1.258-0.639
		c-0.016-0.045-0.028-0.091-0.034-0.139H61.814L61.814,42.422z"/>
	<path fill="#DEE2DE" d="M72.759,43.75L72.66,43.81l0.068,0.02C72.737,43.801,72.748,43.776,72.759,43.75z"/>
	<path fill="#DEE2DE" d="M67.243,41.469l-0.265-1.34l-0.361,1.476c0.01,0.005,0.023,0.01,0.037,0.016L67.243,41.469z"/>
	<path fill="#DEE2DE" d="M63.725,42.753l-1.115,0.568l4.331,2.197c0.051-0.088,0.109-0.169,0.177-0.245l-2.309-2.344
		c-0.13,0.095-0.285,0.154-0.458,0.154C64.091,43.083,63.864,42.951,63.725,42.753L63.725,42.753z"/>
	<path fill="#DEE2DE" d="M69.143,34.908c-0.053,0.066-0.109,0.125-0.174,0.177l2.515,3.83c0.232-0.131,0.5-0.208,0.786-0.208
		c0.069,0,0.139,0.007,0.204,0.015l0.313-1.593L69.143,34.908z"/>
	<polygon fill="#DEE2DE" points="70.482,40.65 67.579,37.707 67.103,39.642 67.453,41.417 	"/>
	<polygon fill="#DEE2DE" points="69.942,43.341 67.72,42.776 67.741,42.894 	"/>
	<polygon fill="#DEE2DE" points="67.496,41.631 67.529,41.801 67.57,41.79 67.568,41.785 69.645,41.082 67.495,41.627 	"/>
	<path fill="#DEE2DE" d="M67.04,42.605c-0.019,0.047-0.043,0.092-0.069,0.132l0.545,0.11l-0.024-0.129L67.04,42.605z"/>
	<path fill="#DEE2DE" d="M67.285,41.68l-0.403,0.103c0.053,0.056,0.097,0.119,0.131,0.19l0.311-0.108L67.285,41.68z"/>
	<path fill="#DEE2DE" d="M67.097,42.294c0,0.006,0.002,0.012,0.002,0.021c0,0.028-0.007,0.055-0.009,0.082l0.356,0.091l-0.049-0.244
		L67.097,42.294z"/>
	<path fill="#DEE2DE" d="M30.008,25.686l2.115-0.715l-0.505-1.544l-1.85,1.878C29.867,25.417,29.949,25.546,30.008,25.686z"/>
	<path fill="#DEE2DE" d="M36.21,23.315l1.651-0.84c-0.014-0.047-0.026-0.093-0.034-0.144h-0.191l-1.446,0.976L36.21,23.315z"/>
	<polygon fill="#DEE2DE" points="36.657,22.331 35.819,23.182 35.939,23.223 37.255,22.331 	"/>
	<polygon fill="#DEE2DE" points="37.697,22.033 37.139,21.845 36.867,22.118 37.569,22.118 	"/>
	<path fill="#DEE2DE" d="M37.603,21.373l-0.299,0.301l0.599,0.205c0.022-0.045,0.046-0.087,0.076-0.126L37.603,21.373z"/>
	<polygon fill="#DEE2DE" points="35.624,21.331 35.282,21.447 35.673,21.349 	"/>
	<polygon fill="#DEE2DE" points="34.222,22.117 36.572,22.117 36.914,21.769 36.044,21.475 34.183,21.946 	"/>
	<polygon fill="#DEE2DE" points="34.101,21.624 35.293,21.22 33.883,20.744 	"/>
	<path fill="#DEE2DE" d="M37.008,26.716l0.674-2.062l-2.332,0.79l0.661,1.341c0.184-0.077,0.388-0.12,0.603-0.12
		C36.749,26.665,36.882,26.684,37.008,26.716z"/>
	<path fill="#DEE2DE" d="M36.225,23.544l-0.617,0.314c0.035,0.083,0.053,0.175,0.063,0.269h2.157
		c0.001-0.012,0.001-0.025,0.005-0.038L36.225,23.544z"/>
	<polygon fill="#DEE2DE" points="37.371,21.138 36.425,21.379 37.08,21.6 37.455,21.22 	"/>
	<polygon fill="#DEE2DE" points="35.463,23.543 35.716,23.372 35.652,23.35 	"/>
	<polygon fill="#DEE2DE" points="36.051,21.254 37.2,20.962 37.078,20.841 35.958,21.22 	"/>
	<path fill="#DEE2DE" d="M37.217,26.786l0.941-1.911c-0.098-0.065-0.18-0.157-0.239-0.261l-0.711,2.169
		C37.211,26.783,37.217,26.785,37.217,26.786z"/>
	<path fill="#DEE2DE" d="M50.6,47.306c0.325,0.035,0.606,0.211,0.774,0.473l2.103-1.071c-0.044-0.118-0.071-0.243-0.071-0.376
		c0-0.252,0.093-0.48,0.244-0.661l-2.693-2.735c-0.103,0.076-0.225,0.127-0.356,0.144V47.306z"/>
	<polygon fill="#DEE2DE" points="33.92,22.538 34.123,22.608 34.055,22.331 33.814,22.331 	"/>
	<path fill="#DEE2DE" d="M37.41,29.623l0.64,1.306l0,0c0.17-0.067,0.353-0.105,0.543-0.105c0.763,0,1.384,0.592,1.44,1.338H43.5
		c0.055-0.526,0.496-0.938,1.038-0.939c0.246,0,0.473,0.089,0.654,0.234l0.001,0.002l0.722-0.735
		c-0.099-0.128-0.16-0.288-0.16-0.462c0-0.017,0.004-0.029,0.004-0.046l-7.617-1.543C38.031,29.075,37.766,29.417,37.41,29.623z"/>
	<path fill="#DEE2DE" d="M38.247,33.671l-0.707,2.148l0.363,0.122c0.11-0.224,0.325-0.384,0.583-0.419v-1.812
		C38.403,33.703,38.324,33.691,38.247,33.671z"/>
	<path fill="#DEE2DE" d="M43.214,45.991l0.002,0.001l0.896-2.719c-0.083-0.037-0.158-0.085-0.226-0.144l-1.21,1.226l0.188,0.571l0,0
		L43.214,45.991z"/>
	<path fill="#DEE2DE" d="M35.254,25.251l2.514-0.851l0.018-0.06H35.67c-0.033,0.327-0.215,0.61-0.479,0.776L35.254,25.251z"/>
	<path fill="#DEE2DE" d="M38.133,36.907l-0.563,0.568l0.458,0.309c0.119-0.131,0.279-0.218,0.459-0.243v-0.49
		C38.356,37.035,38.235,36.984,38.133,36.907z"/>
	<path fill="#DEE2DE" d="M37.974,23.771l0.28-0.853c-0.118-0.059-0.22-0.146-0.294-0.251l-1.467,0.743l1.411,0.477
		C37.923,23.846,37.946,23.807,37.974,23.771z"/>
	<polygon fill="#DEE2DE" points="33.709,22.118 34.005,22.118 33.977,21.999 33.688,22.073 	"/>
	<polygon fill="#DEE2DE" points="36.57,20.322 33.78,20.322 33.824,20.5 35.624,21.108 36.912,20.671 	"/>
	<path fill="#DEE2DE" d="M37.911,20.559l-0.606,0.205l0.134,0.137l0.441-0.111l0.11-0.111
		C37.959,20.642,37.933,20.602,37.911,20.559z"/>
	<path fill="#DEE2DE" d="M37.839,20.323h-0.973l0.272,0.272l0.702-0.239C37.839,20.346,37.839,20.334,37.839,20.323z"/>
	<path fill="#DEE2DE" d="M37.392,37.354l0.585-0.596c-0.099-0.132-0.159-0.294-0.159-0.471c0-0.051,0.005-0.098,0.015-0.145
		l-0.361-0.121l-0.374,1.135L37.392,37.354z"/>
	<path fill="#DEE2DE" d="M47.759,30.157v-0.004c0.047-0.338,0.312-0.603,0.652-0.65v-1.251v-1.244
		c-0.051-0.007-0.094-0.018-0.137-0.032l-0.978,1.974l-0.193-0.094l-0.204-0.065l0.838-2.539c0-0.004,0-0.006,0-0.008
		c0-0.175,0.06-0.333,0.156-0.462l0.282-0.851c-0.153-0.074-0.276-0.198-0.354-0.349l-9.672,3.268
		c0.033,0.13,0.053,0.264,0.053,0.405c0,0.072-0.005,0.14-0.016,0.21l7.616,1.543c0.106-0.296,0.385-0.511,0.723-0.511
		c0.045,0,0.09,0.006,0.136,0.013l0.239-0.718l0.204,0.066l0.193,0.094l-0.338,0.678c0.178,0.119,0.298,0.309,0.329,0.528H47.759z"
		/>
	<path fill="#DEE2DE" d="M49.27,30.153h0.468v0.002c0.033-0.221,0.152-0.41,0.327-0.529l-1.309-2.651
		c-0.041,0.015-0.087,0.026-0.133,0.032v1.244v1.251C48.96,29.55,49.223,29.816,49.27,30.153z"/>
	<path fill="#DEE2DE" d="M47.84,26.622l-0.739,2.233l0.976-1.972C47.979,26.819,47.898,26.727,47.84,26.622z"/>
	<path fill="#DEE2DE" d="M53.199,33.05c0.069,0.04,0.135,0.088,0.198,0.14l0,0l1.43-1.452l-0.15-0.456
		c-0.071,0.015-0.146,0.023-0.223,0.023c-0.129,0-0.249-0.026-0.362-0.068L53.199,33.05z"/>
	<path fill="#DEE2DE" d="M45.911,31.693l-0.094-0.187l1.354-0.683l-0.074-0.05c-0.141,0.156-0.345,0.256-0.571,0.256
		c-0.176,0-0.333-0.061-0.46-0.154l-0.721,0.732l0,0c0.024,0.031,0.054,0.063,0.072,0.097l0.397-0.201L45.911,31.693L45.911,31.693z
		"/>
	<path fill="#DEE2DE" d="M49.271,30.366c-0.01,0.077-0.03,0.149-0.062,0.218l0.534-0.182c-0.003-0.012-0.003-0.025-0.005-0.035
		v-0.001H49.271z"/>
	<path fill="#DEE2DE" d="M54.995,47.64l0.002,0.002l0.831-0.844c-0.078-0.101-0.131-0.222-0.149-0.357v-0.002H55.49
		c-0.042,0.38-0.278,0.698-0.609,0.847L54.995,47.64z"/>
	<path fill="#DEE2DE" d="M51.945,49.456l-0.62-0.419l0.497,0.507C51.862,49.512,51.903,49.48,51.945,49.456z"/>
	<path fill="#DEE2DE" d="M53.008,32.954l0.895-1.81h-0.001c-0.266-0.166-0.448-0.449-0.484-0.777h-2.166
		c-0.03,0.217-0.153,0.404-0.325,0.524l1.017,2.063c0.166-0.066,0.346-0.104,0.532-0.104C52.664,32.85,52.843,32.888,53.008,32.954z
		"/>
	<path fill="#DEE2DE" d="M33.578,22.332H33.42c0,0.012,0,0.025-0.003,0.038l0.217,0.074L33.578,22.332z"/>
	<path fill="#DEE2DE" d="M54.452,45.284c0.321,0,0.608,0.149,0.797,0.379l1.076-0.729v-0.141v-0.002v-3.044
		c-0.55-0.041-1.021-0.392-1.226-0.879v-0.001l-3.845,1.303c0.01,0.047,0.017,0.094,0.017,0.146c0,0.177-0.062,0.338-0.164,0.471
		l0,0l2.693,2.732C53.982,45.375,54.205,45.284,54.452,45.284z"/>
	<polygon fill="#DEE2DE" points="47.613,31.12 47.466,31.025 47.467,31.023 47.372,30.959 45.931,31.687 	"/>
	<path fill="#DEE2DE" d="M54.993,40.413h-3.732v0.003c-0.049,0.342-0.317,0.61-0.661,0.659v0.475
		c0.258,0.035,0.473,0.196,0.586,0.42l3.85-1.302C55.014,40.584,54.998,40.498,54.993,40.413L54.993,40.413z"/>
	<path fill="#DEE2DE" d="M49.46,18.313h-0.837v5.154c0.009,0.002,0.022,0.002,0.03,0.004l1.414-4.311
		C49.735,19.012,49.498,18.692,49.46,18.313z"/>
	<path fill="#DEE2DE" d="M38.133,21.604c0.102-0.076,0.223-0.127,0.354-0.145v-0.489c-0.075-0.012-0.147-0.031-0.214-0.062
		l-0.283,0.072l-0.236,0.239L38.133,21.604z"/>
	<path fill="#DEE2DE" d="M49.275,26.884l-0.186-0.125c-0.041,0.047-0.087,0.092-0.14,0.125l0.971,1.972L49.275,26.884z"/>
	<path fill="#DEE2DE" d="M38.486,22.99c-0.011-0.002-0.021-0.002-0.031-0.004l-0.176,0.539c0.064-0.028,0.134-0.047,0.207-0.058
		V22.99z"/>
	<path fill="#DEE2DE" d="M33.645,20.663l-0.309-0.104c-0.059,0.115-0.145,0.218-0.251,0.29l0.475,0.958l0.34-0.115L33.645,20.663z"
		/>
	<path fill="#DEE2DE" d="M33.412,20.322c-0.003,0.012-0.003,0.023-0.004,0.034l0.178,0.062l-0.022-0.096H33.412z"/>
	<path fill="#DEE2DE" d="M51.475,18.564c-0.04,0.113-0.101,0.215-0.177,0.304l2.122,2.154c0.159-0.138,0.347-0.245,0.554-0.31
		l-0.398-1.616L51.475,18.564z"/>
	<path fill="#DEE2DE" d="M52.871,22.224c0-0.403,0.15-0.771,0.399-1.05l-2.122-2.154c-0.181,0.143-0.402,0.232-0.653,0.232
		c-0.076,0-0.151-0.008-0.223-0.023l-1.418,4.312c0.154,0.074,0.274,0.196,0.353,0.347l3.716-1.256
		C52.888,22.5,52.87,22.365,52.871,22.224z"/>
	<path fill="#DEE2DE" d="M49.11,25.708l0.003,0l3.973-2.687c-0.037-0.062-0.069-0.124-0.096-0.189l-3.715,1.256
		c0.011,0.046,0.016,0.093,0.016,0.145c0,0.304-0.177,0.566-0.437,0.695l0,0L49.11,25.708z"/>
	<path fill="#DEE2DE" d="M48.377,24.999h-0.002l-0.179,0.536c0.067-0.03,0.136-0.046,0.213-0.057V25
		C48.398,25,48.385,25,48.377,24.999z"/>
	<path fill="#DEE2DE" d="M50.494,29.493c0.388,0,0.704,0.287,0.757,0.66v0.002h2.165c0.017-0.139,0.058-0.27,0.12-0.386
		l-3.972-2.687l0.796,2.423C50.407,29.499,50.449,29.493,50.494,29.493z"/>
	<path fill="#DEE2DE" d="M48.623,25v0.478c0.072,0.011,0.142,0.027,0.209,0.057l-0.179-0.539C48.646,24.998,48.632,24.998,48.623,25
		z"/>
	<path fill="#DEE2DE" d="M21.88,51.793c0.023-0.036,0.049-0.064,0.076-0.098l-0.496-0.5l0.38,0.581L21.88,51.793z"/>
	<path fill="#DEE2DE" d="M15.966,42.421h-0.374c-0.001,0.034-0.008,0.065-0.016,0.1L15.966,42.421z"/>
	<path fill="#DEE2DE" d="M16.064,42.208c0.001-0.012,0.001-0.025,0.002-0.036l-0.533-0.181c0.031,0.068,0.05,0.14,0.061,0.216
		H16.064z"/>
	<path fill="#DEE2DE" d="M23.662,45.245l0.649-1.975c-0.083-0.037-0.158-0.085-0.225-0.145L21.58,45.67
		c0.059,0.069,0.109,0.145,0.147,0.228L23.662,45.245z"/>
	<path fill="#DEE2DE" d="M19.949,45.642l-2.674-2.715c-0.128,0.096-0.285,0.155-0.456,0.155c-0.084,0-0.162-0.017-0.239-0.042
		l-0.12,0.245L19.949,45.642z"/>
	<path fill="#DEE2DE" d="M16.188,43.357l-0.782-0.53c-0.119,0.13-0.277,0.219-0.458,0.245v1.824c0.15,0.01,0.297,0.043,0.433,0.1
		L16.188,43.357z"/>
	<path fill="#DEE2DE" d="M14.108,47.579c-0.143-0.085-0.271-0.192-0.376-0.32l-0.389,1.573c0.042,0.014,0.086,0.027,0.125,0.047
		L14.108,47.579z"/>
	<path fill="#DEE2DE" d="M16.281,43.163l0.107-0.216c-0.125-0.083-0.223-0.203-0.28-0.343l-0.474,0.119L16.281,43.163z"/>
	<path fill="#DEE2DE" d="M14.214,41.875c0.053-0.075,0.119-0.142,0.196-0.195l-0.042-0.083l-2.111-0.712L14.214,41.875z"/>
	<path fill="#DEE2DE" d="M14.158,42.658l-1.314,0.443l0.063,0.095l1.381-0.349C14.236,42.792,14.192,42.725,14.158,42.658z"/>
	<path fill="#DEE2DE" d="M14.288,44.995c0.138-0.056,0.287-0.092,0.445-0.102v-1.702L14.288,44.995z"/>
	<path fill="#DEE2DE" d="M14.074,44.975l0.48-1.952c-0.012-0.004-0.024-0.011-0.035-0.015l-1.491,0.377L14.074,44.975z"/>
	<path fill="#DEE2DE" d="M15.774,47.433c-0.254,0.217-0.579,0.347-0.936,0.347c-0.189,0-0.374-0.038-0.54-0.107l-0.64,1.3
		c0.235,0.136,0.434,0.334,0.576,0.566l2.406-1.223L15.774,47.433z"/>
	<path fill="#DEE2DE" d="M21.43,45.518l2.502-2.543c-0.127-0.154-0.211-0.343-0.231-0.554h-6.128
		c-0.019,0.132-0.069,0.253-0.148,0.355l2.703,2.742c0.177-0.143,0.403-0.234,0.651-0.234C21.024,45.284,21.249,45.375,21.43,45.518
		z"/>
	<path fill="#DEE2DE" d="M24.009,29.54l-0.12-0.177L24.009,29.54c0.107,0.182,0.171,0.392,0.188,0.614v0.001h3.732
		c0.049-0.344,0.317-0.61,0.66-0.661v-1.831c-0.41-0.029-0.771-0.234-1.01-0.536L24.009,29.54z"/>
	<path fill="#DEE2DE" d="M32.55,25.206v-0.153l-0.156,0.053l0.037,0.117c0.04-0.009,0.077-0.01,0.119-0.015h0.212
		c0.205,0.021,0.391,0.1,0.544,0.224l0.153,0.149c0.057,0.07,0.106,0.145,0.146,0.229l1.043-0.353l-0.12-0.188
		c-0.205-0.021-0.391-0.1-0.545-0.221l-0.524,0.533l-0.153-0.15l0.528-0.534c-0.061-0.071-0.11-0.144-0.148-0.228l-0.924,0.312
		v0.227H32.55z"/>
	<path fill="#DEE2DE" d="M24.197,30.366c-0.006,0.087-0.019,0.173-0.041,0.253l2.392,0.812l0,0l0.152,0.052l1.3-0.882
		c-0.035-0.072-0.057-0.151-0.071-0.234H24.197L24.197,30.366z"/>
	<path fill="#DEE2DE" d="M52.111,51.328l-0.824,1.671c0.301,0.173,0.536,0.439,0.67,0.763l0.059,0.168l-0.058-0.168l2.943-0.994
		c-0.034-0.131-0.054-0.267-0.054-0.404c0-0.22,0.045-0.432,0.126-0.625l-1.62-0.816l0.096-0.189l1.521,0.767l-1.466-0.983
		l0.12-0.176l1.56,1.05c0.171-0.219,0.396-0.39,0.656-0.494l-0.936-2.854l0.201-0.065l0.937,2.854
		c0.094-0.023,0.188-0.039,0.287-0.048V47.09c-0.131-0.019-0.25-0.068-0.349-0.142l-0.834,0.844l-0.002-0.001l-0.076,0.078
		l0.035,0.105l-0.199,0.066l-1.627,1.651V49.69c0.127,0.158,0.212,0.354,0.232,0.569l0.113,0.076l-0.12,0.178
		c-0.01,0.072-0.029,0.147-0.055,0.218l-0.096,0.188c-0.188,0.286-0.512,0.478-0.88,0.478
		C52.346,51.397,52.226,51.371,52.111,51.328z"/>
	<path fill="#DEE2DE" d="M28.121,30.778l-1.165,0.79l1.051,0.356c0.11-0.224,0.327-0.384,0.583-0.418v-0.48
		C28.404,31,28.242,30.911,28.121,30.778z"/>
	<path fill="#DEE2DE" d="M31.89,22.332h-0.408l-0.2,0.065l0.201-0.064l0.23,0.698l0.152,0.149l-0.076,0.079l0.54,1.646l0.154-0.052
		l0.068,0.201V25.05l-0.068-0.2l0.068-0.023V22.99c-0.132-0.019-0.254-0.07-0.356-0.146l-0.33,0.333l-0.15-0.149l0.328-0.334
		C31.961,22.589,31.907,22.466,31.89,22.332L31.89,22.332z"/>
	<path fill="#DEE2DE" d="M29.426,32.52l1.866,0.948c0.054-0.087,0.11-0.167,0.176-0.242l-1.427-1.445l0,0l-0.048-0.05l-0.57,0.288
		c0.029,0.081,0.048,0.165,0.048,0.252C29.472,32.358,29.453,32.44,29.426,32.52z"/>
	<path fill="#DEE2DE" d="M31.622,35.478l-6.078,6.171l0.004,0.004c0.149,0.181,0.241,0.41,0.241,0.663
		c0,0.18-0.048,0.345-0.126,0.492l0.65,0.441l-0.001,0.002l0.11,0.074c0.097-0.028,0.193-0.047,0.296-0.047
		c0.54,0,0.983,0.414,1.036,0.938h5.846c0.054-0.525,0.497-0.938,1.036-0.938c0.076,0,0.151,0.008,0.224,0.026l0.054-0.169
		l1.58-4.809l-0.075-0.08l0.15-0.148l0,0l-0.149,0.147l-2.73-2.768c-0.276,0.241-0.637,0.385-1.034,0.385
		C32.26,35.863,31.9,35.718,31.622,35.478z"/>
	<path fill="#DEE2DE" d="M30.195,31.631l1.426,1.446c0.279-0.238,0.637-0.384,1.034-0.384c0.284,0,0.55,0.076,0.78,0.206h0.001
		l2.223-3.384c-0.163-0.123-0.301-0.276-0.404-0.45L30.195,31.631L30.195,31.631z"/>
	<path fill="#DEE2DE" d="M29.16,30.881c-0.102,0.078-0.226,0.128-0.357,0.145v0.479c0.081,0.011,0.154,0.034,0.226,0.065
		l0.298-0.455l0.177,0.118l-0.298,0.458c0.048,0.04,0.09,0.085,0.127,0.138l0.506-0.259l-0.335-0.338l-0.177-0.118l0.024-0.036
		L29.16,30.881z"/>
	<path fill="#DEE2DE" d="M28.8,27.665v1.83c0.132,0.019,0.255,0.07,0.357,0.147l2.696-2.736c-0.128-0.156-0.211-0.345-0.234-0.556
		h-1.5C30.063,27.05,29.503,27.61,28.8,27.665z"/>
	<path fill="#DEE2DE" d="M25.394,43.128c-0.181,0.145-0.405,0.234-0.65,0.234c-0.079,0-0.154-0.009-0.225-0.027l-0.6,1.826
		l1.78-0.602l-0.001-0.003c-0.014-0.075-0.028-0.152-0.028-0.234c0-0.25,0.094-0.48,0.244-0.661l-0.5-0.509l0.003-0.002
		L25.394,43.128z"/>
	<path fill="#DEE2DE" d="M19.668,57.264c0.094,0.07,0.174,0.152,0.246,0.242l0.07,0.1l-0.066-0.096l2.734-1.852v-2.256
		c-0.133-0.016-0.257-0.055-0.374-0.113L19.668,57.264z"/>
	<path fill="#DEE2DE" d="M28.67,74.279l1.368,1.39c0.008-0.009,0.017-0.018,0.026-0.024l-1.075-1.816L28.67,74.279z"/>
	<polygon fill="#DEE2DE" points="29.286,73.404 30.104,75.064 29.471,73.144 	"/>
	<path fill="#DEE2DE" d="M29.718,76.837c-0.045-0.112-0.069-0.238-0.069-0.366c0-0.251,0.092-0.474,0.238-0.653l-1.34-1.36
		l-3.254,4.626L29.718,76.837z"/>
	<path fill="#DEE2DE" d="M29.624,72.924l0.835,2.539c0.07-0.014,0.143-0.026,0.217-0.026c0.05,0,0.093,0.009,0.14,0.016l1.451-5.884
		c-0.076-0.023-0.146-0.056-0.213-0.095L29.624,72.924z"/>
	<path fill="#DEE2DE" d="M24.729,78.255l-1.402,1.708c0.022,0.027,0.046,0.053,0.067,0.083l0.604-0.307L24.729,78.255z"/>
	<path fill="#DEE2DE" d="M25.029,79.454l-1.743,2.476c0.004,0.006,0.01,0.01,0.02,0.016l6.37-4.85L25.029,79.454z"/>
	<path fill="#DEE2DE" d="M23.46,80.815c-0.079,0.164-0.213,0.3-0.382,0.377l-0.09,0.566c0.003,0.002,0.01,0.004,0.014,0.004
		l0.466-0.946l0.375-0.761l-0.353,0.181c0.026,0.08,0.044,0.166,0.044,0.251C23.533,80.603,23.507,80.715,23.46,80.815z"/>
	<path fill="#DEE2DE" d="M25.407,55.993l2.29-0.93l2.385-7.26c-0.431-0.175-0.766-0.533-0.913-0.978l-4.076,1.037l-1.429,2.903
		L24.6,53.61l-0.203,0.065l-0.867-2.633l-0.215,0.436c0.296,0.183,0.49,0.513,0.49,0.884c0,0.256-0.092,0.485-0.243,0.667l0,0
		l0.714,0.722c0.038-0.026,0.077-0.051,0.12-0.071v-0.004l0.202-0.065c0.047-0.009,0.089-0.016,0.139-0.016
		c0.428,0,0.776,0.349,0.776,0.776c0,0.393-0.292,0.712-0.671,0.765v0.48c0.244,0.033,0.448,0.175,0.563,0.377H25.407L25.407,55.993
		z"/>
	<path fill="#DEE2DE" d="M30.281,47.87l-2.328,7.09l5.94-2.413c-0.014-0.061-0.024-0.121-0.024-0.186
		c0-0.229,0.099-0.432,0.26-0.573l-2.675-4.075c-0.232,0.133-0.497,0.209-0.781,0.209C30.538,47.922,30.407,47.901,30.281,47.87z"/>
	<path fill="#DEE2DE" d="M26.835,57.691l0.143-0.442l-1.55-0.522c-0.127,0.252-0.387,0.43-0.689,0.43
		c-0.051,0-0.094-0.007-0.139-0.016l-0.303,0.918L26.835,57.691z"/>
	<path fill="#DEE2DE" d="M31.892,67.503c0.21-0.171,0.474-0.275,0.764-0.275c0.154,0,0.298,0.031,0.432,0.083l2.972-6.031
		c-0.293-0.185-0.492-0.513-0.492-0.883c0-0.079,0.01-0.157,0.027-0.231l-7.304-2.471l-1.295,0.188l-1.147,3.491L31.892,67.503z"/>
	<polygon fill="#DEE2DE" points="27.069,57.656 27.846,57.543 27.181,57.318 	"/>
	<path fill="#DEE2DE" d="M24.357,71.814c-0.06-0.015-0.115-0.034-0.171-0.058l-0.302,2.461L24.357,71.814z"/>
	<path fill="#DEE2DE" d="M21.406,62.845c-0.004,0.007-0.014,0.017-0.021,0.024l0.692,0.703l-0.384-0.581L21.406,62.845z"/>
	<path fill="#DEE2DE" d="M21.84,62.828l0.81,0.409v-0.076c-0.333-0.046-0.599-0.311-0.648-0.649h-0.365L21.84,62.828z"/>
	<path fill="#DEE2DE" d="M21.636,60.906l0.977-1.484c-0.075-0.011-0.148-0.03-0.219-0.055L21.636,60.906z"/>
	<path fill="#DEE2DE" d="M22.651,61.65v-1.901l-0.946,1.438l0.031,0.032l-0.15,0.151l-0.304,0.463
		c0.133,0.119,0.226,0.281,0.251,0.465h0.103h0.365c0.02-0.131,0.071-0.252,0.148-0.356l-0.563-0.571l0.15-0.15l0.565,0.571
		C22.4,61.718,22.523,61.667,22.651,61.65L22.651,61.65z"/>
	<path fill="#DEE2DE" d="M23.772,22.628l-0.909-0.692v6.882c0.046,0.004,0.089,0.009,0.134,0.016l1.389-5.629
		C24.11,23.107,23.884,22.896,23.772,22.628z"/>
	<path fill="#DEE2DE" d="M24.612,71.862l-1.201,7.312l3.666-6.205l-1.421-1.44c-0.244,0.213-0.568,0.341-0.917,0.341
		C24.695,71.869,24.652,71.865,24.612,71.862z"/>
	<path fill="#DEE2DE" d="M22.074,63.184l0.357,0.542c0.07-0.033,0.142-0.055,0.218-0.064v-0.184L22.074,63.184z"/>
	<path fill="#DEE2DE" d="M12.862,51.954c-0.216,0-0.421-0.045-0.61-0.123l-0.003-0.001l-0.569,1.158
		c0.234,0.137,0.431,0.331,0.572,0.565l5.819-2.949l0.097,0.188l-4.982,2.528l0.081,0.195l-0.87,0.354
		c0.014,0.042,0.026,0.087,0.037,0.129l0.037,0.21c0.006,0.054,0.008,0.108,0.008,0.162c0,0.222-0.043,0.436-0.126,0.626
		l5.225,2.654v-0.001c0.251-0.412,0.706-0.691,1.22-0.691c0.251,0,0.488,0.067,0.692,0.184l0.004,0.002l2.609-3.974
		c-0.167-0.133-0.289-0.316-0.35-0.527l-9.281,1.567l-0.036-0.209l9.252-1.568l-2.16-1.455l-6.26,2.537l-0.081-0.195l5.457-2.217
		c-0.194-0.04-0.362-0.155-0.473-0.312l-0.096-0.188l0.001-0.002c-0.015-0.045-0.026-0.089-0.033-0.14h-3.59
		C14.402,51.291,13.708,51.954,12.862,51.954z"/>
	<polygon fill="#DEE2DE" points="23.507,77.26 23.547,77.029 23.522,77.157 	"/>
	<path fill="#DEE2DE" d="M22.95,63.628l-0.086-0.043v0.075c0.035,0.003,0.067,0.011,0.098,0.021L22.95,63.628z"/>
	<path fill="#DEE2DE" d="M23.612,65.434l0.736,2.986l0.177-1.253c-0.324-0.094-0.564-0.388-0.564-0.742
		c0-0.178,0.061-0.341,0.164-0.471L23.612,65.434z"/>
	<path fill="#DEE2DE" d="M23.211,65.029c-0.037,0.026-0.074,0.051-0.118,0.07l0.87,2.643l-0.641-2.604L23.211,65.029z"/>
	<path fill="#DEE2DE" d="M11.9,32.036c0.015,0.077,0.026,0.154,0.026,0.232c0,0.054-0.005,0.103-0.017,0.153l0.279,0.071l0.47-0.239
		l0.096,0.189v-0.004l-0.096-0.189l0.096-0.049v-0.456l-0.856,0.288L11.9,32.036z"/>
	<path fill="#DEE2DE" d="M21.36,34.172l0.189-0.581l-1.154-0.781l-0.028,0.028L19.6,33.615c0.129,0.154,0.214,0.346,0.235,0.556
		v0.001H21.36z"/>
	<polygon fill="#DEE2DE" points="21.942,20.968 22.649,21.506 22.649,21.286 21.977,20.942 	"/>
	<path fill="#DEE2DE" d="M21.955,20.693l0.135-0.104c-0.043-0.083-0.075-0.17-0.089-0.266h-0.467
		c-0.007,0.047-0.019,0.094-0.034,0.141L21.955,20.693z"/>
	<path fill="#DEE2DE" d="M22.166,20.8l0.484,0.246V20.97c-0.167-0.023-0.317-0.098-0.431-0.211L22.166,20.8z"/>
	<path fill="#DEE2DE" d="M18.243,30.154h3.073c0.015-0.16,0.05-0.311,0.107-0.452l-3.558-1.805l-0.428,1.079l-0.097-0.039
		l0.098,0.04C17.885,29.194,18.2,29.635,18.243,30.154z"/>
	<path fill="#DEE2DE" d="M17.941,27.698l3.58,1.816c0.188-0.313,0.494-0.547,0.854-0.645l-1.41-7.155l-0.948,0.722L17.941,27.698z"
		/>
	<path fill="#DEE2DE" d="M21.152,21.57l1.431,7.256c0.022-0.003,0.044-0.004,0.066-0.007v-7.044l-0.883-0.672L21.152,21.57z"/>
	<path fill="#DEE2DE" d="M21.592,20.968l-0.277-0.209c-0.081,0.08-0.178,0.139-0.288,0.177l0.081,0.403L21.592,20.968z"/>
	<path fill="#DEE2DE" d="M16.162,25.368c0.166,0.251,0.264,0.552,0.264,0.875c0,0.219-0.045,0.43-0.128,0.62l1.457,0.737
		l1.937-4.917L16.162,25.368z"/>
	<path fill="#DEE2DE" d="M23.762,21.849l-0.899-0.455v0.276l0.836,0.636c-0.002-0.028-0.009-0.054-0.009-0.081
		C23.69,22.091,23.717,21.966,23.762,21.849z"/>
	<path fill="#DEE2DE" d="M20.169,22.051l0.749-0.57l-0.099-0.502c-0.015,0-0.026,0.002-0.042,0.002c-0.062,0-0.122-0.008-0.18-0.022
		L20.169,22.051z"/>
	<path fill="#DEE2DE" d="M19.84,22.301l0.559-1.422c-0.025-0.015-0.054-0.032-0.079-0.05l-4.297,4.363
		c0.002,0.001,0.006,0.006,0.008,0.008L19.84,22.301z"/>
	<path fill="#DEE2DE" d="M21.586,34.171h0.133c0.017-0.138,0.059-0.268,0.121-0.385l-0.105-0.069L21.586,34.171L21.586,34.171z"/>
	<path fill="#DEE2DE" d="M10.654,39.283c0.07-0.015,0.146-0.023,0.225-0.023c0.245,0,0.472,0.089,0.651,0.231l0.524-0.532
		c-0.15-0.182-0.244-0.412-0.244-0.665c0-0.05,0.008-0.099,0.014-0.151l-1.682-0.428l-0.001,0.001h-0.001L10.654,39.283z"/>
	<path fill="#DEE2DE" d="M10.515,41.283l-0.757,1.542l0,0l0.978-1.487C10.658,41.326,10.586,41.31,10.515,41.283z"/>
	<path fill="#DEE2DE" d="M12.179,39.14l-0.497,0.504c0.034,0.036,0.063,0.076,0.087,0.12L12.179,39.14z"/>
	<polygon fill="#DEE2DE" points="14.766,31.417 15.659,32.023 14.912,31.452 14.91,31.453 14.827,31.39 	"/>
	<path fill="#DEE2DE" d="M9.704,34.94l2.504,2.541c0.068-0.055,0.142-0.104,0.225-0.142l-1.328-4.049h-0.002
		c-0.009,0.003-0.022,0.004-0.035,0.007l-1.192,0.606c0.045,0.117,0.071,0.242,0.071,0.374C9.947,34.53,9.856,34.76,9.704,34.94z"/>
	<path fill="#DEE2DE" stroke="#DEE2DE" stroke-width="0.1" stroke-miterlimit="10" d="M2.052,44.463
		c0.607,1.409,2.391,2.335,3.133,3.765c0.346,0.665,0.466,1.436,0.627,2.194c0.557,2.603,1.624,5.006,3.132,7.204
		c1.397,2.031,3.172,3.886,5.61,4.616c1.66,0.493,3.624,0.464,4.717,1.472c0.846,0.782,1.171,2.187,1.472,3.538
		c0.565,2.53,1.054,4.876,1.18,7.075c0.168,2.915,0.017,4.173-0.867,8.035c-0.823,3.608-0.364,4.082,0.768,4.653
		c1.149,0.584,3.759,0.092,5.959-2.687c1.279-1.618,1.373-1.428,1.934-3.03c0.407-1.159,0.381-1.551,0.959-2.687
		c0.621-1.221,1.596-2.246,2.194-3.448c0.571-1.149,1.314-2.579,1.43-3.919c0.185-2.15-0.081-4.116,0.787-5.933
		c0.817-1.709,2.143-3.195,3.97-4.166c1.221-0.647,2.034-0.784,2.503-2.228c0.306-0.943-0.027-1.582,0.432-1.752
		c0.403-0.146,1.356,0.194,2.115,0.705c0.899,0.604,2.526,0.72,3.358,0.59c1.169-0.182,2.111-1.616,3.332-1.939
		c1.019-0.271,2.114-0.119,3.134-0.335c0.746-0.158,1.449-0.515,2.157-0.821c0.558-0.246,1.117-0.458,1.747-0.515
		c1.074-0.097,2.354,0.262,3.084-0.412c0.463-0.426,0.705-1.27,1.232-1.54c0.385-0.198,0.922-0.089,1.44,0
		c1.63,0.279,3.095,0.379,4.522,0c1.128-0.301,2.232-0.9,3.392-1.134c0.669-0.133,1.358-0.145,2.054-0.206
		c1.34-0.117,2.707-0.422,3.806-1.124c0.783-0.503,1.431-1.211,2.055-1.953c1.196-1.428,2.312-2.986,2.673-4.733
		c0.286-1.39,0.092-2.899-0.207-4.317c-0.131-0.622-0.282-1.225-0.41-1.85c-0.327-1.563-0.526-3.254-1.439-4.522
		c-0.604-0.838-1.52-1.492-2.056-2.365c-0.633-1.031-0.738-2.368-1.233-3.494c-0.619-1.414-1.855-2.494-3.289-3.29
		c-1.299-0.722-2.762-1.208-3.495-2.365c-0.279-0.439-0.452-0.977-0.719-1.439c-0.821-1.418-2.528-2.106-4.112-2.774
		c-2.566-1.083-4.812-2.116-7.195-3.598c-1.357-0.846-2.764-1.838-4.323-1.542c-0.647,0.123-1.261-0.007-1.818-0.162
		c-0.56-0.155-1.063-0.338-1.627-0.622c-0.513-0.257-1.127-0.207-1.724-0.157c-1.087,0.091-2.113,0.184-3.149,0.157
		c-0.936-0.024-1.884-0.146-2.829-0.157c-1.522-0.018-3.028,0.255-4.542,0.47c-1.214,0.172-2.432,0.306-3.602,0.627
		c-1.174,0.321-2.296,0.832-3.447,1.252c-0.621,0.228-1.249,0.43-1.881,0.627c-1.197,0.374-2.396,0.731-3.604,1.096
		c-1.71,0.52-3.427,1.058-5.012,1.88c-0.771,0.401-1.509,0.87-2.192,1.41c-1.363,1.082-2.5,2.451-3.915,3.447
		c-0.804,0.564-1.697,1.007-2.507,1.567c-1.274,0.881-2.344,2.052-3.29,3.29C8.066,27.454,7.683,28,7.22,28.487
		c-1.117,1.185-2.683,2.021-3.601,3.29c-1.237,1.711-1.298,4.213-1.408,6.423c-0.036,0.687-0.075,1.345-0.158,2.036
		C1.883,41.67,1.527,43.249,2.052,44.463z M3.353,36.079c0-0.875,0.714-1.586,1.586-1.586c0.316,0,0.609,0.092,0.854,0.251
		l4.385-5.931c-0.212-0.192-0.346-0.464-0.346-0.771c0-0.577,0.472-1.045,1.048-1.045c0.369,0,0.692,0.192,0.878,0.481v0l1.62-0.823
		c-0.081-0.189-0.127-0.4-0.127-0.619c0-0.875,0.714-1.589,1.588-1.589c0.395,0,0.755,0.146,1.034,0.385l4.296-4.362
		c-0.096-0.128-0.157-0.288-0.157-0.462c0-0.424,0.341-0.767,0.764-0.767c0.389,0,0.706,0.287,0.758,0.66h0.467
		c0.053-0.374,0.368-0.66,0.756-0.66c0.28,0,0.526,0.156,0.659,0.384l7.863-3.194c-0.045-0.139-0.071-0.288-0.071-0.443
		c0-0.797,0.647-1.446,1.446-1.446c0.713,0,1.303,0.517,1.424,1.194l17.35-1.758l0.022,0.213L34.097,15.95
		c0,0.013,0.001,0.025,0.001,0.039c0,0.198-0.04,0.386-0.113,0.558l5.458,2.77l-0.046,0.093l0.047-0.094l0.139,0.07l1.995-1.013
		c-0.045-0.116-0.072-0.242-0.072-0.375c0-0.577,0.47-1.047,1.047-1.047c0.404,0,0.747,0.228,0.924,0.558l2.363-0.958l0,0
		l1.632-0.657c0.053-0.533,0.498-0.95,1.044-0.95c0.256,0,0.493,0.098,0.678,0.253l0.073-0.03l0,0l2.207-0.896
		c-0.006-0.026-0.02-0.05-0.023-0.079l-0.021-0.213c0-0.578,0.469-1.046,1.045-1.046c0.579,0,1.049,0.468,1.049,1.047
		c0,0.251-0.094,0.481-0.244,0.663l2.505,2.542c0.18-0.145,0.403-0.234,0.65-0.234c0.578,0,1.047,0.47,1.047,1.047
		c0,0.254-0.094,0.482-0.243,0.663l-0.15,0.15c-0.152,0.123-0.342,0.201-0.546,0.222v0.39l0.052,0.013v0.001l0.844,0.213
		c0.041-0.113,0.1-0.213,0.176-0.305l-0.526-0.533l0.15-0.151l0.527,0.535c0.177-0.145,0.401-0.234,0.649-0.233
		c0.577,0,1.046,0.468,1.046,1.047c0,0.25-0.093,0.48-0.242,0.661l2.503,2.542c0.182-0.145,0.404-0.234,0.653-0.234
		c0.576,0,1.045,0.471,1.045,1.048c0,0.078-0.008,0.159-0.026,0.231l3.442,1.165c0.24-0.579,0.812-0.988,1.479-0.988
		c0.881,0,1.599,0.718,1.599,1.602c0,0.292-0.082,0.567-0.221,0.805l-0.118,0.174l0.12-0.174l3.76,2.543
		c0.192-0.229,0.477-0.378,0.799-0.378c0.577,0,1.048,0.47,1.048,1.047c0,0.403-0.232,0.75-0.569,0.924l2.853,7.236
		c0.199-0.067,0.409-0.103,0.629-0.103c1.094,0,1.986,0.891,1.986,1.987s-0.893,1.987-1.986,1.987c-0.507,0-0.966-0.19-1.315-0.5
		l-1.449,1.472l-0.004-0.004l0.005,0.005c0.253,0.283,0.408,0.654,0.408,1.061c0,0.884-0.721,1.602-1.603,1.602
		c-0.665,0-1.236-0.41-1.478-0.989l-2.917,0.989l-0.065-0.204l2.915-0.988c-0.035-0.132-0.055-0.267-0.055-0.411
		c0-0.074,0.008-0.143,0.016-0.214l-0.375-0.074l-2.561,1.559l-0.114-0.182l0.112,0.18c0.021,0.042,0.041,0.083,0.06,0.128
		l0.066,0.202c0.035,0.129,0.055,0.267,0.055,0.408c0,0.883-0.718,1.603-1.599,1.603c-0.578,0-1.083-0.311-1.363-0.772h-0.002
		l-0.098-0.188c-0.088-0.197-0.137-0.415-0.137-0.643c0-0.22,0.046-0.434,0.129-0.625l-4.467-2.267l-5.215,2.644l-0.097-0.189
		l5.077-2.575l-0.529-0.267c-0.252,0.414-0.703,0.689-1.219,0.689c-0.35,0-0.671-0.13-0.918-0.34l-2.432,2.466
		c0.005,0.011,0.012,0.017,0.021,0.025l0.097,0.19l-0.001,0.002c0.024,0.078,0.043,0.16,0.043,0.247
		c0,0.386-0.289,0.704-0.659,0.757v3.693c0.576,0.04,1.068,0.386,1.314,0.875l8.992-4.682l0.098,0.188l-9.01,4.691
		c0.055,0.16,0.084,0.329,0.084,0.506c0,0.878-0.71,1.587-1.584,1.587c-0.661,0-1.228-0.404-1.466-0.978l-2.943,0.994
		c0.034,0.13,0.053,0.265,0.053,0.404c0,0.877-0.711,1.588-1.587,1.588c-0.576,0-1.083-0.312-1.359-0.776h-0.004l-0.096-0.19
		c-0.079-0.188-0.126-0.398-0.126-0.619c0-0.091,0.008-0.183,0.024-0.272l-1.216,1.231c0.065,0.076,0.125,0.155,0.177,0.241
		l1.141-0.579l0.096,0.189l-1.14,0.579c0.081,0.188,0.129,0.398,0.129,0.619c0,0.876-0.714,1.586-1.598,1.586
		c-0.84,0-1.529-0.654-1.584-1.479h-6.925l-0.973,2.956l-0.202-0.063l0.948-2.893v-0.214h0.071l0.309-0.939l0.135,0.042
		l-0.137-0.045l-0.061,0.048l-0.599,0.461c0.079,0.129,0.127,0.276,0.145,0.434h0.136v0.212H37.65
		c-0.051,0.492-0.438,0.88-0.93,0.931v1.947h-0.212v-1.947c-0.222-0.026-0.422-0.113-0.582-0.254l-0.204,0.051l-0.145-0.575
		l-0.021,0.001l-0.031-0.209l-0.091-0.375l0.102-0.025l-0.104,0.025l-0.722-2.934c-0.024,0.005-0.051,0.01-0.077,0.01
		c-0.283,0-0.529-0.157-0.659-0.385l-6.108,2.478l-0.057,0.173l-0.2-0.066l-2.122,0.859v0.002c0.015,0.062,0.026,0.123,0.026,0.189
		c0,0.051-0.005,0.098-0.015,0.146l1.546,0.522l0.565-1.719l0.2,0.067l-0.564,1.72l1.064,0.36l7.216-1.047l0.031,0.209l-6.803,0.987
		l6.909,2.338c0.118-0.253,0.334-0.452,0.601-0.546l-0.542-2.201l0.204-0.053l0.544,2.203c0.014-0.002,0.023-0.002,0.038-0.004
		h0.212c0.039,0.004,0.082,0.006,0.116,0.017l0.203,0.064v0.003c0.366,0.161,0.621,0.526,0.621,0.953
		c0,0.578-0.468,1.046-1.045,1.046c-0.129,0-0.25-0.024-0.364-0.069l-2.972,6.034c0.348,0.211,0.58,0.59,0.58,1.023
		c0,0.665-0.541,1.203-1.205,1.203c-0.062,0-0.123-0.007-0.184-0.015l-1.449,5.884c0.396,0.143,0.685,0.519,0.685,0.964
		c0,0.568-0.464,1.027-1.033,1.027c-0.294,0-0.558-0.126-0.746-0.326l-6.493,4.947c0.061,0.114,0.102,0.241,0.102,0.379
		c0,0.428-0.348,0.774-0.776,0.774c-0.428,0-0.777-0.347-0.777-0.774c0-0.424,0.343-0.77,0.764-0.777l0.059-0.462
		c-0.017,0-0.029,0.005-0.046,0.005c-0.428,0-0.777-0.348-0.777-0.776s0.349-0.775,0.777-0.775c0,0,0,0,0.001,0l1.143-8.115
		c-0.36-0.26-0.589-0.681-0.589-1.154c0-0.595,0.362-1.103,0.879-1.318l-1.301-3.955c-0.042,0.008-0.086,0.014-0.133,0.014
		c-0.425,0-0.768-0.346-0.768-0.768c0-0.174,0.061-0.335,0.158-0.465l-0.915-0.932c-0.128,0.096-0.285,0.152-0.457,0.154
		c-0.423,0-0.765-0.342-0.765-0.767c0-0.263,0.133-0.494,0.334-0.633l0.191-0.093l0.001,0.002c0.076-0.025,0.154-0.043,0.237-0.043
		c0.012,0,0.02,0.005,0.032,0.005l-1.154-1.757l0.177-0.118l1.216,1.847l0.259-0.53l-1.588-1.612l0.152-0.149l1.537,1.562
		l0.792-1.614c-0.261-0.167-0.446-0.449-0.48-0.776h-1.5v-0.214h1.5c0.051-0.492,0.439-0.879,0.93-0.931v-0.152l-2.472,0.835
		l-0.066-0.199l2.538-0.86v-1.06l-2.613,1.769l-0.001-0.002c0.026,0.05,0.052,0.101,0.075,0.152l0.066,0.2
		c0.022,0.079,0.035,0.162,0.041,0.249v0.212c-0.023,0.317-0.151,0.604-0.347,0.83l-0.151,0.149
		c-0.017,0.016-0.035,0.029-0.053,0.042l0.165,0.254l-0.177,0.118l0.881,1.793l-0.189,0.093l-1.016-2.062
		c-0.167,0.064-0.344,0.103-0.535,0.103c-0.788,0-1.428-0.641-1.428-1.427c0-0.191,0.042-0.38,0.111-0.548l-5.227-2.651
		c-0.278,0.468-0.789,0.782-1.373,0.782c-0.882,0-1.599-0.72-1.599-1.6c0-0.737,0.507-1.359,1.187-1.543l-1.363-6.919l0.209-0.041
		l1.362,6.917c0.068-0.008,0.134-0.014,0.204-0.014c0.216,0,0.42,0.043,0.608,0.12l0.571-1.156l0.001,0.003v-0.003
		c-0.477-0.274-0.801-0.788-0.801-1.377c0-0.521,0.252-0.981,0.638-1.273l0.177-0.121c0.232-0.13,0.5-0.207,0.789-0.207
		c0.094,0,0.187,0.01,0.275,0.025l0.431-1.757c-0.112-0.208-0.176-0.44-0.176-0.693c0-0.125,0.02-0.245,0.051-0.359l-3.064-1.038
		l0.066-0.203l3.064,1.038c0.097-0.233,0.254-0.433,0.451-0.584l-1.15-1.745l-1.228,0.311l-0.054-0.205l1.16-0.297l-0.051-0.08
		l-1.111,0.377l-0.067-0.204l1.054-0.357l-1.154-1.759l0.178-0.117l1.188,1.805l1.361-0.462c-0.01-0.044-0.014-0.09-0.014-0.14
		c0-0.087,0.019-0.17,0.043-0.247l-1.963-0.997l0.095-0.189l0,0l0.068-0.202l1.916,0.646l-1.013-2.051l0.191-0.094l1.106,2.243
		l0.387,0.13c0.128,0.01,0.25,0.051,0.352,0.12l0.88,0.299c0.023-0.042,0.045-0.083,0.076-0.121l-2.703-2.742l0.153-0.149
		l2.703,2.742c0.126-0.096,0.282-0.153,0.454-0.153c0.116,0,0.227,0.026,0.327,0.073l0.175,0.12
		c0.136,0.117,0.228,0.281,0.252,0.466h6.131c0.028-0.283,0.171-0.529,0.379-0.7l0.178-0.118c0.041-0.022,0.082-0.043,0.127-0.058
		l-1.484-6.022l0.207-0.051l1.485,6.024c0.049-0.007,0.095-0.017,0.146-0.017c0.243,0,0.465,0.089,0.645,0.232l0,0l6.082-6.172
		c-0.249-0.282-0.4-0.648-0.4-1.052c0-0.22,0.042-0.431,0.124-0.622l-1.859-0.944v0.001c-0.141,0.202-0.374,0.334-0.637,0.334
		c-0.303,0-0.563-0.177-0.689-0.43h-0.004l-0.067-0.201c-0.012-0.047-0.017-0.096-0.017-0.147c0-0.049,0.004-0.097,0.017-0.145
		l-1.204-0.407l-3.057,2.069l-0.117-0.176l2.923-1.977v0l-2.392-0.81c-0.206,0.488-0.671,0.837-1.223,0.878v1.543h-0.214v-1.543
		c-0.083-0.004-0.162-0.019-0.242-0.038l-0.587,1.784l-0.2-0.066l0.584-1.784c-0.141-0.058-0.271-0.137-0.384-0.235l-1.274,1.292
		l-0.15-0.148l1.274-1.294c-0.203-0.229-0.333-0.522-0.356-0.844h-3.073v0c-0.02,0.218-0.083,0.422-0.187,0.601l-0.002,0.001
		l2.313,1.564l0.029-0.028l0.15,0.148l1.075,0.727l0.201,0.066l-0.019,0.06l0.156,0.104c0.171-0.202,0.414-0.338,0.691-0.366h0.213
		c0.277,0.028,0.523,0.164,0.692,0.366l0.119,0.177c0.01,0.02,0.023,0.039,0.032,0.058l4.228-1.429l0.067,0.201l-4.228,1.43
		c0.017,0.075,0.026,0.153,0.026,0.232c0,0.454-0.289,0.837-0.694,0.981l-0.206,0.051c-0.049,0.007-0.095,0.015-0.144,0.015
		c-0.25,0-0.472-0.092-0.653-0.234l-0.522,0.53c0.152,0.181,0.244,0.41,0.244,0.664c0,0.326-0.157,0.615-0.388,0.807l2.82,4.296
		l-0.177,0.117l-2.823-4.296c-0.143,0.074-0.305,0.121-0.479,0.121c-0.175,0-0.335-0.046-0.48-0.121l-2.977,4.53l-0.175-0.118
		l2.974-4.53c-0.145-0.117-0.256-0.27-0.323-0.449l-5.909,1.499c0.01,0.05,0.016,0.099,0.016,0.151c0,0.254-0.093,0.484-0.242,0.665
		l-0.154,0.148c-0.03,0.025-0.062,0.051-0.097,0.072l-0.191,0.093c-0.112,0.043-0.235,0.069-0.362,0.069
		c-0.175,0-0.337-0.047-0.482-0.122l-0.506,0.771c0.032,0.1,0.052,0.203,0.052,0.314c0,0.081-0.009,0.156-0.026,0.231l0.418,0.143
		l-0.067,0.203l-0.096,0.189l-0.396-0.201c-0.062,0.093-0.135,0.173-0.22,0.241l-0.179,0.117c-0.114,0.06-0.24,0.097-0.373,0.112
		l-1.051,1.599l0,0L9.864,42.84c0.225,0.168,0.405,0.396,0.515,0.661l1.082-0.366l0.068,0.202l0.053,0.207l-1.111,0.281
		c0.021,0.093,0.028,0.189,0.028,0.288c0,0.143-0.018,0.279-0.055,0.411l-0.065,0.202c-0.11,0.266-0.29,0.489-0.515,0.662
		l2.209,3.365l-0.178,0.119l-2.21-3.367c-0.112,0.066-0.24,0.117-0.372,0.151v0.002L9.104,45.7
		c-0.067,0.008-0.132,0.015-0.204,0.015c-0.883,0-1.599-0.718-1.599-1.602c0-0.589,0.323-1.104,0.797-1.381l-2.554-5.19l-0.001,0
		c-0.185,0.078-0.389,0.121-0.604,0.121C4.067,37.664,3.353,36.954,3.353,36.079z"/>
	<path fill="#DEE2DE" d="M5.735,37.658l0.002,0l2.557,5.186c0.186-0.075,0.395-0.12,0.608-0.12c0.214,0,0.421,0.044,0.608,0.12
		l0.817-1.656l0.037,0.017l-0.039-0.019C10.029,41,9.829,40.675,9.829,40.303c0-0.18,0.049-0.346,0.131-0.492l-3.772-2.55l0,0
		C6.067,37.419,5.91,37.556,5.735,37.658z"/>
	<path fill="#DEE2DE" d="M21.493,34.45l-0.29,0.883c0.08,0.037,0.155,0.085,0.226,0.14l0.524-0.53
		c-0.13-0.155-0.213-0.346-0.235-0.558h-0.205L21.493,34.45L21.493,34.45z"/>
	<path fill="#DEE2DE" d="M11.304,33.225l1.33,4.049c0.039-0.008,0.077-0.011,0.119-0.015h0.211c0.276,0.027,0.522,0.164,0.693,0.366
		l0.002,0.002l4.22-2.857c-0.08-0.147-0.128-0.313-0.128-0.492c0-0.051,0.005-0.102,0.014-0.151l0.053-0.207
		c0.017-0.046,0.039-0.092,0.061-0.134l-2.302-1.558l0.119-0.177l-0.001-0.001l-0.118,0.175l-1.027-0.697l-1.583,0.803v0.354
		l4.852,1.232l-0.053,0.207l-4.803-1.218v4.352h-0.211v-4.407l-0.304-0.077l-0.001,0.003l-0.235-0.06l-0.622,0.315
		C11.508,33.11,11.412,33.176,11.304,33.225z"/>
	<path fill="#DEE2DE" d="M19.869,34.703l0.431,0.656c0.144-0.075,0.305-0.122,0.478-0.122c0.076,0,0.15,0.011,0.224,0.026
		l0.291-0.877l-0.003-0.001h-1.455c-0.009,0.072-0.023,0.139-0.042,0.205l0.073,0.115L19.869,34.703z"/>
	<path fill="#DEE2DE" d="M13.777,37.803c0.022,0.042,0.045,0.085,0.062,0.132l5.91-1.498c-0.007-0.049-0.019-0.101-0.019-0.151
		c0-0.253,0.094-0.483,0.247-0.664l-0.528-0.532l-0.002,0.001c-0.178,0.142-0.402,0.234-0.65,0.234
		c-0.321,0-0.607-0.149-0.799-0.379L13.777,37.803z"/>
	<path fill="#DEE2DE" d="M19.601,34.939l0.497,0.502l-0.407-0.621l-0.003,0.001C19.662,34.863,19.631,34.901,19.601,34.939z"/>
	<polygon fill="#DEE2DE" points="14.759,31.071 14.851,31.141 15.449,30.836 	"/>
	<path fill="#DEE2DE" d="M9.124,33.256l0.009-0.025l-0.029,0.021C9.109,33.254,9.117,33.256,9.124,33.256z"/>
	<path fill="#DEE2DE" d="M18.035,33.564c0.061-0.067,0.132-0.125,0.209-0.172l-0.761-1.541l0,0l-0.132-0.268
		c-0.165,0.066-0.343,0.104-0.532,0.104c-0.516,0-0.967-0.276-1.219-0.689l-0.562,0.285L18.035,33.564z"/>
	<path fill="#DEE2DE" d="M9.818,37.414L9.124,35.3c-0.072,0.015-0.146,0.025-0.224,0.025c-0.368,0-0.69-0.194-0.88-0.481L6.4,35.666
		c0.081,0.192,0.127,0.401,0.127,0.622c0,0.098-0.009,0.192-0.025,0.285L9.818,37.414z"/>
	<path fill="#DEE2DE" d="M10.048,32.961L9.5,33.33l-0.072,0.048c0.042,0.026,0.086,0.056,0.123,0.085L10.048,32.961z"/>
	<path fill="#DEE2DE" d="M10.452,39.349L9.936,37.78h0.001l-0.041-0.125L6.447,36.78c-0.035,0.107-0.083,0.208-0.139,0.304
		l3.771,2.552C10.182,39.514,10.305,39.415,10.452,39.349z"/>
	<path fill="#DEE2DE" d="M13.025,28.811l0.856-1.306c-0.16-0.121-0.299-0.274-0.403-0.451l-1.624,0.823
		c0.048,0.116,0.072,0.241,0.072,0.373c0,0.08-0.009,0.157-0.026,0.231l1.045,0.356l-0.068,0.2l-1.046-0.353
		c-0.014,0.039-0.038,0.074-0.059,0.11l0.598,0.453l-0.127,0.171l-0.234-0.178l-0.153,0.148l-0.321-0.325
		c-0.154,0.123-0.34,0.202-0.545,0.223v1.946h-0.213v-1.946c-0.039-0.004-0.079-0.006-0.116-0.015l-1.111,3.375l0.001,0.001
		l0.3-0.227c-0.007-0.051-0.015-0.1-0.015-0.151c0-0.539,0.413-0.982,0.94-1.035h0.215c0.11,0.01,0.218,0.036,0.315,0.078
		l0.157-0.122l0.055-0.083l0.218,0.143l-0.114,0.087l-0.056,0.088l0.17-0.175l0,0l-0.218-0.143l0.35-0.534
		c-0.033-0.101-0.053-0.205-0.052-0.313c0-0.253,0.094-0.483,0.245-0.664l-0.205-0.207l0.152-0.149l0.206,0.208
		c0.01-0.009,0.02-0.02,0.03-0.028l0.127-0.171l0.071,0.053c0.096-0.042,0.204-0.066,0.316-0.078l0.121-0.187l0.068-0.2l0.052,0.017
		L13.025,28.811L13.025,28.811z"/>
	<polygon fill="#DEE2DE" points="12.754,32.63 12.754,32.443 12.505,32.568 	"/>
	<path fill="#DEE2DE" d="M9.25,32.876l1.205-3.67c-0.037-0.015-0.069-0.037-0.105-0.055l-4.383,5.928
		c0.057,0.051,0.116,0.106,0.167,0.166l1.802-1.368c0.141-0.337,0.453-0.579,0.826-0.63L9.25,32.876z"/>
	<path fill="#DEE2DE" d="M23.211,20.829c-0.1,0.075-0.218,0.124-0.348,0.141v0.185l0.996,0.506c0.023-0.037,0.047-0.066,0.074-0.099
		L23.211,20.829z"/>
	<path fill="#DEE2DE" d="M9.676,32.819L9.676,32.819l-0.248,0.184l-0.047,0.151l0.581-0.392c-0.021-0.039-0.04-0.08-0.058-0.118
		L9.676,32.819z"/>
	<path fill="#DEE2DE" d="M10.063,37.476l0.127,0.034l0.001-0.001l1.686,0.426c0.042-0.113,0.102-0.215,0.179-0.304l-2.505-2.54
		l-0.001,0.001c-0.07,0.054-0.143,0.103-0.226,0.14L10.063,37.476z"/>
	<path fill="#DEE2DE" d="M9.703,33.614c0.027,0.032,0.052,0.063,0.078,0.099l0.849-0.431c-0.148-0.036-0.284-0.107-0.399-0.2
		l-0.026,0.025l-0.149-0.148l0.148,0.147L9.703,33.614z"/>
	<polygon fill="#DEE2DE" points="14.639,31.247 14.514,31.153 14.416,31.185 14.563,31.285 	"/>
	<path fill="#DEE2DE" d="M16.2,27.052c-0.136,0.233-0.335,0.426-0.565,0.562l0.65,1.325l-0.19,0.094l-0.652-1.324
		c-0.186,0.077-0.391,0.122-0.604,0.122c-0.213,0-0.419-0.043-0.604-0.12l-0.662,1.344l-0.069,0.2l-0.027-0.008l-0.066,0.128h0.001
		v0.003c0.267,0.167,0.45,0.449,0.481,0.778v0.212c0,0.015-0.001,0.028-0.003,0.043l0.07,0.055l0.001-0.001l0.592,0.449l0.885-0.3
		c-0.02-0.078-0.035-0.162-0.041-0.247h-1.502v-0.212h1.502c0.008-0.085,0.022-0.169,0.041-0.249l-1.934-0.655l0.069-0.2
		l1.933,0.651c0.122-0.28,0.329-0.515,0.59-0.67l0.189-0.094c0.167-0.066,0.346-0.104,0.533-0.104c0.148,0,0.289,0.022,0.423,0.065
		l0,0l0.432-1.099L16.2,27.052z"/>
	<path fill="#DEE2DE" d="M11.831,31.835l-0.002-0.002l0.925-0.312v-0.069v-0.003v-0.152c-0.206-0.022-0.392-0.1-0.543-0.222
		L11.886,31.4l0.002,0.001l-0.202,0.206C11.741,31.676,11.79,31.75,11.831,31.835z"/>
	<polygon fill="#DEE2DE" points="13.371,28.983 13.98,27.742 13.205,28.925 13.206,28.926 13.206,28.928 	"/>
	<path fill="#DEE2DE" d="M20.213,32.687l-2.278-1.542c-0.071,0.091-0.156,0.173-0.249,0.245l1.145,1.741l0,0l0.073,0.111
		c0.207,0.021,0.39,0.099,0.543,0.221L20.213,32.687z"/>
	<path fill="#DEE2DE" d="M18.653,33.244L18.653,33.244l-0.977-1.484l0,0l0.758,1.539C18.502,33.272,18.574,33.254,18.653,33.244z"/>
	<path fill="#DEE2DE" d="M11.899,32.636l-0.038-0.008c-0.004,0.011-0.008,0.024-0.011,0.035L11.899,32.636z"/>
	<path fill="#DEE2DE" d="M14.311,30.996l-0.474-0.363v0c-0.017,0.043-0.037,0.083-0.057,0.12l0.416,0.281L14.311,30.996z"/>
	<polygon fill="#DEE2DE" points="14.345,31.395 14.162,31.271 12.966,31.676 12.966,32.096 	"/>
	<path fill="#DEE2DE" d="M12.966,31.297v0.152l0.974-0.331l-0.28-0.189v0.001C13.488,31.133,13.244,31.27,12.966,31.297
		L12.966,31.297z"/>
	<path fill="#DEE2DE" d="M13.273,29.177l-0.14-0.049l0.001-0.002l-0.05-0.017l-0.077,0.12c0.074,0.011,0.148,0.028,0.216,0.053
		L13.273,29.177z"/>
	<path fill="#DEE2DE" d="M33.755,44.888l-1.619,0.822c0.081,0.192,0.124,0.402,0.124,0.622c0,0.405-0.15,0.771-0.398,1.053
		l2.667,2.709v-4.734C34.205,45.326,33.924,45.15,33.755,44.888z"/>
	<path fill="#DEE2DE" d="M24.592,23.255l-1.387,5.631c0.273,0.087,0.509,0.257,0.686,0.477l3.57-2.414
		c-0.121-0.208-0.19-0.449-0.19-0.706c0-0.287,0.083-0.553,0.23-0.777l-2.689-2.048l0.127-0.167l2.633,2l-2.183-2.214l0.153-0.149
		l2.234,2.268c0.248-0.211,0.568-0.339,0.919-0.339c0.118,0,0.232,0.016,0.342,0.043l0.204,0.066
		c0.138,0.058,0.262,0.134,0.376,0.229l1.927-1.955l-0.264-0.805l-0.022-0.066h-1.166l-0.85,2.595l-0.204-0.066l0.831-2.529h-4.096
		c-0.021,0.209-0.103,0.401-0.229,0.557l-0.153,0.149c-0.13,0.102-0.28,0.178-0.45,0.213l-0.126,0.168l-0.215-0.161
		C24.594,23.255,24.594,23.255,24.592,23.255z"/>
	<polygon fill="#DEE2DE" points="23.456,81.317 24.624,79.657 24.157,79.897 	"/>
	<polygon fill="#DEE2DE" points="25.322,77.532 24.315,79.576 24.885,79.287 28.394,74.304 28.164,74.072 	"/>
	<path fill="#DEE2DE" d="M20.778,51.117c-0.285,0-0.527-0.156-0.661-0.381l-0.183,0.074l1.526,0.771l-0.356-0.538
		C21.005,51.091,20.894,51.119,20.778,51.117z"/>
	<polygon fill="#DEE2DE" points="29.071,72.968 29.179,73.189 29.389,72.891 29.315,72.669 	"/>
	<polygon fill="#DEE2DE" points="29.037,73.387 28.92,73.149 28.874,73.209 29.003,73.434 	"/>
	<path fill="#DEE2DE" d="M20.671,49.525l-0.532,0.269l0.072,0.051c0.12-0.131,0.278-0.218,0.46-0.245V49.525z"/>
	<path fill="#DEE2DE" d="M16.279,46.226h3.462c0.016-0.139,0.056-0.268,0.12-0.385l-3.496-2.366l-0.794,1.612
		C15.968,45.322,16.242,45.74,16.279,46.226z"/>
	<path fill="#DEE2DE" d="M19.52,50.107c0.018,0.049,0.028,0.094,0.035,0.141h0.467c0.01-0.08,0.035-0.157,0.071-0.228l-0.173-0.115
		L19.52,50.107z"/>
	<path fill="#DEE2DE" d="M19.897,46.901l-2.305,1.17l1.659,1.125l0.972-1.979C20.095,47.135,19.985,47.027,19.897,46.901z"/>
	<path fill="#DEE2DE" d="M20.413,47.31l-0.982,2.007l0.507,0.343l0.733-0.374v-1.917C20.582,47.359,20.496,47.341,20.413,47.31z"/>
	<path fill="#DEE2DE" d="M20.021,50.461h-0.467c-0.007,0.05-0.017,0.095-0.035,0.14l0.163,0.083l0.355-0.144
		C20.03,50.514,20.027,50.488,20.021,50.461L20.021,50.461z"/>
	<path fill="#DEE2DE" d="M19.428,49.916l0.293-0.149l-0.385-0.261l-0.108,0.216C19.306,49.776,19.372,49.843,19.428,49.916z"/>
	<path fill="#DEE2DE" d="M28.521,71.857l0.445,0.9l0.27-0.328l-0.198-0.604c-0.111,0.026-0.222,0.043-0.341,0.043
		C28.637,71.869,28.578,71.865,28.521,71.857z"/>
	<path fill="#DEE2DE" d="M23.624,56.866l-0.311,0.639c0.033,0.021,0.066,0.046,0.099,0.069l0.713-0.727
		c-0.029-0.037-0.056-0.076-0.08-0.123L23.624,56.866z"/>
	<path fill="#DEE2DE" d="M24.185,55.732l-0.427,0.866l0.219-0.073c-0.01-0.049-0.015-0.096-0.015-0.146
		c0-0.232,0.104-0.438,0.268-0.581L24.185,55.732z"/>
	<path fill="#DEE2DE" d="M23.561,57.727c0.033,0.035,0.062,0.075,0.085,0.118l0.411-0.624L23.561,57.727z"/>
	<path fill="#DEE2DE" d="M23.418,60.057l0.208-0.635l-0.215-0.22c-0.071,0.055-0.147,0.105-0.228,0.141L23.418,60.057z"/>
	<path fill="#DEE2DE" d="M24.163,54.889l-0.032,0.021l0.112,0.223l0.058-0.12C24.25,54.977,24.203,54.933,24.163,54.889z"/>
	<polygon fill="#DEE2DE" points="26.76,57.916 24.225,58.285 23.868,59.365 25.681,61.204 	"/>
	<polygon fill="#DEE2DE" points="29.539,72.673 30.917,70.716 29.472,72.474 	"/>
	<polygon fill="#DEE2DE" points="29.345,74.012 29.144,73.604 29.124,73.637 	"/>
	<path fill="#DEE2DE" d="M29.396,72.238l2.418-2.945c-0.068-0.067-0.128-0.141-0.178-0.225l-1.626,0.824
		c0.072,0.171,0.11,0.356,0.11,0.552c0,0.595-0.362,1.102-0.879,1.317L29.396,72.238z"/>
	<path fill="#DEE2DE" d="M24.063,58.093l0.323-0.983l-0.636,0.966c0.006,0.019,0.014,0.037,0.021,0.059L24.063,58.093z"/>
	<path fill="#DEE2DE" d="M24.496,55.104l-0.134,0.272l0.134,0.271c0.043-0.014,0.088-0.026,0.135-0.032v-0.479
		C24.584,55.128,24.539,55.117,24.496,55.104z"/>
	<path fill="#DEE2DE" d="M23.799,58.345c0.002,0.015,0.004,0.027,0.004,0.043c0,0.255-0.093,0.48-0.243,0.666l0.142,0.141
		l0.289-0.876L23.799,58.345z"/>
	<path fill="#DEE2DE" d="M33.604,44.48l-1.464,0.991l1.519-0.771C33.635,44.629,33.616,44.555,33.604,44.48z"/>
	<path fill="#DEE2DE" d="M44.965,51.308l1.163,3.536c0.125-0.033,0.255-0.051,0.395-0.051c0.215,0,0.42,0.041,0.607,0.121
		l0.998-2.015l-2.789-1.878C45.237,51.142,45.11,51.241,44.965,51.308z"/>
	<path fill="#DEE2DE" d="M44.142,51.318l1.773,3.596c0.003-0.001,0.007-0.001,0.011-0.003l-1.163-3.54
		c-0.073,0.017-0.147,0.025-0.225,0.025C44.396,51.396,44.264,51.369,44.142,51.318z"/>
	<path fill="#DEE2DE" d="M37.941,53.555c0.182-0.146,0.404-0.233,0.652-0.233c0.174,0,0.335,0.047,0.479,0.12l2.821-4.288
		c-0.051-0.043-0.098-0.088-0.14-0.14l-4.454,3.012c0.05,0.1,0.081,0.213,0.081,0.333c0,0.176-0.061,0.335-0.16,0.465L37.941,53.555
		z"/>
	<path fill="#DEE2DE" d="M38.368,55.398L38.368,55.398l-0.285,0.874h6.855c0.004-0.059,0.01-0.118,0.021-0.179l-5.386-1.363
		l0.052-0.207l5.389,1.363c0.121-0.372,0.378-0.684,0.713-0.879l-1.943-3.927c-0.004-0.006-0.006-0.013-0.01-0.017l-2.213,1.684
		v-0.001l-1.937,1.472c0.006,0.051,0.016,0.1,0.016,0.15c0,0.053-0.01,0.101-0.016,0.152l-0.052,0.207
		c-0.148,0.399-0.528,0.687-0.98,0.687c-0.077,0-0.151-0.007-0.225-0.023V55.398z"/>
	<path fill="#DEE2DE" d="M37.066,52.973c-0.099,0.076-0.22,0.126-0.347,0.145v0.182l0.097,0.05v-0.001l0.899,0.456
		c0.022-0.034,0.049-0.064,0.076-0.098l-0.722-0.732l0.075-0.073L37.066,52.973z"/>
	<path fill="#DEE2DE" d="M37.942,55.183l-0.203,0.208l0.236-0.181C37.963,55.201,37.955,55.194,37.942,55.183z"/>
	<path fill="#DEE2DE" d="M50.6,49.383v2.72l1.07-1.085c-0.148-0.181-0.242-0.41-0.242-0.663c0-0.251,0.093-0.48,0.242-0.663
		l-0.498-0.506l0,0l-0.026-0.026C50.992,49.283,50.807,49.362,50.6,49.383z"/>
	<path fill="#DEE2DE" d="M36.719,55.344L36.719,55.344c0.207,0.022,0.394,0.101,0.546,0.224l0.321-0.328l0.204-0.205
		c-0.149-0.181-0.243-0.41-0.243-0.663c0-0.135,0.029-0.259,0.072-0.374l-0.899-0.46l-0.001,0.002V55.344z"/>
	<path fill="#DEE2DE" d="M48.308,53.024l-0.985,1.983c0.084,0.051,0.166,0.107,0.241,0.172l1.217-1.23l0.152,0.148
		c0-0.001,0-0.001,0-0.001l-0.154-0.15l0.311-0.313c0.012-0.021,0.021-0.042,0.034-0.063l-0.813-0.55L48.308,53.024z"/>
	<path fill="#DEE2DE" d="M50.6,52.407v0.38c0.175,0.014,0.344,0.053,0.5,0.115l0.001,0.001l0.82-1.666
		c-0.034-0.021-0.066-0.047-0.099-0.073l-1.07,1.086L50.6,52.101v0.002l0.152,0.149L50.6,52.407L50.6,52.407z"/>
	<path fill="#DEE2DE" d="M48.427,52.845l0.816,0.55c0.135-0.173,0.304-0.314,0.495-0.422l0.496-0.501l0.004,0.002l0.15-0.153v-2.938
		c-0.091-0.007-0.176-0.027-0.257-0.056l-1.729,3.502L48.427,52.845L48.427,52.845z"/>
	<path fill="#DEE2DE" d="M50.385,52.62l-0.186,0.191c0.061-0.01,0.124-0.02,0.188-0.023l0,0v-0.165L50.385,52.62z"/>
	<path fill="#DEE2DE" d="M15.925,47.283l0.914,0.933l0.334-0.172l-1.201-0.814C15.958,47.249,15.94,47.265,15.925,47.283z"/>
	<path fill="#DEE2DE" d="M21.797,46.102c0.018,0.075,0.029,0.152,0.029,0.233c0,0.253-0.092,0.483-0.244,0.666l0,0l0.521,0.529
		c0.182-0.146,0.404-0.236,0.653-0.236c0.076,0,0.151,0.011,0.223,0.027l0.597-1.819L21.797,46.102z"/>
	<path fill="#DEE2DE" d="M25.914,44.987c-0.059-0.069-0.109-0.146-0.146-0.227l-1.933,0.654l-0.05,0.152l-0.004-0.001l-0.598,1.824
		c0.079,0.036,0.154,0.085,0.228,0.14l0.148,0.149c0.074,0.093,0.134,0.196,0.177,0.306l0.051,0.208l-0.051-0.208l1.208-0.307
		l1.217-2.468c-0.033-0.021-0.066-0.046-0.099-0.072l-2.503,2.541l-0.149-0.149L25.914,44.987z"/>
	<path fill="#DEE2DE" d="M19.155,49.39l-1.78-1.206l-0.379,0.192l1.347,1.367c0.127-0.097,0.283-0.155,0.453-0.155
		c0.083,0,0.164,0.019,0.239,0.043L19.155,49.39z"/>
	<path fill="#DEE2DE" d="M31.741,67.656L25.773,61.6l-0.699,2.13c0.254,0.124,0.43,0.386,0.43,0.687
		c0,0.086-0.021,0.167-0.044,0.247l6.177,3.135C31.666,67.746,31.703,67.7,31.741,67.656z"/>
	<path fill="#DEE2DE" d="M24.822,47.93l-1.035,0.262c0.009,0.053,0.016,0.104,0.016,0.155c0,0.426-0.255,0.792-0.62,0.955l0,0
		l0.386,1.175L24.822,47.93z"/>
	<path fill="#DEE2DE" d="M14.453,50.248h3.59c0.018-0.132,0.072-0.254,0.148-0.356l-1.395-1.416l-2.465,1.253
		C14.401,49.89,14.44,50.064,14.453,50.248L14.453,50.248z"/>
	<path fill="#DEE2DE" d="M34.744,45.36v4.952l1.417,1.432c0.128-0.097,0.283-0.151,0.456-0.151c0.226,0,0.425,0.101,0.565,0.257
		l4.456-3.012c-0.079-0.146-0.13-0.313-0.13-0.492c0-0.427,0.258-0.796,0.621-0.957l-0.948-2.891l0,0l-0.021-0.066h-5.486v-0.213
		h5.415l-0.102-0.312l-2.392-0.808l-2.941,0.994l-0.067-0.2l2.677-0.907l-0.698-0.237l0.069-0.2l0.96,0.325l0.96-0.325
		c-0.011-0.041-0.012-0.083-0.016-0.126h-1.888v-0.213h1.889c0.018-0.21,0.105-0.401,0.23-0.558l-0.215-0.219l-1.92,0.651
		l-0.07-0.201l1.823-0.62l-1.425-1.444L37.17,41.43l-0.192-0.094l0.19,0.094c0.173,0.107,0.312,0.265,0.396,0.452l0.069,0.201
		c0.008,0.041,0.012,0.083,0.018,0.126v0.214c-0.005,0.042-0.009,0.085-0.018,0.126l-0.069,0.199
		c-0.165,0.362-0.526,0.613-0.948,0.613c-0.25,0-0.472-0.089-0.653-0.234l-0.527,0.535c0.06,0.07,0.111,0.145,0.148,0.229
		l0.067,0.201c0.012,0.042,0.013,0.084,0.018,0.125v0.213C35.62,44.923,35.232,45.309,34.744,45.36z"/>
	<path fill="#DEE2DE" d="M36.006,51.897l-1.264-1.285v0.99c0.335,0.046,0.599,0.314,0.648,0.651h0.467
		C35.878,52.121,35.929,51.998,36.006,51.897z"/>
	<path fill="#DEE2DE" d="M35.354,52.607l1.153,0.584v-0.074c-0.338-0.046-0.599-0.313-0.65-0.65h-0.467
		C35.382,52.517,35.372,52.563,35.354,52.607z"/>
	<path fill="#DEE2DE" d="M36.759,41.283c0.076,0.01,0.148,0.027,0.219,0.053l0.76-1.542l-0.841,1.277l-0.177-0.116l0.946-1.439
		l-0.946-0.961v0.407l0,0v1.993l0.177,0.116L36.759,41.283z"/>
	<path fill="#DEE2DE" d="M35.162,53.193l-0.189,0.094L35.64,56h0.001c0.083-0.211,0.229-0.386,0.419-0.507l-1.086-2.206
		L35.162,53.193l1.088,2.208c0.08-0.029,0.17-0.048,0.257-0.058v-1.912l-1.249-0.633c-0.052,0.074-0.118,0.143-0.194,0.195
		L35.162,53.193z"/>
	<path fill="#DEE2DE" d="M31.632,47.594l2.674,4.075c0.071-0.034,0.142-0.054,0.222-0.064V50.4l-2.819-2.866
		C31.684,47.554,31.658,47.576,31.632,47.594z"/>
	<path fill="#DEE2DE" d="M16.094,47.052l1.3,0.881l2.409-1.226c-0.031-0.084-0.05-0.173-0.06-0.268h-3.464
		C16.263,46.659,16.197,46.869,16.094,47.052z"/>
	<polygon fill="#DEE2DE" points="22.866,55.915 22.865,55.915 22.865,56.901 23.472,56.694 24.047,55.525 23.795,55.138 
		22.985,55.686 22.977,55.677 22.986,55.688 22.866,55.769 	"/>
	<polygon fill="#DEE2DE" points="23.132,63.48 23.18,63.504 23.099,63.343 	"/>
	<path fill="#DEE2DE" d="M23.341,56.964l-0.478,0.162v0.227c0.09,0.009,0.176,0.027,0.256,0.06L23.341,56.964z"/>
	<path fill="#DEE2DE" d="M24.044,54.713c-0.052-0.104-0.083-0.22-0.083-0.341c0-0.123,0.03-0.238,0.083-0.34l-0.515-0.351
		l0.507,1.035L24.044,54.713z"/>
	<polygon fill="#DEE2DE" points="23.677,54.96 22.866,53.727 22.866,55.509 	"/>
	<path fill="#DEE2DE" d="M23.909,53.683l-0.497-0.505c-0.032,0.024-0.064,0.049-0.098,0.069l0.022,0.049l0.309,0.207l0,0
		L23.909,53.683z"/>
	<polygon fill="#DEE2DE" points="22.865,63.345 22.88,63.353 22.865,63.287 	"/>
	<path fill="#DEE2DE" d="M24.275,65.803c0.008-0.005,0.017-0.014,0.025-0.021l-0.62-1.26h-0.168
		c-0.013,0.08-0.037,0.155-0.072,0.227l0.072,0.28L24.275,65.803z"/>
	<path fill="#DEE2DE" d="M23.056,53.362c-0.051,0.015-0.1,0.024-0.152,0.032l0.138,0.213l0,0l0.81,1.232l0.007-0.003l-0.013-0.028
		h0.002l-0.676-1.367L23.056,53.362z"/>
	<path fill="#DEE2DE" d="M24.133,63.951l-0.39-0.392l0.274,0.368l0.094,0.048C24.118,63.969,24.126,63.96,24.133,63.951
		L24.133,63.951z"/>
	<polygon fill="#DEE2DE" points="23.5,63.664 23.595,63.713 23.567,63.676 23.566,63.677 23.386,63.432 	"/>
	<path fill="#DEE2DE" d="M23.211,63.801c0.163,0.118,0.272,0.301,0.302,0.508h0.06l-0.237-0.485l-0.139-0.068L23.211,63.801z"/>
	<path fill="#DEE2DE" d="M22.865,59.426v2.225c0.009,0.001,0.02,0.001,0.028,0.004l0.201,0.065v0.002
		c0.253,0.125,0.43,0.385,0.43,0.684c0,0.175-0.06,0.336-0.159,0.465l0.917,0.934l0.002-0.001c0.037-0.028,0.077-0.053,0.116-0.073
		l-0.981-2.992l-0.324,0.982l-0.202-0.065l0.414-1.256l-0.324-0.988C22.946,59.42,22.902,59.422,22.865,59.426z"/>
	<path fill="#DEE2DE" d="M25.568,43.006l0.499,0.506c0.037-0.033,0.077-0.061,0.121-0.087l0.001-0.002l-0.618-0.419L25.568,43.006z"
		/>
	<path fill="#DEE2DE" d="M26.354,45.302l-1.136,2.304l3.899-0.988c-0.015-0.092-0.028-0.187-0.028-0.287
		c0-0.219,0.044-0.429,0.129-0.621l-1.624-0.822c-0.188,0.29-0.509,0.482-0.878,0.482C26.587,45.371,26.467,45.345,26.354,45.302z"
		/>
	<path fill="#DEE2DE" d="M22.535,51.342c0.039-0.01,0.079-0.012,0.118-0.014h0.214c0.09,0.008,0.175,0.025,0.256,0.056l0.22-0.439
		l-0.004-0.001l0.094-0.197l-0.452-1.379c-0.039,0.008-0.081,0.011-0.118,0.015v1.944h-0.214v-1.944
		c-0.203-0.021-0.388-0.101-0.541-0.222l-0.216,0.223L22.535,51.342z"/>
	<polygon fill="#DEE2DE" points="23.528,51.036 23.528,51.035 23.458,51.002 	"/>
	<path fill="#DEE2DE" d="M33.297,44.43h-5.244l1.371,0.93c0.292-0.373,0.745-0.614,1.251-0.613c0.508,0,0.958,0.24,1.25,0.613
		L33.297,44.43z"/>
	<path fill="#DEE2DE" d="M27.747,44.48c-0.01,0.074-0.027,0.148-0.056,0.22l1.521,0.771L27.747,44.48z"/>
	<path fill="#DEE2DE" d="M21.432,47.149c-0.07,0.055-0.144,0.106-0.225,0.141l0.486,1.482l0.091-0.046l-0.001-0.003
		c-0.047-0.117-0.074-0.243-0.074-0.376c0-0.255,0.093-0.486,0.247-0.668L21.432,47.149z"/>
	<path fill="#DEE2DE" d="M22.105,51.546c0.069-0.055,0.142-0.104,0.226-0.14l-0.612-1.857l-0.334,0.343
		c0.098,0.129,0.159,0.288,0.159,0.462c0,0.176-0.062,0.334-0.159,0.464L22.105,51.546z"/>
	<path fill="#DEE2DE" d="M21.955,49.009c-0.028-0.031-0.052-0.06-0.074-0.094l-0.122,0.063l0.059,0.177l0.14-0.142L21.955,49.009z"
		/>
	<path fill="#DEE2DE" d="M21.003,47.353c-0.038,0.01-0.08,0.012-0.119,0.015v1.809l0.615-0.311L21.003,47.353z"/>
	<path fill="#DEE2DE" d="M21.729,52.205c0.006-0.054,0.02-0.104,0.036-0.156l-0.071-0.107l-1.43-0.726L21.729,52.205z"/>
	<path fill="#DEE2DE" d="M21.234,49.743l0.411-0.421l-0.081-0.253l-0.68,0.347V49.6C21.015,49.619,21.129,49.667,21.234,49.743z"/>
	<path fill="#DEE2DE" d="M24.737,63.649c0.044,0,0.088,0.007,0.133,0.014l0.734-2.231l-1.81-1.84l-0.267,0.808l1.073,3.264
		C24.645,63.656,24.689,63.649,24.737,63.649z"/>
	<path fill="#DEE2DE" d="M28.164,71.766l-0.065,0.133l0.659,1.116l0.058-0.075l-0.563-1.142
		C28.225,71.787,28.193,71.776,28.164,71.766z"/>
	<path fill="#DEE2DE" d="M31.523,68.829l-1.944,0.496c0.13,0.104,0.246,0.234,0.335,0.38l1.625-0.826
		C31.534,68.864,31.528,68.847,31.523,68.829z"/>
	<path fill="#DEE2DE" d="M26.56,66.998l1.446,2.199c0.203-0.115,0.438-0.182,0.688-0.183c0.229,0,0.444,0.056,0.636,0.151
		l2.141-0.542c-0.011-0.062-0.018-0.125-0.018-0.189c0-0.065,0.006-0.129,0.018-0.19L26.56,66.998z"/>
	<polygon fill="#DEE2DE" points="26.806,68.371 27.719,69.297 26.347,67.444 	"/>
	<polygon fill="#DEE2DE" points="26.081,66.656 25.593,65.914 25.816,66.369 26.016,66.641 	"/>
	<path fill="#DEE2DE" d="M25.501,66.297c0.004,0.041,0.012,0.084,0.013,0.128c0,0.03-0.005,0.055-0.009,0.083l0.165,0.043
		l-0.033-0.071L25.501,66.297z"/>
	<polygon fill="#DEE2DE" points="27.984,72.127 27.505,73.101 28.148,73.754 28.612,73.189 	"/>
	<path fill="#DEE2DE" d="M26.329,67.89l-0.535-1.087l-0.34-0.086c-0.026,0.064-0.063,0.123-0.104,0.179L26.329,67.89z"/>
	<path fill="#DEE2DE" d="M23.874,64.096l-0.22-0.11l0.161,0.323h0.166c0.005-0.018,0.005-0.038,0.009-0.058L23.874,64.096z"/>
	<polygon fill="#DEE2DE" points="25.27,67.118 26.852,69.795 27.223,69.702 26.628,68.497 	"/>
	<polygon fill="#DEE2DE" points="27.344,72.938 27.347,72.939 27.365,72.9 	"/>
	<polygon fill="#DEE2DE" points="27.405,73.3 25.734,76.694 28.016,73.918 	"/>
	<path fill="#DEE2DE" d="M26.925,70.336l-0.173-0.295l-0.611,0.154c0.009,0.047,0.013,0.094,0.015,0.141H26.925z"/>
	<path fill="#DEE2DE" d="M24.844,65.66c0.086,0.012,0.167,0.036,0.243,0.074l-0.243-0.327V65.66z"/>
	<path fill="#DEE2DE" d="M26.089,69.988l0.548-0.139l-1.603-2.709c-0.059,0.025-0.126,0.04-0.191,0.049v1.832
		C25.426,69.064,25.908,69.458,26.089,69.988z"/>
	<path fill="#DEE2DE" d="M25.808,71.38l1.383,1.4l0.589-0.999l-0.729-1.232h-0.895C26.134,70.865,26.008,71.153,25.808,71.38z"/>
	<path fill="#DEE2DE" d="M24.921,65.155l0.184,0.248l-0.131-0.265C24.958,65.146,24.939,65.151,24.921,65.155z"/>
	<polygon fill="#DEE2DE" points="26.253,66.918 26.217,66.911 26.49,67.28 	"/>
	<path fill="#DEE2DE" d="M24.523,69.034c0.037-0.005,0.071-0.011,0.108-0.013v-0.864L24.523,69.034z"/>
	<path fill="#DEE2DE" d="M24.496,65.69c0.043-0.015,0.088-0.026,0.135-0.03v-0.49c-0.335-0.046-0.601-0.312-0.65-0.647h-0.061
		L24.496,65.69z"/>
	<path fill="#DEE2DE" d="M27.532,69.623c0.027-0.039,0.059-0.078,0.092-0.116l-0.522-0.53l0.331,0.671L27.532,69.623z"/>
	<polygon fill="#DEE2DE" points="23.55,79.351 25.143,77.418 27.248,73.144 27.232,73.127 	"/>
	<path fill="#DEE2DE" d="M27.276,70.336c0.008-0.128,0.037-0.252,0.078-0.368l-0.037-0.069l-0.35,0.088l0.205,0.35H27.276z"/>
	<polygon fill="#DEE2DE" points="28.517,74.127 28.872,73.625 28.727,73.386 28.298,73.906 	"/>
	<path fill="#DEE2DE" d="M25.241,64.989l1.146,1.745l5.135,1.303c0.004-0.019,0.01-0.034,0.017-0.053l-6.175-3.13
		C25.33,64.902,25.286,64.948,25.241,64.989z"/>
	<path fill="none" d="M95.937,48.25c0,26.498-21.49,47.988-47.994,47.988c-26.51,0-48-21.49-48-47.988
		c0-26.508,21.49-47.998,48-47.998C74.446,0.253,95.937,21.743,95.937,48.25z"/>
	<path fill="#DEE2DE" d="M91.78,99.134c0.023-0.036,0.049-0.064,0.076-0.097l-0.496-0.503l0.38,0.582L91.78,99.134z"/>
	<path fill="#DEE2DE" d="M90.68,98.455c-0.285,0-0.528-0.156-0.662-0.383l-0.184,0.074l1.526,0.776l-0.356-0.542
		C90.905,98.429,90.794,98.457,90.68,98.455z"/>
	<path fill="#DEE2DE" d="M93.81,101.021l-0.496-0.505c-0.032,0.025-0.064,0.05-0.098,0.069l0.022,0.048l0.308,0.207l0,0
		L93.81,101.021z"/>
	<polygon fill="#DEE2DE" points="93.429,98.374 93.429,98.373 93.359,98.339 	"/>
	<path fill="#DEE2DE" d="M91.629,99.544c0.007-0.054,0.02-0.105,0.036-0.156l-0.071-0.106l-1.43-0.728L91.629,99.544z"/>
	<path fill="#DEE2DE" d="M14.653,62.509c0.807,0.24,1.686,0.357,2.502,0.53 M37.714,57.92c-0.039,0.094-1.086-0.022-1.126,0.059
		c-0.774-0.561-0.602-1.116-1.397-1.69c-0.888-0.643-0.948-3.109-1.894-3.711c-1.441-0.92-1.493-4.616-3.216-4.774
		c-1.345-0.124-5.96,5.384-7.218,5.751c-1.279,0.373-0.281-0.628-1.479-0.192c-0.901,0.329-5.063,2.965-5.352,4.055
		c-0.167,0.628,1.234,2.373,1.551,2.975c1.156,2.192,2.713,4.684,3.258,7.13c0.565,2.529,1.053,4.874,1.179,7.073
		c0.167,2.915,0.017,4.174-0.867,8.036c-0.823,3.608-0.363,4.083,0.768,4.654c1.144,0.581,3.741,0.091,5.93-2.688
		c1.273-1.618,1.367-1.427,1.924-3.03c0.404-1.159,0.379-1.552,0.954-2.688c0.619-1.22,1.589-2.245,2.185-3.447
		c0.57-1.151,1.312-2.579,1.428-3.92c0.159-1.86,0.398-3.723,0.737-5.561c0.154-0.831,0.234-1.987,0.654-2.735
		c0.617-1.098,2.353-0.611,2.679-1.838C38.634,60.542,38.133,58.666,37.714,57.92z"/>
	<path fill="#EF4525" d="M22.67,63.143l4.307,5.245l5.607-6.297l3.908,6.863l4.825-4.258l1.47,1.454l4.576-1.85l5.571,4.381
		l6.602-4.154l5.722,5.659l6.989-8.239l2.349,3.165h13.868v-1.636H76.333l-3.926-5.287l-7.362,8.671l-5.04-4.987l-6.852,4.311
		l-5.197-4.087l-4.342,1.754l-2.178-2.148l-4.14,3.664l-4.165-7.318l-6.057,6.799l-4.655-5.666"/>
	<path fill="#01AADA" d="M22.116,86.96l3.765-3.271l2.779,7.94l4.283-7.786l3.587,5.313l4.661-6.372l3.241,6.941l3.882-4.162
		l1.321,1.588l3.72-1.832l4.506,4.32l5.458-4.184l4.595,5.537l5.792-8.311l2.178,3.57h11.123v-1.637H76.777v0.001l-2.98-4.884
		l-5.988,8.598l-4.241-5.109l-5.588,4.281l-4.328-4.145l-3.594,1.77l-1.675-2.012l-3.503,3.757l-3.381-7.241l-4.914,6.719
		l-3.777-5.598l-3.819,6.941l-2.376-6.787l-5.071,4.409"/>
	<path fill="#00CC00" d="M24.287,75.549l2.488-1.762l3.413,6.211l5.656-6.971l6.041,6.384l5.713-5.578l4.96,5.744l6.764-7.668
		l8.155,7.705l4.711-7.282l5.323,6.436L83,74.444l7.168,3.096l-7.869-4.75l-4.242,3.344l-6.179-7.472l-5.018,7.757l-7.765-7.335
		l-6.506,7.371l-4.777-5.527l-5.825,5.693l-6.339-6.693l-4.956,6.105l-2.782-5.059l-5.473,3.874"/>
</g>
</svg>
