<?xml version="1.0" encoding="utf-8"?>
<!-- Generator: Adobe Illustrator 16.0.3, SVG Export Plug-In . SVG Version: 6.00 Build 0)  -->
<!DOCTYPE svg PUBLIC "-//W3C//DTD SVG 1.1//EN" "http://www.w3.org/Graphics/SVG/1.1/DTD/svg11.dtd">
<svg version="1.1" xmlns="http://www.w3.org/2000/svg" xmlns:xlink="http://www.w3.org/1999/xlink" x="0px" y="0px" width="96px"
	 height="96px" viewBox="0 0 96 96" enable-background="new 0 0 96 96" xml:space="preserve">
<g id="Layer_1">
	<rect x="9.48" y="21.921" fill="#666666" width="16.826" height="16.532"/>
	<g>
		<path fill="#FFFFFF" d="M16.621,26.33h-0.04l-2.48,1.18l-0.5-2.28l3.441-1.601h2.521v13.003h-2.94V26.33z"/>
	</g>
	<rect x="69.079" y="21.921" fill="#666666" width="16.826" height="16.531"/>
	<g>
		<path fill="#FFFFFF" d="M73.424,33.651c0.539,0.28,1.779,0.8,3.02,0.8c1.581,0,2.381-0.76,2.381-1.74c0-1.28-1.28-1.86-2.62-1.86
			h-1.241V28.67h1.182c1.02-0.02,2.32-0.4,2.32-1.5c0-0.78-0.641-1.36-1.921-1.36c-1.06,0-2.181,0.46-2.721,0.78l-0.62-2.201
			c0.78-0.5,2.341-0.98,4.021-0.98c2.78,0,4.32,1.46,4.32,3.241c0,1.38-0.78,2.46-2.381,3.021v0.04c1.561,0.28,2.82,1.46,2.82,3.161
			c0,2.3-2.02,3.981-5.32,3.981c-1.681,0-3.101-0.44-3.861-0.92L73.424,33.651z"/>
	</g>
	<rect x="30.485" y="21.922" width="16.827" height="16.531"/>
	<g>
		<path fill="#FFFFFF" d="M34.26,36.63v-1.84l1.68-1.521c2.841-2.541,4.221-4.001,4.261-5.521c0-1.06-0.64-1.9-2.14-1.9
			c-1.121,0-2.101,0.56-2.781,1.08l-0.86-2.18c0.98-0.74,2.501-1.34,4.261-1.34c2.94,0,4.561,1.72,4.561,4.081
			c0,2.181-1.581,3.921-3.461,5.602l-1.2,1v0.04h4.901v2.5H34.26z"/>
	</g>
	<path d="M46.733,41.881v14.256l-4.025-4.022l-3.176,3.171l9.445,9.446l9.438-9.446l-3.175-3.171l-4.025,4.021V41.881"/>
	<rect x="50.009" y="21.921" width="16.823" height="16.53"/>
	<g>
		<path fill="#FFFFFF" d="M53.788,36.63v-1.84l1.681-1.521c2.841-2.541,4.221-4,4.261-5.521c0-1.06-0.64-1.9-2.141-1.9
			c-1.12,0-2.1,0.56-2.78,1.08l-0.86-2.18c0.98-0.74,2.501-1.34,4.261-1.34c2.941,0,4.562,1.72,4.562,4.081
			c0,2.181-1.58,3.921-3.461,5.602l-1.2,1v0.04h4.901v2.5H53.788z"/>
	</g>
	<rect x="20.345" y="66.853" fill="#666666" width="16.826" height="16.532"/>
	<g>
		<path fill="#FFFFFF" d="M27.486,70.884h-0.04l-2.48,1.18l-0.5-2.28l3.441-1.601h2.521v13.003h-2.94V70.884z"/>
	</g>
	<rect x="61.325" y="66.853" fill="#666666" width="16.826" height="16.529"/>
	<g>
		<path fill="#FFFFFF" d="M65.648,78.205c0.54,0.28,1.781,0.8,3.021,0.8c1.58,0,2.38-0.76,2.38-1.74c0-1.28-1.28-1.86-2.62-1.86
			h-1.24v-2.181h1.18c1.021-0.02,2.32-0.399,2.32-1.5c0-0.78-0.64-1.36-1.92-1.36c-1.061,0-2.181,0.46-2.721,0.78l-0.62-2.2
			c0.78-0.501,2.341-0.98,4.021-0.98c2.781,0,4.321,1.46,4.321,3.24c0,1.381-0.78,2.461-2.381,3.021v0.04
			c1.561,0.28,2.821,1.461,2.821,3.161c0,2.301-2.021,3.98-5.321,3.98c-1.681,0-3.101-0.439-3.861-0.92L65.648,78.205z"/>
	</g>
	<rect x="40.565" y="66.884" width="16.814" height="16.531"/>
	<g>
		<path fill="#FFFFFF" d="M44.34,81.553v-1.841l1.68-1.52c2.841-2.541,4.221-4.001,4.261-5.521c0-1.061-0.64-1.9-2.14-1.9
			c-1.121,0-2.101,0.56-2.781,1.08L44.5,69.67c0.98-0.74,2.501-1.34,4.262-1.34c2.94,0,4.561,1.72,4.561,4.081
			c0,2.18-1.58,3.921-3.461,5.601l-1.2,1v0.04h4.901v2.501H44.34z"/>
	</g>
</g>
<g id="Layer_2">
	<path fill="none" d="M96.092,48.8c0,26.511-21.49,48.001-47.992,48.001c-26.51,0-48-21.49-48-48.001c0-26.51,21.49-48,48-48
		C74.602,0.8,96.092,22.29,96.092,48.8z"/>
</g>
</svg>
