<?xml version="1.0" encoding="utf-8"?>
<!-- Generator: Adobe Illustrator 16.0.3, SVG Export Plug-In . SVG Version: 6.00 Build 0)  -->
<!DOCTYPE svg PUBLIC "-//W3C//DTD SVG 1.1//EN" "http://www.w3.org/Graphics/SVG/1.1/DTD/svg11.dtd">
<svg version="1.1" id="Layer_1" xmlns="http://www.w3.org/2000/svg" xmlns:xlink="http://www.w3.org/1999/xlink" x="0px" y="0px"
	 width="96px" height="96px" viewBox="0 0 96 96" enable-background="new 0 0 96 96" xml:space="preserve">
<g id="Layer_1_1_">
</g>
<circle fill="none" cx="48" cy="47.8" r="48"/>
<path d="M56.719,36.529c-0.685-1.311-2.306-1.818-3.62-1.131l-7.949,5.842c-1.313,0.686-2.393,1.159-1.806,2.28l0,0
	c0.534,1.036,1.634,0.546,2.946-0.141l9.294-3.231C56.863,39.466,57.405,37.842,56.719,36.529L56.719,36.529z"/>
<g>
	<g>
		<circle fill="#666666" cx="34.795" cy="46.125" r="3.995"/>
	</g>
</g>
<polygon stroke="#000000" stroke-width="0.8476" stroke-linecap="round" stroke-linejoin="round" stroke-miterlimit="10" points="
	21.517,42.131 16.462,49.188 26.571,49.188 "/>
<rect x="4.294" y="42.131" fill="#666666" width="7.886" height="7.886"/>
<g>
	<polygon stroke="#000000" stroke-width="0.8476" stroke-linecap="round" stroke-linejoin="round" stroke-miterlimit="10" points="
		74.117,25.506 69.063,32.563 79.172,32.563 	"/>
	<g>
		<g>
			<circle fill="#666666" cx="74.117" cy="46.125" r="3.995"/>
		</g>
	</g>
</g>
<g>
	<polygon stroke="#000000" stroke-width="0.8476" stroke-linecap="round" stroke-linejoin="round" stroke-miterlimit="10" points="
		61.763,25.506 56.708,32.563 66.817,32.563 	"/>
	<rect x="57.819" y="42.131" fill="#666666" width="7.887" height="7.886"/>
</g>
<g>
	<polygon stroke="#000000" stroke-width="0.8476" stroke-linecap="round" stroke-linejoin="round" stroke-miterlimit="10" points="
		86.472,25.506 81.417,32.563 91.526,32.563 	"/>
	<rect x="82.532" y="42.131" fill="#666666" width="7.887" height="7.886"/>
</g>
</svg>
