<?xml version="1.0" encoding="utf-8"?>
<!-- Generator: Adobe Illustrator 16.0.3, SVG Export Plug-In . SVG Version: 6.00 Build 0)  -->
<!DOCTYPE svg PUBLIC "-//W3C//DTD SVG 1.1//EN" "http://www.w3.org/Graphics/SVG/1.1/DTD/svg11.dtd">
<svg version="1.1" id="Layer_1" xmlns="http://www.w3.org/2000/svg" xmlns:xlink="http://www.w3.org/1999/xlink" x="0px" y="0px"
	 width="96px" height="96px" viewBox="0 0 96 96" enable-background="new 0 0 96 96" xml:space="preserve">
<circle fill="none" cx="48" cy="47.8" r="48"/>
<path fill="#CCCCCC" d="M6.644,36.011c0.287,1.221,1.083,3.618,1.457,4.571c0.518,1.325,1.199,4.885,2.607,5.211
	c0.498,0.116,1.428-0.643,1.772-1.024c0.608-0.672,1.042-3.874,1.945-3.901c0.892-0.028,1.169,2.053,1.517,3.083
	c0.304,0.904,1.325,2.91,1.725,3.693c0.498,0.976,1.462,2.986,1.987,3.96c0.373,0.69,1.181,2.03,1.687,2.643
	c0.397,0.484,1.155,1.524,1.584,1.981c0.459,0.492,1.288,1.84,1.96,1.811c0.626-0.026,1.245-1.477,1.647-1.96
	c0.442-0.529,1.255-1.498,1.936-1.515c0.573-0.014,1.433,0.912,1.872,1.281c0.449,0.377,1.249,1.234,1.69,1.615
	c0.444,0.385,1.232,1.279,1.636,1.701c0.493,0.516,1.364,1.674,1.891,2.154c0.913,0.832,2.647,0.832,2.647,0.832l-32.06,0.098
	L6.644,36.011z"/>
<g>
	<path fill="#8E8E8E" d="M5.938,63.718c-0.351,0-0.635-0.284-0.635-0.635V28.987c0-0.351,0.284-0.635,0.635-0.635
		s0.635,0.285,0.635,0.635v34.096C6.573,63.434,6.289,63.718,5.938,63.718z"/>
</g>
<g>
	<path d="M12.494,64.368h3.741l-0.228,1.166H13.64l-0.294,1.496h2.226l-0.229,1.155h-2.216l-0.482,2.567H11.28L12.494,64.368z"/>
</g>
<g>
	<path fill="#8E8E8E" d="M39.274,63.419H5.938c-0.351,0-0.635-0.284-0.635-0.635c0-0.352,0.284-0.635,0.635-0.635h33.336
		c0.352,0,0.635,0.283,0.635,0.635C39.91,63.135,39.626,63.419,39.274,63.419z"/>
</g>
<path fill="none" stroke="#000000" stroke-width="1.5781" stroke-linecap="round" stroke-miterlimit="10" d="M7.201,36.11
	c0.287,1.221,0.88,3.138,1.255,4.091c0.518,1.323,0.882,4.851,2.29,5.176c0.498,0.116,1.428-0.643,1.772-1.023
	c0.609-0.671,1.042-3.872,1.945-3.899c0.892-0.028,1.169,2.052,1.517,3.082c0.304,0.903,1.325,2.908,1.725,3.694
	c0.498,0.976,1.462,2.988,1.988,3.963c0.372,0.689,1.182,2.028,1.686,2.643c0.397,0.482,1.156,1.521,1.584,1.98
	c0.459,0.49,1.289,1.839,1.959,1.811c0.627-0.027,1.246-1.479,1.648-1.961c0.442-0.529,1.255-1.499,1.936-1.514
	c0.573-0.014,1.433,0.91,1.872,1.281c0.449,0.377,1.248,1.233,1.69,1.614c0.444,0.384,1.233,1.28,1.637,1.702
	c0.493,0.514,1.363,1.674,1.89,2.152c0.914,0.833,2.648,0.833,2.648,0.833"/>
<path fill="#CCCCCC" d="M90.073,62.045l-32.06-0.098c0,0,1.734,0,2.648-0.832c0.525-0.48,1.396-1.639,1.891-2.154
	c0.404-0.422,1.191-1.316,1.635-1.701c0.443-0.381,1.242-1.238,1.691-1.615c0.438-0.369,1.299-1.295,1.871-1.281
	c0.682,0.017,1.494,0.985,1.936,1.515c0.402,0.483,1.13,0.541,1.757,0.567c0.671,0.029,1.392,0.074,1.851-0.418
	c0.429-0.457,1.188-1.497,1.584-1.981c0.506-0.612,1.276-4.076,1.648-4.767c0.525-0.976,1.527-0.861,2.025-1.837
	c0.4-0.783,1.421-2.789,1.725-3.691c0.348-1.03,0.67-4.353,1.563-4.324c0.902,0.028,1.291,4.471,1.899,5.141
	c0.345,0.381,1.274,1.14,1.772,1.024c1.408-0.326,2.09-3.883,2.607-5.208c0.373-0.952,1.17-3.35,1.457-4.571L90.073,62.045z"/>
<g>
	<path fill="#8E8E8E" d="M89.869,62.042V27.959c0-0.35,0.284-0.635,0.635-0.635s0.635,0.284,0.635,0.635v34.083
		c0,0.351-0.284,0.635-0.635,0.635S89.869,62.393,89.869,62.042z"/>
</g>
<g>
	<path fill="#8E8E8E" d="M56.309,62.583c0-0.352,0.283-0.635,0.635-0.635h33.336c0.351,0,0.635,0.283,0.635,0.635
		c0,0.351-0.284,0.635-0.635,0.635H56.943C56.592,63.218,56.309,62.934,56.309,62.583z"/>
</g>
<path fill="none" stroke="#000000" stroke-width="1.5781" stroke-linecap="round" stroke-miterlimit="10" d="M57.975,61.534
	c0,0,1.734,0,2.648-0.833c0.527-0.479,1.396-1.639,1.891-2.152c0.402-0.422,1.191-1.318,1.637-1.702
	c0.441-0.381,1.24-1.237,1.689-1.614c0.438-0.371,1.301-0.488,1.873-0.475c0.682,0.015,1.492,0.178,1.934,0.707
	c0.941,0.293,1.252,0.453,1.879,0.48c0.671,0.028,1.27,0.16,1.729-0.33c0.429-0.459,1.188-1.498,1.584-1.98
	c0.563-1.377,1.315-4.666,1.688-5.357c0.525-0.98,1.488-0.274,1.986-1.25c0.4-0.786,1.422-2.789,1.726-3.691
	c0.347-1.03,0.563-5.188,1.455-5.16c0.903,0.027,1.397,5.307,2.007,5.978c0.344,0.379,1.274,1.137,1.771,1.021
	c1.408-0.326,1.772-3.851,2.291-5.174c0.374-0.952,0.967-2.869,1.254-4.09"/>
<path d="M82.803,35.062v-7.126l2.011,2.017l1.591-1.589l-4.721-4.741l-4.723,4.741l1.592,1.589l2.011-2.016v7.125"/>
<path d="M16.048,35.062v-7.126l2.011,2.017l1.591-1.589l-4.721-4.741l-4.723,4.741l1.592,1.589l2.011-2.016v7.125"/>
<g>
	<path d="M82.867,64.368h3.741l-0.229,1.166h-2.367l-0.294,1.496h2.226l-0.229,1.155H83.5l-0.482,2.567h-1.364L82.867,64.368z"/>
</g>
<path fill="#FFFFFF" stroke="#000000" stroke-width="2.378" stroke-miterlimit="10" d="M12.25,18.61h11.437
	c0,0,6.728,0.369,8.619-0.662c1.823-0.995,4.887-6.518,7.459-6.432c2.572,0.086,5.253,7.154,7.458,7.094
	c4.807-0.132,6.571,8.072,9.779,8.486c2.07,0.268,4.645-3.848,6.133-5.668c1.778-2.176,1.831-13.792,4.641-13.724
	c2.538,0.062,2.333,11.236,4.476,12.597c1.61,1.022,7.624,0.132,7.624,0.132"/>
<path fill="none" stroke="#999999" stroke-width="1.5098" stroke-linecap="round" stroke-linejoin="round" stroke-miterlimit="10" d="
	M57.663,86.648c0,0,2.623-14.573,17.93-17.425"/>
<path fill="none" stroke="#000000" stroke-width="0.7549" stroke-linecap="round" stroke-linejoin="round" stroke-miterlimit="10" d="
	M76.935,73.774"/>
<path fill="#949494" d="M63.321,88.846c0.01,0.033,0.03,0.065-0.002,0.098c-0.011-0.023-0.022-0.046-0.034-0.068
	C63.297,88.864,63.31,88.855,63.321,88.846z"/>
<path fill="#CCCCCC" stroke="#666666" stroke-width="0.7549" stroke-linecap="round" stroke-linejoin="round" stroke-miterlimit="10" d="
	M60.324,94.375l-1.129-5.333c0.831-2.55,2.029-5.979,5.075-5.672c1.362,0.139,2.14,2.048,3.07,3.164
	c0.214,0.255,2.374,3.612,2.767,2.981c0.163-0.266-1.001-2.511-1.171-2.791c-0.64-1.071-0.94-1.736-1.699-2.729
	c-1.408-1.848-2.85-2.508-2.15-5.252c0,0,0.776-2.08,2.597-2.255c2.145-0.205,3.348,0.769,4.723,2.455
	c0.781,0.96,1.274,1.446,2.104,2.33c0.218,0.233,1.983,1.884,2.235,1.734c0.6-0.358-1.792-2.964-1.981-3.245
	c-0.826-1.221-2.552-2.717-2.476-4.285c0.169-3.512,3.29-4.389,5.604-4.972l4.5,3.184c0,0-2.979,11.937-6.068,14.685
	C73.013,91.32,60.324,94.375,60.324,94.375z"/>
<path fill="#666666" d="M69.367,71.564L69.367,71.564c-0.365-0.896-0.199-1.814,0.37-2.048l1.421-0.585
	c0.572-0.234,1.333,0.303,1.702,1.2l0,0"/>
<path fill="#666666" d="M61.936,76.221L61.936,76.221c-0.634-0.627-0.821-1.464-0.421-1.867l1.001-1.007
	c0.401-0.404,1.239-0.222,1.872,0.405l0,0"/>
<path fill="#666666" d="M57.792,83.642L57.792,83.642c-0.816-0.357-1.294-1.07-1.064-1.592l0.569-1.299
	c0.229-0.522,1.076-0.653,1.893-0.296l0,0"/>
<path fill="#CCCCCC" stroke="#000000" stroke-width="1.5" stroke-linecap="round" stroke-linejoin="round" stroke-miterlimit="10" d="
	M67.658,76.464c2.145-0.205,3.348,0.769,4.723,2.455c0.781,0.96,1.274,1.446,2.104,2.33"/>
<path fill="#CCCCCC" stroke="#000000" stroke-width="1.5" stroke-linecap="round" stroke-linejoin="round" stroke-miterlimit="10" d="
	M68.911,86.699c-0.64-1.071-0.94-1.736-1.699-2.729c-1.408-1.848-2.85-2.508-2.15-5.252c0,0,0.776-2.08,2.597-2.255"/>
<g>
	
		<path fill="none" stroke="#999999" stroke-width="1.5098" stroke-linecap="round" stroke-linejoin="round" stroke-miterlimit="10" d="
		M20.587,69.097c15.307,2.852,17.93,17.524,17.93,17.524"/>
	
		<path fill="#CCCCCC" stroke="#666666" stroke-width="0.7549" stroke-linecap="round" stroke-linejoin="round" stroke-miterlimit="10" d="
		M19.856,88.348c-3.09-2.748-6.068-14.784-6.068-14.784l4.5-3.184c2.313,0.583,5.435,1.56,5.604,5.071
		c0.076,1.568-1.649,3.064-2.476,4.285c-0.189,0.281-2.581,2.787-1.981,3.146c0.252,0.149,2.018-1.401,2.235-1.635
		c0.83-0.884,1.323-1.37,2.104-2.33c1.375-1.687,2.578-2.66,4.723-2.455c1.82,0.175,2.597,2.255,2.597,2.255
		c0.699,2.744-0.742,3.404-2.15,5.252c-0.759,0.992-1.06,1.657-1.699,2.729c-0.17,0.28-1.334,2.525-1.171,2.791
		c0.393,0.631,2.553-2.727,2.767-2.981c0.931-1.116,1.708-3.025,3.07-3.164c3.046-0.308,4.244,3.122,5.075,5.672l-1.129,5.233
		C35.856,94.248,23.167,91.293,19.856,88.348z"/>
	<path fill="#666666" d="M23.32,70.104L23.32,70.104c0.369-0.897,1.13-1.534,1.702-1.3l1.421,0.685
		c0.569,0.233,0.735,1.151,0.37,2.048l0,0"/>
	<path fill="#666666" d="M31.792,73.725L31.792,73.725c0.633-0.627,1.471-0.81,1.872-0.405l1.001,1.007
		c0.4,0.403,0.213,1.24-0.421,1.867l0,0"/>
	<path fill="#666666" d="M36.991,80.428L36.991,80.428c0.816-0.357,1.664-0.227,1.893,0.296l0.569,1.299
		c0.229,0.521-0.248,1.234-1.064,1.592l0,0"/>
</g>
<path fill="#CCCCCC" stroke="#000000" stroke-width="1.5" stroke-linecap="round" stroke-linejoin="round" stroke-miterlimit="10" d="
	M13.871,73.33l4.5-3.184c2.313,0.583,5.434,1.56,5.604,5.071c0.076,1.568-1.65,3.064-2.477,4.285
	c-0.189,0.281-2.58,2.787-1.98,3.146"/>
</svg>
