<?xml version="1.0" encoding="utf-8"?>
<!-- Generator: Adobe Illustrator 16.0.3, SVG Export Plug-In . SVG Version: 6.00 Build 0)  -->
<!DOCTYPE svg PUBLIC "-//W3C//DTD SVG 1.1//EN" "http://www.w3.org/Graphics/SVG/1.1/DTD/svg11.dtd">
<svg version="1.1" id="Layer_1" xmlns="http://www.w3.org/2000/svg" xmlns:xlink="http://www.w3.org/1999/xlink" x="0px" y="0px"
	 width="96px" height="96px" viewBox="0 0 96 96" enable-background="new 0 0 96 96" xml:space="preserve">
<circle fill="none" cx="48" cy="48" r="48"/>
<path fill="#CCCCCC" d="M21.787,43.243c0.415,1.763,1.563,5.224,2.104,6.599c0.748,1.904,1.732,7.012,3.764,7.478
	c0.718,0.164,2.062-0.919,2.558-1.465c0.878-0.964,1.504-5.563,2.808-5.603c1.288-0.04,1.688,2.948,2.19,4.43
	c0.438,1.296,1.912,4.162,2.49,5.286c0.719,1.401,2.11,4.303,2.869,5.71c0.537,0.996,1.705,2.931,2.435,3.815
	c0.573,0.697,0.582-0.762,1.201-0.102c0.663,0.708,1.221-3.979,2.189-4.021c0.905-0.037,4.96,6.563,5.54,5.865
	c0.637-0.764,0.374-1.261,1.357-1.284c0.826-0.02,5.014-1.646,5.646-1.112c0.647,0.544,2.495,3.318,3.134,3.87
	c0.64,0.554,2.014,2.229,2.6,2.838c0.712,0.743,0.602,2.553,1.362,3.245c1.319,1.201,1.752,2.106,1.752,2.106L21.064,81.04
	L21.787,43.243z"/>
<g>
	<line fill="none" x1="20.769" y1="32.668" x2="20.769" y2="81.815"/>
	<path fill="#8E8E8E" d="M20.769,82.732c-0.506,0-0.916-0.41-0.916-0.917V32.668c0-0.505,0.41-0.916,0.916-0.916
		s0.917,0.411,0.917,0.916v49.147C21.686,82.322,21.275,82.732,20.769,82.732z"/>
</g>
<g>
	<path fill="none" stroke="#000000" stroke-width="2.6014" stroke-linecap="round" stroke-miterlimit="10" d="M33.307,81.391"/>
</g>
<text transform="matrix(1 0 0 1 40.7334 94.7158)" font-family="'MyriadPro-BoldIt'" font-size="13.6692">F</text>
<g>
	<line fill="none" x1="68.895" y1="81.815" x2="20.769" y2="81.815"/>
	<path fill="#8E8E8E" d="M68.895,82.732H20.769c-0.506,0-0.916-0.41-0.916-0.917s0.41-0.917,0.916-0.917h48.125
		c0.507,0,0.916,0.41,0.916,0.917S69.401,82.732,68.895,82.732z"/>
</g>
<path fill="none" stroke="#000000" stroke-width="3" stroke-linecap="round" stroke-miterlimit="10" d="M22.592,43.385
	c0.554,2.357,2.371,12.709,5.117,13.338c3.862,0.886,2.88-6.99,5.366-7.067c1.642-0.05,7.591,18.231,9.917,20.712
	c0.27,0.286,2.76-6.75,3.518-6.783c1.276-0.053,3.402,5.892,4.053,6.871c1.243,1.867,7.007-5.012,9.562-1.744
	c3.383,4.324,6.778,12.664,12.724,13.256"/>
<path d="M48.096,60.239V49.414l3.057,3.055l2.411-2.408l-7.171-7.176l-7.167,7.176l2.41,2.408l3.057-3.054v10.824"/>
<path d="M31.217,29.163v10.826l-3.057-3.055l-2.412,2.408l7.173,7.174l7.167-7.174l-2.412-2.408l-3.057,3.053V29.163"/>
<path d="M58.115,47.517v10.829l-3.057-3.055l-2.411,2.408l7.173,7.173l7.166-7.173l-2.41-2.408l-3.058,3.053V47.517"/>
<g>
	<path stroke="#000000" stroke-width="0.4" stroke-miterlimit="10" d="M51.488,24.921c0,0-0.051,0-0.149-0.05
		c-0.097-0.05-0.247-0.1-0.396-0.148c-0.099-0.051-0.148-0.051-0.248-0.101c-0.099-0.05-0.198-0.05-0.297-0.1
		c-0.1-0.05-0.247-0.05-0.346-0.1c-0.149-0.05-0.248-0.05-0.396-0.1c-0.297-0.048-0.594-0.149-0.941-0.199
		c-0.347-0.048-0.696-0.098-1.093-0.098c-0.397-0.051-0.748-0.051-1.145-0.051c-0.199,0-0.399,0-0.596,0c-0.2,0-0.4,0-0.599,0.051
		c-0.399,0.05-0.797,0.05-1.195,0.098c-0.198,0.05-0.396,0.05-0.597,0.101c-0.1,0-0.198,0.05-0.298,0.05h-0.05l0,0l0,0l0,0l0,0
		h-0.05l-0.149,0.048c-0.199,0.05-0.397,0.1-0.548,0.149c-0.198,0.05-0.348,0.1-0.498,0.149c-0.347,0.101-0.646,0.199-0.943,0.348
		c-0.149,0.05-0.299,0.1-0.398,0.149c-0.15,0.05-0.25,0.1-0.35,0.15c-0.248,0.1-0.398,0.198-0.598,0.298
		c-0.148,0.099-0.299,0.148-0.348,0.198c-0.099,0.05-0.099,0.1-0.099,0.1c-0.05,0.05-0.1,0-0.1,0c0-0.05,0-0.1,0-0.1l0,0
		c0,0,0.05-0.05,0.1-0.1c0.099-0.05,0.198-0.148,0.347-0.248c0.15-0.099,0.35-0.249,0.549-0.349c0.1-0.05,0.248-0.149,0.348-0.199
		c0.15-0.05,0.25-0.148,0.399-0.199c0.298-0.149,0.597-0.299,0.944-0.447c0.148-0.051,0.348-0.149,0.547-0.199
		c0.2-0.051,0.35-0.101,0.548-0.2l0.149-0.05h0.05l0,0l0,0l0,0l0,0h0.05c0.1-0.05,0.199-0.05,0.298-0.1
		c0.2-0.05,0.399-0.1,0.599-0.149c0.398-0.1,0.845-0.199,1.243-0.249c0.199-0.05,0.398-0.05,0.648-0.1
		c0.196,0,0.396-0.05,0.646-0.05c0.398-0.05,0.847-0.05,1.244-0.099c0.397,0,0.796,0,1.192,0c0.396,0,0.742,0.049,1.04,0.099
		c0.148,0,0.296,0.05,0.447,0.05c0.146,0.05,0.295,0.05,0.395,0.1c0.148,0,0.247,0.05,0.397,0.1c0.097,0.05,0.246,0.05,0.345,0.1
		c0.198,0.05,0.298,0.1,0.396,0.1c0.1,0.05,0.148,0.05,0.148,0.05c0.397,0.1,0.645,0.547,0.496,0.945
		c-0.099,0.398-0.545,0.647-0.941,0.498C51.537,24.971,51.537,24.971,51.488,24.921z"/>
	<path stroke="#000000" stroke-width="0.4" stroke-miterlimit="10" d="M50.497,27.907c0,0-0.047,0-0.099,0.05
		c-0.05,0-0.148,0.05-0.247,0.101c-0.099,0.05-0.198,0.099-0.347,0.199c-0.148,0.098-0.297,0.198-0.495,0.297
		c-0.396,0.25-0.892,0.398-1.49,0.498c-0.248,0-0.546,0.05-0.845,0.05h-0.2c-0.099,0-0.148,0-0.198,0h-0.249h-0.25
		c-0.297-0.05-0.597-0.099-0.845-0.149c-0.299-0.05-0.548-0.148-0.797-0.248c-0.25-0.1-0.496-0.151-0.745-0.25
		c-0.249-0.1-0.448-0.198-0.647-0.298c-0.397-0.199-0.696-0.349-0.896-0.498s-0.35-0.199-0.35-0.199
		c-0.049-0.048-0.1-0.147-0.049-0.199c0.049-0.05,0.1-0.05,0.148-0.05l0,0c0,0,0.15,0.05,0.35,0.101
		c0.249,0.05,0.546,0.197,0.945,0.298c0.198,0.049,0.398,0.099,0.647,0.198c0.247,0.05,0.448,0.1,0.695,0.199
		c0.498,0.101,1.046,0.199,1.542,0.25h0.2h0.199c0.05,0,0.149,0,0.199,0h0.197c0.251,0,0.5,0,0.748-0.051
		c0.25-0.05,0.497-0.05,0.696-0.099c0.199-0.05,0.397-0.101,0.595-0.15s0.348-0.149,0.545-0.199c0.149-0.05,0.347-0.1,0.495-0.1
		s0.248,0,0.346,0c0.05,0,0.05,0,0.1,0h0.052c0.099,0,0.146,0.1,0.099,0.149C50.549,27.857,50.549,27.857,50.497,27.907z"/>
	<path stroke="#000000" stroke-width="0.4" stroke-miterlimit="10" d="M56.254,23.528c0,0,0.049,0,0.148-0.05s0.25-0.05,0.398-0.1
		c0.1,0,0.199-0.05,0.346-0.1c0.102-0.05,0.252-0.05,0.4-0.1s0.248-0.05,0.396-0.1c0.15,0,0.301-0.049,0.449-0.049
		c0.35-0.05,0.697-0.05,1.045-0.1c0.398,0,0.748,0,1.193,0c0.398,0,0.797,0.05,1.246,0.1c0.199,0,0.398,0.049,0.645,0.049
		c0.201,0.05,0.4,0.05,0.648,0.1c0.398,0.05,0.846,0.149,1.244,0.249c0.199,0.05,0.398,0.1,0.598,0.149
		c0.1,0.05,0.199,0.05,0.299,0.1h0.049l0,0l0,0l0,0l0,0h0.051l0.148,0.05c0.199,0.05,0.348,0.1,0.547,0.199
		c0.201,0.05,0.348,0.151,0.547,0.199c0.35,0.151,0.648,0.299,0.947,0.448c0.148,0.05,0.248,0.15,0.396,0.199
		c0.15,0.05,0.25,0.149,0.35,0.199c0.199,0.149,0.398,0.249,0.549,0.35c0.148,0.099,0.248,0.198,0.348,0.248
		c0.098,0.049,0.098,0.099,0.098,0.099l0,0c0.049,0.05,0.049,0.1,0,0.1c-0.051,0.05-0.098,0.05-0.098,0c0,0-0.049-0.05-0.1-0.1
		c-0.1-0.05-0.199-0.099-0.348-0.198c-0.15-0.099-0.35-0.198-0.598-0.299c-0.1-0.05-0.25-0.1-0.35-0.149
		c-0.148-0.05-0.248-0.1-0.398-0.149c-0.299-0.1-0.598-0.249-0.943-0.348c-0.152-0.05-0.35-0.1-0.5-0.149
		c-0.197-0.05-0.348-0.098-0.547-0.148l-0.148-0.051H65.26l0,0l0,0l0,0l0,0h-0.049c-0.1,0-0.199-0.05-0.299-0.05
		c-0.199-0.048-0.4-0.048-0.598-0.098c-0.398-0.051-0.795-0.101-1.193-0.101c-0.199,0-0.398,0-0.6-0.049c-0.195,0-0.396,0-0.596,0
		c-0.398,0-0.797,0-1.145,0.049c-0.396,0.05-0.746,0.05-1.094,0.101c-0.35,0.05-0.648,0.098-0.945,0.199
		c-0.15,0.05-0.299,0.05-0.398,0.098c-0.15,0.05-0.25,0.1-0.35,0.1c-0.1,0.05-0.199,0.05-0.299,0.1c-0.098,0.05-0.197,0.05-0.25,0.1
		c-0.146,0.05-0.299,0.101-0.395,0.149c-0.1,0.05-0.15,0.05-0.15,0.05c-0.398,0.149-0.846,0-0.996-0.398
		c-0.15-0.396-0.064-0.984,0.398-0.995C56.203,23.528,56.254,23.528,56.254,23.528z"/>
	<path stroke="#000000" stroke-width="0.4" stroke-miterlimit="10" d="M57.795,27.609L57.795,27.609c0.049,0,0.049,0,0.1,0
		c0.1,0,0.199,0,0.35,0c0.148,0,0.297,0.049,0.447,0.148c0.148,0.05,0.348,0.149,0.547,0.199s0.4,0.101,0.598,0.15
		c0.199,0.049,0.449,0.099,0.695,0.099c0.25,0.051,0.498,0.051,0.797,0.051h0.199c0.051,0,0.15,0,0.199,0c0.15,0,0.25,0,0.398,0
		c0.248-0.051,0.547-0.051,0.797-0.101c0.248-0.049,0.498-0.099,0.795-0.149c0.498-0.1,0.945-0.249,1.344-0.349
		c0.398-0.099,0.748-0.247,0.945-0.297c0.25-0.101,0.348-0.101,0.348-0.101l0,0c0.051,0,0.152,0,0.199,0.101
		c0,0.05,0,0.147-0.047,0.147c0,0-0.102,0.101-0.35,0.199c-0.199,0.1-0.547,0.299-0.945,0.448c-0.398,0.199-0.848,0.348-1.395,0.548
		c-0.248,0.1-0.547,0.149-0.795,0.198c-0.299,0.05-0.549,0.1-0.846,0.149c-0.15,0-0.299,0.05-0.449,0.05c-0.049,0-0.148,0-0.199,0
		h-0.199c-0.299,0-0.547,0-0.846-0.05c-0.297-0.049-0.547-0.099-0.795-0.197c-0.25-0.1-0.498-0.199-0.697-0.3
		c-0.199-0.099-0.35-0.199-0.498-0.297c-0.148-0.101-0.248-0.149-0.348-0.199c-0.102-0.051-0.201-0.051-0.25-0.101
		c-0.051,0-0.1,0-0.1,0c-0.1,0-0.15-0.1-0.1-0.149C57.695,27.658,57.746,27.609,57.795,27.609z"/>
	<path fill="none" stroke="#000000" stroke-width="1.2" stroke-linecap="round" stroke-linejoin="round" stroke-miterlimit="10" d="
		M53.717,2.578c-15.003,0-16.396,15.974-15.501,20.204c2.59-1.543,9.307-3.433,16.15-3.483c6.863-0.05,12.537,1.692,15.672,3.185
		C71.48,18.85,68.744,2.578,53.717,2.578z"/>
	<path stroke="#000000" stroke-width="0.4" stroke-miterlimit="10" d="M52.132,33.084l-0.049,0.051c0,0,0,0.05-0.049,0.05
		c0,0.05-0.051,0.05-0.051,0.1s0,0.151,0.051,0.201c0.049,0.049,0.098,0.099,0.147,0.149s0.148,0.05,0.198,0l0,0l0.1-0.05
		l0.099,0.151c0.05,0.1,0.198,0.2,0.298,0.25c0.148,0.1,0.247,0.15,0.395,0.199c0.15,0.05,0.297,0.101,0.446,0.15
		s0.3,0.05,0.449,0.05h0.05h0.05c0.049,0,0.049,0,0.1,0c0.049,0,0.147,0,0.195-0.05c0.15-0.05,0.299-0.101,0.449-0.15
		c0.146-0.049,0.246-0.149,0.396-0.199c0.15-0.1,0.248-0.2,0.348-0.301l0.1-0.1l0.1,0.05l0,0c0.051,0,0.15,0,0.25-0.05
		s0.148-0.099,0.199-0.148c0.049-0.05,0.1-0.151,0.1-0.201s-0.051-0.1-0.1-0.15l0,0c-0.1-0.05-0.1-0.15-0.051-0.25
		c0.051-0.1,0.15-0.1,0.25-0.048c0.051,0.048,0.15,0.098,0.15,0.198c0.049,0.051,0.1,0.151,0.1,0.251c0,0.201-0.051,0.35-0.15,0.449
		c-0.1,0.101-0.199,0.202-0.35,0.301c-0.148,0.05-0.297,0.1-0.447,0.05l0,0l0.199-0.05c-0.049,0.1-0.1,0.15-0.15,0.249
		c-0.049,0.051-0.1,0.15-0.199,0.2c-0.148,0.149-0.297,0.25-0.445,0.35c-0.152,0.099-0.35,0.148-0.498,0.198
		c-0.1,0-0.198,0.05-0.298,0.05c-0.051,0-0.099,0-0.147,0h-0.051c0,0,0,0-0.049,0h-0.05c-0.199,0-0.399-0.05-0.549-0.099
		c-0.198-0.05-0.348-0.099-0.495-0.198s-0.296-0.2-0.444-0.3c-0.05-0.05-0.149-0.149-0.198-0.2c-0.05-0.099-0.099-0.149-0.149-0.299
		l0.198,0.1l0,0c-0.147,0.05-0.347,0.05-0.446-0.05c-0.148-0.05-0.247-0.15-0.296-0.301c-0.051-0.149-0.1-0.298-0.1-0.449
		c0-0.05,0.049-0.15,0.049-0.2c0-0.051,0.051-0.051,0.051-0.101s0.049-0.05,0.049-0.1c0.049-0.1,0.149-0.1,0.247-0.048
		C52.132,32.884,52.182,32.983,52.132,33.084L52.132,33.084L52.132,33.084z"/>
	<path stroke="#000000" stroke-width="0.4" stroke-miterlimit="10" d="M43.143,33.785c0,0,0.299,0.3,0.847,0.749
		c0.546,0.498,1.343,1.145,2.338,1.891c0.996,0.748,2.189,1.594,3.477,2.34c0.646,0.397,1.387,0.747,2.129,0.994
		c0.198,0.101,0.396,0.15,0.546,0.2c0.198,0.05,0.396,0.1,0.595,0.149c0.395,0.1,0.792,0.148,1.142,0.148
		c0.198,0,0.396,0,0.595-0.048c0.199,0,0.398-0.05,0.596-0.1c0.398-0.1,0.797-0.199,1.145-0.35c0.748-0.297,1.443-0.646,2.141-0.994
		c1.344-0.746,2.537-1.592,3.533-2.34c0.994-0.746,1.791-1.393,2.338-1.891c0.549-0.449,0.848-0.749,0.848-0.749
		c0.049-0.05,0.148-0.05,0.148,0c0.051,0.05,0.051,0.101,0,0.15c0,0-0.299,0.299-0.846,0.799c-0.549,0.498-1.293,1.194-2.289,1.941
		c-0.498,0.396-1.045,0.796-1.594,1.193c-0.596,0.398-1.191,0.847-1.889,1.194c-0.697,0.399-1.395,0.748-2.189,1.046
		c-0.4,0.148-0.799,0.248-1.195,0.398c-0.4,0.1-0.896,0.149-1.291,0.149c-0.896,0-1.736-0.199-2.48-0.498
		c-0.792-0.299-1.486-0.647-2.178-1.046c-0.694-0.397-1.29-0.796-1.886-1.244c-0.597-0.397-1.145-0.846-1.592-1.193
		c-0.996-0.796-1.741-1.495-2.289-1.991c-0.548-0.5-0.797-0.799-0.797-0.799l0,0c-0.05-0.051-0.05-0.15,0-0.15
		C43.043,33.735,43.093,33.735,43.143,33.785z"/>
	<g>
		<path stroke="#000000" stroke-width="0.4" stroke-miterlimit="10" d="M54.116,37.471l-1.24-0.149c-0.148,0-0.248-0.149-0.198-0.3
			c0-0.149,0.148-0.247,0.297-0.197l1.191,0.147l1.189-0.147c0.15,0,0.25,0.098,0.299,0.197c0,0.15-0.098,0.25-0.197,0.3
			L54.116,37.471z"/>
	</g>
</g>
<g>
	<g>
		<path fill="#666666" d="M43.002,12.681c1.493,0,2.695,1.209,2.695,2.699s-1.202,2.699-2.695,2.699
			c-1.491,0-2.699-1.209-2.699-2.699S41.511,12.681,43.002,12.681z"/>
	</g>
</g>
<g>
	<g>
		<path fill="#666666" d="M54.314,8.003c2.039,0,3.683,1.652,3.683,3.688c0,2.037-1.644,3.689-3.683,3.689
			c-2.038,0-3.689-1.652-3.689-3.689C50.625,9.655,52.276,8.003,54.314,8.003z"/>
	</g>
</g>
<g>
	<g>
		<path fill="#666666" d="M46.355,6.964c1.034,0,1.866,0.837,1.866,1.869c0,1.032-0.832,1.869-1.866,1.869
			c-1.032,0-1.869-0.837-1.869-1.869C44.486,7.801,45.323,6.964,46.355,6.964z"/>
	</g>
</g>
<g>
	<g>
		<path fill="#666666" d="M63.506,10.702c2.039,0,3.684,1.652,3.684,3.688c0,2.037-1.645,3.689-3.684,3.689
			c-2.037,0-3.689-1.652-3.689-3.689C59.816,12.354,61.469,10.702,63.506,10.702z"/>
	</g>
</g>
</svg>
