<?xml version="1.0" encoding="utf-8"?>
<!-- Generator: Adobe Illustrator 16.0.3, SVG Export Plug-In . SVG Version: 6.00 Build 0)  -->
<!DOCTYPE svg PUBLIC "-//W3C//DTD SVG 1.1//EN" "http://www.w3.org/Graphics/SVG/1.1/DTD/svg11.dtd">
<svg version="1.1" id="Layer_1" xmlns="http://www.w3.org/2000/svg" xmlns:xlink="http://www.w3.org/1999/xlink" x="0px" y="0px"
	 width="96px" height="96px" viewBox="0 0 96 96" enable-background="new 0 0 96 96" xml:space="preserve">
<g>
	<path fill="#FCFCFC" d="M85.621,39.818c-0.33-0.252-0.662-0.503-0.991-0.756c0.153-0.419,0.771-0.791,0.124-1.292
		c0.072-0.44,0.155-0.876,0.459-1.227c0.126-0.439,0.18-0.938,0.18-1.339c0.002-1.413,0.682-2.917-0.376-4.239
		c0.006-0.108,0.016-0.216,0.021-0.325c0.166-0.135,0.269-0.268-0.024-0.378c0.296-1.008-0.202-1.895-0.41-2.828
		c0.406-0.665,0.214-1.352-0.01-1.996c-0.3-0.845-0.692-1.654-1.047-2.479c0.016-0.654-0.495-1.085-0.735-1.627
		c-1.926-4.341-4.962-7.757-8.843-10.458c-2.42-1.686-5.152-2.681-7.909-3.621c-0.542-0.681-1.085-1.361-1.624-2.046
		c-2.84-3.635-3.823-3.141-6.41,0.225c-0.328,0.333-0.763,0.602-0.791,1.225c0.678-0.12,0.851-0.626,1.146-1.001
		c0.569-0.614,1.119-1.253,1.72-1.839c0.752-0.739,1.605-0.798,2.346-0.026c0.934,0.973,1.782,2.029,2.733,3.114
		c-0.399,0.03-0.664,0.052-0.934,0.071l0.028,0.016c-0.037-0.202-0.104-0.138-0.175-0.018c-2.63,0.21-5.309-0.362-7.895,0.56
		c-1.27,0.454-2.571,0.808-3.859,1.205c-0.704,0.069-1.06,0.728-1.646,0.978c-2.819,1.196-5.033,3.159-6.957,5.472
		c-2.11,2.531-4.027,5.187-4.795,8.485c-1.068,1.008-0.73,2.58-1.521,3.769c-0.686-0.698-1.416-1.711-2.098-0.017
		c-0.101,0.157-0.282,0.312-0.285,0.471c-0.058,3.303-0.16,6.603-0.216,9.903c-0.044,2.57,1.048,3.093,3.092,1.992
		c1.132,3.06,2.145,6.13,4.083,8.865c2.443,3.452,5.327,6.267,9.145,8.105c-0.03,0.022-0.063,0.05-0.091,0.074
		c0.041,0.014,0.095,0.014,0.127,0.034c0.942,0.756,2.065,1.103,3.207,1.419c3.113,1.137,6.371,0.748,9.577,0.88
		c1.071-0.275,2.142-0.538,3.207-0.832c3.033-0.83,5.896-1.987,8.168-4.274c2.213-1.229,3.607-3.278,5.081-5.203
		c1.938-2.531,3.194-5.446,3.984-8.556c0.24-0.26,0.461-0.61,0.872-0.234"/>
	<path fill="#4B4B4B" d="M84.753,37.771c0.648,0.5,0.029,0.871-0.124,1.292c-0.246,0.382-0.552,0.754-0.22,1.239
		c-0.792,3.108-2.048,6.024-3.986,8.558c-1.471,1.925-2.865,3.972-5.081,5.203c0.788-3.083-0.016-5.412-3.412-6.31
		c-2.936-0.771-5.197-2.675-6.578-5.563c-0.876-1.832-1.272-3.815-2.144-5.654c-1.103-2.328-2.167-4.701-2.481-7.33
		c-0.061-0.505,0.171-0.947-0.062-1.547c-0.526-1.375-0.685-2.902-0.954-4.373c-0.775-4.264-2.134-8.229-5.211-11.479
		c-0.833-0.881-1.973-1.674-2.153-3.066c1.288-0.398,2.589-0.751,3.859-1.206c2.586-0.922,5.267-0.349,7.894-0.56
		c0.059,0.01,0.118,0.017,0.177,0.019l1.783,0.261c0.189,0.065-0.638,0.125,0,0c2.757,0.94,5.491,1.935,7.91,3.621
		c3.881,2.701,6.915,6.118,8.845,10.458c0.236,0.543,0.747,0.974,0.731,1.628c0.151,1.296,0.788,2.513,0.646,3.858
		c-0.829-0.059-1.648,0.03-2.163,0.741c-1.503,2.061-3.194,6-0.982,9.099C82.054,38.063,83.088,38.459,84.753,37.771z
		 M76.742,31.911c0.052-1.842,0.06-3.687-0.626-5.438c-0.978-2.501-2.962-4.021-5.286-5.113c-1.254-0.592-2.519-1.299-4.04-0.902
		c-1.916,0.501-2.801,2-3.522,3.599c-1.152,2.55-1.045,5.256-0.299,7.828c0.881,3.041,2.349,5.9,4.678,8.105
		c2.859,2.709,7.216,1.386,8.399-2.372C76.637,35.749,76.828,33.852,76.742,31.911z"/>
	<path fill="#8B8B8B" d="M52.349,8.739c0.18,1.393,1.32,2.186,2.153,3.067c3.077,3.25,4.436,7.216,5.212,11.479
		c0.268,1.47,0.427,2.997,0.952,4.374c0.232,0.6,0.001,1.041,0.062,1.545c0.316,2.629,1.379,5.005,2.481,7.331
		c0.874,1.839,1.269,3.824,2.145,5.654c1.381,2.886,3.641,4.791,6.577,5.563c3.396,0.895,4.201,3.226,3.413,6.309
		c-2.272,2.287-5.135,3.442-8.167,4.272c-1.064,0.296-2.135,0.557-3.209,0.832c0.306-1.744,0.98-3.424,0.854-5.241
		c-0.134-1.961-0.6-3.81-1.126-5.707c-0.736-2.634-1.612-5.376-1.143-8.229c0.2-1.254-0.301-1.594-1.439-1.187
		c0-0.316-0.005-0.631-0.005-0.945c1.058-0.09,0.935-0.614,0.599-1.379c-0.587-1.328-1.08-2.69-1.465-4.1
		c-1.067-3.978-2.372-7.848-5.551-10.745l-0.026-0.021c-1.646-1.479-3.623-2.243-5.751-2.69c-0.799,0-0.799,0-1.384,0
		c-0.508,0.089-1.008,0.211-1.519,0.266c-2.622,0.284-5.002,2.333-5.837,4.762c-0.937,2.73-0.678,5.625-1.411,8.39
		c-0.501,1.901-0.367,3.923-0.346,5.903c0.005,0.454,0.131,0.992-0.551,1.113l-0.021-0.022c-0.195-1.005-0.091-2.068-0.568-3.022
		c0.228-0.211,0.268-0.473,0.21-0.761c0-0.111,0.003-0.225,0.003-0.334c0.018-1.779,0.031-3.557,0.046-5.336
		c-0.311-0.317-0.073-0.526,0.149-0.738c0.422-1.823,0.842-3.646,1.264-5.47c0.767-3.298,2.685-5.955,4.794-8.486
		c1.924-2.313,4.139-4.274,6.957-5.471C51.288,9.466,51.644,8.808,52.349,8.739z"/>
	<path fill="#B5B5B5" d="M61.113,38.801c1.143-0.407,1.642-0.066,1.439,1.187c-0.468,2.853,0.408,5.595,1.145,8.229
		c0.524,1.897,0.99,3.746,1.126,5.707c0.125,1.817-0.547,3.497-0.851,5.241c-3.208-0.13-6.466,0.259-9.579-0.878
		c-0.896-0.902-2.03-1.298-3.244-1.525c-3.815-1.845-6.701-4.655-9.145-8.109c-1.937-2.734-2.95-5.804-4.082-8.862
		c-0.019-0.144-0.037-0.292-0.056-0.437c0.684-0.121,0.557-0.658,0.551-1.112c-0.021-1.979-0.156-4.002,0.346-5.903
		c0.733-2.764,0.474-5.66,1.411-8.39c0.835-2.429,3.217-4.479,5.837-4.763c0.509-0.055,1.01-0.175,1.519-0.267
		c0.703,0,0.601,0,1.384,0c2.129,0.447,4.104,1.21,5.75,2.687c-0.484-0.182-0.944-0.222-1.046,0.428
		c-0.044,0.268,0.159,0.554,0.486,0.561c0.714,0.014,0.641-0.488,0.586-0.964c3.181,2.896,4.484,6.767,5.551,10.744
		c0.385,1.41,0.878,2.771,1.465,4.1c0.337,0.764,0.461,1.289-0.598,1.379c-0.743-1.989-1.696-3.927-2.179-5.978
		c-1.024-4.337-3.791-6.842-7.84-8.233c-3.074-1.055-6.922,0.774-7.927,3.756c-0.826,2.451-0.91,4.959-1.318,7.443
		c-0.4,1.75-0.385,3.502-0.007,5.253c0.047,0.459,0.079,0.911,0.183,1.378c1.053,4.744,4.012,8.47,6.708,12.273
		c2.868,4.037,8.147,3.41,10.484-0.37c0.727-1.174,1.236-2.424,1.376-3.81c0.457-2.447,0.159-4.92,0.226-7.385
		C61.309,41.093,60.937,39.92,61.113,38.801z"/>
	<path fill="#8B8B8B" d="M84.753,37.771c-1.665,0.687-2.699,0.292-3.705-1.114c-2.212-3.097-0.521-7.038,0.982-9.099
		c0.514-0.709,1.335-0.8,2.163-0.74c-0.003,0-0.063,0.011-0.063,0.011c0.097,0.119,0.19,0.235,0.285,0.354
		c0.062,0.084,0.123,0.167,0.19,0.251c0.205,0.934,0.703,1.82,0.41,2.829c0.011,0.123,0.015,0.252,0.022,0.378
		c-0.006,0.108-0.014,0.217-0.021,0.325c0.295,1.855-0.158,3.73,0.198,5.579C84.906,36.896,84.826,37.331,84.753,37.771z"/>
	<path fill="#1D1D1D" d="M37.867,39.355c0.018,0.144,0.036,0.292,0.055,0.436c-2.042,1.101-3.137,0.578-3.091-1.992
		c0.056-3.301,0.158-6.601,0.215-9.903c0.003-0.16,0.184-0.313,0.284-0.471c0.153,0.013,0.306,0.032,0.46,0.044
		c-0.15,3.558-0.427,7.116-0.388,10.671c0.018,1.798,0.632,1.963,2.443,1.193L37.867,39.355z"/>
	<path fill="#1D1D1D" d="M85.279,40.069c0.114-0.085,0.229-0.167,0.342-0.251"/>
	<path fill="#333333" d="M66.06,7.253c-0.638,0.125-0.378,0.407-0.88-0.349c0.271-0.021-0.398,0.03,0,0
		c-0.949-1.086-1.801-2.141-2.734-3.114c-0.739-0.772-1.594-0.714-2.346,0.026c-0.601,0.586-1.148,1.224-1.72,1.839
		c-0.117-0.074-0.239-0.15-0.354-0.224c2.589-3.366,3.569-3.859,6.41-0.225C64.978,5.893,65.518,6.573,66.06,7.253z"/>
	<path fill="#333333" d="M35.791,27.469c-0.154-0.012-0.305-0.031-0.46-0.044c0.683-1.695,1.413-0.681,2.099,0.017
		c0.791-1.189,0.452-2.76,1.521-3.769c-0.422,1.824-0.842,3.646-1.264,5.471C37.402,27.901,36.584,27.181,35.791,27.469z"/>
	<path fill="#333333" d="M85.212,36.544c-0.353-1.849,0.097-3.723-0.197-5.578c1.06,1.322,0.379,2.826,0.377,4.239
		C85.392,35.606,85.335,36.105,85.212,36.544z"/>
	<path fill="#333333" d="M84.604,27.435c-0.065-0.085-0.126-0.167-0.188-0.251c0.005-0.2,0.035-0.414-0.286-0.354
		c0,0,0.061-0.011,0.063-0.011c0.143-1.345-0.494-2.562-0.646-3.858c0.354,0.825,0.747,1.634,1.047,2.479
		C84.817,26.083,85.01,26.769,84.604,27.435z"/>
	<path fill="#B5B5B5" d="M51.149,56.762c1.214,0.229,2.348,0.625,3.244,1.527c-1.142-0.316-2.264-0.663-3.208-1.419
		c-0.031-0.022-0.085-0.022-0.127-0.034C51.088,56.812,51.119,56.786,51.149,56.762z"/>
	<path fill="#333333" d="M85.579,27.479"/>
	<path fill="#1D1D1D" d="M84.409,40.302c-0.332-0.485-0.026-0.857,0.22-1.239c0.33,0.253,0.662,0.504,0.988,0.756
		c-0.111,0.084-0.226,0.166-0.339,0.251C84.873,39.692,84.651,40.043,84.409,40.302z"/>
	<path fill="#333333" d="M58.383,5.656c-0.295,0.376-0.913,1.494-1.591,1.614c0.027-0.622,0.906-1.504,1.236-1.837
		C58.143,5.506,58.265,5.582,58.383,5.656z"/>
	<path fill="#333333" d="M85.038,30.641c-0.011-0.126-0.016-0.255-0.023-0.378C85.306,30.374,85.203,30.506,85.038,30.641z"/>
	<path fill="#333333" d="M64.276,6.991c-0.058-0.001-0.118-0.007-0.176-0.018"/>
	<path fill="#1B1B1B" d="M76.742,31.909c0.089,1.941-0.105,3.839-0.694,5.709c-1.184,3.758-5.542,5.082-8.398,2.372
		c-2.332-2.206-3.798-5.064-4.679-8.105c-0.747-2.572-0.853-5.278,0.299-7.828c0.722-1.599,1.606-3.097,3.523-3.598
		c1.521-0.397,2.783,0.31,4.039,0.902c2.324,1.093,4.308,2.612,5.286,5.113C76.802,28.225,76.791,30.069,76.742,31.909z
		 M74.237,32.477c-0.053-2.849-1.034-4.953-3.469-6.203c-2.583-1.327-5.264,0.115-5.634,3.002c-0.296,2.333,0.449,4.361,1.83,6.186
		c1.433,1.894,3.257,2.42,5.317,1.333C74.056,35.857,74.123,34.018,74.237,32.477z"/>
	<path fill="#C7C7C7" d="M60.589,49.572c-0.141,1.382-0.648,2.64-1.375,3.812c-2.337,3.78-7.616,4.405-10.485,0.366
		c-2.696-3.8-5.656-7.527-6.708-12.273c-0.104-0.466-0.137-0.918-0.183-1.374c0.003-1.751,0.006-3.502,0.007-5.257
		c0.408-2.482,0.491-4.992,1.318-7.442c1.005-2.982,4.853-4.812,7.928-3.757c4.047,1.391,6.814,3.897,7.84,8.234
		c0.482,2.05,1.436,3.99,2.178,5.977c0,0.315,0.005,0.629,0.005,0.945c-0.178,1.12,0.193,2.291-0.3,3.385
		c-0.326,0.293-0.249,0.688-0.249,1.057C60.567,45.35,60.578,47.461,60.589,49.572z M52.646,27.016
		c-0.035-0.083-0.045-0.217-0.107-0.253c-2.671-1.498-5.987-0.817-7.591,2.336c-0.636,1.248-0.842,2.592-1.042,3.935
		c-0.398,2.654-0.343,5.221,0.387,7.911c0.979,3.592,3.555,5.945,5.899,8.342c2.955,3.035,6.024,2.32,7.782-1.118
		c1.483-2.895,1.632-6.179,1.629-9.325c-0.006-2.956-1.147-5.788-2.435-8.459c-0.813-1.689-1.994-3.086-4.083-3.247
		C52.938,27.099,52.79,27.059,52.646,27.016z"/>
	<path fill="#FCFCFC" d="M35.791,27.469c0.793-0.288,1.612,0.433,1.896,1.674c-0.224,0.212-0.46,0.419-0.149,0.738
		c-1.057,1.64-0.523,3.407-0.394,5.139c0.006,0.075,0.227,0.131,0.347,0.197c0,0.11-0.003,0.224-0.003,0.334
		c-0.354,0.175-0.274,0.469-0.21,0.761c0.478,0.953,0.374,2.017,0.568,3.021c-1.812,0.771-2.425,0.605-2.443-1.192
		C35.364,34.584,35.641,31.027,35.791,27.469z"/>
	<path fill="#BFBFBF" d="M37.491,35.216c-0.12-0.066-0.341-0.123-0.347-0.197c-0.131-1.731-0.663-3.5,0.394-5.139
		C37.522,31.659,37.508,33.438,37.491,35.216z"/>
	<path fill="#B5B5B5" d="M54.691,21.634c0.055,0.477,0.127,0.978-0.586,0.965c-0.327-0.007-0.53-0.293-0.486-0.562
		c0.102-0.649,0.562-0.608,1.046-0.428C54.665,21.613,54.691,21.634,54.691,21.634z"/>
	<path fill="#BFBFBF" d="M37.278,36.312c-0.063-0.292-0.143-0.586,0.21-0.761C37.545,35.839,37.506,36.101,37.278,36.312z"/>
	<path fill="#C2C2C2" d="M60.589,49.572c-0.011-2.111-0.021-4.221-0.023-6.329c0-0.368-0.078-0.765,0.249-1.057
		C60.749,44.652,61.047,47.124,60.589,49.572z"/>
	<path fill="#C2C2C2" d="M41.845,34.846c0,1.754-0.003,3.505-0.007,5.257C41.46,38.347,41.444,36.595,41.845,34.846z"/>
	<path fill="#4B4B4B" d="M84.129,26.828c0.321-0.06,0.291,0.155,0.286,0.354C84.318,27.064,84.227,26.948,84.129,26.828z"/>
	<path fill="#101010" d="M74.237,32.477c-0.114,1.541-0.182,3.38-1.958,4.318c-2.06,1.085-3.886,0.559-5.315-1.333
		c-1.385-1.825-2.125-3.854-1.83-6.186c0.371-2.887,3.051-4.329,5.632-3.002C73.2,27.524,74.185,29.628,74.237,32.477z"/>
	<path fill="#DBDBDB" d="M53.083,27.137c2.091,0.161,3.271,1.558,4.082,3.247c1.287,2.672,2.429,5.504,2.438,8.459
		c0.003,3.146-0.146,6.43-1.631,9.325c-1.757,3.438-4.825,4.151-7.781,1.118c-2.345-2.397-4.921-4.75-5.899-8.342
		c-0.731-2.69-0.787-5.257-0.388-7.911c0.2-1.344,0.406-2.688,1.042-3.935c1.604-3.153,4.92-3.834,7.591-2.336
		c0.063,0.036,0.072,0.17,0.107,0.253c-0.789-0.028-0.577,0.564-0.621,0.997c-1.535-0.446-3.099-0.716-4.363,0.554
		c-1.602,1.604-2.527,3.567-2.689,5.862c-0.341,4.813,1.514,8.681,5.047,11.847c2.693,2.413,5.42,1.888,6.853-0.644
		c0.306-0.538,0.39-1.145,0.611-1.704c0.793-2.025,1.42-4.156,1.021-6.323c-0.37-2.036-1.014-4.041-1.733-5.992
		c-0.488-1.316-1.251-2.561-2.897-2.805c-0.417-0.063-0.813-0.24-1.058-0.629C53.077,27.878,53.238,27.546,53.083,27.137z"/>
	<path fill="#DBDBDB" d="M53.083,27.137c0.155,0.41-0.006,0.741-0.271,1.042c-0.266-0.043-0.584,0.168-0.789-0.167
		c0.044-0.433-0.168-1.025,0.621-0.997C52.79,27.059,52.938,27.099,53.083,27.137z"/>
	<path fill="#B2B2B2" d="M52.024,28.013c0.408,0.106,0.522,0.124,0.791,0.167c0.245,0.389,0.641,0.566,1.058,0.628
		c1.647,0.245,2.409,1.491,2.897,2.805c0.72,1.949,1.363,3.956,1.733,5.992c0.399,2.166-0.227,4.298-1.021,6.323
		c-0.222,0.561-0.306,1.168-0.611,1.706c-1.433,2.532-4.159,3.056-6.853,0.644c-3.532-3.167-5.388-7.035-5.047-11.847
		c0.162-2.295,1.087-4.258,2.689-5.862C48.925,27.297,50.489,27.567,52.024,28.013z M57.098,38.036
		c0.222-2.042-0.283-3.873-1.09-5.657c-0.939-2.084-3.419-3.489-5.765-3.194c-1.718,0.214-3.5,2.099-3.79,4.25
		c-0.627,4.613,0.885,8.344,4.719,11.128c1.848,1.339,4.343,0.714,5.052-1.64C56.71,41.302,57.406,39.729,57.098,38.036z"/>
	<path fill="#717171" d="M57.098,38.036c0.307,1.692-0.39,3.266-0.874,4.886c-0.709,2.354-3.205,2.977-5.053,1.638
		c-3.833-2.783-5.345-6.514-4.718-11.127c0.29-2.151,2.072-4.036,3.789-4.249c2.346-0.295,4.825,1.108,5.765,3.194
		C56.814,34.165,57.319,35.994,57.098,38.036z M55.732,36.424c0.098-1.645-0.245-3.068-1.198-4.333
		c-1.029-1.369-2.479-1.752-4.016-1.491c-1.31,0.221-2.067,1.18-2.621,2.473c-1.134,2.625,0.573,6.599,2.569,8.359
		c2.296,2.029,4.286,1.038,4.897-1.758C55.599,38.596,55.919,37.477,55.732,36.424z"/>
	<path fill="#444444" d="M55.732,36.424c0.187,1.053-0.134,2.171-0.368,3.251c-0.611,2.796-2.602,3.785-4.897,1.758
		c-1.996-1.761-3.703-5.734-2.569-8.359c0.555-1.292,1.312-2.251,2.621-2.473c1.537-0.26,2.986,0.122,4.016,1.491
		C55.487,33.357,55.83,34.779,55.732,36.424z M49.219,34.972c-0.14,0.965,0.122,1.874,0.594,2.699
		c0.682,1.191,1.708,1.811,3.115,1.475c1.054-0.252,1.089-1.248,1.414-2.058c0.441-1.095,0.173-2.159-0.104-3.166
		c-0.274-0.979-0.821-1.954-1.984-2.191c-0.941-0.197-1.75,0.096-2.399,0.85C49.248,33.287,49.125,34.085,49.219,34.972z"/>
	<path fill="#272727" d="M49.219,34.972c-0.094-0.886,0.029-1.686,0.635-2.391c0.65-0.753,1.459-1.046,2.401-0.849
		c1.162,0.236,1.708,1.212,1.983,2.19c0.277,1.007,0.546,2.07,0.104,3.166c-0.325,0.811-0.359,1.808-1.413,2.058
		c-1.408,0.338-2.435-0.283-3.115-1.474C49.341,36.846,49.079,35.937,49.219,34.972z"/>
	<path fill="#FCFCFC" d="M84.953,39.791c2.042,1.101,3.136,0.578,3.094-1.992c-0.059-3.301-0.162-6.601-0.217-9.903
		c-0.005-0.16-0.186-0.313-0.285-0.471c-0.684-1.695-1.414-0.681-2.1,0.017"/>
	<path fill="#1D1D1D" d="M84.953,39.791c2.042,1.101,3.136,0.578,3.094-1.992c-0.059-3.301-0.162-6.601-0.217-9.903
		c-0.005-0.16-0.186-0.313-0.285-0.471c-0.151,0.013-0.305,0.032-0.459,0.044c0.149,3.558,0.426,7.116,0.388,10.671
		c-0.019,1.798-0.633,1.963-2.444,1.193"/>
	<path fill="#333333" d="M85.188,29.142c0.286-1.241,1.103-1.961,1.897-1.674c0.154-0.012,0.308-0.031,0.459-0.044
		c-0.684-1.696-1.414-0.681-2.1,0.017"/>
	<path fill="#FCFCFC" d="M85.029,39.333c1.812,0.771,2.425,0.605,2.444-1.193c0.038-3.556-0.238-7.114-0.388-10.671
		c-0.795-0.288-1.611,0.433-1.897,1.674"/>
</g>
<ellipse transform="matrix(-1 0.0063 -0.0063 -1 96.8506 95.6927)" fill="none" cx="48.275" cy="47.999" rx="48.275" ry="48.001"/>
<g>
	<path fill="#CCCCCC" d="M8.182,27.798C8.6,29.573,9.756,33.056,10.3,34.44c0.751,1.917,1.742,7.058,3.788,7.527
		c0.724,0.166,2.076-0.925,2.576-1.474c0.884-0.971,1.513-5.6,2.826-5.64c1.296-0.04,1.699,2.968,2.204,4.459
		c0.441,1.305,1.925,4.194,2.506,5.325c0.724,1.41,2.125,4.331,2.889,5.747c0.541,1.004,1.715,2.95,2.45,3.842
		c0.577,0.702,1.679,2.214,2.302,2.878c0.667,0.714,1.871,2.673,2.848,2.63c0.91-0.037,1.81-2.145,2.394-2.847
		c0.642-0.77,1.823-2.178,2.812-2.201c0.833-0.019,2.082,1.325,2.719,1.862c0.652,0.547,1.813,1.792,2.456,2.347
		c0.645,0.558,1.79,1.858,2.38,2.472c0.72,0.748,1.985,2.433,2.751,3.13c1.325,1.208,3.848,1.208,3.848,1.208L7.456,65.847
		L8.182,27.798z"/>
	<g>
		<line fill="none" x1="7.158" y1="25.949" x2="7.158" y2="66.79"/>
		<path fill="#8E8E8E" d="M7.158,67.552c-0.51,0-0.922-0.342-0.922-0.762V25.949c0-0.42,0.413-0.761,0.922-0.761
			c0.509,0,0.922,0.341,0.922,0.761V66.79C8.08,67.21,7.667,67.552,7.158,67.552z"/>
	</g>
	<g>
		<path fill="none" stroke="#000000" stroke-width="1.9885" stroke-linecap="round" stroke-miterlimit="10" d="M19.778,66.201"/>
	</g>
	<g>
		<line fill="none" x1="55.604" y1="66.629" x2="7.158" y2="66.629"/>
		<path fill="#8E8E8E" d="M55.604,67.552H7.158c-0.51,0-0.922-0.414-0.922-0.923c0-0.511,0.413-0.923,0.922-0.923h48.446
			c0.511,0,0.924,0.412,0.924,0.923C56.527,67.138,56.114,67.552,55.604,67.552z"/>
	</g>
	<path fill="none" stroke="#000000" stroke-width="2.2932" stroke-linecap="round" stroke-miterlimit="10" d="M8.993,27.941
		c0.417,1.774,1.279,4.561,1.823,5.944c0.753,1.917,1.282,7.014,3.328,7.481c0.723,0.167,2.075-0.924,2.575-1.474
		c0.884-0.971,1.514-5.6,2.827-5.64c1.295-0.04,1.699,2.968,2.204,4.459c0.442,1.304,1.925,4.193,2.506,5.326
		c0.724,1.407,2.125,4.33,2.889,5.746c0.541,1.004,1.717,2.949,2.45,3.84c0.578,0.702,1.68,2.215,2.303,2.879
		c0.667,0.713,1.872,2.673,2.847,2.631c0.912-0.039,1.811-2.146,2.395-2.847c0.642-0.771,1.824-2.179,2.812-2.202
		c0.833-0.019,2.082,1.325,2.719,1.862c0.652,0.548,1.813,1.792,2.458,2.347c0.643,0.558,1.79,1.859,2.378,2.473
		c0.72,0.748,1.984,2.432,2.749,3.129c1.327,1.209,3.85,1.209,3.85,1.209"/>
</g>
<text transform="matrix(1 0 0 1 16.9326 83.2988)" font-family="'MyriadPro-BoldIt'" font-size="16">SPEC-CSP</text>
<g>
	<path d="M20.999,54.861h5.94l-0.361,1.851h-3.759l-0.467,2.375h3.534l-0.361,1.835h-3.519l-0.767,4.075h-2.166L20.999,54.861z"/>
</g>
</svg>
