<?xml version="1.0" encoding="utf-8"?>
<!-- Generator: Adobe Illustrator 16.0.3, SVG Export Plug-In . SVG Version: 6.00 Build 0)  -->
<!DOCTYPE svg PUBLIC "-//W3C//DTD SVG 1.1//EN" "http://www.w3.org/Graphics/SVG/1.1/DTD/svg11.dtd">
<svg version="1.1" id="Layer_1" xmlns="http://www.w3.org/2000/svg" xmlns:xlink="http://www.w3.org/1999/xlink" x="0px" y="0px"
	 width="96px" height="96px" viewBox="0 0 96 96" enable-background="new 0 0 96 96" xml:space="preserve">
<circle fill="none" cx="48" cy="48" r="48"/>
<path fill="#CCCCCC" d="M19.845,26.693c0.546,2.321,2.059,6.878,2.77,8.689c0.984,2.507,2.28,9.232,4.956,9.846
	c0.946,0.217,2.715-1.21,3.369-1.928c1.156-1.27,1.98-7.326,3.697-7.378c1.696-0.053,2.223,3.882,2.884,5.833
	c0.578,1.707,2.519,5.481,3.279,6.961c0.946,1.845,2.779,5.666,3.778,7.519c0.708,1.312,2.245,3.859,3.206,5.024
	c0.755,0.919,2.197,2.896,3.012,3.766c0.872,0.933,2.448,3.496,3.725,3.441c1.191-0.049,2.368-2.807,3.132-3.725
	c0.839-1.006,2.385-2.849,3.679-2.879c1.089-0.025,2.723,1.733,3.556,2.436c0.854,0.716,2.373,2.344,3.214,3.07
	c0.843,0.729,2.341,2.432,3.112,3.234c0.938,0.979,2.59,3.182,3.592,4.094c1.736,1.582,5.034,1.582,5.034,1.582l-60.945,0.186
	L19.845,26.693z"/>
<g>
	<line fill="none" x1="18.504" y1="12.768" x2="18.504" y2="77.486"/>
	<path fill="#8E8E8E" d="M18.504,78.693c-0.666,0-1.206-0.54-1.206-1.207V12.768c0-0.666,0.54-1.206,1.206-1.206
		c0.667,0,1.207,0.541,1.207,1.206v64.719C19.711,78.153,19.171,78.693,18.504,78.693z"/>
</g>
<g>
	<path fill="none" stroke="#000000" stroke-width="2.6014" stroke-linecap="round" stroke-miterlimit="10" d="M35.015,76.927"/>
</g>
<g>
	<path d="M47.441,82.339h7.112l-0.433,2.215H49.62l-0.559,2.845h4.231l-0.432,2.196h-4.214l-0.918,4.88h-2.593L47.441,82.339z"/>
</g>
<g>
	<line fill="none" x1="81.877" y1="77.486" x2="18.504" y2="77.486"/>
	<path fill="#8E8E8E" d="M81.877,78.693H18.504c-0.666,0-1.206-0.54-1.206-1.207s0.54-1.207,1.206-1.207h63.373
		c0.668,0,1.207,0.54,1.207,1.207S82.545,78.693,81.877,78.693z"/>
</g>
<path fill="none" stroke="#000000" stroke-width="3" stroke-linecap="round" stroke-miterlimit="10" d="M20.906,26.88
	c0.545,2.321,1.673,5.966,2.385,7.777c0.985,2.507,1.677,9.175,4.353,9.788c0.946,0.217,2.715-1.21,3.369-1.928
	c1.157-1.27,1.98-7.326,3.698-7.379c1.695-0.052,2.223,3.883,2.883,5.833c0.578,1.707,2.519,5.481,3.279,6.962
	c0.947,1.843,2.78,5.665,3.779,7.518c0.707,1.312,2.246,3.858,3.205,5.024c0.756,0.918,2.197,2.896,3.012,3.766
	c0.873,0.933,2.449,3.496,3.725,3.441c1.192-0.05,2.369-2.807,3.133-3.725c0.839-1.006,2.386-2.85,3.679-2.879
	c1.089-0.025,2.724,1.733,3.558,2.436c0.852,0.716,2.371,2.344,3.213,3.07c0.843,0.728,2.342,2.432,3.111,3.234
	c0.938,0.979,2.59,3.181,3.592,4.094c1.736,1.581,5.034,1.581,5.034,1.581"/>
<g>
	<path d="M38.672,27.678l-0.468-12.136h2.61l0.019,5.401c-0.019,1.459-0.036,2.846-0.072,3.926h0.036
		c0.414-1.188,0.864-2.413,1.422-3.89l2.179-5.438h2.845l-0.036,5.42c-0.018,1.458-0.054,2.665-0.107,3.853h0.036
		c0.414-1.26,0.864-2.574,1.332-3.871l2.106-5.401h2.719l-5.348,12.136h-2.826l-0.09-4.987c0-1.423,0.035-2.647,0.107-4.016H45.1
		c-0.45,1.297-0.864,2.593-1.477,4.088l-2.07,4.915H38.672z"/>
	<path d="M64.271,20.403c0,2.215-0.774,4.357-2.161,5.726c-1.134,1.099-2.664,1.747-4.483,1.747c-3.15,0-4.915-2.232-4.915-5.06
		c0-2.197,0.811-4.375,2.232-5.744c1.135-1.08,2.683-1.729,4.43-1.729C62.579,15.344,64.271,17.505,64.271,20.403z M56.979,18.423
		c-0.973,0.954-1.513,2.845-1.513,4.304c0,1.71,0.774,2.988,2.539,2.988c0.756,0,1.476-0.342,2.034-0.882
		c0.954-0.954,1.477-2.953,1.477-4.357c0-1.513-0.54-2.971-2.449-2.971C58.258,17.505,57.537,17.847,56.979,18.423z"/>
	<path d="M65.401,24.869c0.721,0.432,1.746,0.774,2.863,0.774c1.008,0,1.926-0.469,1.926-1.423c0-0.685-0.521-1.135-1.638-1.711
		c-1.297-0.702-2.521-1.638-2.521-3.223c0-2.448,2.143-3.943,4.79-3.943c1.477,0,2.341,0.324,2.862,0.612l-0.81,2.161
		c-0.396-0.217-1.261-0.559-2.27-0.54c-1.206,0-1.836,0.611-1.836,1.278c0,0.702,0.738,1.134,1.765,1.71
		c1.477,0.774,2.412,1.765,2.412,3.205c0,2.701-2.232,4.087-4.934,4.087c-1.692,0-2.898-0.432-3.475-0.864L65.401,24.869z"/>
	<path d="M77.301,24.526l-1.44,3.151h-2.755l5.905-12.136h3.331l1.423,12.136h-2.719l-0.252-3.151H77.301z M80.686,22.546
		l-0.234-2.61c-0.054-0.666-0.126-1.639-0.18-2.377h-0.036c-0.306,0.738-0.648,1.675-0.973,2.377l-1.206,2.61H80.686z"/>
</g>
</svg>
