<?xml version="1.0" encoding="utf-8"?>
<!-- Generator: Adobe Illustrator 16.0.3, SVG Export Plug-In . SVG Version: 6.00 Build 0)  -->
<!DOCTYPE svg PUBLIC "-//W3C//DTD SVG 1.1//EN" "http://www.w3.org/Graphics/SVG/1.1/DTD/svg11.dtd">
<svg version="1.1" id="Layer_1" xmlns="http://www.w3.org/2000/svg" xmlns:xlink="http://www.w3.org/1999/xlink" x="0px" y="0px"
	 width="100px" height="100px" viewBox="0 0 100 100" enable-background="new 0 0 100 100" xml:space="preserve">
<g>
	<path stroke="#000000" stroke-miterlimit="10" d="M43.263,21.025h-5.507V17.13h15.762v3.895h-5.6v16.613h-4.655V21.025z"/>
	<path stroke="#000000" stroke-miterlimit="10" d="M70.16,37.06c-0.854,0.426-2.77,0.882-5.264,0.882
		c-7.09,0-10.742-4.412-10.742-10.253c0-6.998,4.99-10.893,11.197-10.893c2.403,0,4.229,0.487,5.051,0.913l-0.942,3.682
		c-0.942-0.396-2.251-0.761-3.896-0.761c-3.682,0-6.541,2.221-6.541,6.785c0,4.107,2.435,6.694,6.572,6.694
		c1.398,0,2.95-0.304,3.863-0.669L70.16,37.06z"/>
	<path stroke="#000000" stroke-miterlimit="10" d="M73.202,17.405c1.431-0.243,3.438-0.426,6.269-0.426
		c2.859,0,4.898,0.547,6.268,1.643c1.309,1.034,2.191,2.738,2.191,4.746c0,2.008-0.67,3.712-1.888,4.868
		c-1.582,1.491-3.925,2.161-6.663,2.161c-0.607,0-1.156-0.031-1.582-0.091v7.333h-4.595V17.405z M77.797,26.715
		c0.396,0.091,0.883,0.122,1.553,0.122c2.465,0,3.984-1.248,3.984-3.347c0-1.887-1.309-3.012-3.62-3.012
		c-0.942,0-1.582,0.091-1.917,0.183V26.715z"/>
</g>
<g id="Captions">
</g>
<g id="Your_Icon">
	<g>
		<path d="M48.429,71.443c0,0.979,0,2.328,0,3.813c-0.001,0.287-0.062,0.551-0.187,0.813c-0.187,0.397-0.537,0.801-1.027,1.099
			c-0.489,0.3-1.103,0.488-1.787,0.488h-24c-0.91,0.003-1.703-0.341-2.23-0.815c-0.264-0.236-0.458-0.504-0.583-0.768
			c-0.124-0.27-0.185-0.529-0.186-0.816c0-1.484,0-2.836,0-3.813c0-0.978,0-1.586,0-1.586h-6c0,0,0,0.605,0,1.586
			c0,0.979,0,2.328,0,3.813c-0.001,1.197,0.275,2.354,0.76,3.377c0.729,1.539,1.905,2.79,3.33,3.659
			c1.426,0.868,3.118,1.363,4.909,1.363h24c2.39-0.003,4.597-0.876,6.243-2.356c0.824-0.74,1.513-1.641,1.996-2.666
			c0.485-1.023,0.763-2.18,0.76-3.377c0-1.484,0-2.836,0-3.813c0-0.978,0-1.586,0-1.586h-5.999
			C48.429,69.857,48.429,70.465,48.429,71.443z"/>
		<path d="M28.029,74.656h10.799c1.326,0,2.4-1.074,2.4-2.399s-1.074-2.399-2.4-2.399h-3V55.458c0.001-0.988,0.399-1.877,1.06-2.539
			c0.663-0.661,1.552-1.062,2.54-1.062h6.207l-4.303,4.304l3.394,3.396l10.098-10.099L44.726,39.361l-3.394,3.394l4.302,4.302
			h-6.206c-2.312,0-4.422,0.951-5.935,2.466c-1.514,1.512-2.465,3.622-2.465,5.935v14.399h-3c-1.326,0-2.4,1.074-2.4,2.398
			C25.628,73.581,26.703,74.656,28.029,74.656z"/>
	</g>
</g>
<path fill="none" d="M100,50c0,27.614-22.387,50-50,50C22.386,100,0,77.614,0,50C0,22.385,25.052,0,50,0C77.613,0,100,22.386,100,50
	z"/>
</svg>
