<?xml version="1.0" encoding="utf-8"?>
<!-- Generator: Adobe Illustrator 16.0.3, SVG Export Plug-In . SVG Version: 6.00 Build 0)  -->
<!DOCTYPE svg PUBLIC "-//W3C//DTD SVG 1.1//EN" "http://www.w3.org/Graphics/SVG/1.1/DTD/svg11.dtd">
<svg version="1.1" id="Layer_1" xmlns="http://www.w3.org/2000/svg" xmlns:xlink="http://www.w3.org/1999/xlink" x="0px" y="0px"
	 width="96px" height="96px" viewBox="0 0 96 96" enable-background="new 0 0 96 96" xml:space="preserve">
<line fill="none" stroke="#666666" stroke-miterlimit="10" x1="59.906" y1="37.232" x2="36.721" y2="37.232"/>
<circle fill="none" cx="48.274" cy="48.269" r="48.274"/>
<path d="M59.68,25.945C56.074,15.336,53.478,7.672,48.516,7.672c-4.989,0-7.305,7.489-10.517,17.858
	c-5.467,17.689-6.406,36.891-33.538,35.23l0.087,4.631c7.327,0,4.088,0,8.332,0c21.523-1.393,24.904-22.286,29.687-37.777
	c1.181-3.805,2.077-8.941,3.501-11.821c0.67-1.355,1.458-2.217,2.448-2.209c0.892,0.015,1.687,0.941,2.433,2.38
	c1.567,3.016,2.897,8.296,4.228,12.252c5.972,17.571,10.4,37.174,37.267,37.174l0.21-4.631C73.113,60.796,66.964,47.38,59.68,25.945
	z"/>
<path fill="#B2B2B2" d="M98.159,66.088H51.763h-5.47H9.209c-4.74,0-1.122,0-9.309,0v2.156h98.259V66.088L98.159,66.088z"/>
<g>
	<path id="g0-27_1_" d="M87.954,27.975c0.524,0,1.86,0,1.86-1.295c0-0.889-0.769-0.889-1.497-0.889H79.37
		c-6.077,0-10.447,6.759-10.447,11.537c0,3.441,2.232,6.316,5.874,6.316c4.777,0,10-5.145,10-11.217c0-1.58-0.365-3.116-1.337-4.452
		H87.954z M74.836,42.829c-2.058,0-3.557-1.573-3.557-4.372c0-2.424,1.458-10.481,7.403-10.481c1.739,0,3.686,0.851,3.686,3.968
		c0,1.416-0.649,4.818-2.064,7.165C78.845,41.496,76.663,42.829,74.836,42.829z"/>
</g>
</svg>
