<?xml version="1.0" encoding="utf-8"?>
<!-- Generator: Adobe Illustrator 16.0.3, SVG Export Plug-In . SVG Version: 6.00 Build 0)  -->
<!DOCTYPE svg PUBLIC "-//W3C//DTD SVG 1.1//EN" "http://www.w3.org/Graphics/SVG/1.1/DTD/svg11.dtd">
<svg version="1.1" id="Layer_1" xmlns="http://www.w3.org/2000/svg" xmlns:xlink="http://www.w3.org/1999/xlink" x="0px" y="0px"
	 width="96px" height="96px" viewBox="0 0 96 96" enable-background="new 0 0 96 96" xml:space="preserve">
<radialGradient id="SVGID_1_" cx="-421.9263" cy="2245.8926" r="15.8635" gradientTransform="matrix(-0.0133 -1 0.8 -0.0026 -1727.1511 -367.7274)" gradientUnits="userSpaceOnUse">
	<stop  offset="0" style="stop-color:#000000"/>
	<stop  offset="1" style="stop-color:#A8A8A8"/>
</radialGradient>
<path opacity="0.7" fill="url(#SVGID_1_)" enable-background="new    " d="M74.968,28.145c10.826-0.035,19.689,8.958,19.836,20.104
	c0.125,11.165-8.529,20.227-19.354,20.266c-10.828,0.035-19.699-8.964-19.836-20.104C55.487,37.249,64.147,28.181,74.968,28.145z"/>
<circle fill="none" cx="48" cy="48" r="48"/>
<ellipse fill="#666666" stroke="#666666" stroke-linecap="round" stroke-miterlimit="10" cx="27.498" cy="32.111" rx="2.604" ry="2.638"/>
<path fill="#666666" stroke="#666666" stroke-linecap="round" stroke-miterlimit="10" d="M3.814,45.538
	c1.438,0,2.604,1.187,2.604,2.65c0,1.459-1.166,2.64-2.604,2.64c-1.438,0-2.604-1.181-2.604-2.64
	C1.21,46.725,2.376,45.538,3.814,45.538z"/>
<ellipse fill="#666666" stroke="#666666" stroke-linecap="round" stroke-miterlimit="10" cx="16.106" cy="52.095" rx="2.604" ry="2.638"/>
<ellipse fill="#666666" stroke="#666666" stroke-linecap="round" stroke-miterlimit="10" cx="12.021" cy="46.264" rx="2.604" ry="2.646"/>
<path fill="#666666" stroke="#666666" stroke-linecap="round" stroke-miterlimit="10" d="M38.008,44.341
	c0,1.459-1.166,2.645-2.604,2.645c-1.438,0-2.604-1.186-2.604-2.645c0-1.453,1.166-2.634,2.604-2.634
	C36.843,41.708,38.008,42.888,38.008,44.341z"/>
<ellipse fill="#666666" stroke="#666666" stroke-linecap="round" stroke-miterlimit="10" cx="11.118" cy="60.069" rx="2.604" ry="2.638"/>
<path fill="#666666" stroke="#666666" stroke-linecap="round" stroke-miterlimit="10" d="M27.029,43.325
	c1.438,0,2.603,1.181,2.603,2.641c0,1.463-1.165,2.65-2.603,2.65c-1.437,0-2.603-1.187-2.603-2.65
	C24.426,44.505,25.592,43.325,27.029,43.325z"/>
<path fill="#666666" stroke="#666666" stroke-linecap="round" stroke-miterlimit="10" d="M25.021,37.757
	c0,1.457-1.167,2.638-2.609,2.638c-1.438,0-2.604-1.181-2.604-2.638c0-1.458,1.165-2.639,2.604-2.639
	C23.854,35.119,25.021,36.299,25.021,37.757z"/>
<ellipse transform="matrix(-0.8231 -0.5679 0.5679 -0.8231 105.7183 99.91)" fill="#666666" stroke="#666666" stroke-linecap="round" stroke-miterlimit="10" cx="68.421" cy="33.488" rx="2.638" ry="2.605"/>
<ellipse transform="matrix(-0.823 -0.5681 0.5681 -0.823 85.0244 151.3834)" fill="#666666" stroke="#666666" stroke-linecap="round" stroke-miterlimit="10" cx="66.1" cy="62.444" rx="2.638" ry="2.605"/>
<path fill="#666666" stroke="#666666" stroke-linecap="round" stroke-miterlimit="10" d="M78.522,51.889
	c0.885-1.134,2.533-1.329,3.684-0.433c1.146,0.894,1.363,2.539,0.479,3.675c-0.883,1.134-2.53,1.328-3.681,0.434
	C77.857,54.669,77.641,53.022,78.522,51.889z"/>
<ellipse transform="matrix(-0.789 -0.6144 0.6144 -0.789 93.0407 138.4949)" fill="#666666" stroke="#666666" stroke-linecap="round" stroke-miterlimit="10" cx="70.3" cy="53.272" rx="2.639" ry="2.605"/>
<path fill="#666666" stroke="#666666" stroke-linecap="round" stroke-miterlimit="10" d="M84.456,31.786
	c1.2,0.828,1.51,2.458,0.692,3.642c-0.816,1.184-2.451,1.472-3.649,0.645c-1.195-0.826-1.505-2.456-0.688-3.64
	C81.627,31.25,83.262,30.961,84.456,31.786z"/>
<ellipse transform="matrix(-0.8229 -0.5681 0.5681 -0.8229 113.9811 161.2079)" fill="#666666" stroke="#666666" stroke-linecap="round" stroke-miterlimit="10" cx="82.111" cy="62.843" rx="2.639" ry="2.606"/>
<ellipse transform="matrix(-0.789 -0.6144 0.6144 -0.789 117.2562 128.153)" fill="#666666" stroke="#666666" stroke-linecap="round" stroke-miterlimit="10" cx="80.636" cy="43.94" rx="2.637" ry="2.602"/>
<path fill="#666666" stroke="#666666" stroke-linecap="round" stroke-miterlimit="10" d="M72.101,41.756
	c1.149,0.896,1.365,2.542,0.479,3.679c-0.883,1.136-2.531,1.33-3.682,0.435c-1.147-0.896-1.364-2.541-0.48-3.675
	C69.302,41.056,70.949,40.86,72.101,41.756z"/>
<path fill="#666666" stroke="#666666" stroke-linecap="round" stroke-miterlimit="10" d="M60.22,46.496
	c1.199,0.828,1.509,2.459,0.688,3.645c-0.816,1.185-2.45,1.473-3.65,0.645c-1.197-0.828-1.508-2.458-0.69-3.641
	C57.386,45.957,59.02,45.668,60.22,46.496z"/>
<path fill="#666666" stroke="#666666" stroke-linecap="round" stroke-miterlimit="10" d="M92.308,45.855
	c1.199,0.828,1.509,2.459,0.688,3.645c-0.816,1.185-2.45,1.473-3.65,0.645c-1.197-0.828-1.508-2.458-0.69-3.641
	C89.474,45.316,91.107,45.027,92.308,45.855z"/>
<path fill="#666666" stroke="#666666" stroke-linecap="round" stroke-miterlimit="10" d="M25.106,49.001
	c1.199,0.828,1.509,2.459,0.688,3.645c-0.816,1.185-2.45,1.473-3.65,0.645c-1.197-0.828-1.508-2.458-0.69-3.641
	C22.272,48.461,23.906,48.171,25.106,49.001z"/>
<path fill="#666666" stroke="#666666" stroke-linecap="round" stroke-miterlimit="10" d="M20.489,43.52
	c1.199,0.828,1.509,2.459,0.688,3.645c-0.816,1.185-2.45,1.472-3.65,0.644c-1.197-0.828-1.508-2.458-0.69-3.64
	C17.655,42.98,19.289,42.691,20.489,43.52z"/>
<path fill="#666666" stroke="#666666" stroke-linecap="round" stroke-miterlimit="10" d="M16.486,37.546
	c1.199,0.828,1.509,2.459,0.688,3.645c-0.816,1.185-2.45,1.473-3.65,0.645c-1.197-0.828-1.508-2.458-0.69-3.641
	C13.652,37.007,15.286,36.718,16.486,37.546z"/>
<radialGradient id="SVGID_2_" cx="-462.4761" cy="2163.0244" r="15.8711" gradientTransform="matrix(0.8192 -0.5736 0.2294 0.3277 -98.1971 -927.9633)" gradientUnits="userSpaceOnUse">
	<stop  offset="0" style="stop-color:#000000"/>
	<stop  offset="1" style="stop-color:#A8A8A8"/>
</radialGradient>
<path opacity="0.7" fill="url(#SVGID_2_)" enable-background="new    " d="M35.683,34.562c3.104,4.435-1.781,13.201-10.91,19.598
	c-9.153,6.393-19.07,7.981-22.175,3.549c-3.104-4.435,1.781-13.213,10.912-19.598C22.656,31.718,32.579,30.129,35.683,34.562z"/>
<path d="M30.601,55.771h15.207l-4.303,4.303l3.393,3.395l10.109-10.098L44.897,43.274l-3.393,3.395l4.301,4.302H30.601"/>
</svg>
