<?xml version="1.0" encoding="utf-8"?>
<!-- Generator: Adobe Illustrator 16.0.3, SVG Export Plug-In . SVG Version: 6.00 Build 0)  -->
<!DOCTYPE svg PUBLIC "-//W3C//DTD SVG 1.1//EN" "http://www.w3.org/Graphics/SVG/1.1/DTD/svg11.dtd">
<svg version="1.1" id="Layer_1" xmlns="http://www.w3.org/2000/svg" xmlns:xlink="http://www.w3.org/1999/xlink" x="0px" y="0px"
	 width="96px" height="96px" viewBox="0 0 96 96" enable-background="new 0 0 96 96" xml:space="preserve">
<circle fill="none" cx="48" cy="48" r="48"/>
<g>
	<line fill="none" x1="19.668" y1="44.496" x2="19.668" y2="78.12"/>
	<path fill="#8E8E8E" d="M19.668,78.748c-0.506,0-0.916-0.28-0.916-0.628V44.496c0-0.345,0.41-0.626,0.916-0.626
		s0.917,0.281,0.917,0.626V78.12C20.585,78.468,20.174,78.748,19.668,78.748z"/>
</g>
<g>
	<path fill="none" stroke="#000000" stroke-width="2.6014" stroke-linecap="round" stroke-miterlimit="10" d="M33.307,81.391"/>
</g>
<g>
	<line fill="none" x1="77.72" y1="77.83" x2="19.854" y2="77.83"/>
	<path fill="#8E8E8E" d="M77.72,78.748H19.854c-0.608,0-1.102-0.41-1.102-0.918c0-0.506,0.493-0.916,1.102-0.916H77.72
		c0.608,0,1.101,0.41,1.101,0.916C78.82,78.338,78.328,78.748,77.72,78.748z"/>
</g>
<g>
	<path stroke="#000000" stroke-width="0.4" stroke-miterlimit="10" d="M68.175,35.057c0,0-0.051,0-0.149-0.05
		c-0.097-0.05-0.247-0.1-0.396-0.148c-0.1-0.051-0.148-0.051-0.248-0.101s-0.198-0.05-0.297-0.1c-0.101-0.05-0.248-0.05-0.347-0.1
		c-0.149-0.05-0.247-0.05-0.396-0.1c-0.297-0.048-0.594-0.149-0.941-0.199c-0.347-0.048-0.696-0.098-1.093-0.098
		c-0.396-0.051-0.748-0.051-1.145-0.051c-0.199,0-0.399,0-0.597,0c-0.2,0-0.399,0-0.599,0.051c-0.399,0.05-0.797,0.05-1.195,0.098
		c-0.197,0.05-0.396,0.05-0.597,0.101c-0.101,0-0.198,0.05-0.298,0.05h-0.051l0,0l0,0l0,0l0,0h-0.05l-0.149,0.048
		c-0.198,0.05-0.396,0.1-0.547,0.149c-0.199,0.05-0.349,0.1-0.498,0.149c-0.348,0.101-0.646,0.199-0.943,0.348
		c-0.148,0.05-0.299,0.1-0.398,0.149c-0.15,0.05-0.25,0.1-0.35,0.15c-0.248,0.1-0.398,0.198-0.598,0.298
		c-0.148,0.099-0.299,0.148-0.349,0.198c-0.099,0.05-0.099,0.1-0.099,0.1c-0.051,0.05-0.1,0-0.1,0c0-0.05,0-0.1,0-0.1l0,0
		c0,0,0.049-0.05,0.1-0.1c0.099-0.05,0.197-0.148,0.347-0.248c0.15-0.099,0.351-0.249,0.55-0.349c0.1-0.05,0.248-0.149,0.348-0.199
		c0.15-0.05,0.25-0.148,0.398-0.199c0.299-0.149,0.598-0.299,0.944-0.447c0.147-0.051,0.349-0.149,0.547-0.199
		c0.2-0.051,0.351-0.101,0.548-0.2l0.149-0.05h0.05l0,0l0,0l0,0l0,0h0.05c0.101-0.05,0.199-0.05,0.298-0.1
		c0.2-0.05,0.399-0.1,0.6-0.149c0.398-0.1,0.845-0.199,1.242-0.249c0.199-0.05,0.398-0.05,0.648-0.1c0.196,0,0.396-0.05,0.646-0.05
		c0.397-0.05,0.847-0.05,1.244-0.099c0.396,0,0.796,0,1.191,0s0.742,0.049,1.04,0.099c0.148,0,0.296,0.05,0.447,0.05
		c0.146,0.05,0.295,0.05,0.395,0.1c0.148,0,0.247,0.05,0.397,0.1c0.097,0.05,0.245,0.05,0.345,0.1c0.198,0.05,0.298,0.1,0.396,0.1
		c0.1,0.05,0.147,0.05,0.147,0.05c0.397,0.1,0.646,0.547,0.496,0.945c-0.099,0.398-0.545,0.647-0.94,0.498
		C68.224,35.107,68.224,35.107,68.175,35.057z"/>
	<path stroke="#000000" stroke-width="0.4" stroke-miterlimit="10" d="M67.184,38.043c0,0-0.047,0-0.099,0.05
		c-0.051,0-0.148,0.05-0.248,0.101c-0.099,0.05-0.197,0.099-0.346,0.199c-0.148,0.098-0.298,0.198-0.496,0.297
		c-0.396,0.25-0.892,0.398-1.489,0.498c-0.248,0-0.547,0.05-0.846,0.05h-0.199c-0.1,0-0.148,0-0.198,0h-0.249h-0.25
		c-0.297-0.05-0.598-0.099-0.846-0.149c-0.299-0.05-0.547-0.148-0.797-0.248s-0.496-0.151-0.744-0.25
		c-0.25-0.1-0.448-0.198-0.647-0.298c-0.397-0.199-0.696-0.349-0.896-0.498c-0.201-0.149-0.351-0.199-0.351-0.199
		c-0.049-0.048-0.101-0.147-0.049-0.199c0.049-0.05,0.101-0.05,0.147-0.05l0,0c0,0,0.15,0.05,0.351,0.101
		c0.249,0.05,0.546,0.197,0.944,0.298c0.199,0.049,0.398,0.099,0.647,0.198c0.247,0.05,0.448,0.1,0.695,0.199
		c0.497,0.101,1.046,0.199,1.542,0.25h0.199h0.199c0.051,0,0.149,0,0.199,0h0.197c0.251,0,0.5,0,0.748-0.051
		c0.25-0.05,0.497-0.05,0.695-0.099c0.2-0.05,0.397-0.101,0.596-0.15s0.348-0.149,0.545-0.199c0.149-0.05,0.347-0.1,0.495-0.1
		s0.248,0,0.346,0c0.051,0,0.051,0,0.1,0h0.053c0.099,0,0.146,0.1,0.099,0.149C67.235,37.993,67.235,37.993,67.184,38.043z"/>
	<path stroke="#000000" stroke-width="0.4" stroke-miterlimit="10" d="M72.94,33.664c0,0,0.049,0,0.148-0.05
		c0.099-0.05,0.25-0.05,0.397-0.1c0.101,0,0.199-0.05,0.347-0.1c0.102-0.05,0.252-0.05,0.399-0.1c0.147-0.05,0.248-0.05,0.396-0.1
		c0.15,0,0.302-0.049,0.449-0.049c0.351-0.05,0.697-0.05,1.045-0.1c0.398,0,0.748,0,1.193,0c0.398,0,0.797,0.05,1.246,0.1
		c0.199,0,0.398,0.049,0.645,0.049c0.201,0.05,0.4,0.05,0.648,0.1c0.398,0.05,0.846,0.149,1.244,0.249
		c0.199,0.05,0.398,0.1,0.598,0.149c0.1,0.05,0.199,0.05,0.299,0.1h0.049l0,0l0,0l0,0l0,0h0.052l0.147,0.05
		c0.199,0.05,0.348,0.1,0.547,0.199c0.201,0.05,0.349,0.151,0.547,0.199c0.351,0.151,0.648,0.299,0.947,0.448
		c0.148,0.05,0.248,0.15,0.396,0.199c0.15,0.05,0.25,0.149,0.35,0.199c0.199,0.149,0.398,0.249,0.549,0.35
		c0.148,0.099,0.248,0.198,0.349,0.248c0.098,0.049,0.098,0.099,0.098,0.099l0,0c0.05,0.05,0.05,0.1,0,0.1
		c-0.051,0.05-0.098,0.05-0.098,0c0,0-0.05-0.05-0.101-0.1c-0.1-0.05-0.199-0.099-0.348-0.198c-0.15-0.099-0.35-0.198-0.598-0.299
		c-0.1-0.05-0.25-0.1-0.35-0.149c-0.148-0.05-0.248-0.1-0.398-0.149c-0.299-0.1-0.598-0.249-0.943-0.348
		c-0.152-0.05-0.35-0.1-0.5-0.149c-0.197-0.05-0.348-0.098-0.547-0.148l-0.148-0.051h-0.049l0,0l0,0l0,0l0,0h-0.049
		c-0.1,0-0.199-0.05-0.299-0.05c-0.199-0.048-0.4-0.048-0.598-0.098c-0.398-0.051-0.795-0.101-1.193-0.101
		c-0.199,0-0.398,0-0.6-0.049c-0.195,0-0.396,0-0.597,0c-0.397,0-0.797,0-1.146,0.049c-0.396,0.05-0.745,0.05-1.094,0.101
		c-0.35,0.05-0.647,0.098-0.944,0.199c-0.15,0.05-0.3,0.05-0.398,0.098c-0.149,0.05-0.25,0.1-0.35,0.1
		c-0.101,0.05-0.199,0.05-0.3,0.1c-0.098,0.05-0.196,0.05-0.25,0.1c-0.146,0.05-0.299,0.101-0.395,0.149
		c-0.1,0.05-0.15,0.05-0.15,0.05c-0.397,0.149-0.846,0-0.996-0.398c-0.149-0.396-0.063-0.984,0.398-0.995
		C72.89,33.664,72.94,33.664,72.94,33.664z"/>
	<path stroke="#000000" stroke-width="0.4" stroke-miterlimit="10" d="M74.481,37.745L74.481,37.745c0.049,0,0.049,0,0.1,0
		c0.101,0,0.199,0,0.351,0c0.147,0,0.297,0.049,0.446,0.148c0.148,0.05,0.349,0.149,0.547,0.199c0.199,0.05,0.4,0.101,0.599,0.15
		c0.199,0.049,0.449,0.099,0.695,0.099c0.25,0.051,0.497,0.051,0.797,0.051h0.198c0.052,0,0.15,0,0.199,0c0.15,0,0.25,0,0.398,0
		c0.248-0.051,0.547-0.051,0.797-0.101c0.248-0.049,0.498-0.099,0.795-0.149c0.498-0.1,0.945-0.249,1.344-0.349
		c0.398-0.099,0.748-0.247,0.945-0.297c0.25-0.101,0.348-0.101,0.348-0.101l0,0c0.051,0,0.152,0,0.199,0.101
		c0,0.05,0,0.147-0.047,0.147c0,0-0.102,0.101-0.35,0.199c-0.199,0.1-0.547,0.299-0.945,0.448c-0.398,0.199-0.848,0.348-1.395,0.548
		c-0.248,0.1-0.547,0.149-0.795,0.198c-0.299,0.05-0.549,0.1-0.847,0.149c-0.149,0-0.299,0.05-0.448,0.05c-0.05,0-0.148,0-0.199,0
		h-0.199c-0.299,0-0.547,0-0.846-0.05c-0.297-0.049-0.547-0.099-0.795-0.197c-0.25-0.1-0.498-0.199-0.697-0.3
		c-0.199-0.099-0.35-0.199-0.498-0.297c-0.148-0.101-0.248-0.149-0.348-0.199c-0.103-0.051-0.201-0.051-0.25-0.101
		c-0.052,0-0.101,0-0.101,0c-0.101,0-0.149-0.1-0.101-0.149C74.382,37.794,74.433,37.745,74.481,37.745z"/>
	<path fill="none" stroke="#000000" stroke-width="1.2" stroke-linecap="round" stroke-linejoin="round" stroke-miterlimit="10" d="
		M70.403,12.714c-15.003,0-16.396,15.974-15.501,20.204c2.59-1.543,9.307-3.433,16.15-3.483c6.862-0.05,12.536,1.692,15.672,3.185
		C88.167,28.986,85.431,12.714,70.403,12.714z"/>
	<path stroke="#000000" stroke-width="0.4" stroke-miterlimit="10" d="M68.818,43.22l-0.049,0.051c0,0,0,0.05-0.049,0.05
		c0,0.05-0.052,0.05-0.052,0.1c0,0.05,0,0.151,0.052,0.201c0.049,0.049,0.098,0.099,0.147,0.149c0.049,0.05,0.147,0.05,0.197,0l0,0
		l0.1-0.05l0.1,0.151c0.05,0.1,0.197,0.2,0.298,0.25c0.147,0.1,0.247,0.15,0.396,0.199c0.149,0.05,0.297,0.101,0.445,0.15
		c0.149,0.049,0.301,0.05,0.449,0.05h0.05h0.05c0.049,0,0.049,0,0.101,0c0.049,0,0.147,0,0.194-0.05
		c0.15-0.05,0.299-0.101,0.449-0.15c0.146-0.049,0.246-0.149,0.396-0.199c0.15-0.1,0.248-0.2,0.348-0.301l0.1-0.1l0.101,0.05l0,0
		c0.051,0,0.149,0,0.25-0.05s0.147-0.099,0.198-0.148c0.05-0.05,0.101-0.151,0.101-0.201c0-0.05-0.051-0.1-0.101-0.15l0,0
		c-0.1-0.05-0.1-0.15-0.051-0.25c0.051-0.1,0.15-0.1,0.25-0.048c0.051,0.048,0.15,0.098,0.15,0.198c0.049,0.051,0.1,0.151,0.1,0.251
		c0,0.201-0.051,0.35-0.149,0.449c-0.101,0.101-0.199,0.202-0.351,0.301c-0.147,0.05-0.297,0.1-0.447,0.05l0,0l0.199-0.05
		c-0.049,0.1-0.1,0.15-0.149,0.249c-0.05,0.051-0.101,0.15-0.199,0.2c-0.147,0.149-0.297,0.25-0.444,0.35
		c-0.152,0.099-0.351,0.148-0.498,0.198c-0.101,0-0.199,0.05-0.299,0.05c-0.051,0-0.099,0-0.146,0h-0.051c0,0,0,0-0.049,0h-0.051
		c-0.199,0-0.398-0.05-0.549-0.099c-0.197-0.05-0.348-0.099-0.495-0.198c-0.147-0.099-0.296-0.2-0.444-0.3
		c-0.049-0.05-0.148-0.149-0.197-0.2c-0.051-0.099-0.1-0.149-0.149-0.299l0.198,0.1l0,0c-0.146,0.05-0.348,0.05-0.446-0.05
		c-0.147-0.05-0.247-0.15-0.296-0.301c-0.051-0.149-0.1-0.298-0.1-0.449c0-0.05,0.049-0.15,0.049-0.2
		c0-0.051,0.051-0.051,0.051-0.101c0-0.05,0.049-0.05,0.049-0.1c0.049-0.1,0.149-0.1,0.247-0.048
		C68.818,43.02,68.868,43.119,68.818,43.22L68.818,43.22L68.818,43.22z"/>
	<path stroke="#000000" stroke-width="0.4" stroke-miterlimit="10" d="M59.83,43.921c0,0,0.299,0.3,0.847,0.749
		c0.546,0.498,1.343,1.145,2.338,1.891c0.996,0.748,2.189,1.594,3.477,2.34c0.646,0.397,1.387,0.747,2.129,0.993
		c0.198,0.102,0.396,0.15,0.547,0.201c0.197,0.049,0.396,0.1,0.595,0.148c0.396,0.1,0.792,0.148,1.142,0.148
		c0.198,0,0.396,0,0.596-0.049c0.199,0,0.397-0.049,0.596-0.1c0.398-0.1,0.797-0.199,1.145-0.35
		c0.748-0.297,1.443-0.646,2.141-0.994c1.345-0.746,2.537-1.592,3.533-2.34c0.994-0.746,1.791-1.393,2.338-1.891
		c0.55-0.449,0.849-0.749,0.849-0.749c0.049-0.05,0.147-0.05,0.147,0c0.051,0.05,0.051,0.101,0,0.15c0,0-0.299,0.299-0.846,0.799
		c-0.549,0.498-1.293,1.194-2.289,1.941c-0.498,0.396-1.045,0.796-1.594,1.193c-0.596,0.398-1.191,0.846-1.889,1.194
		c-0.697,0.398-1.396,0.748-2.189,1.046c-0.4,0.147-0.799,0.248-1.195,0.397c-0.399,0.101-0.896,0.149-1.291,0.149
		c-0.896,0-1.735-0.198-2.479-0.497c-0.792-0.3-1.485-0.648-2.179-1.047c-0.693-0.396-1.29-0.796-1.886-1.244
		c-0.597-0.397-1.145-0.846-1.592-1.193c-0.996-0.796-1.74-1.495-2.289-1.991c-0.548-0.5-0.797-0.799-0.797-0.799l0,0
		c-0.05-0.051-0.05-0.15,0-0.15C59.729,43.871,59.779,43.871,59.83,43.921z"/>
	<g>
		<path stroke="#000000" stroke-width="0.4" stroke-miterlimit="10" d="M70.803,47.607l-1.24-0.149c-0.147,0-0.248-0.149-0.198-0.3
			c0-0.149,0.148-0.247,0.297-0.197l1.191,0.147l1.189-0.147c0.149,0,0.25,0.098,0.299,0.197c0,0.15-0.098,0.25-0.197,0.3
			L70.803,47.607z"/>
	</g>
</g>
<g>
	<g>
		<path fill="#666666" d="M59.688,22.817c1.493,0,2.694,1.209,2.694,2.699c0,1.49-1.201,2.699-2.694,2.699
			c-1.491,0-2.698-1.209-2.698-2.699C56.99,24.026,58.197,22.817,59.688,22.817z"/>
	</g>
</g>
<g>
	<g>
		<path fill="#666666" d="M71.001,18.139c2.039,0,3.683,1.652,3.683,3.688c0,2.037-1.644,3.689-3.683,3.689
			s-3.689-1.652-3.689-3.689C67.312,19.792,68.962,18.139,71.001,18.139z"/>
	</g>
</g>
<g>
	<g>
		<path fill="#666666" d="M63.041,17.1c1.035,0,1.867,0.837,1.867,1.869s-0.832,1.869-1.867,1.869c-1.031,0-1.869-0.837-1.869-1.869
			S62.01,17.1,63.041,17.1z"/>
	</g>
</g>
<g>
	<g>
		<path fill="#666666" d="M80.192,20.838c2.039,0,3.684,1.652,3.684,3.688c0,2.037-1.645,3.689-3.684,3.689
			c-2.037,0-3.689-1.652-3.689-3.689C76.503,22.49,78.155,20.838,80.192,20.838z"/>
	</g>
</g>
<text transform="matrix(1 0 0 1 5.0151 35.3394)" font-family="'MyriadPro-BoldIt'" font-size="14.406">xDAWN</text>
<path fill-rule="evenodd" clip-rule="evenodd" fill="none" stroke="#000000" stroke-width="3" stroke-linecap="round" stroke-linejoin="round" stroke-miterlimit="10" d="
	M77.051,82.71c0.08-1.638-0.279-3.066-0.725-4.481c-0.152-0.479-0.32-0.946-0.49-1.412c-0.35-0.954-0.783-1.094-1.305-0.413
	c-0.373,0.485-0.74,0.979-1.09,1.495c-0.32,0.472-0.666,0.595-1.096,0.426c-0.262-0.103-0.547-0.113-0.816-0.09
	c-0.789,0.07-1.061,1.059-1.42,1.899c-0.629,1.474-1.262,2.944-1.914,4.393c-0.15,0.33-0.383,0.582-0.596,0.834
	c-0.906,1.083-1.564,1.065-2.672-0.323c-0.914-1.146-1.283-2.798-1.799-4.32c-0.113-0.342-0.238-0.675-0.303-1.025
	c-0.063-0.322-0.096-0.666-0.191-0.962c-0.352-1.089-0.699-2.182-1.096-3.232c-0.176-0.468-0.426-0.912-0.705-1.242
	c-1.346-1.579-2.08-3.713-2.504-6.152c-0.467-2.686-0.936-5.371-1.418-8.051c-0.48-2.66-0.928-5.339-1.488-7.959
	c-0.355-1.652-0.859-3.233-1.357-4.804c-0.33-1.039-0.697-1.124-1.297-0.505"/>
<path fill-rule="evenodd" clip-rule="evenodd" fill="none" stroke="#000000" stroke-width="3" stroke-linecap="round" stroke-linejoin="round" stroke-miterlimit="10" d="
	M19.608,69.512c-0.53,0.532-0.723,1.262-0.72,2.241"/>
<path fill-rule="evenodd" clip-rule="evenodd" fill="none" stroke="#000000" stroke-width="3" stroke-linecap="round" stroke-linejoin="round" stroke-miterlimit="10" d="
	M52.66,46.949c-0.51,1.467-1.027,2.919-1.523,4.389c-0.701,2.068-1.357,4.17-2.088,6.213c-0.328,0.918-0.71,1.854-1.207,2.556
	c-0.99,1.397-1.615,3.121-2.16,4.929c-0.544,1.803-1.045,3.634-1.527,5.479c-0.292,1.114-0.87,1.823-1.432,2.558
	c-0.284,0.37-0.476,0.654-0.993,1.272"/>
<path fill-rule="evenodd" clip-rule="evenodd" fill="none" stroke="#000000" stroke-width="3" stroke-linecap="round" stroke-linejoin="round" stroke-miterlimit="10" d="
	M19.663,69.347c0.615-0.104,1.103,0.213,1.535,0.901c0.417,0.662,0.911,1.211,1.353,1.841c0.628,0.897,1.217,1.861,1.867,2.717
	c0.287,0.379,0.665,0.644,1.03,0.834c0.868,0.452,1.447,1.305,1.802,2.583c0.356,1.29,0.752,2.554,1.142,3.82
	c0.166,0.538,0.335,1.077,0.547,1.573c0.486,1.133,1.672,1.159,2.372,0.451c0.6-0.606,1.039-1.625,1.482-2.536
	c0.255-0.526,0.377-1.201,0.559-1.811"/>
<path fill-rule="evenodd" clip-rule="evenodd" fill="none" stroke="#000000" stroke-width="3" stroke-linecap="round" stroke-linejoin="round" stroke-miterlimit="10" d="
	M37.277,70.674c0.036,0.084,0.073,0.167,0.109,0.25c-0.597,0.558-0.75,1.583-1.084,2.412c-0.392,0.971-0.652,2.087-1.118,2.958
	c-0.602,1.122-1.214,2.239-1.837,3.34"/>
<path fill-rule="evenodd" clip-rule="evenodd" fill="none" stroke="#000000" stroke-width="3" stroke-linecap="round" stroke-linejoin="round" stroke-miterlimit="10" d="
	M37.44,70.841c0.873,0.394,1.135,1.592,1.464,2.662c0.333,1.077,0.709,2.065,1.509,2.763c0.405-0.614,0.908-1.301,1.318-1.922"/>
</svg>
