<?xml version="1.0" encoding="utf-8"?>
<!-- Generator: Adobe Illustrator 16.0.3, SVG Export Plug-In . SVG Version: 6.00 Build 0)  -->
<!DOCTYPE svg PUBLIC "-//W3C//DTD SVG 1.1//EN" "http://www.w3.org/Graphics/SVG/1.1/DTD/svg11.dtd">
<svg version="1.1" id="Layer_1" xmlns="http://www.w3.org/2000/svg" xmlns:xlink="http://www.w3.org/1999/xlink" x="0px" y="0px"
	 width="100px" height="100px" viewBox="0 0 100 100" enable-background="new 0 0 100 100" xml:space="preserve">
<g id="Captions">
</g>
<g id="Your_Icon">
	<g>
		<path d="M80.764,73.631c0,0.002,0,0.607,0,1.587c0,0.98,0,2.327,0,3.813c0,0.287-0.062,0.549-0.187,0.813
			c-0.187,0.398-0.536,0.802-1.026,1.099c-0.488,0.299-1.104,0.486-1.787,0.486h-24c-0.91,0.004-1.703-0.339-2.229-0.813
			c-0.265-0.239-0.459-0.505-0.584-0.769c-0.123-0.269-0.185-0.529-0.187-0.816c0-1.486,0-2.836,0-3.813c0-0.979,0-1.585,0-1.587h-6
			c0,0.002,0,0.607,0,1.587c0,0.98,0,2.327,0,3.813c-0.001,1.197,0.275,2.354,0.761,3.377c0.729,1.539,1.905,2.791,3.33,3.658
			c1.425,0.869,3.118,1.365,4.909,1.365h24c2.391-0.002,4.598-0.877,6.245-2.355c0.823-0.742,1.511-1.643,1.994-2.668
			c0.485-1.023,0.763-2.18,0.761-3.377c0-1.486,0-2.836,0-3.813c0-0.979,0-1.585,0-1.587H80.764z"/>
		<path d="M62.305,51.891c0.659,0.664,1.059,1.551,1.059,2.541v14.006l-4.301-4.303l-3.395,3.395l10.096,10.098l10.098-10.098
			l-3.394-3.395l-4.304,4.303V54.432c0-2.313-0.951-4.424-2.467-5.936c-1.51-1.515-3.621-2.465-5.934-2.465h-7.199v4.8h7.199
			C60.753,50.832,61.641,51.23,62.305,51.891z"/>
	</g>
</g>
<text transform="matrix(1 0 0 1 10.6074 39.4023)" font-family="'MyriadPro-Regular'" font-size="32.4">ØMQ</text>
<g enable-background="new    ">
	<path fill="none" stroke="#000000" stroke-width="2" stroke-linecap="round" stroke-linejoin="round" stroke-miterlimit="10" d="
		M12.648,39.532l2.008-2.851c-1.814-1.944-2.883-4.827-2.883-8.066c0-6.9,4.374-11.403,10.075-11.403
		c2.009,0,3.888,0.583,5.442,1.717l1.911-2.624l1.717,1.167l-2.009,2.785c1.814,1.977,2.818,4.827,2.818,8.034
		c0,7.612-4.697,11.468-9.913,11.468c-2.073,0-3.984-0.615-5.54-1.749l-2.041,2.785L12.648,39.532z M25.897,21.002
		c-1.101-0.939-2.462-1.522-4.082-1.522c-4.762,0-7.159,4.406-7.159,8.974c0,2.43,0.648,4.179,1.62,5.863l0.032-0.032L25.897,21.002
		z M17.669,35.937c1.069,1.004,2.333,1.555,4.082,1.555c4.568,0,7.095-4.179,7.095-9.103c0-1.847-0.389-3.823-1.523-5.67h-0.097
		L17.669,35.937z"/>
	<path fill="none" stroke="#000000" stroke-width="2" stroke-linecap="round" stroke-linejoin="round" stroke-miterlimit="10" d="
		M53.793,29.813c-0.162-3.045-0.356-6.705-0.324-9.427h-0.098c-0.744,2.56-1.652,5.28-2.753,8.293l-3.855,10.593h-2.138
		l-3.531-10.398c-1.037-3.077-1.912-5.896-2.527-8.487h-0.065c-0.065,2.722-0.227,6.382-0.421,9.653l-0.583,9.362H34.81
		l1.522-21.834h3.596l3.726,10.561c0.907,2.688,1.652,5.086,2.203,7.354h0.097c0.551-2.202,1.328-4.6,2.3-7.354l3.887-10.561h3.596
		l1.36,21.834h-2.753L53.793,29.813z"/>
	<path fill="none" stroke="#000000" stroke-width="2" stroke-linecap="round" stroke-linejoin="round" stroke-miterlimit="10" d="
		M79.453,42.609c-2.947-0.777-5.831-1.652-8.357-2.526c-0.453-0.162-0.907-0.324-1.328-0.324c-5.184-0.194-9.621-4.017-9.621-11.047
		c0-6.997,4.275-11.5,10.172-11.5c5.928,0,9.783,4.601,9.783,11.047c0,5.604-2.592,9.2-6.221,10.463v0.13
		c2.171,0.551,4.535,1.069,6.383,1.393L79.453,42.609z M77.121,28.389c0-4.374-2.268-8.877-6.9-8.877
		c-4.762,0-7.094,4.406-7.063,9.136c-0.031,4.633,2.527,8.812,6.934,8.812C74.594,37.459,77.121,33.377,77.121,28.389z"/>
</g>
<g>
	<circle fill="none" cx="50" cy="50" r="50"/>
</g>
</svg>
