<?xml version="1.0" encoding="utf-8"?>
<!-- Generator: Adobe Illustrator 16.0.3, SVG Export Plug-In . SVG Version: 6.00 Build 0)  -->
<!DOCTYPE svg PUBLIC "-//W3C//DTD SVG 1.1//EN" "http://www.w3.org/Graphics/SVG/1.1/DTD/svg11.dtd">
<svg version="1.1" id="Layer_1" xmlns="http://www.w3.org/2000/svg" xmlns:xlink="http://www.w3.org/1999/xlink" x="0px" y="0px"
	 width="100px" height="100px" viewBox="0 0 100 100" enable-background="new 0 0 100 100" xml:space="preserve">
<g id="Captions">
</g>
<text transform="matrix(1 0 0 1 18.6436 37.4355)" font-family="'MyriadPro-Regular'" font-size="32.4">ØMQ</text>
<g enable-background="new    ">
	<path fill="none" stroke="#000000" stroke-width="2" stroke-linecap="round" stroke-linejoin="round" stroke-miterlimit="10" d="
		M20.685,37.565l2.008-2.851c-1.814-1.944-2.883-4.827-2.883-8.066c0-6.9,4.374-11.403,10.075-11.403
		c2.009,0,3.888,0.583,5.442,1.717l1.911-2.624l1.717,1.167l-2.009,2.785c1.814,1.977,2.818,4.827,2.818,8.034
		c0,7.612-4.697,11.468-9.913,11.468c-2.073,0-3.984-0.615-5.54-1.749l-2.041,2.785L20.685,37.565z M33.934,19.035
		c-1.101-0.939-2.462-1.522-4.082-1.522c-4.762,0-7.159,4.406-7.159,8.974c0,2.43,0.648,4.179,1.62,5.863l0.032-0.032L33.934,19.035
		z M25.706,33.97c1.069,1.004,2.333,1.555,4.082,1.555c4.568,0,7.095-4.179,7.095-9.103c0-1.847-0.389-3.823-1.523-5.67h-0.097
		L25.706,33.97z"/>
	<path fill="none" stroke="#000000" stroke-width="2" stroke-linecap="round" stroke-linejoin="round" stroke-miterlimit="10" d="
		M61.828,27.847c-0.161-3.045-0.355-6.705-0.323-9.427h-0.097c-0.746,2.56-1.652,5.28-2.754,8.293l-3.855,10.593h-2.138
		L49.13,26.907c-1.037-3.077-1.912-5.896-2.527-8.487h-0.065c-0.065,2.722-0.227,6.382-0.421,9.653l-0.583,9.362h-2.688
		l1.522-21.834h3.596l3.726,10.561c0.906,2.688,1.652,5.086,2.203,7.354h0.097c0.551-2.202,1.328-4.6,2.3-7.354l3.888-10.561h3.596
		l1.36,21.834h-2.754L61.828,27.847z"/>
	<path fill="none" stroke="#000000" stroke-width="2" stroke-linecap="round" stroke-linejoin="round" stroke-miterlimit="10" d="
		M87.489,40.643c-2.948-0.777-5.831-1.652-8.357-2.526c-0.454-0.162-0.907-0.324-1.329-0.324c-5.183-0.194-9.621-4.017-9.621-11.047
		c0-6.997,4.277-11.5,10.172-11.5c5.929,0,9.783,4.601,9.783,11.047c0,5.604-2.591,9.2-6.219,10.463v0.13
		c2.17,0.551,4.535,1.069,6.381,1.393L87.489,40.643z M85.157,26.422c0-4.374-2.269-8.877-6.9-8.877
		c-4.762,0-7.095,4.406-7.062,9.136c-0.033,4.633,2.526,8.812,6.932,8.812C82.631,35.492,85.157,31.41,85.157,26.422z"/>
</g>
<g id="Your_Icon">
	<g>
		<path d="M48.429,74.539c0,0.979,0,2.329,0,3.813c-0.001,0.289-0.062,0.551-0.187,0.816c-0.187,0.396-0.536,0.799-1.026,1.096
			c-0.489,0.301-1.103,0.488-1.788,0.488h-24c-0.91,0.003-1.703-0.34-2.231-0.814c-0.263-0.238-0.458-0.504-0.583-0.769
			c-0.125-0.267-0.185-0.528-0.186-0.817c0-1.484,0-2.834,0-3.813s0-1.586,0-1.588h-6c0,0.002,0,0.609,0,1.588s0,2.329,0,3.813
			c-0.001,1.199,0.275,2.354,0.76,3.379c0.729,1.539,1.905,2.789,3.33,3.658c1.425,0.869,3.118,1.363,4.909,1.363h24
			c2.39-0.002,4.597-0.875,6.244-2.355c0.825-0.74,1.511-1.641,1.996-2.666c0.483-1.024,0.763-2.18,0.76-3.379
			c0-1.484,0-2.834,0-3.813s0-1.586,0-1.588h-5.999C48.429,72.953,48.429,73.561,48.429,74.539z"/>
		<path d="M28.029,77.752h10.799c1.326,0,2.4-1.074,2.4-2.4c0-1.324-1.074-2.399-2.4-2.399h-3v-14.4
			c0.001-0.987,0.399-1.876,1.06-2.538c0.663-0.66,1.552-1.061,2.54-1.061h6.207l-4.303,4.303l3.394,3.395l10.097-10.098
			L44.726,42.456l-3.394,3.394l4.302,4.303h-6.206c-2.312-0.001-4.423,0.949-5.935,2.465c-1.515,1.512-2.466,3.623-2.465,5.935
			v14.399h-3c-1.326,0-2.4,1.075-2.4,2.399C25.628,76.678,26.703,77.752,28.029,77.752z"/>
	</g>
</g>
<g>
	<path fill="none" d="M100,50c0,27.614-22.387,50-50,50C22.386,100,0,77.614,0,50C0,22.385,25.052,0,50,0
		C77.613,0,100,22.386,100,50z"/>
</g>
</svg>
