<?xml version="1.0" encoding="utf-8"?>
<!-- Generator: Adobe Illustrator 16.0.3, SVG Export Plug-In . SVG Version: 6.00 Build 0)  -->
<!DOCTYPE svg PUBLIC "-//W3C//DTD SVG 1.1//EN" "http://www.w3.org/Graphics/SVG/1.1/DTD/svg11.dtd">
<svg version="1.1" id="Layer_1" xmlns="http://www.w3.org/2000/svg" xmlns:xlink="http://www.w3.org/1999/xlink" x="0px" y="0px"
	 width="100px" height="100px" viewBox="0 0 100 100" enable-background="new 0 0 100 100" xml:space="preserve">
<g id="Captions">
</g>
<text transform="matrix(1 0 0 1 18.6436 37.4355)" stroke="#000000" stroke-width="2" stroke-linecap="round" stroke-linejoin="round" stroke-miterlimit="10" font-family="'MyriadPro-Regular'" font-size="32.4">ØMQ</text>
<g id="Your_Icon">
	<g>
		<path d="M48.429,74.539c0,0.979,0,2.329,0,3.813c-0.001,0.289-0.062,0.551-0.187,0.816c-0.187,0.396-0.536,0.799-1.026,1.096
			c-0.489,0.301-1.103,0.488-1.788,0.488h-24c-0.91,0.003-1.703-0.34-2.231-0.814c-0.263-0.239-0.458-0.504-0.583-0.769
			c-0.125-0.267-0.185-0.528-0.186-0.817c0-1.485,0-2.835,0-3.813s0-1.586,0-1.588h-6c0,0.002,0,0.609,0,1.588s0,2.329,0,3.813
			c-0.001,1.199,0.275,2.354,0.76,3.379c0.729,1.539,1.905,2.789,3.33,3.658c1.425,0.869,3.118,1.363,4.909,1.363h24
			c2.39-0.002,4.597-0.875,6.244-2.355c0.825-0.741,1.511-1.641,1.996-2.666c0.484-1.025,0.762-2.18,0.76-3.379
			c0-1.485,0-2.835,0-3.813s0-1.586,0-1.588h-5.999C48.429,72.953,48.429,73.561,48.429,74.539z"/>
		<path d="M28.029,77.752h10.799c1.326,0,2.4-1.074,2.4-2.4c0-1.324-1.074-2.4-2.4-2.4h-3V58.552
			c0.001-0.987,0.399-1.876,1.06-2.539c0.663-0.66,1.552-1.06,2.54-1.06h6.207l-4.303,4.303l3.394,3.394l10.097-10.097
			L44.726,42.456l-3.394,3.394l4.302,4.303h-6.206c-2.312-0.001-4.423,0.949-5.935,2.465c-1.515,1.512-2.466,3.623-2.465,5.935
			v14.399h-3c-1.326,0-2.4,1.076-2.4,2.4C25.628,76.678,26.703,77.752,28.029,77.752z"/>
	</g>
</g>
<g>
	<path fill="none" d="M100,50c0,27.614-22.386,50-50,50S0,77.614,0,50C0,22.385,25.052,0,50,0C77.614,0,100,22.386,100,50z"/>
</g>
</svg>
